<svg xmlns="http://www.w3.org/2000/svg" xmlns:xlink="http://www.w3.org/1999/xlink" width="210" height="210" viewBox="0 0 210 210">
  <defs>
    <circle id="zoneinput-a" cx="105" cy="105" r="105"/>
    <radialGradient id="zoneinput-b" cx="50%" cy="50%" r="3154.65%" fx="50%" fy="50%" gradientTransform="matrix(0 .01754 -1 0 1 .491)">
      <stop offset="0%" stop-color="#FFF" stop-opacity=".398"/>
      <stop offset="100%" stop-color="#FFF" stop-opacity=".12"/>
    </radialGradient>
    <filter id="zoneinput-d" width="108.9%" height="104.9%" x="-4.5%" y="-6.6%" filterUnits="objectBoundingBox">
      <feGaussianBlur in="SourceGraphic" stdDeviation="2"/>
    </filter>
  </defs>
  <g fill="none" fill-rule="evenodd">
    <mask id="zoneinput-c" fill="#fff">
      <use xlink:href="#zoneinput-a"/>
    </mask>
    <use fill="#FFF" opacity=".205" xlink:href="#zoneinput-a"/>
    <rect width="4" height="228" x="103" y="-4" fill="url(#zoneinput-b)" mask="url(#zoneinput-c)"/>
    <g transform="translate(4 4)">
      <circle cx="101" cy="101" r="101" stroke="#FFF" stroke-width="3" opacity=".404"/>
      <circle cx="101" cy="101" r="61" fill="#FFF" opacity=".131"/>
      <circle cx="101" cy="101" r="55" stroke="#FFF" stroke-width="3" opacity=".504"/>
    </g>
    <path fill="#706784" stroke="#FFF" stroke-width="3" d="M105,122 L88.6022457,130.62081 C87.6245566,131.134811 86.4153022,130.758918 85.9013006,129.781229 C85.6966225,129.391908 85.6259931,128.945972 85.7003468,128.512457 L88.8320392,110.253289 L75.5659773,97.3220745 C74.7750102,96.5510721 74.7588256,95.2848456 75.529828,94.4938784 C75.8368452,94.1789111 76.23913,93.9739368 76.6744041,93.9106878 L95.0076507,91.2467111 L103.206528,74.6339715 C103.695372,73.6434642 104.894624,73.2367862 105.885131,73.7256308 C106.279557,73.9202912 106.598812,74.2395463 106.793472,74.6339715 L114.992349,91.2467111 L133.325596,93.9106878 C134.418686,94.069523 135.176049,95.0844087 135.017213,96.1774984 C134.953964,96.6127725 134.74899,97.0150573 134.434023,97.3220745 L121.167961,110.253289 L124.299653,128.512457 C124.486375,129.60113 123.7552,130.635041 122.666527,130.821763 C122.233011,130.896117 121.787075,130.825488 121.397754,130.62081 L105,122 Z"/>
    <path stroke="#FFF" stroke-width="2" d="M105,122 L88.6022457,130.62081 C87.6245566,131.134811 86.4153022,130.758918 85.9013006,129.781229 C85.6966225,129.391908 85.6259931,128.945972 85.7003468,128.512457 L88.8320392,110.253289 L75.5659773,97.3220745 C74.7750102,96.5510721 74.7588256,95.2848456 75.529828,94.4938784 C75.8368452,94.1789111 76.23913,93.9739368 76.6744041,93.9106878 L95.0076507,91.2467111 L103.206528,74.6339715 C103.695372,73.6434642 104.894624,73.2367862 105.885131,73.7256308 C106.279557,73.9202912 106.598812,74.2395463 106.793472,74.6339715 L114.992349,91.2467111 L133.325596,93.9106878 C134.418686,94.069523 135.176049,95.0844087 135.017213,96.1774984 C134.953964,96.6127725 134.74899,97.0150573 134.434023,97.3220745 L121.167961,110.253289 L124.299653,128.512457 C124.486375,129.60113 123.7552,130.635041 122.666527,130.821763 C122.233011,130.896117 121.787075,130.825488 121.397754,130.62081 L105,122 Z" filter="url(#zoneinput-d)" opacity=".672"/>
  </g>
</svg>
