<svg xmlns="http://www.w3.org/2000/svg" width="551" height="182" viewBox="0 0 551 182">
  <g fill="#FFF" fill-rule="evenodd" transform="translate(-5 -1)">
    <path d="M74.2640703,123.942132 L62.3040703,123.942132 C59.5440565,123.942132 57.8574067,123.7888 57.2440703,123.482132 C56.9374021,120.262116 56.7840703,116.352155 56.7840703,111.752132 C56.7840703,107.152109 56.6307385,103.012151 56.3240703,99.3321322 L56.3240703,99.1021322 C56.3240703,98.9487981 56.4007362,98.8721322 56.5540703,98.8721322 C56.7074044,98.8721322 56.8607362,98.7954663 57.0140703,98.6421322 C59.3140818,97.2621253 62.4957166,96.5337992 66.5590703,96.4571322 C70.6224239,96.3804651 74.3407201,96.3421322 77.7140703,96.3421322 C81.0874205,96.3421322 86.2623687,96.5721299 93.2390703,97.0321322 C100.215772,97.4921345 103.857402,97.7221322 104.16407,97.7221322 L104.62407,97.7221322 L104.85407,97.9521322 C106.080743,108.532185 106.69407,118.192088 106.69407,126.932132 C106.69407,135.672176 106.080743,143.338766 104.85407,149.932132 C103.474063,163.272199 96.1908029,172.395441 83.0040703,177.302132 C71.5040128,180.522148 61.8057764,182.132132 53.9090703,182.132132 C46.0123641,182.132132 39.3040979,180.943811 33.7840703,178.567132 C28.2640427,176.190454 23.8174205,172.855487 20.4440703,168.562132 C15.0773768,161.508764 11.5507454,150.54554 9.86407029,135.672132 C8.17739519,118.652047 7.33407029,106.308837 7.33407029,98.6421322 C7.33407029,78.2486969 8.25406109,62.3405226 10.0940703,50.9171322 C11.9340795,39.4937417 16.3807017,31.3288234 23.4340703,26.4221322 C30.640773,20.2887682 41.2973331,17.2221322 55.4040703,17.2221322 C69.5108075,17.2221322 81.3173561,20.8637624 90.8240703,28.1471322 C100.330784,35.4305019 105.08407,46.0487291 105.08407,60.0021322 C105.08407,63.3754824 104.854073,66.5187843 104.39407,69.4321322 C104.087402,69.8921345 100.100775,70.1604651 92.4340703,70.2371322 C84.7673653,70.3137992 79.0940887,70.1221345 75.4140703,69.6621322 C71.5807178,56.9354019 66.3674366,50.5721322 59.7740703,50.5721322 C58.3940634,50.4187981 57.0524101,50.3421322 55.7490703,50.3421322 C54.4457304,50.3421322 52.8357465,50.4187981 50.9190703,50.5721322 C49.002394,50.7254663 47.469076,51.3771264 46.3190703,52.5271322 C45.1690645,53.6771379 43.8274113,56.8587728 42.2940703,62.0721322 C39.9940588,70.1988395 38.8440703,81.0470643 38.8440703,94.6171322 C38.8440703,108.1872 39.2657327,119.342088 40.1090703,128.082132 C40.9524078,136.822176 43.3673837,142.802116 47.3540703,146.022132 C49.6540818,147.555473 52.4523871,148.322132 55.7490703,148.322132 C59.0457534,148.322132 62.7640496,147.555473 66.9040703,146.022132 C70.7374228,144.335457 73.1140657,141.575485 74.0340703,137.742132 C74.4940726,135.902123 74.8390691,133.372148 75.0690703,130.152132 C75.2990714,126.932116 75.0307408,124.862137 74.2640703,123.942132 Z" transform="rotate(-5 57.014 99.677)"/>
    <path d="M230.66593,166.99 L200.76593,167.91 C196.932577,167.91 194.249271,167.756668 192.71593,167.45 L192.48593,167.45 C181.445875,141.689871 170.789314,122.44673 160.51593,109.72 L160.05593,109.03 C159.749262,111.63668 159.59593,116.811628 159.59593,124.555 C159.59593,132.298372 160.132591,145.829903 161.20593,165.15 C156.912575,166.836675 148.40266,167.68 135.67593,167.68 L121.18593,167.68 C121.799266,167.68 122.10593,143.491909 122.10593,95.115 C122.10593,46.7380914 121.262605,17.3367188 119.57593,6.91 C137.516019,4.3033203 150.970885,3 159.94093,3 C168.910975,3 175.619241,3.2299977 180.06593,3.69 C188.959308,4.1500023 197.085893,6.7566429 204.44593,11.51 C218.706001,20.710046 226.372591,34.4332421 227.44593,52.68 C227.599264,53.4466705 227.67593,54.2133295 227.67593,54.98 C227.67593,62.646705 225.375953,70.0832973 220.77593,77.29 C214.335898,89.8633962 204.369331,96.5333295 190.87593,97.3 L189.72593,97.3 L189.72593,97.53 C191.259271,100.290014 197.545875,110.064916 208.58593,126.855 C219.625985,143.645084 226.985911,157.023283 230.66593,166.99 Z M154.53593,67.4 C159.289287,67.8600023 163.582577,68.09 167.41593,68.09 C171.249282,68.09 174.699248,67.8600023 177.76593,67.4 C184.359296,66.0199931 187.65593,60.9600437 187.65593,52.22 C187.65593,46.6999724 185.739282,42.5600138 181.90593,39.8 C178.685914,36.8866521 174.660954,35.43 169.83093,35.43 C165.000906,35.43 159.442628,36.6566544 153.15593,39.11 C153.309264,41.2566774 153.424263,45.8566314 153.50093,52.91 C153.577597,59.9633686 153.845927,64.7933203 154.30593,67.4 L154.53593,67.4 Z" transform="rotate(-3 175.12 85.455)"/>
    <path d="M282.445,129.57 L333.045,130.95 C336.571684,130.95 339.791652,130.873334 342.705,130.72 L342.705,131.18 C343.011668,134.860018 343.165,139.459972 343.165,144.98 C343.165,150.500028 342.398341,155.943306 340.865,161.31 L275.545,162 C264.964947,162 255.305044,161.61667 246.565,160.85 L245.415,52.98 C245.415,35.6532467 245.874995,19.1700782 246.795,3.53 C272.708463,2.1499931 295.01824,1.46 313.725,1.46 C332.43176,1.46 341.861666,1.6899977 342.015,2.15 C342.475002,5.3700161 342.705,8.8199816 342.705,12.5 L342.015,34.81 L342.015,35.04 C335.2683,36.573341 326.375055,37.34 315.335,37.34 L303.375,37.34 C294.78829,37.34 287.581696,37.4933318 281.755,37.8 L281.065,37.8 L280.835,38.03 L280.145,58.04 C280.145,62.0266866 280.52833,64.4033295 281.295,65.17 C289.575041,65.6300023 299.004947,65.86 309.585,65.86 L309.585,66.09 C310.198336,66.5500023 310.505,69.7699701 310.505,75.75 L310.045,98.06 C306.824984,98.9800046 301.650036,99.44 294.52,99.44 C287.389964,99.44 283.288339,99.8233295 282.215,100.59 C281.601664,103.810016 281.295,107.834976 281.295,112.665 C281.295,117.495024 281.601664,123.053302 282.215,129.34 L282.445,129.57 Z"/>
    <path d="M390.394989,6.64417045 C392.541666,6.33750225 393.998318,6.26083635 394.764989,6.41417045 C395.531659,6.56750455 397.524972,6.64417045 400.744989,6.64417045 C403.965005,6.64417045 409.944945,6.26084095 418.684989,5.49417045 L437.544989,86.9141705 L454.794989,167.41417 L454.794989,167.64417 C450.961636,168.410841 446.515014,168.79417 441.454989,168.79417 C436.394963,168.79417 430.568355,168.104177 423.974989,166.72417 L423.744989,166.72417 C422.67165,163.810823 420.985,157.639218 418.684989,148.20917 C416.384977,138.779123 414.46833,132.454187 412.934989,129.23417 C412.321652,128.774168 410.865,128.54417 408.564989,128.54417 L398.674989,129.00417 C397.448316,131.917518 395.914998,138.127456 394.074989,147.63417 C392.234979,157.140885 390.394998,163.734152 388.554989,167.41417 C387.174982,167.720839 385.794995,167.87417 384.414989,167.87417 L355.664989,167.41417 C355.511654,167.41417 355.358323,167.337505 355.204989,167.18417 C355.358323,166.724168 356.891641,158.060921 359.804989,141.19417 C362.718336,124.327419 366.934961,103.129298 372.454989,77.5991705 C377.975016,52.0690428 383.954956,28.4176127 390.394989,6.64417045 Z M397.064989,101.86417 L414.084989,101.86417 C410.40497,69.8173436 407.491666,53.7941705 405.344989,53.7941705 C404.731652,53.7941705 404.118325,54.944159 403.504989,57.2441705 C402.891652,59.544182 400.745007,74.4173666 397.064989,101.86417 Z" transform="rotate(3 405 87.144)"/>
    <path d="M481.050944,175.973431 L481.280944,144.923431 C481.280944,115.483284 480.667617,85.7369149 479.440944,55.6834313 L479.210944,55.4534313 C476.450931,54.0734244 471.275982,53.3067654 463.685944,53.1534313 C456.095906,53.0000972 452.070947,52.8467654 451.610944,52.6934313 C450.69094,50.8534221 450.230944,45.601808 450.230944,36.9384313 C450.230944,28.2750547 450.384276,21.4901225 450.690944,16.5834313 L450.460944,16.1234313 C461.194331,15.8167631 471.007567,15.6634313 479.900944,15.6634313 C488.794322,15.6634313 498.914221,15.7017643 510.260944,15.7784313 C521.607668,15.8550984 534.027544,16.6600903 547.520944,18.1934313 C547.827613,23.2534566 547.980944,28.8500673 547.980944,34.9834313 C547.980944,41.1167953 547.520949,47.4033991 546.600944,53.8434313 C544.760935,53.5367631 541.540967,53.3834313 536.940944,53.3834313 C532.340921,53.3834313 526.207649,53.5367631 518.540944,53.8434313 L517.850944,53.8434313 C517.544276,54.4567677 517.390944,61.5100305 517.390944,75.0034313 C517.390944,88.4968321 517.85094,122.229828 518.770944,176.203431 L518.770944,176.663431 C515.397594,177.276768 510.030981,177.583431 502.670944,177.583431 L496.920944,177.353431 C489.560908,177.353431 484.27096,177.660095 481.050944,178.273431 L481.050944,175.973431 Z" transform="rotate(6 499.106 96.968)"/>
  </g>
</svg>
