{
    "header": {
        "keySignatures": [
            {
                "key": "B",
                "scale": "major",
                "ticks": 0
            }
        ],
        "meta": [
            {
                "text": "www.songgalaxy.com",
                "ticks": 0,
                "type": "copyrightNotice"
            }
        ],
        "name": "",
        "ppq": 480,
        "tempos": [
            {
                "bpm": 126.000126000126,
                "ticks": 0
            }
        ],
        "timeSignatures": [
            {
                "ticks": 0,
                "timeSignature": [
                    4,
                    4
                ],
                "measures": 0
            }
        ]
    },
    "tracks": [
        {
            "channel": 0,
            "controlChanges": {
                "0": [
                    {
                        "number": 0,
                        "ticks": 0,
                        "time": 0,
                        "value": 0
                    }
                ],
                "7": [
                    {
                        "number": 7,
                        "ticks": 0,
                        "time": 0,
                        "value": 0.7559055118110236
                    }
                ]
            },
            "pitchBends": [],
            "instrument": {
                "family": "piano",
                "name": "acoustic grand piano",
                "number": 0
            },
            "name": "Acoustic Grand Piano",
            "notes": []
        },
        {
            "channel": 0,
            "controlChanges": {
                "0": [
                    {
                        "number": 0,
                        "ticks": 0,
                        "time": 0,
                        "value": 0
                    }
                ]
            },
            "pitchBends": [],
            "instrument": {
                "family": "piano",
                "name": "acoustic grand piano",
                "number": 0
            },
            "name": "Lead 8 (bass + lead)",
            "notes": []
        },
        {
            "channel": 1,
            "controlChanges": {
                "1": [
                    {
                        "number": 1,
                        "ticks": 807,
                        "time": 0.8005944374999999,
                        "value": 0
                    }
                ],
                "6": [
                    {
                        "number": 6,
                        "ticks": 920,
                        "time": 0.9126975,
                        "value": 0.3543307086614173
                    }
                ],
                "7": [
                    {
                        "number": 7,
                        "ticks": 0,
                        "time": 0,
                        "value": 0.7559055118110236
                    }
                ],
                "10": [
                    {
                        "number": 10,
                        "ticks": 532,
                        "time": 0.52777725,
                        "value": 0.49606299212598426
                    }
                ],
                "11": [
                    {
                        "number": 11,
                        "ticks": 757,
                        "time": 0.7509913125000001,
                        "value": 1
                    }
                ],
                "64": [
                    {
                        "number": 64,
                        "ticks": 707,
                        "time": 0.7013881875,
                        "value": 0
                    }
                ],
                "91": [
                    {
                        "number": 91,
                        "ticks": 607,
                        "time": 0.6021819375,
                        "value": 0
                    }
                ],
                "93": [
                    {
                        "number": 93,
                        "ticks": 657,
                        "time": 0.6517850625,
                        "value": 0.3779527559055118
                    }
                ],
                "98": [
                    {
                        "number": 98,
                        "ticks": 920,
                        "time": 0.9126975,
                        "value": 0.25196850393700787
                    }
                ],
                "99": [
                    {
                        "number": 99,
                        "ticks": 920,
                        "time": 0.9126975,
                        "value": 0.007874015748031496
                    }
                ],
                "120": [
                    {
                        "number": 120,
                        "ticks": 49920,
                        "time": 49.52376,
                        "value": 0
                    },
                    {
                        "number": 120,
                        "ticks": 53760,
                        "time": 53.33328,
                        "value": 0
                    },
                    {
                        "number": 120,
                        "ticks": 57600,
                        "time": 57.1428,
                        "value": 0
                    },
                    {
                        "number": 120,
                        "ticks": 119040,
                        "time": 118.09512,
                        "value": 0
                    },
                    {
                        "number": 120,
                        "ticks": 122880,
                        "time": 121.90464,
                        "value": 0
                    },
                    {
                        "number": 120,
                        "ticks": 126720,
                        "time": 125.71416,
                        "value": 0
                    }
                ],
                "121": [
                    {
                        "number": 121,
                        "ticks": 315,
                        "time": 0.3124996875,
                        "value": 0
                    }
                ],
                "123": [
                    {
                        "number": 123,
                        "ticks": 49920,
                        "time": 49.52376,
                        "value": 0
                    },
                    {
                        "number": 123,
                        "ticks": 53760,
                        "time": 53.33328,
                        "value": 0
                    },
                    {
                        "number": 123,
                        "ticks": 57600,
                        "time": 57.1428,
                        "value": 0
                    },
                    {
                        "number": 123,
                        "ticks": 119040,
                        "time": 118.09512,
                        "value": 0
                    },
                    {
                        "number": 123,
                        "ticks": 122880,
                        "time": 121.90464,
                        "value": 0
                    },
                    {
                        "number": 123,
                        "ticks": 126720,
                        "time": 125.71416,
                        "value": 0
                    }
                ]
            },
            "pitchBends": [
                {
                    "ticks": 857,
                    "time": 0.8501975625,
                    "value": 0
                }
            ],
            "instrument": {
                "family": "synth lead",
                "name": "lead 8 (bass + lead)",
                "number": 87
            },
            "name": "",
            "notes": [
                {
                    "duration": 0.23214262499999805,
                    "durationTicks": 234,
                    "midi": 30,
                    "name": "F#1",
                    "ticks": 23040,
                    "time": 22.857120000000002,
                    "velocity": 0.905511811023622
                },
                {
                    "duration": 0.23214262499999805,
                    "durationTicks": 234,
                    "midi": 42,
                    "name": "F#2",
                    "ticks": 23280,
                    "time": 23.095215,
                    "velocity": 0.905511811023622
                },
                {
                    "duration": 0.23214262499999805,
                    "durationTicks": 234,
                    "midi": 30,
                    "name": "F#1",
                    "ticks": 23520,
                    "time": 23.33331,
                    "velocity": 0.905511811023622
                },
                {
                    "duration": 0.2321426250000016,
                    "durationTicks": 234,
                    "midi": 42,
                    "name": "F#2",
                    "ticks": 23760,
                    "time": 23.571405,
                    "velocity": 0.905511811023622
                },
                {
                    "duration": 0.23214262499999805,
                    "durationTicks": 234,
                    "midi": 30,
                    "name": "F#1",
                    "ticks": 24000,
                    "time": 23.8095,
                    "velocity": 0.905511811023622
                },
                {
                    "duration": 0.23214262499999805,
                    "durationTicks": 234,
                    "midi": 42,
                    "name": "F#2",
                    "ticks": 24240,
                    "time": 24.047595,
                    "velocity": 0.905511811023622
                },
                {
                    "duration": 0.2321426250000016,
                    "durationTicks": 234,
                    "midi": 30,
                    "name": "F#1",
                    "ticks": 24480,
                    "time": 24.28569,
                    "velocity": 0.905511811023622
                },
                {
                    "duration": 0.23214262499999805,
                    "durationTicks": 234,
                    "midi": 42,
                    "name": "F#2",
                    "ticks": 24720,
                    "time": 24.523785,
                    "velocity": 0.905511811023622
                },
                {
                    "duration": 0.23214262499999805,
                    "durationTicks": 234,
                    "midi": 28,
                    "name": "E1",
                    "ticks": 24960,
                    "time": 24.76188,
                    "velocity": 0.905511811023622
                },
                {
                    "duration": 0.23214262499999805,
                    "durationTicks": 234,
                    "midi": 40,
                    "name": "E2",
                    "ticks": 25200,
                    "time": 24.999975,
                    "velocity": 0.905511811023622
                },
                {
                    "duration": 0.23214262499999805,
                    "durationTicks": 234,
                    "midi": 28,
                    "name": "E1",
                    "ticks": 25440,
                    "time": 25.23807,
                    "velocity": 0.905511811023622
                },
                {
                    "duration": 0.23214262499999805,
                    "durationTicks": 234,
                    "midi": 40,
                    "name": "E2",
                    "ticks": 25680,
                    "time": 25.476165,
                    "velocity": 0.905511811023622
                },
                {
                    "duration": 0.23214262499999805,
                    "durationTicks": 234,
                    "midi": 28,
                    "name": "E1",
                    "ticks": 25920,
                    "time": 25.71426,
                    "velocity": 0.905511811023622
                },
                {
                    "duration": 0.23214262499999805,
                    "durationTicks": 234,
                    "midi": 40,
                    "name": "E2",
                    "ticks": 26160,
                    "time": 25.952355,
                    "velocity": 0.905511811023622
                },
                {
                    "duration": 0.2321426250000016,
                    "durationTicks": 234,
                    "midi": 28,
                    "name": "E1",
                    "ticks": 26400,
                    "time": 26.19045,
                    "velocity": 0.905511811023622
                },
                {
                    "duration": 0.23214262499999805,
                    "durationTicks": 234,
                    "midi": 40,
                    "name": "E2",
                    "ticks": 26640,
                    "time": 26.428545,
                    "velocity": 0.905511811023622
                },
                {
                    "duration": 0.23214262499999805,
                    "durationTicks": 234,
                    "midi": 35,
                    "name": "B1",
                    "ticks": 26880,
                    "time": 26.66664,
                    "velocity": 0.905511811023622
                },
                {
                    "duration": 0.2321426250000016,
                    "durationTicks": 234,
                    "midi": 47,
                    "name": "B2",
                    "ticks": 27120,
                    "time": 26.904735,
                    "velocity": 0.905511811023622
                },
                {
                    "duration": 0.23214262499999805,
                    "durationTicks": 234,
                    "midi": 35,
                    "name": "B1",
                    "ticks": 27360,
                    "time": 27.14283,
                    "velocity": 0.905511811023622
                },
                {
                    "duration": 0.23214262499999805,
                    "durationTicks": 234,
                    "midi": 47,
                    "name": "B2",
                    "ticks": 27600,
                    "time": 27.380925,
                    "velocity": 0.905511811023622
                },
                {
                    "duration": 0.23214262499999805,
                    "durationTicks": 234,
                    "midi": 35,
                    "name": "B1",
                    "ticks": 27840,
                    "time": 27.61902,
                    "velocity": 0.905511811023622
                },
                {
                    "duration": 0.23214262499999805,
                    "durationTicks": 234,
                    "midi": 47,
                    "name": "B2",
                    "ticks": 28080,
                    "time": 27.857115,
                    "velocity": 0.905511811023622
                },
                {
                    "duration": 0.23214262499999805,
                    "durationTicks": 234,
                    "midi": 35,
                    "name": "B1",
                    "ticks": 28320,
                    "time": 28.09521,
                    "velocity": 0.905511811023622
                },
                {
                    "duration": 0.23214262499999805,
                    "durationTicks": 234,
                    "midi": 47,
                    "name": "B2",
                    "ticks": 28560,
                    "time": 28.333305,
                    "velocity": 0.905511811023622
                },
                {
                    "duration": 0.23214262499999805,
                    "durationTicks": 234,
                    "midi": 30,
                    "name": "F#1",
                    "ticks": 28800,
                    "time": 28.5714,
                    "velocity": 0.905511811023622
                },
                {
                    "duration": 0.23214262499999805,
                    "durationTicks": 234,
                    "midi": 42,
                    "name": "F#2",
                    "ticks": 29040,
                    "time": 28.809495000000002,
                    "velocity": 0.905511811023622
                },
                {
                    "duration": 0.23214262499999805,
                    "durationTicks": 234,
                    "midi": 30,
                    "name": "F#1",
                    "ticks": 29280,
                    "time": 29.04759,
                    "velocity": 0.905511811023622
                },
                {
                    "duration": 0.23214262499999805,
                    "durationTicks": 234,
                    "midi": 42,
                    "name": "F#2",
                    "ticks": 29520,
                    "time": 29.285685,
                    "velocity": 0.905511811023622
                },
                {
                    "duration": 0.2321426250000016,
                    "durationTicks": 234,
                    "midi": 30,
                    "name": "F#1",
                    "ticks": 29760,
                    "time": 29.52378,
                    "velocity": 0.905511811023622
                },
                {
                    "duration": 0.23214262499999805,
                    "durationTicks": 234,
                    "midi": 42,
                    "name": "F#2",
                    "ticks": 30000,
                    "time": 29.761875,
                    "velocity": 0.905511811023622
                },
                {
                    "duration": 0.23214262499999805,
                    "durationTicks": 234,
                    "midi": 30,
                    "name": "F#1",
                    "ticks": 30240,
                    "time": 29.99997,
                    "velocity": 0.905511811023622
                },
                {
                    "duration": 0.2321426250000016,
                    "durationTicks": 234,
                    "midi": 42,
                    "name": "F#2",
                    "ticks": 30480,
                    "time": 30.238065,
                    "velocity": 0.905511811023622
                },
                {
                    "duration": 0.2321426249999945,
                    "durationTicks": 234,
                    "midi": 30,
                    "name": "F#1",
                    "ticks": 46080,
                    "time": 45.714240000000004,
                    "velocity": 0.905511811023622
                },
                {
                    "duration": 0.2321426250000016,
                    "durationTicks": 234,
                    "midi": 42,
                    "name": "F#2",
                    "ticks": 46320,
                    "time": 45.952335,
                    "velocity": 0.905511811023622
                },
                {
                    "duration": 0.2321426250000016,
                    "durationTicks": 234,
                    "midi": 30,
                    "name": "F#1",
                    "ticks": 46560,
                    "time": 46.19043,
                    "velocity": 0.905511811023622
                },
                {
                    "duration": 0.2321426250000016,
                    "durationTicks": 234,
                    "midi": 42,
                    "name": "F#2",
                    "ticks": 46800,
                    "time": 46.428525,
                    "velocity": 0.905511811023622
                },
                {
                    "duration": 0.2321426249999945,
                    "durationTicks": 234,
                    "midi": 30,
                    "name": "F#1",
                    "ticks": 47040,
                    "time": 46.66662,
                    "velocity": 0.905511811023622
                },
                {
                    "duration": 0.2321426249999945,
                    "durationTicks": 234,
                    "midi": 42,
                    "name": "F#2",
                    "ticks": 47280,
                    "time": 46.904715,
                    "velocity": 0.905511811023622
                },
                {
                    "duration": 0.2321426250000016,
                    "durationTicks": 234,
                    "midi": 30,
                    "name": "F#1",
                    "ticks": 47520,
                    "time": 47.14281,
                    "velocity": 0.905511811023622
                },
                {
                    "duration": 0.2321426250000016,
                    "durationTicks": 234,
                    "midi": 42,
                    "name": "F#2",
                    "ticks": 47760,
                    "time": 47.380905,
                    "velocity": 0.905511811023622
                },
                {
                    "duration": 0.2321426250000016,
                    "durationTicks": 234,
                    "midi": 28,
                    "name": "E1",
                    "ticks": 48000,
                    "time": 47.619,
                    "velocity": 0.905511811023622
                },
                {
                    "duration": 0.2321426249999945,
                    "durationTicks": 234,
                    "midi": 40,
                    "name": "E2",
                    "ticks": 48240,
                    "time": 47.857095,
                    "velocity": 0.905511811023622
                },
                {
                    "duration": 0.2321426249999945,
                    "durationTicks": 234,
                    "midi": 28,
                    "name": "E1",
                    "ticks": 48480,
                    "time": 48.09519,
                    "velocity": 0.905511811023622
                },
                {
                    "duration": 0.2321426249999945,
                    "durationTicks": 234,
                    "midi": 40,
                    "name": "E2",
                    "ticks": 48720,
                    "time": 48.333285000000004,
                    "velocity": 0.905511811023622
                },
                {
                    "duration": 0.2321426250000016,
                    "durationTicks": 234,
                    "midi": 28,
                    "name": "E1",
                    "ticks": 48960,
                    "time": 48.57138,
                    "velocity": 0.905511811023622
                },
                {
                    "duration": 0.2321426250000016,
                    "durationTicks": 234,
                    "midi": 40,
                    "name": "E2",
                    "ticks": 49200,
                    "time": 48.809475,
                    "velocity": 0.905511811023622
                },
                {
                    "duration": 0.2321426250000016,
                    "durationTicks": 234,
                    "midi": 28,
                    "name": "E1",
                    "ticks": 49440,
                    "time": 49.04757,
                    "velocity": 0.905511811023622
                },
                {
                    "duration": 0.2321426249999945,
                    "durationTicks": 234,
                    "midi": 40,
                    "name": "E2",
                    "ticks": 49680,
                    "time": 49.285665,
                    "velocity": 0.905511811023622
                },
                {
                    "duration": 0.2321426249999945,
                    "durationTicks": 234,
                    "midi": 35,
                    "name": "B1",
                    "ticks": 49920,
                    "time": 49.52376,
                    "velocity": 0.905511811023622
                },
                {
                    "duration": 0.2321426250000016,
                    "durationTicks": 234,
                    "midi": 47,
                    "name": "B2",
                    "ticks": 50160,
                    "time": 49.761855,
                    "velocity": 0.905511811023622
                },
                {
                    "duration": 0.2321426250000016,
                    "durationTicks": 234,
                    "midi": 35,
                    "name": "B1",
                    "ticks": 50400,
                    "time": 49.99995,
                    "velocity": 0.905511811023622
                },
                {
                    "duration": 0.2321426250000016,
                    "durationTicks": 234,
                    "midi": 47,
                    "name": "B2",
                    "ticks": 50640,
                    "time": 50.238045,
                    "velocity": 0.905511811023622
                },
                {
                    "duration": 0.2321426249999945,
                    "durationTicks": 234,
                    "midi": 35,
                    "name": "B1",
                    "ticks": 50880,
                    "time": 50.47614,
                    "velocity": 0.905511811023622
                },
                {
                    "duration": 0.2321426249999945,
                    "durationTicks": 234,
                    "midi": 47,
                    "name": "B2",
                    "ticks": 51120,
                    "time": 50.714235,
                    "velocity": 0.905511811023622
                },
                {
                    "duration": 0.2321426249999945,
                    "durationTicks": 234,
                    "midi": 35,
                    "name": "B1",
                    "ticks": 51360,
                    "time": 50.95233,
                    "velocity": 0.905511811023622
                },
                {
                    "duration": 0.2321426250000016,
                    "durationTicks": 234,
                    "midi": 47,
                    "name": "B2",
                    "ticks": 51600,
                    "time": 51.190425,
                    "velocity": 0.905511811023622
                },
                {
                    "duration": 0.2321426250000016,
                    "durationTicks": 234,
                    "midi": 30,
                    "name": "F#1",
                    "ticks": 51840,
                    "time": 51.42852,
                    "velocity": 0.905511811023622
                },
                {
                    "duration": 0.2321426250000016,
                    "durationTicks": 234,
                    "midi": 42,
                    "name": "F#2",
                    "ticks": 52080,
                    "time": 51.666615,
                    "velocity": 0.905511811023622
                },
                {
                    "duration": 0.2321426249999945,
                    "durationTicks": 234,
                    "midi": 30,
                    "name": "F#1",
                    "ticks": 52320,
                    "time": 51.90471,
                    "velocity": 0.905511811023622
                },
                {
                    "duration": 0.2321426249999945,
                    "durationTicks": 234,
                    "midi": 42,
                    "name": "F#2",
                    "ticks": 52560,
                    "time": 52.142805,
                    "velocity": 0.905511811023622
                },
                {
                    "duration": 0.2321426250000016,
                    "durationTicks": 234,
                    "midi": 30,
                    "name": "F#1",
                    "ticks": 52800,
                    "time": 52.3809,
                    "velocity": 0.905511811023622
                },
                {
                    "duration": 0.2321426250000016,
                    "durationTicks": 234,
                    "midi": 42,
                    "name": "F#2",
                    "ticks": 53040,
                    "time": 52.618995,
                    "velocity": 0.905511811023622
                },
                {
                    "duration": 0.2321426250000016,
                    "durationTicks": 234,
                    "midi": 30,
                    "name": "F#1",
                    "ticks": 53280,
                    "time": 52.85709,
                    "velocity": 0.905511811023622
                },
                {
                    "duration": 0.2321426250000016,
                    "durationTicks": 234,
                    "midi": 42,
                    "name": "F#2",
                    "ticks": 53520,
                    "time": 53.095185,
                    "velocity": 0.905511811023622
                },
                {
                    "duration": 0.2321426249999945,
                    "durationTicks": 234,
                    "midi": 30,
                    "name": "F#1",
                    "ticks": 53760,
                    "time": 53.33328,
                    "velocity": 0.905511811023622
                },
                {
                    "duration": 0.2321426249999945,
                    "durationTicks": 234,
                    "midi": 42,
                    "name": "F#2",
                    "ticks": 54000,
                    "time": 53.571375,
                    "velocity": 0.905511811023622
                },
                {
                    "duration": 0.2321426250000016,
                    "durationTicks": 234,
                    "midi": 30,
                    "name": "F#1",
                    "ticks": 54240,
                    "time": 53.80947,
                    "velocity": 0.905511811023622
                },
                {
                    "duration": 0.2321426250000016,
                    "durationTicks": 234,
                    "midi": 42,
                    "name": "F#2",
                    "ticks": 54480,
                    "time": 54.047565,
                    "velocity": 0.905511811023622
                },
                {
                    "duration": 0.2321426250000016,
                    "durationTicks": 234,
                    "midi": 30,
                    "name": "F#1",
                    "ticks": 54720,
                    "time": 54.28566,
                    "velocity": 0.905511811023622
                },
                {
                    "duration": 0.2321426249999945,
                    "durationTicks": 234,
                    "midi": 42,
                    "name": "F#2",
                    "ticks": 54960,
                    "time": 54.523755,
                    "velocity": 0.905511811023622
                },
                {
                    "duration": 0.2321426249999945,
                    "durationTicks": 234,
                    "midi": 30,
                    "name": "F#1",
                    "ticks": 55200,
                    "time": 54.76185,
                    "velocity": 0.905511811023622
                },
                {
                    "duration": 0.2321426250000016,
                    "durationTicks": 234,
                    "midi": 42,
                    "name": "F#2",
                    "ticks": 55440,
                    "time": 54.999945,
                    "velocity": 0.905511811023622
                },
                {
                    "duration": 0.2321426250000016,
                    "durationTicks": 234,
                    "midi": 28,
                    "name": "E1",
                    "ticks": 55680,
                    "time": 55.23804,
                    "velocity": 0.905511811023622
                },
                {
                    "duration": 0.2321426250000016,
                    "durationTicks": 234,
                    "midi": 40,
                    "name": "E2",
                    "ticks": 55920,
                    "time": 55.476135,
                    "velocity": 0.905511811023622
                },
                {
                    "duration": 0.2321426250000016,
                    "durationTicks": 234,
                    "midi": 28,
                    "name": "E1",
                    "ticks": 56160,
                    "time": 55.71423,
                    "velocity": 0.905511811023622
                },
                {
                    "duration": 0.2321426249999945,
                    "durationTicks": 234,
                    "midi": 40,
                    "name": "E2",
                    "ticks": 56400,
                    "time": 55.952325,
                    "velocity": 0.905511811023622
                },
                {
                    "duration": 0.2321426249999945,
                    "durationTicks": 234,
                    "midi": 28,
                    "name": "E1",
                    "ticks": 56640,
                    "time": 56.19042,
                    "velocity": 0.905511811023622
                },
                {
                    "duration": 0.2321426250000016,
                    "durationTicks": 234,
                    "midi": 40,
                    "name": "E2",
                    "ticks": 56880,
                    "time": 56.428515,
                    "velocity": 0.905511811023622
                },
                {
                    "duration": 0.2321426250000016,
                    "durationTicks": 234,
                    "midi": 28,
                    "name": "E1",
                    "ticks": 57120,
                    "time": 56.66661,
                    "velocity": 0.905511811023622
                },
                {
                    "duration": 0.2321426250000016,
                    "durationTicks": 234,
                    "midi": 40,
                    "name": "E2",
                    "ticks": 57360,
                    "time": 56.904705,
                    "velocity": 0.905511811023622
                },
                {
                    "duration": 0.2321426249999945,
                    "durationTicks": 234,
                    "midi": 35,
                    "name": "B1",
                    "ticks": 57600,
                    "time": 57.1428,
                    "velocity": 0.905511811023622
                },
                {
                    "duration": 0.2321426249999945,
                    "durationTicks": 234,
                    "midi": 47,
                    "name": "B2",
                    "ticks": 57840,
                    "time": 57.380895,
                    "velocity": 0.905511811023622
                },
                {
                    "duration": 0.2321426249999945,
                    "durationTicks": 234,
                    "midi": 35,
                    "name": "B1",
                    "ticks": 58080,
                    "time": 57.618990000000004,
                    "velocity": 0.905511811023622
                },
                {
                    "duration": 0.2321426250000016,
                    "durationTicks": 234,
                    "midi": 47,
                    "name": "B2",
                    "ticks": 58320,
                    "time": 57.857085,
                    "velocity": 0.905511811023622
                },
                {
                    "duration": 0.2321426250000016,
                    "durationTicks": 234,
                    "midi": 35,
                    "name": "B1",
                    "ticks": 58560,
                    "time": 58.09518,
                    "velocity": 0.905511811023622
                },
                {
                    "duration": 0.2321426250000016,
                    "durationTicks": 234,
                    "midi": 47,
                    "name": "B2",
                    "ticks": 58800,
                    "time": 58.333275,
                    "velocity": 0.905511811023622
                },
                {
                    "duration": 0.2321426249999945,
                    "durationTicks": 234,
                    "midi": 35,
                    "name": "B1",
                    "ticks": 59040,
                    "time": 58.57137,
                    "velocity": 0.905511811023622
                },
                {
                    "duration": 0.2321426249999945,
                    "durationTicks": 234,
                    "midi": 47,
                    "name": "B2",
                    "ticks": 59280,
                    "time": 58.809465,
                    "velocity": 0.905511811023622
                },
                {
                    "duration": 0.2321426250000087,
                    "durationTicks": 234,
                    "midi": 30,
                    "name": "F#1",
                    "ticks": 61440,
                    "time": 60.95232,
                    "velocity": 0.905511811023622
                },
                {
                    "duration": 0.2321426250000016,
                    "durationTicks": 234,
                    "midi": 42,
                    "name": "F#2",
                    "ticks": 61680,
                    "time": 61.190415,
                    "velocity": 0.905511811023622
                },
                {
                    "duration": 0.2321426250000016,
                    "durationTicks": 234,
                    "midi": 30,
                    "name": "F#1",
                    "ticks": 61920,
                    "time": 61.42851,
                    "velocity": 0.905511811023622
                },
                {
                    "duration": 0.2321426250000087,
                    "durationTicks": 234,
                    "midi": 42,
                    "name": "F#2",
                    "ticks": 62160,
                    "time": 61.666605,
                    "velocity": 0.905511811023622
                },
                {
                    "duration": 0.2321426250000087,
                    "durationTicks": 234,
                    "midi": 30,
                    "name": "F#1",
                    "ticks": 62400,
                    "time": 61.9047,
                    "velocity": 0.905511811023622
                },
                {
                    "duration": 0.2321426250000087,
                    "durationTicks": 234,
                    "midi": 42,
                    "name": "F#2",
                    "ticks": 62640,
                    "time": 62.142795,
                    "velocity": 0.905511811023622
                },
                {
                    "duration": 0.2321426250000016,
                    "durationTicks": 234,
                    "midi": 30,
                    "name": "F#1",
                    "ticks": 62880,
                    "time": 62.38089,
                    "velocity": 0.905511811023622
                },
                {
                    "duration": 0.2321426250000016,
                    "durationTicks": 234,
                    "midi": 42,
                    "name": "F#2",
                    "ticks": 63120,
                    "time": 62.618985,
                    "velocity": 0.905511811023622
                },
                {
                    "duration": 0.2321426250000016,
                    "durationTicks": 234,
                    "midi": 28,
                    "name": "E1",
                    "ticks": 63360,
                    "time": 62.85708,
                    "velocity": 0.905511811023622
                },
                {
                    "duration": 0.2321426250000087,
                    "durationTicks": 234,
                    "midi": 40,
                    "name": "E2",
                    "ticks": 63600,
                    "time": 63.095175,
                    "velocity": 0.905511811023622
                },
                {
                    "duration": 0.2321426250000087,
                    "durationTicks": 234,
                    "midi": 28,
                    "name": "E1",
                    "ticks": 63840,
                    "time": 63.33327,
                    "velocity": 0.905511811023622
                },
                {
                    "duration": 0.2321426250000087,
                    "durationTicks": 234,
                    "midi": 40,
                    "name": "E2",
                    "ticks": 64080,
                    "time": 63.571365,
                    "velocity": 0.905511811023622
                },
                {
                    "duration": 0.2321426250000087,
                    "durationTicks": 234,
                    "midi": 28,
                    "name": "E1",
                    "ticks": 64320,
                    "time": 63.80946,
                    "velocity": 0.905511811023622
                },
                {
                    "duration": 0.2321426250000087,
                    "durationTicks": 234,
                    "midi": 40,
                    "name": "E2",
                    "ticks": 64560,
                    "time": 64.047555,
                    "velocity": 0.905511811023622
                },
                {
                    "duration": 0.2321426250000087,
                    "durationTicks": 234,
                    "midi": 28,
                    "name": "E1",
                    "ticks": 64800,
                    "time": 64.28565,
                    "velocity": 0.905511811023622
                },
                {
                    "duration": 0.2321426249999945,
                    "durationTicks": 234,
                    "midi": 40,
                    "name": "E2",
                    "ticks": 65040,
                    "time": 64.523745,
                    "velocity": 0.905511811023622
                },
                {
                    "duration": 0.2321426249999945,
                    "durationTicks": 234,
                    "midi": 35,
                    "name": "B1",
                    "ticks": 65280,
                    "time": 64.76184,
                    "velocity": 0.905511811023622
                },
                {
                    "duration": 0.2321426250000087,
                    "durationTicks": 234,
                    "midi": 47,
                    "name": "B2",
                    "ticks": 65520,
                    "time": 64.999935,
                    "velocity": 0.905511811023622
                },
                {
                    "duration": 0.2321426250000087,
                    "durationTicks": 234,
                    "midi": 35,
                    "name": "B1",
                    "ticks": 65760,
                    "time": 65.23803,
                    "velocity": 0.905511811023622
                },
                {
                    "duration": 0.2321426250000087,
                    "durationTicks": 234,
                    "midi": 47,
                    "name": "B2",
                    "ticks": 66000,
                    "time": 65.476125,
                    "velocity": 0.905511811023622
                },
                {
                    "duration": 0.2321426250000087,
                    "durationTicks": 234,
                    "midi": 35,
                    "name": "B1",
                    "ticks": 66240,
                    "time": 65.71422,
                    "velocity": 0.905511811023622
                },
                {
                    "duration": 0.2321426250000087,
                    "durationTicks": 234,
                    "midi": 47,
                    "name": "B2",
                    "ticks": 66480,
                    "time": 65.952315,
                    "velocity": 0.905511811023622
                },
                {
                    "duration": 0.2321426250000087,
                    "durationTicks": 234,
                    "midi": 35,
                    "name": "B1",
                    "ticks": 66720,
                    "time": 66.19041,
                    "velocity": 0.905511811023622
                },
                {
                    "duration": 0.2321426250000087,
                    "durationTicks": 234,
                    "midi": 47,
                    "name": "B2",
                    "ticks": 66960,
                    "time": 66.428505,
                    "velocity": 0.905511811023622
                },
                {
                    "duration": 0.2321426250000087,
                    "durationTicks": 234,
                    "midi": 30,
                    "name": "F#1",
                    "ticks": 67200,
                    "time": 66.6666,
                    "velocity": 0.905511811023622
                },
                {
                    "duration": 0.2321426250000087,
                    "durationTicks": 234,
                    "midi": 42,
                    "name": "F#2",
                    "ticks": 67440,
                    "time": 66.904695,
                    "velocity": 0.905511811023622
                },
                {
                    "duration": 0.2321426249999945,
                    "durationTicks": 234,
                    "midi": 30,
                    "name": "F#1",
                    "ticks": 67680,
                    "time": 67.14279,
                    "velocity": 0.905511811023622
                },
                {
                    "duration": 0.2321426249999945,
                    "durationTicks": 234,
                    "midi": 42,
                    "name": "F#2",
                    "ticks": 67920,
                    "time": 67.380885,
                    "velocity": 0.905511811023622
                },
                {
                    "duration": 0.2321426250000087,
                    "durationTicks": 234,
                    "midi": 30,
                    "name": "F#1",
                    "ticks": 68160,
                    "time": 67.61898,
                    "velocity": 0.905511811023622
                },
                {
                    "duration": 0.2321426250000087,
                    "durationTicks": 234,
                    "midi": 42,
                    "name": "F#2",
                    "ticks": 68400,
                    "time": 67.857075,
                    "velocity": 0.905511811023622
                },
                {
                    "duration": 0.2321426250000087,
                    "durationTicks": 234,
                    "midi": 30,
                    "name": "F#1",
                    "ticks": 68640,
                    "time": 68.09517,
                    "velocity": 0.905511811023622
                },
                {
                    "duration": 0.2321426250000087,
                    "durationTicks": 234,
                    "midi": 42,
                    "name": "F#2",
                    "ticks": 68880,
                    "time": 68.333265,
                    "velocity": 0.905511811023622
                },
                {
                    "duration": 0.2321426250000087,
                    "durationTicks": 234,
                    "midi": 30,
                    "name": "F#1",
                    "ticks": 69120,
                    "time": 68.57136,
                    "velocity": 0.905511811023622
                },
                {
                    "duration": 0.2321426250000087,
                    "durationTicks": 234,
                    "midi": 42,
                    "name": "F#2",
                    "ticks": 69360,
                    "time": 68.809455,
                    "velocity": 0.905511811023622
                },
                {
                    "duration": 0.2321426250000087,
                    "durationTicks": 234,
                    "midi": 30,
                    "name": "F#1",
                    "ticks": 69600,
                    "time": 69.04755,
                    "velocity": 0.905511811023622
                },
                {
                    "duration": 0.2321426250000087,
                    "durationTicks": 234,
                    "midi": 42,
                    "name": "F#2",
                    "ticks": 69840,
                    "time": 69.285645,
                    "velocity": 0.905511811023622
                },
                {
                    "duration": 0.2321426250000087,
                    "durationTicks": 234,
                    "midi": 30,
                    "name": "F#1",
                    "ticks": 70080,
                    "time": 69.52374,
                    "velocity": 0.905511811023622
                },
                {
                    "duration": 0.2321426249999945,
                    "durationTicks": 234,
                    "midi": 42,
                    "name": "F#2",
                    "ticks": 70320,
                    "time": 69.761835,
                    "velocity": 0.905511811023622
                },
                {
                    "duration": 0.2321426249999945,
                    "durationTicks": 234,
                    "midi": 30,
                    "name": "F#1",
                    "ticks": 70560,
                    "time": 69.99993,
                    "velocity": 0.905511811023622
                },
                {
                    "duration": 0.2321426250000087,
                    "durationTicks": 234,
                    "midi": 42,
                    "name": "F#2",
                    "ticks": 70800,
                    "time": 70.238025,
                    "velocity": 0.905511811023622
                },
                {
                    "duration": 0.2321426250000087,
                    "durationTicks": 234,
                    "midi": 28,
                    "name": "E1",
                    "ticks": 71040,
                    "time": 70.47612,
                    "velocity": 0.905511811023622
                },
                {
                    "duration": 0.2321426250000087,
                    "durationTicks": 234,
                    "midi": 40,
                    "name": "E2",
                    "ticks": 71280,
                    "time": 70.714215,
                    "velocity": 0.905511811023622
                },
                {
                    "duration": 0.2321426250000087,
                    "durationTicks": 234,
                    "midi": 28,
                    "name": "E1",
                    "ticks": 71520,
                    "time": 70.95231,
                    "velocity": 0.905511811023622
                },
                {
                    "duration": 0.2321426250000087,
                    "durationTicks": 234,
                    "midi": 40,
                    "name": "E2",
                    "ticks": 71760,
                    "time": 71.190405,
                    "velocity": 0.905511811023622
                },
                {
                    "duration": 0.2321426250000087,
                    "durationTicks": 234,
                    "midi": 28,
                    "name": "E1",
                    "ticks": 72000,
                    "time": 71.4285,
                    "velocity": 0.905511811023622
                },
                {
                    "duration": 0.2321426250000087,
                    "durationTicks": 234,
                    "midi": 40,
                    "name": "E2",
                    "ticks": 72240,
                    "time": 71.666595,
                    "velocity": 0.905511811023622
                },
                {
                    "duration": 0.2321426250000087,
                    "durationTicks": 234,
                    "midi": 28,
                    "name": "E1",
                    "ticks": 72480,
                    "time": 71.90469,
                    "velocity": 0.905511811023622
                },
                {
                    "duration": 0.2321426250000087,
                    "durationTicks": 234,
                    "midi": 40,
                    "name": "E2",
                    "ticks": 72720,
                    "time": 72.142785,
                    "velocity": 0.905511811023622
                },
                {
                    "duration": 0.2321426249999945,
                    "durationTicks": 234,
                    "midi": 35,
                    "name": "B1",
                    "ticks": 72960,
                    "time": 72.38088,
                    "velocity": 0.905511811023622
                },
                {
                    "duration": 0.2321426249999945,
                    "durationTicks": 234,
                    "midi": 47,
                    "name": "B2",
                    "ticks": 73200,
                    "time": 72.618975,
                    "velocity": 0.905511811023622
                },
                {
                    "duration": 0.2321426249999945,
                    "durationTicks": 234,
                    "midi": 35,
                    "name": "B1",
                    "ticks": 73440,
                    "time": 72.85707000000001,
                    "velocity": 0.905511811023622
                },
                {
                    "duration": 0.2321426250000087,
                    "durationTicks": 234,
                    "midi": 47,
                    "name": "B2",
                    "ticks": 73680,
                    "time": 73.095165,
                    "velocity": 0.905511811023622
                },
                {
                    "duration": 0.2321426250000087,
                    "durationTicks": 234,
                    "midi": 35,
                    "name": "B1",
                    "ticks": 73920,
                    "time": 73.33326,
                    "velocity": 0.905511811023622
                },
                {
                    "duration": 0.2321426250000087,
                    "durationTicks": 234,
                    "midi": 47,
                    "name": "B2",
                    "ticks": 74160,
                    "time": 73.571355,
                    "velocity": 0.905511811023622
                },
                {
                    "duration": 0.2321426250000087,
                    "durationTicks": 234,
                    "midi": 35,
                    "name": "B1",
                    "ticks": 74400,
                    "time": 73.80945,
                    "velocity": 0.905511811023622
                },
                {
                    "duration": 0.2321426250000087,
                    "durationTicks": 234,
                    "midi": 47,
                    "name": "B2",
                    "ticks": 74640,
                    "time": 74.047545,
                    "velocity": 0.905511811023622
                },
                {
                    "duration": 0.2321426250000087,
                    "durationTicks": 234,
                    "midi": 30,
                    "name": "F#1",
                    "ticks": 74880,
                    "time": 74.28564,
                    "velocity": 0.905511811023622
                },
                {
                    "duration": 0.2321426250000087,
                    "durationTicks": 234,
                    "midi": 42,
                    "name": "F#2",
                    "ticks": 75120,
                    "time": 74.523735,
                    "velocity": 0.905511811023622
                },
                {
                    "duration": 0.2321426250000087,
                    "durationTicks": 234,
                    "midi": 30,
                    "name": "F#1",
                    "ticks": 75360,
                    "time": 74.76183,
                    "velocity": 0.905511811023622
                },
                {
                    "duration": 0.2321426249999945,
                    "durationTicks": 234,
                    "midi": 42,
                    "name": "F#2",
                    "ticks": 75600,
                    "time": 74.999925,
                    "velocity": 0.905511811023622
                },
                {
                    "duration": 0.2321426249999945,
                    "durationTicks": 234,
                    "midi": 30,
                    "name": "F#1",
                    "ticks": 75840,
                    "time": 75.23802,
                    "velocity": 0.905511811023622
                },
                {
                    "duration": 0.2321426249999945,
                    "durationTicks": 234,
                    "midi": 42,
                    "name": "F#2",
                    "ticks": 76080,
                    "time": 75.47611500000001,
                    "velocity": 0.905511811023622
                },
                {
                    "duration": 0.2321426250000087,
                    "durationTicks": 234,
                    "midi": 30,
                    "name": "F#1",
                    "ticks": 76320,
                    "time": 75.71421,
                    "velocity": 0.905511811023622
                },
                {
                    "duration": 0.2321426250000087,
                    "durationTicks": 234,
                    "midi": 42,
                    "name": "F#2",
                    "ticks": 76560,
                    "time": 75.952305,
                    "velocity": 0.905511811023622
                },
                {
                    "duration": 0.2321426250000087,
                    "durationTicks": 234,
                    "midi": 30,
                    "name": "F#1",
                    "ticks": 76800,
                    "time": 76.1904,
                    "velocity": 0.905511811023622
                },
                {
                    "duration": 0.2321426250000087,
                    "durationTicks": 234,
                    "midi": 42,
                    "name": "F#2",
                    "ticks": 77040,
                    "time": 76.428495,
                    "velocity": 0.905511811023622
                },
                {
                    "duration": 0.2321426250000087,
                    "durationTicks": 234,
                    "midi": 30,
                    "name": "F#1",
                    "ticks": 77280,
                    "time": 76.66659,
                    "velocity": 0.905511811023622
                },
                {
                    "duration": 0.2321426250000087,
                    "durationTicks": 234,
                    "midi": 42,
                    "name": "F#2",
                    "ticks": 77520,
                    "time": 76.904685,
                    "velocity": 0.905511811023622
                },
                {
                    "duration": 0.2321426250000087,
                    "durationTicks": 234,
                    "midi": 30,
                    "name": "F#1",
                    "ticks": 77760,
                    "time": 77.14278,
                    "velocity": 0.905511811023622
                },
                {
                    "duration": 0.2321426250000087,
                    "durationTicks": 234,
                    "midi": 42,
                    "name": "F#2",
                    "ticks": 78000,
                    "time": 77.380875,
                    "velocity": 0.905511811023622
                },
                {
                    "duration": 0.2321426249999945,
                    "durationTicks": 234,
                    "midi": 30,
                    "name": "F#1",
                    "ticks": 78240,
                    "time": 77.61897,
                    "velocity": 0.905511811023622
                },
                {
                    "duration": 0.2321426249999945,
                    "durationTicks": 234,
                    "midi": 42,
                    "name": "F#2",
                    "ticks": 78480,
                    "time": 77.857065,
                    "velocity": 0.905511811023622
                },
                {
                    "duration": 0.2321426249999945,
                    "durationTicks": 234,
                    "midi": 28,
                    "name": "E1",
                    "ticks": 78720,
                    "time": 78.09516,
                    "velocity": 0.905511811023622
                },
                {
                    "duration": 0.2321426250000087,
                    "durationTicks": 234,
                    "midi": 40,
                    "name": "E2",
                    "ticks": 78960,
                    "time": 78.333255,
                    "velocity": 0.905511811023622
                },
                {
                    "duration": 0.2321426250000087,
                    "durationTicks": 234,
                    "midi": 28,
                    "name": "E1",
                    "ticks": 79200,
                    "time": 78.57135,
                    "velocity": 0.905511811023622
                },
                {
                    "duration": 0.2321426250000087,
                    "durationTicks": 234,
                    "midi": 40,
                    "name": "E2",
                    "ticks": 79440,
                    "time": 78.809445,
                    "velocity": 0.905511811023622
                },
                {
                    "duration": 0.2321426250000087,
                    "durationTicks": 234,
                    "midi": 28,
                    "name": "E1",
                    "ticks": 79680,
                    "time": 79.04754,
                    "velocity": 0.905511811023622
                },
                {
                    "duration": 0.2321426250000087,
                    "durationTicks": 234,
                    "midi": 40,
                    "name": "E2",
                    "ticks": 79920,
                    "time": 79.285635,
                    "velocity": 0.905511811023622
                },
                {
                    "duration": 0.2321426250000087,
                    "durationTicks": 234,
                    "midi": 28,
                    "name": "E1",
                    "ticks": 80160,
                    "time": 79.52373,
                    "velocity": 0.905511811023622
                },
                {
                    "duration": 0.2321426250000087,
                    "durationTicks": 234,
                    "midi": 40,
                    "name": "E2",
                    "ticks": 80400,
                    "time": 79.761825,
                    "velocity": 0.905511811023622
                },
                {
                    "duration": 0.2321426250000087,
                    "durationTicks": 234,
                    "midi": 35,
                    "name": "B1",
                    "ticks": 80640,
                    "time": 79.99992,
                    "velocity": 0.905511811023622
                },
                {
                    "duration": 0.2321426249999945,
                    "durationTicks": 234,
                    "midi": 47,
                    "name": "B2",
                    "ticks": 80880,
                    "time": 80.238015,
                    "velocity": 0.905511811023622
                },
                {
                    "duration": 0.2321426249999945,
                    "durationTicks": 234,
                    "midi": 35,
                    "name": "B1",
                    "ticks": 81120,
                    "time": 80.47611,
                    "velocity": 0.905511811023622
                },
                {
                    "duration": 0.2321426249999945,
                    "durationTicks": 234,
                    "midi": 47,
                    "name": "B2",
                    "ticks": 81360,
                    "time": 80.714205,
                    "velocity": 0.905511811023622
                },
                {
                    "duration": 0.2321426250000087,
                    "durationTicks": 234,
                    "midi": 35,
                    "name": "B1",
                    "ticks": 81600,
                    "time": 80.9523,
                    "velocity": 0.905511811023622
                },
                {
                    "duration": 0.2321426250000087,
                    "durationTicks": 234,
                    "midi": 47,
                    "name": "B2",
                    "ticks": 81840,
                    "time": 81.190395,
                    "velocity": 0.905511811023622
                },
                {
                    "duration": 0.2321426250000087,
                    "durationTicks": 234,
                    "midi": 35,
                    "name": "B1",
                    "ticks": 82080,
                    "time": 81.42849,
                    "velocity": 0.905511811023622
                },
                {
                    "duration": 0.2321426250000087,
                    "durationTicks": 234,
                    "midi": 47,
                    "name": "B2",
                    "ticks": 82320,
                    "time": 81.666585,
                    "velocity": 0.905511811023622
                },
                {
                    "duration": 0.2321426250000087,
                    "durationTicks": 234,
                    "midi": 30,
                    "name": "F#1",
                    "ticks": 82560,
                    "time": 81.90468,
                    "velocity": 0.905511811023622
                },
                {
                    "duration": 0.2321426250000087,
                    "durationTicks": 234,
                    "midi": 42,
                    "name": "F#2",
                    "ticks": 82800,
                    "time": 82.142775,
                    "velocity": 0.905511811023622
                },
                {
                    "duration": 0.2321426250000087,
                    "durationTicks": 234,
                    "midi": 30,
                    "name": "F#1",
                    "ticks": 83040,
                    "time": 82.38087,
                    "velocity": 0.905511811023622
                },
                {
                    "duration": 0.2321426250000087,
                    "durationTicks": 234,
                    "midi": 42,
                    "name": "F#2",
                    "ticks": 83280,
                    "time": 82.618965,
                    "velocity": 0.905511811023622
                },
                {
                    "duration": 0.2321426250000087,
                    "durationTicks": 234,
                    "midi": 30,
                    "name": "F#1",
                    "ticks": 83520,
                    "time": 82.85706,
                    "velocity": 0.905511811023622
                },
                {
                    "duration": 0.2321426249999945,
                    "durationTicks": 234,
                    "midi": 42,
                    "name": "F#2",
                    "ticks": 83760,
                    "time": 83.095155,
                    "velocity": 0.905511811023622
                },
                {
                    "duration": 0.2321426249999945,
                    "durationTicks": 234,
                    "midi": 30,
                    "name": "F#1",
                    "ticks": 84000,
                    "time": 83.33325,
                    "velocity": 0.905511811023622
                },
                {
                    "duration": 0.2321426250000087,
                    "durationTicks": 234,
                    "midi": 42,
                    "name": "F#2",
                    "ticks": 84240,
                    "time": 83.571345,
                    "velocity": 0.905511811023622
                },
                {
                    "duration": 0.2321426250000087,
                    "durationTicks": 234,
                    "midi": 30,
                    "name": "F#1",
                    "ticks": 84480,
                    "time": 83.80944,
                    "velocity": 0.905511811023622
                },
                {
                    "duration": 0.2321426250000087,
                    "durationTicks": 234,
                    "midi": 42,
                    "name": "F#2",
                    "ticks": 84720,
                    "time": 84.047535,
                    "velocity": 0.905511811023622
                },
                {
                    "duration": 0.2321426250000087,
                    "durationTicks": 234,
                    "midi": 30,
                    "name": "F#1",
                    "ticks": 84960,
                    "time": 84.28563,
                    "velocity": 0.905511811023622
                },
                {
                    "duration": 0.2321426250000087,
                    "durationTicks": 234,
                    "midi": 42,
                    "name": "F#2",
                    "ticks": 85200,
                    "time": 84.523725,
                    "velocity": 0.905511811023622
                },
                {
                    "duration": 0.2321426250000087,
                    "durationTicks": 234,
                    "midi": 30,
                    "name": "F#1",
                    "ticks": 85440,
                    "time": 84.76182,
                    "velocity": 0.905511811023622
                },
                {
                    "duration": 0.2321426250000087,
                    "durationTicks": 234,
                    "midi": 42,
                    "name": "F#2",
                    "ticks": 85680,
                    "time": 84.999915,
                    "velocity": 0.905511811023622
                },
                {
                    "duration": 0.2321426250000087,
                    "durationTicks": 234,
                    "midi": 30,
                    "name": "F#1",
                    "ticks": 85920,
                    "time": 85.23801,
                    "velocity": 0.905511811023622
                },
                {
                    "duration": 0.2321426250000087,
                    "durationTicks": 234,
                    "midi": 42,
                    "name": "F#2",
                    "ticks": 86160,
                    "time": 85.476105,
                    "velocity": 0.905511811023622
                },
                {
                    "duration": 0.2321426249999945,
                    "durationTicks": 234,
                    "midi": 28,
                    "name": "E1",
                    "ticks": 86400,
                    "time": 85.7142,
                    "velocity": 0.905511811023622
                },
                {
                    "duration": 0.2321426249999945,
                    "durationTicks": 234,
                    "midi": 40,
                    "name": "E2",
                    "ticks": 86640,
                    "time": 85.952295,
                    "velocity": 0.905511811023622
                },
                {
                    "duration": 0.2321426250000087,
                    "durationTicks": 234,
                    "midi": 28,
                    "name": "E1",
                    "ticks": 86880,
                    "time": 86.19039,
                    "velocity": 0.905511811023622
                },
                {
                    "duration": 0.2321426250000087,
                    "durationTicks": 234,
                    "midi": 40,
                    "name": "E2",
                    "ticks": 87120,
                    "time": 86.428485,
                    "velocity": 0.905511811023622
                },
                {
                    "duration": 0.2321426250000087,
                    "durationTicks": 234,
                    "midi": 28,
                    "name": "E1",
                    "ticks": 87360,
                    "time": 86.66658,
                    "velocity": 0.905511811023622
                },
                {
                    "duration": 0.2321426250000087,
                    "durationTicks": 234,
                    "midi": 40,
                    "name": "E2",
                    "ticks": 87600,
                    "time": 86.904675,
                    "velocity": 0.905511811023622
                },
                {
                    "duration": 0.2321426250000087,
                    "durationTicks": 234,
                    "midi": 28,
                    "name": "E1",
                    "ticks": 87840,
                    "time": 87.14277,
                    "velocity": 0.905511811023622
                },
                {
                    "duration": 0.2321426250000087,
                    "durationTicks": 234,
                    "midi": 40,
                    "name": "E2",
                    "ticks": 88080,
                    "time": 87.380865,
                    "velocity": 0.905511811023622
                },
                {
                    "duration": 0.2321426250000087,
                    "durationTicks": 234,
                    "midi": 35,
                    "name": "B1",
                    "ticks": 88320,
                    "time": 87.61896,
                    "velocity": 0.905511811023622
                },
                {
                    "duration": 0.2321426250000087,
                    "durationTicks": 234,
                    "midi": 47,
                    "name": "B2",
                    "ticks": 88560,
                    "time": 87.857055,
                    "velocity": 0.905511811023622
                },
                {
                    "duration": 0.2321426250000087,
                    "durationTicks": 234,
                    "midi": 35,
                    "name": "B1",
                    "ticks": 88800,
                    "time": 88.09515,
                    "velocity": 0.905511811023622
                },
                {
                    "duration": 0.2321426249999945,
                    "durationTicks": 234,
                    "midi": 47,
                    "name": "B2",
                    "ticks": 89040,
                    "time": 88.333245,
                    "velocity": 0.905511811023622
                },
                {
                    "duration": 0.2321426249999945,
                    "durationTicks": 234,
                    "midi": 35,
                    "name": "B1",
                    "ticks": 89280,
                    "time": 88.57134,
                    "velocity": 0.905511811023622
                },
                {
                    "duration": 0.2321426250000087,
                    "durationTicks": 234,
                    "midi": 47,
                    "name": "B2",
                    "ticks": 89520,
                    "time": 88.809435,
                    "velocity": 0.905511811023622
                },
                {
                    "duration": 0.2321426250000087,
                    "durationTicks": 234,
                    "midi": 35,
                    "name": "B1",
                    "ticks": 89760,
                    "time": 89.04753,
                    "velocity": 0.905511811023622
                },
                {
                    "duration": 0.2321426250000087,
                    "durationTicks": 234,
                    "midi": 47,
                    "name": "B2",
                    "ticks": 90000,
                    "time": 89.285625,
                    "velocity": 0.905511811023622
                },
                {
                    "duration": 0.2321426250000087,
                    "durationTicks": 234,
                    "midi": 30,
                    "name": "F#1",
                    "ticks": 90240,
                    "time": 89.52372,
                    "velocity": 0.905511811023622
                },
                {
                    "duration": 0.2321426250000087,
                    "durationTicks": 234,
                    "midi": 42,
                    "name": "F#2",
                    "ticks": 90480,
                    "time": 89.761815,
                    "velocity": 0.905511811023622
                },
                {
                    "duration": 0.2321426250000087,
                    "durationTicks": 234,
                    "midi": 30,
                    "name": "F#1",
                    "ticks": 90720,
                    "time": 89.99991,
                    "velocity": 0.905511811023622
                },
                {
                    "duration": 0.2321426250000087,
                    "durationTicks": 234,
                    "midi": 42,
                    "name": "F#2",
                    "ticks": 90960,
                    "time": 90.238005,
                    "velocity": 0.905511811023622
                },
                {
                    "duration": 0.2321426250000087,
                    "durationTicks": 234,
                    "midi": 30,
                    "name": "F#1",
                    "ticks": 91200,
                    "time": 90.4761,
                    "velocity": 0.905511811023622
                },
                {
                    "duration": 0.2321426250000087,
                    "durationTicks": 234,
                    "midi": 42,
                    "name": "F#2",
                    "ticks": 91440,
                    "time": 90.714195,
                    "velocity": 0.905511811023622
                },
                {
                    "duration": 0.2321426249999945,
                    "durationTicks": 234,
                    "midi": 30,
                    "name": "F#1",
                    "ticks": 91680,
                    "time": 90.95229,
                    "velocity": 0.905511811023622
                },
                {
                    "duration": 0.2321426249999945,
                    "durationTicks": 234,
                    "midi": 42,
                    "name": "F#2",
                    "ticks": 91920,
                    "time": 91.190385,
                    "velocity": 0.905511811023622
                },
                {
                    "duration": 0.2321426250000087,
                    "durationTicks": 234,
                    "midi": 30,
                    "name": "F#1",
                    "ticks": 107520,
                    "time": 106.66656,
                    "velocity": 0.905511811023622
                },
                {
                    "duration": 0.2321426249999945,
                    "durationTicks": 234,
                    "midi": 42,
                    "name": "F#2",
                    "ticks": 107760,
                    "time": 106.904655,
                    "velocity": 0.905511811023622
                },
                {
                    "duration": 0.2321426249999945,
                    "durationTicks": 234,
                    "midi": 30,
                    "name": "F#1",
                    "ticks": 108000,
                    "time": 107.14275,
                    "velocity": 0.905511811023622
                },
                {
                    "duration": 0.2321426250000087,
                    "durationTicks": 234,
                    "midi": 42,
                    "name": "F#2",
                    "ticks": 108240,
                    "time": 107.380845,
                    "velocity": 0.905511811023622
                },
                {
                    "duration": 0.2321426250000087,
                    "durationTicks": 234,
                    "midi": 30,
                    "name": "F#1",
                    "ticks": 108480,
                    "time": 107.61894,
                    "velocity": 0.905511811023622
                },
                {
                    "duration": 0.2321426250000087,
                    "durationTicks": 234,
                    "midi": 42,
                    "name": "F#2",
                    "ticks": 108720,
                    "time": 107.857035,
                    "velocity": 0.905511811023622
                },
                {
                    "duration": 0.2321426250000087,
                    "durationTicks": 234,
                    "midi": 30,
                    "name": "F#1",
                    "ticks": 108960,
                    "time": 108.09513,
                    "velocity": 0.905511811023622
                },
                {
                    "duration": 0.2321426250000087,
                    "durationTicks": 234,
                    "midi": 42,
                    "name": "F#2",
                    "ticks": 109200,
                    "time": 108.333225,
                    "velocity": 0.905511811023622
                },
                {
                    "duration": 0.2321426250000087,
                    "durationTicks": 234,
                    "midi": 28,
                    "name": "E1",
                    "ticks": 109440,
                    "time": 108.57132,
                    "velocity": 0.905511811023622
                },
                {
                    "duration": 0.2321426250000087,
                    "durationTicks": 234,
                    "midi": 40,
                    "name": "E2",
                    "ticks": 109680,
                    "time": 108.809415,
                    "velocity": 0.905511811023622
                },
                {
                    "duration": 0.2321426250000087,
                    "durationTicks": 234,
                    "midi": 28,
                    "name": "E1",
                    "ticks": 109920,
                    "time": 109.04751,
                    "velocity": 0.905511811023622
                },
                {
                    "duration": 0.2321426250000087,
                    "durationTicks": 234,
                    "midi": 40,
                    "name": "E2",
                    "ticks": 110160,
                    "time": 109.285605,
                    "velocity": 0.905511811023622
                },
                {
                    "duration": 0.2321426249999945,
                    "durationTicks": 234,
                    "midi": 28,
                    "name": "E1",
                    "ticks": 110400,
                    "time": 109.5237,
                    "velocity": 0.905511811023622
                },
                {
                    "duration": 0.2321426249999945,
                    "durationTicks": 234,
                    "midi": 40,
                    "name": "E2",
                    "ticks": 110640,
                    "time": 109.761795,
                    "velocity": 0.905511811023622
                },
                {
                    "duration": 0.2321426250000087,
                    "durationTicks": 234,
                    "midi": 28,
                    "name": "E1",
                    "ticks": 110880,
                    "time": 109.99989,
                    "velocity": 0.905511811023622
                },
                {
                    "duration": 0.2321426250000087,
                    "durationTicks": 234,
                    "midi": 40,
                    "name": "E2",
                    "ticks": 111120,
                    "time": 110.237985,
                    "velocity": 0.905511811023622
                },
                {
                    "duration": 0.2321426250000087,
                    "durationTicks": 234,
                    "midi": 35,
                    "name": "B1",
                    "ticks": 111360,
                    "time": 110.47608,
                    "velocity": 0.905511811023622
                },
                {
                    "duration": 0.2321426250000087,
                    "durationTicks": 234,
                    "midi": 47,
                    "name": "B2",
                    "ticks": 111600,
                    "time": 110.714175,
                    "velocity": 0.905511811023622
                },
                {
                    "duration": 0.2321426250000087,
                    "durationTicks": 234,
                    "midi": 35,
                    "name": "B1",
                    "ticks": 111840,
                    "time": 110.95227,
                    "velocity": 0.905511811023622
                },
                {
                    "duration": 0.2321426250000087,
                    "durationTicks": 234,
                    "midi": 47,
                    "name": "B2",
                    "ticks": 112080,
                    "time": 111.190365,
                    "velocity": 0.905511811023622
                },
                {
                    "duration": 0.2321426250000087,
                    "durationTicks": 234,
                    "midi": 35,
                    "name": "B1",
                    "ticks": 112320,
                    "time": 111.42846,
                    "velocity": 0.905511811023622
                },
                {
                    "duration": 0.2321426250000087,
                    "durationTicks": 234,
                    "midi": 47,
                    "name": "B2",
                    "ticks": 112560,
                    "time": 111.666555,
                    "velocity": 0.905511811023622
                },
                {
                    "duration": 0.2321426250000087,
                    "durationTicks": 234,
                    "midi": 35,
                    "name": "B1",
                    "ticks": 112800,
                    "time": 111.90465,
                    "velocity": 0.905511811023622
                },
                {
                    "duration": 0.2321426249999945,
                    "durationTicks": 234,
                    "midi": 47,
                    "name": "B2",
                    "ticks": 113040,
                    "time": 112.142745,
                    "velocity": 0.905511811023622
                },
                {
                    "duration": 0.2321426250000087,
                    "durationTicks": 234,
                    "midi": 30,
                    "name": "F#1",
                    "ticks": 115200,
                    "time": 114.2856,
                    "velocity": 0.905511811023622
                },
                {
                    "duration": 0.2321426250000087,
                    "durationTicks": 234,
                    "midi": 42,
                    "name": "F#2",
                    "ticks": 115440,
                    "time": 114.523695,
                    "velocity": 0.905511811023622
                },
                {
                    "duration": 0.2321426249999945,
                    "durationTicks": 234,
                    "midi": 30,
                    "name": "F#1",
                    "ticks": 115680,
                    "time": 114.76179,
                    "velocity": 0.905511811023622
                },
                {
                    "duration": 0.2321426249999945,
                    "durationTicks": 234,
                    "midi": 42,
                    "name": "F#2",
                    "ticks": 115920,
                    "time": 114.999885,
                    "velocity": 0.905511811023622
                },
                {
                    "duration": 0.2321426249999945,
                    "durationTicks": 234,
                    "midi": 30,
                    "name": "F#1",
                    "ticks": 116160,
                    "time": 115.23798000000001,
                    "velocity": 0.905511811023622
                },
                {
                    "duration": 0.2321426250000087,
                    "durationTicks": 234,
                    "midi": 42,
                    "name": "F#2",
                    "ticks": 116400,
                    "time": 115.476075,
                    "velocity": 0.905511811023622
                },
                {
                    "duration": 0.2321426250000087,
                    "durationTicks": 234,
                    "midi": 30,
                    "name": "F#1",
                    "ticks": 116640,
                    "time": 115.71417,
                    "velocity": 0.905511811023622
                },
                {
                    "duration": 0.2321426250000087,
                    "durationTicks": 234,
                    "midi": 42,
                    "name": "F#2",
                    "ticks": 116880,
                    "time": 115.952265,
                    "velocity": 0.905511811023622
                },
                {
                    "duration": 0.2321426250000087,
                    "durationTicks": 234,
                    "midi": 28,
                    "name": "E1",
                    "ticks": 117120,
                    "time": 116.19036,
                    "velocity": 0.905511811023622
                },
                {
                    "duration": 0.2321426250000087,
                    "durationTicks": 234,
                    "midi": 40,
                    "name": "E2",
                    "ticks": 117360,
                    "time": 116.428455,
                    "velocity": 0.905511811023622
                },
                {
                    "duration": 0.2321426250000087,
                    "durationTicks": 234,
                    "midi": 28,
                    "name": "E1",
                    "ticks": 117600,
                    "time": 116.66655,
                    "velocity": 0.905511811023622
                },
                {
                    "duration": 0.2321426250000087,
                    "durationTicks": 234,
                    "midi": 40,
                    "name": "E2",
                    "ticks": 117840,
                    "time": 116.904645,
                    "velocity": 0.905511811023622
                },
                {
                    "duration": 0.2321426250000087,
                    "durationTicks": 234,
                    "midi": 28,
                    "name": "E1",
                    "ticks": 118080,
                    "time": 117.14274,
                    "velocity": 0.905511811023622
                },
                {
                    "duration": 0.2321426249999945,
                    "durationTicks": 234,
                    "midi": 40,
                    "name": "E2",
                    "ticks": 118320,
                    "time": 117.380835,
                    "velocity": 0.905511811023622
                },
                {
                    "duration": 0.2321426249999945,
                    "durationTicks": 234,
                    "midi": 28,
                    "name": "E1",
                    "ticks": 118560,
                    "time": 117.61893,
                    "velocity": 0.905511811023622
                },
                {
                    "duration": 0.2321426249999945,
                    "durationTicks": 234,
                    "midi": 40,
                    "name": "E2",
                    "ticks": 118800,
                    "time": 117.85702500000001,
                    "velocity": 0.905511811023622
                },
                {
                    "duration": 0.2321426250000087,
                    "durationTicks": 234,
                    "midi": 35,
                    "name": "B1",
                    "ticks": 119040,
                    "time": 118.09512,
                    "velocity": 0.905511811023622
                },
                {
                    "duration": 0.2321426250000087,
                    "durationTicks": 234,
                    "midi": 47,
                    "name": "B2",
                    "ticks": 119280,
                    "time": 118.333215,
                    "velocity": 0.905511811023622
                },
                {
                    "duration": 0.2321426250000087,
                    "durationTicks": 234,
                    "midi": 35,
                    "name": "B1",
                    "ticks": 119520,
                    "time": 118.57131,
                    "velocity": 0.905511811023622
                },
                {
                    "duration": 0.2321426250000087,
                    "durationTicks": 234,
                    "midi": 47,
                    "name": "B2",
                    "ticks": 119760,
                    "time": 118.809405,
                    "velocity": 0.905511811023622
                },
                {
                    "duration": 0.2321426250000087,
                    "durationTicks": 234,
                    "midi": 35,
                    "name": "B1",
                    "ticks": 120000,
                    "time": 119.0475,
                    "velocity": 0.905511811023622
                },
                {
                    "duration": 0.2321426250000087,
                    "durationTicks": 234,
                    "midi": 47,
                    "name": "B2",
                    "ticks": 120240,
                    "time": 119.285595,
                    "velocity": 0.905511811023622
                },
                {
                    "duration": 0.2321426250000087,
                    "durationTicks": 234,
                    "midi": 35,
                    "name": "B1",
                    "ticks": 120480,
                    "time": 119.52369,
                    "velocity": 0.905511811023622
                },
                {
                    "duration": 0.2321426250000087,
                    "durationTicks": 234,
                    "midi": 47,
                    "name": "B2",
                    "ticks": 120720,
                    "time": 119.761785,
                    "velocity": 0.905511811023622
                },
                {
                    "duration": 0.2321426249999945,
                    "durationTicks": 234,
                    "midi": 30,
                    "name": "F#1",
                    "ticks": 120960,
                    "time": 119.99988,
                    "velocity": 0.905511811023622
                },
                {
                    "duration": 0.2321426249999945,
                    "durationTicks": 234,
                    "midi": 42,
                    "name": "F#2",
                    "ticks": 121200,
                    "time": 120.237975,
                    "velocity": 0.905511811023622
                },
                {
                    "duration": 0.2321426249999945,
                    "durationTicks": 234,
                    "midi": 30,
                    "name": "F#1",
                    "ticks": 121440,
                    "time": 120.47607,
                    "velocity": 0.905511811023622
                },
                {
                    "duration": 0.2321426250000087,
                    "durationTicks": 234,
                    "midi": 42,
                    "name": "F#2",
                    "ticks": 121680,
                    "time": 120.714165,
                    "velocity": 0.905511811023622
                },
                {
                    "duration": 0.2321426250000087,
                    "durationTicks": 234,
                    "midi": 30,
                    "name": "F#1",
                    "ticks": 121920,
                    "time": 120.95226,
                    "velocity": 0.905511811023622
                },
                {
                    "duration": 0.2321426250000087,
                    "durationTicks": 234,
                    "midi": 42,
                    "name": "F#2",
                    "ticks": 122160,
                    "time": 121.190355,
                    "velocity": 0.905511811023622
                },
                {
                    "duration": 0.2321426250000087,
                    "durationTicks": 234,
                    "midi": 30,
                    "name": "F#1",
                    "ticks": 122400,
                    "time": 121.42845,
                    "velocity": 0.905511811023622
                },
                {
                    "duration": 0.2321426250000087,
                    "durationTicks": 234,
                    "midi": 42,
                    "name": "F#2",
                    "ticks": 122640,
                    "time": 121.666545,
                    "velocity": 0.905511811023622
                },
                {
                    "duration": 0.2321426250000087,
                    "durationTicks": 234,
                    "midi": 30,
                    "name": "F#1",
                    "ticks": 122880,
                    "time": 121.90464,
                    "velocity": 0.905511811023622
                },
                {
                    "duration": 0.2321426250000087,
                    "durationTicks": 234,
                    "midi": 42,
                    "name": "F#2",
                    "ticks": 123120,
                    "time": 122.142735,
                    "velocity": 0.905511811023622
                },
                {
                    "duration": 0.2321426250000087,
                    "durationTicks": 234,
                    "midi": 30,
                    "name": "F#1",
                    "ticks": 123360,
                    "time": 122.38083,
                    "velocity": 0.905511811023622
                },
                {
                    "duration": 0.2321426249999945,
                    "durationTicks": 234,
                    "midi": 42,
                    "name": "F#2",
                    "ticks": 123600,
                    "time": 122.618925,
                    "velocity": 0.905511811023622
                },
                {
                    "duration": 0.2321426249999945,
                    "durationTicks": 234,
                    "midi": 30,
                    "name": "F#1",
                    "ticks": 123840,
                    "time": 122.85702,
                    "velocity": 0.905511811023622
                },
                {
                    "duration": 0.2321426249999945,
                    "durationTicks": 234,
                    "midi": 42,
                    "name": "F#2",
                    "ticks": 124080,
                    "time": 123.095115,
                    "velocity": 0.905511811023622
                },
                {
                    "duration": 0.2321426250000087,
                    "durationTicks": 234,
                    "midi": 30,
                    "name": "F#1",
                    "ticks": 124320,
                    "time": 123.33321,
                    "velocity": 0.905511811023622
                },
                {
                    "duration": 0.2321426250000087,
                    "durationTicks": 234,
                    "midi": 42,
                    "name": "F#2",
                    "ticks": 124560,
                    "time": 123.571305,
                    "velocity": 0.905511811023622
                },
                {
                    "duration": 0.2321426250000087,
                    "durationTicks": 234,
                    "midi": 28,
                    "name": "E1",
                    "ticks": 124800,
                    "time": 123.8094,
                    "velocity": 0.905511811023622
                },
                {
                    "duration": 0.2321426250000087,
                    "durationTicks": 234,
                    "midi": 40,
                    "name": "E2",
                    "ticks": 125040,
                    "time": 124.047495,
                    "velocity": 0.905511811023622
                },
                {
                    "duration": 0.2321426250000087,
                    "durationTicks": 234,
                    "midi": 28,
                    "name": "E1",
                    "ticks": 125280,
                    "time": 124.28559,
                    "velocity": 0.905511811023622
                },
                {
                    "duration": 0.2321426250000087,
                    "durationTicks": 234,
                    "midi": 40,
                    "name": "E2",
                    "ticks": 125520,
                    "time": 124.523685,
                    "velocity": 0.905511811023622
                },
                {
                    "duration": 0.2321426250000087,
                    "durationTicks": 234,
                    "midi": 28,
                    "name": "E1",
                    "ticks": 125760,
                    "time": 124.76178,
                    "velocity": 0.905511811023622
                },
                {
                    "duration": 0.2321426250000087,
                    "durationTicks": 234,
                    "midi": 40,
                    "name": "E2",
                    "ticks": 126000,
                    "time": 124.999875,
                    "velocity": 0.905511811023622
                },
                {
                    "duration": 0.2321426250000087,
                    "durationTicks": 234,
                    "midi": 28,
                    "name": "E1",
                    "ticks": 126240,
                    "time": 125.23797,
                    "velocity": 0.905511811023622
                },
                {
                    "duration": 0.2321426249999945,
                    "durationTicks": 234,
                    "midi": 40,
                    "name": "E2",
                    "ticks": 126480,
                    "time": 125.476065,
                    "velocity": 0.905511811023622
                },
                {
                    "duration": 0.2321426249999945,
                    "durationTicks": 234,
                    "midi": 35,
                    "name": "B1",
                    "ticks": 126720,
                    "time": 125.71416,
                    "velocity": 0.905511811023622
                },
                {
                    "duration": 0.2321426250000087,
                    "durationTicks": 234,
                    "midi": 47,
                    "name": "B2",
                    "ticks": 126960,
                    "time": 125.952255,
                    "velocity": 0.905511811023622
                },
                {
                    "duration": 0.2321426250000087,
                    "durationTicks": 234,
                    "midi": 35,
                    "name": "B1",
                    "ticks": 127200,
                    "time": 126.19035,
                    "velocity": 0.905511811023622
                },
                {
                    "duration": 0.2321426250000087,
                    "durationTicks": 234,
                    "midi": 47,
                    "name": "B2",
                    "ticks": 127440,
                    "time": 126.428445,
                    "velocity": 0.905511811023622
                },
                {
                    "duration": 0.2321426249999945,
                    "durationTicks": 234,
                    "midi": 30,
                    "name": "F#1",
                    "ticks": 130560,
                    "time": 129.52368,
                    "velocity": 0.905511811023622
                },
                {
                    "duration": 0.2321426249999945,
                    "durationTicks": 234,
                    "midi": 42,
                    "name": "F#2",
                    "ticks": 130800,
                    "time": 129.761775,
                    "velocity": 0.905511811023622
                },
                {
                    "duration": 0.23214262500002292,
                    "durationTicks": 234,
                    "midi": 30,
                    "name": "F#1",
                    "ticks": 131040,
                    "time": 129.99987,
                    "velocity": 0.905511811023622
                },
                {
                    "duration": 0.2321426249999945,
                    "durationTicks": 234,
                    "midi": 42,
                    "name": "F#2",
                    "ticks": 131280,
                    "time": 130.237965,
                    "velocity": 0.905511811023622
                },
                {
                    "duration": 0.23214262500002292,
                    "durationTicks": 234,
                    "midi": 30,
                    "name": "F#1",
                    "ticks": 131520,
                    "time": 130.47606,
                    "velocity": 0.905511811023622
                },
                {
                    "duration": 0.2321426249999945,
                    "durationTicks": 234,
                    "midi": 42,
                    "name": "F#2",
                    "ticks": 131760,
                    "time": 130.714155,
                    "velocity": 0.905511811023622
                },
                {
                    "duration": 0.23214262500002292,
                    "durationTicks": 234,
                    "midi": 30,
                    "name": "F#1",
                    "ticks": 132000,
                    "time": 130.95225,
                    "velocity": 0.905511811023622
                },
                {
                    "duration": 0.2321426249999945,
                    "durationTicks": 234,
                    "midi": 42,
                    "name": "F#2",
                    "ticks": 132240,
                    "time": 131.190345,
                    "velocity": 0.905511811023622
                },
                {
                    "duration": 0.23214262500002292,
                    "durationTicks": 234,
                    "midi": 28,
                    "name": "E1",
                    "ticks": 132480,
                    "time": 131.42844,
                    "velocity": 0.905511811023622
                },
                {
                    "duration": 0.2321426249999945,
                    "durationTicks": 234,
                    "midi": 40,
                    "name": "E2",
                    "ticks": 132720,
                    "time": 131.666535,
                    "velocity": 0.905511811023622
                },
                {
                    "duration": 0.2321426249999945,
                    "durationTicks": 234,
                    "midi": 28,
                    "name": "E1",
                    "ticks": 132960,
                    "time": 131.90463,
                    "velocity": 0.905511811023622
                },
                {
                    "duration": 0.2321426249999945,
                    "durationTicks": 234,
                    "midi": 40,
                    "name": "E2",
                    "ticks": 133200,
                    "time": 132.142725,
                    "velocity": 0.905511811023622
                },
                {
                    "duration": 0.2321426249999945,
                    "durationTicks": 234,
                    "midi": 28,
                    "name": "E1",
                    "ticks": 133440,
                    "time": 132.38082,
                    "velocity": 0.905511811023622
                },
                {
                    "duration": 0.23214262500002292,
                    "durationTicks": 234,
                    "midi": 40,
                    "name": "E2",
                    "ticks": 133680,
                    "time": 132.618915,
                    "velocity": 0.905511811023622
                },
                {
                    "duration": 0.2321426249999945,
                    "durationTicks": 234,
                    "midi": 28,
                    "name": "E1",
                    "ticks": 133920,
                    "time": 132.85701,
                    "velocity": 0.905511811023622
                },
                {
                    "duration": 0.23214262500002292,
                    "durationTicks": 234,
                    "midi": 40,
                    "name": "E2",
                    "ticks": 134160,
                    "time": 133.095105,
                    "velocity": 0.905511811023622
                },
                {
                    "duration": 0.2321426249999945,
                    "durationTicks": 234,
                    "midi": 35,
                    "name": "B1",
                    "ticks": 134400,
                    "time": 133.3332,
                    "velocity": 0.905511811023622
                },
                {
                    "duration": 0.23214262500002292,
                    "durationTicks": 234,
                    "midi": 47,
                    "name": "B2",
                    "ticks": 134640,
                    "time": 133.571295,
                    "velocity": 0.905511811023622
                },
                {
                    "duration": 0.2321426249999945,
                    "durationTicks": 234,
                    "midi": 35,
                    "name": "B1",
                    "ticks": 134880,
                    "time": 133.80939,
                    "velocity": 0.905511811023622
                },
                {
                    "duration": 0.23214262500002292,
                    "durationTicks": 234,
                    "midi": 47,
                    "name": "B2",
                    "ticks": 135120,
                    "time": 134.047485,
                    "velocity": 0.905511811023622
                },
                {
                    "duration": 0.2321426249999945,
                    "durationTicks": 234,
                    "midi": 35,
                    "name": "B1",
                    "ticks": 135360,
                    "time": 134.28558,
                    "velocity": 0.905511811023622
                },
                {
                    "duration": 0.23214262500002292,
                    "durationTicks": 234,
                    "midi": 47,
                    "name": "B2",
                    "ticks": 135600,
                    "time": 134.523675,
                    "velocity": 0.905511811023622
                },
                {
                    "duration": 0.2321426249999945,
                    "durationTicks": 234,
                    "midi": 35,
                    "name": "B1",
                    "ticks": 135840,
                    "time": 134.76177,
                    "velocity": 0.905511811023622
                },
                {
                    "duration": 0.2321426249999945,
                    "durationTicks": 234,
                    "midi": 47,
                    "name": "B2",
                    "ticks": 136080,
                    "time": 134.999865,
                    "velocity": 0.905511811023622
                },
                {
                    "duration": 0.23214262500002292,
                    "durationTicks": 234,
                    "midi": 30,
                    "name": "F#1",
                    "ticks": 136320,
                    "time": 135.23796,
                    "velocity": 0.905511811023622
                },
                {
                    "duration": 0.2321426249999945,
                    "durationTicks": 234,
                    "midi": 42,
                    "name": "F#2",
                    "ticks": 136560,
                    "time": 135.476055,
                    "velocity": 0.905511811023622
                },
                {
                    "duration": 0.23214262500002292,
                    "durationTicks": 234,
                    "midi": 30,
                    "name": "F#1",
                    "ticks": 136800,
                    "time": 135.71415,
                    "velocity": 0.905511811023622
                },
                {
                    "duration": 0.2321426249999945,
                    "durationTicks": 234,
                    "midi": 42,
                    "name": "F#2",
                    "ticks": 137040,
                    "time": 135.952245,
                    "velocity": 0.905511811023622
                },
                {
                    "duration": 0.23214262500002292,
                    "durationTicks": 234,
                    "midi": 30,
                    "name": "F#1",
                    "ticks": 137280,
                    "time": 136.19034,
                    "velocity": 0.905511811023622
                },
                {
                    "duration": 0.2321426249999945,
                    "durationTicks": 234,
                    "midi": 42,
                    "name": "F#2",
                    "ticks": 137520,
                    "time": 136.428435,
                    "velocity": 0.905511811023622
                },
                {
                    "duration": 0.23214262500002292,
                    "durationTicks": 234,
                    "midi": 30,
                    "name": "F#1",
                    "ticks": 137760,
                    "time": 136.66653,
                    "velocity": 0.905511811023622
                },
                {
                    "duration": 0.2321426249999945,
                    "durationTicks": 234,
                    "midi": 42,
                    "name": "F#2",
                    "ticks": 138000,
                    "time": 136.904625,
                    "velocity": 0.905511811023622
                },
                {
                    "duration": 0.23214262500002292,
                    "durationTicks": 234,
                    "midi": 30,
                    "name": "F#1",
                    "ticks": 138240,
                    "time": 137.14272,
                    "velocity": 0.905511811023622
                },
                {
                    "duration": 0.2321426249999945,
                    "durationTicks": 234,
                    "midi": 42,
                    "name": "F#2",
                    "ticks": 138480,
                    "time": 137.380815,
                    "velocity": 0.905511811023622
                },
                {
                    "duration": 0.2321426249999945,
                    "durationTicks": 234,
                    "midi": 30,
                    "name": "F#1",
                    "ticks": 138720,
                    "time": 137.61891,
                    "velocity": 0.905511811023622
                },
                {
                    "duration": 0.23214262500002292,
                    "durationTicks": 234,
                    "midi": 42,
                    "name": "F#2",
                    "ticks": 138960,
                    "time": 137.857005,
                    "velocity": 0.905511811023622
                },
                {
                    "duration": 0.2321426249999945,
                    "durationTicks": 234,
                    "midi": 30,
                    "name": "F#1",
                    "ticks": 139200,
                    "time": 138.0951,
                    "velocity": 0.905511811023622
                },
                {
                    "duration": 0.23214262500002292,
                    "durationTicks": 234,
                    "midi": 42,
                    "name": "F#2",
                    "ticks": 139440,
                    "time": 138.333195,
                    "velocity": 0.905511811023622
                },
                {
                    "duration": 0.2321426249999945,
                    "durationTicks": 234,
                    "midi": 30,
                    "name": "F#1",
                    "ticks": 139680,
                    "time": 138.57129,
                    "velocity": 0.905511811023622
                },
                {
                    "duration": 0.23214262500002292,
                    "durationTicks": 234,
                    "midi": 42,
                    "name": "F#2",
                    "ticks": 139920,
                    "time": 138.809385,
                    "velocity": 0.905511811023622
                },
                {
                    "duration": 0.2321426249999945,
                    "durationTicks": 234,
                    "midi": 28,
                    "name": "E1",
                    "ticks": 140160,
                    "time": 139.04748,
                    "velocity": 0.905511811023622
                },
                {
                    "duration": 0.23214262500002292,
                    "durationTicks": 234,
                    "midi": 40,
                    "name": "E2",
                    "ticks": 140400,
                    "time": 139.285575,
                    "velocity": 0.905511811023622
                },
                {
                    "duration": 0.2321426249999945,
                    "durationTicks": 234,
                    "midi": 28,
                    "name": "E1",
                    "ticks": 140640,
                    "time": 139.52367,
                    "velocity": 0.905511811023622
                },
                {
                    "duration": 0.23214262500002292,
                    "durationTicks": 234,
                    "midi": 40,
                    "name": "E2",
                    "ticks": 140880,
                    "time": 139.761765,
                    "velocity": 0.905511811023622
                },
                {
                    "duration": 0.2321426249999945,
                    "durationTicks": 234,
                    "midi": 28,
                    "name": "E1",
                    "ticks": 141120,
                    "time": 139.99986,
                    "velocity": 0.905511811023622
                },
                {
                    "duration": 0.2321426249999945,
                    "durationTicks": 234,
                    "midi": 40,
                    "name": "E2",
                    "ticks": 141360,
                    "time": 140.237955,
                    "velocity": 0.905511811023622
                },
                {
                    "duration": 0.23214262500002292,
                    "durationTicks": 234,
                    "midi": 28,
                    "name": "E1",
                    "ticks": 141600,
                    "time": 140.47605,
                    "velocity": 0.905511811023622
                },
                {
                    "duration": 0.2321426249999945,
                    "durationTicks": 234,
                    "midi": 40,
                    "name": "E2",
                    "ticks": 141840,
                    "time": 140.714145,
                    "velocity": 0.905511811023622
                },
                {
                    "duration": 0.23214262500002292,
                    "durationTicks": 234,
                    "midi": 35,
                    "name": "B1",
                    "ticks": 142080,
                    "time": 140.95224,
                    "velocity": 0.905511811023622
                },
                {
                    "duration": 0.2321426249999945,
                    "durationTicks": 234,
                    "midi": 47,
                    "name": "B2",
                    "ticks": 142320,
                    "time": 141.190335,
                    "velocity": 0.905511811023622
                },
                {
                    "duration": 0.23214262500002292,
                    "durationTicks": 234,
                    "midi": 35,
                    "name": "B1",
                    "ticks": 142560,
                    "time": 141.42843,
                    "velocity": 0.905511811023622
                },
                {
                    "duration": 0.2321426249999945,
                    "durationTicks": 234,
                    "midi": 47,
                    "name": "B2",
                    "ticks": 142800,
                    "time": 141.666525,
                    "velocity": 0.905511811023622
                },
                {
                    "duration": 0.23214262500002292,
                    "durationTicks": 234,
                    "midi": 35,
                    "name": "B1",
                    "ticks": 143040,
                    "time": 141.90462,
                    "velocity": 0.905511811023622
                },
                {
                    "duration": 0.2321426249999945,
                    "durationTicks": 234,
                    "midi": 47,
                    "name": "B2",
                    "ticks": 143280,
                    "time": 142.142715,
                    "velocity": 0.905511811023622
                },
                {
                    "duration": 0.23214262500002292,
                    "durationTicks": 234,
                    "midi": 35,
                    "name": "B1",
                    "ticks": 143520,
                    "time": 142.38081,
                    "velocity": 0.905511811023622
                },
                {
                    "duration": 0.2321426249999945,
                    "durationTicks": 234,
                    "midi": 47,
                    "name": "B2",
                    "ticks": 143760,
                    "time": 142.618905,
                    "velocity": 0.905511811023622
                },
                {
                    "duration": 0.2321426249999945,
                    "durationTicks": 234,
                    "midi": 30,
                    "name": "F#1",
                    "ticks": 144000,
                    "time": 142.857,
                    "velocity": 0.905511811023622
                },
                {
                    "duration": 0.2321426249999945,
                    "durationTicks": 234,
                    "midi": 42,
                    "name": "F#2",
                    "ticks": 144240,
                    "time": 143.09509500000001,
                    "velocity": 0.905511811023622
                },
                {
                    "duration": 0.2321426249999945,
                    "durationTicks": 234,
                    "midi": 30,
                    "name": "F#1",
                    "ticks": 144480,
                    "time": 143.33319,
                    "velocity": 0.905511811023622
                },
                {
                    "duration": 0.23214262500002292,
                    "durationTicks": 234,
                    "midi": 42,
                    "name": "F#2",
                    "ticks": 144720,
                    "time": 143.571285,
                    "velocity": 0.905511811023622
                },
                {
                    "duration": 0.2321426249999945,
                    "durationTicks": 234,
                    "midi": 30,
                    "name": "F#1",
                    "ticks": 144960,
                    "time": 143.80938,
                    "velocity": 0.905511811023622
                },
                {
                    "duration": 0.23214262500002292,
                    "durationTicks": 234,
                    "midi": 42,
                    "name": "F#2",
                    "ticks": 145200,
                    "time": 144.047475,
                    "velocity": 0.905511811023622
                },
                {
                    "duration": 0.2321426249999945,
                    "durationTicks": 234,
                    "midi": 30,
                    "name": "F#1",
                    "ticks": 145440,
                    "time": 144.28557,
                    "velocity": 0.905511811023622
                },
                {
                    "duration": 0.23214262500002292,
                    "durationTicks": 234,
                    "midi": 42,
                    "name": "F#2",
                    "ticks": 145680,
                    "time": 144.523665,
                    "velocity": 0.905511811023622
                },
                {
                    "duration": 0.2321426249999945,
                    "durationTicks": 234,
                    "midi": 30,
                    "name": "F#1",
                    "ticks": 145920,
                    "time": 144.76176,
                    "velocity": 0.905511811023622
                },
                {
                    "duration": 0.23214262500002292,
                    "durationTicks": 234,
                    "midi": 42,
                    "name": "F#2",
                    "ticks": 146160,
                    "time": 144.999855,
                    "velocity": 0.905511811023622
                },
                {
                    "duration": 0.2321426249999945,
                    "durationTicks": 234,
                    "midi": 30,
                    "name": "F#1",
                    "ticks": 146400,
                    "time": 145.23795,
                    "velocity": 0.905511811023622
                },
                {
                    "duration": 0.2321426249999945,
                    "durationTicks": 234,
                    "midi": 42,
                    "name": "F#2",
                    "ticks": 146640,
                    "time": 145.476045,
                    "velocity": 0.905511811023622
                },
                {
                    "duration": 0.2321426249999945,
                    "durationTicks": 234,
                    "midi": 30,
                    "name": "F#1",
                    "ticks": 146880,
                    "time": 145.71414000000001,
                    "velocity": 0.905511811023622
                },
                {
                    "duration": 0.2321426249999945,
                    "durationTicks": 234,
                    "midi": 42,
                    "name": "F#2",
                    "ticks": 147120,
                    "time": 145.952235,
                    "velocity": 0.905511811023622
                },
                {
                    "duration": 0.23214262500002292,
                    "durationTicks": 234,
                    "midi": 30,
                    "name": "F#1",
                    "ticks": 147360,
                    "time": 146.19033,
                    "velocity": 0.905511811023622
                },
                {
                    "duration": 0.2321426249999945,
                    "durationTicks": 234,
                    "midi": 42,
                    "name": "F#2",
                    "ticks": 147600,
                    "time": 146.428425,
                    "velocity": 0.905511811023622
                },
                {
                    "duration": 0.23214262500002292,
                    "durationTicks": 234,
                    "midi": 28,
                    "name": "E1",
                    "ticks": 147840,
                    "time": 146.66652,
                    "velocity": 0.905511811023622
                },
                {
                    "duration": 0.2321426249999945,
                    "durationTicks": 234,
                    "midi": 40,
                    "name": "E2",
                    "ticks": 148080,
                    "time": 146.904615,
                    "velocity": 0.905511811023622
                },
                {
                    "duration": 0.23214262500002292,
                    "durationTicks": 234,
                    "midi": 28,
                    "name": "E1",
                    "ticks": 148320,
                    "time": 147.14271,
                    "velocity": 0.905511811023622
                },
                {
                    "duration": 0.2321426249999945,
                    "durationTicks": 234,
                    "midi": 40,
                    "name": "E2",
                    "ticks": 148560,
                    "time": 147.380805,
                    "velocity": 0.905511811023622
                },
                {
                    "duration": 0.23214262500002292,
                    "durationTicks": 234,
                    "midi": 28,
                    "name": "E1",
                    "ticks": 148800,
                    "time": 147.6189,
                    "velocity": 0.905511811023622
                },
                {
                    "duration": 0.2321426249999945,
                    "durationTicks": 234,
                    "midi": 40,
                    "name": "E2",
                    "ticks": 149040,
                    "time": 147.856995,
                    "velocity": 0.905511811023622
                },
                {
                    "duration": 0.2321426249999945,
                    "durationTicks": 234,
                    "midi": 28,
                    "name": "E1",
                    "ticks": 149280,
                    "time": 148.09509,
                    "velocity": 0.905511811023622
                },
                {
                    "duration": 0.2321426249999945,
                    "durationTicks": 234,
                    "midi": 40,
                    "name": "E2",
                    "ticks": 149520,
                    "time": 148.33318500000001,
                    "velocity": 0.905511811023622
                },
                {
                    "duration": 0.2321426249999945,
                    "durationTicks": 234,
                    "midi": 35,
                    "name": "B1",
                    "ticks": 149760,
                    "time": 148.57128,
                    "velocity": 0.905511811023622
                },
                {
                    "duration": 0.23214262500002292,
                    "durationTicks": 234,
                    "midi": 47,
                    "name": "B2",
                    "ticks": 150000,
                    "time": 148.809375,
                    "velocity": 0.905511811023622
                },
                {
                    "duration": 0.2321426249999945,
                    "durationTicks": 234,
                    "midi": 35,
                    "name": "B1",
                    "ticks": 150240,
                    "time": 149.04747,
                    "velocity": 0.905511811023622
                },
                {
                    "duration": 0.23214262500002292,
                    "durationTicks": 234,
                    "midi": 47,
                    "name": "B2",
                    "ticks": 150480,
                    "time": 149.285565,
                    "velocity": 0.905511811023622
                },
                {
                    "duration": 0.2321426249999945,
                    "durationTicks": 234,
                    "midi": 35,
                    "name": "B1",
                    "ticks": 150720,
                    "time": 149.52366,
                    "velocity": 0.905511811023622
                },
                {
                    "duration": 0.23214262500002292,
                    "durationTicks": 234,
                    "midi": 47,
                    "name": "B2",
                    "ticks": 150960,
                    "time": 149.761755,
                    "velocity": 0.905511811023622
                },
                {
                    "duration": 0.2321426249999945,
                    "durationTicks": 234,
                    "midi": 35,
                    "name": "B1",
                    "ticks": 151200,
                    "time": 149.99985,
                    "velocity": 0.905511811023622
                },
                {
                    "duration": 0.23214262500002292,
                    "durationTicks": 234,
                    "midi": 47,
                    "name": "B2",
                    "ticks": 151440,
                    "time": 150.237945,
                    "velocity": 0.905511811023622
                },
                {
                    "duration": 0.2321426249999945,
                    "durationTicks": 234,
                    "midi": 30,
                    "name": "F#1",
                    "ticks": 151680,
                    "time": 150.47604,
                    "velocity": 0.905511811023622
                },
                {
                    "duration": 0.2321426249999945,
                    "durationTicks": 234,
                    "midi": 42,
                    "name": "F#2",
                    "ticks": 151920,
                    "time": 150.714135,
                    "velocity": 0.905511811023622
                },
                {
                    "duration": 0.2321426249999945,
                    "durationTicks": 234,
                    "midi": 30,
                    "name": "F#1",
                    "ticks": 152160,
                    "time": 150.95223000000001,
                    "velocity": 0.905511811023622
                },
                {
                    "duration": 0.2321426249999945,
                    "durationTicks": 234,
                    "midi": 42,
                    "name": "F#2",
                    "ticks": 152400,
                    "time": 151.190325,
                    "velocity": 0.905511811023622
                },
                {
                    "duration": 0.23214262500002292,
                    "durationTicks": 234,
                    "midi": 30,
                    "name": "F#1",
                    "ticks": 152640,
                    "time": 151.42842,
                    "velocity": 0.905511811023622
                },
                {
                    "duration": 0.2321426249999945,
                    "durationTicks": 234,
                    "midi": 42,
                    "name": "F#2",
                    "ticks": 152880,
                    "time": 151.666515,
                    "velocity": 0.905511811023622
                },
                {
                    "duration": 0.23214262500002292,
                    "durationTicks": 234,
                    "midi": 30,
                    "name": "F#1",
                    "ticks": 153120,
                    "time": 151.90461,
                    "velocity": 0.905511811023622
                },
                {
                    "duration": 0.2321426249999945,
                    "durationTicks": 234,
                    "midi": 42,
                    "name": "F#2",
                    "ticks": 153360,
                    "time": 152.142705,
                    "velocity": 0.905511811023622
                },
                {
                    "duration": 0.23214262500002292,
                    "durationTicks": 234,
                    "midi": 30,
                    "name": "F#1",
                    "ticks": 153600,
                    "time": 152.3808,
                    "velocity": 0.905511811023622
                },
                {
                    "duration": 0.2321426249999945,
                    "durationTicks": 234,
                    "midi": 42,
                    "name": "F#2",
                    "ticks": 153840,
                    "time": 152.618895,
                    "velocity": 0.905511811023622
                },
                {
                    "duration": 0.23214262500002292,
                    "durationTicks": 234,
                    "midi": 30,
                    "name": "F#1",
                    "ticks": 154080,
                    "time": 152.85699,
                    "velocity": 0.905511811023622
                },
                {
                    "duration": 0.2321426249999945,
                    "durationTicks": 234,
                    "midi": 42,
                    "name": "F#2",
                    "ticks": 154320,
                    "time": 153.095085,
                    "velocity": 0.905511811023622
                },
                {
                    "duration": 0.2321426249999945,
                    "durationTicks": 234,
                    "midi": 30,
                    "name": "F#1",
                    "ticks": 154560,
                    "time": 153.33318,
                    "velocity": 0.905511811023622
                },
                {
                    "duration": 0.2321426249999945,
                    "durationTicks": 234,
                    "midi": 42,
                    "name": "F#2",
                    "ticks": 154800,
                    "time": 153.571275,
                    "velocity": 0.905511811023622
                },
                {
                    "duration": 0.2321426249999945,
                    "durationTicks": 234,
                    "midi": 30,
                    "name": "F#1",
                    "ticks": 155040,
                    "time": 153.80937,
                    "velocity": 0.905511811023622
                },
                {
                    "duration": 0.23214262500002292,
                    "durationTicks": 234,
                    "midi": 42,
                    "name": "F#2",
                    "ticks": 155280,
                    "time": 154.047465,
                    "velocity": 0.905511811023622
                },
                {
                    "duration": 0.2321426249999945,
                    "durationTicks": 234,
                    "midi": 28,
                    "name": "E1",
                    "ticks": 155520,
                    "time": 154.28556,
                    "velocity": 0.905511811023622
                },
                {
                    "duration": 0.23214262500002292,
                    "durationTicks": 234,
                    "midi": 40,
                    "name": "E2",
                    "ticks": 155760,
                    "time": 154.523655,
                    "velocity": 0.905511811023622
                },
                {
                    "duration": 0.2321426249999945,
                    "durationTicks": 234,
                    "midi": 28,
                    "name": "E1",
                    "ticks": 156000,
                    "time": 154.76175,
                    "velocity": 0.905511811023622
                },
                {
                    "duration": 0.23214262500002292,
                    "durationTicks": 234,
                    "midi": 40,
                    "name": "E2",
                    "ticks": 156240,
                    "time": 154.999845,
                    "velocity": 0.905511811023622
                },
                {
                    "duration": 0.2321426249999945,
                    "durationTicks": 234,
                    "midi": 28,
                    "name": "E1",
                    "ticks": 156480,
                    "time": 155.23794,
                    "velocity": 0.905511811023622
                },
                {
                    "duration": 0.23214262500002292,
                    "durationTicks": 234,
                    "midi": 40,
                    "name": "E2",
                    "ticks": 156720,
                    "time": 155.476035,
                    "velocity": 0.905511811023622
                },
                {
                    "duration": 0.2321426249999945,
                    "durationTicks": 234,
                    "midi": 28,
                    "name": "E1",
                    "ticks": 156960,
                    "time": 155.71413,
                    "velocity": 0.905511811023622
                },
                {
                    "duration": 0.2321426249999945,
                    "durationTicks": 234,
                    "midi": 40,
                    "name": "E2",
                    "ticks": 157200,
                    "time": 155.952225,
                    "velocity": 0.905511811023622
                },
                {
                    "duration": 0.2321426249999945,
                    "durationTicks": 234,
                    "midi": 35,
                    "name": "B1",
                    "ticks": 157440,
                    "time": 156.19032,
                    "velocity": 0.905511811023622
                },
                {
                    "duration": 0.2321426249999945,
                    "durationTicks": 234,
                    "midi": 47,
                    "name": "B2",
                    "ticks": 157680,
                    "time": 156.428415,
                    "velocity": 0.905511811023622
                },
                {
                    "duration": 0.23214262500002292,
                    "durationTicks": 234,
                    "midi": 35,
                    "name": "B1",
                    "ticks": 157920,
                    "time": 156.66651,
                    "velocity": 0.905511811023622
                },
                {
                    "duration": 0.2321426249999945,
                    "durationTicks": 234,
                    "midi": 47,
                    "name": "B2",
                    "ticks": 158160,
                    "time": 156.904605,
                    "velocity": 0.905511811023622
                },
                {
                    "duration": 0.23214262500002292,
                    "durationTicks": 234,
                    "midi": 35,
                    "name": "B1",
                    "ticks": 158400,
                    "time": 157.1427,
                    "velocity": 0.905511811023622
                },
                {
                    "duration": 0.2321426249999945,
                    "durationTicks": 234,
                    "midi": 47,
                    "name": "B2",
                    "ticks": 158640,
                    "time": 157.380795,
                    "velocity": 0.905511811023622
                },
                {
                    "duration": 0.23214262500002292,
                    "durationTicks": 234,
                    "midi": 35,
                    "name": "B1",
                    "ticks": 158880,
                    "time": 157.61889,
                    "velocity": 0.905511811023622
                },
                {
                    "duration": 0.2321426249999945,
                    "durationTicks": 234,
                    "midi": 47,
                    "name": "B2",
                    "ticks": 159120,
                    "time": 157.856985,
                    "velocity": 0.905511811023622
                },
                {
                    "duration": 0.23214262500002292,
                    "durationTicks": 234,
                    "midi": 30,
                    "name": "F#1",
                    "ticks": 159360,
                    "time": 158.09508,
                    "velocity": 0.905511811023622
                },
                {
                    "duration": 0.2321426249999945,
                    "durationTicks": 234,
                    "midi": 42,
                    "name": "F#2",
                    "ticks": 159600,
                    "time": 158.333175,
                    "velocity": 0.905511811023622
                },
                {
                    "duration": 0.2321426249999945,
                    "durationTicks": 234,
                    "midi": 30,
                    "name": "F#1",
                    "ticks": 159840,
                    "time": 158.57127,
                    "velocity": 0.905511811023622
                },
                {
                    "duration": 0.2321426249999945,
                    "durationTicks": 234,
                    "midi": 42,
                    "name": "F#2",
                    "ticks": 160080,
                    "time": 158.809365,
                    "velocity": 0.905511811023622
                },
                {
                    "duration": 0.2321426249999945,
                    "durationTicks": 234,
                    "midi": 30,
                    "name": "F#1",
                    "ticks": 160320,
                    "time": 159.04746,
                    "velocity": 0.905511811023622
                },
                {
                    "duration": 0.23214262500002292,
                    "durationTicks": 234,
                    "midi": 42,
                    "name": "F#2",
                    "ticks": 160560,
                    "time": 159.285555,
                    "velocity": 0.905511811023622
                },
                {
                    "duration": 0.2321426249999945,
                    "durationTicks": 234,
                    "midi": 30,
                    "name": "F#1",
                    "ticks": 160800,
                    "time": 159.52365,
                    "velocity": 0.905511811023622
                },
                {
                    "duration": 0.23214262500002292,
                    "durationTicks": 234,
                    "midi": 42,
                    "name": "F#2",
                    "ticks": 161040,
                    "time": 159.761745,
                    "velocity": 0.905511811023622
                },
                {
                    "duration": 0.2321426249999945,
                    "durationTicks": 234,
                    "midi": 30,
                    "name": "F#1",
                    "ticks": 176640,
                    "time": 175.23792,
                    "velocity": 0.905511811023622
                },
                {
                    "duration": 0.23214262500002292,
                    "durationTicks": 234,
                    "midi": 42,
                    "name": "F#2",
                    "ticks": 176880,
                    "time": 175.476015,
                    "velocity": 0.905511811023622
                },
                {
                    "duration": 0.2321426249999945,
                    "durationTicks": 234,
                    "midi": 30,
                    "name": "F#1",
                    "ticks": 177120,
                    "time": 175.71411,
                    "velocity": 0.905511811023622
                },
                {
                    "duration": 0.23214262500002292,
                    "durationTicks": 234,
                    "midi": 42,
                    "name": "F#2",
                    "ticks": 177360,
                    "time": 175.952205,
                    "velocity": 0.905511811023622
                },
                {
                    "duration": 0.2321426249999945,
                    "durationTicks": 234,
                    "midi": 30,
                    "name": "F#1",
                    "ticks": 177600,
                    "time": 176.1903,
                    "velocity": 0.905511811023622
                },
                {
                    "duration": 0.23214262500002292,
                    "durationTicks": 234,
                    "midi": 42,
                    "name": "F#2",
                    "ticks": 177840,
                    "time": 176.428395,
                    "velocity": 0.905511811023622
                },
                {
                    "duration": 0.2321426249999945,
                    "durationTicks": 234,
                    "midi": 30,
                    "name": "F#1",
                    "ticks": 178080,
                    "time": 176.66649,
                    "velocity": 0.905511811023622
                },
                {
                    "duration": 0.23214262500002292,
                    "durationTicks": 234,
                    "midi": 42,
                    "name": "F#2",
                    "ticks": 178320,
                    "time": 176.904585,
                    "velocity": 0.905511811023622
                },
                {
                    "duration": 0.2321426249999945,
                    "durationTicks": 234,
                    "midi": 30,
                    "name": "F#1",
                    "ticks": 178560,
                    "time": 177.14268,
                    "velocity": 0.905511811023622
                },
                {
                    "duration": 0.2321426249999945,
                    "durationTicks": 234,
                    "midi": 42,
                    "name": "F#2",
                    "ticks": 178800,
                    "time": 177.380775,
                    "velocity": 0.905511811023622
                },
                {
                    "duration": 0.23214262500002292,
                    "durationTicks": 234,
                    "midi": 30,
                    "name": "F#1",
                    "ticks": 179040,
                    "time": 177.61887,
                    "velocity": 0.905511811023622
                },
                {
                    "duration": 0.2321426249999945,
                    "durationTicks": 234,
                    "midi": 42,
                    "name": "F#2",
                    "ticks": 179280,
                    "time": 177.856965,
                    "velocity": 0.905511811023622
                },
                {
                    "duration": 0.23214262500002292,
                    "durationTicks": 234,
                    "midi": 30,
                    "name": "F#1",
                    "ticks": 179520,
                    "time": 178.09506,
                    "velocity": 0.905511811023622
                },
                {
                    "duration": 0.2321426249999945,
                    "durationTicks": 234,
                    "midi": 42,
                    "name": "F#2",
                    "ticks": 179760,
                    "time": 178.333155,
                    "velocity": 0.905511811023622
                },
                {
                    "duration": 0.23214262500002292,
                    "durationTicks": 234,
                    "midi": 30,
                    "name": "F#1",
                    "ticks": 180000,
                    "time": 178.57125,
                    "velocity": 0.905511811023622
                },
                {
                    "duration": 0.2321426249999945,
                    "durationTicks": 234,
                    "midi": 42,
                    "name": "F#2",
                    "ticks": 180240,
                    "time": 178.809345,
                    "velocity": 0.905511811023622
                },
                {
                    "duration": 0.23214262500002292,
                    "durationTicks": 234,
                    "midi": 30,
                    "name": "F#1",
                    "ticks": 180480,
                    "time": 179.04744,
                    "velocity": 0.905511811023622
                },
                {
                    "duration": 0.2321426249999945,
                    "durationTicks": 234,
                    "midi": 42,
                    "name": "F#2",
                    "ticks": 180720,
                    "time": 179.285535,
                    "velocity": 0.905511811023622
                },
                {
                    "duration": 0.23214262500002292,
                    "durationTicks": 234,
                    "midi": 30,
                    "name": "F#1",
                    "ticks": 180960,
                    "time": 179.52363,
                    "velocity": 0.905511811023622
                },
                {
                    "duration": 0.2321426249999945,
                    "durationTicks": 234,
                    "midi": 42,
                    "name": "F#2",
                    "ticks": 181200,
                    "time": 179.761725,
                    "velocity": 0.905511811023622
                },
                {
                    "duration": 0.2321426249999945,
                    "durationTicks": 234,
                    "midi": 30,
                    "name": "F#1",
                    "ticks": 181440,
                    "time": 179.99982,
                    "velocity": 0.905511811023622
                },
                {
                    "duration": 0.23214262500002292,
                    "durationTicks": 234,
                    "midi": 42,
                    "name": "F#2",
                    "ticks": 181680,
                    "time": 180.237915,
                    "velocity": 0.905511811023622
                },
                {
                    "duration": 0.2321426249999945,
                    "durationTicks": 234,
                    "midi": 30,
                    "name": "F#1",
                    "ticks": 181920,
                    "time": 180.47601,
                    "velocity": 0.905511811023622
                },
                {
                    "duration": 0.23214262500002292,
                    "durationTicks": 234,
                    "midi": 42,
                    "name": "F#2",
                    "ticks": 182160,
                    "time": 180.714105,
                    "velocity": 0.905511811023622
                },
                {
                    "duration": 0.2321426249999945,
                    "durationTicks": 234,
                    "midi": 30,
                    "name": "F#1",
                    "ticks": 199680,
                    "time": 198.09504,
                    "velocity": 0.905511811023622
                },
                {
                    "duration": 0.2321426249999945,
                    "durationTicks": 234,
                    "midi": 42,
                    "name": "F#2",
                    "ticks": 199920,
                    "time": 198.333135,
                    "velocity": 0.905511811023622
                },
                {
                    "duration": 0.2321426249999945,
                    "durationTicks": 234,
                    "midi": 30,
                    "name": "F#1",
                    "ticks": 200160,
                    "time": 198.57123,
                    "velocity": 0.905511811023622
                },
                {
                    "duration": 0.2321426249999945,
                    "durationTicks": 234,
                    "midi": 42,
                    "name": "F#2",
                    "ticks": 200400,
                    "time": 198.809325,
                    "velocity": 0.905511811023622
                },
                {
                    "duration": 0.23214262500002292,
                    "durationTicks": 234,
                    "midi": 30,
                    "name": "F#1",
                    "ticks": 200640,
                    "time": 199.04742,
                    "velocity": 0.905511811023622
                },
                {
                    "duration": 0.2321426249999945,
                    "durationTicks": 234,
                    "midi": 42,
                    "name": "F#2",
                    "ticks": 200880,
                    "time": 199.285515,
                    "velocity": 0.905511811023622
                },
                {
                    "duration": 0.23214262500002292,
                    "durationTicks": 234,
                    "midi": 30,
                    "name": "F#1",
                    "ticks": 201120,
                    "time": 199.52361,
                    "velocity": 0.905511811023622
                },
                {
                    "duration": 0.2321426249999945,
                    "durationTicks": 234,
                    "midi": 42,
                    "name": "F#2",
                    "ticks": 201360,
                    "time": 199.761705,
                    "velocity": 0.905511811023622
                },
                {
                    "duration": 0.23214262500002292,
                    "durationTicks": 234,
                    "midi": 28,
                    "name": "E1",
                    "ticks": 201600,
                    "time": 199.9998,
                    "velocity": 0.905511811023622
                },
                {
                    "duration": 0.2321426249999945,
                    "durationTicks": 234,
                    "midi": 40,
                    "name": "E2",
                    "ticks": 201840,
                    "time": 200.237895,
                    "velocity": 0.905511811023622
                },
                {
                    "duration": 0.23214262500002292,
                    "durationTicks": 234,
                    "midi": 28,
                    "name": "E1",
                    "ticks": 202080,
                    "time": 200.47599,
                    "velocity": 0.905511811023622
                },
                {
                    "duration": 0.2321426249999945,
                    "durationTicks": 234,
                    "midi": 40,
                    "name": "E2",
                    "ticks": 202320,
                    "time": 200.714085,
                    "velocity": 0.905511811023622
                },
                {
                    "duration": 0.2321426249999945,
                    "durationTicks": 234,
                    "midi": 28,
                    "name": "E1",
                    "ticks": 202560,
                    "time": 200.95218,
                    "velocity": 0.905511811023622
                },
                {
                    "duration": 0.2321426249999945,
                    "durationTicks": 234,
                    "midi": 40,
                    "name": "E2",
                    "ticks": 202800,
                    "time": 201.190275,
                    "velocity": 0.905511811023622
                },
                {
                    "duration": 0.2321426249999945,
                    "durationTicks": 234,
                    "midi": 28,
                    "name": "E1",
                    "ticks": 203040,
                    "time": 201.42837,
                    "velocity": 0.905511811023622
                },
                {
                    "duration": 0.23214262500002292,
                    "durationTicks": 234,
                    "midi": 40,
                    "name": "E2",
                    "ticks": 203280,
                    "time": 201.666465,
                    "velocity": 0.905511811023622
                },
                {
                    "duration": 0.2321426249999945,
                    "durationTicks": 234,
                    "midi": 35,
                    "name": "B1",
                    "ticks": 203520,
                    "time": 201.90456,
                    "velocity": 0.905511811023622
                },
                {
                    "duration": 0.23214262500002292,
                    "durationTicks": 234,
                    "midi": 47,
                    "name": "B2",
                    "ticks": 203760,
                    "time": 202.142655,
                    "velocity": 0.905511811023622
                },
                {
                    "duration": 0.2321426249999945,
                    "durationTicks": 234,
                    "midi": 35,
                    "name": "B1",
                    "ticks": 204000,
                    "time": 202.38075,
                    "velocity": 0.905511811023622
                },
                {
                    "duration": 0.23214262500002292,
                    "durationTicks": 234,
                    "midi": 47,
                    "name": "B2",
                    "ticks": 204240,
                    "time": 202.618845,
                    "velocity": 0.905511811023622
                },
                {
                    "duration": 0.2321426249999945,
                    "durationTicks": 234,
                    "midi": 35,
                    "name": "B1",
                    "ticks": 204480,
                    "time": 202.85694,
                    "velocity": 0.905511811023622
                },
                {
                    "duration": 0.23214262500002292,
                    "durationTicks": 234,
                    "midi": 47,
                    "name": "B2",
                    "ticks": 204720,
                    "time": 203.095035,
                    "velocity": 0.905511811023622
                },
                {
                    "duration": 0.2321426249999945,
                    "durationTicks": 234,
                    "midi": 35,
                    "name": "B1",
                    "ticks": 204960,
                    "time": 203.33313,
                    "velocity": 0.905511811023622
                },
                {
                    "duration": 0.2321426249999945,
                    "durationTicks": 234,
                    "midi": 47,
                    "name": "B2",
                    "ticks": 205200,
                    "time": 203.571225,
                    "velocity": 0.905511811023622
                },
                {
                    "duration": 0.2321426249999945,
                    "durationTicks": 234,
                    "midi": 30,
                    "name": "F#1",
                    "ticks": 205440,
                    "time": 203.80932,
                    "velocity": 0.905511811023622
                },
                {
                    "duration": 0.2321426249999945,
                    "durationTicks": 234,
                    "midi": 42,
                    "name": "F#2",
                    "ticks": 205680,
                    "time": 204.047415,
                    "velocity": 0.905511811023622
                },
                {
                    "duration": 0.23214262500002292,
                    "durationTicks": 234,
                    "midi": 30,
                    "name": "F#1",
                    "ticks": 205920,
                    "time": 204.28551,
                    "velocity": 0.905511811023622
                },
                {
                    "duration": 0.2321426249999945,
                    "durationTicks": 234,
                    "midi": 42,
                    "name": "F#2",
                    "ticks": 206160,
                    "time": 204.523605,
                    "velocity": 0.905511811023622
                },
                {
                    "duration": 0.23214262500002292,
                    "durationTicks": 234,
                    "midi": 30,
                    "name": "F#1",
                    "ticks": 206400,
                    "time": 204.7617,
                    "velocity": 0.905511811023622
                },
                {
                    "duration": 0.2321426249999945,
                    "durationTicks": 234,
                    "midi": 42,
                    "name": "F#2",
                    "ticks": 206640,
                    "time": 204.999795,
                    "velocity": 0.905511811023622
                },
                {
                    "duration": 0.23214262500002292,
                    "durationTicks": 234,
                    "midi": 30,
                    "name": "F#1",
                    "ticks": 206880,
                    "time": 205.23789,
                    "velocity": 0.905511811023622
                },
                {
                    "duration": 0.2321426249999945,
                    "durationTicks": 234,
                    "midi": 42,
                    "name": "F#2",
                    "ticks": 207120,
                    "time": 205.475985,
                    "velocity": 0.905511811023622
                },
                {
                    "duration": 0.23214262500002292,
                    "durationTicks": 234,
                    "midi": 30,
                    "name": "F#1",
                    "ticks": 207360,
                    "time": 205.71408,
                    "velocity": 0.905511811023622
                },
                {
                    "duration": 0.2321426249999945,
                    "durationTicks": 234,
                    "midi": 42,
                    "name": "F#2",
                    "ticks": 207600,
                    "time": 205.952175,
                    "velocity": 0.905511811023622
                },
                {
                    "duration": 0.2321426249999945,
                    "durationTicks": 234,
                    "midi": 30,
                    "name": "F#1",
                    "ticks": 207840,
                    "time": 206.19027,
                    "velocity": 0.905511811023622
                },
                {
                    "duration": 0.2321426249999945,
                    "durationTicks": 234,
                    "midi": 42,
                    "name": "F#2",
                    "ticks": 208080,
                    "time": 206.428365,
                    "velocity": 0.905511811023622
                },
                {
                    "duration": 0.2321426249999945,
                    "durationTicks": 234,
                    "midi": 30,
                    "name": "F#1",
                    "ticks": 208320,
                    "time": 206.66646,
                    "velocity": 0.905511811023622
                },
                {
                    "duration": 0.23214262500002292,
                    "durationTicks": 234,
                    "midi": 42,
                    "name": "F#2",
                    "ticks": 208560,
                    "time": 206.904555,
                    "velocity": 0.905511811023622
                },
                {
                    "duration": 0.2321426249999945,
                    "durationTicks": 234,
                    "midi": 30,
                    "name": "F#1",
                    "ticks": 208800,
                    "time": 207.14265,
                    "velocity": 0.905511811023622
                },
                {
                    "duration": 0.23214262500002292,
                    "durationTicks": 234,
                    "midi": 42,
                    "name": "F#2",
                    "ticks": 209040,
                    "time": 207.380745,
                    "velocity": 0.905511811023622
                },
                {
                    "duration": 0.2321426249999945,
                    "durationTicks": 234,
                    "midi": 28,
                    "name": "E1",
                    "ticks": 209280,
                    "time": 207.61884,
                    "velocity": 0.905511811023622
                },
                {
                    "duration": 0.23214262500002292,
                    "durationTicks": 234,
                    "midi": 40,
                    "name": "E2",
                    "ticks": 209520,
                    "time": 207.856935,
                    "velocity": 0.905511811023622
                },
                {
                    "duration": 0.2321426249999945,
                    "durationTicks": 234,
                    "midi": 28,
                    "name": "E1",
                    "ticks": 209760,
                    "time": 208.09503,
                    "velocity": 0.905511811023622
                },
                {
                    "duration": 0.23214262500002292,
                    "durationTicks": 234,
                    "midi": 40,
                    "name": "E2",
                    "ticks": 210000,
                    "time": 208.333125,
                    "velocity": 0.905511811023622
                },
                {
                    "duration": 0.2321426249999945,
                    "durationTicks": 234,
                    "midi": 28,
                    "name": "E1",
                    "ticks": 210240,
                    "time": 208.57122,
                    "velocity": 0.905511811023622
                },
                {
                    "duration": 0.2321426249999945,
                    "durationTicks": 234,
                    "midi": 40,
                    "name": "E2",
                    "ticks": 210480,
                    "time": 208.809315,
                    "velocity": 0.905511811023622
                },
                {
                    "duration": 0.2321426249999945,
                    "durationTicks": 234,
                    "midi": 28,
                    "name": "E1",
                    "ticks": 210720,
                    "time": 209.04741,
                    "velocity": 0.905511811023622
                },
                {
                    "duration": 0.2321426249999945,
                    "durationTicks": 234,
                    "midi": 40,
                    "name": "E2",
                    "ticks": 210960,
                    "time": 209.285505,
                    "velocity": 0.905511811023622
                },
                {
                    "duration": 0.23214262500002292,
                    "durationTicks": 234,
                    "midi": 35,
                    "name": "B1",
                    "ticks": 211200,
                    "time": 209.5236,
                    "velocity": 0.905511811023622
                },
                {
                    "duration": 0.2321426249999945,
                    "durationTicks": 234,
                    "midi": 47,
                    "name": "B2",
                    "ticks": 211440,
                    "time": 209.761695,
                    "velocity": 0.905511811023622
                },
                {
                    "duration": 0.23214262500002292,
                    "durationTicks": 234,
                    "midi": 35,
                    "name": "B1",
                    "ticks": 211680,
                    "time": 209.99979,
                    "velocity": 0.905511811023622
                },
                {
                    "duration": 0.2321426249999945,
                    "durationTicks": 234,
                    "midi": 47,
                    "name": "B2",
                    "ticks": 211920,
                    "time": 210.237885,
                    "velocity": 0.905511811023622
                },
                {
                    "duration": 0.23214262500002292,
                    "durationTicks": 234,
                    "midi": 35,
                    "name": "B1",
                    "ticks": 212160,
                    "time": 210.47598,
                    "velocity": 0.905511811023622
                },
                {
                    "duration": 0.2321426249999945,
                    "durationTicks": 234,
                    "midi": 47,
                    "name": "B2",
                    "ticks": 212400,
                    "time": 210.714075,
                    "velocity": 0.905511811023622
                },
                {
                    "duration": 0.23214262500002292,
                    "durationTicks": 234,
                    "midi": 35,
                    "name": "B1",
                    "ticks": 212640,
                    "time": 210.95217,
                    "velocity": 0.905511811023622
                },
                {
                    "duration": 0.2321426249999945,
                    "durationTicks": 234,
                    "midi": 47,
                    "name": "B2",
                    "ticks": 212880,
                    "time": 211.190265,
                    "velocity": 0.905511811023622
                },
                {
                    "duration": 0.2321426249999945,
                    "durationTicks": 234,
                    "midi": 30,
                    "name": "F#1",
                    "ticks": 213120,
                    "time": 211.42836,
                    "velocity": 0.905511811023622
                },
                {
                    "duration": 0.2321426249999945,
                    "durationTicks": 234,
                    "midi": 42,
                    "name": "F#2",
                    "ticks": 213360,
                    "time": 211.666455,
                    "velocity": 0.905511811023622
                },
                {
                    "duration": 0.2321426249999945,
                    "durationTicks": 234,
                    "midi": 30,
                    "name": "F#1",
                    "ticks": 213600,
                    "time": 211.90455,
                    "velocity": 0.905511811023622
                },
                {
                    "duration": 0.23214262500002292,
                    "durationTicks": 234,
                    "midi": 42,
                    "name": "F#2",
                    "ticks": 213840,
                    "time": 212.142645,
                    "velocity": 0.905511811023622
                },
                {
                    "duration": 0.2321426249999945,
                    "durationTicks": 234,
                    "midi": 30,
                    "name": "F#1",
                    "ticks": 214080,
                    "time": 212.38074,
                    "velocity": 0.905511811023622
                },
                {
                    "duration": 0.23214262500002292,
                    "durationTicks": 234,
                    "midi": 42,
                    "name": "F#2",
                    "ticks": 214320,
                    "time": 212.618835,
                    "velocity": 0.905511811023622
                },
                {
                    "duration": 0.2321426249999945,
                    "durationTicks": 234,
                    "midi": 30,
                    "name": "F#1",
                    "ticks": 214560,
                    "time": 212.85693,
                    "velocity": 0.905511811023622
                },
                {
                    "duration": 0.23214262500002292,
                    "durationTicks": 234,
                    "midi": 42,
                    "name": "F#2",
                    "ticks": 214800,
                    "time": 213.095025,
                    "velocity": 0.905511811023622
                },
                {
                    "duration": 0.2321426249999945,
                    "durationTicks": 234,
                    "midi": 30,
                    "name": "F#1",
                    "ticks": 215040,
                    "time": 213.33312,
                    "velocity": 0.905511811023622
                },
                {
                    "duration": 0.23214262500002292,
                    "durationTicks": 234,
                    "midi": 42,
                    "name": "F#2",
                    "ticks": 215280,
                    "time": 213.571215,
                    "velocity": 0.905511811023622
                },
                {
                    "duration": 0.2321426249999945,
                    "durationTicks": 234,
                    "midi": 30,
                    "name": "F#1",
                    "ticks": 215520,
                    "time": 213.80931,
                    "velocity": 0.905511811023622
                },
                {
                    "duration": 0.2321426249999945,
                    "durationTicks": 234,
                    "midi": 42,
                    "name": "F#2",
                    "ticks": 215760,
                    "time": 214.047405,
                    "velocity": 0.905511811023622
                },
                {
                    "duration": 0.2321426249999945,
                    "durationTicks": 234,
                    "midi": 30,
                    "name": "F#1",
                    "ticks": 216000,
                    "time": 214.2855,
                    "velocity": 0.905511811023622
                },
                {
                    "duration": 0.2321426249999945,
                    "durationTicks": 234,
                    "midi": 42,
                    "name": "F#2",
                    "ticks": 216240,
                    "time": 214.523595,
                    "velocity": 0.905511811023622
                },
                {
                    "duration": 0.23214262500002292,
                    "durationTicks": 234,
                    "midi": 30,
                    "name": "F#1",
                    "ticks": 216480,
                    "time": 214.76169,
                    "velocity": 0.905511811023622
                },
                {
                    "duration": 0.2321426249999945,
                    "durationTicks": 234,
                    "midi": 42,
                    "name": "F#2",
                    "ticks": 216720,
                    "time": 214.999785,
                    "velocity": 0.905511811023622
                },
                {
                    "duration": 0.23214262500002292,
                    "durationTicks": 234,
                    "midi": 28,
                    "name": "E1",
                    "ticks": 216960,
                    "time": 215.23788,
                    "velocity": 0.905511811023622
                },
                {
                    "duration": 0.2321426249999945,
                    "durationTicks": 234,
                    "midi": 40,
                    "name": "E2",
                    "ticks": 217200,
                    "time": 215.475975,
                    "velocity": 0.905511811023622
                },
                {
                    "duration": 0.23214262500002292,
                    "durationTicks": 234,
                    "midi": 28,
                    "name": "E1",
                    "ticks": 217440,
                    "time": 215.71407,
                    "velocity": 0.905511811023622
                },
                {
                    "duration": 0.2321426249999945,
                    "durationTicks": 234,
                    "midi": 40,
                    "name": "E2",
                    "ticks": 217680,
                    "time": 215.952165,
                    "velocity": 0.905511811023622
                },
                {
                    "duration": 0.23214262500002292,
                    "durationTicks": 234,
                    "midi": 28,
                    "name": "E1",
                    "ticks": 217920,
                    "time": 216.19026,
                    "velocity": 0.905511811023622
                },
                {
                    "duration": 0.2321426249999945,
                    "durationTicks": 234,
                    "midi": 40,
                    "name": "E2",
                    "ticks": 218160,
                    "time": 216.428355,
                    "velocity": 0.905511811023622
                },
                {
                    "duration": 0.23214262500002292,
                    "durationTicks": 234,
                    "midi": 28,
                    "name": "E1",
                    "ticks": 218400,
                    "time": 216.66645,
                    "velocity": 0.905511811023622
                },
                {
                    "duration": 0.2321426249999945,
                    "durationTicks": 234,
                    "midi": 40,
                    "name": "E2",
                    "ticks": 218640,
                    "time": 216.904545,
                    "velocity": 0.905511811023622
                },
                {
                    "duration": 0.2321426249999945,
                    "durationTicks": 234,
                    "midi": 35,
                    "name": "B1",
                    "ticks": 218880,
                    "time": 217.14264,
                    "velocity": 0.905511811023622
                },
                {
                    "duration": 0.23214262500002292,
                    "durationTicks": 234,
                    "midi": 47,
                    "name": "B2",
                    "ticks": 219120,
                    "time": 217.380735,
                    "velocity": 0.905511811023622
                },
                {
                    "duration": 0.2321426249999945,
                    "durationTicks": 234,
                    "midi": 35,
                    "name": "B1",
                    "ticks": 219360,
                    "time": 217.61883,
                    "velocity": 0.905511811023622
                },
                {
                    "duration": 0.23214262500002292,
                    "durationTicks": 234,
                    "midi": 47,
                    "name": "B2",
                    "ticks": 219600,
                    "time": 217.856925,
                    "velocity": 0.905511811023622
                },
                {
                    "duration": 0.2321426249999945,
                    "durationTicks": 234,
                    "midi": 35,
                    "name": "B1",
                    "ticks": 219840,
                    "time": 218.09502,
                    "velocity": 0.905511811023622
                },
                {
                    "duration": 0.23214262500002292,
                    "durationTicks": 234,
                    "midi": 47,
                    "name": "B2",
                    "ticks": 220080,
                    "time": 218.333115,
                    "velocity": 0.905511811023622
                },
                {
                    "duration": 0.2321426249999945,
                    "durationTicks": 234,
                    "midi": 35,
                    "name": "B1",
                    "ticks": 220320,
                    "time": 218.57121,
                    "velocity": 0.905511811023622
                },
                {
                    "duration": 0.23214262500002292,
                    "durationTicks": 234,
                    "midi": 47,
                    "name": "B2",
                    "ticks": 220560,
                    "time": 218.809305,
                    "velocity": 0.905511811023622
                },
                {
                    "duration": 0.2321426249999945,
                    "durationTicks": 234,
                    "midi": 30,
                    "name": "F#1",
                    "ticks": 220800,
                    "time": 219.0474,
                    "velocity": 0.905511811023622
                },
                {
                    "duration": 0.23214262500002292,
                    "durationTicks": 234,
                    "midi": 42,
                    "name": "F#2",
                    "ticks": 221040,
                    "time": 219.285495,
                    "velocity": 0.905511811023622
                },
                {
                    "duration": 0.2321426249999945,
                    "durationTicks": 234,
                    "midi": 30,
                    "name": "F#1",
                    "ticks": 221280,
                    "time": 219.52359,
                    "velocity": 0.905511811023622
                },
                {
                    "duration": 0.2321426249999945,
                    "durationTicks": 234,
                    "midi": 42,
                    "name": "F#2",
                    "ticks": 221520,
                    "time": 219.761685,
                    "velocity": 0.905511811023622
                },
                {
                    "duration": 0.23214262500002292,
                    "durationTicks": 234,
                    "midi": 30,
                    "name": "F#1",
                    "ticks": 221760,
                    "time": 219.99978,
                    "velocity": 0.905511811023622
                },
                {
                    "duration": 0.2321426249999945,
                    "durationTicks": 234,
                    "midi": 42,
                    "name": "F#2",
                    "ticks": 222000,
                    "time": 220.237875,
                    "velocity": 0.905511811023622
                },
                {
                    "duration": 0.23214262500002292,
                    "durationTicks": 234,
                    "midi": 30,
                    "name": "F#1",
                    "ticks": 222240,
                    "time": 220.47597,
                    "velocity": 0.905511811023622
                },
                {
                    "duration": 0.2321426249999945,
                    "durationTicks": 234,
                    "midi": 42,
                    "name": "F#2",
                    "ticks": 222480,
                    "time": 220.714065,
                    "velocity": 0.905511811023622
                },
                {
                    "duration": 0.23214262500002292,
                    "durationTicks": 234,
                    "midi": 30,
                    "name": "F#1",
                    "ticks": 222720,
                    "time": 220.95216,
                    "velocity": 0.905511811023622
                },
                {
                    "duration": 0.2321426249999945,
                    "durationTicks": 234,
                    "midi": 42,
                    "name": "F#2",
                    "ticks": 222960,
                    "time": 221.190255,
                    "velocity": 0.905511811023622
                },
                {
                    "duration": 0.23214262500002292,
                    "durationTicks": 234,
                    "midi": 30,
                    "name": "F#1",
                    "ticks": 223200,
                    "time": 221.42835,
                    "velocity": 0.905511811023622
                },
                {
                    "duration": 0.2321426249999945,
                    "durationTicks": 234,
                    "midi": 42,
                    "name": "F#2",
                    "ticks": 223440,
                    "time": 221.666445,
                    "velocity": 0.905511811023622
                },
                {
                    "duration": 0.23214262500002292,
                    "durationTicks": 234,
                    "midi": 30,
                    "name": "F#1",
                    "ticks": 223680,
                    "time": 221.90454,
                    "velocity": 0.905511811023622
                },
                {
                    "duration": 0.2321426249999945,
                    "durationTicks": 234,
                    "midi": 42,
                    "name": "F#2",
                    "ticks": 223920,
                    "time": 222.142635,
                    "velocity": 0.905511811023622
                },
                {
                    "duration": 0.2321426249999945,
                    "durationTicks": 234,
                    "midi": 30,
                    "name": "F#1",
                    "ticks": 224160,
                    "time": 222.38073,
                    "velocity": 0.905511811023622
                },
                {
                    "duration": 0.23214262500002292,
                    "durationTicks": 234,
                    "midi": 42,
                    "name": "F#2",
                    "ticks": 224400,
                    "time": 222.618825,
                    "velocity": 0.905511811023622
                },
                {
                    "duration": 0.2321426249999945,
                    "durationTicks": 234,
                    "midi": 28,
                    "name": "E1",
                    "ticks": 224640,
                    "time": 222.85692,
                    "velocity": 0.905511811023622
                },
                {
                    "duration": 0.23214262500002292,
                    "durationTicks": 234,
                    "midi": 40,
                    "name": "E2",
                    "ticks": 224880,
                    "time": 223.095015,
                    "velocity": 0.905511811023622
                },
                {
                    "duration": 0.2321426249999945,
                    "durationTicks": 234,
                    "midi": 28,
                    "name": "E1",
                    "ticks": 225120,
                    "time": 223.33311,
                    "velocity": 0.905511811023622
                },
                {
                    "duration": 0.23214262500002292,
                    "durationTicks": 234,
                    "midi": 40,
                    "name": "E2",
                    "ticks": 225360,
                    "time": 223.571205,
                    "velocity": 0.905511811023622
                },
                {
                    "duration": 0.2321426249999945,
                    "durationTicks": 234,
                    "midi": 28,
                    "name": "E1",
                    "ticks": 225600,
                    "time": 223.8093,
                    "velocity": 0.905511811023622
                },
                {
                    "duration": 0.23214262500002292,
                    "durationTicks": 234,
                    "midi": 40,
                    "name": "E2",
                    "ticks": 225840,
                    "time": 224.047395,
                    "velocity": 0.905511811023622
                },
                {
                    "duration": 0.2321426249999945,
                    "durationTicks": 234,
                    "midi": 28,
                    "name": "E1",
                    "ticks": 226080,
                    "time": 224.28549,
                    "velocity": 0.905511811023622
                },
                {
                    "duration": 0.23214262500002292,
                    "durationTicks": 234,
                    "midi": 40,
                    "name": "E2",
                    "ticks": 226320,
                    "time": 224.523585,
                    "velocity": 0.905511811023622
                },
                {
                    "duration": 0.2321426249999945,
                    "durationTicks": 234,
                    "midi": 35,
                    "name": "B1",
                    "ticks": 226560,
                    "time": 224.76168,
                    "velocity": 0.905511811023622
                },
                {
                    "duration": 0.2321426249999945,
                    "durationTicks": 234,
                    "midi": 47,
                    "name": "B2",
                    "ticks": 226800,
                    "time": 224.999775,
                    "velocity": 0.905511811023622
                },
                {
                    "duration": 0.2321426249999945,
                    "durationTicks": 234,
                    "midi": 35,
                    "name": "B1",
                    "ticks": 227040,
                    "time": 225.23787000000002,
                    "velocity": 0.905511811023622
                },
                {
                    "duration": 0.2321426249999945,
                    "durationTicks": 234,
                    "midi": 47,
                    "name": "B2",
                    "ticks": 227280,
                    "time": 225.475965,
                    "velocity": 0.905511811023622
                },
                {
                    "duration": 0.23214262500002292,
                    "durationTicks": 234,
                    "midi": 35,
                    "name": "B1",
                    "ticks": 227520,
                    "time": 225.71406,
                    "velocity": 0.905511811023622
                },
                {
                    "duration": 0.2321426249999945,
                    "durationTicks": 234,
                    "midi": 47,
                    "name": "B2",
                    "ticks": 227760,
                    "time": 225.952155,
                    "velocity": 0.905511811023622
                },
                {
                    "duration": 0.23214262500002292,
                    "durationTicks": 234,
                    "midi": 35,
                    "name": "B1",
                    "ticks": 228000,
                    "time": 226.19025,
                    "velocity": 0.905511811023622
                },
                {
                    "duration": 0.2321426249999945,
                    "durationTicks": 234,
                    "midi": 47,
                    "name": "B2",
                    "ticks": 228240,
                    "time": 226.428345,
                    "velocity": 0.905511811023622
                },
                {
                    "duration": 0.23214262500002292,
                    "durationTicks": 234,
                    "midi": 30,
                    "name": "F#1",
                    "ticks": 228480,
                    "time": 226.66644,
                    "velocity": 0.905511811023622
                },
                {
                    "duration": 0.2321426249999945,
                    "durationTicks": 234,
                    "midi": 42,
                    "name": "F#2",
                    "ticks": 228720,
                    "time": 226.904535,
                    "velocity": 0.905511811023622
                },
                {
                    "duration": 0.23214262500002292,
                    "durationTicks": 234,
                    "midi": 30,
                    "name": "F#1",
                    "ticks": 228960,
                    "time": 227.14263,
                    "velocity": 0.905511811023622
                },
                {
                    "duration": 0.2321426249999945,
                    "durationTicks": 234,
                    "midi": 42,
                    "name": "F#2",
                    "ticks": 229200,
                    "time": 227.380725,
                    "velocity": 0.905511811023622
                },
                {
                    "duration": 0.2321426249999945,
                    "durationTicks": 234,
                    "midi": 30,
                    "name": "F#1",
                    "ticks": 229440,
                    "time": 227.61882,
                    "velocity": 0.905511811023622
                },
                {
                    "duration": 0.2321426249999945,
                    "durationTicks": 234,
                    "midi": 42,
                    "name": "F#2",
                    "ticks": 229680,
                    "time": 227.85691500000001,
                    "velocity": 0.905511811023622
                },
                {
                    "duration": 0.2321426249999945,
                    "durationTicks": 234,
                    "midi": 30,
                    "name": "F#1",
                    "ticks": 229920,
                    "time": 228.09501,
                    "velocity": 0.905511811023622
                },
                {
                    "duration": 0.23214262500002292,
                    "durationTicks": 234,
                    "midi": 42,
                    "name": "F#2",
                    "ticks": 230160,
                    "time": 228.333105,
                    "velocity": 0.905511811023622
                }
            ]
        },
        {
            "channel": 0,
            "controlChanges": {
                "0": [
                    {
                        "number": 0,
                        "ticks": 0,
                        "time": 0,
                        "value": 0
                    }
                ]
            },
            "pitchBends": [],
            "instrument": {
                "family": "piano",
                "name": "acoustic grand piano",
                "number": 0
            },
            "name": "Choir Aahs",
            "notes": []
        },
        {
            "channel": 4,
            "controlChanges": {
                "1": [
                    {
                        "number": 1,
                        "ticks": 812,
                        "time": 0.80555475,
                        "value": 0
                    }
                ],
                "7": [
                    {
                        "number": 7,
                        "ticks": 490,
                        "time": 0.48611062499999996,
                        "value": 0.6850393700787402
                    },
                    {
                        "number": 7,
                        "ticks": 44640,
                        "time": 44.28567,
                        "value": 0.5984251968503937
                    },
                    {
                        "number": 7,
                        "ticks": 45384,
                        "time": 45.0237645,
                        "value": 0.5118110236220472
                    },
                    {
                        "number": 7,
                        "ticks": 47235,
                        "time": 46.8600721875,
                        "value": 0.5039370078740157
                    },
                    {
                        "number": 7,
                        "ticks": 48315,
                        "time": 47.9314996875,
                        "value": 0.49606299212598426
                    },
                    {
                        "number": 7,
                        "ticks": 49425,
                        "time": 49.0326890625,
                        "value": 0.4881889763779528
                    },
                    {
                        "number": 7,
                        "ticks": 49920,
                        "time": 49.52376,
                        "value": 0.47244094488188976
                    },
                    {
                        "number": 7,
                        "ticks": 50235,
                        "time": 49.836259687500004,
                        "value": 0.49606299212598426
                    },
                    {
                        "number": 7,
                        "ticks": 51345,
                        "time": 50.9374490625,
                        "value": 0.4881889763779528
                    },
                    {
                        "number": 7,
                        "ticks": 52155,
                        "time": 51.7410196875,
                        "value": 0.49606299212598426
                    },
                    {
                        "number": 7,
                        "ticks": 53265,
                        "time": 52.8422090625,
                        "value": 0.4881889763779528
                    },
                    {
                        "number": 7,
                        "ticks": 53760,
                        "time": 53.33328,
                        "value": 0.47244094488188976
                    },
                    {
                        "number": 7,
                        "ticks": 54915,
                        "time": 54.4791121875,
                        "value": 0.5039370078740157
                    },
                    {
                        "number": 7,
                        "ticks": 55995,
                        "time": 55.5505396875,
                        "value": 0.49606299212598426
                    },
                    {
                        "number": 7,
                        "ticks": 57105,
                        "time": 56.6517290625,
                        "value": 0.4881889763779528
                    },
                    {
                        "number": 7,
                        "ticks": 57600,
                        "time": 57.1428,
                        "value": 0.47244094488188976
                    },
                    {
                        "number": 7,
                        "ticks": 57915,
                        "time": 57.4552996875,
                        "value": 0.49606299212598426
                    },
                    {
                        "number": 7,
                        "ticks": 59025,
                        "time": 58.5564890625,
                        "value": 0.4881889763779528
                    },
                    {
                        "number": 7,
                        "ticks": 116355,
                        "time": 115.43143218750001,
                        "value": 0.5039370078740157
                    },
                    {
                        "number": 7,
                        "ticks": 117435,
                        "time": 116.5028596875,
                        "value": 0.49606299212598426
                    },
                    {
                        "number": 7,
                        "ticks": 118545,
                        "time": 117.6040490625,
                        "value": 0.4881889763779528
                    },
                    {
                        "number": 7,
                        "ticks": 119040,
                        "time": 118.09512,
                        "value": 0.47244094488188976
                    },
                    {
                        "number": 7,
                        "ticks": 119355,
                        "time": 118.4076196875,
                        "value": 0.49606299212598426
                    },
                    {
                        "number": 7,
                        "ticks": 120465,
                        "time": 119.5088090625,
                        "value": 0.4881889763779528
                    },
                    {
                        "number": 7,
                        "ticks": 121275,
                        "time": 120.3123796875,
                        "value": 0.49606299212598426
                    },
                    {
                        "number": 7,
                        "ticks": 122385,
                        "time": 121.4135690625,
                        "value": 0.4881889763779528
                    },
                    {
                        "number": 7,
                        "ticks": 122880,
                        "time": 121.90464,
                        "value": 0.47244094488188976
                    },
                    {
                        "number": 7,
                        "ticks": 124035,
                        "time": 123.0504721875,
                        "value": 0.5039370078740157
                    },
                    {
                        "number": 7,
                        "ticks": 125115,
                        "time": 124.1218996875,
                        "value": 0.49606299212598426
                    },
                    {
                        "number": 7,
                        "ticks": 126225,
                        "time": 125.2230890625,
                        "value": 0.4881889763779528
                    },
                    {
                        "number": 7,
                        "ticks": 126720,
                        "time": 125.71416,
                        "value": 0.47244094488188976
                    },
                    {
                        "number": 7,
                        "ticks": 127035,
                        "time": 126.0266596875,
                        "value": 0.49606299212598426
                    },
                    {
                        "number": 7,
                        "ticks": 128145,
                        "time": 127.1278490625,
                        "value": 0.4881889763779528
                    }
                ],
                "10": [
                    {
                        "number": 10,
                        "ticks": 540,
                        "time": 0.53571375,
                        "value": 0.3779527559055118
                    }
                ],
                "11": [
                    {
                        "number": 11,
                        "ticks": 762,
                        "time": 0.755951625,
                        "value": 1
                    }
                ],
                "64": [
                    {
                        "number": 64,
                        "ticks": 712,
                        "time": 0.7063485,
                        "value": 0
                    }
                ],
                "91": [
                    {
                        "number": 91,
                        "ticks": 615,
                        "time": 0.6101184375,
                        "value": 0.7559055118110236
                    }
                ],
                "93": [
                    {
                        "number": 93,
                        "ticks": 658,
                        "time": 0.652777125,
                        "value": 0.2047244094488189
                    }
                ],
                "120": [
                    {
                        "number": 120,
                        "ticks": 49920,
                        "time": 49.52376,
                        "value": 0
                    },
                    {
                        "number": 120,
                        "ticks": 53760,
                        "time": 53.33328,
                        "value": 0
                    },
                    {
                        "number": 120,
                        "ticks": 57600,
                        "time": 57.1428,
                        "value": 0
                    },
                    {
                        "number": 120,
                        "ticks": 119040,
                        "time": 118.09512,
                        "value": 0
                    },
                    {
                        "number": 120,
                        "ticks": 122880,
                        "time": 121.90464,
                        "value": 0
                    },
                    {
                        "number": 120,
                        "ticks": 126720,
                        "time": 125.71416,
                        "value": 0
                    }
                ],
                "121": [
                    {
                        "number": 121,
                        "ticks": 320,
                        "time": 0.31745999999999996,
                        "value": 0
                    }
                ],
                "123": [
                    {
                        "number": 123,
                        "ticks": 49920,
                        "time": 49.52376,
                        "value": 0
                    },
                    {
                        "number": 123,
                        "ticks": 53760,
                        "time": 53.33328,
                        "value": 0
                    },
                    {
                        "number": 123,
                        "ticks": 57600,
                        "time": 57.1428,
                        "value": 0
                    },
                    {
                        "number": 123,
                        "ticks": 119040,
                        "time": 118.09512,
                        "value": 0
                    },
                    {
                        "number": 123,
                        "ticks": 122880,
                        "time": 121.90464,
                        "value": 0
                    },
                    {
                        "number": 123,
                        "ticks": 126720,
                        "time": 125.71416,
                        "value": 0
                    }
                ]
            },
            "pitchBends": [
                {
                    "ticks": 862,
                    "time": 0.8551578750000001,
                    "value": 0
                }
            ],
            "instrument": {
                "family": "ensemble",
                "name": "choir aahs",
                "number": 52
            },
            "name": "",
            "notes": [
                {
                    "duration": 0.03769837499999973,
                    "durationTicks": 38,
                    "midi": 58,
                    "name": "A#3",
                    "ticks": 9120,
                    "time": 9.04761,
                    "velocity": 0.9133858267716536
                },
                {
                    "duration": 0.04166662499999951,
                    "durationTicks": 42,
                    "midi": 58,
                    "name": "A#3",
                    "ticks": 9240,
                    "time": 9.1666575,
                    "velocity": 0.9133858267716536
                },
                {
                    "duration": 0.05158725000000075,
                    "durationTicks": 52,
                    "midi": 58,
                    "name": "A#3",
                    "ticks": 9360,
                    "time": 9.285705,
                    "velocity": 0.9133858267716536
                },
                {
                    "duration": 0.027777750000000268,
                    "durationTicks": 28,
                    "midi": 58,
                    "name": "A#3",
                    "ticks": 9480,
                    "time": 9.4047525,
                    "velocity": 0.9133858267716536
                },
                {
                    "duration": 0.03769837499999973,
                    "durationTicks": 38,
                    "midi": 58,
                    "name": "A#3",
                    "ticks": 12960,
                    "time": 12.85713,
                    "velocity": 0.9133858267716536
                },
                {
                    "duration": 0.04166662499999951,
                    "durationTicks": 42,
                    "midi": 58,
                    "name": "A#3",
                    "ticks": 13080,
                    "time": 12.9761775,
                    "velocity": 0.9133858267716536
                },
                {
                    "duration": 0.05158725000000075,
                    "durationTicks": 52,
                    "midi": 58,
                    "name": "A#3",
                    "ticks": 13200,
                    "time": 13.095225,
                    "velocity": 0.9133858267716536
                },
                {
                    "duration": 0.027777750000000268,
                    "durationTicks": 28,
                    "midi": 58,
                    "name": "A#3",
                    "ticks": 13320,
                    "time": 13.2142725,
                    "velocity": 0.9133858267716536
                },
                {
                    "duration": 0.05853168750000037,
                    "durationTicks": 59,
                    "midi": 59,
                    "name": "B3",
                    "ticks": 46320,
                    "time": 45.952335,
                    "velocity": 0.8188976377952756
                },
                {
                    "duration": 0.16865062500000505,
                    "durationTicks": 170,
                    "midi": 66,
                    "name": "F#4",
                    "ticks": 46560,
                    "time": 46.19043,
                    "velocity": 0.889763779527559
                },
                {
                    "duration": 0.16865062500000505,
                    "durationTicks": 170,
                    "midi": 70,
                    "name": "A#4",
                    "ticks": 46560,
                    "time": 46.19043,
                    "velocity": 0.889763779527559
                },
                {
                    "duration": 0.0773808749999958,
                    "durationTicks": 78,
                    "midi": 66,
                    "name": "F#4",
                    "ticks": 46800,
                    "time": 46.428525,
                    "velocity": 0.8110236220472441
                },
                {
                    "duration": 0.0773808749999958,
                    "durationTicks": 78,
                    "midi": 70,
                    "name": "A#4",
                    "ticks": 46800,
                    "time": 46.428525,
                    "velocity": 0.8110236220472441
                },
                {
                    "duration": 0.1815474374999937,
                    "durationTicks": 183,
                    "midi": 66,
                    "name": "F#4",
                    "ticks": 47040,
                    "time": 46.66662,
                    "velocity": 0.8503937007874016
                },
                {
                    "duration": 0.1815474374999937,
                    "durationTicks": 183,
                    "midi": 70,
                    "name": "A#4",
                    "ticks": 47040,
                    "time": 46.66662,
                    "velocity": 0.8503937007874016
                },
                {
                    "duration": 0.09424593749999843,
                    "durationTicks": 95,
                    "midi": 66,
                    "name": "F#4",
                    "ticks": 47280,
                    "time": 46.904715,
                    "velocity": 0.5748031496062992
                },
                {
                    "duration": 0.09424593749999843,
                    "durationTicks": 95,
                    "midi": 70,
                    "name": "A#4",
                    "ticks": 47280,
                    "time": 46.904715,
                    "velocity": 0.5748031496062992
                },
                {
                    "duration": 0.11210306250000457,
                    "durationTicks": 113,
                    "midi": 66,
                    "name": "F#4",
                    "ticks": 47520,
                    "time": 47.14281,
                    "velocity": 0.8110236220472441
                },
                {
                    "duration": 0.11210306250000457,
                    "durationTicks": 113,
                    "midi": 70,
                    "name": "A#4",
                    "ticks": 47520,
                    "time": 47.14281,
                    "velocity": 0.8110236220472441
                },
                {
                    "duration": 0.09126975000000215,
                    "durationTicks": 92,
                    "midi": 66,
                    "name": "F#4",
                    "ticks": 47760,
                    "time": 47.380905,
                    "velocity": 0.5039370078740157
                },
                {
                    "duration": 0.09126975000000215,
                    "durationTicks": 92,
                    "midi": 70,
                    "name": "A#4",
                    "ticks": 47760,
                    "time": 47.380905,
                    "velocity": 0.5039370078740157
                },
                {
                    "duration": 0.3075393749999975,
                    "durationTicks": 310,
                    "midi": 68,
                    "name": "G#4",
                    "ticks": 48000,
                    "time": 47.619,
                    "velocity": 0.889763779527559
                },
                {
                    "duration": 0.3075393749999975,
                    "durationTicks": 310,
                    "midi": 71,
                    "name": "B4",
                    "ticks": 48000,
                    "time": 47.619,
                    "velocity": 0.889763779527559
                },
                {
                    "duration": 0.1041665624999979,
                    "durationTicks": 105,
                    "midi": 68,
                    "name": "G#4",
                    "ticks": 48480,
                    "time": 48.09519,
                    "velocity": 0.7165354330708661
                },
                {
                    "duration": 0.1041665624999979,
                    "durationTicks": 105,
                    "midi": 71,
                    "name": "B4",
                    "ticks": 48480,
                    "time": 48.09519,
                    "velocity": 0.7165354330708661
                },
                {
                    "duration": 0.19444424999999654,
                    "durationTicks": 196,
                    "midi": 64,
                    "name": "E4",
                    "ticks": 48720,
                    "time": 48.333285000000004,
                    "velocity": 0.8188976377952756
                },
                {
                    "duration": 0.19444424999999654,
                    "durationTicks": 196,
                    "midi": 68,
                    "name": "G#4",
                    "ticks": 48720,
                    "time": 48.333285000000004,
                    "velocity": 0.8188976377952756
                },
                {
                    "duration": 0.3075393749999975,
                    "durationTicks": 310,
                    "midi": 63,
                    "name": "D#4",
                    "ticks": 49920,
                    "time": 49.52376,
                    "velocity": 0.889763779527559
                },
                {
                    "duration": 0.3075393749999975,
                    "durationTicks": 310,
                    "midi": 66,
                    "name": "F#4",
                    "ticks": 49920,
                    "time": 49.52376,
                    "velocity": 0.889763779527559
                },
                {
                    "duration": 0.104166562500005,
                    "durationTicks": 105,
                    "midi": 63,
                    "name": "D#4",
                    "ticks": 50400,
                    "time": 49.99995,
                    "velocity": 0.7165354330708661
                },
                {
                    "duration": 0.104166562500005,
                    "durationTicks": 105,
                    "midi": 66,
                    "name": "F#4",
                    "ticks": 50400,
                    "time": 49.99995,
                    "velocity": 0.7165354330708661
                },
                {
                    "duration": 0.19444424999999654,
                    "durationTicks": 196,
                    "midi": 59,
                    "name": "B3",
                    "ticks": 50640,
                    "time": 50.238045,
                    "velocity": 0.8188976377952756
                },
                {
                    "duration": 0.19444424999999654,
                    "durationTicks": 196,
                    "midi": 63,
                    "name": "D#4",
                    "ticks": 50640,
                    "time": 50.238045,
                    "velocity": 0.8188976377952756
                },
                {
                    "duration": 0.3075393749999975,
                    "durationTicks": 310,
                    "midi": 70,
                    "name": "A#4",
                    "ticks": 51840,
                    "time": 51.42852,
                    "velocity": 0.889763779527559
                },
                {
                    "duration": 0.3075393749999975,
                    "durationTicks": 310,
                    "midi": 73,
                    "name": "C#5",
                    "ticks": 51840,
                    "time": 51.42852,
                    "velocity": 0.889763779527559
                },
                {
                    "duration": 0.1041665624999979,
                    "durationTicks": 105,
                    "midi": 70,
                    "name": "A#4",
                    "ticks": 52320,
                    "time": 51.90471,
                    "velocity": 0.7165354330708661
                },
                {
                    "duration": 0.1041665624999979,
                    "durationTicks": 105,
                    "midi": 73,
                    "name": "C#5",
                    "ticks": 52320,
                    "time": 51.90471,
                    "velocity": 0.7165354330708661
                },
                {
                    "duration": 0.19444424999999654,
                    "durationTicks": 196,
                    "midi": 66,
                    "name": "F#4",
                    "ticks": 52560,
                    "time": 52.142805,
                    "velocity": 0.8188976377952756
                },
                {
                    "duration": 0.19444424999999654,
                    "durationTicks": 196,
                    "midi": 70,
                    "name": "A#4",
                    "ticks": 52560,
                    "time": 52.142805,
                    "velocity": 0.8188976377952756
                },
                {
                    "duration": 0.05853168750000037,
                    "durationTicks": 59,
                    "midi": 59,
                    "name": "B3",
                    "ticks": 54000,
                    "time": 53.571375,
                    "velocity": 0.8188976377952756
                },
                {
                    "duration": 0.16865062500000505,
                    "durationTicks": 170,
                    "midi": 66,
                    "name": "F#4",
                    "ticks": 54240,
                    "time": 53.80947,
                    "velocity": 0.889763779527559
                },
                {
                    "duration": 0.16865062500000505,
                    "durationTicks": 170,
                    "midi": 70,
                    "name": "A#4",
                    "ticks": 54240,
                    "time": 53.80947,
                    "velocity": 0.889763779527559
                },
                {
                    "duration": 0.0773808749999958,
                    "durationTicks": 78,
                    "midi": 66,
                    "name": "F#4",
                    "ticks": 54480,
                    "time": 54.047565,
                    "velocity": 0.8110236220472441
                },
                {
                    "duration": 0.0773808749999958,
                    "durationTicks": 78,
                    "midi": 70,
                    "name": "A#4",
                    "ticks": 54480,
                    "time": 54.047565,
                    "velocity": 0.8110236220472441
                },
                {
                    "duration": 0.1815474375000008,
                    "durationTicks": 183,
                    "midi": 66,
                    "name": "F#4",
                    "ticks": 54720,
                    "time": 54.28566,
                    "velocity": 0.8503937007874016
                },
                {
                    "duration": 0.1815474375000008,
                    "durationTicks": 183,
                    "midi": 70,
                    "name": "A#4",
                    "ticks": 54720,
                    "time": 54.28566,
                    "velocity": 0.8503937007874016
                },
                {
                    "duration": 0.09424593749999843,
                    "durationTicks": 95,
                    "midi": 66,
                    "name": "F#4",
                    "ticks": 54960,
                    "time": 54.523755,
                    "velocity": 0.5748031496062992
                },
                {
                    "duration": 0.09424593749999843,
                    "durationTicks": 95,
                    "midi": 70,
                    "name": "A#4",
                    "ticks": 54960,
                    "time": 54.523755,
                    "velocity": 0.5748031496062992
                },
                {
                    "duration": 0.11210306249999746,
                    "durationTicks": 113,
                    "midi": 66,
                    "name": "F#4",
                    "ticks": 55200,
                    "time": 54.76185,
                    "velocity": 0.8110236220472441
                },
                {
                    "duration": 0.11210306249999746,
                    "durationTicks": 113,
                    "midi": 70,
                    "name": "A#4",
                    "ticks": 55200,
                    "time": 54.76185,
                    "velocity": 0.8110236220472441
                },
                {
                    "duration": 0.09126975000000215,
                    "durationTicks": 92,
                    "midi": 66,
                    "name": "F#4",
                    "ticks": 55440,
                    "time": 54.999945,
                    "velocity": 0.5039370078740157
                },
                {
                    "duration": 0.09126975000000215,
                    "durationTicks": 92,
                    "midi": 70,
                    "name": "A#4",
                    "ticks": 55440,
                    "time": 54.999945,
                    "velocity": 0.5039370078740157
                },
                {
                    "duration": 0.3075393749999975,
                    "durationTicks": 310,
                    "midi": 68,
                    "name": "G#4",
                    "ticks": 55680,
                    "time": 55.23804,
                    "velocity": 0.889763779527559
                },
                {
                    "duration": 0.3075393749999975,
                    "durationTicks": 310,
                    "midi": 71,
                    "name": "B4",
                    "ticks": 55680,
                    "time": 55.23804,
                    "velocity": 0.889763779527559
                },
                {
                    "duration": 0.1041665624999979,
                    "durationTicks": 105,
                    "midi": 68,
                    "name": "G#4",
                    "ticks": 56160,
                    "time": 55.71423,
                    "velocity": 0.7165354330708661
                },
                {
                    "duration": 0.1041665624999979,
                    "durationTicks": 105,
                    "midi": 71,
                    "name": "B4",
                    "ticks": 56160,
                    "time": 55.71423,
                    "velocity": 0.7165354330708661
                },
                {
                    "duration": 0.19444424999999654,
                    "durationTicks": 196,
                    "midi": 64,
                    "name": "E4",
                    "ticks": 56400,
                    "time": 55.952325,
                    "velocity": 0.8188976377952756
                },
                {
                    "duration": 0.19444424999999654,
                    "durationTicks": 196,
                    "midi": 68,
                    "name": "G#4",
                    "ticks": 56400,
                    "time": 55.952325,
                    "velocity": 0.8188976377952756
                },
                {
                    "duration": 0.3075393749999975,
                    "durationTicks": 310,
                    "midi": 63,
                    "name": "D#4",
                    "ticks": 57600,
                    "time": 57.1428,
                    "velocity": 0.889763779527559
                },
                {
                    "duration": 0.3075393749999975,
                    "durationTicks": 310,
                    "midi": 66,
                    "name": "F#4",
                    "ticks": 57600,
                    "time": 57.1428,
                    "velocity": 0.889763779527559
                },
                {
                    "duration": 0.1041665624999979,
                    "durationTicks": 105,
                    "midi": 63,
                    "name": "D#4",
                    "ticks": 58080,
                    "time": 57.618990000000004,
                    "velocity": 0.7165354330708661
                },
                {
                    "duration": 0.1041665624999979,
                    "durationTicks": 105,
                    "midi": 66,
                    "name": "F#4",
                    "ticks": 58080,
                    "time": 57.618990000000004,
                    "velocity": 0.7165354330708661
                },
                {
                    "duration": 0.19444425000000365,
                    "durationTicks": 196,
                    "midi": 59,
                    "name": "B3",
                    "ticks": 58320,
                    "time": 57.857085,
                    "velocity": 0.8188976377952756
                },
                {
                    "duration": 0.19444425000000365,
                    "durationTicks": 196,
                    "midi": 63,
                    "name": "D#4",
                    "ticks": 58320,
                    "time": 57.857085,
                    "velocity": 0.8188976377952756
                },
                {
                    "duration": 0.05853168749999327,
                    "durationTicks": 59,
                    "midi": 59,
                    "name": "B3",
                    "ticks": 115440,
                    "time": 114.523695,
                    "velocity": 0.8188976377952756
                },
                {
                    "duration": 0.16865062499999794,
                    "durationTicks": 170,
                    "midi": 66,
                    "name": "F#4",
                    "ticks": 115680,
                    "time": 114.76179,
                    "velocity": 0.889763779527559
                },
                {
                    "duration": 0.16865062499999794,
                    "durationTicks": 170,
                    "midi": 70,
                    "name": "A#4",
                    "ticks": 115680,
                    "time": 114.76179,
                    "velocity": 0.889763779527559
                },
                {
                    "duration": 0.07738087499998869,
                    "durationTicks": 78,
                    "midi": 66,
                    "name": "F#4",
                    "ticks": 115920,
                    "time": 114.999885,
                    "velocity": 0.8110236220472441
                },
                {
                    "duration": 0.07738087499998869,
                    "durationTicks": 78,
                    "midi": 70,
                    "name": "A#4",
                    "ticks": 115920,
                    "time": 114.999885,
                    "velocity": 0.8110236220472441
                },
                {
                    "duration": 0.18154743749998659,
                    "durationTicks": 183,
                    "midi": 66,
                    "name": "F#4",
                    "ticks": 116160,
                    "time": 115.23798000000001,
                    "velocity": 0.8503937007874016
                },
                {
                    "duration": 0.18154743749998659,
                    "durationTicks": 183,
                    "midi": 70,
                    "name": "A#4",
                    "ticks": 116160,
                    "time": 115.23798000000001,
                    "velocity": 0.8503937007874016
                },
                {
                    "duration": 0.09424593750000554,
                    "durationTicks": 95,
                    "midi": 66,
                    "name": "F#4",
                    "ticks": 116400,
                    "time": 115.476075,
                    "velocity": 0.5748031496062992
                },
                {
                    "duration": 0.09424593750000554,
                    "durationTicks": 95,
                    "midi": 70,
                    "name": "A#4",
                    "ticks": 116400,
                    "time": 115.476075,
                    "velocity": 0.5748031496062992
                },
                {
                    "duration": 0.11210306250001167,
                    "durationTicks": 113,
                    "midi": 66,
                    "name": "F#4",
                    "ticks": 116640,
                    "time": 115.71417,
                    "velocity": 0.8110236220472441
                },
                {
                    "duration": 0.11210306250001167,
                    "durationTicks": 113,
                    "midi": 70,
                    "name": "A#4",
                    "ticks": 116640,
                    "time": 115.71417,
                    "velocity": 0.8110236220472441
                },
                {
                    "duration": 0.09126974999999504,
                    "durationTicks": 92,
                    "midi": 66,
                    "name": "F#4",
                    "ticks": 116880,
                    "time": 115.952265,
                    "velocity": 0.5039370078740157
                },
                {
                    "duration": 0.09126974999999504,
                    "durationTicks": 92,
                    "midi": 70,
                    "name": "A#4",
                    "ticks": 116880,
                    "time": 115.952265,
                    "velocity": 0.5039370078740157
                },
                {
                    "duration": 0.3075393750000046,
                    "durationTicks": 310,
                    "midi": 68,
                    "name": "G#4",
                    "ticks": 117120,
                    "time": 116.19036,
                    "velocity": 0.889763779527559
                },
                {
                    "duration": 0.3075393750000046,
                    "durationTicks": 310,
                    "midi": 71,
                    "name": "B4",
                    "ticks": 117120,
                    "time": 116.19036,
                    "velocity": 0.889763779527559
                },
                {
                    "duration": 0.1041665624999979,
                    "durationTicks": 105,
                    "midi": 68,
                    "name": "G#4",
                    "ticks": 117600,
                    "time": 116.66655,
                    "velocity": 0.7165354330708661
                },
                {
                    "duration": 0.1041665624999979,
                    "durationTicks": 105,
                    "midi": 71,
                    "name": "B4",
                    "ticks": 117600,
                    "time": 116.66655,
                    "velocity": 0.7165354330708661
                },
                {
                    "duration": 0.19444425000000365,
                    "durationTicks": 196,
                    "midi": 64,
                    "name": "E4",
                    "ticks": 117840,
                    "time": 116.904645,
                    "velocity": 0.8188976377952756
                },
                {
                    "duration": 0.19444425000000365,
                    "durationTicks": 196,
                    "midi": 68,
                    "name": "G#4",
                    "ticks": 117840,
                    "time": 116.904645,
                    "velocity": 0.8188976377952756
                },
                {
                    "duration": 0.3075393750000046,
                    "durationTicks": 310,
                    "midi": 63,
                    "name": "D#4",
                    "ticks": 119040,
                    "time": 118.09512,
                    "velocity": 0.889763779527559
                },
                {
                    "duration": 0.3075393750000046,
                    "durationTicks": 310,
                    "midi": 66,
                    "name": "F#4",
                    "ticks": 119040,
                    "time": 118.09512,
                    "velocity": 0.889763779527559
                },
                {
                    "duration": 0.1041665624999979,
                    "durationTicks": 105,
                    "midi": 63,
                    "name": "D#4",
                    "ticks": 119520,
                    "time": 118.57131,
                    "velocity": 0.7165354330708661
                },
                {
                    "duration": 0.1041665624999979,
                    "durationTicks": 105,
                    "midi": 66,
                    "name": "F#4",
                    "ticks": 119520,
                    "time": 118.57131,
                    "velocity": 0.7165354330708661
                },
                {
                    "duration": 0.19444425000000365,
                    "durationTicks": 196,
                    "midi": 59,
                    "name": "B3",
                    "ticks": 119760,
                    "time": 118.809405,
                    "velocity": 0.8188976377952756
                },
                {
                    "duration": 0.19444425000000365,
                    "durationTicks": 196,
                    "midi": 63,
                    "name": "D#4",
                    "ticks": 119760,
                    "time": 118.809405,
                    "velocity": 0.8188976377952756
                },
                {
                    "duration": 0.3075393750000046,
                    "durationTicks": 310,
                    "midi": 70,
                    "name": "A#4",
                    "ticks": 120960,
                    "time": 119.99988,
                    "velocity": 0.889763779527559
                },
                {
                    "duration": 0.3075393750000046,
                    "durationTicks": 310,
                    "midi": 73,
                    "name": "C#5",
                    "ticks": 120960,
                    "time": 119.99988,
                    "velocity": 0.889763779527559
                },
                {
                    "duration": 0.1041665624999979,
                    "durationTicks": 105,
                    "midi": 70,
                    "name": "A#4",
                    "ticks": 121440,
                    "time": 120.47607,
                    "velocity": 0.7165354330708661
                },
                {
                    "duration": 0.1041665624999979,
                    "durationTicks": 105,
                    "midi": 73,
                    "name": "C#5",
                    "ticks": 121440,
                    "time": 120.47607,
                    "velocity": 0.7165354330708661
                },
                {
                    "duration": 0.19444425000000365,
                    "durationTicks": 196,
                    "midi": 66,
                    "name": "F#4",
                    "ticks": 121680,
                    "time": 120.714165,
                    "velocity": 0.8188976377952756
                },
                {
                    "duration": 0.19444425000000365,
                    "durationTicks": 196,
                    "midi": 70,
                    "name": "A#4",
                    "ticks": 121680,
                    "time": 120.714165,
                    "velocity": 0.8188976377952756
                },
                {
                    "duration": 0.05853168749997906,
                    "durationTicks": 59,
                    "midi": 59,
                    "name": "B3",
                    "ticks": 123120,
                    "time": 122.142735,
                    "velocity": 0.8188976377952756
                },
                {
                    "duration": 0.16865062500001216,
                    "durationTicks": 170,
                    "midi": 66,
                    "name": "F#4",
                    "ticks": 123360,
                    "time": 122.38083,
                    "velocity": 0.889763779527559
                },
                {
                    "duration": 0.16865062500001216,
                    "durationTicks": 170,
                    "midi": 70,
                    "name": "A#4",
                    "ticks": 123360,
                    "time": 122.38083,
                    "velocity": 0.889763779527559
                },
                {
                    "duration": 0.0773808750000029,
                    "durationTicks": 78,
                    "midi": 66,
                    "name": "F#4",
                    "ticks": 123600,
                    "time": 122.618925,
                    "velocity": 0.8110236220472441
                },
                {
                    "duration": 0.0773808750000029,
                    "durationTicks": 78,
                    "midi": 70,
                    "name": "A#4",
                    "ticks": 123600,
                    "time": 122.618925,
                    "velocity": 0.8110236220472441
                },
                {
                    "duration": 0.1815474375000008,
                    "durationTicks": 183,
                    "midi": 66,
                    "name": "F#4",
                    "ticks": 123840,
                    "time": 122.85702,
                    "velocity": 0.8503937007874016
                },
                {
                    "duration": 0.1815474375000008,
                    "durationTicks": 183,
                    "midi": 70,
                    "name": "A#4",
                    "ticks": 123840,
                    "time": 122.85702,
                    "velocity": 0.8503937007874016
                },
                {
                    "duration": 0.09424593750000554,
                    "durationTicks": 95,
                    "midi": 66,
                    "name": "F#4",
                    "ticks": 124080,
                    "time": 123.095115,
                    "velocity": 0.5748031496062992
                },
                {
                    "duration": 0.09424593750000554,
                    "durationTicks": 95,
                    "midi": 70,
                    "name": "A#4",
                    "ticks": 124080,
                    "time": 123.095115,
                    "velocity": 0.5748031496062992
                },
                {
                    "duration": 0.11210306249999746,
                    "durationTicks": 113,
                    "midi": 66,
                    "name": "F#4",
                    "ticks": 124320,
                    "time": 123.33321,
                    "velocity": 0.8110236220472441
                },
                {
                    "duration": 0.11210306249999746,
                    "durationTicks": 113,
                    "midi": 70,
                    "name": "A#4",
                    "ticks": 124320,
                    "time": 123.33321,
                    "velocity": 0.8110236220472441
                },
                {
                    "duration": 0.09126975000000925,
                    "durationTicks": 92,
                    "midi": 66,
                    "name": "F#4",
                    "ticks": 124560,
                    "time": 123.571305,
                    "velocity": 0.5039370078740157
                },
                {
                    "duration": 0.09126975000000925,
                    "durationTicks": 92,
                    "midi": 70,
                    "name": "A#4",
                    "ticks": 124560,
                    "time": 123.571305,
                    "velocity": 0.5039370078740157
                },
                {
                    "duration": 0.3075393749999904,
                    "durationTicks": 310,
                    "midi": 68,
                    "name": "G#4",
                    "ticks": 124800,
                    "time": 123.8094,
                    "velocity": 0.889763779527559
                },
                {
                    "duration": 0.3075393749999904,
                    "durationTicks": 310,
                    "midi": 71,
                    "name": "B4",
                    "ticks": 124800,
                    "time": 123.8094,
                    "velocity": 0.889763779527559
                },
                {
                    "duration": 0.1041665624999979,
                    "durationTicks": 105,
                    "midi": 68,
                    "name": "G#4",
                    "ticks": 125280,
                    "time": 124.28559,
                    "velocity": 0.7165354330708661
                },
                {
                    "duration": 0.1041665624999979,
                    "durationTicks": 105,
                    "midi": 71,
                    "name": "B4",
                    "ticks": 125280,
                    "time": 124.28559,
                    "velocity": 0.7165354330708661
                },
                {
                    "duration": 0.19444425000001786,
                    "durationTicks": 196,
                    "midi": 64,
                    "name": "E4",
                    "ticks": 125520,
                    "time": 124.523685,
                    "velocity": 0.8188976377952756
                },
                {
                    "duration": 0.19444425000001786,
                    "durationTicks": 196,
                    "midi": 68,
                    "name": "G#4",
                    "ticks": 125520,
                    "time": 124.523685,
                    "velocity": 0.8188976377952756
                },
                {
                    "duration": 0.3075393749999904,
                    "durationTicks": 310,
                    "midi": 63,
                    "name": "D#4",
                    "ticks": 126720,
                    "time": 125.71416,
                    "velocity": 0.889763779527559
                },
                {
                    "duration": 0.3075393749999904,
                    "durationTicks": 310,
                    "midi": 66,
                    "name": "F#4",
                    "ticks": 126720,
                    "time": 125.71416,
                    "velocity": 0.889763779527559
                },
                {
                    "duration": 0.1041665625000121,
                    "durationTicks": 105,
                    "midi": 63,
                    "name": "D#4",
                    "ticks": 127200,
                    "time": 126.19035,
                    "velocity": 0.7165354330708661
                },
                {
                    "duration": 0.1041665625000121,
                    "durationTicks": 105,
                    "midi": 66,
                    "name": "F#4",
                    "ticks": 127200,
                    "time": 126.19035,
                    "velocity": 0.7165354330708661
                },
                {
                    "duration": 0.19444425000001786,
                    "durationTicks": 196,
                    "midi": 59,
                    "name": "B3",
                    "ticks": 127440,
                    "time": 126.428445,
                    "velocity": 0.8188976377952756
                },
                {
                    "duration": 0.19444425000001786,
                    "durationTicks": 196,
                    "midi": 63,
                    "name": "D#4",
                    "ticks": 127440,
                    "time": 126.428445,
                    "velocity": 0.8188976377952756
                }
            ]
        },
        {
            "channel": 0,
            "controlChanges": {
                "0": [
                    {
                        "number": 0,
                        "ticks": 0,
                        "time": 0,
                        "value": 0
                    }
                ]
            },
            "pitchBends": [],
            "instrument": {
                "family": "piano",
                "name": "acoustic grand piano",
                "number": 0
            },
            "name": "String Ensemble 2",
            "notes": []
        },
        {
            "channel": 2,
            "controlChanges": {
                "1": [
                    {
                        "number": 1,
                        "ticks": 817,
                        "time": 0.8105150625,
                        "value": 0
                    }
                ],
                "6": [
                    {
                        "number": 6,
                        "ticks": 920,
                        "time": 0.9126975,
                        "value": 0.5039370078740157
                    }
                ],
                "7": [
                    {
                        "number": 7,
                        "ticks": 492,
                        "time": 0.48809474999999997,
                        "value": 0.6141732283464567
                    },
                    {
                        "number": 7,
                        "ticks": 44625,
                        "time": 44.2707890625,
                        "value": 0.6456692913385826
                    },
                    {
                        "number": 7,
                        "ticks": 46425,
                        "time": 46.0565015625,
                        "value": 0.6377952755905512
                    },
                    {
                        "number": 7,
                        "ticks": 48195,
                        "time": 47.8124521875,
                        "value": 0.6299212598425197
                    },
                    {
                        "number": 7,
                        "ticks": 49920,
                        "time": 49.52376,
                        "value": 0.6141732283464567
                    },
                    {
                        "number": 7,
                        "ticks": 50115,
                        "time": 49.7172121875,
                        "value": 0.6299212598425197
                    },
                    {
                        "number": 7,
                        "ticks": 53760,
                        "time": 53.33328,
                        "value": 0.6141732283464567
                    },
                    {
                        "number": 7,
                        "ticks": 54105,
                        "time": 53.6755415625,
                        "value": 0.6377952755905512
                    },
                    {
                        "number": 7,
                        "ticks": 55875,
                        "time": 55.4314921875,
                        "value": 0.6299212598425197
                    },
                    {
                        "number": 7,
                        "ticks": 57600,
                        "time": 57.1428,
                        "value": 0.6141732283464567
                    },
                    {
                        "number": 7,
                        "ticks": 57795,
                        "time": 57.3362521875,
                        "value": 0.6299212598425197
                    },
                    {
                        "number": 7,
                        "ticks": 115545,
                        "time": 114.6278615625,
                        "value": 0.6377952755905512
                    },
                    {
                        "number": 7,
                        "ticks": 117315,
                        "time": 116.3838121875,
                        "value": 0.6299212598425197
                    },
                    {
                        "number": 7,
                        "ticks": 119040,
                        "time": 118.09512,
                        "value": 0.6141732283464567
                    },
                    {
                        "number": 7,
                        "ticks": 119235,
                        "time": 118.2885721875,
                        "value": 0.6299212598425197
                    },
                    {
                        "number": 7,
                        "ticks": 122880,
                        "time": 121.90464,
                        "value": 0.6141732283464567
                    },
                    {
                        "number": 7,
                        "ticks": 123225,
                        "time": 122.2469015625,
                        "value": 0.6377952755905512
                    },
                    {
                        "number": 7,
                        "ticks": 124995,
                        "time": 124.0028521875,
                        "value": 0.6299212598425197
                    },
                    {
                        "number": 7,
                        "ticks": 126720,
                        "time": 125.71416,
                        "value": 0.6141732283464567
                    },
                    {
                        "number": 7,
                        "ticks": 126915,
                        "time": 125.9076121875,
                        "value": 0.6299212598425197
                    },
                    {
                        "number": 7,
                        "ticks": 257265,
                        "time": 255.2229590625,
                        "value": 0.6535433070866141
                    },
                    {
                        "number": 7,
                        "ticks": 257325,
                        "time": 255.2824828125,
                        "value": 0.6456692913385826
                    },
                    {
                        "number": 7,
                        "ticks": 257385,
                        "time": 255.3420065625,
                        "value": 0.6377952755905512
                    },
                    {
                        "number": 7,
                        "ticks": 257415,
                        "time": 255.3717684375,
                        "value": 0.6299212598425197
                    },
                    {
                        "number": 7,
                        "ticks": 257475,
                        "time": 255.4312921875,
                        "value": 0.6220472440944882
                    },
                    {
                        "number": 7,
                        "ticks": 257505,
                        "time": 255.4610540625,
                        "value": 0.6141732283464567
                    },
                    {
                        "number": 7,
                        "ticks": 257565,
                        "time": 255.5205778125,
                        "value": 0.6062992125984252
                    },
                    {
                        "number": 7,
                        "ticks": 257595,
                        "time": 255.5503396875,
                        "value": 0.5984251968503937
                    },
                    {
                        "number": 7,
                        "ticks": 257655,
                        "time": 255.6098634375,
                        "value": 0.5905511811023622
                    },
                    {
                        "number": 7,
                        "ticks": 257685,
                        "time": 255.6396253125,
                        "value": 0.5826771653543307
                    },
                    {
                        "number": 7,
                        "ticks": 257745,
                        "time": 255.6991490625,
                        "value": 0.5748031496062992
                    },
                    {
                        "number": 7,
                        "ticks": 257775,
                        "time": 255.7289109375,
                        "value": 0.5669291338582677
                    },
                    {
                        "number": 7,
                        "ticks": 257835,
                        "time": 255.7884346875,
                        "value": 0.5590551181102362
                    },
                    {
                        "number": 7,
                        "ticks": 257865,
                        "time": 255.8181965625,
                        "value": 0.5511811023622047
                    },
                    {
                        "number": 7,
                        "ticks": 257925,
                        "time": 255.8777203125,
                        "value": 0.5433070866141733
                    },
                    {
                        "number": 7,
                        "ticks": 257955,
                        "time": 255.9074821875,
                        "value": 0.5354330708661418
                    },
                    {
                        "number": 7,
                        "ticks": 258015,
                        "time": 255.9670059375,
                        "value": 0.5275590551181102
                    },
                    {
                        "number": 7,
                        "ticks": 258075,
                        "time": 256.0265296875,
                        "value": 0.5196850393700787
                    },
                    {
                        "number": 7,
                        "ticks": 258105,
                        "time": 256.0562915625,
                        "value": 0.5118110236220472
                    },
                    {
                        "number": 7,
                        "ticks": 258165,
                        "time": 256.1158153125,
                        "value": 0.5039370078740157
                    },
                    {
                        "number": 7,
                        "ticks": 258195,
                        "time": 256.1455771875,
                        "value": 0.49606299212598426
                    },
                    {
                        "number": 7,
                        "ticks": 258255,
                        "time": 256.2051009375,
                        "value": 0.4881889763779528
                    },
                    {
                        "number": 7,
                        "ticks": 258285,
                        "time": 256.2348628125,
                        "value": 0.48031496062992124
                    },
                    {
                        "number": 7,
                        "ticks": 258345,
                        "time": 256.2943865625,
                        "value": 0.47244094488188976
                    },
                    {
                        "number": 7,
                        "ticks": 258375,
                        "time": 256.3241484375,
                        "value": 0.4645669291338583
                    },
                    {
                        "number": 7,
                        "ticks": 258435,
                        "time": 256.3836721875,
                        "value": 0.4566929133858268
                    },
                    {
                        "number": 7,
                        "ticks": 258465,
                        "time": 256.4134340625,
                        "value": 0.44881889763779526
                    },
                    {
                        "number": 7,
                        "ticks": 258525,
                        "time": 256.4729578125,
                        "value": 0.4409448818897638
                    },
                    {
                        "number": 7,
                        "ticks": 258555,
                        "time": 256.5027196875,
                        "value": 0.4330708661417323
                    },
                    {
                        "number": 7,
                        "ticks": 258615,
                        "time": 256.5622434375,
                        "value": 0.4251968503937008
                    },
                    {
                        "number": 7,
                        "ticks": 258645,
                        "time": 256.5920053125,
                        "value": 0.41732283464566927
                    },
                    {
                        "number": 7,
                        "ticks": 258705,
                        "time": 256.6515290625,
                        "value": 0.4094488188976378
                    },
                    {
                        "number": 7,
                        "ticks": 258735,
                        "time": 256.6812909375,
                        "value": 0.4015748031496063
                    },
                    {
                        "number": 7,
                        "ticks": 258795,
                        "time": 256.7408146875,
                        "value": 0.3937007874015748
                    },
                    {
                        "number": 7,
                        "ticks": 258855,
                        "time": 256.8003384375,
                        "value": 0.3858267716535433
                    },
                    {
                        "number": 7,
                        "ticks": 258885,
                        "time": 256.8301003125,
                        "value": 0.3779527559055118
                    },
                    {
                        "number": 7,
                        "ticks": 258945,
                        "time": 256.8896240625,
                        "value": 0.3700787401574803
                    },
                    {
                        "number": 7,
                        "ticks": 258975,
                        "time": 256.9193859375,
                        "value": 0.36220472440944884
                    },
                    {
                        "number": 7,
                        "ticks": 259035,
                        "time": 256.9789096875,
                        "value": 0.3543307086614173
                    },
                    {
                        "number": 7,
                        "ticks": 259065,
                        "time": 257.0086715625,
                        "value": 0.3464566929133858
                    },
                    {
                        "number": 7,
                        "ticks": 259125,
                        "time": 257.0681953125,
                        "value": 0.33858267716535434
                    },
                    {
                        "number": 7,
                        "ticks": 259155,
                        "time": 257.0979571875,
                        "value": 0.33070866141732286
                    },
                    {
                        "number": 7,
                        "ticks": 259215,
                        "time": 257.1574809375,
                        "value": 0.3228346456692913
                    },
                    {
                        "number": 7,
                        "ticks": 259245,
                        "time": 257.1872428125,
                        "value": 0.31496062992125984
                    },
                    {
                        "number": 7,
                        "ticks": 259305,
                        "time": 257.2467665625,
                        "value": 0.30708661417322836
                    },
                    {
                        "number": 7,
                        "ticks": 259335,
                        "time": 257.2765284375,
                        "value": 0.2992125984251969
                    },
                    {
                        "number": 7,
                        "ticks": 259395,
                        "time": 257.3360521875,
                        "value": 0.29133858267716534
                    },
                    {
                        "number": 7,
                        "ticks": 259425,
                        "time": 257.3658140625,
                        "value": 0.28346456692913385
                    },
                    {
                        "number": 7,
                        "ticks": 259485,
                        "time": 257.4253378125,
                        "value": 0.2755905511811024
                    },
                    {
                        "number": 7,
                        "ticks": 259515,
                        "time": 257.4550996875,
                        "value": 0.2677165354330709
                    },
                    {
                        "number": 7,
                        "ticks": 259575,
                        "time": 257.5146234375,
                        "value": 0.25984251968503935
                    },
                    {
                        "number": 7,
                        "ticks": 259635,
                        "time": 257.5741471875,
                        "value": 0.25196850393700787
                    },
                    {
                        "number": 7,
                        "ticks": 259665,
                        "time": 257.6039090625,
                        "value": 0.2440944881889764
                    },
                    {
                        "number": 7,
                        "ticks": 259725,
                        "time": 257.6634328125,
                        "value": 0.23622047244094488
                    },
                    {
                        "number": 7,
                        "ticks": 259755,
                        "time": 257.6931946875,
                        "value": 0.2283464566929134
                    },
                    {
                        "number": 7,
                        "ticks": 259815,
                        "time": 257.7527184375,
                        "value": 0.2204724409448819
                    },
                    {
                        "number": 7,
                        "ticks": 259845,
                        "time": 257.7824803125,
                        "value": 0.2125984251968504
                    },
                    {
                        "number": 7,
                        "ticks": 259905,
                        "time": 257.8420040625,
                        "value": 0.2047244094488189
                    },
                    {
                        "number": 7,
                        "ticks": 259935,
                        "time": 257.8717659375,
                        "value": 0.1968503937007874
                    },
                    {
                        "number": 7,
                        "ticks": 259995,
                        "time": 257.9312896875,
                        "value": 0.1889763779527559
                    },
                    {
                        "number": 7,
                        "ticks": 260025,
                        "time": 257.9610515625,
                        "value": 0.18110236220472442
                    },
                    {
                        "number": 7,
                        "ticks": 260085,
                        "time": 258.0205753125,
                        "value": 0.1732283464566929
                    },
                    {
                        "number": 7,
                        "ticks": 260115,
                        "time": 258.0503371875,
                        "value": 0.16535433070866143
                    },
                    {
                        "number": 7,
                        "ticks": 260175,
                        "time": 258.1098609375,
                        "value": 0.15748031496062992
                    },
                    {
                        "number": 7,
                        "ticks": 260205,
                        "time": 258.1396228125,
                        "value": 0.14960629921259844
                    },
                    {
                        "number": 7,
                        "ticks": 260265,
                        "time": 258.1991465625,
                        "value": 0.14173228346456693
                    },
                    {
                        "number": 7,
                        "ticks": 260295,
                        "time": 258.2289084375,
                        "value": 0.13385826771653545
                    },
                    {
                        "number": 7,
                        "ticks": 260355,
                        "time": 258.2884321875,
                        "value": 0.12598425196850394
                    },
                    {
                        "number": 7,
                        "ticks": 260415,
                        "time": 258.3479559375,
                        "value": 0.11811023622047244
                    },
                    {
                        "number": 7,
                        "ticks": 260445,
                        "time": 258.3777178125,
                        "value": 0.11023622047244094
                    },
                    {
                        "number": 7,
                        "ticks": 260505,
                        "time": 258.4372415625,
                        "value": 0.10236220472440945
                    },
                    {
                        "number": 7,
                        "ticks": 260535,
                        "time": 258.4670034375,
                        "value": 0.09448818897637795
                    },
                    {
                        "number": 7,
                        "ticks": 260595,
                        "time": 258.5265271875,
                        "value": 0.08661417322834646
                    },
                    {
                        "number": 7,
                        "ticks": 260625,
                        "time": 258.5562890625,
                        "value": 0.07874015748031496
                    },
                    {
                        "number": 7,
                        "ticks": 260685,
                        "time": 258.6158128125,
                        "value": 0.07086614173228346
                    },
                    {
                        "number": 7,
                        "ticks": 260715,
                        "time": 258.6455746875,
                        "value": 0.06299212598425197
                    },
                    {
                        "number": 7,
                        "ticks": 260775,
                        "time": 258.7050984375,
                        "value": 0.05511811023622047
                    },
                    {
                        "number": 7,
                        "ticks": 260805,
                        "time": 258.7348603125,
                        "value": 0.047244094488188976
                    },
                    {
                        "number": 7,
                        "ticks": 260865,
                        "time": 258.7943840625,
                        "value": 0.03937007874015748
                    },
                    {
                        "number": 7,
                        "ticks": 260895,
                        "time": 258.8241459375,
                        "value": 0.031496062992125984
                    },
                    {
                        "number": 7,
                        "ticks": 260955,
                        "time": 258.8836696875,
                        "value": 0.023622047244094488
                    },
                    {
                        "number": 7,
                        "ticks": 260985,
                        "time": 258.9134315625,
                        "value": 0.015748031496062992
                    },
                    {
                        "number": 7,
                        "ticks": 261045,
                        "time": 258.9729553125,
                        "value": 0.007874015748031496
                    },
                    {
                        "number": 7,
                        "ticks": 261075,
                        "time": 259.0027171875,
                        "value": 0
                    }
                ],
                "10": [
                    {
                        "number": 10,
                        "ticks": 542,
                        "time": 0.537697875,
                        "value": 0.5275590551181102
                    }
                ],
                "11": [
                    {
                        "number": 11,
                        "ticks": 767,
                        "time": 0.7609119375,
                        "value": 1
                    }
                ],
                "64": [
                    {
                        "number": 64,
                        "ticks": 717,
                        "time": 0.7113088125,
                        "value": 0
                    }
                ],
                "91": [
                    {
                        "number": 91,
                        "ticks": 617,
                        "time": 0.6121025625,
                        "value": 0.6062992125984252
                    }
                ],
                "93": [
                    {
                        "number": 93,
                        "ticks": 667,
                        "time": 0.6617056875,
                        "value": 0.11023622047244094
                    }
                ],
                "98": [
                    {
                        "number": 98,
                        "ticks": 920,
                        "time": 0.9126975,
                        "value": 0.7795275590551181
                    }
                ],
                "99": [
                    {
                        "number": 99,
                        "ticks": 920,
                        "time": 0.9126975,
                        "value": 0.007874015748031496
                    }
                ],
                "120": [
                    {
                        "number": 120,
                        "ticks": 49920,
                        "time": 49.52376,
                        "value": 0
                    },
                    {
                        "number": 120,
                        "ticks": 53760,
                        "time": 53.33328,
                        "value": 0
                    },
                    {
                        "number": 120,
                        "ticks": 57600,
                        "time": 57.1428,
                        "value": 0
                    },
                    {
                        "number": 120,
                        "ticks": 119040,
                        "time": 118.09512,
                        "value": 0
                    },
                    {
                        "number": 120,
                        "ticks": 122880,
                        "time": 121.90464,
                        "value": 0
                    },
                    {
                        "number": 120,
                        "ticks": 126720,
                        "time": 125.71416,
                        "value": 0
                    }
                ],
                "121": [
                    {
                        "number": 121,
                        "ticks": 325,
                        "time": 0.32242031250000003,
                        "value": 0
                    }
                ],
                "123": [
                    {
                        "number": 123,
                        "ticks": 49920,
                        "time": 49.52376,
                        "value": 0
                    },
                    {
                        "number": 123,
                        "ticks": 53760,
                        "time": 53.33328,
                        "value": 0
                    },
                    {
                        "number": 123,
                        "ticks": 57600,
                        "time": 57.1428,
                        "value": 0
                    },
                    {
                        "number": 123,
                        "ticks": 119040,
                        "time": 118.09512,
                        "value": 0
                    },
                    {
                        "number": 123,
                        "ticks": 122880,
                        "time": 121.90464,
                        "value": 0
                    },
                    {
                        "number": 123,
                        "ticks": 126720,
                        "time": 125.71416,
                        "value": 0
                    }
                ]
            },
            "pitchBends": [
                {
                    "ticks": 867,
                    "time": 0.8601181874999999,
                    "value": 0
                }
            ],
            "instrument": {
                "family": "ensemble",
                "name": "string ensemble 2",
                "number": 49
            },
            "name": "",
            "notes": [
                {
                    "duration": 1.8988076249999963,
                    "durationTicks": 1914,
                    "midi": 73,
                    "name": "C#5",
                    "ticks": 30720,
                    "time": 30.47616,
                    "velocity": 0.8346456692913385
                },
                {
                    "duration": 1.8988076249999963,
                    "durationTicks": 1914,
                    "midi": 78,
                    "name": "F#5",
                    "ticks": 30720,
                    "time": 30.47616,
                    "velocity": 0.8188976377952756
                },
                {
                    "duration": 1.8988076249999963,
                    "durationTicks": 1914,
                    "midi": 82,
                    "name": "A#5",
                    "ticks": 30720,
                    "time": 30.47616,
                    "velocity": 0.8267716535433071
                },
                {
                    "duration": 1.8988076249999963,
                    "durationTicks": 1914,
                    "midi": 85,
                    "name": "C#6",
                    "ticks": 30720,
                    "time": 30.47616,
                    "velocity": 0.8267716535433071
                },
                {
                    "duration": 1.8988076249999963,
                    "durationTicks": 1914,
                    "midi": 71,
                    "name": "B4",
                    "ticks": 32640,
                    "time": 32.38092,
                    "velocity": 0.8346456692913385
                },
                {
                    "duration": 1.8988076249999963,
                    "durationTicks": 1914,
                    "midi": 76,
                    "name": "E5",
                    "ticks": 32640,
                    "time": 32.38092,
                    "velocity": 0.8188976377952756
                },
                {
                    "duration": 1.8988076249999963,
                    "durationTicks": 1914,
                    "midi": 80,
                    "name": "G#5",
                    "ticks": 32640,
                    "time": 32.38092,
                    "velocity": 0.8267716535433071
                },
                {
                    "duration": 1.8988076249999963,
                    "durationTicks": 1914,
                    "midi": 83,
                    "name": "B5",
                    "ticks": 32640,
                    "time": 32.38092,
                    "velocity": 0.8267716535433071
                },
                {
                    "duration": 3.842258062500001,
                    "durationTicks": 3873,
                    "midi": 66,
                    "name": "F#4",
                    "ticks": 34560,
                    "time": 34.28568,
                    "velocity": 0.7795275590551181
                },
                {
                    "duration": 1.9216250624999986,
                    "durationTicks": 1937,
                    "midi": 71,
                    "name": "B4",
                    "ticks": 34560,
                    "time": 34.28568,
                    "velocity": 0.9448818897637795
                },
                {
                    "duration": 0.9464276249999983,
                    "durationTicks": 954,
                    "midi": 75,
                    "name": "D#5",
                    "ticks": 34560,
                    "time": 34.28568,
                    "velocity": 0.8031496062992126
                },
                {
                    "duration": 0.9464276249999983,
                    "durationTicks": 954,
                    "midi": 87,
                    "name": "D#6",
                    "ticks": 34560,
                    "time": 34.28568,
                    "velocity": 0.8976377952755905
                },
                {
                    "duration": 0.9464276249999983,
                    "durationTicks": 954,
                    "midi": 73,
                    "name": "C#5",
                    "ticks": 35520,
                    "time": 35.23806,
                    "velocity": 0.937007874015748
                },
                {
                    "duration": 0.9464276249999983,
                    "durationTicks": 954,
                    "midi": 85,
                    "name": "C#6",
                    "ticks": 35520,
                    "time": 35.23806,
                    "velocity": 1
                },
                {
                    "duration": 0.9464276249999983,
                    "durationTicks": 954,
                    "midi": 70,
                    "name": "A#4",
                    "ticks": 36480,
                    "time": 36.19044,
                    "velocity": 0.8031496062992126
                },
                {
                    "duration": 0.9464276249999983,
                    "durationTicks": 954,
                    "midi": 82,
                    "name": "A#5",
                    "ticks": 36480,
                    "time": 36.19044,
                    "velocity": 0.8976377952755905
                },
                {
                    "duration": 0.9464276249999983,
                    "durationTicks": 954,
                    "midi": 68,
                    "name": "G#4",
                    "ticks": 37440,
                    "time": 37.14282,
                    "velocity": 0.8031496062992126
                },
                {
                    "duration": 0.9464276249999983,
                    "durationTicks": 954,
                    "midi": 80,
                    "name": "G#5",
                    "ticks": 37440,
                    "time": 37.14282,
                    "velocity": 0.8976377952755905
                },
                {
                    "duration": 1.8988076250000034,
                    "durationTicks": 1914,
                    "midi": 73,
                    "name": "C#5",
                    "ticks": 38400,
                    "time": 38.0952,
                    "velocity": 0.8346456692913385
                },
                {
                    "duration": 1.8988076250000034,
                    "durationTicks": 1914,
                    "midi": 78,
                    "name": "F#5",
                    "ticks": 38400,
                    "time": 38.0952,
                    "velocity": 0.8188976377952756
                },
                {
                    "duration": 1.8988076250000034,
                    "durationTicks": 1914,
                    "midi": 82,
                    "name": "A#5",
                    "ticks": 38400,
                    "time": 38.0952,
                    "velocity": 0.8267716535433071
                },
                {
                    "duration": 1.8988076250000034,
                    "durationTicks": 1914,
                    "midi": 85,
                    "name": "C#6",
                    "ticks": 38400,
                    "time": 38.0952,
                    "velocity": 0.8267716535433071
                },
                {
                    "duration": 1.8988076249999963,
                    "durationTicks": 1914,
                    "midi": 71,
                    "name": "B4",
                    "ticks": 40320,
                    "time": 39.99996,
                    "velocity": 0.8346456692913385
                },
                {
                    "duration": 1.8988076249999963,
                    "durationTicks": 1914,
                    "midi": 76,
                    "name": "E5",
                    "ticks": 40320,
                    "time": 39.99996,
                    "velocity": 0.8188976377952756
                },
                {
                    "duration": 1.8988076249999963,
                    "durationTicks": 1914,
                    "midi": 80,
                    "name": "G#5",
                    "ticks": 40320,
                    "time": 39.99996,
                    "velocity": 0.8267716535433071
                },
                {
                    "duration": 1.8988076249999963,
                    "durationTicks": 1914,
                    "midi": 83,
                    "name": "B5",
                    "ticks": 40320,
                    "time": 39.99996,
                    "velocity": 0.8267716535433071
                },
                {
                    "duration": 3.842258062500001,
                    "durationTicks": 3873,
                    "midi": 66,
                    "name": "F#4",
                    "ticks": 42240,
                    "time": 41.90472,
                    "velocity": 0.7795275590551181
                },
                {
                    "duration": 1.9216250624999986,
                    "durationTicks": 1937,
                    "midi": 71,
                    "name": "B4",
                    "ticks": 42240,
                    "time": 41.90472,
                    "velocity": 0.9448818897637795
                },
                {
                    "duration": 0.9464276249999983,
                    "durationTicks": 954,
                    "midi": 75,
                    "name": "D#5",
                    "ticks": 42240,
                    "time": 41.90472,
                    "velocity": 0.8031496062992126
                },
                {
                    "duration": 0.9464276249999983,
                    "durationTicks": 954,
                    "midi": 87,
                    "name": "D#6",
                    "ticks": 42240,
                    "time": 41.90472,
                    "velocity": 0.8976377952755905
                },
                {
                    "duration": 0.9464276249999983,
                    "durationTicks": 954,
                    "midi": 73,
                    "name": "C#5",
                    "ticks": 43200,
                    "time": 42.8571,
                    "velocity": 0.937007874015748
                },
                {
                    "duration": 0.9464276249999983,
                    "durationTicks": 954,
                    "midi": 85,
                    "name": "C#6",
                    "ticks": 43200,
                    "time": 42.8571,
                    "velocity": 1
                },
                {
                    "duration": 0.9464276249999983,
                    "durationTicks": 954,
                    "midi": 70,
                    "name": "A#4",
                    "ticks": 44160,
                    "time": 43.80948,
                    "velocity": 0.8031496062992126
                },
                {
                    "duration": 0.9464276249999983,
                    "durationTicks": 954,
                    "midi": 82,
                    "name": "A#5",
                    "ticks": 44160,
                    "time": 43.80948,
                    "velocity": 0.8976377952755905
                },
                {
                    "duration": 0.9464276249999983,
                    "durationTicks": 954,
                    "midi": 68,
                    "name": "G#4",
                    "ticks": 45120,
                    "time": 44.76186,
                    "velocity": 0.8031496062992126
                },
                {
                    "duration": 0.9464276249999983,
                    "durationTicks": 954,
                    "midi": 80,
                    "name": "G#5",
                    "ticks": 45120,
                    "time": 44.76186,
                    "velocity": 0.8976377952755905
                },
                {
                    "duration": 1.8988076249999892,
                    "durationTicks": 1914,
                    "midi": 73,
                    "name": "C#5",
                    "ticks": 184320,
                    "time": 182.85696000000002,
                    "velocity": 0.8346456692913385
                },
                {
                    "duration": 1.8988076249999892,
                    "durationTicks": 1914,
                    "midi": 78,
                    "name": "F#5",
                    "ticks": 184320,
                    "time": 182.85696000000002,
                    "velocity": 0.8188976377952756
                },
                {
                    "duration": 1.8988076249999892,
                    "durationTicks": 1914,
                    "midi": 82,
                    "name": "A#5",
                    "ticks": 184320,
                    "time": 182.85696000000002,
                    "velocity": 0.8267716535433071
                },
                {
                    "duration": 1.8988076249999892,
                    "durationTicks": 1914,
                    "midi": 85,
                    "name": "C#6",
                    "ticks": 184320,
                    "time": 182.85696000000002,
                    "velocity": 0.8267716535433071
                },
                {
                    "duration": 1.8988076250000177,
                    "durationTicks": 1914,
                    "midi": 71,
                    "name": "B4",
                    "ticks": 186240,
                    "time": 184.76172,
                    "velocity": 0.8346456692913385
                },
                {
                    "duration": 1.8988076250000177,
                    "durationTicks": 1914,
                    "midi": 76,
                    "name": "E5",
                    "ticks": 186240,
                    "time": 184.76172,
                    "velocity": 0.8188976377952756
                },
                {
                    "duration": 1.8988076250000177,
                    "durationTicks": 1914,
                    "midi": 80,
                    "name": "G#5",
                    "ticks": 186240,
                    "time": 184.76172,
                    "velocity": 0.8267716535433071
                },
                {
                    "duration": 1.8988076250000177,
                    "durationTicks": 1914,
                    "midi": 83,
                    "name": "B5",
                    "ticks": 186240,
                    "time": 184.76172,
                    "velocity": 0.8267716535433071
                },
                {
                    "duration": 1.9216250624999986,
                    "durationTicks": 1937,
                    "midi": 71,
                    "name": "B4",
                    "ticks": 188160,
                    "time": 186.66648,
                    "velocity": 0.9448818897637795
                },
                {
                    "duration": 0.9464276250000125,
                    "durationTicks": 954,
                    "midi": 75,
                    "name": "D#5",
                    "ticks": 188160,
                    "time": 186.66648,
                    "velocity": 0.8031496062992126
                },
                {
                    "duration": 0.9464276250000125,
                    "durationTicks": 954,
                    "midi": 87,
                    "name": "D#6",
                    "ticks": 188160,
                    "time": 186.66648,
                    "velocity": 0.8976377952755905
                },
                {
                    "duration": 3.842258062500008,
                    "durationTicks": 3873,
                    "midi": 66,
                    "name": "F#4",
                    "ticks": 188160,
                    "time": 186.66648,
                    "velocity": 0.7795275590551181
                },
                {
                    "duration": 0.9464276249999841,
                    "durationTicks": 954,
                    "midi": 73,
                    "name": "C#5",
                    "ticks": 189120,
                    "time": 187.61886,
                    "velocity": 0.937007874015748
                },
                {
                    "duration": 0.9464276249999841,
                    "durationTicks": 954,
                    "midi": 85,
                    "name": "C#6",
                    "ticks": 189120,
                    "time": 187.61886,
                    "velocity": 1
                },
                {
                    "duration": 0.9464276250000125,
                    "durationTicks": 954,
                    "midi": 70,
                    "name": "A#4",
                    "ticks": 190080,
                    "time": 188.57124,
                    "velocity": 0.8031496062992126
                },
                {
                    "duration": 0.9464276250000125,
                    "durationTicks": 954,
                    "midi": 82,
                    "name": "A#5",
                    "ticks": 190080,
                    "time": 188.57124,
                    "velocity": 0.8976377952755905
                },
                {
                    "duration": 0.9464276250000125,
                    "durationTicks": 954,
                    "midi": 68,
                    "name": "G#4",
                    "ticks": 191040,
                    "time": 189.52362,
                    "velocity": 0.8031496062992126
                },
                {
                    "duration": 0.9464276250000125,
                    "durationTicks": 954,
                    "midi": 80,
                    "name": "G#5",
                    "ticks": 191040,
                    "time": 189.52362,
                    "velocity": 0.8976377952755905
                },
                {
                    "duration": 1.8988076250000177,
                    "durationTicks": 1914,
                    "midi": 73,
                    "name": "C#5",
                    "ticks": 192000,
                    "time": 190.476,
                    "velocity": 0.8346456692913385
                },
                {
                    "duration": 1.8988076250000177,
                    "durationTicks": 1914,
                    "midi": 78,
                    "name": "F#5",
                    "ticks": 192000,
                    "time": 190.476,
                    "velocity": 0.8188976377952756
                },
                {
                    "duration": 1.8988076250000177,
                    "durationTicks": 1914,
                    "midi": 82,
                    "name": "A#5",
                    "ticks": 192000,
                    "time": 190.476,
                    "velocity": 0.8267716535433071
                },
                {
                    "duration": 1.8988076250000177,
                    "durationTicks": 1914,
                    "midi": 85,
                    "name": "C#6",
                    "ticks": 192000,
                    "time": 190.476,
                    "velocity": 0.8267716535433071
                },
                {
                    "duration": 1.8988076249999892,
                    "durationTicks": 1914,
                    "midi": 71,
                    "name": "B4",
                    "ticks": 193920,
                    "time": 192.38076,
                    "velocity": 0.8346456692913385
                },
                {
                    "duration": 1.8988076249999892,
                    "durationTicks": 1914,
                    "midi": 76,
                    "name": "E5",
                    "ticks": 193920,
                    "time": 192.38076,
                    "velocity": 0.8188976377952756
                },
                {
                    "duration": 1.8988076249999892,
                    "durationTicks": 1914,
                    "midi": 80,
                    "name": "G#5",
                    "ticks": 193920,
                    "time": 192.38076,
                    "velocity": 0.8267716535433071
                },
                {
                    "duration": 1.8988076249999892,
                    "durationTicks": 1914,
                    "midi": 83,
                    "name": "B5",
                    "ticks": 193920,
                    "time": 192.38076,
                    "velocity": 0.8267716535433071
                },
                {
                    "duration": 1.9037679374999925,
                    "durationTicks": 1919,
                    "midi": 66,
                    "name": "F#4",
                    "ticks": 195840,
                    "time": 194.28552,
                    "velocity": 0.7795275590551181
                },
                {
                    "duration": 1.9216250624999986,
                    "durationTicks": 1937,
                    "midi": 71,
                    "name": "B4",
                    "ticks": 195840,
                    "time": 194.28552,
                    "velocity": 0.9448818897637795
                },
                {
                    "duration": 0.9464276250000125,
                    "durationTicks": 954,
                    "midi": 75,
                    "name": "D#5",
                    "ticks": 195840,
                    "time": 194.28552,
                    "velocity": 0.8031496062992126
                },
                {
                    "duration": 0.9464276250000125,
                    "durationTicks": 954,
                    "midi": 87,
                    "name": "D#6",
                    "ticks": 195840,
                    "time": 194.28552,
                    "velocity": 0.8976377952755905
                },
                {
                    "duration": 0.9464276250000125,
                    "durationTicks": 954,
                    "midi": 73,
                    "name": "C#5",
                    "ticks": 196800,
                    "time": 195.2379,
                    "velocity": 0.937007874015748
                },
                {
                    "duration": 0.9464276250000125,
                    "durationTicks": 954,
                    "midi": 85,
                    "name": "C#6",
                    "ticks": 196800,
                    "time": 195.2379,
                    "velocity": 1
                },
                {
                    "duration": 1.8988076249999892,
                    "durationTicks": 1914,
                    "midi": 73,
                    "name": "C#5",
                    "ticks": 230400,
                    "time": 228.5712,
                    "velocity": 0.8346456692913385
                },
                {
                    "duration": 1.8988076249999892,
                    "durationTicks": 1914,
                    "midi": 78,
                    "name": "F#5",
                    "ticks": 230400,
                    "time": 228.5712,
                    "velocity": 0.8188976377952756
                },
                {
                    "duration": 1.8988076249999892,
                    "durationTicks": 1914,
                    "midi": 82,
                    "name": "A#5",
                    "ticks": 230400,
                    "time": 228.5712,
                    "velocity": 0.8267716535433071
                },
                {
                    "duration": 1.8988076249999892,
                    "durationTicks": 1914,
                    "midi": 85,
                    "name": "C#6",
                    "ticks": 230400,
                    "time": 228.5712,
                    "velocity": 0.8267716535433071
                },
                {
                    "duration": 1.8988076249999892,
                    "durationTicks": 1914,
                    "midi": 71,
                    "name": "B4",
                    "ticks": 232320,
                    "time": 230.47596000000001,
                    "velocity": 0.8346456692913385
                },
                {
                    "duration": 1.8988076249999892,
                    "durationTicks": 1914,
                    "midi": 76,
                    "name": "E5",
                    "ticks": 232320,
                    "time": 230.47596000000001,
                    "velocity": 0.8188976377952756
                },
                {
                    "duration": 1.8988076249999892,
                    "durationTicks": 1914,
                    "midi": 80,
                    "name": "G#5",
                    "ticks": 232320,
                    "time": 230.47596000000001,
                    "velocity": 0.8267716535433071
                },
                {
                    "duration": 1.8988076249999892,
                    "durationTicks": 1914,
                    "midi": 83,
                    "name": "B5",
                    "ticks": 232320,
                    "time": 230.47596000000001,
                    "velocity": 0.8267716535433071
                },
                {
                    "duration": 1.9216250624999986,
                    "durationTicks": 1937,
                    "midi": 71,
                    "name": "B4",
                    "ticks": 234240,
                    "time": 232.38072,
                    "velocity": 0.9448818897637795
                },
                {
                    "duration": 0.9464276250000125,
                    "durationTicks": 954,
                    "midi": 75,
                    "name": "D#5",
                    "ticks": 234240,
                    "time": 232.38072,
                    "velocity": 0.8031496062992126
                },
                {
                    "duration": 0.9464276250000125,
                    "durationTicks": 954,
                    "midi": 87,
                    "name": "D#6",
                    "ticks": 234240,
                    "time": 232.38072,
                    "velocity": 0.8976377952755905
                },
                {
                    "duration": 3.842258062500008,
                    "durationTicks": 3873,
                    "midi": 66,
                    "name": "F#4",
                    "ticks": 234240,
                    "time": 232.38072,
                    "velocity": 0.7795275590551181
                },
                {
                    "duration": 0.9464276250000125,
                    "durationTicks": 954,
                    "midi": 73,
                    "name": "C#5",
                    "ticks": 235200,
                    "time": 233.3331,
                    "velocity": 0.937007874015748
                },
                {
                    "duration": 0.9464276250000125,
                    "durationTicks": 954,
                    "midi": 85,
                    "name": "C#6",
                    "ticks": 235200,
                    "time": 233.3331,
                    "velocity": 1
                },
                {
                    "duration": 0.9464276250000125,
                    "durationTicks": 954,
                    "midi": 70,
                    "name": "A#4",
                    "ticks": 236160,
                    "time": 234.28548,
                    "velocity": 0.8031496062992126
                },
                {
                    "duration": 0.9464276250000125,
                    "durationTicks": 954,
                    "midi": 82,
                    "name": "A#5",
                    "ticks": 236160,
                    "time": 234.28548,
                    "velocity": 0.8976377952755905
                },
                {
                    "duration": 0.9464276249999841,
                    "durationTicks": 954,
                    "midi": 68,
                    "name": "G#4",
                    "ticks": 237120,
                    "time": 235.23786,
                    "velocity": 0.8031496062992126
                },
                {
                    "duration": 0.9464276249999841,
                    "durationTicks": 954,
                    "midi": 80,
                    "name": "G#5",
                    "ticks": 237120,
                    "time": 235.23786,
                    "velocity": 0.8976377952755905
                },
                {
                    "duration": 1.8988076249999892,
                    "durationTicks": 1914,
                    "midi": 61,
                    "name": "C#4",
                    "ticks": 245760,
                    "time": 243.80928,
                    "velocity": 0.8346456692913385
                },
                {
                    "duration": 1.8988076249999892,
                    "durationTicks": 1914,
                    "midi": 66,
                    "name": "F#4",
                    "ticks": 245760,
                    "time": 243.80928,
                    "velocity": 0.8188976377952756
                },
                {
                    "duration": 1.8988076249999892,
                    "durationTicks": 1914,
                    "midi": 70,
                    "name": "A#4",
                    "ticks": 245760,
                    "time": 243.80928,
                    "velocity": 0.8267716535433071
                },
                {
                    "duration": 1.8988076249999892,
                    "durationTicks": 1914,
                    "midi": 73,
                    "name": "C#5",
                    "ticks": 245760,
                    "time": 243.80928,
                    "velocity": 0.8267716535433071
                },
                {
                    "duration": 1.8988076249999608,
                    "durationTicks": 1914,
                    "midi": 59,
                    "name": "B3",
                    "ticks": 247680,
                    "time": 245.71404,
                    "velocity": 0.8346456692913385
                },
                {
                    "duration": 1.8988076249999608,
                    "durationTicks": 1914,
                    "midi": 64,
                    "name": "E4",
                    "ticks": 247680,
                    "time": 245.71404,
                    "velocity": 0.8188976377952756
                },
                {
                    "duration": 1.8988076249999608,
                    "durationTicks": 1914,
                    "midi": 68,
                    "name": "G#4",
                    "ticks": 247680,
                    "time": 245.71404,
                    "velocity": 0.8267716535433071
                },
                {
                    "duration": 1.8988076249999608,
                    "durationTicks": 1914,
                    "midi": 71,
                    "name": "B4",
                    "ticks": 247680,
                    "time": 245.71404,
                    "velocity": 0.8267716535433071
                },
                {
                    "duration": 1.8988076249999892,
                    "durationTicks": 1914,
                    "midi": 61,
                    "name": "C#4",
                    "ticks": 249600,
                    "time": 247.6188,
                    "velocity": 0.8346456692913385
                },
                {
                    "duration": 1.8988076249999892,
                    "durationTicks": 1914,
                    "midi": 66,
                    "name": "F#4",
                    "ticks": 249600,
                    "time": 247.6188,
                    "velocity": 0.8188976377952756
                },
                {
                    "duration": 1.8988076249999892,
                    "durationTicks": 1914,
                    "midi": 70,
                    "name": "A#4",
                    "ticks": 249600,
                    "time": 247.6188,
                    "velocity": 0.8267716535433071
                },
                {
                    "duration": 1.8988076249999892,
                    "durationTicks": 1914,
                    "midi": 73,
                    "name": "C#5",
                    "ticks": 249600,
                    "time": 247.6188,
                    "velocity": 0.8267716535433071
                },
                {
                    "duration": 1.8988076249999892,
                    "durationTicks": 1914,
                    "midi": 59,
                    "name": "B3",
                    "ticks": 251520,
                    "time": 249.52356,
                    "velocity": 0.8346456692913385
                },
                {
                    "duration": 1.8988076249999892,
                    "durationTicks": 1914,
                    "midi": 64,
                    "name": "E4",
                    "ticks": 251520,
                    "time": 249.52356,
                    "velocity": 0.8188976377952756
                },
                {
                    "duration": 1.8988076249999892,
                    "durationTicks": 1914,
                    "midi": 68,
                    "name": "G#4",
                    "ticks": 251520,
                    "time": 249.52356,
                    "velocity": 0.8267716535433071
                },
                {
                    "duration": 1.8988076249999892,
                    "durationTicks": 1914,
                    "midi": 71,
                    "name": "B4",
                    "ticks": 251520,
                    "time": 249.52356,
                    "velocity": 0.8267716535433071
                },
                {
                    "duration": 1.8988076249999608,
                    "durationTicks": 1914,
                    "midi": 61,
                    "name": "C#4",
                    "ticks": 253440,
                    "time": 251.42832,
                    "velocity": 0.8346456692913385
                },
                {
                    "duration": 1.8988076249999608,
                    "durationTicks": 1914,
                    "midi": 66,
                    "name": "F#4",
                    "ticks": 253440,
                    "time": 251.42832,
                    "velocity": 0.8188976377952756
                },
                {
                    "duration": 1.8988076249999608,
                    "durationTicks": 1914,
                    "midi": 70,
                    "name": "A#4",
                    "ticks": 253440,
                    "time": 251.42832,
                    "velocity": 0.8267716535433071
                },
                {
                    "duration": 1.8988076249999608,
                    "durationTicks": 1914,
                    "midi": 73,
                    "name": "C#5",
                    "ticks": 253440,
                    "time": 251.42832,
                    "velocity": 0.8267716535433071
                },
                {
                    "duration": 1.8988076249999892,
                    "durationTicks": 1914,
                    "midi": 59,
                    "name": "B3",
                    "ticks": 255360,
                    "time": 253.33308,
                    "velocity": 0.8346456692913385
                },
                {
                    "duration": 1.8988076249999892,
                    "durationTicks": 1914,
                    "midi": 64,
                    "name": "E4",
                    "ticks": 255360,
                    "time": 253.33308,
                    "velocity": 0.8188976377952756
                },
                {
                    "duration": 1.8988076249999892,
                    "durationTicks": 1914,
                    "midi": 68,
                    "name": "G#4",
                    "ticks": 255360,
                    "time": 253.33308,
                    "velocity": 0.8267716535433071
                },
                {
                    "duration": 1.8988076249999892,
                    "durationTicks": 1914,
                    "midi": 71,
                    "name": "B4",
                    "ticks": 255360,
                    "time": 253.33308,
                    "velocity": 0.8267716535433071
                },
                {
                    "duration": 1.8988076249999608,
                    "durationTicks": 1914,
                    "midi": 61,
                    "name": "C#4",
                    "ticks": 257280,
                    "time": 255.23784,
                    "velocity": 0.8346456692913385
                },
                {
                    "duration": 1.8988076249999608,
                    "durationTicks": 1914,
                    "midi": 66,
                    "name": "F#4",
                    "ticks": 257280,
                    "time": 255.23784,
                    "velocity": 0.8188976377952756
                },
                {
                    "duration": 1.8988076249999608,
                    "durationTicks": 1914,
                    "midi": 70,
                    "name": "A#4",
                    "ticks": 257280,
                    "time": 255.23784,
                    "velocity": 0.8267716535433071
                },
                {
                    "duration": 1.8988076249999608,
                    "durationTicks": 1914,
                    "midi": 73,
                    "name": "C#5",
                    "ticks": 257280,
                    "time": 255.23784,
                    "velocity": 0.8267716535433071
                },
                {
                    "duration": 1.8988076249999608,
                    "durationTicks": 1914,
                    "midi": 59,
                    "name": "B3",
                    "ticks": 259200,
                    "time": 257.1426,
                    "velocity": 0.8346456692913385
                },
                {
                    "duration": 1.8988076249999608,
                    "durationTicks": 1914,
                    "midi": 64,
                    "name": "E4",
                    "ticks": 259200,
                    "time": 257.1426,
                    "velocity": 0.8188976377952756
                },
                {
                    "duration": 1.8988076249999608,
                    "durationTicks": 1914,
                    "midi": 68,
                    "name": "G#4",
                    "ticks": 259200,
                    "time": 257.1426,
                    "velocity": 0.8267716535433071
                },
                {
                    "duration": 1.8988076249999608,
                    "durationTicks": 1914,
                    "midi": 71,
                    "name": "B4",
                    "ticks": 259200,
                    "time": 257.1426,
                    "velocity": 0.8267716535433071
                }
            ]
        },
        {
            "channel": 0,
            "controlChanges": {
                "0": [
                    {
                        "number": 0,
                        "ticks": 0,
                        "time": 0,
                        "value": 0
                    }
                ]
            },
            "pitchBends": [],
            "instrument": {
                "family": "piano",
                "name": "acoustic grand piano",
                "number": 0
            },
            "name": "Pad 8 (sweep)",
            "notes": []
        },
        {
            "channel": 5,
            "controlChanges": {
                "1": [
                    {
                        "number": 1,
                        "ticks": 817,
                        "time": 0.8105150625,
                        "value": 0
                    }
                ],
                "6": [
                    {
                        "number": 6,
                        "ticks": 920,
                        "time": 0.9126975,
                        "value": 0.2440944881889764
                    }
                ],
                "7": [
                    {
                        "number": 7,
                        "ticks": 492,
                        "time": 0.48809474999999997,
                        "value": 0.6771653543307087
                    },
                    {
                        "number": 7,
                        "ticks": 44640,
                        "time": 44.28567,
                        "value": 0.5905511811023622
                    },
                    {
                        "number": 7,
                        "ticks": 45384,
                        "time": 45.0237645,
                        "value": 0.5039370078740157
                    },
                    {
                        "number": 7,
                        "ticks": 47295,
                        "time": 46.9195959375,
                        "value": 0.48031496062992124
                    },
                    {
                        "number": 7,
                        "ticks": 48405,
                        "time": 48.0207853125,
                        "value": 0.4881889763779528
                    },
                    {
                        "number": 7,
                        "ticks": 49515,
                        "time": 49.1219746875,
                        "value": 0.49606299212598426
                    },
                    {
                        "number": 7,
                        "ticks": 49920,
                        "time": 49.52376,
                        "value": 0.5039370078740157
                    },
                    {
                        "number": 7,
                        "ticks": 50325,
                        "time": 49.9255453125,
                        "value": 0.4881889763779528
                    },
                    {
                        "number": 7,
                        "ticks": 51435,
                        "time": 51.0267346875,
                        "value": 0.49606299212598426
                    },
                    {
                        "number": 7,
                        "ticks": 52245,
                        "time": 51.8303053125,
                        "value": 0.4881889763779528
                    },
                    {
                        "number": 7,
                        "ticks": 53355,
                        "time": 52.9314946875,
                        "value": 0.49606299212598426
                    },
                    {
                        "number": 7,
                        "ticks": 53760,
                        "time": 53.33328,
                        "value": 0.5039370078740157
                    },
                    {
                        "number": 7,
                        "ticks": 54975,
                        "time": 54.5386359375,
                        "value": 0.48031496062992124
                    },
                    {
                        "number": 7,
                        "ticks": 56085,
                        "time": 55.6398253125,
                        "value": 0.4881889763779528
                    },
                    {
                        "number": 7,
                        "ticks": 57195,
                        "time": 56.7410146875,
                        "value": 0.49606299212598426
                    },
                    {
                        "number": 7,
                        "ticks": 57600,
                        "time": 57.1428,
                        "value": 0.5039370078740157
                    },
                    {
                        "number": 7,
                        "ticks": 58005,
                        "time": 57.5445853125,
                        "value": 0.4881889763779528
                    },
                    {
                        "number": 7,
                        "ticks": 59115,
                        "time": 58.6457746875,
                        "value": 0.49606299212598426
                    },
                    {
                        "number": 7,
                        "ticks": 116415,
                        "time": 115.4909559375,
                        "value": 0.48031496062992124
                    },
                    {
                        "number": 7,
                        "ticks": 117525,
                        "time": 116.5921453125,
                        "value": 0.4881889763779528
                    },
                    {
                        "number": 7,
                        "ticks": 118635,
                        "time": 117.6933346875,
                        "value": 0.49606299212598426
                    },
                    {
                        "number": 7,
                        "ticks": 119040,
                        "time": 118.09512,
                        "value": 0.5039370078740157
                    },
                    {
                        "number": 7,
                        "ticks": 119445,
                        "time": 118.4969053125,
                        "value": 0.4881889763779528
                    },
                    {
                        "number": 7,
                        "ticks": 120555,
                        "time": 119.5980946875,
                        "value": 0.49606299212598426
                    },
                    {
                        "number": 7,
                        "ticks": 121365,
                        "time": 120.4016653125,
                        "value": 0.4881889763779528
                    },
                    {
                        "number": 7,
                        "ticks": 122475,
                        "time": 121.5028546875,
                        "value": 0.49606299212598426
                    },
                    {
                        "number": 7,
                        "ticks": 122880,
                        "time": 121.90464,
                        "value": 0.5039370078740157
                    },
                    {
                        "number": 7,
                        "ticks": 124095,
                        "time": 123.1099959375,
                        "value": 0.48031496062992124
                    },
                    {
                        "number": 7,
                        "ticks": 125205,
                        "time": 124.2111853125,
                        "value": 0.4881889763779528
                    },
                    {
                        "number": 7,
                        "ticks": 126315,
                        "time": 125.3123746875,
                        "value": 0.49606299212598426
                    },
                    {
                        "number": 7,
                        "ticks": 126720,
                        "time": 125.71416,
                        "value": 0.5039370078740157
                    },
                    {
                        "number": 7,
                        "ticks": 127125,
                        "time": 126.1159453125,
                        "value": 0.4881889763779528
                    },
                    {
                        "number": 7,
                        "ticks": 128235,
                        "time": 127.2171346875,
                        "value": 0.49606299212598426
                    }
                ],
                "10": [
                    {
                        "number": 10,
                        "ticks": 542,
                        "time": 0.537697875,
                        "value": 0.7086614173228346
                    }
                ],
                "11": [
                    {
                        "number": 11,
                        "ticks": 767,
                        "time": 0.7609119375,
                        "value": 1
                    }
                ],
                "64": [
                    {
                        "number": 64,
                        "ticks": 717,
                        "time": 0.7113088125,
                        "value": 0
                    }
                ],
                "91": [
                    {
                        "number": 91,
                        "ticks": 617,
                        "time": 0.6121025625,
                        "value": 0.48031496062992124
                    }
                ],
                "93": [
                    {
                        "number": 93,
                        "ticks": 667,
                        "time": 0.6617056875,
                        "value": 0.3543307086614173
                    }
                ],
                "98": [
                    {
                        "number": 98,
                        "ticks": 920,
                        "time": 0.9126975,
                        "value": 0.7795275590551181
                    }
                ],
                "99": [
                    {
                        "number": 99,
                        "ticks": 920,
                        "time": 0.9126975,
                        "value": 0.007874015748031496
                    }
                ],
                "120": [
                    {
                        "number": 120,
                        "ticks": 49920,
                        "time": 49.52376,
                        "value": 0
                    },
                    {
                        "number": 120,
                        "ticks": 53760,
                        "time": 53.33328,
                        "value": 0
                    },
                    {
                        "number": 120,
                        "ticks": 57600,
                        "time": 57.1428,
                        "value": 0
                    },
                    {
                        "number": 120,
                        "ticks": 119040,
                        "time": 118.09512,
                        "value": 0
                    },
                    {
                        "number": 120,
                        "ticks": 122880,
                        "time": 121.90464,
                        "value": 0
                    },
                    {
                        "number": 120,
                        "ticks": 126720,
                        "time": 125.71416,
                        "value": 0
                    }
                ],
                "121": [
                    {
                        "number": 121,
                        "ticks": 325,
                        "time": 0.32242031250000003,
                        "value": 0
                    }
                ],
                "123": [
                    {
                        "number": 123,
                        "ticks": 49920,
                        "time": 49.52376,
                        "value": 0
                    },
                    {
                        "number": 123,
                        "ticks": 53760,
                        "time": 53.33328,
                        "value": 0
                    },
                    {
                        "number": 123,
                        "ticks": 57600,
                        "time": 57.1428,
                        "value": 0
                    },
                    {
                        "number": 123,
                        "ticks": 119040,
                        "time": 118.09512,
                        "value": 0
                    },
                    {
                        "number": 123,
                        "ticks": 122880,
                        "time": 121.90464,
                        "value": 0
                    },
                    {
                        "number": 123,
                        "ticks": 126720,
                        "time": 125.71416,
                        "value": 0
                    }
                ]
            },
            "pitchBends": [
                {
                    "ticks": 867,
                    "time": 0.8601181874999999,
                    "value": 0
                }
            ],
            "instrument": {
                "family": "synth pad",
                "name": "pad 8 (sweep)",
                "number": 95
            },
            "name": "",
            "notes": [
                {
                    "duration": 0.2321426249999945,
                    "durationTicks": 234,
                    "midi": 71,
                    "name": "B4",
                    "ticks": 44400,
                    "time": 44.047575,
                    "velocity": 1
                },
                {
                    "duration": 0.2321426249999945,
                    "durationTicks": 234,
                    "midi": 70,
                    "name": "A#4",
                    "ticks": 44640,
                    "time": 44.28567,
                    "velocity": 0.9763779527559056
                },
                {
                    "duration": 0.2321426250000016,
                    "durationTicks": 234,
                    "midi": 66,
                    "name": "F#4",
                    "ticks": 44880,
                    "time": 44.523765,
                    "velocity": 0.7795275590551181
                },
                {
                    "duration": 0.2321426250000016,
                    "durationTicks": 234,
                    "midi": 64,
                    "name": "E4",
                    "ticks": 45120,
                    "time": 44.76186,
                    "velocity": 1
                },
                {
                    "duration": 0.2321426250000016,
                    "durationTicks": 234,
                    "midi": 61,
                    "name": "C#4",
                    "ticks": 45360,
                    "time": 44.999955,
                    "velocity": 1
                },
                {
                    "duration": 0.2321426249999945,
                    "durationTicks": 234,
                    "midi": 64,
                    "name": "E4",
                    "ticks": 45600,
                    "time": 45.23805,
                    "velocity": 1
                },
                {
                    "duration": 0.2321426249999945,
                    "durationTicks": 234,
                    "midi": 61,
                    "name": "C#4",
                    "ticks": 45840,
                    "time": 45.476145,
                    "velocity": 0.8031496062992126
                }
            ]
        },
        {
            "channel": 0,
            "controlChanges": {
                "0": [
                    {
                        "number": 0,
                        "ticks": 0,
                        "time": 0,
                        "value": 0
                    }
                ]
            },
            "pitchBends": [],
            "instrument": {
                "family": "piano",
                "name": "acoustic grand piano",
                "number": 0
            },
            "name": "Synth Brass 1",
            "notes": []
        },
        {
            "channel": 7,
            "controlChanges": {
                "1": [
                    {
                        "number": 1,
                        "ticks": 822,
                        "time": 0.815475375,
                        "value": 0
                    }
                ],
                "7": [
                    {
                        "number": 7,
                        "ticks": 497,
                        "time": 0.4930550625,
                        "value": 0.8267716535433071
                    },
                    {
                        "number": 7,
                        "ticks": 44640,
                        "time": 44.28567,
                        "value": 0.7165354330708661
                    },
                    {
                        "number": 7,
                        "ticks": 45375,
                        "time": 45.0148359375,
                        "value": 0.7244094488188977
                    }
                ],
                "10": [
                    {
                        "number": 10,
                        "ticks": 547,
                        "time": 0.5426581875,
                        "value": 0.6614173228346457
                    }
                ],
                "11": [
                    {
                        "number": 11,
                        "ticks": 772,
                        "time": 0.76587225,
                        "value": 1
                    }
                ],
                "64": [
                    {
                        "number": 64,
                        "ticks": 722,
                        "time": 0.716269125,
                        "value": 0
                    }
                ],
                "91": [
                    {
                        "number": 91,
                        "ticks": 622,
                        "time": 0.617062875,
                        "value": 0.6535433070866141
                    }
                ],
                "93": [
                    {
                        "number": 93,
                        "ticks": 672,
                        "time": 0.666666,
                        "value": 0.2755905511811024
                    }
                ],
                "120": [
                    {
                        "number": 120,
                        "ticks": 49920,
                        "time": 49.52376,
                        "value": 0
                    },
                    {
                        "number": 120,
                        "ticks": 53760,
                        "time": 53.33328,
                        "value": 0
                    },
                    {
                        "number": 120,
                        "ticks": 57600,
                        "time": 57.1428,
                        "value": 0
                    },
                    {
                        "number": 120,
                        "ticks": 119040,
                        "time": 118.09512,
                        "value": 0
                    },
                    {
                        "number": 120,
                        "ticks": 122880,
                        "time": 121.90464,
                        "value": 0
                    },
                    {
                        "number": 120,
                        "ticks": 126720,
                        "time": 125.71416,
                        "value": 0
                    }
                ],
                "121": [
                    {
                        "number": 121,
                        "ticks": 330,
                        "time": 0.327380625,
                        "value": 0
                    }
                ],
                "123": [
                    {
                        "number": 123,
                        "ticks": 49920,
                        "time": 49.52376,
                        "value": 0
                    },
                    {
                        "number": 123,
                        "ticks": 53760,
                        "time": 53.33328,
                        "value": 0
                    },
                    {
                        "number": 123,
                        "ticks": 57600,
                        "time": 57.1428,
                        "value": 0
                    },
                    {
                        "number": 123,
                        "ticks": 119040,
                        "time": 118.09512,
                        "value": 0
                    },
                    {
                        "number": 123,
                        "ticks": 122880,
                        "time": 121.90464,
                        "value": 0
                    },
                    {
                        "number": 123,
                        "ticks": 126720,
                        "time": 125.71416,
                        "value": 0
                    }
                ]
            },
            "pitchBends": [
                {
                    "ticks": 872,
                    "time": 0.8650785,
                    "value": 0
                }
            ],
            "instrument": {
                "family": "brass",
                "name": "synthbrass 1",
                "number": 62
            },
            "name": "",
            "notes": [
                {
                    "duration": 1.8988076249999963,
                    "durationTicks": 1914,
                    "midi": 54,
                    "name": "F#3",
                    "ticks": 23040,
                    "time": 22.857120000000002,
                    "velocity": 0.6692913385826772
                },
                {
                    "duration": 1.8988076249999963,
                    "durationTicks": 1914,
                    "midi": 58,
                    "name": "A#3",
                    "ticks": 23040,
                    "time": 22.857120000000002,
                    "velocity": 0.6692913385826772
                },
                {
                    "duration": 1.8988076249999963,
                    "durationTicks": 1914,
                    "midi": 52,
                    "name": "E3",
                    "ticks": 24960,
                    "time": 24.76188,
                    "velocity": 0.6692913385826772
                },
                {
                    "duration": 1.8988076249999963,
                    "durationTicks": 1914,
                    "midi": 56,
                    "name": "G#3",
                    "ticks": 24960,
                    "time": 24.76188,
                    "velocity": 0.6692913385826772
                },
                {
                    "duration": 1.8988076249999963,
                    "durationTicks": 1914,
                    "midi": 51,
                    "name": "D#3",
                    "ticks": 26880,
                    "time": 26.66664,
                    "velocity": 0.6692913385826772
                },
                {
                    "duration": 1.8988076249999963,
                    "durationTicks": 1914,
                    "midi": 54,
                    "name": "F#3",
                    "ticks": 26880,
                    "time": 26.66664,
                    "velocity": 0.6692913385826772
                },
                {
                    "duration": 1.8988076249999999,
                    "durationTicks": 1914,
                    "midi": 54,
                    "name": "F#3",
                    "ticks": 28800,
                    "time": 28.5714,
                    "velocity": 0.6692913385826772
                },
                {
                    "duration": 1.8988076249999999,
                    "durationTicks": 1914,
                    "midi": 58,
                    "name": "A#3",
                    "ticks": 28800,
                    "time": 28.5714,
                    "velocity": 0.6692913385826772
                },
                {
                    "duration": 1.8988076249999963,
                    "durationTicks": 1914,
                    "midi": 54,
                    "name": "F#3",
                    "ticks": 30720,
                    "time": 30.47616,
                    "velocity": 0.7480314960629921
                },
                {
                    "duration": 1.8988076249999963,
                    "durationTicks": 1914,
                    "midi": 61,
                    "name": "C#4",
                    "ticks": 30720,
                    "time": 30.47616,
                    "velocity": 0.7480314960629921
                },
                {
                    "duration": 1.8988076249999963,
                    "durationTicks": 1914,
                    "midi": 66,
                    "name": "F#4",
                    "ticks": 30720,
                    "time": 30.47616,
                    "velocity": 0.7480314960629921
                },
                {
                    "duration": 1.8988076249999963,
                    "durationTicks": 1914,
                    "midi": 52,
                    "name": "E3",
                    "ticks": 32640,
                    "time": 32.38092,
                    "velocity": 0.7480314960629921
                },
                {
                    "duration": 1.8988076249999963,
                    "durationTicks": 1914,
                    "midi": 59,
                    "name": "B3",
                    "ticks": 32640,
                    "time": 32.38092,
                    "velocity": 0.7480314960629921
                },
                {
                    "duration": 1.8988076249999963,
                    "durationTicks": 1914,
                    "midi": 64,
                    "name": "E4",
                    "ticks": 32640,
                    "time": 32.38092,
                    "velocity": 0.7480314960629921
                },
                {
                    "duration": 3.8035676249999995,
                    "durationTicks": 3834,
                    "midi": 59,
                    "name": "B3",
                    "ticks": 34560,
                    "time": 34.28568,
                    "velocity": 0.7480314960629921
                },
                {
                    "duration": 3.8035676249999995,
                    "durationTicks": 3834,
                    "midi": 66,
                    "name": "F#4",
                    "ticks": 34560,
                    "time": 34.28568,
                    "velocity": 0.7480314960629921
                },
                {
                    "duration": 1.8988076250000034,
                    "durationTicks": 1914,
                    "midi": 54,
                    "name": "F#3",
                    "ticks": 38400,
                    "time": 38.0952,
                    "velocity": 0.7480314960629921
                },
                {
                    "duration": 1.8988076250000034,
                    "durationTicks": 1914,
                    "midi": 61,
                    "name": "C#4",
                    "ticks": 38400,
                    "time": 38.0952,
                    "velocity": 0.7480314960629921
                },
                {
                    "duration": 1.8988076250000034,
                    "durationTicks": 1914,
                    "midi": 66,
                    "name": "F#4",
                    "ticks": 38400,
                    "time": 38.0952,
                    "velocity": 0.7480314960629921
                },
                {
                    "duration": 1.8988076249999963,
                    "durationTicks": 1914,
                    "midi": 52,
                    "name": "E3",
                    "ticks": 40320,
                    "time": 39.99996,
                    "velocity": 0.7480314960629921
                },
                {
                    "duration": 1.8988076249999963,
                    "durationTicks": 1914,
                    "midi": 59,
                    "name": "B3",
                    "ticks": 40320,
                    "time": 39.99996,
                    "velocity": 0.7480314960629921
                },
                {
                    "duration": 1.8988076249999963,
                    "durationTicks": 1914,
                    "midi": 64,
                    "name": "E4",
                    "ticks": 40320,
                    "time": 39.99996,
                    "velocity": 0.7480314960629921
                },
                {
                    "duration": 1.8988076250000034,
                    "durationTicks": 1914,
                    "midi": 59,
                    "name": "B3",
                    "ticks": 42240,
                    "time": 41.90472,
                    "velocity": 0.7480314960629921
                },
                {
                    "duration": 1.8988076250000034,
                    "durationTicks": 1914,
                    "midi": 66,
                    "name": "F#4",
                    "ticks": 42240,
                    "time": 41.90472,
                    "velocity": 0.7480314960629921
                },
                {
                    "duration": 0.2321426249999945,
                    "durationTicks": 234,
                    "midi": 59,
                    "name": "B3",
                    "ticks": 44400,
                    "time": 44.047575,
                    "velocity": 1
                },
                {
                    "duration": 0.2321426249999945,
                    "durationTicks": 234,
                    "midi": 58,
                    "name": "A#3",
                    "ticks": 44640,
                    "time": 44.28567,
                    "velocity": 0.937007874015748
                },
                {
                    "duration": 0.2321426250000016,
                    "durationTicks": 234,
                    "midi": 54,
                    "name": "F#3",
                    "ticks": 44880,
                    "time": 44.523765,
                    "velocity": 0.8976377952755905
                },
                {
                    "duration": 0.2321426250000016,
                    "durationTicks": 234,
                    "midi": 52,
                    "name": "E3",
                    "ticks": 45120,
                    "time": 44.76186,
                    "velocity": 0.8976377952755905
                },
                {
                    "duration": 0.2321426250000016,
                    "durationTicks": 234,
                    "midi": 49,
                    "name": "C#3",
                    "ticks": 45360,
                    "time": 44.999955,
                    "velocity": 0.8976377952755905
                },
                {
                    "duration": 0.2321426249999945,
                    "durationTicks": 234,
                    "midi": 52,
                    "name": "E3",
                    "ticks": 45600,
                    "time": 45.23805,
                    "velocity": 0.8976377952755905
                },
                {
                    "duration": 0.23809500000000128,
                    "durationTicks": 240,
                    "midi": 49,
                    "name": "C#3",
                    "ticks": 45840,
                    "time": 45.476145,
                    "velocity": 0.8976377952755905
                },
                {
                    "duration": 1.8988076250000034,
                    "durationTicks": 1914,
                    "midi": 54,
                    "name": "F#3",
                    "ticks": 61440,
                    "time": 60.95232,
                    "velocity": 0.6692913385826772
                },
                {
                    "duration": 1.8988076250000034,
                    "durationTicks": 1914,
                    "midi": 58,
                    "name": "A#3",
                    "ticks": 61440,
                    "time": 60.95232,
                    "velocity": 0.6692913385826772
                },
                {
                    "duration": 1.8988076249999963,
                    "durationTicks": 1914,
                    "midi": 52,
                    "name": "E3",
                    "ticks": 63360,
                    "time": 62.85708,
                    "velocity": 0.6692913385826772
                },
                {
                    "duration": 1.8988076249999963,
                    "durationTicks": 1914,
                    "midi": 56,
                    "name": "G#3",
                    "ticks": 63360,
                    "time": 62.85708,
                    "velocity": 0.6692913385826772
                },
                {
                    "duration": 1.8988076250000034,
                    "durationTicks": 1914,
                    "midi": 51,
                    "name": "D#3",
                    "ticks": 65280,
                    "time": 64.76184,
                    "velocity": 0.6692913385826772
                },
                {
                    "duration": 1.8988076250000034,
                    "durationTicks": 1914,
                    "midi": 54,
                    "name": "F#3",
                    "ticks": 65280,
                    "time": 64.76184,
                    "velocity": 0.6692913385826772
                },
                {
                    "duration": 1.8988076250000034,
                    "durationTicks": 1914,
                    "midi": 54,
                    "name": "F#3",
                    "ticks": 67200,
                    "time": 66.6666,
                    "velocity": 0.6692913385826772
                },
                {
                    "duration": 1.8988076250000034,
                    "durationTicks": 1914,
                    "midi": 58,
                    "name": "A#3",
                    "ticks": 67200,
                    "time": 66.6666,
                    "velocity": 0.6692913385826772
                },
                {
                    "duration": 1.8988076250000034,
                    "durationTicks": 1914,
                    "midi": 54,
                    "name": "F#3",
                    "ticks": 69120,
                    "time": 68.57136,
                    "velocity": 0.6692913385826772
                },
                {
                    "duration": 1.8988076250000034,
                    "durationTicks": 1914,
                    "midi": 58,
                    "name": "A#3",
                    "ticks": 69120,
                    "time": 68.57136,
                    "velocity": 0.6692913385826772
                },
                {
                    "duration": 1.8988076250000177,
                    "durationTicks": 1914,
                    "midi": 52,
                    "name": "E3",
                    "ticks": 71040,
                    "time": 70.47612,
                    "velocity": 0.6692913385826772
                },
                {
                    "duration": 1.8988076250000177,
                    "durationTicks": 1914,
                    "midi": 56,
                    "name": "G#3",
                    "ticks": 71040,
                    "time": 70.47612,
                    "velocity": 0.6692913385826772
                },
                {
                    "duration": 1.8988076250000034,
                    "durationTicks": 1914,
                    "midi": 51,
                    "name": "D#3",
                    "ticks": 72960,
                    "time": 72.38088,
                    "velocity": 0.6692913385826772
                },
                {
                    "duration": 1.8988076250000034,
                    "durationTicks": 1914,
                    "midi": 54,
                    "name": "F#3",
                    "ticks": 72960,
                    "time": 72.38088,
                    "velocity": 0.6692913385826772
                },
                {
                    "duration": 1.8988076250000034,
                    "durationTicks": 1914,
                    "midi": 54,
                    "name": "F#3",
                    "ticks": 74880,
                    "time": 74.28564,
                    "velocity": 0.6692913385826772
                },
                {
                    "duration": 1.8988076250000034,
                    "durationTicks": 1914,
                    "midi": 58,
                    "name": "A#3",
                    "ticks": 74880,
                    "time": 74.28564,
                    "velocity": 0.6692913385826772
                },
                {
                    "duration": 1.8988076250000034,
                    "durationTicks": 1914,
                    "midi": 54,
                    "name": "F#3",
                    "ticks": 76800,
                    "time": 76.1904,
                    "velocity": 0.6692913385826772
                },
                {
                    "duration": 1.8988076250000034,
                    "durationTicks": 1914,
                    "midi": 58,
                    "name": "A#3",
                    "ticks": 76800,
                    "time": 76.1904,
                    "velocity": 0.6692913385826772
                },
                {
                    "duration": 1.8988076250000034,
                    "durationTicks": 1914,
                    "midi": 52,
                    "name": "E3",
                    "ticks": 78720,
                    "time": 78.09516,
                    "velocity": 0.6692913385826772
                },
                {
                    "duration": 1.8988076250000034,
                    "durationTicks": 1914,
                    "midi": 56,
                    "name": "G#3",
                    "ticks": 78720,
                    "time": 78.09516,
                    "velocity": 0.6692913385826772
                },
                {
                    "duration": 1.8988076250000034,
                    "durationTicks": 1914,
                    "midi": 51,
                    "name": "D#3",
                    "ticks": 80640,
                    "time": 79.99992,
                    "velocity": 0.6692913385826772
                },
                {
                    "duration": 1.8988076250000034,
                    "durationTicks": 1914,
                    "midi": 54,
                    "name": "F#3",
                    "ticks": 80640,
                    "time": 79.99992,
                    "velocity": 0.6692913385826772
                },
                {
                    "duration": 1.8988076250000034,
                    "durationTicks": 1914,
                    "midi": 54,
                    "name": "F#3",
                    "ticks": 82560,
                    "time": 81.90468,
                    "velocity": 0.6692913385826772
                },
                {
                    "duration": 1.8988076250000034,
                    "durationTicks": 1914,
                    "midi": 58,
                    "name": "A#3",
                    "ticks": 82560,
                    "time": 81.90468,
                    "velocity": 0.6692913385826772
                },
                {
                    "duration": 1.8988076250000177,
                    "durationTicks": 1914,
                    "midi": 54,
                    "name": "F#3",
                    "ticks": 84480,
                    "time": 83.80944,
                    "velocity": 0.6692913385826772
                },
                {
                    "duration": 1.8988076250000177,
                    "durationTicks": 1914,
                    "midi": 58,
                    "name": "A#3",
                    "ticks": 84480,
                    "time": 83.80944,
                    "velocity": 0.6692913385826772
                },
                {
                    "duration": 1.8988076250000034,
                    "durationTicks": 1914,
                    "midi": 52,
                    "name": "E3",
                    "ticks": 86400,
                    "time": 85.7142,
                    "velocity": 0.6692913385826772
                },
                {
                    "duration": 1.8988076250000034,
                    "durationTicks": 1914,
                    "midi": 56,
                    "name": "G#3",
                    "ticks": 86400,
                    "time": 85.7142,
                    "velocity": 0.6692913385826772
                },
                {
                    "duration": 1.8988076250000034,
                    "durationTicks": 1914,
                    "midi": 51,
                    "name": "D#3",
                    "ticks": 88320,
                    "time": 87.61896,
                    "velocity": 0.6692913385826772
                },
                {
                    "duration": 1.8988076250000034,
                    "durationTicks": 1914,
                    "midi": 54,
                    "name": "F#3",
                    "ticks": 88320,
                    "time": 87.61896,
                    "velocity": 0.6692913385826772
                },
                {
                    "duration": 1.8988076250000034,
                    "durationTicks": 1914,
                    "midi": 54,
                    "name": "F#3",
                    "ticks": 90240,
                    "time": 89.52372,
                    "velocity": 0.6692913385826772
                },
                {
                    "duration": 1.8988076250000034,
                    "durationTicks": 1914,
                    "midi": 58,
                    "name": "A#3",
                    "ticks": 90240,
                    "time": 89.52372,
                    "velocity": 0.6692913385826772
                },
                {
                    "duration": 1.8988076249999892,
                    "durationTicks": 1914,
                    "midi": 54,
                    "name": "F#3",
                    "ticks": 130560,
                    "time": 129.52368,
                    "velocity": 0.6692913385826772
                },
                {
                    "duration": 1.8988076249999892,
                    "durationTicks": 1914,
                    "midi": 58,
                    "name": "A#3",
                    "ticks": 130560,
                    "time": 129.52368,
                    "velocity": 0.6692913385826772
                },
                {
                    "duration": 1.8988076250000177,
                    "durationTicks": 1914,
                    "midi": 52,
                    "name": "E3",
                    "ticks": 132480,
                    "time": 131.42844,
                    "velocity": 0.6692913385826772
                },
                {
                    "duration": 1.8988076250000177,
                    "durationTicks": 1914,
                    "midi": 56,
                    "name": "G#3",
                    "ticks": 132480,
                    "time": 131.42844,
                    "velocity": 0.6692913385826772
                },
                {
                    "duration": 1.8988076249999892,
                    "durationTicks": 1914,
                    "midi": 51,
                    "name": "D#3",
                    "ticks": 134400,
                    "time": 133.3332,
                    "velocity": 0.6692913385826772
                },
                {
                    "duration": 1.8988076249999892,
                    "durationTicks": 1914,
                    "midi": 54,
                    "name": "F#3",
                    "ticks": 134400,
                    "time": 133.3332,
                    "velocity": 0.6692913385826772
                },
                {
                    "duration": 1.8988076250000177,
                    "durationTicks": 1914,
                    "midi": 54,
                    "name": "F#3",
                    "ticks": 136320,
                    "time": 135.23796,
                    "velocity": 0.6692913385826772
                },
                {
                    "duration": 1.8988076250000177,
                    "durationTicks": 1914,
                    "midi": 58,
                    "name": "A#3",
                    "ticks": 136320,
                    "time": 135.23796,
                    "velocity": 0.6692913385826772
                },
                {
                    "duration": 1.8988076250000177,
                    "durationTicks": 1914,
                    "midi": 54,
                    "name": "F#3",
                    "ticks": 138240,
                    "time": 137.14272,
                    "velocity": 0.6692913385826772
                },
                {
                    "duration": 1.8988076250000177,
                    "durationTicks": 1914,
                    "midi": 58,
                    "name": "A#3",
                    "ticks": 138240,
                    "time": 137.14272,
                    "velocity": 0.6692913385826772
                },
                {
                    "duration": 1.8988076249999892,
                    "durationTicks": 1914,
                    "midi": 52,
                    "name": "E3",
                    "ticks": 140160,
                    "time": 139.04748,
                    "velocity": 0.6692913385826772
                },
                {
                    "duration": 1.8988076249999892,
                    "durationTicks": 1914,
                    "midi": 56,
                    "name": "G#3",
                    "ticks": 140160,
                    "time": 139.04748,
                    "velocity": 0.6692913385826772
                },
                {
                    "duration": 1.8988076250000177,
                    "durationTicks": 1914,
                    "midi": 51,
                    "name": "D#3",
                    "ticks": 142080,
                    "time": 140.95224,
                    "velocity": 0.6692913385826772
                },
                {
                    "duration": 1.8988076250000177,
                    "durationTicks": 1914,
                    "midi": 54,
                    "name": "F#3",
                    "ticks": 142080,
                    "time": 140.95224,
                    "velocity": 0.6692913385826772
                },
                {
                    "duration": 1.8988076250000177,
                    "durationTicks": 1914,
                    "midi": 54,
                    "name": "F#3",
                    "ticks": 144000,
                    "time": 142.857,
                    "velocity": 0.6692913385826772
                },
                {
                    "duration": 1.8988076250000177,
                    "durationTicks": 1914,
                    "midi": 58,
                    "name": "A#3",
                    "ticks": 144000,
                    "time": 142.857,
                    "velocity": 0.6692913385826772
                },
                {
                    "duration": 1.8988076249999892,
                    "durationTicks": 1914,
                    "midi": 54,
                    "name": "F#3",
                    "ticks": 145920,
                    "time": 144.76176,
                    "velocity": 0.6692913385826772
                },
                {
                    "duration": 1.8988076249999892,
                    "durationTicks": 1914,
                    "midi": 58,
                    "name": "A#3",
                    "ticks": 145920,
                    "time": 144.76176,
                    "velocity": 0.6692913385826772
                },
                {
                    "duration": 1.8988076250000177,
                    "durationTicks": 1914,
                    "midi": 52,
                    "name": "E3",
                    "ticks": 147840,
                    "time": 146.66652,
                    "velocity": 0.6692913385826772
                },
                {
                    "duration": 1.8988076250000177,
                    "durationTicks": 1914,
                    "midi": 56,
                    "name": "G#3",
                    "ticks": 147840,
                    "time": 146.66652,
                    "velocity": 0.6692913385826772
                },
                {
                    "duration": 1.8988076250000177,
                    "durationTicks": 1914,
                    "midi": 51,
                    "name": "D#3",
                    "ticks": 149760,
                    "time": 148.57128,
                    "velocity": 0.6692913385826772
                },
                {
                    "duration": 1.8988076250000177,
                    "durationTicks": 1914,
                    "midi": 54,
                    "name": "F#3",
                    "ticks": 149760,
                    "time": 148.57128,
                    "velocity": 0.6692913385826772
                },
                {
                    "duration": 1.8988076249999892,
                    "durationTicks": 1914,
                    "midi": 54,
                    "name": "F#3",
                    "ticks": 151680,
                    "time": 150.47604,
                    "velocity": 0.6692913385826772
                },
                {
                    "duration": 1.8988076249999892,
                    "durationTicks": 1914,
                    "midi": 58,
                    "name": "A#3",
                    "ticks": 151680,
                    "time": 150.47604,
                    "velocity": 0.6692913385826772
                },
                {
                    "duration": 1.8988076250000177,
                    "durationTicks": 1914,
                    "midi": 54,
                    "name": "F#3",
                    "ticks": 153600,
                    "time": 152.3808,
                    "velocity": 0.6692913385826772
                },
                {
                    "duration": 1.8988076250000177,
                    "durationTicks": 1914,
                    "midi": 58,
                    "name": "A#3",
                    "ticks": 153600,
                    "time": 152.3808,
                    "velocity": 0.6692913385826772
                },
                {
                    "duration": 1.8988076249999892,
                    "durationTicks": 1914,
                    "midi": 52,
                    "name": "E3",
                    "ticks": 155520,
                    "time": 154.28556,
                    "velocity": 0.6692913385826772
                },
                {
                    "duration": 1.8988076249999892,
                    "durationTicks": 1914,
                    "midi": 56,
                    "name": "G#3",
                    "ticks": 155520,
                    "time": 154.28556,
                    "velocity": 0.6692913385826772
                },
                {
                    "duration": 1.8988076249999892,
                    "durationTicks": 1914,
                    "midi": 51,
                    "name": "D#3",
                    "ticks": 157440,
                    "time": 156.19032,
                    "velocity": 0.6692913385826772
                },
                {
                    "duration": 1.8988076249999892,
                    "durationTicks": 1914,
                    "midi": 54,
                    "name": "F#3",
                    "ticks": 157440,
                    "time": 156.19032,
                    "velocity": 0.6692913385826772
                },
                {
                    "duration": 1.8988076250000177,
                    "durationTicks": 1914,
                    "midi": 54,
                    "name": "F#3",
                    "ticks": 159360,
                    "time": 158.09508,
                    "velocity": 0.6692913385826772
                },
                {
                    "duration": 1.8988076250000177,
                    "durationTicks": 1914,
                    "midi": 58,
                    "name": "A#3",
                    "ticks": 159360,
                    "time": 158.09508,
                    "velocity": 0.6692913385826772
                },
                {
                    "duration": 1.8988076250000177,
                    "durationTicks": 1914,
                    "midi": 54,
                    "name": "F#3",
                    "ticks": 176640,
                    "time": 175.23792,
                    "velocity": 0.6692913385826772
                },
                {
                    "duration": 1.8988076250000177,
                    "durationTicks": 1914,
                    "midi": 58,
                    "name": "A#3",
                    "ticks": 176640,
                    "time": 175.23792,
                    "velocity": 0.6692913385826772
                },
                {
                    "duration": 1.8988076249999892,
                    "durationTicks": 1914,
                    "midi": 54,
                    "name": "F#3",
                    "ticks": 178560,
                    "time": 177.14268,
                    "velocity": 0.6692913385826772
                },
                {
                    "duration": 1.8988076249999892,
                    "durationTicks": 1914,
                    "midi": 58,
                    "name": "A#3",
                    "ticks": 178560,
                    "time": 177.14268,
                    "velocity": 0.6692913385826772
                },
                {
                    "duration": 1.8988076250000177,
                    "durationTicks": 1914,
                    "midi": 54,
                    "name": "F#3",
                    "ticks": 180480,
                    "time": 179.04744,
                    "velocity": 0.6692913385826772
                },
                {
                    "duration": 1.8988076250000177,
                    "durationTicks": 1914,
                    "midi": 58,
                    "name": "A#3",
                    "ticks": 180480,
                    "time": 179.04744,
                    "velocity": 0.6692913385826772
                },
                {
                    "duration": 1.8988076249999892,
                    "durationTicks": 1914,
                    "midi": 54,
                    "name": "F#3",
                    "ticks": 182400,
                    "time": 180.9522,
                    "velocity": 0.6692913385826772
                },
                {
                    "duration": 1.8988076249999892,
                    "durationTicks": 1914,
                    "midi": 58,
                    "name": "A#3",
                    "ticks": 182400,
                    "time": 180.9522,
                    "velocity": 0.6692913385826772
                },
                {
                    "duration": 1.8988076249999892,
                    "durationTicks": 1914,
                    "midi": 54,
                    "name": "F#3",
                    "ticks": 184320,
                    "time": 182.85696000000002,
                    "velocity": 0.7480314960629921
                },
                {
                    "duration": 1.8988076249999892,
                    "durationTicks": 1914,
                    "midi": 61,
                    "name": "C#4",
                    "ticks": 184320,
                    "time": 182.85696000000002,
                    "velocity": 0.7480314960629921
                },
                {
                    "duration": 1.8988076249999892,
                    "durationTicks": 1914,
                    "midi": 66,
                    "name": "F#4",
                    "ticks": 184320,
                    "time": 182.85696000000002,
                    "velocity": 0.7480314960629921
                },
                {
                    "duration": 1.8988076250000177,
                    "durationTicks": 1914,
                    "midi": 52,
                    "name": "E3",
                    "ticks": 186240,
                    "time": 184.76172,
                    "velocity": 0.7480314960629921
                },
                {
                    "duration": 1.8988076250000177,
                    "durationTicks": 1914,
                    "midi": 59,
                    "name": "B3",
                    "ticks": 186240,
                    "time": 184.76172,
                    "velocity": 0.7480314960629921
                },
                {
                    "duration": 1.8988076250000177,
                    "durationTicks": 1914,
                    "midi": 64,
                    "name": "E4",
                    "ticks": 186240,
                    "time": 184.76172,
                    "velocity": 0.7480314960629921
                },
                {
                    "duration": 1.9037679374999925,
                    "durationTicks": 1919,
                    "midi": 59,
                    "name": "B3",
                    "ticks": 188160,
                    "time": 186.66648,
                    "velocity": 0.7480314960629921
                },
                {
                    "duration": 1.9037679374999925,
                    "durationTicks": 1919,
                    "midi": 66,
                    "name": "F#4",
                    "ticks": 188160,
                    "time": 186.66648,
                    "velocity": 0.7480314960629921
                },
                {
                    "duration": 1.8988076250000177,
                    "durationTicks": 1914,
                    "midi": 61,
                    "name": "C#4",
                    "ticks": 190080,
                    "time": 188.57124,
                    "velocity": 0.7480314960629921
                },
                {
                    "duration": 1.8988076250000177,
                    "durationTicks": 1914,
                    "midi": 66,
                    "name": "F#4",
                    "ticks": 190080,
                    "time": 188.57124,
                    "velocity": 0.7480314960629921
                },
                {
                    "duration": 1.8988076250000177,
                    "durationTicks": 1914,
                    "midi": 54,
                    "name": "F#3",
                    "ticks": 192000,
                    "time": 190.476,
                    "velocity": 0.7480314960629921
                },
                {
                    "duration": 1.8988076250000177,
                    "durationTicks": 1914,
                    "midi": 61,
                    "name": "C#4",
                    "ticks": 192000,
                    "time": 190.476,
                    "velocity": 0.7480314960629921
                },
                {
                    "duration": 1.8988076250000177,
                    "durationTicks": 1914,
                    "midi": 66,
                    "name": "F#4",
                    "ticks": 192000,
                    "time": 190.476,
                    "velocity": 0.7480314960629921
                },
                {
                    "duration": 1.8988076249999892,
                    "durationTicks": 1914,
                    "midi": 52,
                    "name": "E3",
                    "ticks": 193920,
                    "time": 192.38076,
                    "velocity": 0.7480314960629921
                },
                {
                    "duration": 1.8988076249999892,
                    "durationTicks": 1914,
                    "midi": 59,
                    "name": "B3",
                    "ticks": 193920,
                    "time": 192.38076,
                    "velocity": 0.7480314960629921
                },
                {
                    "duration": 1.8988076249999892,
                    "durationTicks": 1914,
                    "midi": 64,
                    "name": "E4",
                    "ticks": 193920,
                    "time": 192.38076,
                    "velocity": 0.7480314960629921
                },
                {
                    "duration": 1.9037679374999925,
                    "durationTicks": 1919,
                    "midi": 59,
                    "name": "B3",
                    "ticks": 195840,
                    "time": 194.28552,
                    "velocity": 0.7480314960629921
                },
                {
                    "duration": 1.9037679374999925,
                    "durationTicks": 1919,
                    "midi": 66,
                    "name": "F#4",
                    "ticks": 195840,
                    "time": 194.28552,
                    "velocity": 0.7480314960629921
                },
                {
                    "duration": 1.8988076249999892,
                    "durationTicks": 1914,
                    "midi": 54,
                    "name": "F#3",
                    "ticks": 199680,
                    "time": 198.09504,
                    "velocity": 0.6692913385826772
                },
                {
                    "duration": 1.8988076249999892,
                    "durationTicks": 1914,
                    "midi": 58,
                    "name": "A#3",
                    "ticks": 199680,
                    "time": 198.09504,
                    "velocity": 0.6692913385826772
                },
                {
                    "duration": 1.8988076250000177,
                    "durationTicks": 1914,
                    "midi": 52,
                    "name": "E3",
                    "ticks": 201600,
                    "time": 199.9998,
                    "velocity": 0.6692913385826772
                },
                {
                    "duration": 1.8988076250000177,
                    "durationTicks": 1914,
                    "midi": 56,
                    "name": "G#3",
                    "ticks": 201600,
                    "time": 199.9998,
                    "velocity": 0.6692913385826772
                },
                {
                    "duration": 1.8988076249999892,
                    "durationTicks": 1914,
                    "midi": 51,
                    "name": "D#3",
                    "ticks": 203520,
                    "time": 201.90456,
                    "velocity": 0.6692913385826772
                },
                {
                    "duration": 1.8988076249999892,
                    "durationTicks": 1914,
                    "midi": 54,
                    "name": "F#3",
                    "ticks": 203520,
                    "time": 201.90456,
                    "velocity": 0.6692913385826772
                },
                {
                    "duration": 1.8988076249999892,
                    "durationTicks": 1914,
                    "midi": 54,
                    "name": "F#3",
                    "ticks": 205440,
                    "time": 203.80932,
                    "velocity": 0.6692913385826772
                },
                {
                    "duration": 1.8988076249999892,
                    "durationTicks": 1914,
                    "midi": 58,
                    "name": "A#3",
                    "ticks": 205440,
                    "time": 203.80932,
                    "velocity": 0.6692913385826772
                },
                {
                    "duration": 1.8988076250000177,
                    "durationTicks": 1914,
                    "midi": 54,
                    "name": "F#3",
                    "ticks": 207360,
                    "time": 205.71408,
                    "velocity": 0.6692913385826772
                },
                {
                    "duration": 1.8988076250000177,
                    "durationTicks": 1914,
                    "midi": 58,
                    "name": "A#3",
                    "ticks": 207360,
                    "time": 205.71408,
                    "velocity": 0.6692913385826772
                },
                {
                    "duration": 1.8988076249999892,
                    "durationTicks": 1914,
                    "midi": 52,
                    "name": "E3",
                    "ticks": 209280,
                    "time": 207.61884,
                    "velocity": 0.6692913385826772
                },
                {
                    "duration": 1.8988076249999892,
                    "durationTicks": 1914,
                    "midi": 56,
                    "name": "G#3",
                    "ticks": 209280,
                    "time": 207.61884,
                    "velocity": 0.6692913385826772
                },
                {
                    "duration": 1.8988076250000177,
                    "durationTicks": 1914,
                    "midi": 51,
                    "name": "D#3",
                    "ticks": 211200,
                    "time": 209.5236,
                    "velocity": 0.6692913385826772
                },
                {
                    "duration": 1.8988076250000177,
                    "durationTicks": 1914,
                    "midi": 54,
                    "name": "F#3",
                    "ticks": 211200,
                    "time": 209.5236,
                    "velocity": 0.6692913385826772
                },
                {
                    "duration": 1.8988076250000177,
                    "durationTicks": 1914,
                    "midi": 54,
                    "name": "F#3",
                    "ticks": 213120,
                    "time": 211.42836,
                    "velocity": 0.6692913385826772
                },
                {
                    "duration": 1.8988076250000177,
                    "durationTicks": 1914,
                    "midi": 58,
                    "name": "A#3",
                    "ticks": 213120,
                    "time": 211.42836,
                    "velocity": 0.6692913385826772
                },
                {
                    "duration": 1.8988076249999892,
                    "durationTicks": 1914,
                    "midi": 54,
                    "name": "F#3",
                    "ticks": 215040,
                    "time": 213.33312,
                    "velocity": 0.6692913385826772
                },
                {
                    "duration": 1.8988076249999892,
                    "durationTicks": 1914,
                    "midi": 58,
                    "name": "A#3",
                    "ticks": 215040,
                    "time": 213.33312,
                    "velocity": 0.6692913385826772
                },
                {
                    "duration": 1.8988076250000177,
                    "durationTicks": 1914,
                    "midi": 52,
                    "name": "E3",
                    "ticks": 216960,
                    "time": 215.23788,
                    "velocity": 0.6692913385826772
                },
                {
                    "duration": 1.8988076250000177,
                    "durationTicks": 1914,
                    "midi": 56,
                    "name": "G#3",
                    "ticks": 216960,
                    "time": 215.23788,
                    "velocity": 0.6692913385826772
                },
                {
                    "duration": 1.8988076250000177,
                    "durationTicks": 1914,
                    "midi": 51,
                    "name": "D#3",
                    "ticks": 218880,
                    "time": 217.14264,
                    "velocity": 0.6692913385826772
                },
                {
                    "duration": 1.8988076250000177,
                    "durationTicks": 1914,
                    "midi": 54,
                    "name": "F#3",
                    "ticks": 218880,
                    "time": 217.14264,
                    "velocity": 0.6692913385826772
                },
                {
                    "duration": 1.8988076249999892,
                    "durationTicks": 1914,
                    "midi": 54,
                    "name": "F#3",
                    "ticks": 220800,
                    "time": 219.0474,
                    "velocity": 0.6692913385826772
                },
                {
                    "duration": 1.8988076249999892,
                    "durationTicks": 1914,
                    "midi": 58,
                    "name": "A#3",
                    "ticks": 220800,
                    "time": 219.0474,
                    "velocity": 0.6692913385826772
                },
                {
                    "duration": 1.8988076250000177,
                    "durationTicks": 1914,
                    "midi": 54,
                    "name": "F#3",
                    "ticks": 222720,
                    "time": 220.95216,
                    "velocity": 0.6692913385826772
                },
                {
                    "duration": 1.8988076250000177,
                    "durationTicks": 1914,
                    "midi": 58,
                    "name": "A#3",
                    "ticks": 222720,
                    "time": 220.95216,
                    "velocity": 0.6692913385826772
                },
                {
                    "duration": 1.8988076250000177,
                    "durationTicks": 1914,
                    "midi": 52,
                    "name": "E3",
                    "ticks": 224640,
                    "time": 222.85692,
                    "velocity": 0.6692913385826772
                },
                {
                    "duration": 1.8988076250000177,
                    "durationTicks": 1914,
                    "midi": 56,
                    "name": "G#3",
                    "ticks": 224640,
                    "time": 222.85692,
                    "velocity": 0.6692913385826772
                },
                {
                    "duration": 1.8988076249999892,
                    "durationTicks": 1914,
                    "midi": 51,
                    "name": "D#3",
                    "ticks": 226560,
                    "time": 224.76168,
                    "velocity": 0.6692913385826772
                },
                {
                    "duration": 1.8988076249999892,
                    "durationTicks": 1914,
                    "midi": 54,
                    "name": "F#3",
                    "ticks": 226560,
                    "time": 224.76168,
                    "velocity": 0.6692913385826772
                },
                {
                    "duration": 1.8988076250000177,
                    "durationTicks": 1914,
                    "midi": 54,
                    "name": "F#3",
                    "ticks": 228480,
                    "time": 226.66644,
                    "velocity": 0.6692913385826772
                },
                {
                    "duration": 1.8988076250000177,
                    "durationTicks": 1914,
                    "midi": 58,
                    "name": "A#3",
                    "ticks": 228480,
                    "time": 226.66644,
                    "velocity": 0.6692913385826772
                },
                {
                    "duration": 1.8988076249999892,
                    "durationTicks": 1914,
                    "midi": 54,
                    "name": "F#3",
                    "ticks": 230400,
                    "time": 228.5712,
                    "velocity": 0.7480314960629921
                },
                {
                    "duration": 1.8988076249999892,
                    "durationTicks": 1914,
                    "midi": 61,
                    "name": "C#4",
                    "ticks": 230400,
                    "time": 228.5712,
                    "velocity": 0.7480314960629921
                },
                {
                    "duration": 1.8988076249999892,
                    "durationTicks": 1914,
                    "midi": 66,
                    "name": "F#4",
                    "ticks": 230400,
                    "time": 228.5712,
                    "velocity": 0.7480314960629921
                },
                {
                    "duration": 1.8988076249999892,
                    "durationTicks": 1914,
                    "midi": 52,
                    "name": "E3",
                    "ticks": 232320,
                    "time": 230.47596000000001,
                    "velocity": 0.7480314960629921
                },
                {
                    "duration": 1.8988076249999892,
                    "durationTicks": 1914,
                    "midi": 59,
                    "name": "B3",
                    "ticks": 232320,
                    "time": 230.47596000000001,
                    "velocity": 0.7480314960629921
                },
                {
                    "duration": 1.8988076249999892,
                    "durationTicks": 1914,
                    "midi": 64,
                    "name": "E4",
                    "ticks": 232320,
                    "time": 230.47596000000001,
                    "velocity": 0.7480314960629921
                },
                {
                    "duration": 1.9037679374999925,
                    "durationTicks": 1919,
                    "midi": 59,
                    "name": "B3",
                    "ticks": 234240,
                    "time": 232.38072,
                    "velocity": 0.7480314960629921
                },
                {
                    "duration": 1.9037679374999925,
                    "durationTicks": 1919,
                    "midi": 66,
                    "name": "F#4",
                    "ticks": 234240,
                    "time": 232.38072,
                    "velocity": 0.7480314960629921
                },
                {
                    "duration": 1.8988076249999892,
                    "durationTicks": 1914,
                    "midi": 61,
                    "name": "C#4",
                    "ticks": 236160,
                    "time": 234.28548,
                    "velocity": 0.7480314960629921
                },
                {
                    "duration": 1.8988076249999892,
                    "durationTicks": 1914,
                    "midi": 66,
                    "name": "F#4",
                    "ticks": 236160,
                    "time": 234.28548,
                    "velocity": 0.7480314960629921
                }
            ]
        },
        {
            "channel": 0,
            "controlChanges": {
                "0": [
                    {
                        "number": 0,
                        "ticks": 0,
                        "time": 0,
                        "value": 0
                    }
                ]
            },
            "pitchBends": [],
            "instrument": {
                "family": "piano",
                "name": "acoustic grand piano",
                "number": 0
            },
            "name": "String Ensemble 1",
            "notes": []
        },
        {
            "channel": 8,
            "controlChanges": {
                "1": [
                    {
                        "number": 1,
                        "ticks": 825,
                        "time": 0.8184515625,
                        "value": 0
                    }
                ],
                "7": [
                    {
                        "number": 7,
                        "ticks": 500,
                        "time": 0.49603125000000003,
                        "value": 0.7637795275590551
                    },
                    {
                        "number": 7,
                        "ticks": 3735,
                        "time": 3.7053534375,
                        "value": 1
                    },
                    {
                        "number": 7,
                        "ticks": 161295,
                        "time": 160.0147209375,
                        "value": 1
                    },
                    {
                        "number": 7,
                        "ticks": 197385,
                        "time": 195.8182565625,
                        "value": 0.8267716535433071
                    },
                    {
                        "number": 7,
                        "ticks": 197445,
                        "time": 195.8777803125,
                        "value": 0.6614173228346457
                    },
                    {
                        "number": 7,
                        "ticks": 197475,
                        "time": 195.9075421875,
                        "value": 0.6377952755905512
                    },
                    {
                        "number": 7,
                        "ticks": 197505,
                        "time": 195.9373040625,
                        "value": 0.5669291338582677
                    },
                    {
                        "number": 7,
                        "ticks": 197625,
                        "time": 196.0563515625,
                        "value": 0.5905511811023622
                    },
                    {
                        "number": 7,
                        "ticks": 197655,
                        "time": 196.0861134375,
                        "value": 0.6141732283464567
                    },
                    {
                        "number": 7,
                        "ticks": 197685,
                        "time": 196.1158753125,
                        "value": 0.6614173228346457
                    },
                    {
                        "number": 7,
                        "ticks": 197715,
                        "time": 196.1456371875,
                        "value": 0.7559055118110236
                    },
                    {
                        "number": 7,
                        "ticks": 197745,
                        "time": 196.1753990625,
                        "value": 0.7795275590551181
                    }
                ],
                "10": [
                    {
                        "number": 10,
                        "ticks": 550,
                        "time": 0.545634375,
                        "value": 0.4566929133858268
                    }
                ],
                "11": [
                    {
                        "number": 11,
                        "ticks": 775,
                        "time": 0.7688484375,
                        "value": 1
                    }
                ],
                "64": [
                    {
                        "number": 64,
                        "ticks": 725,
                        "time": 0.7192453125,
                        "value": 0
                    }
                ],
                "91": [
                    {
                        "number": 91,
                        "ticks": 625,
                        "time": 0.6200390625,
                        "value": 0.7244094488188977
                    }
                ],
                "93": [
                    {
                        "number": 93,
                        "ticks": 675,
                        "time": 0.6696421875,
                        "value": 0.14960629921259844
                    }
                ],
                "121": [
                    {
                        "number": 121,
                        "ticks": 332,
                        "time": 0.32936475,
                        "value": 0
                    }
                ]
            },
            "pitchBends": [
                {
                    "ticks": 875,
                    "time": 0.8680546875,
                    "value": 0
                }
            ],
            "instrument": {
                "family": "ensemble",
                "name": "string ensemble 1",
                "number": 48
            },
            "name": "",
            "notes": [
                {
                    "duration": 0.06746025000000033,
                    "durationTicks": 68,
                    "midi": 37,
                    "name": "C#2",
                    "ticks": 3840,
                    "time": 3.80952,
                    "velocity": 1
                },
                {
                    "duration": 0.06746025000000033,
                    "durationTicks": 68,
                    "midi": 37,
                    "name": "C#2",
                    "ticks": 3960,
                    "time": 3.9285675,
                    "velocity": 1
                },
                {
                    "duration": 0.06746024999999989,
                    "durationTicks": 68,
                    "midi": 40,
                    "name": "E2",
                    "ticks": 4080,
                    "time": 4.047615,
                    "velocity": 1
                },
                {
                    "duration": 0.06746024999999989,
                    "durationTicks": 68,
                    "midi": 44,
                    "name": "G#2",
                    "ticks": 4200,
                    "time": 4.1666625,
                    "velocity": 0.8582677165354331
                },
                {
                    "duration": 0.06746025000000078,
                    "durationTicks": 68,
                    "midi": 40,
                    "name": "E2",
                    "ticks": 4320,
                    "time": 4.28571,
                    "velocity": 0.8582677165354331
                },
                {
                    "duration": 0.06746025000000078,
                    "durationTicks": 68,
                    "midi": 37,
                    "name": "C#2",
                    "ticks": 4440,
                    "time": 4.4047575,
                    "velocity": 1
                },
                {
                    "duration": 0.06746024999999989,
                    "durationTicks": 68,
                    "midi": 40,
                    "name": "E2",
                    "ticks": 4560,
                    "time": 4.523805,
                    "velocity": 0.905511811023622
                },
                {
                    "duration": 0.06746025000000078,
                    "durationTicks": 68,
                    "midi": 44,
                    "name": "G#2",
                    "ticks": 4680,
                    "time": 4.6428525,
                    "velocity": 1
                },
                {
                    "duration": 0.06746025000000078,
                    "durationTicks": 68,
                    "midi": 40,
                    "name": "E2",
                    "ticks": 4800,
                    "time": 4.7619,
                    "velocity": 0.9763779527559056
                },
                {
                    "duration": 0.06746024999999989,
                    "durationTicks": 68,
                    "midi": 37,
                    "name": "C#2",
                    "ticks": 4920,
                    "time": 4.8809475,
                    "velocity": 1
                },
                {
                    "duration": 0.06746024999999989,
                    "durationTicks": 68,
                    "midi": 40,
                    "name": "E2",
                    "ticks": 5040,
                    "time": 4.999995,
                    "velocity": 0.9763779527559056
                },
                {
                    "duration": 0.06746025000000078,
                    "durationTicks": 68,
                    "midi": 44,
                    "name": "G#2",
                    "ticks": 5160,
                    "time": 5.1190425,
                    "velocity": 0.905511811023622
                },
                {
                    "duration": 0.06746025000000078,
                    "durationTicks": 68,
                    "midi": 40,
                    "name": "E2",
                    "ticks": 5280,
                    "time": 5.23809,
                    "velocity": 1
                },
                {
                    "duration": 0.06746024999999989,
                    "durationTicks": 68,
                    "midi": 37,
                    "name": "C#2",
                    "ticks": 5400,
                    "time": 5.3571375,
                    "velocity": 0.905511811023622
                },
                {
                    "duration": 0.06746025000000078,
                    "durationTicks": 68,
                    "midi": 40,
                    "name": "E2",
                    "ticks": 5520,
                    "time": 5.476185,
                    "velocity": 1
                },
                {
                    "duration": 0.06746025000000078,
                    "durationTicks": 68,
                    "midi": 37,
                    "name": "C#2",
                    "ticks": 5640,
                    "time": 5.5952325,
                    "velocity": 1
                },
                {
                    "duration": 0.06746024999999989,
                    "durationTicks": 68,
                    "midi": 37,
                    "name": "C#2",
                    "ticks": 5760,
                    "time": 5.7142800000000005,
                    "velocity": 1
                },
                {
                    "duration": 0.06746024999999989,
                    "durationTicks": 68,
                    "midi": 37,
                    "name": "C#2",
                    "ticks": 5880,
                    "time": 5.8333275,
                    "velocity": 1
                },
                {
                    "duration": 0.06746025000000078,
                    "durationTicks": 68,
                    "midi": 40,
                    "name": "E2",
                    "ticks": 6000,
                    "time": 5.952375,
                    "velocity": 1
                },
                {
                    "duration": 0.06746025000000078,
                    "durationTicks": 68,
                    "midi": 44,
                    "name": "G#2",
                    "ticks": 6120,
                    "time": 6.0714225,
                    "velocity": 0.8582677165354331
                },
                {
                    "duration": 0.06746024999999989,
                    "durationTicks": 68,
                    "midi": 40,
                    "name": "E2",
                    "ticks": 6240,
                    "time": 6.19047,
                    "velocity": 0.8582677165354331
                },
                {
                    "duration": 0.06746024999999989,
                    "durationTicks": 68,
                    "midi": 37,
                    "name": "C#2",
                    "ticks": 6360,
                    "time": 6.3095175,
                    "velocity": 1
                },
                {
                    "duration": 0.06746025000000078,
                    "durationTicks": 68,
                    "midi": 40,
                    "name": "E2",
                    "ticks": 6480,
                    "time": 6.428565,
                    "velocity": 0.905511811023622
                },
                {
                    "duration": 0.06746025000000078,
                    "durationTicks": 68,
                    "midi": 44,
                    "name": "G#2",
                    "ticks": 6600,
                    "time": 6.5476125,
                    "velocity": 1
                },
                {
                    "duration": 0.06746024999999989,
                    "durationTicks": 68,
                    "midi": 40,
                    "name": "E2",
                    "ticks": 6720,
                    "time": 6.66666,
                    "velocity": 0.9763779527559056
                },
                {
                    "duration": 0.06746025000000078,
                    "durationTicks": 68,
                    "midi": 37,
                    "name": "C#2",
                    "ticks": 6840,
                    "time": 6.7857075,
                    "velocity": 1
                },
                {
                    "duration": 0.06746025000000078,
                    "durationTicks": 68,
                    "midi": 40,
                    "name": "E2",
                    "ticks": 6960,
                    "time": 6.904755,
                    "velocity": 0.9763779527559056
                },
                {
                    "duration": 0.06746024999999989,
                    "durationTicks": 68,
                    "midi": 44,
                    "name": "G#2",
                    "ticks": 7080,
                    "time": 7.0238025,
                    "velocity": 0.905511811023622
                },
                {
                    "duration": 0.06746024999999989,
                    "durationTicks": 68,
                    "midi": 40,
                    "name": "E2",
                    "ticks": 7200,
                    "time": 7.14285,
                    "velocity": 1
                },
                {
                    "duration": 0.06746025000000078,
                    "durationTicks": 68,
                    "midi": 37,
                    "name": "C#2",
                    "ticks": 7320,
                    "time": 7.2618975,
                    "velocity": 0.905511811023622
                },
                {
                    "duration": 0.06746025000000078,
                    "durationTicks": 68,
                    "midi": 40,
                    "name": "E2",
                    "ticks": 7440,
                    "time": 7.380945,
                    "velocity": 1
                },
                {
                    "duration": 0.06746024999999989,
                    "durationTicks": 68,
                    "midi": 37,
                    "name": "C#2",
                    "ticks": 7560,
                    "time": 7.4999925,
                    "velocity": 1
                },
                {
                    "duration": 0.06746024999999989,
                    "durationTicks": 68,
                    "midi": 37,
                    "name": "C#2",
                    "ticks": 7680,
                    "time": 7.61904,
                    "velocity": 1
                },
                {
                    "duration": 0.06746024999999989,
                    "durationTicks": 68,
                    "midi": 37,
                    "name": "C#2",
                    "ticks": 7800,
                    "time": 7.7380875,
                    "velocity": 1
                },
                {
                    "duration": 0.067460249999999,
                    "durationTicks": 68,
                    "midi": 40,
                    "name": "E2",
                    "ticks": 7920,
                    "time": 7.857135,
                    "velocity": 1
                },
                {
                    "duration": 0.06746024999999989,
                    "durationTicks": 68,
                    "midi": 44,
                    "name": "G#2",
                    "ticks": 8040,
                    "time": 7.9761825,
                    "velocity": 0.8582677165354331
                },
                {
                    "duration": 0.06746024999999811,
                    "durationTicks": 68,
                    "midi": 40,
                    "name": "E2",
                    "ticks": 8160,
                    "time": 8.09523,
                    "velocity": 0.8582677165354331
                },
                {
                    "duration": 0.06746024999999989,
                    "durationTicks": 68,
                    "midi": 37,
                    "name": "C#2",
                    "ticks": 8280,
                    "time": 8.2142775,
                    "velocity": 1
                },
                {
                    "duration": 0.06746024999999989,
                    "durationTicks": 68,
                    "midi": 40,
                    "name": "E2",
                    "ticks": 8400,
                    "time": 8.333325,
                    "velocity": 0.905511811023622
                },
                {
                    "duration": 0.06746024999999989,
                    "durationTicks": 68,
                    "midi": 44,
                    "name": "G#2",
                    "ticks": 8520,
                    "time": 8.4523725,
                    "velocity": 1
                },
                {
                    "duration": 0.06746024999999989,
                    "durationTicks": 68,
                    "midi": 40,
                    "name": "E2",
                    "ticks": 8640,
                    "time": 8.57142,
                    "velocity": 0.9763779527559056
                },
                {
                    "duration": 0.06746024999999989,
                    "durationTicks": 68,
                    "midi": 37,
                    "name": "C#2",
                    "ticks": 8760,
                    "time": 8.6904675,
                    "velocity": 1
                },
                {
                    "duration": 0.06746024999999989,
                    "durationTicks": 68,
                    "midi": 40,
                    "name": "E2",
                    "ticks": 8880,
                    "time": 8.809515,
                    "velocity": 0.9763779527559056
                },
                {
                    "duration": 0.06746024999999989,
                    "durationTicks": 68,
                    "midi": 44,
                    "name": "G#2",
                    "ticks": 9000,
                    "time": 8.9285625,
                    "velocity": 0.905511811023622
                },
                {
                    "duration": 0.06746024999999811,
                    "durationTicks": 68,
                    "midi": 40,
                    "name": "E2",
                    "ticks": 9120,
                    "time": 9.04761,
                    "velocity": 1
                },
                {
                    "duration": 0.06746024999999989,
                    "durationTicks": 68,
                    "midi": 37,
                    "name": "C#2",
                    "ticks": 9240,
                    "time": 9.1666575,
                    "velocity": 0.905511811023622
                },
                {
                    "duration": 0.06746024999999989,
                    "durationTicks": 68,
                    "midi": 40,
                    "name": "E2",
                    "ticks": 9360,
                    "time": 9.285705,
                    "velocity": 1
                },
                {
                    "duration": 0.06746024999999811,
                    "durationTicks": 68,
                    "midi": 37,
                    "name": "C#2",
                    "ticks": 9480,
                    "time": 9.4047525,
                    "velocity": 1
                },
                {
                    "duration": 0.06746024999999989,
                    "durationTicks": 68,
                    "midi": 37,
                    "name": "C#2",
                    "ticks": 9600,
                    "time": 9.5238,
                    "velocity": 1
                },
                {
                    "duration": 0.06746024999999989,
                    "durationTicks": 68,
                    "midi": 37,
                    "name": "C#2",
                    "ticks": 9720,
                    "time": 9.6428475,
                    "velocity": 1
                },
                {
                    "duration": 0.06746024999999811,
                    "durationTicks": 68,
                    "midi": 40,
                    "name": "E2",
                    "ticks": 9840,
                    "time": 9.761895,
                    "velocity": 1
                },
                {
                    "duration": 0.06746024999999989,
                    "durationTicks": 68,
                    "midi": 44,
                    "name": "G#2",
                    "ticks": 9960,
                    "time": 9.8809425,
                    "velocity": 0.8582677165354331
                },
                {
                    "duration": 0.06746024999999989,
                    "durationTicks": 68,
                    "midi": 40,
                    "name": "E2",
                    "ticks": 10080,
                    "time": 9.99999,
                    "velocity": 0.8582677165354331
                },
                {
                    "duration": 0.06746024999999989,
                    "durationTicks": 68,
                    "midi": 37,
                    "name": "C#2",
                    "ticks": 10200,
                    "time": 10.1190375,
                    "velocity": 1
                },
                {
                    "duration": 0.06746024999999989,
                    "durationTicks": 68,
                    "midi": 40,
                    "name": "E2",
                    "ticks": 10320,
                    "time": 10.238085,
                    "velocity": 0.905511811023622
                },
                {
                    "duration": 0.06746024999999989,
                    "durationTicks": 68,
                    "midi": 44,
                    "name": "G#2",
                    "ticks": 10440,
                    "time": 10.3571325,
                    "velocity": 1
                },
                {
                    "duration": 0.06746024999999989,
                    "durationTicks": 68,
                    "midi": 40,
                    "name": "E2",
                    "ticks": 10560,
                    "time": 10.47618,
                    "velocity": 0.9763779527559056
                },
                {
                    "duration": 0.06746024999999989,
                    "durationTicks": 68,
                    "midi": 37,
                    "name": "C#2",
                    "ticks": 10680,
                    "time": 10.5952275,
                    "velocity": 1
                },
                {
                    "duration": 0.06746024999999811,
                    "durationTicks": 68,
                    "midi": 40,
                    "name": "E2",
                    "ticks": 10800,
                    "time": 10.714275,
                    "velocity": 0.9763779527559056
                },
                {
                    "duration": 0.06746024999999989,
                    "durationTicks": 68,
                    "midi": 44,
                    "name": "G#2",
                    "ticks": 10920,
                    "time": 10.8333225,
                    "velocity": 0.905511811023622
                },
                {
                    "duration": 0.06746024999999989,
                    "durationTicks": 68,
                    "midi": 40,
                    "name": "E2",
                    "ticks": 11040,
                    "time": 10.95237,
                    "velocity": 1
                },
                {
                    "duration": 0.06746024999999811,
                    "durationTicks": 68,
                    "midi": 37,
                    "name": "C#2",
                    "ticks": 11160,
                    "time": 11.0714175,
                    "velocity": 0.905511811023622
                },
                {
                    "duration": 0.06746024999999989,
                    "durationTicks": 68,
                    "midi": 40,
                    "name": "E2",
                    "ticks": 11280,
                    "time": 11.190465,
                    "velocity": 1
                },
                {
                    "duration": 0.06746024999999989,
                    "durationTicks": 68,
                    "midi": 37,
                    "name": "C#2",
                    "ticks": 11400,
                    "time": 11.3095125,
                    "velocity": 1
                },
                {
                    "duration": 0.06746024999999811,
                    "durationTicks": 68,
                    "midi": 37,
                    "name": "C#2",
                    "ticks": 11520,
                    "time": 11.428560000000001,
                    "velocity": 1
                },
                {
                    "duration": 0.06746024999999989,
                    "durationTicks": 68,
                    "midi": 37,
                    "name": "C#2",
                    "ticks": 11640,
                    "time": 11.5476075,
                    "velocity": 1
                },
                {
                    "duration": 0.06746024999999989,
                    "durationTicks": 68,
                    "midi": 40,
                    "name": "E2",
                    "ticks": 11760,
                    "time": 11.666655,
                    "velocity": 1
                },
                {
                    "duration": 0.06746024999999989,
                    "durationTicks": 68,
                    "midi": 44,
                    "name": "G#2",
                    "ticks": 11880,
                    "time": 11.7857025,
                    "velocity": 0.8582677165354331
                },
                {
                    "duration": 0.06746024999999989,
                    "durationTicks": 68,
                    "midi": 40,
                    "name": "E2",
                    "ticks": 12000,
                    "time": 11.90475,
                    "velocity": 0.8582677165354331
                },
                {
                    "duration": 0.06746024999999989,
                    "durationTicks": 68,
                    "midi": 37,
                    "name": "C#2",
                    "ticks": 12120,
                    "time": 12.0237975,
                    "velocity": 1
                },
                {
                    "duration": 0.06746024999999989,
                    "durationTicks": 68,
                    "midi": 40,
                    "name": "E2",
                    "ticks": 12240,
                    "time": 12.142845,
                    "velocity": 0.905511811023622
                },
                {
                    "duration": 0.06746024999999989,
                    "durationTicks": 68,
                    "midi": 44,
                    "name": "G#2",
                    "ticks": 12360,
                    "time": 12.2618925,
                    "velocity": 1
                },
                {
                    "duration": 0.06746024999999811,
                    "durationTicks": 68,
                    "midi": 40,
                    "name": "E2",
                    "ticks": 12480,
                    "time": 12.38094,
                    "velocity": 0.9763779527559056
                },
                {
                    "duration": 0.06746024999999989,
                    "durationTicks": 68,
                    "midi": 37,
                    "name": "C#2",
                    "ticks": 12600,
                    "time": 12.4999875,
                    "velocity": 1
                },
                {
                    "duration": 0.06746024999999989,
                    "durationTicks": 68,
                    "midi": 40,
                    "name": "E2",
                    "ticks": 12720,
                    "time": 12.619035,
                    "velocity": 0.9763779527559056
                },
                {
                    "duration": 0.06746024999999811,
                    "durationTicks": 68,
                    "midi": 44,
                    "name": "G#2",
                    "ticks": 12840,
                    "time": 12.7380825,
                    "velocity": 0.905511811023622
                },
                {
                    "duration": 0.06746024999999989,
                    "durationTicks": 68,
                    "midi": 40,
                    "name": "E2",
                    "ticks": 12960,
                    "time": 12.85713,
                    "velocity": 1
                },
                {
                    "duration": 0.06746024999999989,
                    "durationTicks": 68,
                    "midi": 37,
                    "name": "C#2",
                    "ticks": 13080,
                    "time": 12.9761775,
                    "velocity": 0.905511811023622
                },
                {
                    "duration": 0.06746024999999989,
                    "durationTicks": 68,
                    "midi": 40,
                    "name": "E2",
                    "ticks": 13200,
                    "time": 13.095225,
                    "velocity": 1
                },
                {
                    "duration": 0.06746024999999989,
                    "durationTicks": 68,
                    "midi": 37,
                    "name": "C#2",
                    "ticks": 13320,
                    "time": 13.2142725,
                    "velocity": 1
                },
                {
                    "duration": 0.06746024999999989,
                    "durationTicks": 68,
                    "midi": 37,
                    "name": "C#2",
                    "ticks": 13440,
                    "time": 13.33332,
                    "velocity": 1
                },
                {
                    "duration": 0.06746024999999989,
                    "durationTicks": 68,
                    "midi": 37,
                    "name": "C#2",
                    "ticks": 13560,
                    "time": 13.4523675,
                    "velocity": 1
                },
                {
                    "duration": 0.06746024999999989,
                    "durationTicks": 68,
                    "midi": 40,
                    "name": "E2",
                    "ticks": 13680,
                    "time": 13.571415,
                    "velocity": 1
                },
                {
                    "duration": 0.06746024999999811,
                    "durationTicks": 68,
                    "midi": 44,
                    "name": "G#2",
                    "ticks": 13800,
                    "time": 13.6904625,
                    "velocity": 0.8582677165354331
                },
                {
                    "duration": 0.06746024999999989,
                    "durationTicks": 68,
                    "midi": 40,
                    "name": "E2",
                    "ticks": 13920,
                    "time": 13.80951,
                    "velocity": 0.8582677165354331
                },
                {
                    "duration": 0.06746024999999989,
                    "durationTicks": 68,
                    "midi": 37,
                    "name": "C#2",
                    "ticks": 14040,
                    "time": 13.9285575,
                    "velocity": 1
                },
                {
                    "duration": 0.06746024999999811,
                    "durationTicks": 68,
                    "midi": 40,
                    "name": "E2",
                    "ticks": 14160,
                    "time": 14.047605,
                    "velocity": 0.905511811023622
                },
                {
                    "duration": 0.06746024999999989,
                    "durationTicks": 68,
                    "midi": 44,
                    "name": "G#2",
                    "ticks": 14280,
                    "time": 14.1666525,
                    "velocity": 1
                },
                {
                    "duration": 0.06746024999999989,
                    "durationTicks": 68,
                    "midi": 40,
                    "name": "E2",
                    "ticks": 14400,
                    "time": 14.2857,
                    "velocity": 0.9763779527559056
                },
                {
                    "duration": 0.06746024999999811,
                    "durationTicks": 68,
                    "midi": 37,
                    "name": "C#2",
                    "ticks": 14520,
                    "time": 14.404747500000001,
                    "velocity": 1
                },
                {
                    "duration": 0.06746024999999989,
                    "durationTicks": 68,
                    "midi": 40,
                    "name": "E2",
                    "ticks": 14640,
                    "time": 14.523795,
                    "velocity": 0.9763779527559056
                },
                {
                    "duration": 0.06746024999999989,
                    "durationTicks": 68,
                    "midi": 44,
                    "name": "G#2",
                    "ticks": 14760,
                    "time": 14.6428425,
                    "velocity": 0.905511811023622
                },
                {
                    "duration": 0.06746024999999989,
                    "durationTicks": 68,
                    "midi": 40,
                    "name": "E2",
                    "ticks": 14880,
                    "time": 14.76189,
                    "velocity": 1
                },
                {
                    "duration": 0.06746024999999989,
                    "durationTicks": 68,
                    "midi": 37,
                    "name": "C#2",
                    "ticks": 15000,
                    "time": 14.8809375,
                    "velocity": 0.905511811023622
                },
                {
                    "duration": 0.06746024999999989,
                    "durationTicks": 68,
                    "midi": 40,
                    "name": "E2",
                    "ticks": 15120,
                    "time": 14.999985,
                    "velocity": 1
                },
                {
                    "duration": 0.06746024999999989,
                    "durationTicks": 68,
                    "midi": 37,
                    "name": "C#2",
                    "ticks": 15240,
                    "time": 15.1190325,
                    "velocity": 1
                },
                {
                    "duration": 0.06746024999999989,
                    "durationTicks": 68,
                    "midi": 37,
                    "name": "C#2",
                    "ticks": 15360,
                    "time": 15.23808,
                    "velocity": 1
                },
                {
                    "duration": 0.06746024999999811,
                    "durationTicks": 68,
                    "midi": 37,
                    "name": "C#2",
                    "ticks": 15480,
                    "time": 15.3571275,
                    "velocity": 1
                },
                {
                    "duration": 0.06746024999999989,
                    "durationTicks": 68,
                    "midi": 40,
                    "name": "E2",
                    "ticks": 15600,
                    "time": 15.476175,
                    "velocity": 1
                },
                {
                    "duration": 0.06746024999999989,
                    "durationTicks": 68,
                    "midi": 44,
                    "name": "G#2",
                    "ticks": 15720,
                    "time": 15.5952225,
                    "velocity": 0.8582677165354331
                },
                {
                    "duration": 0.06746024999999811,
                    "durationTicks": 68,
                    "midi": 40,
                    "name": "E2",
                    "ticks": 15840,
                    "time": 15.71427,
                    "velocity": 0.8582677165354331
                },
                {
                    "duration": 0.06746024999999989,
                    "durationTicks": 68,
                    "midi": 37,
                    "name": "C#2",
                    "ticks": 15960,
                    "time": 15.8333175,
                    "velocity": 1
                },
                {
                    "duration": 0.06746024999999989,
                    "durationTicks": 68,
                    "midi": 40,
                    "name": "E2",
                    "ticks": 16080,
                    "time": 15.952365,
                    "velocity": 0.905511811023622
                },
                {
                    "duration": 0.06746024999999989,
                    "durationTicks": 68,
                    "midi": 44,
                    "name": "G#2",
                    "ticks": 16200,
                    "time": 16.0714125,
                    "velocity": 1
                },
                {
                    "duration": 0.06746024999999634,
                    "durationTicks": 68,
                    "midi": 40,
                    "name": "E2",
                    "ticks": 16320,
                    "time": 16.19046,
                    "velocity": 0.9763779527559056
                },
                {
                    "duration": 0.06746024999999989,
                    "durationTicks": 68,
                    "midi": 37,
                    "name": "C#2",
                    "ticks": 16440,
                    "time": 16.3095075,
                    "velocity": 1
                },
                {
                    "duration": 0.06746024999999989,
                    "durationTicks": 68,
                    "midi": 40,
                    "name": "E2",
                    "ticks": 16560,
                    "time": 16.428555,
                    "velocity": 0.9763779527559056
                },
                {
                    "duration": 0.06746024999999989,
                    "durationTicks": 68,
                    "midi": 44,
                    "name": "G#2",
                    "ticks": 16680,
                    "time": 16.5476025,
                    "velocity": 0.905511811023622
                },
                {
                    "duration": 0.06746024999999989,
                    "durationTicks": 68,
                    "midi": 40,
                    "name": "E2",
                    "ticks": 16800,
                    "time": 16.66665,
                    "velocity": 1
                },
                {
                    "duration": 0.06746024999999989,
                    "durationTicks": 68,
                    "midi": 37,
                    "name": "C#2",
                    "ticks": 16920,
                    "time": 16.7856975,
                    "velocity": 0.905511811023622
                },
                {
                    "duration": 0.06746024999999989,
                    "durationTicks": 68,
                    "midi": 40,
                    "name": "E2",
                    "ticks": 17040,
                    "time": 16.904745,
                    "velocity": 1
                },
                {
                    "duration": 0.06746024999999989,
                    "durationTicks": 68,
                    "midi": 37,
                    "name": "C#2",
                    "ticks": 17160,
                    "time": 17.0237925,
                    "velocity": 1
                },
                {
                    "duration": 0.06746024999999989,
                    "durationTicks": 68,
                    "midi": 37,
                    "name": "C#2",
                    "ticks": 17280,
                    "time": 17.14284,
                    "velocity": 1
                },
                {
                    "duration": 0.06746024999999989,
                    "durationTicks": 68,
                    "midi": 37,
                    "name": "C#2",
                    "ticks": 17400,
                    "time": 17.2618875,
                    "velocity": 1
                },
                {
                    "duration": 0.06746024999999989,
                    "durationTicks": 68,
                    "midi": 40,
                    "name": "E2",
                    "ticks": 17520,
                    "time": 17.380935,
                    "velocity": 1
                },
                {
                    "duration": 0.06746024999999634,
                    "durationTicks": 68,
                    "midi": 44,
                    "name": "G#2",
                    "ticks": 17640,
                    "time": 17.4999825,
                    "velocity": 0.8582677165354331
                },
                {
                    "duration": 0.06746024999999989,
                    "durationTicks": 68,
                    "midi": 40,
                    "name": "E2",
                    "ticks": 17760,
                    "time": 17.61903,
                    "velocity": 0.8582677165354331
                },
                {
                    "duration": 0.06746024999999989,
                    "durationTicks": 68,
                    "midi": 37,
                    "name": "C#2",
                    "ticks": 17880,
                    "time": 17.7380775,
                    "velocity": 1
                },
                {
                    "duration": 0.06746024999999989,
                    "durationTicks": 68,
                    "midi": 40,
                    "name": "E2",
                    "ticks": 18000,
                    "time": 17.857125,
                    "velocity": 0.905511811023622
                },
                {
                    "duration": 0.06746024999999989,
                    "durationTicks": 68,
                    "midi": 44,
                    "name": "G#2",
                    "ticks": 18120,
                    "time": 17.9761725,
                    "velocity": 1
                },
                {
                    "duration": 0.06746024999999989,
                    "durationTicks": 68,
                    "midi": 40,
                    "name": "E2",
                    "ticks": 18240,
                    "time": 18.09522,
                    "velocity": 0.9763779527559056
                },
                {
                    "duration": 0.06746024999999634,
                    "durationTicks": 68,
                    "midi": 37,
                    "name": "C#2",
                    "ticks": 18360,
                    "time": 18.214267500000002,
                    "velocity": 1
                },
                {
                    "duration": 0.06746024999999989,
                    "durationTicks": 68,
                    "midi": 40,
                    "name": "E2",
                    "ticks": 18480,
                    "time": 18.333315,
                    "velocity": 0.9763779527559056
                },
                {
                    "duration": 0.06746024999999989,
                    "durationTicks": 68,
                    "midi": 44,
                    "name": "G#2",
                    "ticks": 18600,
                    "time": 18.4523625,
                    "velocity": 0.905511811023622
                },
                {
                    "duration": 0.06746024999999989,
                    "durationTicks": 68,
                    "midi": 40,
                    "name": "E2",
                    "ticks": 18720,
                    "time": 18.57141,
                    "velocity": 1
                },
                {
                    "duration": 0.06746024999999989,
                    "durationTicks": 68,
                    "midi": 37,
                    "name": "C#2",
                    "ticks": 18840,
                    "time": 18.6904575,
                    "velocity": 0.905511811023622
                },
                {
                    "duration": 0.06746024999999989,
                    "durationTicks": 68,
                    "midi": 40,
                    "name": "E2",
                    "ticks": 18960,
                    "time": 18.809505,
                    "velocity": 1
                },
                {
                    "duration": 0.06746024999999989,
                    "durationTicks": 68,
                    "midi": 37,
                    "name": "C#2",
                    "ticks": 19080,
                    "time": 18.9285525,
                    "velocity": 1
                },
                {
                    "duration": 3.6150757500000026,
                    "durationTicks": 3644,
                    "midi": 47,
                    "name": "B2",
                    "ticks": 19200,
                    "time": 19.0476,
                    "velocity": 0.8346456692913385
                },
                {
                    "duration": 3.6180519375000024,
                    "durationTicks": 3647,
                    "midi": 59,
                    "name": "B3",
                    "ticks": 19200,
                    "time": 19.0476,
                    "velocity": 0.7795275590551181
                },
                {
                    "duration": 1.2083321250000019,
                    "durationTicks": 1218,
                    "midi": 71,
                    "name": "B4",
                    "ticks": 21720,
                    "time": 21.5475975,
                    "velocity": 0.937007874015748
                },
                {
                    "duration": 0.44742018750000057,
                    "durationTicks": 451,
                    "midi": 83,
                    "name": "B5",
                    "ticks": 22560,
                    "time": 22.38093,
                    "velocity": 0.9763779527559056
                },
                {
                    "duration": 0.06746024999998212,
                    "durationTicks": 68,
                    "midi": 37,
                    "name": "C#2",
                    "ticks": 161280,
                    "time": 159.99984,
                    "velocity": 1
                },
                {
                    "duration": 0.06746024999998212,
                    "durationTicks": 68,
                    "midi": 37,
                    "name": "C#2",
                    "ticks": 161400,
                    "time": 160.1188875,
                    "velocity": 1
                },
                {
                    "duration": 0.06746025000001055,
                    "durationTicks": 68,
                    "midi": 40,
                    "name": "E2",
                    "ticks": 161520,
                    "time": 160.237935,
                    "velocity": 1
                },
                {
                    "duration": 0.06746025000001055,
                    "durationTicks": 68,
                    "midi": 44,
                    "name": "G#2",
                    "ticks": 161640,
                    "time": 160.3569825,
                    "velocity": 0.8582677165354331
                },
                {
                    "duration": 0.06746024999998212,
                    "durationTicks": 68,
                    "midi": 40,
                    "name": "E2",
                    "ticks": 161760,
                    "time": 160.47603,
                    "velocity": 0.8582677165354331
                },
                {
                    "duration": 0.06746024999998212,
                    "durationTicks": 68,
                    "midi": 37,
                    "name": "C#2",
                    "ticks": 161880,
                    "time": 160.5950775,
                    "velocity": 1
                },
                {
                    "duration": 0.06746025000001055,
                    "durationTicks": 68,
                    "midi": 40,
                    "name": "E2",
                    "ticks": 162000,
                    "time": 160.714125,
                    "velocity": 0.905511811023622
                },
                {
                    "duration": 0.06746025000001055,
                    "durationTicks": 68,
                    "midi": 44,
                    "name": "G#2",
                    "ticks": 162120,
                    "time": 160.8331725,
                    "velocity": 1
                },
                {
                    "duration": 0.06746024999998212,
                    "durationTicks": 68,
                    "midi": 40,
                    "name": "E2",
                    "ticks": 162240,
                    "time": 160.95222,
                    "velocity": 0.9763779527559056
                },
                {
                    "duration": 0.06746024999998212,
                    "durationTicks": 68,
                    "midi": 37,
                    "name": "C#2",
                    "ticks": 162360,
                    "time": 161.0712675,
                    "velocity": 1
                },
                {
                    "duration": 0.06746024999998212,
                    "durationTicks": 68,
                    "midi": 40,
                    "name": "E2",
                    "ticks": 162480,
                    "time": 161.190315,
                    "velocity": 0.9763779527559056
                },
                {
                    "duration": 0.06746025000001055,
                    "durationTicks": 68,
                    "midi": 44,
                    "name": "G#2",
                    "ticks": 162600,
                    "time": 161.3093625,
                    "velocity": 0.905511811023622
                },
                {
                    "duration": 0.06746024999998212,
                    "durationTicks": 68,
                    "midi": 40,
                    "name": "E2",
                    "ticks": 162720,
                    "time": 161.42841,
                    "velocity": 1
                },
                {
                    "duration": 0.06746024999998212,
                    "durationTicks": 68,
                    "midi": 37,
                    "name": "C#2",
                    "ticks": 162840,
                    "time": 161.5474575,
                    "velocity": 0.905511811023622
                },
                {
                    "duration": 0.06746024999998212,
                    "durationTicks": 68,
                    "midi": 40,
                    "name": "E2",
                    "ticks": 162960,
                    "time": 161.666505,
                    "velocity": 1
                },
                {
                    "duration": 0.06746025000001055,
                    "durationTicks": 68,
                    "midi": 37,
                    "name": "C#2",
                    "ticks": 163080,
                    "time": 161.7855525,
                    "velocity": 1
                },
                {
                    "duration": 0.06746025000001055,
                    "durationTicks": 68,
                    "midi": 37,
                    "name": "C#2",
                    "ticks": 163200,
                    "time": 161.9046,
                    "velocity": 1
                },
                {
                    "duration": 0.06746024999998212,
                    "durationTicks": 68,
                    "midi": 37,
                    "name": "C#2",
                    "ticks": 163320,
                    "time": 162.0236475,
                    "velocity": 1
                },
                {
                    "duration": 0.06746024999998212,
                    "durationTicks": 68,
                    "midi": 40,
                    "name": "E2",
                    "ticks": 163440,
                    "time": 162.142695,
                    "velocity": 1
                },
                {
                    "duration": 0.06746025000001055,
                    "durationTicks": 68,
                    "midi": 44,
                    "name": "G#2",
                    "ticks": 163560,
                    "time": 162.2617425,
                    "velocity": 0.8582677165354331
                },
                {
                    "duration": 0.06746025000001055,
                    "durationTicks": 68,
                    "midi": 40,
                    "name": "E2",
                    "ticks": 163680,
                    "time": 162.38079,
                    "velocity": 0.8582677165354331
                },
                {
                    "duration": 0.06746024999998212,
                    "durationTicks": 68,
                    "midi": 37,
                    "name": "C#2",
                    "ticks": 163800,
                    "time": 162.4998375,
                    "velocity": 1
                },
                {
                    "duration": 0.06746024999998212,
                    "durationTicks": 68,
                    "midi": 40,
                    "name": "E2",
                    "ticks": 163920,
                    "time": 162.618885,
                    "velocity": 0.905511811023622
                },
                {
                    "duration": 0.06746024999998212,
                    "durationTicks": 68,
                    "midi": 44,
                    "name": "G#2",
                    "ticks": 164040,
                    "time": 162.7379325,
                    "velocity": 1
                },
                {
                    "duration": 0.06746025000001055,
                    "durationTicks": 68,
                    "midi": 40,
                    "name": "E2",
                    "ticks": 164160,
                    "time": 162.85698,
                    "velocity": 0.9763779527559056
                },
                {
                    "duration": 0.06746024999998212,
                    "durationTicks": 68,
                    "midi": 37,
                    "name": "C#2",
                    "ticks": 164280,
                    "time": 162.97602750000001,
                    "velocity": 1
                },
                {
                    "duration": 0.06746024999998212,
                    "durationTicks": 68,
                    "midi": 40,
                    "name": "E2",
                    "ticks": 164400,
                    "time": 163.095075,
                    "velocity": 0.9763779527559056
                },
                {
                    "duration": 0.06746024999998212,
                    "durationTicks": 68,
                    "midi": 44,
                    "name": "G#2",
                    "ticks": 164520,
                    "time": 163.2141225,
                    "velocity": 0.905511811023622
                },
                {
                    "duration": 0.06746025000001055,
                    "durationTicks": 68,
                    "midi": 40,
                    "name": "E2",
                    "ticks": 164640,
                    "time": 163.33317,
                    "velocity": 1
                },
                {
                    "duration": 0.06746025000001055,
                    "durationTicks": 68,
                    "midi": 37,
                    "name": "C#2",
                    "ticks": 164760,
                    "time": 163.4522175,
                    "velocity": 0.905511811023622
                },
                {
                    "duration": 0.06746024999998212,
                    "durationTicks": 68,
                    "midi": 40,
                    "name": "E2",
                    "ticks": 164880,
                    "time": 163.571265,
                    "velocity": 1
                },
                {
                    "duration": 0.06746024999998212,
                    "durationTicks": 68,
                    "midi": 37,
                    "name": "C#2",
                    "ticks": 165000,
                    "time": 163.6903125,
                    "velocity": 1
                },
                {
                    "duration": 0.06746024999998212,
                    "durationTicks": 68,
                    "midi": 37,
                    "name": "C#2",
                    "ticks": 165120,
                    "time": 163.80936,
                    "velocity": 1
                },
                {
                    "duration": 0.06746025000001055,
                    "durationTicks": 68,
                    "midi": 37,
                    "name": "C#2",
                    "ticks": 165240,
                    "time": 163.9284075,
                    "velocity": 1
                },
                {
                    "duration": 0.06746024999998212,
                    "durationTicks": 68,
                    "midi": 40,
                    "name": "E2",
                    "ticks": 165360,
                    "time": 164.047455,
                    "velocity": 1
                },
                {
                    "duration": 0.06746024999998212,
                    "durationTicks": 68,
                    "midi": 44,
                    "name": "G#2",
                    "ticks": 165480,
                    "time": 164.1665025,
                    "velocity": 0.8582677165354331
                },
                {
                    "duration": 0.06746024999998212,
                    "durationTicks": 68,
                    "midi": 40,
                    "name": "E2",
                    "ticks": 165600,
                    "time": 164.28555,
                    "velocity": 0.8582677165354331
                },
                {
                    "duration": 0.06746025000001055,
                    "durationTicks": 68,
                    "midi": 37,
                    "name": "C#2",
                    "ticks": 165720,
                    "time": 164.4045975,
                    "velocity": 1
                },
                {
                    "duration": 0.06746025000001055,
                    "durationTicks": 68,
                    "midi": 40,
                    "name": "E2",
                    "ticks": 165840,
                    "time": 164.523645,
                    "velocity": 0.905511811023622
                },
                {
                    "duration": 0.06746024999998212,
                    "durationTicks": 68,
                    "midi": 44,
                    "name": "G#2",
                    "ticks": 165960,
                    "time": 164.6426925,
                    "velocity": 1
                },
                {
                    "duration": 0.06746024999998212,
                    "durationTicks": 68,
                    "midi": 40,
                    "name": "E2",
                    "ticks": 166080,
                    "time": 164.76174,
                    "velocity": 0.9763779527559056
                },
                {
                    "duration": 0.06746025000001055,
                    "durationTicks": 68,
                    "midi": 37,
                    "name": "C#2",
                    "ticks": 166200,
                    "time": 164.8807875,
                    "velocity": 1
                },
                {
                    "duration": 0.06746025000001055,
                    "durationTicks": 68,
                    "midi": 40,
                    "name": "E2",
                    "ticks": 166320,
                    "time": 164.999835,
                    "velocity": 0.9763779527559056
                },
                {
                    "duration": 0.06746024999998212,
                    "durationTicks": 68,
                    "midi": 44,
                    "name": "G#2",
                    "ticks": 166440,
                    "time": 165.1188825,
                    "velocity": 0.905511811023622
                },
                {
                    "duration": 0.06746024999998212,
                    "durationTicks": 68,
                    "midi": 40,
                    "name": "E2",
                    "ticks": 166560,
                    "time": 165.23793,
                    "velocity": 1
                },
                {
                    "duration": 0.06746024999998212,
                    "durationTicks": 68,
                    "midi": 37,
                    "name": "C#2",
                    "ticks": 166680,
                    "time": 165.3569775,
                    "velocity": 0.905511811023622
                },
                {
                    "duration": 0.06746025000001055,
                    "durationTicks": 68,
                    "midi": 40,
                    "name": "E2",
                    "ticks": 166800,
                    "time": 165.476025,
                    "velocity": 1
                },
                {
                    "duration": 0.06746024999998212,
                    "durationTicks": 68,
                    "midi": 37,
                    "name": "C#2",
                    "ticks": 166920,
                    "time": 165.59507250000001,
                    "velocity": 1
                },
                {
                    "duration": 0.06746024999998212,
                    "durationTicks": 68,
                    "midi": 37,
                    "name": "C#2",
                    "ticks": 167040,
                    "time": 165.71412,
                    "velocity": 1
                },
                {
                    "duration": 0.06746024999998212,
                    "durationTicks": 68,
                    "midi": 37,
                    "name": "C#2",
                    "ticks": 167160,
                    "time": 165.8331675,
                    "velocity": 1
                },
                {
                    "duration": 0.06746025000001055,
                    "durationTicks": 68,
                    "midi": 40,
                    "name": "E2",
                    "ticks": 167280,
                    "time": 165.952215,
                    "velocity": 1
                },
                {
                    "duration": 0.06746025000001055,
                    "durationTicks": 68,
                    "midi": 44,
                    "name": "G#2",
                    "ticks": 167400,
                    "time": 166.0712625,
                    "velocity": 0.8582677165354331
                },
                {
                    "duration": 0.06746024999998212,
                    "durationTicks": 68,
                    "midi": 40,
                    "name": "E2",
                    "ticks": 167520,
                    "time": 166.19031,
                    "velocity": 0.8582677165354331
                },
                {
                    "duration": 0.06746024999998212,
                    "durationTicks": 68,
                    "midi": 37,
                    "name": "C#2",
                    "ticks": 167640,
                    "time": 166.3093575,
                    "velocity": 1
                },
                {
                    "duration": 0.06746024999998212,
                    "durationTicks": 68,
                    "midi": 40,
                    "name": "E2",
                    "ticks": 167760,
                    "time": 166.428405,
                    "velocity": 0.905511811023622
                },
                {
                    "duration": 0.06746025000001055,
                    "durationTicks": 68,
                    "midi": 44,
                    "name": "G#2",
                    "ticks": 167880,
                    "time": 166.5474525,
                    "velocity": 1
                },
                {
                    "duration": 0.06746024999998212,
                    "durationTicks": 68,
                    "midi": 40,
                    "name": "E2",
                    "ticks": 168000,
                    "time": 166.6665,
                    "velocity": 0.9763779527559056
                },
                {
                    "duration": 0.06746024999998212,
                    "durationTicks": 68,
                    "midi": 37,
                    "name": "C#2",
                    "ticks": 168120,
                    "time": 166.7855475,
                    "velocity": 1
                },
                {
                    "duration": 0.06746024999998212,
                    "durationTicks": 68,
                    "midi": 40,
                    "name": "E2",
                    "ticks": 168240,
                    "time": 166.904595,
                    "velocity": 0.9763779527559056
                },
                {
                    "duration": 0.06746025000001055,
                    "durationTicks": 68,
                    "midi": 44,
                    "name": "G#2",
                    "ticks": 168360,
                    "time": 167.0236425,
                    "velocity": 0.905511811023622
                },
                {
                    "duration": 0.06746025000001055,
                    "durationTicks": 68,
                    "midi": 40,
                    "name": "E2",
                    "ticks": 168480,
                    "time": 167.14269,
                    "velocity": 1
                },
                {
                    "duration": 0.06746024999998212,
                    "durationTicks": 68,
                    "midi": 37,
                    "name": "C#2",
                    "ticks": 168600,
                    "time": 167.2617375,
                    "velocity": 0.905511811023622
                },
                {
                    "duration": 0.06746024999998212,
                    "durationTicks": 68,
                    "midi": 40,
                    "name": "E2",
                    "ticks": 168720,
                    "time": 167.380785,
                    "velocity": 1
                },
                {
                    "duration": 0.06746025000001055,
                    "durationTicks": 68,
                    "midi": 37,
                    "name": "C#2",
                    "ticks": 168840,
                    "time": 167.4998325,
                    "velocity": 1
                },
                {
                    "duration": 0.06746025000001055,
                    "durationTicks": 68,
                    "midi": 37,
                    "name": "C#2",
                    "ticks": 168960,
                    "time": 167.61888,
                    "velocity": 1
                },
                {
                    "duration": 0.06746024999998212,
                    "durationTicks": 68,
                    "midi": 37,
                    "name": "C#2",
                    "ticks": 169080,
                    "time": 167.7379275,
                    "velocity": 1
                },
                {
                    "duration": 0.06746024999998212,
                    "durationTicks": 68,
                    "midi": 40,
                    "name": "E2",
                    "ticks": 169200,
                    "time": 167.856975,
                    "velocity": 1
                },
                {
                    "duration": 0.06746024999998212,
                    "durationTicks": 68,
                    "midi": 44,
                    "name": "G#2",
                    "ticks": 169320,
                    "time": 167.9760225,
                    "velocity": 0.8582677165354331
                },
                {
                    "duration": 0.06746025000001055,
                    "durationTicks": 68,
                    "midi": 40,
                    "name": "E2",
                    "ticks": 169440,
                    "time": 168.09507,
                    "velocity": 0.8582677165354331
                },
                {
                    "duration": 0.06746024999998212,
                    "durationTicks": 68,
                    "midi": 37,
                    "name": "C#2",
                    "ticks": 169560,
                    "time": 168.21411750000001,
                    "velocity": 1
                },
                {
                    "duration": 0.06746024999998212,
                    "durationTicks": 68,
                    "midi": 40,
                    "name": "E2",
                    "ticks": 169680,
                    "time": 168.333165,
                    "velocity": 0.905511811023622
                },
                {
                    "duration": 0.06746024999998212,
                    "durationTicks": 68,
                    "midi": 44,
                    "name": "G#2",
                    "ticks": 169800,
                    "time": 168.4522125,
                    "velocity": 1
                },
                {
                    "duration": 0.06746025000001055,
                    "durationTicks": 68,
                    "midi": 40,
                    "name": "E2",
                    "ticks": 169920,
                    "time": 168.57126,
                    "velocity": 0.9763779527559056
                },
                {
                    "duration": 0.06746025000001055,
                    "durationTicks": 68,
                    "midi": 37,
                    "name": "C#2",
                    "ticks": 170040,
                    "time": 168.6903075,
                    "velocity": 1
                },
                {
                    "duration": 0.06746024999998212,
                    "durationTicks": 68,
                    "midi": 40,
                    "name": "E2",
                    "ticks": 170160,
                    "time": 168.809355,
                    "velocity": 0.9763779527559056
                },
                {
                    "duration": 0.06746024999998212,
                    "durationTicks": 68,
                    "midi": 44,
                    "name": "G#2",
                    "ticks": 170280,
                    "time": 168.9284025,
                    "velocity": 0.905511811023622
                },
                {
                    "duration": 0.06746024999998212,
                    "durationTicks": 68,
                    "midi": 40,
                    "name": "E2",
                    "ticks": 170400,
                    "time": 169.04745,
                    "velocity": 1
                },
                {
                    "duration": 0.06746025000001055,
                    "durationTicks": 68,
                    "midi": 37,
                    "name": "C#2",
                    "ticks": 170520,
                    "time": 169.1664975,
                    "velocity": 0.905511811023622
                },
                {
                    "duration": 0.06746024999998212,
                    "durationTicks": 68,
                    "midi": 40,
                    "name": "E2",
                    "ticks": 170640,
                    "time": 169.285545,
                    "velocity": 1
                },
                {
                    "duration": 0.06746024999998212,
                    "durationTicks": 68,
                    "midi": 37,
                    "name": "C#2",
                    "ticks": 170760,
                    "time": 169.4045925,
                    "velocity": 1
                },
                {
                    "duration": 0.06746024999998212,
                    "durationTicks": 68,
                    "midi": 37,
                    "name": "C#2",
                    "ticks": 170880,
                    "time": 169.52364,
                    "velocity": 1
                },
                {
                    "duration": 0.06746025000001055,
                    "durationTicks": 68,
                    "midi": 37,
                    "name": "C#2",
                    "ticks": 171000,
                    "time": 169.6426875,
                    "velocity": 1
                },
                {
                    "duration": 0.06746025000001055,
                    "durationTicks": 68,
                    "midi": 40,
                    "name": "E2",
                    "ticks": 171120,
                    "time": 169.761735,
                    "velocity": 1
                },
                {
                    "duration": 0.06746024999998212,
                    "durationTicks": 68,
                    "midi": 44,
                    "name": "G#2",
                    "ticks": 171240,
                    "time": 169.8807825,
                    "velocity": 0.8582677165354331
                },
                {
                    "duration": 0.06746024999998212,
                    "durationTicks": 68,
                    "midi": 40,
                    "name": "E2",
                    "ticks": 171360,
                    "time": 169.99983,
                    "velocity": 0.8582677165354331
                },
                {
                    "duration": 0.06746025000001055,
                    "durationTicks": 68,
                    "midi": 37,
                    "name": "C#2",
                    "ticks": 171480,
                    "time": 170.1188775,
                    "velocity": 1
                },
                {
                    "duration": 0.06746025000001055,
                    "durationTicks": 68,
                    "midi": 40,
                    "name": "E2",
                    "ticks": 171600,
                    "time": 170.237925,
                    "velocity": 0.905511811023622
                },
                {
                    "duration": 0.06746024999998212,
                    "durationTicks": 68,
                    "midi": 44,
                    "name": "G#2",
                    "ticks": 171720,
                    "time": 170.3569725,
                    "velocity": 1
                },
                {
                    "duration": 0.06746024999998212,
                    "durationTicks": 68,
                    "midi": 40,
                    "name": "E2",
                    "ticks": 171840,
                    "time": 170.47602,
                    "velocity": 0.9763779527559056
                },
                {
                    "duration": 0.06746024999998212,
                    "durationTicks": 68,
                    "midi": 37,
                    "name": "C#2",
                    "ticks": 171960,
                    "time": 170.5950675,
                    "velocity": 1
                },
                {
                    "duration": 0.06746025000001055,
                    "durationTicks": 68,
                    "midi": 40,
                    "name": "E2",
                    "ticks": 172080,
                    "time": 170.714115,
                    "velocity": 0.9763779527559056
                },
                {
                    "duration": 0.06746024999998212,
                    "durationTicks": 68,
                    "midi": 44,
                    "name": "G#2",
                    "ticks": 172200,
                    "time": 170.83316250000001,
                    "velocity": 0.905511811023622
                },
                {
                    "duration": 0.06746024999998212,
                    "durationTicks": 68,
                    "midi": 40,
                    "name": "E2",
                    "ticks": 172320,
                    "time": 170.95221,
                    "velocity": 1
                },
                {
                    "duration": 0.06746024999998212,
                    "durationTicks": 68,
                    "midi": 37,
                    "name": "C#2",
                    "ticks": 172440,
                    "time": 171.0712575,
                    "velocity": 0.905511811023622
                },
                {
                    "duration": 0.06746025000001055,
                    "durationTicks": 68,
                    "midi": 40,
                    "name": "E2",
                    "ticks": 172560,
                    "time": 171.190305,
                    "velocity": 1
                },
                {
                    "duration": 0.06746025000001055,
                    "durationTicks": 68,
                    "midi": 37,
                    "name": "C#2",
                    "ticks": 172680,
                    "time": 171.3093525,
                    "velocity": 1
                },
                {
                    "duration": 0.06746024999998212,
                    "durationTicks": 68,
                    "midi": 37,
                    "name": "C#2",
                    "ticks": 172800,
                    "time": 171.4284,
                    "velocity": 1
                },
                {
                    "duration": 0.06746024999998212,
                    "durationTicks": 68,
                    "midi": 37,
                    "name": "C#2",
                    "ticks": 172920,
                    "time": 171.5474475,
                    "velocity": 1
                },
                {
                    "duration": 0.06746024999998212,
                    "durationTicks": 68,
                    "midi": 40,
                    "name": "E2",
                    "ticks": 173040,
                    "time": 171.666495,
                    "velocity": 1
                },
                {
                    "duration": 0.06746025000001055,
                    "durationTicks": 68,
                    "midi": 44,
                    "name": "G#2",
                    "ticks": 173160,
                    "time": 171.7855425,
                    "velocity": 0.8582677165354331
                },
                {
                    "duration": 0.06746024999998212,
                    "durationTicks": 68,
                    "midi": 40,
                    "name": "E2",
                    "ticks": 173280,
                    "time": 171.90459,
                    "velocity": 0.8582677165354331
                },
                {
                    "duration": 0.06746024999998212,
                    "durationTicks": 68,
                    "midi": 37,
                    "name": "C#2",
                    "ticks": 173400,
                    "time": 172.0236375,
                    "velocity": 1
                },
                {
                    "duration": 0.06746024999998212,
                    "durationTicks": 68,
                    "midi": 40,
                    "name": "E2",
                    "ticks": 173520,
                    "time": 172.142685,
                    "velocity": 0.905511811023622
                },
                {
                    "duration": 0.06746025000001055,
                    "durationTicks": 68,
                    "midi": 44,
                    "name": "G#2",
                    "ticks": 173640,
                    "time": 172.2617325,
                    "velocity": 1
                },
                {
                    "duration": 0.06746025000001055,
                    "durationTicks": 68,
                    "midi": 40,
                    "name": "E2",
                    "ticks": 173760,
                    "time": 172.38078,
                    "velocity": 0.9763779527559056
                },
                {
                    "duration": 0.06746024999998212,
                    "durationTicks": 68,
                    "midi": 37,
                    "name": "C#2",
                    "ticks": 173880,
                    "time": 172.4998275,
                    "velocity": 1
                },
                {
                    "duration": 0.06746024999998212,
                    "durationTicks": 68,
                    "midi": 40,
                    "name": "E2",
                    "ticks": 174000,
                    "time": 172.618875,
                    "velocity": 0.9763779527559056
                },
                {
                    "duration": 0.06746025000001055,
                    "durationTicks": 68,
                    "midi": 44,
                    "name": "G#2",
                    "ticks": 174120,
                    "time": 172.7379225,
                    "velocity": 0.905511811023622
                },
                {
                    "duration": 0.06746025000001055,
                    "durationTicks": 68,
                    "midi": 40,
                    "name": "E2",
                    "ticks": 174240,
                    "time": 172.85697,
                    "velocity": 1
                },
                {
                    "duration": 0.06746024999998212,
                    "durationTicks": 68,
                    "midi": 37,
                    "name": "C#2",
                    "ticks": 174360,
                    "time": 172.9760175,
                    "velocity": 0.905511811023622
                },
                {
                    "duration": 0.06746024999998212,
                    "durationTicks": 68,
                    "midi": 40,
                    "name": "E2",
                    "ticks": 174480,
                    "time": 173.095065,
                    "velocity": 1
                },
                {
                    "duration": 0.06746024999998212,
                    "durationTicks": 68,
                    "midi": 37,
                    "name": "C#2",
                    "ticks": 174600,
                    "time": 173.2141125,
                    "velocity": 1
                },
                {
                    "duration": 0.06746025000001055,
                    "durationTicks": 68,
                    "midi": 37,
                    "name": "C#2",
                    "ticks": 174720,
                    "time": 173.33316,
                    "velocity": 1
                },
                {
                    "duration": 0.06746024999998212,
                    "durationTicks": 68,
                    "midi": 37,
                    "name": "C#2",
                    "ticks": 174840,
                    "time": 173.45220750000001,
                    "velocity": 1
                },
                {
                    "duration": 0.06746024999998212,
                    "durationTicks": 68,
                    "midi": 40,
                    "name": "E2",
                    "ticks": 174960,
                    "time": 173.571255,
                    "velocity": 1
                },
                {
                    "duration": 0.06746024999998212,
                    "durationTicks": 68,
                    "midi": 44,
                    "name": "G#2",
                    "ticks": 175080,
                    "time": 173.6903025,
                    "velocity": 0.8582677165354331
                },
                {
                    "duration": 0.06746025000001055,
                    "durationTicks": 68,
                    "midi": 40,
                    "name": "E2",
                    "ticks": 175200,
                    "time": 173.80935,
                    "velocity": 0.8582677165354331
                },
                {
                    "duration": 0.06746025000001055,
                    "durationTicks": 68,
                    "midi": 37,
                    "name": "C#2",
                    "ticks": 175320,
                    "time": 173.9283975,
                    "velocity": 1
                },
                {
                    "duration": 0.06746024999998212,
                    "durationTicks": 68,
                    "midi": 40,
                    "name": "E2",
                    "ticks": 175440,
                    "time": 174.047445,
                    "velocity": 0.905511811023622
                },
                {
                    "duration": 0.06746024999998212,
                    "durationTicks": 68,
                    "midi": 44,
                    "name": "G#2",
                    "ticks": 175560,
                    "time": 174.1664925,
                    "velocity": 1
                },
                {
                    "duration": 1.8988076249999892,
                    "durationTicks": 1914,
                    "midi": 66,
                    "name": "F#4",
                    "ticks": 182400,
                    "time": 180.9522,
                    "velocity": 0.6692913385826772
                },
                {
                    "duration": 1.8988076249999892,
                    "durationTicks": 1914,
                    "midi": 70,
                    "name": "A#4",
                    "ticks": 182400,
                    "time": 180.9522,
                    "velocity": 0.6692913385826772
                },
                {
                    "duration": 1.7132919375000029,
                    "durationTicks": 1727,
                    "midi": 59,
                    "name": "B3",
                    "ticks": 197760,
                    "time": 196.19028,
                    "velocity": 0.5039370078740157
                },
                {
                    "duration": 1.7103157499999782,
                    "durationTicks": 1724,
                    "midi": 47,
                    "name": "B2",
                    "ticks": 197760,
                    "time": 196.19028,
                    "velocity": 0.5039370078740157
                },
                {
                    "duration": 1.2083321250000267,
                    "durationTicks": 1218,
                    "midi": 71,
                    "name": "B4",
                    "ticks": 198360,
                    "time": 196.7855175,
                    "velocity": 0.937007874015748
                },
                {
                    "duration": 0.44742018750000057,
                    "durationTicks": 451,
                    "midi": 83,
                    "name": "B5",
                    "ticks": 199200,
                    "time": 197.61885,
                    "velocity": 0.9763779527559056
                }
            ]
        },
        {
            "channel": 8,
            "controlChanges": {
                "7": [
                    {
                        "number": 7,
                        "ticks": 44640,
                        "time": 44.28567,
                        "value": 0.6614173228346457
                    },
                    {
                        "number": 7,
                        "ticks": 45384,
                        "time": 45.0237645,
                        "value": 0.5669291338582677
                    },
                    {
                        "number": 7,
                        "ticks": 46128,
                        "time": 45.761858999999994,
                        "value": 0.47244094488188976
                    },
                    {
                        "number": 7,
                        "ticks": 46872,
                        "time": 46.499953500000004,
                        "value": 0.3779527559055118
                    },
                    {
                        "number": 7,
                        "ticks": 47616,
                        "time": 47.238048,
                        "value": 0.28346456692913385
                    },
                    {
                        "number": 7,
                        "ticks": 48360,
                        "time": 47.9761425,
                        "value": 0.1889763779527559
                    },
                    {
                        "number": 7,
                        "ticks": 49104,
                        "time": 48.714237,
                        "value": 0.09448818897637795
                    },
                    {
                        "number": 7,
                        "ticks": 49848,
                        "time": 49.4523315,
                        "value": 0
                    },
                    {
                        "number": 7,
                        "ticks": 50280,
                        "time": 49.8809025,
                        "value": 0.1889763779527559
                    },
                    {
                        "number": 7,
                        "ticks": 51024,
                        "time": 50.618997,
                        "value": 0.09448818897637795
                    },
                    {
                        "number": 7,
                        "ticks": 51768,
                        "time": 51.357091499999996,
                        "value": 0
                    },
                    {
                        "number": 7,
                        "ticks": 52200,
                        "time": 51.7856625,
                        "value": 0.1889763779527559
                    },
                    {
                        "number": 7,
                        "ticks": 52944,
                        "time": 52.523756999999996,
                        "value": 0.09448818897637795
                    },
                    {
                        "number": 7,
                        "ticks": 53688,
                        "time": 53.2618515,
                        "value": 0
                    },
                    {
                        "number": 7,
                        "ticks": 53808,
                        "time": 53.380899,
                        "value": 0.47244094488188976
                    },
                    {
                        "number": 7,
                        "ticks": 54552,
                        "time": 54.1189935,
                        "value": 0.3779527559055118
                    },
                    {
                        "number": 7,
                        "ticks": 55296,
                        "time": 54.857088000000005,
                        "value": 0.28346456692913385
                    },
                    {
                        "number": 7,
                        "ticks": 56040,
                        "time": 55.5951825,
                        "value": 0.1889763779527559
                    },
                    {
                        "number": 7,
                        "ticks": 56784,
                        "time": 56.333276999999995,
                        "value": 0.09448818897637795
                    },
                    {
                        "number": 7,
                        "ticks": 57528,
                        "time": 57.0713715,
                        "value": 0
                    },
                    {
                        "number": 7,
                        "ticks": 57960,
                        "time": 57.4999425,
                        "value": 0.1889763779527559
                    },
                    {
                        "number": 7,
                        "ticks": 58704,
                        "time": 58.238037,
                        "value": 0.09448818897637795
                    },
                    {
                        "number": 7,
                        "ticks": 59448,
                        "time": 58.9761315,
                        "value": 0
                    },
                    {
                        "number": 7,
                        "ticks": 115248,
                        "time": 114.333219,
                        "value": 0.47244094488188976
                    },
                    {
                        "number": 7,
                        "ticks": 115992,
                        "time": 115.0713135,
                        "value": 0.3779527559055118
                    },
                    {
                        "number": 7,
                        "ticks": 116736,
                        "time": 115.80940799999999,
                        "value": 0.28346456692913385
                    },
                    {
                        "number": 7,
                        "ticks": 117480,
                        "time": 116.54750250000001,
                        "value": 0.1889763779527559
                    },
                    {
                        "number": 7,
                        "ticks": 118224,
                        "time": 117.28559700000001,
                        "value": 0.09448818897637795
                    },
                    {
                        "number": 7,
                        "ticks": 118968,
                        "time": 118.0236915,
                        "value": 0
                    },
                    {
                        "number": 7,
                        "ticks": 119400,
                        "time": 118.4522625,
                        "value": 0.1889763779527559
                    },
                    {
                        "number": 7,
                        "ticks": 120144,
                        "time": 119.190357,
                        "value": 0.09448818897637795
                    },
                    {
                        "number": 7,
                        "ticks": 120888,
                        "time": 119.9284515,
                        "value": 0
                    },
                    {
                        "number": 7,
                        "ticks": 121320,
                        "time": 120.3570225,
                        "value": 0.1889763779527559
                    },
                    {
                        "number": 7,
                        "ticks": 122064,
                        "time": 121.095117,
                        "value": 0.09448818897637795
                    },
                    {
                        "number": 7,
                        "ticks": 122808,
                        "time": 121.8332115,
                        "value": 0
                    },
                    {
                        "number": 7,
                        "ticks": 122928,
                        "time": 121.95225900000001,
                        "value": 0.47244094488188976
                    },
                    {
                        "number": 7,
                        "ticks": 123672,
                        "time": 122.69035349999999,
                        "value": 0.3779527559055118
                    },
                    {
                        "number": 7,
                        "ticks": 124416,
                        "time": 123.42844799999999,
                        "value": 0.28346456692913385
                    },
                    {
                        "number": 7,
                        "ticks": 125160,
                        "time": 124.1665425,
                        "value": 0.1889763779527559
                    },
                    {
                        "number": 7,
                        "ticks": 125904,
                        "time": 124.90463700000001,
                        "value": 0.09448818897637795
                    },
                    {
                        "number": 7,
                        "ticks": 126648,
                        "time": 125.64273150000001,
                        "value": 0
                    },
                    {
                        "number": 7,
                        "ticks": 127080,
                        "time": 126.0713025,
                        "value": 0.1889763779527559
                    },
                    {
                        "number": 7,
                        "ticks": 127824,
                        "time": 126.809397,
                        "value": 0.09448818897637795
                    },
                    {
                        "number": 7,
                        "ticks": 128568,
                        "time": 127.5474915,
                        "value": 0
                    }
                ],
                "120": [
                    {
                        "number": 120,
                        "ticks": 49920,
                        "time": 49.52376,
                        "value": 0
                    },
                    {
                        "number": 120,
                        "ticks": 53760,
                        "time": 53.33328,
                        "value": 0
                    },
                    {
                        "number": 120,
                        "ticks": 57600,
                        "time": 57.1428,
                        "value": 0
                    },
                    {
                        "number": 120,
                        "ticks": 119040,
                        "time": 118.09512,
                        "value": 0
                    },
                    {
                        "number": 120,
                        "ticks": 122880,
                        "time": 121.90464,
                        "value": 0
                    },
                    {
                        "number": 120,
                        "ticks": 126720,
                        "time": 125.71416,
                        "value": 0
                    }
                ],
                "123": [
                    {
                        "number": 123,
                        "ticks": 49920,
                        "time": 49.52376,
                        "value": 0
                    },
                    {
                        "number": 123,
                        "ticks": 53760,
                        "time": 53.33328,
                        "value": 0
                    },
                    {
                        "number": 123,
                        "ticks": 57600,
                        "time": 57.1428,
                        "value": 0
                    },
                    {
                        "number": 123,
                        "ticks": 119040,
                        "time": 118.09512,
                        "value": 0
                    },
                    {
                        "number": 123,
                        "ticks": 122880,
                        "time": 121.90464,
                        "value": 0
                    },
                    {
                        "number": 123,
                        "ticks": 126720,
                        "time": 125.71416,
                        "value": 0
                    }
                ]
            },
            "pitchBends": [],
            "instrument": {
                "family": "synth pad",
                "name": "pad 4 (choir)",
                "number": 91
            },
            "name": "",
            "notes": [
                {
                    "duration": 0.2321426249999945,
                    "durationTicks": 234,
                    "midi": 59,
                    "name": "B3",
                    "ticks": 36720,
                    "time": 36.428535000000004,
                    "velocity": 0.8582677165354331
                },
                {
                    "duration": 0.2321426250000016,
                    "durationTicks": 234,
                    "midi": 58,
                    "name": "A#3",
                    "ticks": 36960,
                    "time": 36.66663,
                    "velocity": 0.7559055118110236
                },
                {
                    "duration": 0.2321426250000016,
                    "durationTicks": 234,
                    "midi": 54,
                    "name": "F#3",
                    "ticks": 37200,
                    "time": 36.904725,
                    "velocity": 0.5669291338582677
                },
                {
                    "duration": 0.2321426250000016,
                    "durationTicks": 234,
                    "midi": 52,
                    "name": "E3",
                    "ticks": 37440,
                    "time": 37.14282,
                    "velocity": 0.8110236220472441
                },
                {
                    "duration": 0.2321426249999945,
                    "durationTicks": 234,
                    "midi": 49,
                    "name": "C#3",
                    "ticks": 37680,
                    "time": 37.380915,
                    "velocity": 0.8188976377952756
                },
                {
                    "duration": 0.2321426249999945,
                    "durationTicks": 234,
                    "midi": 52,
                    "name": "E3",
                    "ticks": 37920,
                    "time": 37.61901,
                    "velocity": 0.6850393700787402
                },
                {
                    "duration": 0.2321426250000016,
                    "durationTicks": 234,
                    "midi": 49,
                    "name": "C#3",
                    "ticks": 38160,
                    "time": 37.857105,
                    "velocity": 0.8188976377952756
                },
                {
                    "duration": 1.8988076250000034,
                    "durationTicks": 1914,
                    "midi": 42,
                    "name": "F#2",
                    "ticks": 38400,
                    "time": 38.0952,
                    "velocity": 0.8188976377952756
                },
                {
                    "duration": 1.8988076249999963,
                    "durationTicks": 1914,
                    "midi": 40,
                    "name": "E2",
                    "ticks": 40320,
                    "time": 39.99996,
                    "velocity": 0.8188976377952756
                },
                {
                    "duration": 1.8988076250000034,
                    "durationTicks": 1914,
                    "midi": 47,
                    "name": "B2",
                    "ticks": 42240,
                    "time": 41.90472,
                    "velocity": 0.8188976377952756
                },
                {
                    "duration": 1.7132919375000029,
                    "durationTicks": 1727,
                    "midi": 59,
                    "name": "B3",
                    "ticks": 59520,
                    "time": 59.04756,
                    "velocity": 0.5039370078740157
                },
                {
                    "duration": 1.7103157500000066,
                    "durationTicks": 1724,
                    "midi": 47,
                    "name": "B2",
                    "ticks": 59520,
                    "time": 59.04756,
                    "velocity": 0.5039370078740157
                },
                {
                    "duration": 1.2083321249999983,
                    "durationTicks": 1218,
                    "midi": 71,
                    "name": "B4",
                    "ticks": 60120,
                    "time": 59.6427975,
                    "velocity": 0.937007874015748
                },
                {
                    "duration": 0.44742018750000057,
                    "durationTicks": 451,
                    "midi": 83,
                    "name": "B5",
                    "ticks": 60960,
                    "time": 60.47613,
                    "velocity": 0.9763779527559056
                },
                {
                    "duration": 1.7132919375000029,
                    "durationTicks": 1727,
                    "midi": 59,
                    "name": "B3",
                    "ticks": 105600,
                    "time": 104.7618,
                    "velocity": 0.5039370078740157
                },
                {
                    "duration": 1.7103157500000066,
                    "durationTicks": 1724,
                    "midi": 47,
                    "name": "B2",
                    "ticks": 105600,
                    "time": 104.7618,
                    "velocity": 0.5039370078740157
                },
                {
                    "duration": 1.2083321249999983,
                    "durationTicks": 1218,
                    "midi": 71,
                    "name": "B4",
                    "ticks": 106200,
                    "time": 105.3570375,
                    "velocity": 0.937007874015748
                },
                {
                    "duration": 0.44742018750000057,
                    "durationTicks": 451,
                    "midi": 83,
                    "name": "B5",
                    "ticks": 107040,
                    "time": 106.19037,
                    "velocity": 0.9763779527559056
                },
                {
                    "duration": 1.7132919375000029,
                    "durationTicks": 1727,
                    "midi": 59,
                    "name": "B3",
                    "ticks": 128640,
                    "time": 127.61892,
                    "velocity": 0.5039370078740157
                },
                {
                    "duration": 1.7103157499999782,
                    "durationTicks": 1724,
                    "midi": 47,
                    "name": "B2",
                    "ticks": 128640,
                    "time": 127.61892,
                    "velocity": 0.5039370078740157
                },
                {
                    "duration": 1.2083321250000267,
                    "durationTicks": 1218,
                    "midi": 71,
                    "name": "B4",
                    "ticks": 129240,
                    "time": 128.2141575,
                    "velocity": 0.937007874015748
                },
                {
                    "duration": 0.44742018750000057,
                    "durationTicks": 451,
                    "midi": 83,
                    "name": "B5",
                    "ticks": 130080,
                    "time": 129.04749,
                    "velocity": 0.9763779527559056
                }
            ]
        },
        {
            "channel": 0,
            "controlChanges": {
                "0": [
                    {
                        "number": 0,
                        "ticks": 0,
                        "time": 0,
                        "value": 0
                    }
                ]
            },
            "pitchBends": [],
            "instrument": {
                "family": "piano",
                "name": "acoustic grand piano",
                "number": 0
            },
            "name": "Shamisen",
            "notes": []
        },
        {
            "channel": 11,
            "controlChanges": {
                "1": [
                    {
                        "number": 1,
                        "ticks": 832,
                        "time": 0.825396,
                        "value": 0
                    }
                ],
                "6": [
                    {
                        "number": 6,
                        "ticks": 920,
                        "time": 0.9126975,
                        "value": 0.3543307086614173
                    }
                ],
                "7": [
                    {
                        "number": 7,
                        "ticks": 507,
                        "time": 0.5029756875,
                        "value": 0.4015748031496063
                    },
                    {
                        "number": 7,
                        "ticks": 44625,
                        "time": 44.2707890625,
                        "value": 0.4251968503937008
                    },
                    {
                        "number": 7,
                        "ticks": 47355,
                        "time": 46.9791196875,
                        "value": 0.41732283464566927
                    },
                    {
                        "number": 7,
                        "ticks": 47895,
                        "time": 47.5148334375,
                        "value": 0.4094488188976378
                    },
                    {
                        "number": 7,
                        "ticks": 48435,
                        "time": 48.0505471875,
                        "value": 0.4015748031496063
                    },
                    {
                        "number": 7,
                        "ticks": 48975,
                        "time": 48.5862609375,
                        "value": 0.3937007874015748
                    },
                    {
                        "number": 7,
                        "ticks": 49515,
                        "time": 49.1219746875,
                        "value": 0.3858267716535433
                    },
                    {
                        "number": 7,
                        "ticks": 49920,
                        "time": 49.52376,
                        "value": 0.3543307086614173
                    },
                    {
                        "number": 7,
                        "ticks": 50355,
                        "time": 49.9553071875,
                        "value": 0.4015748031496063
                    },
                    {
                        "number": 7,
                        "ticks": 50895,
                        "time": 50.491020937500004,
                        "value": 0.3937007874015748
                    },
                    {
                        "number": 7,
                        "ticks": 51435,
                        "time": 51.0267346875,
                        "value": 0.3858267716535433
                    },
                    {
                        "number": 7,
                        "ticks": 52275,
                        "time": 51.8600671875,
                        "value": 0.4015748031496063
                    },
                    {
                        "number": 7,
                        "ticks": 52815,
                        "time": 52.3957809375,
                        "value": 0.3937007874015748
                    },
                    {
                        "number": 7,
                        "ticks": 53355,
                        "time": 52.9314946875,
                        "value": 0.3858267716535433
                    },
                    {
                        "number": 7,
                        "ticks": 53760,
                        "time": 53.33328,
                        "value": 0.3543307086614173
                    },
                    {
                        "number": 7,
                        "ticks": 55035,
                        "time": 54.5981596875,
                        "value": 0.41732283464566927
                    },
                    {
                        "number": 7,
                        "ticks": 55575,
                        "time": 55.1338734375,
                        "value": 0.4094488188976378
                    },
                    {
                        "number": 7,
                        "ticks": 56115,
                        "time": 55.6695871875,
                        "value": 0.4015748031496063
                    },
                    {
                        "number": 7,
                        "ticks": 56655,
                        "time": 56.2053009375,
                        "value": 0.3937007874015748
                    },
                    {
                        "number": 7,
                        "ticks": 57195,
                        "time": 56.7410146875,
                        "value": 0.3858267716535433
                    },
                    {
                        "number": 7,
                        "ticks": 57600,
                        "time": 57.1428,
                        "value": 0.3543307086614173
                    },
                    {
                        "number": 7,
                        "ticks": 58035,
                        "time": 57.5743471875,
                        "value": 0.4015748031496063
                    },
                    {
                        "number": 7,
                        "ticks": 58575,
                        "time": 58.1100609375,
                        "value": 0.3937007874015748
                    },
                    {
                        "number": 7,
                        "ticks": 59115,
                        "time": 58.6457746875,
                        "value": 0.3858267716535433
                    },
                    {
                        "number": 7,
                        "ticks": 92145,
                        "time": 91.4135990625,
                        "value": 0.6456692913385826
                    },
                    {
                        "number": 7,
                        "ticks": 92205,
                        "time": 91.4731228125,
                        "value": 0.6535433070866141
                    },
                    {
                        "number": 7,
                        "ticks": 92235,
                        "time": 91.5028846875,
                        "value": 0.6614173228346457
                    },
                    {
                        "number": 7,
                        "ticks": 92295,
                        "time": 91.5624084375,
                        "value": 0.6692913385826772
                    },
                    {
                        "number": 7,
                        "ticks": 92325,
                        "time": 91.5921703125,
                        "value": 0.6771653543307087
                    },
                    {
                        "number": 7,
                        "ticks": 99840,
                        "time": 99.04752,
                        "value": 0.6771653543307087
                    },
                    {
                        "number": 7,
                        "ticks": 116475,
                        "time": 115.5504796875,
                        "value": 0.41732283464566927
                    },
                    {
                        "number": 7,
                        "ticks": 117015,
                        "time": 116.0861934375,
                        "value": 0.4094488188976378
                    },
                    {
                        "number": 7,
                        "ticks": 117555,
                        "time": 116.6219071875,
                        "value": 0.4015748031496063
                    },
                    {
                        "number": 7,
                        "ticks": 118095,
                        "time": 117.1576209375,
                        "value": 0.3937007874015748
                    },
                    {
                        "number": 7,
                        "ticks": 118635,
                        "time": 117.6933346875,
                        "value": 0.3858267716535433
                    },
                    {
                        "number": 7,
                        "ticks": 119040,
                        "time": 118.09512,
                        "value": 0.3543307086614173
                    },
                    {
                        "number": 7,
                        "ticks": 119475,
                        "time": 118.5266671875,
                        "value": 0.4015748031496063
                    },
                    {
                        "number": 7,
                        "ticks": 120015,
                        "time": 119.0623809375,
                        "value": 0.3937007874015748
                    },
                    {
                        "number": 7,
                        "ticks": 120555,
                        "time": 119.5980946875,
                        "value": 0.3858267716535433
                    },
                    {
                        "number": 7,
                        "ticks": 121395,
                        "time": 120.4314271875,
                        "value": 0.4015748031496063
                    },
                    {
                        "number": 7,
                        "ticks": 121935,
                        "time": 120.9671409375,
                        "value": 0.3937007874015748
                    },
                    {
                        "number": 7,
                        "ticks": 122475,
                        "time": 121.5028546875,
                        "value": 0.3858267716535433
                    },
                    {
                        "number": 7,
                        "ticks": 122880,
                        "time": 121.90464,
                        "value": 0.3543307086614173
                    },
                    {
                        "number": 7,
                        "ticks": 124155,
                        "time": 123.1695196875,
                        "value": 0.41732283464566927
                    },
                    {
                        "number": 7,
                        "ticks": 124695,
                        "time": 123.7052334375,
                        "value": 0.4094488188976378
                    },
                    {
                        "number": 7,
                        "ticks": 125235,
                        "time": 124.2409471875,
                        "value": 0.4015748031496063
                    },
                    {
                        "number": 7,
                        "ticks": 125775,
                        "time": 124.7766609375,
                        "value": 0.3937007874015748
                    },
                    {
                        "number": 7,
                        "ticks": 126315,
                        "time": 125.3123746875,
                        "value": 0.3858267716535433
                    },
                    {
                        "number": 7,
                        "ticks": 126720,
                        "time": 125.71416,
                        "value": 0.3543307086614173
                    },
                    {
                        "number": 7,
                        "ticks": 127155,
                        "time": 126.1457071875,
                        "value": 0.4015748031496063
                    },
                    {
                        "number": 7,
                        "ticks": 127695,
                        "time": 126.68142093750001,
                        "value": 0.3937007874015748
                    },
                    {
                        "number": 7,
                        "ticks": 128235,
                        "time": 127.2171346875,
                        "value": 0.3858267716535433
                    },
                    {
                        "number": 7,
                        "ticks": 161265,
                        "time": 159.9849590625,
                        "value": 0.6456692913385826
                    },
                    {
                        "number": 7,
                        "ticks": 175725,
                        "time": 174.3301828125,
                        "value": 0.6535433070866141
                    },
                    {
                        "number": 7,
                        "ticks": 175755,
                        "time": 174.3599446875,
                        "value": 0.6614173228346457
                    },
                    {
                        "number": 7,
                        "ticks": 175815,
                        "time": 174.4194684375,
                        "value": 0.6692913385826772
                    },
                    {
                        "number": 7,
                        "ticks": 175845,
                        "time": 174.4492303125,
                        "value": 0.6771653543307087
                    },
                    {
                        "number": 7,
                        "ticks": 230385,
                        "time": 228.5563190625,
                        "value": 0.6456692913385826
                    }
                ],
                "10": [
                    {
                        "number": 10,
                        "ticks": 557,
                        "time": 0.5525788125,
                        "value": 0.15748031496062992
                    }
                ],
                "11": [
                    {
                        "number": 11,
                        "ticks": 782,
                        "time": 0.775792875,
                        "value": 1
                    }
                ],
                "64": [
                    {
                        "number": 64,
                        "ticks": 732,
                        "time": 0.72618975,
                        "value": 0
                    }
                ],
                "91": [
                    {
                        "number": 91,
                        "ticks": 632,
                        "time": 0.6269835,
                        "value": 0.7952755905511811
                    }
                ],
                "93": [
                    {
                        "number": 93,
                        "ticks": 682,
                        "time": 0.676586625,
                        "value": 0.2677165354330709
                    }
                ],
                "98": [
                    {
                        "number": 98,
                        "ticks": 920,
                        "time": 0.9126975,
                        "value": 0.8031496062992126
                    }
                ],
                "99": [
                    {
                        "number": 99,
                        "ticks": 920,
                        "time": 0.9126975,
                        "value": 0.007874015748031496
                    }
                ],
                "120": [
                    {
                        "number": 120,
                        "ticks": 49920,
                        "time": 49.52376,
                        "value": 0
                    },
                    {
                        "number": 120,
                        "ticks": 53760,
                        "time": 53.33328,
                        "value": 0
                    },
                    {
                        "number": 120,
                        "ticks": 57600,
                        "time": 57.1428,
                        "value": 0
                    },
                    {
                        "number": 120,
                        "ticks": 119040,
                        "time": 118.09512,
                        "value": 0
                    },
                    {
                        "number": 120,
                        "ticks": 122880,
                        "time": 121.90464,
                        "value": 0
                    },
                    {
                        "number": 120,
                        "ticks": 126720,
                        "time": 125.71416,
                        "value": 0
                    }
                ],
                "121": [
                    {
                        "number": 121,
                        "ticks": 340,
                        "time": 0.33730125,
                        "value": 0
                    }
                ],
                "123": [
                    {
                        "number": 123,
                        "ticks": 49920,
                        "time": 49.52376,
                        "value": 0
                    },
                    {
                        "number": 123,
                        "ticks": 53760,
                        "time": 53.33328,
                        "value": 0
                    },
                    {
                        "number": 123,
                        "ticks": 57600,
                        "time": 57.1428,
                        "value": 0
                    },
                    {
                        "number": 123,
                        "ticks": 119040,
                        "time": 118.09512,
                        "value": 0
                    },
                    {
                        "number": 123,
                        "ticks": 122880,
                        "time": 121.90464,
                        "value": 0
                    },
                    {
                        "number": 123,
                        "ticks": 126720,
                        "time": 125.71416,
                        "value": 0
                    }
                ]
            },
            "pitchBends": [
                {
                    "ticks": 882,
                    "time": 0.874999125,
                    "value": 0
                }
            ],
            "instrument": {
                "family": "world",
                "name": "shamisen",
                "number": 106
            },
            "name": "",
            "notes": [
                {
                    "duration": 0.11309512499999919,
                    "durationTicks": 114,
                    "midi": 54,
                    "name": "F#3",
                    "ticks": 11520,
                    "time": 11.428560000000001,
                    "velocity": 0.8740157480314961
                },
                {
                    "duration": 0.11309512500000096,
                    "durationTicks": 114,
                    "midi": 54,
                    "name": "F#3",
                    "ticks": 11640,
                    "time": 11.5476075,
                    "velocity": 0.7007874015748031
                },
                {
                    "duration": 0.11309512499999919,
                    "durationTicks": 114,
                    "midi": 54,
                    "name": "F#3",
                    "ticks": 11760,
                    "time": 11.666655,
                    "velocity": 0.7007874015748031
                },
                {
                    "duration": 0.11309512500000096,
                    "durationTicks": 114,
                    "midi": 54,
                    "name": "F#3",
                    "ticks": 11880,
                    "time": 11.7857025,
                    "velocity": 0.8740157480314961
                },
                {
                    "duration": 0.11309512500000096,
                    "durationTicks": 114,
                    "midi": 54,
                    "name": "F#3",
                    "ticks": 12000,
                    "time": 11.90475,
                    "velocity": 0.8740157480314961
                },
                {
                    "duration": 0.11309512499999919,
                    "durationTicks": 114,
                    "midi": 54,
                    "name": "F#3",
                    "ticks": 12120,
                    "time": 12.0237975,
                    "velocity": 0.6377952755905512
                },
                {
                    "duration": 0.11309512500000096,
                    "durationTicks": 114,
                    "midi": 54,
                    "name": "F#3",
                    "ticks": 12240,
                    "time": 12.142845,
                    "velocity": 0.7007874015748031
                },
                {
                    "duration": 0.11309512500000096,
                    "durationTicks": 114,
                    "midi": 54,
                    "name": "F#3",
                    "ticks": 12360,
                    "time": 12.2618925,
                    "velocity": 0.7322834645669292
                },
                {
                    "duration": 0.11309512499999919,
                    "durationTicks": 114,
                    "midi": 54,
                    "name": "F#3",
                    "ticks": 12480,
                    "time": 12.38094,
                    "velocity": 0.7795275590551181
                },
                {
                    "duration": 0.11309512500000096,
                    "durationTicks": 114,
                    "midi": 61,
                    "name": "C#4",
                    "ticks": 12600,
                    "time": 12.4999875,
                    "velocity": 0.8740157480314961
                },
                {
                    "duration": 0.11309512500000096,
                    "durationTicks": 114,
                    "midi": 54,
                    "name": "F#3",
                    "ticks": 12720,
                    "time": 12.619035,
                    "velocity": 0.48031496062992124
                },
                {
                    "duration": 0.11309512499999919,
                    "durationTicks": 114,
                    "midi": 54,
                    "name": "F#3",
                    "ticks": 12840,
                    "time": 12.7380825,
                    "velocity": 0.7322834645669292
                },
                {
                    "duration": 0.11309512500000096,
                    "durationTicks": 114,
                    "midi": 54,
                    "name": "F#3",
                    "ticks": 12960,
                    "time": 12.85713,
                    "velocity": 0.8188976377952756
                },
                {
                    "duration": 0.11309512499999919,
                    "durationTicks": 114,
                    "midi": 54,
                    "name": "F#3",
                    "ticks": 13080,
                    "time": 12.9761775,
                    "velocity": 0.8740157480314961
                },
                {
                    "duration": 0.11309512500000096,
                    "durationTicks": 114,
                    "midi": 54,
                    "name": "F#3",
                    "ticks": 13200,
                    "time": 13.095225,
                    "velocity": 0.8188976377952756
                },
                {
                    "duration": 0.11309512500000096,
                    "durationTicks": 114,
                    "midi": 54,
                    "name": "F#3",
                    "ticks": 13320,
                    "time": 13.2142725,
                    "velocity": 0.8188976377952756
                },
                {
                    "duration": 0.11309512499999919,
                    "durationTicks": 114,
                    "midi": 54,
                    "name": "F#3",
                    "ticks": 13440,
                    "time": 13.33332,
                    "velocity": 0.8740157480314961
                },
                {
                    "duration": 0.11309512500000096,
                    "durationTicks": 114,
                    "midi": 54,
                    "name": "F#3",
                    "ticks": 13560,
                    "time": 13.4523675,
                    "velocity": 0.7007874015748031
                },
                {
                    "duration": 0.11309512500000096,
                    "durationTicks": 114,
                    "midi": 54,
                    "name": "F#3",
                    "ticks": 13680,
                    "time": 13.571415,
                    "velocity": 0.7007874015748031
                },
                {
                    "duration": 0.11309512499999919,
                    "durationTicks": 114,
                    "midi": 54,
                    "name": "F#3",
                    "ticks": 13800,
                    "time": 13.6904625,
                    "velocity": 0.8740157480314961
                },
                {
                    "duration": 0.11309512500000096,
                    "durationTicks": 114,
                    "midi": 54,
                    "name": "F#3",
                    "ticks": 13920,
                    "time": 13.80951,
                    "velocity": 0.8740157480314961
                },
                {
                    "duration": 0.11309512500000096,
                    "durationTicks": 114,
                    "midi": 54,
                    "name": "F#3",
                    "ticks": 14040,
                    "time": 13.9285575,
                    "velocity": 0.6377952755905512
                },
                {
                    "duration": 0.11309512499999919,
                    "durationTicks": 114,
                    "midi": 54,
                    "name": "F#3",
                    "ticks": 14160,
                    "time": 14.047605,
                    "velocity": 0.7007874015748031
                },
                {
                    "duration": 0.11309512500000096,
                    "durationTicks": 114,
                    "midi": 54,
                    "name": "F#3",
                    "ticks": 14280,
                    "time": 14.1666525,
                    "velocity": 0.7322834645669292
                },
                {
                    "duration": 0.11309512500000096,
                    "durationTicks": 114,
                    "midi": 54,
                    "name": "F#3",
                    "ticks": 14400,
                    "time": 14.2857,
                    "velocity": 0.7795275590551181
                },
                {
                    "duration": 0.11309512499999919,
                    "durationTicks": 114,
                    "midi": 61,
                    "name": "C#4",
                    "ticks": 14520,
                    "time": 14.404747500000001,
                    "velocity": 0.8740157480314961
                },
                {
                    "duration": 0.11309512500000096,
                    "durationTicks": 114,
                    "midi": 54,
                    "name": "F#3",
                    "ticks": 14640,
                    "time": 14.523795,
                    "velocity": 0.48031496062992124
                },
                {
                    "duration": 0.11309512499999919,
                    "durationTicks": 114,
                    "midi": 54,
                    "name": "F#3",
                    "ticks": 14760,
                    "time": 14.6428425,
                    "velocity": 0.7322834645669292
                },
                {
                    "duration": 0.11309512500000096,
                    "durationTicks": 114,
                    "midi": 54,
                    "name": "F#3",
                    "ticks": 14880,
                    "time": 14.76189,
                    "velocity": 0.8188976377952756
                },
                {
                    "duration": 0.11309512500000096,
                    "durationTicks": 114,
                    "midi": 54,
                    "name": "F#3",
                    "ticks": 15000,
                    "time": 14.8809375,
                    "velocity": 0.8740157480314961
                },
                {
                    "duration": 0.11309512499999919,
                    "durationTicks": 114,
                    "midi": 54,
                    "name": "F#3",
                    "ticks": 15120,
                    "time": 14.999985,
                    "velocity": 0.8188976377952756
                },
                {
                    "duration": 0.11309512500000096,
                    "durationTicks": 114,
                    "midi": 54,
                    "name": "F#3",
                    "ticks": 15240,
                    "time": 15.1190325,
                    "velocity": 0.8188976377952756
                },
                {
                    "duration": 0.11309512499999919,
                    "durationTicks": 114,
                    "midi": 54,
                    "name": "F#3",
                    "ticks": 15360,
                    "time": 15.23808,
                    "velocity": 0.8740157480314961
                },
                {
                    "duration": 0.11309512499999741,
                    "durationTicks": 114,
                    "midi": 54,
                    "name": "F#3",
                    "ticks": 15480,
                    "time": 15.3571275,
                    "velocity": 0.7007874015748031
                },
                {
                    "duration": 0.11309512499999919,
                    "durationTicks": 114,
                    "midi": 54,
                    "name": "F#3",
                    "ticks": 15600,
                    "time": 15.476175,
                    "velocity": 0.7007874015748031
                },
                {
                    "duration": 0.11309512499999919,
                    "durationTicks": 114,
                    "midi": 54,
                    "name": "F#3",
                    "ticks": 15720,
                    "time": 15.5952225,
                    "velocity": 0.8740157480314961
                },
                {
                    "duration": 0.11309512499999741,
                    "durationTicks": 114,
                    "midi": 54,
                    "name": "F#3",
                    "ticks": 15840,
                    "time": 15.71427,
                    "velocity": 0.8740157480314961
                },
                {
                    "duration": 0.11309512499999919,
                    "durationTicks": 114,
                    "midi": 54,
                    "name": "F#3",
                    "ticks": 15960,
                    "time": 15.8333175,
                    "velocity": 0.6377952755905512
                },
                {
                    "duration": 0.11309512499999741,
                    "durationTicks": 114,
                    "midi": 54,
                    "name": "F#3",
                    "ticks": 16080,
                    "time": 15.952365,
                    "velocity": 0.7007874015748031
                },
                {
                    "duration": 0.11309512499999741,
                    "durationTicks": 114,
                    "midi": 54,
                    "name": "F#3",
                    "ticks": 16200,
                    "time": 16.0714125,
                    "velocity": 0.7322834645669292
                },
                {
                    "duration": 0.11309512499999741,
                    "durationTicks": 114,
                    "midi": 54,
                    "name": "F#3",
                    "ticks": 16320,
                    "time": 16.19046,
                    "velocity": 0.7795275590551181
                },
                {
                    "duration": 0.11309512500000096,
                    "durationTicks": 114,
                    "midi": 61,
                    "name": "C#4",
                    "ticks": 16440,
                    "time": 16.3095075,
                    "velocity": 0.8740157480314961
                },
                {
                    "duration": 0.11309512500000096,
                    "durationTicks": 114,
                    "midi": 54,
                    "name": "F#3",
                    "ticks": 16560,
                    "time": 16.428555,
                    "velocity": 0.48031496062992124
                },
                {
                    "duration": 0.11309512499999741,
                    "durationTicks": 114,
                    "midi": 54,
                    "name": "F#3",
                    "ticks": 16680,
                    "time": 16.5476025,
                    "velocity": 0.7322834645669292
                },
                {
                    "duration": 0.11309512499999741,
                    "durationTicks": 114,
                    "midi": 54,
                    "name": "F#3",
                    "ticks": 16800,
                    "time": 16.66665,
                    "velocity": 0.8188976377952756
                },
                {
                    "duration": 0.11309512499999741,
                    "durationTicks": 114,
                    "midi": 54,
                    "name": "F#3",
                    "ticks": 16920,
                    "time": 16.7856975,
                    "velocity": 0.8740157480314961
                },
                {
                    "duration": 0.11309512500000096,
                    "durationTicks": 114,
                    "midi": 54,
                    "name": "F#3",
                    "ticks": 17040,
                    "time": 16.904745,
                    "velocity": 0.8188976377952756
                },
                {
                    "duration": 0.11309512500000096,
                    "durationTicks": 114,
                    "midi": 54,
                    "name": "F#3",
                    "ticks": 17160,
                    "time": 17.0237925,
                    "velocity": 0.8188976377952756
                },
                {
                    "duration": 0.11309512499999741,
                    "durationTicks": 114,
                    "midi": 54,
                    "name": "F#3",
                    "ticks": 17280,
                    "time": 17.14284,
                    "velocity": 0.8740157480314961
                },
                {
                    "duration": 0.11309512499999741,
                    "durationTicks": 114,
                    "midi": 54,
                    "name": "F#3",
                    "ticks": 17400,
                    "time": 17.2618875,
                    "velocity": 0.7007874015748031
                },
                {
                    "duration": 0.11309512499999741,
                    "durationTicks": 114,
                    "midi": 54,
                    "name": "F#3",
                    "ticks": 17520,
                    "time": 17.380935,
                    "velocity": 0.7007874015748031
                },
                {
                    "duration": 0.11309512499999741,
                    "durationTicks": 114,
                    "midi": 54,
                    "name": "F#3",
                    "ticks": 17640,
                    "time": 17.4999825,
                    "velocity": 0.8740157480314961
                },
                {
                    "duration": 0.11309512500000096,
                    "durationTicks": 114,
                    "midi": 54,
                    "name": "F#3",
                    "ticks": 17760,
                    "time": 17.61903,
                    "velocity": 0.8740157480314961
                },
                {
                    "duration": 0.11309512500000096,
                    "durationTicks": 114,
                    "midi": 54,
                    "name": "F#3",
                    "ticks": 17880,
                    "time": 17.7380775,
                    "velocity": 0.6377952755905512
                },
                {
                    "duration": 0.11309512499999741,
                    "durationTicks": 114,
                    "midi": 54,
                    "name": "F#3",
                    "ticks": 18000,
                    "time": 17.857125,
                    "velocity": 0.7007874015748031
                },
                {
                    "duration": 0.11309512499999741,
                    "durationTicks": 114,
                    "midi": 54,
                    "name": "F#3",
                    "ticks": 18120,
                    "time": 17.9761725,
                    "velocity": 0.7322834645669292
                },
                {
                    "duration": 0.11309512499999741,
                    "durationTicks": 114,
                    "midi": 54,
                    "name": "F#3",
                    "ticks": 18240,
                    "time": 18.09522,
                    "velocity": 0.7795275590551181
                },
                {
                    "duration": 0.11309512499999741,
                    "durationTicks": 114,
                    "midi": 61,
                    "name": "C#4",
                    "ticks": 18360,
                    "time": 18.214267500000002,
                    "velocity": 0.8740157480314961
                },
                {
                    "duration": 0.11309512500000096,
                    "durationTicks": 114,
                    "midi": 54,
                    "name": "F#3",
                    "ticks": 18480,
                    "time": 18.333315,
                    "velocity": 0.48031496062992124
                },
                {
                    "duration": 0.11309512499999741,
                    "durationTicks": 114,
                    "midi": 54,
                    "name": "F#3",
                    "ticks": 18600,
                    "time": 18.4523625,
                    "velocity": 0.7322834645669292
                },
                {
                    "duration": 0.11309512499999741,
                    "durationTicks": 114,
                    "midi": 54,
                    "name": "F#3",
                    "ticks": 18720,
                    "time": 18.57141,
                    "velocity": 0.8188976377952756
                },
                {
                    "duration": 0.11309512499999741,
                    "durationTicks": 114,
                    "midi": 54,
                    "name": "F#3",
                    "ticks": 18840,
                    "time": 18.6904575,
                    "velocity": 0.8740157480314961
                },
                {
                    "duration": 0.11309512499999741,
                    "durationTicks": 114,
                    "midi": 54,
                    "name": "F#3",
                    "ticks": 18960,
                    "time": 18.809505,
                    "velocity": 0.8188976377952756
                },
                {
                    "duration": 0.11309512500000096,
                    "durationTicks": 114,
                    "midi": 54,
                    "name": "F#3",
                    "ticks": 19080,
                    "time": 18.9285525,
                    "velocity": 0.8188976377952756
                },
                {
                    "duration": 0.11309512499999741,
                    "durationTicks": 114,
                    "midi": 42,
                    "name": "F#2",
                    "ticks": 23040,
                    "time": 22.857120000000002,
                    "velocity": 0.9448818897637795
                },
                {
                    "duration": 0.11309512500000096,
                    "durationTicks": 114,
                    "midi": 42,
                    "name": "F#2",
                    "ticks": 23160,
                    "time": 22.9761675,
                    "velocity": 0.9448818897637795
                },
                {
                    "duration": 0.11309512499999741,
                    "durationTicks": 114,
                    "midi": 54,
                    "name": "F#3",
                    "ticks": 23280,
                    "time": 23.095215,
                    "velocity": 0.7086614173228346
                },
                {
                    "duration": 0.11309512499999741,
                    "durationTicks": 114,
                    "midi": 54,
                    "name": "F#3",
                    "ticks": 23400,
                    "time": 23.2142625,
                    "velocity": 0.7322834645669292
                },
                {
                    "duration": 0.11309512499999741,
                    "durationTicks": 114,
                    "midi": 42,
                    "name": "F#2",
                    "ticks": 23520,
                    "time": 23.33331,
                    "velocity": 0.905511811023622
                },
                {
                    "duration": 0.11309512499999741,
                    "durationTicks": 114,
                    "midi": 42,
                    "name": "F#2",
                    "ticks": 23640,
                    "time": 23.4523575,
                    "velocity": 0.905511811023622
                },
                {
                    "duration": 0.11309512500000096,
                    "durationTicks": 114,
                    "midi": 54,
                    "name": "F#3",
                    "ticks": 23760,
                    "time": 23.571405,
                    "velocity": 0.8267716535433071
                },
                {
                    "duration": 0.11309512500000096,
                    "durationTicks": 114,
                    "midi": 54,
                    "name": "F#3",
                    "ticks": 23880,
                    "time": 23.6904525,
                    "velocity": 0.7637795275590551
                },
                {
                    "duration": 0.11309512499999741,
                    "durationTicks": 114,
                    "midi": 42,
                    "name": "F#2",
                    "ticks": 24000,
                    "time": 23.8095,
                    "velocity": 0.8267716535433071
                },
                {
                    "duration": 0.11309512499999741,
                    "durationTicks": 114,
                    "midi": 42,
                    "name": "F#2",
                    "ticks": 24120,
                    "time": 23.9285475,
                    "velocity": 0.8267716535433071
                },
                {
                    "duration": 0.11309512499999741,
                    "durationTicks": 114,
                    "midi": 54,
                    "name": "F#3",
                    "ticks": 24240,
                    "time": 24.047595,
                    "velocity": 0.905511811023622
                },
                {
                    "duration": 0.11309512499999741,
                    "durationTicks": 114,
                    "midi": 54,
                    "name": "F#3",
                    "ticks": 24360,
                    "time": 24.166642500000002,
                    "velocity": 0.9448818897637795
                },
                {
                    "duration": 0.11309512500000096,
                    "durationTicks": 114,
                    "midi": 42,
                    "name": "F#2",
                    "ticks": 24480,
                    "time": 24.28569,
                    "velocity": 0.905511811023622
                },
                {
                    "duration": 0.11309512500000096,
                    "durationTicks": 114,
                    "midi": 42,
                    "name": "F#2",
                    "ticks": 24600,
                    "time": 24.4047375,
                    "velocity": 0.9448818897637795
                },
                {
                    "duration": 0.11309512499999741,
                    "durationTicks": 114,
                    "midi": 54,
                    "name": "F#3",
                    "ticks": 24720,
                    "time": 24.523785,
                    "velocity": 0.905511811023622
                },
                {
                    "duration": 0.11309512499999741,
                    "durationTicks": 114,
                    "midi": 54,
                    "name": "F#3",
                    "ticks": 24840,
                    "time": 24.6428325,
                    "velocity": 0.9448818897637795
                },
                {
                    "duration": 0.11309512499999741,
                    "durationTicks": 114,
                    "midi": 40,
                    "name": "E2",
                    "ticks": 24960,
                    "time": 24.76188,
                    "velocity": 0.9448818897637795
                },
                {
                    "duration": 0.11309512500000096,
                    "durationTicks": 114,
                    "midi": 40,
                    "name": "E2",
                    "ticks": 25080,
                    "time": 24.8809275,
                    "velocity": 0.9448818897637795
                },
                {
                    "duration": 0.11309512500000096,
                    "durationTicks": 114,
                    "midi": 52,
                    "name": "E3",
                    "ticks": 25200,
                    "time": 24.999975,
                    "velocity": 0.7086614173228346
                },
                {
                    "duration": 0.11309512499999741,
                    "durationTicks": 114,
                    "midi": 52,
                    "name": "E3",
                    "ticks": 25320,
                    "time": 25.1190225,
                    "velocity": 0.7322834645669292
                },
                {
                    "duration": 0.11309512499999741,
                    "durationTicks": 114,
                    "midi": 40,
                    "name": "E2",
                    "ticks": 25440,
                    "time": 25.23807,
                    "velocity": 0.905511811023622
                },
                {
                    "duration": 0.11309512499999741,
                    "durationTicks": 114,
                    "midi": 40,
                    "name": "E2",
                    "ticks": 25560,
                    "time": 25.3571175,
                    "velocity": 0.905511811023622
                },
                {
                    "duration": 0.11309512499999741,
                    "durationTicks": 114,
                    "midi": 52,
                    "name": "E3",
                    "ticks": 25680,
                    "time": 25.476165,
                    "velocity": 0.8267716535433071
                },
                {
                    "duration": 0.11309512500000096,
                    "durationTicks": 114,
                    "midi": 52,
                    "name": "E3",
                    "ticks": 25800,
                    "time": 25.5952125,
                    "velocity": 0.7637795275590551
                },
                {
                    "duration": 0.11309512500000096,
                    "durationTicks": 114,
                    "midi": 40,
                    "name": "E2",
                    "ticks": 25920,
                    "time": 25.71426,
                    "velocity": 0.8267716535433071
                },
                {
                    "duration": 0.11309512499999741,
                    "durationTicks": 114,
                    "midi": 40,
                    "name": "E2",
                    "ticks": 26040,
                    "time": 25.8333075,
                    "velocity": 0.8267716535433071
                },
                {
                    "duration": 0.11309512499999741,
                    "durationTicks": 114,
                    "midi": 52,
                    "name": "E3",
                    "ticks": 26160,
                    "time": 25.952355,
                    "velocity": 0.905511811023622
                },
                {
                    "duration": 0.11309512499999741,
                    "durationTicks": 114,
                    "midi": 52,
                    "name": "E3",
                    "ticks": 26280,
                    "time": 26.0714025,
                    "velocity": 0.9448818897637795
                },
                {
                    "duration": 0.11309512500000096,
                    "durationTicks": 114,
                    "midi": 40,
                    "name": "E2",
                    "ticks": 26400,
                    "time": 26.19045,
                    "velocity": 0.905511811023622
                },
                {
                    "duration": 0.11309512500000096,
                    "durationTicks": 114,
                    "midi": 40,
                    "name": "E2",
                    "ticks": 26520,
                    "time": 26.3094975,
                    "velocity": 0.9448818897637795
                },
                {
                    "duration": 0.11309512499999741,
                    "durationTicks": 114,
                    "midi": 52,
                    "name": "E3",
                    "ticks": 26640,
                    "time": 26.428545,
                    "velocity": 0.905511811023622
                },
                {
                    "duration": 0.11309512499999741,
                    "durationTicks": 114,
                    "midi": 52,
                    "name": "E3",
                    "ticks": 26760,
                    "time": 26.5475925,
                    "velocity": 0.9448818897637795
                },
                {
                    "duration": 0.11309512499999741,
                    "durationTicks": 114,
                    "midi": 47,
                    "name": "B2",
                    "ticks": 26880,
                    "time": 26.66664,
                    "velocity": 0.9448818897637795
                },
                {
                    "duration": 0.11309512499999741,
                    "durationTicks": 114,
                    "midi": 47,
                    "name": "B2",
                    "ticks": 27000,
                    "time": 26.7856875,
                    "velocity": 0.9448818897637795
                },
                {
                    "duration": 0.11309512500000096,
                    "durationTicks": 114,
                    "midi": 59,
                    "name": "B3",
                    "ticks": 27120,
                    "time": 26.904735,
                    "velocity": 0.7086614173228346
                },
                {
                    "duration": 0.11309512500000096,
                    "durationTicks": 114,
                    "midi": 59,
                    "name": "B3",
                    "ticks": 27240,
                    "time": 27.0237825,
                    "velocity": 0.7322834645669292
                },
                {
                    "duration": 0.11309512499999741,
                    "durationTicks": 114,
                    "midi": 47,
                    "name": "B2",
                    "ticks": 27360,
                    "time": 27.14283,
                    "velocity": 0.905511811023622
                },
                {
                    "duration": 0.11309512499999741,
                    "durationTicks": 114,
                    "midi": 47,
                    "name": "B2",
                    "ticks": 27480,
                    "time": 27.2618775,
                    "velocity": 0.905511811023622
                },
                {
                    "duration": 0.11309512499999741,
                    "durationTicks": 114,
                    "midi": 59,
                    "name": "B3",
                    "ticks": 27600,
                    "time": 27.380925,
                    "velocity": 0.8267716535433071
                },
                {
                    "duration": 0.11309512500000096,
                    "durationTicks": 114,
                    "midi": 59,
                    "name": "B3",
                    "ticks": 27720,
                    "time": 27.4999725,
                    "velocity": 0.7637795275590551
                },
                {
                    "duration": 0.11309512500000096,
                    "durationTicks": 114,
                    "midi": 47,
                    "name": "B2",
                    "ticks": 27840,
                    "time": 27.61902,
                    "velocity": 0.8267716535433071
                },
                {
                    "duration": 0.11309512499999741,
                    "durationTicks": 114,
                    "midi": 47,
                    "name": "B2",
                    "ticks": 27960,
                    "time": 27.7380675,
                    "velocity": 0.8267716535433071
                },
                {
                    "duration": 0.11309512499999741,
                    "durationTicks": 114,
                    "midi": 59,
                    "name": "B3",
                    "ticks": 28080,
                    "time": 27.857115,
                    "velocity": 0.905511811023622
                },
                {
                    "duration": 0.11309512499999741,
                    "durationTicks": 114,
                    "midi": 59,
                    "name": "B3",
                    "ticks": 28200,
                    "time": 27.9761625,
                    "velocity": 0.9448818897637795
                },
                {
                    "duration": 0.11309512499999741,
                    "durationTicks": 114,
                    "midi": 47,
                    "name": "B2",
                    "ticks": 28320,
                    "time": 28.09521,
                    "velocity": 0.905511811023622
                },
                {
                    "duration": 0.11309512500000096,
                    "durationTicks": 114,
                    "midi": 47,
                    "name": "B2",
                    "ticks": 28440,
                    "time": 28.2142575,
                    "velocity": 0.9448818897637795
                },
                {
                    "duration": 0.11309512500000096,
                    "durationTicks": 114,
                    "midi": 59,
                    "name": "B3",
                    "ticks": 28560,
                    "time": 28.333305,
                    "velocity": 0.905511811023622
                },
                {
                    "duration": 0.11309512499999741,
                    "durationTicks": 114,
                    "midi": 59,
                    "name": "B3",
                    "ticks": 28680,
                    "time": 28.4523525,
                    "velocity": 0.9448818897637795
                },
                {
                    "duration": 0.11309512499999741,
                    "durationTicks": 114,
                    "midi": 42,
                    "name": "F#2",
                    "ticks": 28800,
                    "time": 28.5714,
                    "velocity": 0.9448818897637795
                },
                {
                    "duration": 0.11309512499999741,
                    "durationTicks": 114,
                    "midi": 42,
                    "name": "F#2",
                    "ticks": 28920,
                    "time": 28.6904475,
                    "velocity": 0.9448818897637795
                },
                {
                    "duration": 0.11309512499999741,
                    "durationTicks": 114,
                    "midi": 54,
                    "name": "F#3",
                    "ticks": 29040,
                    "time": 28.809495000000002,
                    "velocity": 0.7086614173228346
                },
                {
                    "duration": 0.11309512500000096,
                    "durationTicks": 114,
                    "midi": 54,
                    "name": "F#3",
                    "ticks": 29160,
                    "time": 28.9285425,
                    "velocity": 0.7322834645669292
                },
                {
                    "duration": 0.11309512500000096,
                    "durationTicks": 114,
                    "midi": 42,
                    "name": "F#2",
                    "ticks": 29280,
                    "time": 29.04759,
                    "velocity": 0.905511811023622
                },
                {
                    "duration": 0.11309512499999741,
                    "durationTicks": 114,
                    "midi": 42,
                    "name": "F#2",
                    "ticks": 29400,
                    "time": 29.1666375,
                    "velocity": 0.905511811023622
                },
                {
                    "duration": 0.11309512499999741,
                    "durationTicks": 114,
                    "midi": 54,
                    "name": "F#3",
                    "ticks": 29520,
                    "time": 29.285685,
                    "velocity": 0.8267716535433071
                },
                {
                    "duration": 0.11309512499999741,
                    "durationTicks": 114,
                    "midi": 54,
                    "name": "F#3",
                    "ticks": 29640,
                    "time": 29.4047325,
                    "velocity": 0.7637795275590551
                },
                {
                    "duration": 0.11309512500000096,
                    "durationTicks": 114,
                    "midi": 42,
                    "name": "F#2",
                    "ticks": 29760,
                    "time": 29.52378,
                    "velocity": 0.8267716535433071
                },
                {
                    "duration": 0.11309512500000096,
                    "durationTicks": 114,
                    "midi": 42,
                    "name": "F#2",
                    "ticks": 29880,
                    "time": 29.6428275,
                    "velocity": 0.8267716535433071
                },
                {
                    "duration": 0.11309512499999741,
                    "durationTicks": 114,
                    "midi": 54,
                    "name": "F#3",
                    "ticks": 30000,
                    "time": 29.761875,
                    "velocity": 0.905511811023622
                },
                {
                    "duration": 0.11309512499999741,
                    "durationTicks": 114,
                    "midi": 54,
                    "name": "F#3",
                    "ticks": 30120,
                    "time": 29.8809225,
                    "velocity": 0.9448818897637795
                },
                {
                    "duration": 0.11309512499999741,
                    "durationTicks": 114,
                    "midi": 42,
                    "name": "F#2",
                    "ticks": 30240,
                    "time": 29.99997,
                    "velocity": 0.905511811023622
                },
                {
                    "duration": 0.11309512499999741,
                    "durationTicks": 114,
                    "midi": 42,
                    "name": "F#2",
                    "ticks": 30360,
                    "time": 30.1190175,
                    "velocity": 0.9448818897637795
                },
                {
                    "duration": 0.11309512500000096,
                    "durationTicks": 114,
                    "midi": 54,
                    "name": "F#3",
                    "ticks": 30480,
                    "time": 30.238065,
                    "velocity": 0.905511811023622
                },
                {
                    "duration": 0.11309512500000096,
                    "durationTicks": 114,
                    "midi": 54,
                    "name": "F#3",
                    "ticks": 30600,
                    "time": 30.3571125,
                    "velocity": 0.9448818897637795
                },
                {
                    "duration": 0.11309512500000096,
                    "durationTicks": 114,
                    "midi": 42,
                    "name": "F#2",
                    "ticks": 38400,
                    "time": 38.0952,
                    "velocity": 0.8582677165354331
                },
                {
                    "duration": 0.11309512500000096,
                    "durationTicks": 114,
                    "midi": 42,
                    "name": "F#2",
                    "ticks": 38520,
                    "time": 38.2142475,
                    "velocity": 0.8582677165354331
                },
                {
                    "duration": 0.11309512500000096,
                    "durationTicks": 114,
                    "midi": 54,
                    "name": "F#3",
                    "ticks": 38640,
                    "time": 38.333295,
                    "velocity": 0.6220472440944882
                },
                {
                    "duration": 0.11309512500000096,
                    "durationTicks": 114,
                    "midi": 54,
                    "name": "F#3",
                    "ticks": 38760,
                    "time": 38.4523425,
                    "velocity": 0.6456692913385826
                },
                {
                    "duration": 0.11309512500000096,
                    "durationTicks": 114,
                    "midi": 42,
                    "name": "F#2",
                    "ticks": 38880,
                    "time": 38.57139,
                    "velocity": 0.8188976377952756
                },
                {
                    "duration": 0.11309512499999386,
                    "durationTicks": 114,
                    "midi": 42,
                    "name": "F#2",
                    "ticks": 39000,
                    "time": 38.6904375,
                    "velocity": 0.8188976377952756
                },
                {
                    "duration": 0.11309512499999386,
                    "durationTicks": 114,
                    "midi": 54,
                    "name": "F#3",
                    "ticks": 39120,
                    "time": 38.809485,
                    "velocity": 0.7401574803149606
                },
                {
                    "duration": 0.11309512499999386,
                    "durationTicks": 114,
                    "midi": 54,
                    "name": "F#3",
                    "ticks": 39240,
                    "time": 38.9285325,
                    "velocity": 0.6771653543307087
                },
                {
                    "duration": 0.11309512499999386,
                    "durationTicks": 114,
                    "midi": 42,
                    "name": "F#2",
                    "ticks": 39360,
                    "time": 39.04758,
                    "velocity": 0.7401574803149606
                },
                {
                    "duration": 0.11309512500000096,
                    "durationTicks": 114,
                    "midi": 42,
                    "name": "F#2",
                    "ticks": 39480,
                    "time": 39.1666275,
                    "velocity": 0.7401574803149606
                },
                {
                    "duration": 0.11309512500000096,
                    "durationTicks": 114,
                    "midi": 54,
                    "name": "F#3",
                    "ticks": 39600,
                    "time": 39.285675,
                    "velocity": 0.8188976377952756
                },
                {
                    "duration": 0.11309512500000096,
                    "durationTicks": 114,
                    "midi": 54,
                    "name": "F#3",
                    "ticks": 39720,
                    "time": 39.4047225,
                    "velocity": 0.8582677165354331
                },
                {
                    "duration": 0.11309512500000096,
                    "durationTicks": 114,
                    "midi": 42,
                    "name": "F#2",
                    "ticks": 39840,
                    "time": 39.52377,
                    "velocity": 0.8188976377952756
                },
                {
                    "duration": 0.11309512500000096,
                    "durationTicks": 114,
                    "midi": 42,
                    "name": "F#2",
                    "ticks": 39960,
                    "time": 39.6428175,
                    "velocity": 0.8582677165354331
                },
                {
                    "duration": 0.11309512500000096,
                    "durationTicks": 114,
                    "midi": 54,
                    "name": "F#3",
                    "ticks": 40080,
                    "time": 39.761865,
                    "velocity": 0.8188976377952756
                },
                {
                    "duration": 0.11309512500000096,
                    "durationTicks": 114,
                    "midi": 54,
                    "name": "F#3",
                    "ticks": 40200,
                    "time": 39.8809125,
                    "velocity": 0.8582677165354331
                },
                {
                    "duration": 0.11309512499999386,
                    "durationTicks": 114,
                    "midi": 40,
                    "name": "E2",
                    "ticks": 40320,
                    "time": 39.99996,
                    "velocity": 0.8582677165354331
                },
                {
                    "duration": 0.11309512499999386,
                    "durationTicks": 114,
                    "midi": 40,
                    "name": "E2",
                    "ticks": 40440,
                    "time": 40.1190075,
                    "velocity": 0.8582677165354331
                },
                {
                    "duration": 0.11309512499999386,
                    "durationTicks": 114,
                    "midi": 52,
                    "name": "E3",
                    "ticks": 40560,
                    "time": 40.238055,
                    "velocity": 0.6220472440944882
                },
                {
                    "duration": 0.11309512499999386,
                    "durationTicks": 114,
                    "midi": 52,
                    "name": "E3",
                    "ticks": 40680,
                    "time": 40.3571025,
                    "velocity": 0.6456692913385826
                },
                {
                    "duration": 0.11309512500000096,
                    "durationTicks": 114,
                    "midi": 40,
                    "name": "E2",
                    "ticks": 40800,
                    "time": 40.47615,
                    "velocity": 0.8188976377952756
                },
                {
                    "duration": 0.11309512500000096,
                    "durationTicks": 114,
                    "midi": 40,
                    "name": "E2",
                    "ticks": 40920,
                    "time": 40.5951975,
                    "velocity": 0.8188976377952756
                },
                {
                    "duration": 0.11309512500000096,
                    "durationTicks": 114,
                    "midi": 52,
                    "name": "E3",
                    "ticks": 41040,
                    "time": 40.714245,
                    "velocity": 0.7401574803149606
                },
                {
                    "duration": 0.11309512500000096,
                    "durationTicks": 114,
                    "midi": 52,
                    "name": "E3",
                    "ticks": 41160,
                    "time": 40.8332925,
                    "velocity": 0.6771653543307087
                },
                {
                    "duration": 0.11309512500000096,
                    "durationTicks": 114,
                    "midi": 40,
                    "name": "E2",
                    "ticks": 41280,
                    "time": 40.95234,
                    "velocity": 0.7401574803149606
                },
                {
                    "duration": 0.11309512500000096,
                    "durationTicks": 114,
                    "midi": 40,
                    "name": "E2",
                    "ticks": 41400,
                    "time": 41.0713875,
                    "velocity": 0.7401574803149606
                },
                {
                    "duration": 0.11309512500000096,
                    "durationTicks": 114,
                    "midi": 52,
                    "name": "E3",
                    "ticks": 41520,
                    "time": 41.190435,
                    "velocity": 0.8188976377952756
                },
                {
                    "duration": 0.11309512499999386,
                    "durationTicks": 114,
                    "midi": 52,
                    "name": "E3",
                    "ticks": 41640,
                    "time": 41.3094825,
                    "velocity": 0.8582677165354331
                },
                {
                    "duration": 0.11309512499999386,
                    "durationTicks": 114,
                    "midi": 40,
                    "name": "E2",
                    "ticks": 41760,
                    "time": 41.42853,
                    "velocity": 0.8188976377952756
                },
                {
                    "duration": 0.11309512499999386,
                    "durationTicks": 114,
                    "midi": 40,
                    "name": "E2",
                    "ticks": 41880,
                    "time": 41.5475775,
                    "velocity": 0.8582677165354331
                },
                {
                    "duration": 0.11309512499999386,
                    "durationTicks": 114,
                    "midi": 52,
                    "name": "E3",
                    "ticks": 42000,
                    "time": 41.666625,
                    "velocity": 0.8188976377952756
                },
                {
                    "duration": 0.11309512500000096,
                    "durationTicks": 114,
                    "midi": 52,
                    "name": "E3",
                    "ticks": 42120,
                    "time": 41.7856725,
                    "velocity": 0.8582677165354331
                },
                {
                    "duration": 0.11309512500000096,
                    "durationTicks": 114,
                    "midi": 47,
                    "name": "B2",
                    "ticks": 42240,
                    "time": 41.90472,
                    "velocity": 0.8582677165354331
                },
                {
                    "duration": 0.11309512500000096,
                    "durationTicks": 114,
                    "midi": 47,
                    "name": "B2",
                    "ticks": 42360,
                    "time": 42.0237675,
                    "velocity": 0.8582677165354331
                },
                {
                    "duration": 0.11309512500000096,
                    "durationTicks": 114,
                    "midi": 59,
                    "name": "B3",
                    "ticks": 42480,
                    "time": 42.142815,
                    "velocity": 0.6220472440944882
                },
                {
                    "duration": 0.11309512500000096,
                    "durationTicks": 114,
                    "midi": 59,
                    "name": "B3",
                    "ticks": 42600,
                    "time": 42.2618625,
                    "velocity": 0.6456692913385826
                },
                {
                    "duration": 0.11309512500000096,
                    "durationTicks": 114,
                    "midi": 47,
                    "name": "B2",
                    "ticks": 42720,
                    "time": 42.38091,
                    "velocity": 0.8188976377952756
                },
                {
                    "duration": 0.11309512500000096,
                    "durationTicks": 114,
                    "midi": 47,
                    "name": "B2",
                    "ticks": 42840,
                    "time": 42.4999575,
                    "velocity": 0.8188976377952756
                },
                {
                    "duration": 0.11309512500000096,
                    "durationTicks": 114,
                    "midi": 59,
                    "name": "B3",
                    "ticks": 42960,
                    "time": 42.619005,
                    "velocity": 0.7401574803149606
                },
                {
                    "duration": 0.11309512499999386,
                    "durationTicks": 114,
                    "midi": 59,
                    "name": "B3",
                    "ticks": 43080,
                    "time": 42.7380525,
                    "velocity": 0.6771653543307087
                },
                {
                    "duration": 0.11309512499999386,
                    "durationTicks": 114,
                    "midi": 47,
                    "name": "B2",
                    "ticks": 43200,
                    "time": 42.8571,
                    "velocity": 0.7401574803149606
                },
                {
                    "duration": 0.11309512499999386,
                    "durationTicks": 114,
                    "midi": 47,
                    "name": "B2",
                    "ticks": 43320,
                    "time": 42.9761475,
                    "velocity": 0.7401574803149606
                },
                {
                    "duration": 0.11309512500000096,
                    "durationTicks": 114,
                    "midi": 59,
                    "name": "B3",
                    "ticks": 43440,
                    "time": 43.095195,
                    "velocity": 0.8188976377952756
                },
                {
                    "duration": 0.11309512500000096,
                    "durationTicks": 114,
                    "midi": 59,
                    "name": "B3",
                    "ticks": 43560,
                    "time": 43.2142425,
                    "velocity": 0.8582677165354331
                },
                {
                    "duration": 0.11309512500000096,
                    "durationTicks": 114,
                    "midi": 47,
                    "name": "B2",
                    "ticks": 43680,
                    "time": 43.33329,
                    "velocity": 0.8188976377952756
                },
                {
                    "duration": 0.11309512500000096,
                    "durationTicks": 114,
                    "midi": 47,
                    "name": "B2",
                    "ticks": 43800,
                    "time": 43.4523375,
                    "velocity": 0.8582677165354331
                },
                {
                    "duration": 0.11309512500000096,
                    "durationTicks": 114,
                    "midi": 59,
                    "name": "B3",
                    "ticks": 43920,
                    "time": 43.571385,
                    "velocity": 0.8188976377952756
                },
                {
                    "duration": 0.11309512500000096,
                    "durationTicks": 114,
                    "midi": 59,
                    "name": "B3",
                    "ticks": 44040,
                    "time": 43.6904325,
                    "velocity": 0.8582677165354331
                },
                {
                    "duration": 0.11309512500000096,
                    "durationTicks": 114,
                    "midi": 42,
                    "name": "F#2",
                    "ticks": 44160,
                    "time": 43.80948,
                    "velocity": 0.8582677165354331
                },
                {
                    "duration": 0.11309512500000096,
                    "durationTicks": 114,
                    "midi": 42,
                    "name": "F#2",
                    "ticks": 44280,
                    "time": 43.9285275,
                    "velocity": 0.8582677165354331
                },
                {
                    "duration": 0.11309512499999386,
                    "durationTicks": 114,
                    "midi": 54,
                    "name": "F#3",
                    "ticks": 44400,
                    "time": 44.047575,
                    "velocity": 0.6220472440944882
                },
                {
                    "duration": 0.11309512499999386,
                    "durationTicks": 114,
                    "midi": 54,
                    "name": "F#3",
                    "ticks": 44520,
                    "time": 44.1666225,
                    "velocity": 0.6456692913385826
                },
                {
                    "duration": 0.11309512499999386,
                    "durationTicks": 114,
                    "midi": 42,
                    "name": "F#2",
                    "ticks": 44640,
                    "time": 44.28567,
                    "velocity": 0.8188976377952756
                },
                {
                    "duration": 0.11309512500000096,
                    "durationTicks": 114,
                    "midi": 42,
                    "name": "F#2",
                    "ticks": 44760,
                    "time": 44.4047175,
                    "velocity": 0.8188976377952756
                },
                {
                    "duration": 0.11309512500000096,
                    "durationTicks": 114,
                    "midi": 54,
                    "name": "F#3",
                    "ticks": 44880,
                    "time": 44.523765,
                    "velocity": 0.7401574803149606
                },
                {
                    "duration": 0.11309512500000096,
                    "durationTicks": 114,
                    "midi": 54,
                    "name": "F#3",
                    "ticks": 45000,
                    "time": 44.6428125,
                    "velocity": 0.6771653543307087
                },
                {
                    "duration": 0.11309512500000096,
                    "durationTicks": 114,
                    "midi": 42,
                    "name": "F#2",
                    "ticks": 45120,
                    "time": 44.76186,
                    "velocity": 0.7401574803149606
                },
                {
                    "duration": 0.11309512500000096,
                    "durationTicks": 114,
                    "midi": 42,
                    "name": "F#2",
                    "ticks": 45240,
                    "time": 44.8809075,
                    "velocity": 0.7401574803149606
                },
                {
                    "duration": 0.11309512500000096,
                    "durationTicks": 114,
                    "midi": 54,
                    "name": "F#3",
                    "ticks": 45360,
                    "time": 44.999955,
                    "velocity": 0.8188976377952756
                },
                {
                    "duration": 0.11309512500000096,
                    "durationTicks": 114,
                    "midi": 54,
                    "name": "F#3",
                    "ticks": 45480,
                    "time": 45.1190025,
                    "velocity": 0.8582677165354331
                },
                {
                    "duration": 0.11309512500000096,
                    "durationTicks": 114,
                    "midi": 42,
                    "name": "F#2",
                    "ticks": 45600,
                    "time": 45.23805,
                    "velocity": 0.8188976377952756
                },
                {
                    "duration": 0.11309512499999386,
                    "durationTicks": 114,
                    "midi": 42,
                    "name": "F#2",
                    "ticks": 45720,
                    "time": 45.3570975,
                    "velocity": 0.8582677165354331
                },
                {
                    "duration": 0.11309512499999386,
                    "durationTicks": 114,
                    "midi": 54,
                    "name": "F#3",
                    "ticks": 45840,
                    "time": 45.476145,
                    "velocity": 0.8188976377952756
                },
                {
                    "duration": 0.11309512499999386,
                    "durationTicks": 114,
                    "midi": 54,
                    "name": "F#3",
                    "ticks": 45960,
                    "time": 45.5951925,
                    "velocity": 0.8582677165354331
                },
                {
                    "duration": 0.11309512500000807,
                    "durationTicks": 114,
                    "midi": 42,
                    "name": "F#2",
                    "ticks": 61440,
                    "time": 60.95232,
                    "velocity": 0.9448818897637795
                },
                {
                    "duration": 0.11309512500000807,
                    "durationTicks": 114,
                    "midi": 42,
                    "name": "F#2",
                    "ticks": 61560,
                    "time": 61.0713675,
                    "velocity": 0.9448818897637795
                },
                {
                    "duration": 0.11309512500000096,
                    "durationTicks": 114,
                    "midi": 54,
                    "name": "F#3",
                    "ticks": 61680,
                    "time": 61.190415,
                    "velocity": 0.7086614173228346
                },
                {
                    "duration": 0.11309512500000096,
                    "durationTicks": 114,
                    "midi": 54,
                    "name": "F#3",
                    "ticks": 61800,
                    "time": 61.3094625,
                    "velocity": 0.7322834645669292
                },
                {
                    "duration": 0.11309512500000096,
                    "durationTicks": 114,
                    "midi": 42,
                    "name": "F#2",
                    "ticks": 61920,
                    "time": 61.42851,
                    "velocity": 0.905511811023622
                },
                {
                    "duration": 0.11309512500000096,
                    "durationTicks": 114,
                    "midi": 42,
                    "name": "F#2",
                    "ticks": 62040,
                    "time": 61.5475575,
                    "velocity": 0.905511811023622
                },
                {
                    "duration": 0.11309512500000807,
                    "durationTicks": 114,
                    "midi": 54,
                    "name": "F#3",
                    "ticks": 62160,
                    "time": 61.666605,
                    "velocity": 0.8267716535433071
                },
                {
                    "duration": 0.11309512500000807,
                    "durationTicks": 114,
                    "midi": 54,
                    "name": "F#3",
                    "ticks": 62280,
                    "time": 61.7856525,
                    "velocity": 0.7637795275590551
                },
                {
                    "duration": 0.11309512500000807,
                    "durationTicks": 114,
                    "midi": 42,
                    "name": "F#2",
                    "ticks": 62400,
                    "time": 61.9047,
                    "velocity": 0.8267716535433071
                },
                {
                    "duration": 0.11309512500000807,
                    "durationTicks": 114,
                    "midi": 42,
                    "name": "F#2",
                    "ticks": 62520,
                    "time": 62.0237475,
                    "velocity": 0.8267716535433071
                },
                {
                    "duration": 0.11309512500000807,
                    "durationTicks": 114,
                    "midi": 54,
                    "name": "F#3",
                    "ticks": 62640,
                    "time": 62.142795,
                    "velocity": 0.905511811023622
                },
                {
                    "duration": 0.11309512500000807,
                    "durationTicks": 114,
                    "midi": 54,
                    "name": "F#3",
                    "ticks": 62760,
                    "time": 62.2618425,
                    "velocity": 0.9448818897637795
                },
                {
                    "duration": 0.11309512500000807,
                    "durationTicks": 114,
                    "midi": 42,
                    "name": "F#2",
                    "ticks": 62880,
                    "time": 62.38089,
                    "velocity": 0.905511811023622
                },
                {
                    "duration": 0.11309512500000096,
                    "durationTicks": 114,
                    "midi": 42,
                    "name": "F#2",
                    "ticks": 63000,
                    "time": 62.4999375,
                    "velocity": 0.9448818897637795
                },
                {
                    "duration": 0.11309512500000096,
                    "durationTicks": 114,
                    "midi": 54,
                    "name": "F#3",
                    "ticks": 63120,
                    "time": 62.618985,
                    "velocity": 0.905511811023622
                },
                {
                    "duration": 0.11309512500000096,
                    "durationTicks": 114,
                    "midi": 54,
                    "name": "F#3",
                    "ticks": 63240,
                    "time": 62.7380325,
                    "velocity": 0.9448818897637795
                },
                {
                    "duration": 0.11309512500000096,
                    "durationTicks": 114,
                    "midi": 40,
                    "name": "E2",
                    "ticks": 63360,
                    "time": 62.85708,
                    "velocity": 0.9448818897637795
                },
                {
                    "duration": 0.11309512500000807,
                    "durationTicks": 114,
                    "midi": 40,
                    "name": "E2",
                    "ticks": 63480,
                    "time": 62.9761275,
                    "velocity": 0.9448818897637795
                },
                {
                    "duration": 0.11309512500000807,
                    "durationTicks": 114,
                    "midi": 52,
                    "name": "E3",
                    "ticks": 63600,
                    "time": 63.095175,
                    "velocity": 0.7086614173228346
                },
                {
                    "duration": 0.11309512500000807,
                    "durationTicks": 114,
                    "midi": 52,
                    "name": "E3",
                    "ticks": 63720,
                    "time": 63.2142225,
                    "velocity": 0.7322834645669292
                },
                {
                    "duration": 0.11309512500000807,
                    "durationTicks": 114,
                    "midi": 40,
                    "name": "E2",
                    "ticks": 63840,
                    "time": 63.33327,
                    "velocity": 0.905511811023622
                },
                {
                    "duration": 0.11309512500000807,
                    "durationTicks": 114,
                    "midi": 40,
                    "name": "E2",
                    "ticks": 63960,
                    "time": 63.4523175,
                    "velocity": 0.905511811023622
                },
                {
                    "duration": 0.11309512500000807,
                    "durationTicks": 114,
                    "midi": 52,
                    "name": "E3",
                    "ticks": 64080,
                    "time": 63.571365,
                    "velocity": 0.8267716535433071
                },
                {
                    "duration": 0.11309512500000807,
                    "durationTicks": 114,
                    "midi": 52,
                    "name": "E3",
                    "ticks": 64200,
                    "time": 63.6904125,
                    "velocity": 0.7637795275590551
                },
                {
                    "duration": 0.11309512500000096,
                    "durationTicks": 114,
                    "midi": 40,
                    "name": "E2",
                    "ticks": 64320,
                    "time": 63.80946,
                    "velocity": 0.8267716535433071
                },
                {
                    "duration": 0.11309512500000807,
                    "durationTicks": 114,
                    "midi": 40,
                    "name": "E2",
                    "ticks": 64440,
                    "time": 63.9285075,
                    "velocity": 0.8267716535433071
                },
                {
                    "duration": 0.11309512500000096,
                    "durationTicks": 114,
                    "midi": 52,
                    "name": "E3",
                    "ticks": 64560,
                    "time": 64.047555,
                    "velocity": 0.905511811023622
                },
                {
                    "duration": 0.11309512500001517,
                    "durationTicks": 114,
                    "midi": 52,
                    "name": "E3",
                    "ticks": 64680,
                    "time": 64.1666025,
                    "velocity": 0.9448818897637795
                },
                {
                    "duration": 0.11309512500000096,
                    "durationTicks": 114,
                    "midi": 40,
                    "name": "E2",
                    "ticks": 64800,
                    "time": 64.28565,
                    "velocity": 0.905511811023622
                },
                {
                    "duration": 0.11309512500001517,
                    "durationTicks": 114,
                    "midi": 40,
                    "name": "E2",
                    "ticks": 64920,
                    "time": 64.4046975,
                    "velocity": 0.9448818897637795
                },
                {
                    "duration": 0.11309512500000096,
                    "durationTicks": 114,
                    "midi": 52,
                    "name": "E3",
                    "ticks": 65040,
                    "time": 64.523745,
                    "velocity": 0.905511811023622
                },
                {
                    "duration": 0.11309512500000096,
                    "durationTicks": 114,
                    "midi": 52,
                    "name": "E3",
                    "ticks": 65160,
                    "time": 64.6427925,
                    "velocity": 0.9448818897637795
                },
                {
                    "duration": 0.11309512500000096,
                    "durationTicks": 114,
                    "midi": 47,
                    "name": "B2",
                    "ticks": 65280,
                    "time": 64.76184,
                    "velocity": 0.9448818897637795
                },
                {
                    "duration": 0.11309512500000096,
                    "durationTicks": 114,
                    "midi": 47,
                    "name": "B2",
                    "ticks": 65400,
                    "time": 64.8808875,
                    "velocity": 0.9448818897637795
                },
                {
                    "duration": 0.11309512500001517,
                    "durationTicks": 114,
                    "midi": 59,
                    "name": "B3",
                    "ticks": 65520,
                    "time": 64.999935,
                    "velocity": 0.7086614173228346
                },
                {
                    "duration": 0.11309512500000096,
                    "durationTicks": 114,
                    "midi": 59,
                    "name": "B3",
                    "ticks": 65640,
                    "time": 65.1189825,
                    "velocity": 0.7322834645669292
                },
                {
                    "duration": 0.11309512500001517,
                    "durationTicks": 114,
                    "midi": 47,
                    "name": "B2",
                    "ticks": 65760,
                    "time": 65.23803,
                    "velocity": 0.905511811023622
                },
                {
                    "duration": 0.11309512500000096,
                    "durationTicks": 114,
                    "midi": 47,
                    "name": "B2",
                    "ticks": 65880,
                    "time": 65.3570775,
                    "velocity": 0.905511811023622
                },
                {
                    "duration": 0.11309512500001517,
                    "durationTicks": 114,
                    "midi": 59,
                    "name": "B3",
                    "ticks": 66000,
                    "time": 65.476125,
                    "velocity": 0.8267716535433071
                },
                {
                    "duration": 0.11309512500000096,
                    "durationTicks": 114,
                    "midi": 59,
                    "name": "B3",
                    "ticks": 66120,
                    "time": 65.5951725,
                    "velocity": 0.7637795275590551
                },
                {
                    "duration": 0.11309512500001517,
                    "durationTicks": 114,
                    "midi": 47,
                    "name": "B2",
                    "ticks": 66240,
                    "time": 65.71422,
                    "velocity": 0.8267716535433071
                },
                {
                    "duration": 0.11309512500000096,
                    "durationTicks": 114,
                    "midi": 47,
                    "name": "B2",
                    "ticks": 66360,
                    "time": 65.8332675,
                    "velocity": 0.8267716535433071
                },
                {
                    "duration": 0.11309512500000096,
                    "durationTicks": 114,
                    "midi": 59,
                    "name": "B3",
                    "ticks": 66480,
                    "time": 65.952315,
                    "velocity": 0.905511811023622
                },
                {
                    "duration": 0.11309512500000096,
                    "durationTicks": 114,
                    "midi": 59,
                    "name": "B3",
                    "ticks": 66600,
                    "time": 66.0713625,
                    "velocity": 0.9448818897637795
                },
                {
                    "duration": 0.11309512500000096,
                    "durationTicks": 114,
                    "midi": 47,
                    "name": "B2",
                    "ticks": 66720,
                    "time": 66.19041,
                    "velocity": 0.905511811023622
                },
                {
                    "duration": 0.11309512500001517,
                    "durationTicks": 114,
                    "midi": 47,
                    "name": "B2",
                    "ticks": 66840,
                    "time": 66.3094575,
                    "velocity": 0.9448818897637795
                },
                {
                    "duration": 0.11309512500000096,
                    "durationTicks": 114,
                    "midi": 59,
                    "name": "B3",
                    "ticks": 66960,
                    "time": 66.428505,
                    "velocity": 0.905511811023622
                },
                {
                    "duration": 0.11309512500001517,
                    "durationTicks": 114,
                    "midi": 59,
                    "name": "B3",
                    "ticks": 67080,
                    "time": 66.5475525,
                    "velocity": 0.9448818897637795
                },
                {
                    "duration": 0.11309512500000096,
                    "durationTicks": 114,
                    "midi": 42,
                    "name": "F#2",
                    "ticks": 67200,
                    "time": 66.6666,
                    "velocity": 0.9448818897637795
                },
                {
                    "duration": 0.11309512500001517,
                    "durationTicks": 114,
                    "midi": 42,
                    "name": "F#2",
                    "ticks": 67320,
                    "time": 66.7856475,
                    "velocity": 0.9448818897637795
                },
                {
                    "duration": 0.11309512500000096,
                    "durationTicks": 114,
                    "midi": 54,
                    "name": "F#3",
                    "ticks": 67440,
                    "time": 66.904695,
                    "velocity": 0.7086614173228346
                },
                {
                    "duration": 0.11309512500001517,
                    "durationTicks": 114,
                    "midi": 54,
                    "name": "F#3",
                    "ticks": 67560,
                    "time": 67.0237425,
                    "velocity": 0.7322834645669292
                },
                {
                    "duration": 0.11309512500000096,
                    "durationTicks": 114,
                    "midi": 42,
                    "name": "F#2",
                    "ticks": 67680,
                    "time": 67.14279,
                    "velocity": 0.905511811023622
                },
                {
                    "duration": 0.11309512500000096,
                    "durationTicks": 114,
                    "midi": 42,
                    "name": "F#2",
                    "ticks": 67800,
                    "time": 67.2618375,
                    "velocity": 0.905511811023622
                },
                {
                    "duration": 0.11309512500000096,
                    "durationTicks": 114,
                    "midi": 54,
                    "name": "F#3",
                    "ticks": 67920,
                    "time": 67.380885,
                    "velocity": 0.8267716535433071
                },
                {
                    "duration": 0.11309512500000096,
                    "durationTicks": 114,
                    "midi": 54,
                    "name": "F#3",
                    "ticks": 68040,
                    "time": 67.4999325,
                    "velocity": 0.7637795275590551
                },
                {
                    "duration": 0.11309512500001517,
                    "durationTicks": 114,
                    "midi": 42,
                    "name": "F#2",
                    "ticks": 68160,
                    "time": 67.61898,
                    "velocity": 0.8267716535433071
                },
                {
                    "duration": 0.11309512500000096,
                    "durationTicks": 114,
                    "midi": 42,
                    "name": "F#2",
                    "ticks": 68280,
                    "time": 67.7380275,
                    "velocity": 0.8267716535433071
                },
                {
                    "duration": 0.11309512500001517,
                    "durationTicks": 114,
                    "midi": 54,
                    "name": "F#3",
                    "ticks": 68400,
                    "time": 67.857075,
                    "velocity": 0.905511811023622
                },
                {
                    "duration": 0.11309512500000096,
                    "durationTicks": 114,
                    "midi": 54,
                    "name": "F#3",
                    "ticks": 68520,
                    "time": 67.9761225,
                    "velocity": 0.9448818897637795
                },
                {
                    "duration": 0.11309512500001517,
                    "durationTicks": 114,
                    "midi": 42,
                    "name": "F#2",
                    "ticks": 68640,
                    "time": 68.09517,
                    "velocity": 0.905511811023622
                },
                {
                    "duration": 0.11309512500000096,
                    "durationTicks": 114,
                    "midi": 42,
                    "name": "F#2",
                    "ticks": 68760,
                    "time": 68.2142175,
                    "velocity": 0.9448818897637795
                },
                {
                    "duration": 0.11309512500001517,
                    "durationTicks": 114,
                    "midi": 54,
                    "name": "F#3",
                    "ticks": 68880,
                    "time": 68.333265,
                    "velocity": 0.905511811023622
                },
                {
                    "duration": 0.11309512500000096,
                    "durationTicks": 114,
                    "midi": 54,
                    "name": "F#3",
                    "ticks": 69000,
                    "time": 68.4523125,
                    "velocity": 0.9448818897637795
                },
                {
                    "duration": 0.11309512500000096,
                    "durationTicks": 114,
                    "midi": 42,
                    "name": "F#2",
                    "ticks": 69120,
                    "time": 68.57136,
                    "velocity": 0.9448818897637795
                },
                {
                    "duration": 0.11309512500000096,
                    "durationTicks": 114,
                    "midi": 42,
                    "name": "F#2",
                    "ticks": 69240,
                    "time": 68.6904075,
                    "velocity": 0.9448818897637795
                },
                {
                    "duration": 0.11309512500000096,
                    "durationTicks": 114,
                    "midi": 54,
                    "name": "F#3",
                    "ticks": 69360,
                    "time": 68.809455,
                    "velocity": 0.7086614173228346
                },
                {
                    "duration": 0.11309512500001517,
                    "durationTicks": 114,
                    "midi": 54,
                    "name": "F#3",
                    "ticks": 69480,
                    "time": 68.9285025,
                    "velocity": 0.7322834645669292
                },
                {
                    "duration": 0.11309512500000096,
                    "durationTicks": 114,
                    "midi": 42,
                    "name": "F#2",
                    "ticks": 69600,
                    "time": 69.04755,
                    "velocity": 0.905511811023622
                },
                {
                    "duration": 0.11309512500001517,
                    "durationTicks": 114,
                    "midi": 42,
                    "name": "F#2",
                    "ticks": 69720,
                    "time": 69.1665975,
                    "velocity": 0.905511811023622
                },
                {
                    "duration": 0.11309512500000096,
                    "durationTicks": 114,
                    "midi": 54,
                    "name": "F#3",
                    "ticks": 69840,
                    "time": 69.285645,
                    "velocity": 0.8267716535433071
                },
                {
                    "duration": 0.11309512500001517,
                    "durationTicks": 114,
                    "midi": 54,
                    "name": "F#3",
                    "ticks": 69960,
                    "time": 69.4046925,
                    "velocity": 0.7637795275590551
                },
                {
                    "duration": 0.11309512500000096,
                    "durationTicks": 114,
                    "midi": 42,
                    "name": "F#2",
                    "ticks": 70080,
                    "time": 69.52374,
                    "velocity": 0.8267716535433071
                },
                {
                    "duration": 0.11309512500001517,
                    "durationTicks": 114,
                    "midi": 42,
                    "name": "F#2",
                    "ticks": 70200,
                    "time": 69.6427875,
                    "velocity": 0.8267716535433071
                },
                {
                    "duration": 0.11309512500000096,
                    "durationTicks": 114,
                    "midi": 54,
                    "name": "F#3",
                    "ticks": 70320,
                    "time": 69.761835,
                    "velocity": 0.905511811023622
                },
                {
                    "duration": 0.11309512500000096,
                    "durationTicks": 114,
                    "midi": 54,
                    "name": "F#3",
                    "ticks": 70440,
                    "time": 69.8808825,
                    "velocity": 0.9448818897637795
                },
                {
                    "duration": 0.11309512500000096,
                    "durationTicks": 114,
                    "midi": 42,
                    "name": "F#2",
                    "ticks": 70560,
                    "time": 69.99993,
                    "velocity": 0.905511811023622
                },
                {
                    "duration": 0.11309512500000096,
                    "durationTicks": 114,
                    "midi": 42,
                    "name": "F#2",
                    "ticks": 70680,
                    "time": 70.1189775,
                    "velocity": 0.9448818897637795
                },
                {
                    "duration": 0.11309512500001517,
                    "durationTicks": 114,
                    "midi": 54,
                    "name": "F#3",
                    "ticks": 70800,
                    "time": 70.238025,
                    "velocity": 0.905511811023622
                },
                {
                    "duration": 0.11309512500000096,
                    "durationTicks": 114,
                    "midi": 54,
                    "name": "F#3",
                    "ticks": 70920,
                    "time": 70.3570725,
                    "velocity": 0.9448818897637795
                },
                {
                    "duration": 0.11309512500001517,
                    "durationTicks": 114,
                    "midi": 40,
                    "name": "E2",
                    "ticks": 71040,
                    "time": 70.47612,
                    "velocity": 0.9448818897637795
                },
                {
                    "duration": 0.11309512500000096,
                    "durationTicks": 114,
                    "midi": 40,
                    "name": "E2",
                    "ticks": 71160,
                    "time": 70.5951675,
                    "velocity": 0.9448818897637795
                },
                {
                    "duration": 0.11309512500001517,
                    "durationTicks": 114,
                    "midi": 52,
                    "name": "E3",
                    "ticks": 71280,
                    "time": 70.714215,
                    "velocity": 0.7086614173228346
                },
                {
                    "duration": 0.11309512500000096,
                    "durationTicks": 114,
                    "midi": 52,
                    "name": "E3",
                    "ticks": 71400,
                    "time": 70.8332625,
                    "velocity": 0.7322834645669292
                },
                {
                    "duration": 0.11309512500001517,
                    "durationTicks": 114,
                    "midi": 40,
                    "name": "E2",
                    "ticks": 71520,
                    "time": 70.95231,
                    "velocity": 0.905511811023622
                },
                {
                    "duration": 0.11309512500000096,
                    "durationTicks": 114,
                    "midi": 40,
                    "name": "E2",
                    "ticks": 71640,
                    "time": 71.0713575,
                    "velocity": 0.905511811023622
                },
                {
                    "duration": 0.11309512500000096,
                    "durationTicks": 114,
                    "midi": 52,
                    "name": "E3",
                    "ticks": 71760,
                    "time": 71.190405,
                    "velocity": 0.8267716535433071
                },
                {
                    "duration": 0.11309512500000096,
                    "durationTicks": 114,
                    "midi": 52,
                    "name": "E3",
                    "ticks": 71880,
                    "time": 71.3094525,
                    "velocity": 0.7637795275590551
                },
                {
                    "duration": 0.11309512500000096,
                    "durationTicks": 114,
                    "midi": 40,
                    "name": "E2",
                    "ticks": 72000,
                    "time": 71.4285,
                    "velocity": 0.8267716535433071
                },
                {
                    "duration": 0.11309512500000096,
                    "durationTicks": 114,
                    "midi": 40,
                    "name": "E2",
                    "ticks": 72120,
                    "time": 71.54754750000001,
                    "velocity": 0.8267716535433071
                },
                {
                    "duration": 0.11309512500000096,
                    "durationTicks": 114,
                    "midi": 52,
                    "name": "E3",
                    "ticks": 72240,
                    "time": 71.666595,
                    "velocity": 0.905511811023622
                },
                {
                    "duration": 0.11309512500001517,
                    "durationTicks": 114,
                    "midi": 52,
                    "name": "E3",
                    "ticks": 72360,
                    "time": 71.7856425,
                    "velocity": 0.9448818897637795
                },
                {
                    "duration": 0.11309512500000096,
                    "durationTicks": 114,
                    "midi": 40,
                    "name": "E2",
                    "ticks": 72480,
                    "time": 71.90469,
                    "velocity": 0.905511811023622
                },
                {
                    "duration": 0.11309512500001517,
                    "durationTicks": 114,
                    "midi": 40,
                    "name": "E2",
                    "ticks": 72600,
                    "time": 72.0237375,
                    "velocity": 0.9448818897637795
                },
                {
                    "duration": 0.11309512500000096,
                    "durationTicks": 114,
                    "midi": 52,
                    "name": "E3",
                    "ticks": 72720,
                    "time": 72.142785,
                    "velocity": 0.905511811023622
                },
                {
                    "duration": 0.11309512500001517,
                    "durationTicks": 114,
                    "midi": 52,
                    "name": "E3",
                    "ticks": 72840,
                    "time": 72.2618325,
                    "velocity": 0.9448818897637795
                },
                {
                    "duration": 0.11309512500000096,
                    "durationTicks": 114,
                    "midi": 47,
                    "name": "B2",
                    "ticks": 72960,
                    "time": 72.38088,
                    "velocity": 0.9448818897637795
                },
                {
                    "duration": 0.11309512500000096,
                    "durationTicks": 114,
                    "midi": 47,
                    "name": "B2",
                    "ticks": 73080,
                    "time": 72.4999275,
                    "velocity": 0.9448818897637795
                },
                {
                    "duration": 0.11309512500000096,
                    "durationTicks": 114,
                    "midi": 59,
                    "name": "B3",
                    "ticks": 73200,
                    "time": 72.618975,
                    "velocity": 0.7086614173228346
                },
                {
                    "duration": 0.11309512500000096,
                    "durationTicks": 114,
                    "midi": 59,
                    "name": "B3",
                    "ticks": 73320,
                    "time": 72.7380225,
                    "velocity": 0.7322834645669292
                },
                {
                    "duration": 0.11309512500000096,
                    "durationTicks": 114,
                    "midi": 47,
                    "name": "B2",
                    "ticks": 73440,
                    "time": 72.85707000000001,
                    "velocity": 0.905511811023622
                },
                {
                    "duration": 0.11309512500000096,
                    "durationTicks": 114,
                    "midi": 47,
                    "name": "B2",
                    "ticks": 73560,
                    "time": 72.9761175,
                    "velocity": 0.905511811023622
                },
                {
                    "duration": 0.11309512500001517,
                    "durationTicks": 114,
                    "midi": 59,
                    "name": "B3",
                    "ticks": 73680,
                    "time": 73.095165,
                    "velocity": 0.8267716535433071
                },
                {
                    "duration": 0.11309512500000096,
                    "durationTicks": 114,
                    "midi": 59,
                    "name": "B3",
                    "ticks": 73800,
                    "time": 73.2142125,
                    "velocity": 0.7637795275590551
                },
                {
                    "duration": 0.11309512500001517,
                    "durationTicks": 114,
                    "midi": 47,
                    "name": "B2",
                    "ticks": 73920,
                    "time": 73.33326,
                    "velocity": 0.8267716535433071
                },
                {
                    "duration": 0.11309512500000096,
                    "durationTicks": 114,
                    "midi": 47,
                    "name": "B2",
                    "ticks": 74040,
                    "time": 73.4523075,
                    "velocity": 0.8267716535433071
                },
                {
                    "duration": 0.11309512500001517,
                    "durationTicks": 114,
                    "midi": 59,
                    "name": "B3",
                    "ticks": 74160,
                    "time": 73.571355,
                    "velocity": 0.905511811023622
                },
                {
                    "duration": 0.11309512500000096,
                    "durationTicks": 114,
                    "midi": 59,
                    "name": "B3",
                    "ticks": 74280,
                    "time": 73.6904025,
                    "velocity": 0.9448818897637795
                },
                {
                    "duration": 0.11309512500000096,
                    "durationTicks": 114,
                    "midi": 47,
                    "name": "B2",
                    "ticks": 74400,
                    "time": 73.80945,
                    "velocity": 0.905511811023622
                },
                {
                    "duration": 0.11309512500000096,
                    "durationTicks": 114,
                    "midi": 47,
                    "name": "B2",
                    "ticks": 74520,
                    "time": 73.9284975,
                    "velocity": 0.9448818897637795
                },
                {
                    "duration": 0.11309512500000096,
                    "durationTicks": 114,
                    "midi": 59,
                    "name": "B3",
                    "ticks": 74640,
                    "time": 74.047545,
                    "velocity": 0.905511811023622
                },
                {
                    "duration": 0.11309512500000096,
                    "durationTicks": 114,
                    "midi": 59,
                    "name": "B3",
                    "ticks": 74760,
                    "time": 74.16659250000001,
                    "velocity": 0.9448818897637795
                },
                {
                    "duration": 0.11309512500000096,
                    "durationTicks": 114,
                    "midi": 42,
                    "name": "F#2",
                    "ticks": 74880,
                    "time": 74.28564,
                    "velocity": 0.9448818897637795
                },
                {
                    "duration": 0.11309512500001517,
                    "durationTicks": 114,
                    "midi": 42,
                    "name": "F#2",
                    "ticks": 75000,
                    "time": 74.4046875,
                    "velocity": 0.9448818897637795
                },
                {
                    "duration": 0.11309512500000096,
                    "durationTicks": 114,
                    "midi": 54,
                    "name": "F#3",
                    "ticks": 75120,
                    "time": 74.523735,
                    "velocity": 0.7086614173228346
                },
                {
                    "duration": 0.11309512500001517,
                    "durationTicks": 114,
                    "midi": 54,
                    "name": "F#3",
                    "ticks": 75240,
                    "time": 74.6427825,
                    "velocity": 0.7322834645669292
                },
                {
                    "duration": 0.11309512500000096,
                    "durationTicks": 114,
                    "midi": 42,
                    "name": "F#2",
                    "ticks": 75360,
                    "time": 74.76183,
                    "velocity": 0.905511811023622
                },
                {
                    "duration": 0.11309512500001517,
                    "durationTicks": 114,
                    "midi": 42,
                    "name": "F#2",
                    "ticks": 75480,
                    "time": 74.8808775,
                    "velocity": 0.905511811023622
                },
                {
                    "duration": 0.11309512500000096,
                    "durationTicks": 114,
                    "midi": 54,
                    "name": "F#3",
                    "ticks": 75600,
                    "time": 74.999925,
                    "velocity": 0.8267716535433071
                },
                {
                    "duration": 0.11309512500000096,
                    "durationTicks": 114,
                    "midi": 54,
                    "name": "F#3",
                    "ticks": 75720,
                    "time": 75.1189725,
                    "velocity": 0.7637795275590551
                },
                {
                    "duration": 0.11309512500000096,
                    "durationTicks": 114,
                    "midi": 42,
                    "name": "F#2",
                    "ticks": 75840,
                    "time": 75.23802,
                    "velocity": 0.8267716535433071
                },
                {
                    "duration": 0.11309512500000096,
                    "durationTicks": 114,
                    "midi": 42,
                    "name": "F#2",
                    "ticks": 75960,
                    "time": 75.3570675,
                    "velocity": 0.8267716535433071
                },
                {
                    "duration": 0.11309512500000096,
                    "durationTicks": 114,
                    "midi": 54,
                    "name": "F#3",
                    "ticks": 76080,
                    "time": 75.47611500000001,
                    "velocity": 0.905511811023622
                },
                {
                    "duration": 0.11309512500000096,
                    "durationTicks": 114,
                    "midi": 54,
                    "name": "F#3",
                    "ticks": 76200,
                    "time": 75.5951625,
                    "velocity": 0.9448818897637795
                },
                {
                    "duration": 0.11309512500001517,
                    "durationTicks": 114,
                    "midi": 42,
                    "name": "F#2",
                    "ticks": 76320,
                    "time": 75.71421,
                    "velocity": 0.905511811023622
                },
                {
                    "duration": 0.11309512500000096,
                    "durationTicks": 114,
                    "midi": 42,
                    "name": "F#2",
                    "ticks": 76440,
                    "time": 75.8332575,
                    "velocity": 0.9448818897637795
                },
                {
                    "duration": 0.11309512500001517,
                    "durationTicks": 114,
                    "midi": 54,
                    "name": "F#3",
                    "ticks": 76560,
                    "time": 75.952305,
                    "velocity": 0.905511811023622
                },
                {
                    "duration": 0.11309512500000096,
                    "durationTicks": 114,
                    "midi": 54,
                    "name": "F#3",
                    "ticks": 76680,
                    "time": 76.0713525,
                    "velocity": 0.9448818897637795
                },
                {
                    "duration": 0.11309512500001517,
                    "durationTicks": 114,
                    "midi": 42,
                    "name": "F#2",
                    "ticks": 76800,
                    "time": 76.1904,
                    "velocity": 0.9448818897637795
                },
                {
                    "duration": 0.11309512500000096,
                    "durationTicks": 114,
                    "midi": 42,
                    "name": "F#2",
                    "ticks": 76920,
                    "time": 76.3094475,
                    "velocity": 0.9448818897637795
                },
                {
                    "duration": 0.11309512500000096,
                    "durationTicks": 114,
                    "midi": 54,
                    "name": "F#3",
                    "ticks": 77040,
                    "time": 76.428495,
                    "velocity": 0.7086614173228346
                },
                {
                    "duration": 0.11309512500000096,
                    "durationTicks": 114,
                    "midi": 54,
                    "name": "F#3",
                    "ticks": 77160,
                    "time": 76.5475425,
                    "velocity": 0.7322834645669292
                },
                {
                    "duration": 0.11309512500000096,
                    "durationTicks": 114,
                    "midi": 42,
                    "name": "F#2",
                    "ticks": 77280,
                    "time": 76.66659,
                    "velocity": 0.905511811023622
                },
                {
                    "duration": 0.11309512500000096,
                    "durationTicks": 114,
                    "midi": 42,
                    "name": "F#2",
                    "ticks": 77400,
                    "time": 76.7856375,
                    "velocity": 0.905511811023622
                },
                {
                    "duration": 0.11309512500000096,
                    "durationTicks": 114,
                    "midi": 54,
                    "name": "F#3",
                    "ticks": 77520,
                    "time": 76.904685,
                    "velocity": 0.8267716535433071
                },
                {
                    "duration": 0.11309512500001517,
                    "durationTicks": 114,
                    "midi": 54,
                    "name": "F#3",
                    "ticks": 77640,
                    "time": 77.0237325,
                    "velocity": 0.7637795275590551
                },
                {
                    "duration": 0.11309512500000096,
                    "durationTicks": 114,
                    "midi": 42,
                    "name": "F#2",
                    "ticks": 77760,
                    "time": 77.14278,
                    "velocity": 0.8267716535433071
                },
                {
                    "duration": 0.11309512500001517,
                    "durationTicks": 114,
                    "midi": 42,
                    "name": "F#2",
                    "ticks": 77880,
                    "time": 77.2618275,
                    "velocity": 0.8267716535433071
                },
                {
                    "duration": 0.11309512500000096,
                    "durationTicks": 114,
                    "midi": 54,
                    "name": "F#3",
                    "ticks": 78000,
                    "time": 77.380875,
                    "velocity": 0.905511811023622
                },
                {
                    "duration": 0.11309512500001517,
                    "durationTicks": 114,
                    "midi": 54,
                    "name": "F#3",
                    "ticks": 78120,
                    "time": 77.4999225,
                    "velocity": 0.9448818897637795
                },
                {
                    "duration": 0.11309512500000096,
                    "durationTicks": 114,
                    "midi": 42,
                    "name": "F#2",
                    "ticks": 78240,
                    "time": 77.61897,
                    "velocity": 0.905511811023622
                },
                {
                    "duration": 0.11309512500000096,
                    "durationTicks": 114,
                    "midi": 42,
                    "name": "F#2",
                    "ticks": 78360,
                    "time": 77.7380175,
                    "velocity": 0.9448818897637795
                },
                {
                    "duration": 0.11309512500000096,
                    "durationTicks": 114,
                    "midi": 54,
                    "name": "F#3",
                    "ticks": 78480,
                    "time": 77.857065,
                    "velocity": 0.905511811023622
                },
                {
                    "duration": 0.11309512500000096,
                    "durationTicks": 114,
                    "midi": 54,
                    "name": "F#3",
                    "ticks": 78600,
                    "time": 77.9761125,
                    "velocity": 0.9448818897637795
                },
                {
                    "duration": 0.11309512500000096,
                    "durationTicks": 114,
                    "midi": 40,
                    "name": "E2",
                    "ticks": 78720,
                    "time": 78.09516,
                    "velocity": 0.9448818897637795
                },
                {
                    "duration": 0.11309512500000096,
                    "durationTicks": 114,
                    "midi": 40,
                    "name": "E2",
                    "ticks": 78840,
                    "time": 78.2142075,
                    "velocity": 0.9448818897637795
                },
                {
                    "duration": 0.11309512500001517,
                    "durationTicks": 114,
                    "midi": 52,
                    "name": "E3",
                    "ticks": 78960,
                    "time": 78.333255,
                    "velocity": 0.7086614173228346
                },
                {
                    "duration": 0.11309512500000096,
                    "durationTicks": 114,
                    "midi": 52,
                    "name": "E3",
                    "ticks": 79080,
                    "time": 78.4523025,
                    "velocity": 0.7322834645669292
                },
                {
                    "duration": 0.11309512500001517,
                    "durationTicks": 114,
                    "midi": 40,
                    "name": "E2",
                    "ticks": 79200,
                    "time": 78.57135,
                    "velocity": 0.905511811023622
                },
                {
                    "duration": 0.11309512500000096,
                    "durationTicks": 114,
                    "midi": 40,
                    "name": "E2",
                    "ticks": 79320,
                    "time": 78.6903975,
                    "velocity": 0.905511811023622
                },
                {
                    "duration": 0.11309512500001517,
                    "durationTicks": 114,
                    "midi": 52,
                    "name": "E3",
                    "ticks": 79440,
                    "time": 78.809445,
                    "velocity": 0.8267716535433071
                },
                {
                    "duration": 0.11309512500000096,
                    "durationTicks": 114,
                    "midi": 52,
                    "name": "E3",
                    "ticks": 79560,
                    "time": 78.9284925,
                    "velocity": 0.7637795275590551
                },
                {
                    "duration": 0.11309512500000096,
                    "durationTicks": 114,
                    "midi": 40,
                    "name": "E2",
                    "ticks": 79680,
                    "time": 79.04754,
                    "velocity": 0.8267716535433071
                },
                {
                    "duration": 0.11309512500000096,
                    "durationTicks": 114,
                    "midi": 40,
                    "name": "E2",
                    "ticks": 79800,
                    "time": 79.1665875,
                    "velocity": 0.8267716535433071
                },
                {
                    "duration": 0.11309512500000096,
                    "durationTicks": 114,
                    "midi": 52,
                    "name": "E3",
                    "ticks": 79920,
                    "time": 79.285635,
                    "velocity": 0.905511811023622
                },
                {
                    "duration": 0.11309512500000096,
                    "durationTicks": 114,
                    "midi": 52,
                    "name": "E3",
                    "ticks": 80040,
                    "time": 79.4046825,
                    "velocity": 0.9448818897637795
                },
                {
                    "duration": 0.11309512500000096,
                    "durationTicks": 114,
                    "midi": 40,
                    "name": "E2",
                    "ticks": 80160,
                    "time": 79.52373,
                    "velocity": 0.905511811023622
                },
                {
                    "duration": 0.11309512500001517,
                    "durationTicks": 114,
                    "midi": 40,
                    "name": "E2",
                    "ticks": 80280,
                    "time": 79.6427775,
                    "velocity": 0.9448818897637795
                },
                {
                    "duration": 0.11309512500000096,
                    "durationTicks": 114,
                    "midi": 52,
                    "name": "E3",
                    "ticks": 80400,
                    "time": 79.761825,
                    "velocity": 0.905511811023622
                },
                {
                    "duration": 0.11309512500001517,
                    "durationTicks": 114,
                    "midi": 52,
                    "name": "E3",
                    "ticks": 80520,
                    "time": 79.8808725,
                    "velocity": 0.9448818897637795
                },
                {
                    "duration": 0.11309512500000096,
                    "durationTicks": 114,
                    "midi": 47,
                    "name": "B2",
                    "ticks": 80640,
                    "time": 79.99992,
                    "velocity": 0.9448818897637795
                },
                {
                    "duration": 0.11309512500001517,
                    "durationTicks": 114,
                    "midi": 47,
                    "name": "B2",
                    "ticks": 80760,
                    "time": 80.1189675,
                    "velocity": 0.9448818897637795
                },
                {
                    "duration": 0.11309512500000096,
                    "durationTicks": 114,
                    "midi": 59,
                    "name": "B3",
                    "ticks": 80880,
                    "time": 80.238015,
                    "velocity": 0.7086614173228346
                },
                {
                    "duration": 0.11309512500000096,
                    "durationTicks": 114,
                    "midi": 59,
                    "name": "B3",
                    "ticks": 81000,
                    "time": 80.3570625,
                    "velocity": 0.7322834645669292
                },
                {
                    "duration": 0.11309512500000096,
                    "durationTicks": 114,
                    "midi": 47,
                    "name": "B2",
                    "ticks": 81120,
                    "time": 80.47611,
                    "velocity": 0.905511811023622
                },
                {
                    "duration": 0.11309512500000096,
                    "durationTicks": 114,
                    "midi": 47,
                    "name": "B2",
                    "ticks": 81240,
                    "time": 80.5951575,
                    "velocity": 0.905511811023622
                },
                {
                    "duration": 0.11309512500000096,
                    "durationTicks": 114,
                    "midi": 59,
                    "name": "B3",
                    "ticks": 81360,
                    "time": 80.714205,
                    "velocity": 0.8267716535433071
                },
                {
                    "duration": 0.11309512500000096,
                    "durationTicks": 114,
                    "midi": 59,
                    "name": "B3",
                    "ticks": 81480,
                    "time": 80.8332525,
                    "velocity": 0.7637795275590551
                },
                {
                    "duration": 0.11309512500001517,
                    "durationTicks": 114,
                    "midi": 47,
                    "name": "B2",
                    "ticks": 81600,
                    "time": 80.9523,
                    "velocity": 0.8267716535433071
                },
                {
                    "duration": 0.11309512500000096,
                    "durationTicks": 114,
                    "midi": 47,
                    "name": "B2",
                    "ticks": 81720,
                    "time": 81.0713475,
                    "velocity": 0.8267716535433071
                },
                {
                    "duration": 0.11309512500001517,
                    "durationTicks": 114,
                    "midi": 59,
                    "name": "B3",
                    "ticks": 81840,
                    "time": 81.190395,
                    "velocity": 0.905511811023622
                },
                {
                    "duration": 0.11309512500000096,
                    "durationTicks": 114,
                    "midi": 59,
                    "name": "B3",
                    "ticks": 81960,
                    "time": 81.3094425,
                    "velocity": 0.9448818897637795
                },
                {
                    "duration": 0.11309512500001517,
                    "durationTicks": 114,
                    "midi": 47,
                    "name": "B2",
                    "ticks": 82080,
                    "time": 81.42849,
                    "velocity": 0.905511811023622
                },
                {
                    "duration": 0.11309512500000096,
                    "durationTicks": 114,
                    "midi": 47,
                    "name": "B2",
                    "ticks": 82200,
                    "time": 81.5475375,
                    "velocity": 0.9448818897637795
                },
                {
                    "duration": 0.11309512500000096,
                    "durationTicks": 114,
                    "midi": 59,
                    "name": "B3",
                    "ticks": 82320,
                    "time": 81.666585,
                    "velocity": 0.905511811023622
                },
                {
                    "duration": 0.11309512500000096,
                    "durationTicks": 114,
                    "midi": 59,
                    "name": "B3",
                    "ticks": 82440,
                    "time": 81.7856325,
                    "velocity": 0.9448818897637795
                },
                {
                    "duration": 0.11309512500000096,
                    "durationTicks": 114,
                    "midi": 42,
                    "name": "F#2",
                    "ticks": 82560,
                    "time": 81.90468,
                    "velocity": 0.9448818897637795
                },
                {
                    "duration": 0.11309512500000096,
                    "durationTicks": 114,
                    "midi": 42,
                    "name": "F#2",
                    "ticks": 82680,
                    "time": 82.0237275,
                    "velocity": 0.9448818897637795
                },
                {
                    "duration": 0.11309512500000096,
                    "durationTicks": 114,
                    "midi": 54,
                    "name": "F#3",
                    "ticks": 82800,
                    "time": 82.142775,
                    "velocity": 0.7086614173228346
                },
                {
                    "duration": 0.11309512500001517,
                    "durationTicks": 114,
                    "midi": 54,
                    "name": "F#3",
                    "ticks": 82920,
                    "time": 82.2618225,
                    "velocity": 0.7322834645669292
                },
                {
                    "duration": 0.11309512500000096,
                    "durationTicks": 114,
                    "midi": 42,
                    "name": "F#2",
                    "ticks": 83040,
                    "time": 82.38087,
                    "velocity": 0.905511811023622
                },
                {
                    "duration": 0.11309512500001517,
                    "durationTicks": 114,
                    "midi": 42,
                    "name": "F#2",
                    "ticks": 83160,
                    "time": 82.4999175,
                    "velocity": 0.905511811023622
                },
                {
                    "duration": 0.11309512500000096,
                    "durationTicks": 114,
                    "midi": 54,
                    "name": "F#3",
                    "ticks": 83280,
                    "time": 82.618965,
                    "velocity": 0.8267716535433071
                },
                {
                    "duration": 0.11309512500001517,
                    "durationTicks": 114,
                    "midi": 54,
                    "name": "F#3",
                    "ticks": 83400,
                    "time": 82.7380125,
                    "velocity": 0.7637795275590551
                },
                {
                    "duration": 0.11309512500000096,
                    "durationTicks": 114,
                    "midi": 42,
                    "name": "F#2",
                    "ticks": 83520,
                    "time": 82.85706,
                    "velocity": 0.8267716535433071
                },
                {
                    "duration": 0.11309512500001517,
                    "durationTicks": 114,
                    "midi": 42,
                    "name": "F#2",
                    "ticks": 83640,
                    "time": 82.9761075,
                    "velocity": 0.8267716535433071
                },
                {
                    "duration": 0.11309512500000096,
                    "durationTicks": 114,
                    "midi": 54,
                    "name": "F#3",
                    "ticks": 83760,
                    "time": 83.095155,
                    "velocity": 0.905511811023622
                },
                {
                    "duration": 0.11309512500000096,
                    "durationTicks": 114,
                    "midi": 54,
                    "name": "F#3",
                    "ticks": 83880,
                    "time": 83.2142025,
                    "velocity": 0.9448818897637795
                },
                {
                    "duration": 0.11309512500000096,
                    "durationTicks": 114,
                    "midi": 42,
                    "name": "F#2",
                    "ticks": 84000,
                    "time": 83.33325,
                    "velocity": 0.905511811023622
                },
                {
                    "duration": 0.11309512500000096,
                    "durationTicks": 114,
                    "midi": 42,
                    "name": "F#2",
                    "ticks": 84120,
                    "time": 83.4522975,
                    "velocity": 0.9448818897637795
                },
                {
                    "duration": 0.11309512500001517,
                    "durationTicks": 114,
                    "midi": 54,
                    "name": "F#3",
                    "ticks": 84240,
                    "time": 83.571345,
                    "velocity": 0.905511811023622
                },
                {
                    "duration": 0.11309512500000096,
                    "durationTicks": 114,
                    "midi": 54,
                    "name": "F#3",
                    "ticks": 84360,
                    "time": 83.6903925,
                    "velocity": 0.9448818897637795
                },
                {
                    "duration": 0.11309512500001517,
                    "durationTicks": 114,
                    "midi": 42,
                    "name": "F#2",
                    "ticks": 84480,
                    "time": 83.80944,
                    "velocity": 0.9448818897637795
                },
                {
                    "duration": 0.11309512500000096,
                    "durationTicks": 114,
                    "midi": 42,
                    "name": "F#2",
                    "ticks": 84600,
                    "time": 83.9284875,
                    "velocity": 0.9448818897637795
                },
                {
                    "duration": 0.11309512500001517,
                    "durationTicks": 114,
                    "midi": 54,
                    "name": "F#3",
                    "ticks": 84720,
                    "time": 84.047535,
                    "velocity": 0.7086614173228346
                },
                {
                    "duration": 0.11309512500000096,
                    "durationTicks": 114,
                    "midi": 54,
                    "name": "F#3",
                    "ticks": 84840,
                    "time": 84.1665825,
                    "velocity": 0.7322834645669292
                },
                {
                    "duration": 0.11309512500001517,
                    "durationTicks": 114,
                    "midi": 42,
                    "name": "F#2",
                    "ticks": 84960,
                    "time": 84.28563,
                    "velocity": 0.905511811023622
                },
                {
                    "duration": 0.11309512500000096,
                    "durationTicks": 114,
                    "midi": 42,
                    "name": "F#2",
                    "ticks": 85080,
                    "time": 84.4046775,
                    "velocity": 0.905511811023622
                },
                {
                    "duration": 0.11309512500000096,
                    "durationTicks": 114,
                    "midi": 54,
                    "name": "F#3",
                    "ticks": 85200,
                    "time": 84.523725,
                    "velocity": 0.8267716535433071
                },
                {
                    "duration": 0.11309512500000096,
                    "durationTicks": 114,
                    "midi": 54,
                    "name": "F#3",
                    "ticks": 85320,
                    "time": 84.6427725,
                    "velocity": 0.7637795275590551
                },
                {
                    "duration": 0.11309512500000096,
                    "durationTicks": 114,
                    "midi": 42,
                    "name": "F#2",
                    "ticks": 85440,
                    "time": 84.76182,
                    "velocity": 0.8267716535433071
                },
                {
                    "duration": 0.11309512500001517,
                    "durationTicks": 114,
                    "midi": 42,
                    "name": "F#2",
                    "ticks": 85560,
                    "time": 84.8808675,
                    "velocity": 0.8267716535433071
                },
                {
                    "duration": 0.11309512500000096,
                    "durationTicks": 114,
                    "midi": 54,
                    "name": "F#3",
                    "ticks": 85680,
                    "time": 84.999915,
                    "velocity": 0.905511811023622
                },
                {
                    "duration": 0.11309512500001517,
                    "durationTicks": 114,
                    "midi": 54,
                    "name": "F#3",
                    "ticks": 85800,
                    "time": 85.1189625,
                    "velocity": 0.9448818897637795
                },
                {
                    "duration": 0.11309512500000096,
                    "durationTicks": 114,
                    "midi": 42,
                    "name": "F#2",
                    "ticks": 85920,
                    "time": 85.23801,
                    "velocity": 0.905511811023622
                },
                {
                    "duration": 0.11309512500001517,
                    "durationTicks": 114,
                    "midi": 42,
                    "name": "F#2",
                    "ticks": 86040,
                    "time": 85.3570575,
                    "velocity": 0.9448818897637795
                },
                {
                    "duration": 0.11309512500000096,
                    "durationTicks": 114,
                    "midi": 54,
                    "name": "F#3",
                    "ticks": 86160,
                    "time": 85.476105,
                    "velocity": 0.905511811023622
                },
                {
                    "duration": 0.11309512500001517,
                    "durationTicks": 114,
                    "midi": 54,
                    "name": "F#3",
                    "ticks": 86280,
                    "time": 85.5951525,
                    "velocity": 0.9448818897637795
                },
                {
                    "duration": 0.11309512500000096,
                    "durationTicks": 114,
                    "midi": 40,
                    "name": "E2",
                    "ticks": 86400,
                    "time": 85.7142,
                    "velocity": 0.9448818897637795
                },
                {
                    "duration": 0.11309512500000096,
                    "durationTicks": 114,
                    "midi": 40,
                    "name": "E2",
                    "ticks": 86520,
                    "time": 85.8332475,
                    "velocity": 0.9448818897637795
                },
                {
                    "duration": 0.11309512500000096,
                    "durationTicks": 114,
                    "midi": 52,
                    "name": "E3",
                    "ticks": 86640,
                    "time": 85.952295,
                    "velocity": 0.7086614173228346
                },
                {
                    "duration": 0.11309512500000096,
                    "durationTicks": 114,
                    "midi": 52,
                    "name": "E3",
                    "ticks": 86760,
                    "time": 86.0713425,
                    "velocity": 0.7322834645669292
                },
                {
                    "duration": 0.11309512500001517,
                    "durationTicks": 114,
                    "midi": 40,
                    "name": "E2",
                    "ticks": 86880,
                    "time": 86.19039,
                    "velocity": 0.905511811023622
                },
                {
                    "duration": 0.11309512500000096,
                    "durationTicks": 114,
                    "midi": 40,
                    "name": "E2",
                    "ticks": 87000,
                    "time": 86.3094375,
                    "velocity": 0.905511811023622
                },
                {
                    "duration": 0.11309512500001517,
                    "durationTicks": 114,
                    "midi": 52,
                    "name": "E3",
                    "ticks": 87120,
                    "time": 86.428485,
                    "velocity": 0.8267716535433071
                },
                {
                    "duration": 0.11309512500000096,
                    "durationTicks": 114,
                    "midi": 52,
                    "name": "E3",
                    "ticks": 87240,
                    "time": 86.5475325,
                    "velocity": 0.7637795275590551
                },
                {
                    "duration": 0.11309512500001517,
                    "durationTicks": 114,
                    "midi": 40,
                    "name": "E2",
                    "ticks": 87360,
                    "time": 86.66658,
                    "velocity": 0.8267716535433071
                },
                {
                    "duration": 0.11309512500000096,
                    "durationTicks": 114,
                    "midi": 40,
                    "name": "E2",
                    "ticks": 87480,
                    "time": 86.7856275,
                    "velocity": 0.8267716535433071
                },
                {
                    "duration": 0.11309512500001517,
                    "durationTicks": 114,
                    "midi": 52,
                    "name": "E3",
                    "ticks": 87600,
                    "time": 86.904675,
                    "velocity": 0.905511811023622
                },
                {
                    "duration": 0.11309512500000096,
                    "durationTicks": 114,
                    "midi": 52,
                    "name": "E3",
                    "ticks": 87720,
                    "time": 87.0237225,
                    "velocity": 0.9448818897637795
                },
                {
                    "duration": 0.11309512500000096,
                    "durationTicks": 114,
                    "midi": 40,
                    "name": "E2",
                    "ticks": 87840,
                    "time": 87.14277,
                    "velocity": 0.905511811023622
                },
                {
                    "duration": 0.11309512500000096,
                    "durationTicks": 114,
                    "midi": 40,
                    "name": "E2",
                    "ticks": 87960,
                    "time": 87.2618175,
                    "velocity": 0.9448818897637795
                },
                {
                    "duration": 0.11309512500000096,
                    "durationTicks": 114,
                    "midi": 52,
                    "name": "E3",
                    "ticks": 88080,
                    "time": 87.380865,
                    "velocity": 0.905511811023622
                },
                {
                    "duration": 0.11309512500001517,
                    "durationTicks": 114,
                    "midi": 52,
                    "name": "E3",
                    "ticks": 88200,
                    "time": 87.4999125,
                    "velocity": 0.9448818897637795
                },
                {
                    "duration": 0.11309512500000096,
                    "durationTicks": 114,
                    "midi": 47,
                    "name": "B2",
                    "ticks": 88320,
                    "time": 87.61896,
                    "velocity": 0.9448818897637795
                },
                {
                    "duration": 0.11309512500001517,
                    "durationTicks": 114,
                    "midi": 47,
                    "name": "B2",
                    "ticks": 88440,
                    "time": 87.7380075,
                    "velocity": 0.9448818897637795
                },
                {
                    "duration": 0.11309512500000096,
                    "durationTicks": 114,
                    "midi": 59,
                    "name": "B3",
                    "ticks": 88560,
                    "time": 87.857055,
                    "velocity": 0.7086614173228346
                },
                {
                    "duration": 0.11309512500001517,
                    "durationTicks": 114,
                    "midi": 59,
                    "name": "B3",
                    "ticks": 88680,
                    "time": 87.9761025,
                    "velocity": 0.7322834645669292
                },
                {
                    "duration": 0.11309512500000096,
                    "durationTicks": 114,
                    "midi": 47,
                    "name": "B2",
                    "ticks": 88800,
                    "time": 88.09515,
                    "velocity": 0.905511811023622
                },
                {
                    "duration": 0.11309512500001517,
                    "durationTicks": 114,
                    "midi": 47,
                    "name": "B2",
                    "ticks": 88920,
                    "time": 88.2141975,
                    "velocity": 0.905511811023622
                },
                {
                    "duration": 0.11309512500000096,
                    "durationTicks": 114,
                    "midi": 59,
                    "name": "B3",
                    "ticks": 89040,
                    "time": 88.333245,
                    "velocity": 0.8267716535433071
                },
                {
                    "duration": 0.11309512500000096,
                    "durationTicks": 114,
                    "midi": 59,
                    "name": "B3",
                    "ticks": 89160,
                    "time": 88.4522925,
                    "velocity": 0.7637795275590551
                },
                {
                    "duration": 0.11309512500000096,
                    "durationTicks": 114,
                    "midi": 47,
                    "name": "B2",
                    "ticks": 89280,
                    "time": 88.57134,
                    "velocity": 0.8267716535433071
                },
                {
                    "duration": 0.11309512500000096,
                    "durationTicks": 114,
                    "midi": 47,
                    "name": "B2",
                    "ticks": 89400,
                    "time": 88.6903875,
                    "velocity": 0.8267716535433071
                },
                {
                    "duration": 0.11309512500001517,
                    "durationTicks": 114,
                    "midi": 59,
                    "name": "B3",
                    "ticks": 89520,
                    "time": 88.809435,
                    "velocity": 0.905511811023622
                },
                {
                    "duration": 0.11309512500000096,
                    "durationTicks": 114,
                    "midi": 59,
                    "name": "B3",
                    "ticks": 89640,
                    "time": 88.9284825,
                    "velocity": 0.9448818897637795
                },
                {
                    "duration": 0.11309512500001517,
                    "durationTicks": 114,
                    "midi": 47,
                    "name": "B2",
                    "ticks": 89760,
                    "time": 89.04753,
                    "velocity": 0.905511811023622
                },
                {
                    "duration": 0.11309512500000096,
                    "durationTicks": 114,
                    "midi": 47,
                    "name": "B2",
                    "ticks": 89880,
                    "time": 89.1665775,
                    "velocity": 0.9448818897637795
                },
                {
                    "duration": 0.11309512500001517,
                    "durationTicks": 114,
                    "midi": 59,
                    "name": "B3",
                    "ticks": 90000,
                    "time": 89.285625,
                    "velocity": 0.905511811023622
                },
                {
                    "duration": 0.11309512500000096,
                    "durationTicks": 114,
                    "midi": 59,
                    "name": "B3",
                    "ticks": 90120,
                    "time": 89.4046725,
                    "velocity": 0.9448818897637795
                },
                {
                    "duration": 0.11309512500001517,
                    "durationTicks": 114,
                    "midi": 42,
                    "name": "F#2",
                    "ticks": 90240,
                    "time": 89.52372,
                    "velocity": 0.9448818897637795
                },
                {
                    "duration": 0.11309512500000096,
                    "durationTicks": 114,
                    "midi": 42,
                    "name": "F#2",
                    "ticks": 90360,
                    "time": 89.6427675,
                    "velocity": 0.9448818897637795
                },
                {
                    "duration": 0.11309512500000096,
                    "durationTicks": 114,
                    "midi": 54,
                    "name": "F#3",
                    "ticks": 90480,
                    "time": 89.761815,
                    "velocity": 0.7086614173228346
                },
                {
                    "duration": 0.11309512500000096,
                    "durationTicks": 114,
                    "midi": 54,
                    "name": "F#3",
                    "ticks": 90600,
                    "time": 89.8808625,
                    "velocity": 0.7322834645669292
                },
                {
                    "duration": 0.11309512500000096,
                    "durationTicks": 114,
                    "midi": 42,
                    "name": "F#2",
                    "ticks": 90720,
                    "time": 89.99991,
                    "velocity": 0.905511811023622
                },
                {
                    "duration": 0.11309512500001517,
                    "durationTicks": 114,
                    "midi": 42,
                    "name": "F#2",
                    "ticks": 90840,
                    "time": 90.1189575,
                    "velocity": 0.905511811023622
                },
                {
                    "duration": 0.11309512500000096,
                    "durationTicks": 114,
                    "midi": 54,
                    "name": "F#3",
                    "ticks": 90960,
                    "time": 90.238005,
                    "velocity": 0.8267716535433071
                },
                {
                    "duration": 0.11309512500001517,
                    "durationTicks": 114,
                    "midi": 54,
                    "name": "F#3",
                    "ticks": 91080,
                    "time": 90.3570525,
                    "velocity": 0.7637795275590551
                },
                {
                    "duration": 0.11309512500000096,
                    "durationTicks": 114,
                    "midi": 42,
                    "name": "F#2",
                    "ticks": 91200,
                    "time": 90.4761,
                    "velocity": 0.8267716535433071
                },
                {
                    "duration": 0.11309512500001517,
                    "durationTicks": 114,
                    "midi": 42,
                    "name": "F#2",
                    "ticks": 91320,
                    "time": 90.5951475,
                    "velocity": 0.8267716535433071
                },
                {
                    "duration": 0.11309512500000096,
                    "durationTicks": 114,
                    "midi": 54,
                    "name": "F#3",
                    "ticks": 91440,
                    "time": 90.714195,
                    "velocity": 0.905511811023622
                },
                {
                    "duration": 0.11309512500001517,
                    "durationTicks": 114,
                    "midi": 54,
                    "name": "F#3",
                    "ticks": 91560,
                    "time": 90.8332425,
                    "velocity": 0.9448818897637795
                },
                {
                    "duration": 0.11309512500000096,
                    "durationTicks": 114,
                    "midi": 42,
                    "name": "F#2",
                    "ticks": 91680,
                    "time": 90.95229,
                    "velocity": 0.905511811023622
                },
                {
                    "duration": 0.11309512500000096,
                    "durationTicks": 114,
                    "midi": 42,
                    "name": "F#2",
                    "ticks": 91800,
                    "time": 91.0713375,
                    "velocity": 0.9448818897637795
                },
                {
                    "duration": 0.11309512500000096,
                    "durationTicks": 114,
                    "midi": 54,
                    "name": "F#3",
                    "ticks": 91920,
                    "time": 91.190385,
                    "velocity": 0.905511811023622
                },
                {
                    "duration": 0.11309512500000096,
                    "durationTicks": 114,
                    "midi": 54,
                    "name": "F#3",
                    "ticks": 92040,
                    "time": 91.3094325,
                    "velocity": 0.9448818897637795
                },
                {
                    "duration": 0.11309512500000096,
                    "durationTicks": 114,
                    "midi": 54,
                    "name": "F#3",
                    "ticks": 92160,
                    "time": 91.42848000000001,
                    "velocity": 0.8740157480314961
                },
                {
                    "duration": 0.11309512500000096,
                    "durationTicks": 114,
                    "midi": 54,
                    "name": "F#3",
                    "ticks": 92280,
                    "time": 91.5475275,
                    "velocity": 0.7007874015748031
                },
                {
                    "duration": 0.11309512500001517,
                    "durationTicks": 114,
                    "midi": 54,
                    "name": "F#3",
                    "ticks": 92400,
                    "time": 91.666575,
                    "velocity": 0.7007874015748031
                },
                {
                    "duration": 0.11309512500000096,
                    "durationTicks": 114,
                    "midi": 54,
                    "name": "F#3",
                    "ticks": 92520,
                    "time": 91.7856225,
                    "velocity": 0.8740157480314961
                },
                {
                    "duration": 0.11309512500001517,
                    "durationTicks": 114,
                    "midi": 54,
                    "name": "F#3",
                    "ticks": 92640,
                    "time": 91.90467,
                    "velocity": 0.8740157480314961
                },
                {
                    "duration": 0.11309512500000096,
                    "durationTicks": 114,
                    "midi": 54,
                    "name": "F#3",
                    "ticks": 92760,
                    "time": 92.0237175,
                    "velocity": 0.6377952755905512
                },
                {
                    "duration": 0.11309512500001517,
                    "durationTicks": 114,
                    "midi": 54,
                    "name": "F#3",
                    "ticks": 92880,
                    "time": 92.142765,
                    "velocity": 0.7007874015748031
                },
                {
                    "duration": 0.11309512500000096,
                    "durationTicks": 114,
                    "midi": 54,
                    "name": "F#3",
                    "ticks": 93000,
                    "time": 92.2618125,
                    "velocity": 0.7322834645669292
                },
                {
                    "duration": 0.11309512500000096,
                    "durationTicks": 114,
                    "midi": 54,
                    "name": "F#3",
                    "ticks": 93120,
                    "time": 92.38086,
                    "velocity": 0.7795275590551181
                },
                {
                    "duration": 0.11309512500000096,
                    "durationTicks": 114,
                    "midi": 61,
                    "name": "C#4",
                    "ticks": 93240,
                    "time": 92.4999075,
                    "velocity": 0.8740157480314961
                },
                {
                    "duration": 0.11309512500000096,
                    "durationTicks": 114,
                    "midi": 54,
                    "name": "F#3",
                    "ticks": 93360,
                    "time": 92.618955,
                    "velocity": 0.48031496062992124
                },
                {
                    "duration": 0.11309512500000096,
                    "durationTicks": 114,
                    "midi": 54,
                    "name": "F#3",
                    "ticks": 93480,
                    "time": 92.73800250000001,
                    "velocity": 0.7322834645669292
                },
                {
                    "duration": 0.11309512500000096,
                    "durationTicks": 114,
                    "midi": 54,
                    "name": "F#3",
                    "ticks": 93600,
                    "time": 92.85705,
                    "velocity": 0.8188976377952756
                },
                {
                    "duration": 0.11309512500001517,
                    "durationTicks": 114,
                    "midi": 54,
                    "name": "F#3",
                    "ticks": 93720,
                    "time": 92.9760975,
                    "velocity": 0.8740157480314961
                },
                {
                    "duration": 0.11309512500000096,
                    "durationTicks": 114,
                    "midi": 54,
                    "name": "F#3",
                    "ticks": 93840,
                    "time": 93.095145,
                    "velocity": 0.8188976377952756
                },
                {
                    "duration": 0.11309512500001517,
                    "durationTicks": 114,
                    "midi": 54,
                    "name": "F#3",
                    "ticks": 93960,
                    "time": 93.2141925,
                    "velocity": 0.8188976377952756
                },
                {
                    "duration": 0.11309512500000096,
                    "durationTicks": 114,
                    "midi": 54,
                    "name": "F#3",
                    "ticks": 94080,
                    "time": 93.33324,
                    "velocity": 0.8740157480314961
                },
                {
                    "duration": 0.11309512500001517,
                    "durationTicks": 114,
                    "midi": 54,
                    "name": "F#3",
                    "ticks": 94200,
                    "time": 93.4522875,
                    "velocity": 0.7007874015748031
                },
                {
                    "duration": 0.11309512500000096,
                    "durationTicks": 114,
                    "midi": 54,
                    "name": "F#3",
                    "ticks": 94320,
                    "time": 93.571335,
                    "velocity": 0.7007874015748031
                },
                {
                    "duration": 0.11309512500000096,
                    "durationTicks": 114,
                    "midi": 54,
                    "name": "F#3",
                    "ticks": 94440,
                    "time": 93.6903825,
                    "velocity": 0.8740157480314961
                },
                {
                    "duration": 0.11309512500000096,
                    "durationTicks": 114,
                    "midi": 54,
                    "name": "F#3",
                    "ticks": 94560,
                    "time": 93.80943,
                    "velocity": 0.8740157480314961
                },
                {
                    "duration": 0.11309512500000096,
                    "durationTicks": 114,
                    "midi": 54,
                    "name": "F#3",
                    "ticks": 94680,
                    "time": 93.9284775,
                    "velocity": 0.6377952755905512
                },
                {
                    "duration": 0.11309512500000096,
                    "durationTicks": 114,
                    "midi": 54,
                    "name": "F#3",
                    "ticks": 94800,
                    "time": 94.04752500000001,
                    "velocity": 0.7007874015748031
                },
                {
                    "duration": 0.11309512500000096,
                    "durationTicks": 114,
                    "midi": 54,
                    "name": "F#3",
                    "ticks": 94920,
                    "time": 94.1665725,
                    "velocity": 0.7322834645669292
                },
                {
                    "duration": 0.11309512500001517,
                    "durationTicks": 114,
                    "midi": 54,
                    "name": "F#3",
                    "ticks": 95040,
                    "time": 94.28562,
                    "velocity": 0.7795275590551181
                },
                {
                    "duration": 0.11309512500000096,
                    "durationTicks": 114,
                    "midi": 61,
                    "name": "C#4",
                    "ticks": 95160,
                    "time": 94.4046675,
                    "velocity": 0.8740157480314961
                },
                {
                    "duration": 0.11309512500001517,
                    "durationTicks": 114,
                    "midi": 54,
                    "name": "F#3",
                    "ticks": 95280,
                    "time": 94.523715,
                    "velocity": 0.48031496062992124
                },
                {
                    "duration": 0.11309512500000096,
                    "durationTicks": 114,
                    "midi": 54,
                    "name": "F#3",
                    "ticks": 95400,
                    "time": 94.6427625,
                    "velocity": 0.7322834645669292
                },
                {
                    "duration": 0.11309512500001517,
                    "durationTicks": 114,
                    "midi": 54,
                    "name": "F#3",
                    "ticks": 95520,
                    "time": 94.76181,
                    "velocity": 0.8188976377952756
                },
                {
                    "duration": 0.11309512500000096,
                    "durationTicks": 114,
                    "midi": 54,
                    "name": "F#3",
                    "ticks": 95640,
                    "time": 94.8808575,
                    "velocity": 0.8740157480314961
                },
                {
                    "duration": 0.11309512500000096,
                    "durationTicks": 114,
                    "midi": 54,
                    "name": "F#3",
                    "ticks": 95760,
                    "time": 94.999905,
                    "velocity": 0.8188976377952756
                },
                {
                    "duration": 0.11309512500000096,
                    "durationTicks": 114,
                    "midi": 54,
                    "name": "F#3",
                    "ticks": 95880,
                    "time": 95.1189525,
                    "velocity": 0.8188976377952756
                },
                {
                    "duration": 0.11309512500000096,
                    "durationTicks": 114,
                    "midi": 54,
                    "name": "F#3",
                    "ticks": 96000,
                    "time": 95.238,
                    "velocity": 0.8740157480314961
                },
                {
                    "duration": 0.11309512500000096,
                    "durationTicks": 114,
                    "midi": 54,
                    "name": "F#3",
                    "ticks": 96120,
                    "time": 95.35704750000001,
                    "velocity": 0.7007874015748031
                },
                {
                    "duration": 0.11309512500000096,
                    "durationTicks": 114,
                    "midi": 54,
                    "name": "F#3",
                    "ticks": 96240,
                    "time": 95.476095,
                    "velocity": 0.7007874015748031
                },
                {
                    "duration": 0.11309512500001517,
                    "durationTicks": 114,
                    "midi": 54,
                    "name": "F#3",
                    "ticks": 96360,
                    "time": 95.5951425,
                    "velocity": 0.8740157480314961
                },
                {
                    "duration": 0.11309512500000096,
                    "durationTicks": 114,
                    "midi": 54,
                    "name": "F#3",
                    "ticks": 96480,
                    "time": 95.71419,
                    "velocity": 0.8740157480314961
                },
                {
                    "duration": 0.11309512500001517,
                    "durationTicks": 114,
                    "midi": 54,
                    "name": "F#3",
                    "ticks": 96600,
                    "time": 95.8332375,
                    "velocity": 0.6377952755905512
                },
                {
                    "duration": 0.11309512500000096,
                    "durationTicks": 114,
                    "midi": 54,
                    "name": "F#3",
                    "ticks": 96720,
                    "time": 95.952285,
                    "velocity": 0.7007874015748031
                },
                {
                    "duration": 0.11309512500001517,
                    "durationTicks": 114,
                    "midi": 54,
                    "name": "F#3",
                    "ticks": 96840,
                    "time": 96.0713325,
                    "velocity": 0.7322834645669292
                },
                {
                    "duration": 0.11309512500000096,
                    "durationTicks": 114,
                    "midi": 54,
                    "name": "F#3",
                    "ticks": 96960,
                    "time": 96.19038,
                    "velocity": 0.7795275590551181
                },
                {
                    "duration": 0.11309512500000096,
                    "durationTicks": 114,
                    "midi": 61,
                    "name": "C#4",
                    "ticks": 97080,
                    "time": 96.3094275,
                    "velocity": 0.8740157480314961
                },
                {
                    "duration": 0.11309512500000096,
                    "durationTicks": 114,
                    "midi": 54,
                    "name": "F#3",
                    "ticks": 97200,
                    "time": 96.428475,
                    "velocity": 0.48031496062992124
                },
                {
                    "duration": 0.11309512500000096,
                    "durationTicks": 114,
                    "midi": 54,
                    "name": "F#3",
                    "ticks": 97320,
                    "time": 96.5475225,
                    "velocity": 0.7322834645669292
                },
                {
                    "duration": 0.11309512500000096,
                    "durationTicks": 114,
                    "midi": 54,
                    "name": "F#3",
                    "ticks": 97440,
                    "time": 96.66657000000001,
                    "velocity": 0.8188976377952756
                },
                {
                    "duration": 0.11309512500000096,
                    "durationTicks": 114,
                    "midi": 54,
                    "name": "F#3",
                    "ticks": 97560,
                    "time": 96.7856175,
                    "velocity": 0.8740157480314961
                },
                {
                    "duration": 0.11309512500001517,
                    "durationTicks": 114,
                    "midi": 54,
                    "name": "F#3",
                    "ticks": 97680,
                    "time": 96.904665,
                    "velocity": 0.8188976377952756
                },
                {
                    "duration": 0.11309512500000096,
                    "durationTicks": 114,
                    "midi": 54,
                    "name": "F#3",
                    "ticks": 97800,
                    "time": 97.0237125,
                    "velocity": 0.8188976377952756
                },
                {
                    "duration": 0.11309512500000096,
                    "durationTicks": 114,
                    "midi": 42,
                    "name": "F#2",
                    "ticks": 99840,
                    "time": 99.04752,
                    "velocity": 0.8582677165354331
                },
                {
                    "duration": 0.11309512500000096,
                    "durationTicks": 114,
                    "midi": 42,
                    "name": "F#2",
                    "ticks": 99960,
                    "time": 99.1665675,
                    "velocity": 0.8582677165354331
                },
                {
                    "duration": 0.11309512500000096,
                    "durationTicks": 114,
                    "midi": 54,
                    "name": "F#3",
                    "ticks": 100080,
                    "time": 99.285615,
                    "velocity": 0.6220472440944882
                },
                {
                    "duration": 0.11309512500000096,
                    "durationTicks": 114,
                    "midi": 54,
                    "name": "F#3",
                    "ticks": 100200,
                    "time": 99.4046625,
                    "velocity": 0.6456692913385826
                },
                {
                    "duration": 0.11309512500001517,
                    "durationTicks": 114,
                    "midi": 42,
                    "name": "F#2",
                    "ticks": 100320,
                    "time": 99.52371,
                    "velocity": 0.8188976377952756
                },
                {
                    "duration": 0.11309512500000096,
                    "durationTicks": 114,
                    "midi": 42,
                    "name": "F#2",
                    "ticks": 100440,
                    "time": 99.6427575,
                    "velocity": 0.8188976377952756
                },
                {
                    "duration": 0.11309512500001517,
                    "durationTicks": 114,
                    "midi": 54,
                    "name": "F#3",
                    "ticks": 100560,
                    "time": 99.761805,
                    "velocity": 0.7401574803149606
                },
                {
                    "duration": 0.11309512500000096,
                    "durationTicks": 114,
                    "midi": 54,
                    "name": "F#3",
                    "ticks": 100680,
                    "time": 99.8808525,
                    "velocity": 0.6771653543307087
                },
                {
                    "duration": 0.11309512500001517,
                    "durationTicks": 114,
                    "midi": 42,
                    "name": "F#2",
                    "ticks": 100800,
                    "time": 99.9999,
                    "velocity": 0.7401574803149606
                },
                {
                    "duration": 0.11309512500000096,
                    "durationTicks": 114,
                    "midi": 42,
                    "name": "F#2",
                    "ticks": 100920,
                    "time": 100.1189475,
                    "velocity": 0.7401574803149606
                },
                {
                    "duration": 0.11309512500000096,
                    "durationTicks": 114,
                    "midi": 54,
                    "name": "F#3",
                    "ticks": 101040,
                    "time": 100.237995,
                    "velocity": 0.8188976377952756
                },
                {
                    "duration": 0.11309512500000096,
                    "durationTicks": 114,
                    "midi": 54,
                    "name": "F#3",
                    "ticks": 101160,
                    "time": 100.3570425,
                    "velocity": 0.8582677165354331
                },
                {
                    "duration": 0.11309512500000096,
                    "durationTicks": 114,
                    "midi": 42,
                    "name": "F#2",
                    "ticks": 101280,
                    "time": 100.47609,
                    "velocity": 0.8188976377952756
                },
                {
                    "duration": 0.11309512500000096,
                    "durationTicks": 114,
                    "midi": 42,
                    "name": "F#2",
                    "ticks": 101400,
                    "time": 100.5951375,
                    "velocity": 0.8582677165354331
                },
                {
                    "duration": 0.11309512500000096,
                    "durationTicks": 114,
                    "midi": 54,
                    "name": "F#3",
                    "ticks": 101520,
                    "time": 100.714185,
                    "velocity": 0.8188976377952756
                },
                {
                    "duration": 0.11309512500001517,
                    "durationTicks": 114,
                    "midi": 54,
                    "name": "F#3",
                    "ticks": 101640,
                    "time": 100.8332325,
                    "velocity": 0.8582677165354331
                },
                {
                    "duration": 0.11309512500000096,
                    "durationTicks": 114,
                    "midi": 40,
                    "name": "E2",
                    "ticks": 101760,
                    "time": 100.95228,
                    "velocity": 0.8582677165354331
                },
                {
                    "duration": 0.11309512500001517,
                    "durationTicks": 114,
                    "midi": 40,
                    "name": "E2",
                    "ticks": 101880,
                    "time": 101.0713275,
                    "velocity": 0.8582677165354331
                },
                {
                    "duration": 0.11309512500000096,
                    "durationTicks": 114,
                    "midi": 52,
                    "name": "E3",
                    "ticks": 102000,
                    "time": 101.190375,
                    "velocity": 0.6220472440944882
                },
                {
                    "duration": 0.11309512500001517,
                    "durationTicks": 114,
                    "midi": 52,
                    "name": "E3",
                    "ticks": 102120,
                    "time": 101.3094225,
                    "velocity": 0.6456692913385826
                },
                {
                    "duration": 0.11309512500000096,
                    "durationTicks": 114,
                    "midi": 40,
                    "name": "E2",
                    "ticks": 102240,
                    "time": 101.42847,
                    "velocity": 0.8188976377952756
                },
                {
                    "duration": 0.11309512500000096,
                    "durationTicks": 114,
                    "midi": 40,
                    "name": "E2",
                    "ticks": 102360,
                    "time": 101.5475175,
                    "velocity": 0.8188976377952756
                },
                {
                    "duration": 0.11309512500000096,
                    "durationTicks": 114,
                    "midi": 52,
                    "name": "E3",
                    "ticks": 102480,
                    "time": 101.666565,
                    "velocity": 0.7401574803149606
                },
                {
                    "duration": 0.11309512500000096,
                    "durationTicks": 114,
                    "midi": 52,
                    "name": "E3",
                    "ticks": 102600,
                    "time": 101.7856125,
                    "velocity": 0.6771653543307087
                },
                {
                    "duration": 0.11309512500000096,
                    "durationTicks": 114,
                    "midi": 40,
                    "name": "E2",
                    "ticks": 102720,
                    "time": 101.90466,
                    "velocity": 0.7401574803149606
                },
                {
                    "duration": 0.11309512500000096,
                    "durationTicks": 114,
                    "midi": 40,
                    "name": "E2",
                    "ticks": 102840,
                    "time": 102.0237075,
                    "velocity": 0.7401574803149606
                },
                {
                    "duration": 0.11309512500001517,
                    "durationTicks": 114,
                    "midi": 52,
                    "name": "E3",
                    "ticks": 102960,
                    "time": 102.142755,
                    "velocity": 0.8188976377952756
                },
                {
                    "duration": 0.11309512500000096,
                    "durationTicks": 114,
                    "midi": 52,
                    "name": "E3",
                    "ticks": 103080,
                    "time": 102.2618025,
                    "velocity": 0.8582677165354331
                },
                {
                    "duration": 0.11309512500001517,
                    "durationTicks": 114,
                    "midi": 40,
                    "name": "E2",
                    "ticks": 103200,
                    "time": 102.38085,
                    "velocity": 0.8188976377952756
                },
                {
                    "duration": 0.11309512500000096,
                    "durationTicks": 114,
                    "midi": 40,
                    "name": "E2",
                    "ticks": 103320,
                    "time": 102.4998975,
                    "velocity": 0.8582677165354331
                },
                {
                    "duration": 0.11309512500001517,
                    "durationTicks": 114,
                    "midi": 52,
                    "name": "E3",
                    "ticks": 103440,
                    "time": 102.618945,
                    "velocity": 0.8188976377952756
                },
                {
                    "duration": 0.11309512500000096,
                    "durationTicks": 114,
                    "midi": 52,
                    "name": "E3",
                    "ticks": 103560,
                    "time": 102.7379925,
                    "velocity": 0.8582677165354331
                },
                {
                    "duration": 0.11309512500001517,
                    "durationTicks": 114,
                    "midi": 47,
                    "name": "B2",
                    "ticks": 103680,
                    "time": 102.85704,
                    "velocity": 0.8582677165354331
                },
                {
                    "duration": 0.11309512500000096,
                    "durationTicks": 114,
                    "midi": 47,
                    "name": "B2",
                    "ticks": 103800,
                    "time": 102.9760875,
                    "velocity": 0.8582677165354331
                },
                {
                    "duration": 0.11309512500000096,
                    "durationTicks": 114,
                    "midi": 59,
                    "name": "B3",
                    "ticks": 103920,
                    "time": 103.095135,
                    "velocity": 0.6220472440944882
                },
                {
                    "duration": 0.11309512500000096,
                    "durationTicks": 114,
                    "midi": 59,
                    "name": "B3",
                    "ticks": 104040,
                    "time": 103.2141825,
                    "velocity": 0.6456692913385826
                },
                {
                    "duration": 0.11309512500000096,
                    "durationTicks": 114,
                    "midi": 47,
                    "name": "B2",
                    "ticks": 104160,
                    "time": 103.33323,
                    "velocity": 0.8188976377952756
                },
                {
                    "duration": 0.11309512500001517,
                    "durationTicks": 114,
                    "midi": 47,
                    "name": "B2",
                    "ticks": 104280,
                    "time": 103.4522775,
                    "velocity": 0.8188976377952756
                },
                {
                    "duration": 0.11309512500000096,
                    "durationTicks": 114,
                    "midi": 59,
                    "name": "B3",
                    "ticks": 104400,
                    "time": 103.571325,
                    "velocity": 0.7401574803149606
                },
                {
                    "duration": 0.11309512500001517,
                    "durationTicks": 114,
                    "midi": 59,
                    "name": "B3",
                    "ticks": 104520,
                    "time": 103.6903725,
                    "velocity": 0.6771653543307087
                },
                {
                    "duration": 0.11309512500000096,
                    "durationTicks": 114,
                    "midi": 47,
                    "name": "B2",
                    "ticks": 104640,
                    "time": 103.80942,
                    "velocity": 0.7401574803149606
                },
                {
                    "duration": 0.11309512500001517,
                    "durationTicks": 114,
                    "midi": 47,
                    "name": "B2",
                    "ticks": 104760,
                    "time": 103.9284675,
                    "velocity": 0.7401574803149606
                },
                {
                    "duration": 0.11309512500000096,
                    "durationTicks": 114,
                    "midi": 59,
                    "name": "B3",
                    "ticks": 104880,
                    "time": 104.047515,
                    "velocity": 0.8188976377952756
                },
                {
                    "duration": 0.11309512500001517,
                    "durationTicks": 114,
                    "midi": 59,
                    "name": "B3",
                    "ticks": 105000,
                    "time": 104.1665625,
                    "velocity": 0.8582677165354331
                },
                {
                    "duration": 0.11309512500000096,
                    "durationTicks": 114,
                    "midi": 47,
                    "name": "B2",
                    "ticks": 105120,
                    "time": 104.28561,
                    "velocity": 0.8188976377952756
                },
                {
                    "duration": 0.11309512500000096,
                    "durationTicks": 114,
                    "midi": 47,
                    "name": "B2",
                    "ticks": 105240,
                    "time": 104.4046575,
                    "velocity": 0.8582677165354331
                },
                {
                    "duration": 0.11309512500000096,
                    "durationTicks": 114,
                    "midi": 59,
                    "name": "B3",
                    "ticks": 105360,
                    "time": 104.523705,
                    "velocity": 0.8188976377952756
                },
                {
                    "duration": 0.11309512500000096,
                    "durationTicks": 114,
                    "midi": 59,
                    "name": "B3",
                    "ticks": 105480,
                    "time": 104.6427525,
                    "velocity": 0.8582677165354331
                },
                {
                    "duration": 0.11309512500000096,
                    "durationTicks": 114,
                    "midi": 42,
                    "name": "F#2",
                    "ticks": 107520,
                    "time": 106.66656,
                    "velocity": 0.8582677165354331
                },
                {
                    "duration": 0.11309512500001517,
                    "durationTicks": 114,
                    "midi": 42,
                    "name": "F#2",
                    "ticks": 107640,
                    "time": 106.7856075,
                    "velocity": 0.8582677165354331
                },
                {
                    "duration": 0.11309512500000096,
                    "durationTicks": 114,
                    "midi": 54,
                    "name": "F#3",
                    "ticks": 107760,
                    "time": 106.904655,
                    "velocity": 0.6220472440944882
                },
                {
                    "duration": 0.11309512500000096,
                    "durationTicks": 114,
                    "midi": 54,
                    "name": "F#3",
                    "ticks": 107880,
                    "time": 107.0237025,
                    "velocity": 0.6456692913385826
                },
                {
                    "duration": 0.11309512500000096,
                    "durationTicks": 114,
                    "midi": 42,
                    "name": "F#2",
                    "ticks": 108000,
                    "time": 107.14275,
                    "velocity": 0.8188976377952756
                },
                {
                    "duration": 0.11309512500000096,
                    "durationTicks": 114,
                    "midi": 42,
                    "name": "F#2",
                    "ticks": 108120,
                    "time": 107.2617975,
                    "velocity": 0.8188976377952756
                },
                {
                    "duration": 0.11309512500001517,
                    "durationTicks": 114,
                    "midi": 54,
                    "name": "F#3",
                    "ticks": 108240,
                    "time": 107.380845,
                    "velocity": 0.7401574803149606
                },
                {
                    "duration": 0.11309512500000096,
                    "durationTicks": 114,
                    "midi": 54,
                    "name": "F#3",
                    "ticks": 108360,
                    "time": 107.4998925,
                    "velocity": 0.6771653543307087
                },
                {
                    "duration": 0.11309512500001517,
                    "durationTicks": 114,
                    "midi": 42,
                    "name": "F#2",
                    "ticks": 108480,
                    "time": 107.61894,
                    "velocity": 0.7401574803149606
                },
                {
                    "duration": 0.11309512500000096,
                    "durationTicks": 114,
                    "midi": 42,
                    "name": "F#2",
                    "ticks": 108600,
                    "time": 107.7379875,
                    "velocity": 0.7401574803149606
                },
                {
                    "duration": 0.11309512500001517,
                    "durationTicks": 114,
                    "midi": 54,
                    "name": "F#3",
                    "ticks": 108720,
                    "time": 107.857035,
                    "velocity": 0.8188976377952756
                },
                {
                    "duration": 0.11309512500000096,
                    "durationTicks": 114,
                    "midi": 54,
                    "name": "F#3",
                    "ticks": 108840,
                    "time": 107.9760825,
                    "velocity": 0.8582677165354331
                },
                {
                    "duration": 0.11309512500001517,
                    "durationTicks": 114,
                    "midi": 42,
                    "name": "F#2",
                    "ticks": 108960,
                    "time": 108.09513,
                    "velocity": 0.8188976377952756
                },
                {
                    "duration": 0.11309512500000096,
                    "durationTicks": 114,
                    "midi": 42,
                    "name": "F#2",
                    "ticks": 109080,
                    "time": 108.2141775,
                    "velocity": 0.8582677165354331
                },
                {
                    "duration": 0.11309512500000096,
                    "durationTicks": 114,
                    "midi": 54,
                    "name": "F#3",
                    "ticks": 109200,
                    "time": 108.333225,
                    "velocity": 0.8188976377952756
                },
                {
                    "duration": 0.11309512500000096,
                    "durationTicks": 114,
                    "midi": 54,
                    "name": "F#3",
                    "ticks": 109320,
                    "time": 108.4522725,
                    "velocity": 0.8582677165354331
                },
                {
                    "duration": 0.11309512500000096,
                    "durationTicks": 114,
                    "midi": 40,
                    "name": "E2",
                    "ticks": 109440,
                    "time": 108.57132,
                    "velocity": 0.8582677165354331
                },
                {
                    "duration": 0.11309512500001517,
                    "durationTicks": 114,
                    "midi": 40,
                    "name": "E2",
                    "ticks": 109560,
                    "time": 108.6903675,
                    "velocity": 0.8582677165354331
                },
                {
                    "duration": 0.11309512500000096,
                    "durationTicks": 114,
                    "midi": 52,
                    "name": "E3",
                    "ticks": 109680,
                    "time": 108.809415,
                    "velocity": 0.6220472440944882
                },
                {
                    "duration": 0.11309512500001517,
                    "durationTicks": 114,
                    "midi": 52,
                    "name": "E3",
                    "ticks": 109800,
                    "time": 108.9284625,
                    "velocity": 0.6456692913385826
                },
                {
                    "duration": 0.11309512500000096,
                    "durationTicks": 114,
                    "midi": 40,
                    "name": "E2",
                    "ticks": 109920,
                    "time": 109.04751,
                    "velocity": 0.8188976377952756
                },
                {
                    "duration": 0.11309512500001517,
                    "durationTicks": 114,
                    "midi": 40,
                    "name": "E2",
                    "ticks": 110040,
                    "time": 109.1665575,
                    "velocity": 0.8188976377952756
                },
                {
                    "duration": 0.11309512500000096,
                    "durationTicks": 114,
                    "midi": 52,
                    "name": "E3",
                    "ticks": 110160,
                    "time": 109.285605,
                    "velocity": 0.7401574803149606
                },
                {
                    "duration": 0.11309512500001517,
                    "durationTicks": 114,
                    "midi": 52,
                    "name": "E3",
                    "ticks": 110280,
                    "time": 109.4046525,
                    "velocity": 0.6771653543307087
                },
                {
                    "duration": 0.11309512500000096,
                    "durationTicks": 114,
                    "midi": 40,
                    "name": "E2",
                    "ticks": 110400,
                    "time": 109.5237,
                    "velocity": 0.7401574803149606
                },
                {
                    "duration": 0.11309512500000096,
                    "durationTicks": 114,
                    "midi": 40,
                    "name": "E2",
                    "ticks": 110520,
                    "time": 109.6427475,
                    "velocity": 0.7401574803149606
                },
                {
                    "duration": 0.11309512500000096,
                    "durationTicks": 114,
                    "midi": 52,
                    "name": "E3",
                    "ticks": 110640,
                    "time": 109.761795,
                    "velocity": 0.8188976377952756
                },
                {
                    "duration": 0.11309512500000096,
                    "durationTicks": 114,
                    "midi": 52,
                    "name": "E3",
                    "ticks": 110760,
                    "time": 109.8808425,
                    "velocity": 0.8582677165354331
                },
                {
                    "duration": 0.11309512500001517,
                    "durationTicks": 114,
                    "midi": 40,
                    "name": "E2",
                    "ticks": 110880,
                    "time": 109.99989,
                    "velocity": 0.8188976377952756
                },
                {
                    "duration": 0.11309512500000096,
                    "durationTicks": 114,
                    "midi": 40,
                    "name": "E2",
                    "ticks": 111000,
                    "time": 110.1189375,
                    "velocity": 0.8582677165354331
                },
                {
                    "duration": 0.11309512500001517,
                    "durationTicks": 114,
                    "midi": 52,
                    "name": "E3",
                    "ticks": 111120,
                    "time": 110.237985,
                    "velocity": 0.8188976377952756
                },
                {
                    "duration": 0.11309512500000096,
                    "durationTicks": 114,
                    "midi": 52,
                    "name": "E3",
                    "ticks": 111240,
                    "time": 110.3570325,
                    "velocity": 0.8582677165354331
                },
                {
                    "duration": 0.11309512500001517,
                    "durationTicks": 114,
                    "midi": 47,
                    "name": "B2",
                    "ticks": 111360,
                    "time": 110.47608,
                    "velocity": 0.8582677165354331
                },
                {
                    "duration": 0.11309512500000096,
                    "durationTicks": 114,
                    "midi": 47,
                    "name": "B2",
                    "ticks": 111480,
                    "time": 110.5951275,
                    "velocity": 0.8582677165354331
                },
                {
                    "duration": 0.11309512500001517,
                    "durationTicks": 114,
                    "midi": 59,
                    "name": "B3",
                    "ticks": 111600,
                    "time": 110.714175,
                    "velocity": 0.6220472440944882
                },
                {
                    "duration": 0.11309512500000096,
                    "durationTicks": 114,
                    "midi": 59,
                    "name": "B3",
                    "ticks": 111720,
                    "time": 110.8332225,
                    "velocity": 0.6456692913385826
                },
                {
                    "duration": 0.11309512500000096,
                    "durationTicks": 114,
                    "midi": 47,
                    "name": "B2",
                    "ticks": 111840,
                    "time": 110.95227,
                    "velocity": 0.8188976377952756
                },
                {
                    "duration": 0.11309512500000096,
                    "durationTicks": 114,
                    "midi": 47,
                    "name": "B2",
                    "ticks": 111960,
                    "time": 111.0713175,
                    "velocity": 0.8188976377952756
                },
                {
                    "duration": 0.11309512500000096,
                    "durationTicks": 114,
                    "midi": 59,
                    "name": "B3",
                    "ticks": 112080,
                    "time": 111.190365,
                    "velocity": 0.7401574803149606
                },
                {
                    "duration": 0.11309512500001517,
                    "durationTicks": 114,
                    "midi": 59,
                    "name": "B3",
                    "ticks": 112200,
                    "time": 111.3094125,
                    "velocity": 0.6771653543307087
                },
                {
                    "duration": 0.11309512500000096,
                    "durationTicks": 114,
                    "midi": 47,
                    "name": "B2",
                    "ticks": 112320,
                    "time": 111.42846,
                    "velocity": 0.7401574803149606
                },
                {
                    "duration": 0.11309512500001517,
                    "durationTicks": 114,
                    "midi": 47,
                    "name": "B2",
                    "ticks": 112440,
                    "time": 111.5475075,
                    "velocity": 0.7401574803149606
                },
                {
                    "duration": 0.11309512500000096,
                    "durationTicks": 114,
                    "midi": 59,
                    "name": "B3",
                    "ticks": 112560,
                    "time": 111.666555,
                    "velocity": 0.8188976377952756
                },
                {
                    "duration": 0.11309512500001517,
                    "durationTicks": 114,
                    "midi": 59,
                    "name": "B3",
                    "ticks": 112680,
                    "time": 111.7856025,
                    "velocity": 0.8582677165354331
                },
                {
                    "duration": 0.11309512500000096,
                    "durationTicks": 114,
                    "midi": 47,
                    "name": "B2",
                    "ticks": 112800,
                    "time": 111.90465,
                    "velocity": 0.8188976377952756
                },
                {
                    "duration": 0.11309512500001517,
                    "durationTicks": 114,
                    "midi": 47,
                    "name": "B2",
                    "ticks": 112920,
                    "time": 112.0236975,
                    "velocity": 0.8582677165354331
                },
                {
                    "duration": 0.11309512500000096,
                    "durationTicks": 114,
                    "midi": 59,
                    "name": "B3",
                    "ticks": 113040,
                    "time": 112.142745,
                    "velocity": 0.8188976377952756
                },
                {
                    "duration": 0.11309512500000096,
                    "durationTicks": 114,
                    "midi": 59,
                    "name": "B3",
                    "ticks": 113160,
                    "time": 112.2617925,
                    "velocity": 0.8582677165354331
                },
                {
                    "duration": 0.11309512500000096,
                    "durationTicks": 114,
                    "midi": 42,
                    "name": "F#2",
                    "ticks": 130560,
                    "time": 129.52368,
                    "velocity": 0.9448818897637795
                },
                {
                    "duration": 0.11309512500000096,
                    "durationTicks": 114,
                    "midi": 42,
                    "name": "F#2",
                    "ticks": 130680,
                    "time": 129.6427275,
                    "velocity": 0.9448818897637795
                },
                {
                    "duration": 0.11309512500000096,
                    "durationTicks": 114,
                    "midi": 54,
                    "name": "F#3",
                    "ticks": 130800,
                    "time": 129.761775,
                    "velocity": 0.7086614173228346
                },
                {
                    "duration": 0.11309512500000096,
                    "durationTicks": 114,
                    "midi": 54,
                    "name": "F#3",
                    "ticks": 130920,
                    "time": 129.8808225,
                    "velocity": 0.7322834645669292
                },
                {
                    "duration": 0.11309512500002938,
                    "durationTicks": 114,
                    "midi": 42,
                    "name": "F#2",
                    "ticks": 131040,
                    "time": 129.99987,
                    "velocity": 0.905511811023622
                },
                {
                    "duration": 0.11309512500000096,
                    "durationTicks": 114,
                    "midi": 42,
                    "name": "F#2",
                    "ticks": 131160,
                    "time": 130.1189175,
                    "velocity": 0.905511811023622
                },
                {
                    "duration": 0.11309512500000096,
                    "durationTicks": 114,
                    "midi": 54,
                    "name": "F#3",
                    "ticks": 131280,
                    "time": 130.237965,
                    "velocity": 0.8267716535433071
                },
                {
                    "duration": 0.11309512500000096,
                    "durationTicks": 114,
                    "midi": 54,
                    "name": "F#3",
                    "ticks": 131400,
                    "time": 130.3570125,
                    "velocity": 0.7637795275590551
                },
                {
                    "duration": 0.11309512500002938,
                    "durationTicks": 114,
                    "midi": 42,
                    "name": "F#2",
                    "ticks": 131520,
                    "time": 130.47606,
                    "velocity": 0.8267716535433071
                },
                {
                    "duration": 0.11309512500000096,
                    "durationTicks": 114,
                    "midi": 42,
                    "name": "F#2",
                    "ticks": 131640,
                    "time": 130.5951075,
                    "velocity": 0.8267716535433071
                },
                {
                    "duration": 0.11309512500000096,
                    "durationTicks": 114,
                    "midi": 54,
                    "name": "F#3",
                    "ticks": 131760,
                    "time": 130.714155,
                    "velocity": 0.905511811023622
                },
                {
                    "duration": 0.11309512500000096,
                    "durationTicks": 114,
                    "midi": 54,
                    "name": "F#3",
                    "ticks": 131880,
                    "time": 130.8332025,
                    "velocity": 0.9448818897637795
                },
                {
                    "duration": 0.11309512500000096,
                    "durationTicks": 114,
                    "midi": 42,
                    "name": "F#2",
                    "ticks": 132000,
                    "time": 130.95225,
                    "velocity": 0.905511811023622
                },
                {
                    "duration": 0.11309512500000096,
                    "durationTicks": 114,
                    "midi": 42,
                    "name": "F#2",
                    "ticks": 132120,
                    "time": 131.07129750000001,
                    "velocity": 0.9448818897637795
                },
                {
                    "duration": 0.11309512500000096,
                    "durationTicks": 114,
                    "midi": 54,
                    "name": "F#3",
                    "ticks": 132240,
                    "time": 131.190345,
                    "velocity": 0.905511811023622
                },
                {
                    "duration": 0.11309512500000096,
                    "durationTicks": 114,
                    "midi": 54,
                    "name": "F#3",
                    "ticks": 132360,
                    "time": 131.3093925,
                    "velocity": 0.9448818897637795
                },
                {
                    "duration": 0.11309512500000096,
                    "durationTicks": 114,
                    "midi": 40,
                    "name": "E2",
                    "ticks": 132480,
                    "time": 131.42844,
                    "velocity": 0.9448818897637795
                },
                {
                    "duration": 0.11309512500002938,
                    "durationTicks": 114,
                    "midi": 40,
                    "name": "E2",
                    "ticks": 132600,
                    "time": 131.5474875,
                    "velocity": 0.9448818897637795
                },
                {
                    "duration": 0.11309512500000096,
                    "durationTicks": 114,
                    "midi": 52,
                    "name": "E3",
                    "ticks": 132720,
                    "time": 131.666535,
                    "velocity": 0.7086614173228346
                },
                {
                    "duration": 0.11309512500000096,
                    "durationTicks": 114,
                    "midi": 52,
                    "name": "E3",
                    "ticks": 132840,
                    "time": 131.7855825,
                    "velocity": 0.7322834645669292
                },
                {
                    "duration": 0.11309512500000096,
                    "durationTicks": 114,
                    "midi": 40,
                    "name": "E2",
                    "ticks": 132960,
                    "time": 131.90463,
                    "velocity": 0.905511811023622
                },
                {
                    "duration": 0.11309512500000096,
                    "durationTicks": 114,
                    "midi": 40,
                    "name": "E2",
                    "ticks": 133080,
                    "time": 132.0236775,
                    "velocity": 0.905511811023622
                },
                {
                    "duration": 0.11309512500000096,
                    "durationTicks": 114,
                    "midi": 52,
                    "name": "E3",
                    "ticks": 133200,
                    "time": 132.142725,
                    "velocity": 0.8267716535433071
                },
                {
                    "duration": 0.11309512500000096,
                    "durationTicks": 114,
                    "midi": 52,
                    "name": "E3",
                    "ticks": 133320,
                    "time": 132.2617725,
                    "velocity": 0.7637795275590551
                },
                {
                    "duration": 0.11309512500000096,
                    "durationTicks": 114,
                    "midi": 40,
                    "name": "E2",
                    "ticks": 133440,
                    "time": 132.38082,
                    "velocity": 0.8267716535433071
                },
                {
                    "duration": 0.11309512500000096,
                    "durationTicks": 114,
                    "midi": 40,
                    "name": "E2",
                    "ticks": 133560,
                    "time": 132.4998675,
                    "velocity": 0.8267716535433071
                },
                {
                    "duration": 0.11309512500002938,
                    "durationTicks": 114,
                    "midi": 52,
                    "name": "E3",
                    "ticks": 133680,
                    "time": 132.618915,
                    "velocity": 0.905511811023622
                },
                {
                    "duration": 0.11309512500000096,
                    "durationTicks": 114,
                    "midi": 52,
                    "name": "E3",
                    "ticks": 133800,
                    "time": 132.7379625,
                    "velocity": 0.9448818897637795
                },
                {
                    "duration": 0.11309512500000096,
                    "durationTicks": 114,
                    "midi": 40,
                    "name": "E2",
                    "ticks": 133920,
                    "time": 132.85701,
                    "velocity": 0.905511811023622
                },
                {
                    "duration": 0.11309512500000096,
                    "durationTicks": 114,
                    "midi": 40,
                    "name": "E2",
                    "ticks": 134040,
                    "time": 132.9760575,
                    "velocity": 0.9448818897637795
                },
                {
                    "duration": 0.11309512500002938,
                    "durationTicks": 114,
                    "midi": 52,
                    "name": "E3",
                    "ticks": 134160,
                    "time": 133.095105,
                    "velocity": 0.905511811023622
                },
                {
                    "duration": 0.11309512500000096,
                    "durationTicks": 114,
                    "midi": 52,
                    "name": "E3",
                    "ticks": 134280,
                    "time": 133.2141525,
                    "velocity": 0.9448818897637795
                },
                {
                    "duration": 0.11309512500000096,
                    "durationTicks": 114,
                    "midi": 47,
                    "name": "B2",
                    "ticks": 134400,
                    "time": 133.3332,
                    "velocity": 0.9448818897637795
                },
                {
                    "duration": 0.11309512500000096,
                    "durationTicks": 114,
                    "midi": 47,
                    "name": "B2",
                    "ticks": 134520,
                    "time": 133.4522475,
                    "velocity": 0.9448818897637795
                },
                {
                    "duration": 0.11309512500000096,
                    "durationTicks": 114,
                    "midi": 59,
                    "name": "B3",
                    "ticks": 134640,
                    "time": 133.571295,
                    "velocity": 0.7086614173228346
                },
                {
                    "duration": 0.11309512500000096,
                    "durationTicks": 114,
                    "midi": 59,
                    "name": "B3",
                    "ticks": 134760,
                    "time": 133.6903425,
                    "velocity": 0.7322834645669292
                },
                {
                    "duration": 0.11309512500000096,
                    "durationTicks": 114,
                    "midi": 47,
                    "name": "B2",
                    "ticks": 134880,
                    "time": 133.80939,
                    "velocity": 0.905511811023622
                },
                {
                    "duration": 0.11309512500000096,
                    "durationTicks": 114,
                    "midi": 47,
                    "name": "B2",
                    "ticks": 135000,
                    "time": 133.9284375,
                    "velocity": 0.905511811023622
                },
                {
                    "duration": 0.11309512500000096,
                    "durationTicks": 114,
                    "midi": 59,
                    "name": "B3",
                    "ticks": 135120,
                    "time": 134.047485,
                    "velocity": 0.8267716535433071
                },
                {
                    "duration": 0.11309512500002938,
                    "durationTicks": 114,
                    "midi": 59,
                    "name": "B3",
                    "ticks": 135240,
                    "time": 134.1665325,
                    "velocity": 0.7637795275590551
                },
                {
                    "duration": 0.11309512500000096,
                    "durationTicks": 114,
                    "midi": 47,
                    "name": "B2",
                    "ticks": 135360,
                    "time": 134.28558,
                    "velocity": 0.8267716535433071
                },
                {
                    "duration": 0.11309512500000096,
                    "durationTicks": 114,
                    "midi": 47,
                    "name": "B2",
                    "ticks": 135480,
                    "time": 134.4046275,
                    "velocity": 0.8267716535433071
                },
                {
                    "duration": 0.11309512500000096,
                    "durationTicks": 114,
                    "midi": 59,
                    "name": "B3",
                    "ticks": 135600,
                    "time": 134.523675,
                    "velocity": 0.905511811023622
                },
                {
                    "duration": 0.11309512500002938,
                    "durationTicks": 114,
                    "midi": 59,
                    "name": "B3",
                    "ticks": 135720,
                    "time": 134.6427225,
                    "velocity": 0.9448818897637795
                },
                {
                    "duration": 0.11309512500000096,
                    "durationTicks": 114,
                    "midi": 47,
                    "name": "B2",
                    "ticks": 135840,
                    "time": 134.76177,
                    "velocity": 0.905511811023622
                },
                {
                    "duration": 0.11309512500000096,
                    "durationTicks": 114,
                    "midi": 47,
                    "name": "B2",
                    "ticks": 135960,
                    "time": 134.8808175,
                    "velocity": 0.9448818897637795
                },
                {
                    "duration": 0.11309512500000096,
                    "durationTicks": 114,
                    "midi": 59,
                    "name": "B3",
                    "ticks": 136080,
                    "time": 134.999865,
                    "velocity": 0.905511811023622
                },
                {
                    "duration": 0.11309512500000096,
                    "durationTicks": 114,
                    "midi": 59,
                    "name": "B3",
                    "ticks": 136200,
                    "time": 135.1189125,
                    "velocity": 0.9448818897637795
                },
                {
                    "duration": 0.11309512500002938,
                    "durationTicks": 114,
                    "midi": 42,
                    "name": "F#2",
                    "ticks": 136320,
                    "time": 135.23796,
                    "velocity": 0.9448818897637795
                },
                {
                    "duration": 0.11309512500000096,
                    "durationTicks": 114,
                    "midi": 42,
                    "name": "F#2",
                    "ticks": 136440,
                    "time": 135.3570075,
                    "velocity": 0.9448818897637795
                },
                {
                    "duration": 0.11309512500000096,
                    "durationTicks": 114,
                    "midi": 54,
                    "name": "F#3",
                    "ticks": 136560,
                    "time": 135.476055,
                    "velocity": 0.7086614173228346
                },
                {
                    "duration": 0.11309512500000096,
                    "durationTicks": 114,
                    "midi": 54,
                    "name": "F#3",
                    "ticks": 136680,
                    "time": 135.5951025,
                    "velocity": 0.7322834645669292
                },
                {
                    "duration": 0.11309512500002938,
                    "durationTicks": 114,
                    "midi": 42,
                    "name": "F#2",
                    "ticks": 136800,
                    "time": 135.71415,
                    "velocity": 0.905511811023622
                },
                {
                    "duration": 0.11309512500000096,
                    "durationTicks": 114,
                    "midi": 42,
                    "name": "F#2",
                    "ticks": 136920,
                    "time": 135.8331975,
                    "velocity": 0.905511811023622
                },
                {
                    "duration": 0.11309512500000096,
                    "durationTicks": 114,
                    "midi": 54,
                    "name": "F#3",
                    "ticks": 137040,
                    "time": 135.952245,
                    "velocity": 0.8267716535433071
                },
                {
                    "duration": 0.11309512500000096,
                    "durationTicks": 114,
                    "midi": 54,
                    "name": "F#3",
                    "ticks": 137160,
                    "time": 136.0712925,
                    "velocity": 0.7637795275590551
                },
                {
                    "duration": 0.11309512500000096,
                    "durationTicks": 114,
                    "midi": 42,
                    "name": "F#2",
                    "ticks": 137280,
                    "time": 136.19034,
                    "velocity": 0.8267716535433071
                },
                {
                    "duration": 0.11309512500000096,
                    "durationTicks": 114,
                    "midi": 42,
                    "name": "F#2",
                    "ticks": 137400,
                    "time": 136.3093875,
                    "velocity": 0.8267716535433071
                },
                {
                    "duration": 0.11309512500000096,
                    "durationTicks": 114,
                    "midi": 54,
                    "name": "F#3",
                    "ticks": 137520,
                    "time": 136.428435,
                    "velocity": 0.905511811023622
                },
                {
                    "duration": 0.11309512500000096,
                    "durationTicks": 114,
                    "midi": 54,
                    "name": "F#3",
                    "ticks": 137640,
                    "time": 136.5474825,
                    "velocity": 0.9448818897637795
                },
                {
                    "duration": 0.11309512500000096,
                    "durationTicks": 114,
                    "midi": 42,
                    "name": "F#2",
                    "ticks": 137760,
                    "time": 136.66653,
                    "velocity": 0.905511811023622
                },
                {
                    "duration": 0.11309512500002938,
                    "durationTicks": 114,
                    "midi": 42,
                    "name": "F#2",
                    "ticks": 137880,
                    "time": 136.7855775,
                    "velocity": 0.9448818897637795
                },
                {
                    "duration": 0.11309512500000096,
                    "durationTicks": 114,
                    "midi": 54,
                    "name": "F#3",
                    "ticks": 138000,
                    "time": 136.904625,
                    "velocity": 0.905511811023622
                },
                {
                    "duration": 0.11309512500000096,
                    "durationTicks": 114,
                    "midi": 54,
                    "name": "F#3",
                    "ticks": 138120,
                    "time": 137.0236725,
                    "velocity": 0.9448818897637795
                },
                {
                    "duration": 0.11309512500000096,
                    "durationTicks": 114,
                    "midi": 42,
                    "name": "F#2",
                    "ticks": 138240,
                    "time": 137.14272,
                    "velocity": 0.9448818897637795
                },
                {
                    "duration": 0.11309512500002938,
                    "durationTicks": 114,
                    "midi": 42,
                    "name": "F#2",
                    "ticks": 138360,
                    "time": 137.2617675,
                    "velocity": 0.9448818897637795
                },
                {
                    "duration": 0.11309512500000096,
                    "durationTicks": 114,
                    "midi": 54,
                    "name": "F#3",
                    "ticks": 138480,
                    "time": 137.380815,
                    "velocity": 0.7086614173228346
                },
                {
                    "duration": 0.11309512500000096,
                    "durationTicks": 114,
                    "midi": 54,
                    "name": "F#3",
                    "ticks": 138600,
                    "time": 137.4998625,
                    "velocity": 0.7322834645669292
                },
                {
                    "duration": 0.11309512500000096,
                    "durationTicks": 114,
                    "midi": 42,
                    "name": "F#2",
                    "ticks": 138720,
                    "time": 137.61891,
                    "velocity": 0.905511811023622
                },
                {
                    "duration": 0.11309512500000096,
                    "durationTicks": 114,
                    "midi": 42,
                    "name": "F#2",
                    "ticks": 138840,
                    "time": 137.7379575,
                    "velocity": 0.905511811023622
                },
                {
                    "duration": 0.11309512500002938,
                    "durationTicks": 114,
                    "midi": 54,
                    "name": "F#3",
                    "ticks": 138960,
                    "time": 137.857005,
                    "velocity": 0.8267716535433071
                },
                {
                    "duration": 0.11309512500000096,
                    "durationTicks": 114,
                    "midi": 54,
                    "name": "F#3",
                    "ticks": 139080,
                    "time": 137.9760525,
                    "velocity": 0.7637795275590551
                },
                {
                    "duration": 0.11309512500000096,
                    "durationTicks": 114,
                    "midi": 42,
                    "name": "F#2",
                    "ticks": 139200,
                    "time": 138.0951,
                    "velocity": 0.8267716535433071
                },
                {
                    "duration": 0.11309512500000096,
                    "durationTicks": 114,
                    "midi": 42,
                    "name": "F#2",
                    "ticks": 139320,
                    "time": 138.2141475,
                    "velocity": 0.8267716535433071
                },
                {
                    "duration": 0.11309512500002938,
                    "durationTicks": 114,
                    "midi": 54,
                    "name": "F#3",
                    "ticks": 139440,
                    "time": 138.333195,
                    "velocity": 0.905511811023622
                },
                {
                    "duration": 0.11309512500000096,
                    "durationTicks": 114,
                    "midi": 54,
                    "name": "F#3",
                    "ticks": 139560,
                    "time": 138.4522425,
                    "velocity": 0.9448818897637795
                },
                {
                    "duration": 0.11309512500000096,
                    "durationTicks": 114,
                    "midi": 42,
                    "name": "F#2",
                    "ticks": 139680,
                    "time": 138.57129,
                    "velocity": 0.905511811023622
                },
                {
                    "duration": 0.11309512500000096,
                    "durationTicks": 114,
                    "midi": 42,
                    "name": "F#2",
                    "ticks": 139800,
                    "time": 138.6903375,
                    "velocity": 0.9448818897637795
                },
                {
                    "duration": 0.11309512500000096,
                    "durationTicks": 114,
                    "midi": 54,
                    "name": "F#3",
                    "ticks": 139920,
                    "time": 138.809385,
                    "velocity": 0.905511811023622
                },
                {
                    "duration": 0.11309512500000096,
                    "durationTicks": 114,
                    "midi": 54,
                    "name": "F#3",
                    "ticks": 140040,
                    "time": 138.9284325,
                    "velocity": 0.9448818897637795
                },
                {
                    "duration": 0.11309512500000096,
                    "durationTicks": 114,
                    "midi": 40,
                    "name": "E2",
                    "ticks": 140160,
                    "time": 139.04748,
                    "velocity": 0.9448818897637795
                },
                {
                    "duration": 0.11309512500000096,
                    "durationTicks": 114,
                    "midi": 40,
                    "name": "E2",
                    "ticks": 140280,
                    "time": 139.1665275,
                    "velocity": 0.9448818897637795
                },
                {
                    "duration": 0.11309512500000096,
                    "durationTicks": 114,
                    "midi": 52,
                    "name": "E3",
                    "ticks": 140400,
                    "time": 139.285575,
                    "velocity": 0.7086614173228346
                },
                {
                    "duration": 0.11309512500002938,
                    "durationTicks": 114,
                    "midi": 52,
                    "name": "E3",
                    "ticks": 140520,
                    "time": 139.4046225,
                    "velocity": 0.7322834645669292
                },
                {
                    "duration": 0.11309512500000096,
                    "durationTicks": 114,
                    "midi": 40,
                    "name": "E2",
                    "ticks": 140640,
                    "time": 139.52367,
                    "velocity": 0.905511811023622
                },
                {
                    "duration": 0.11309512500000096,
                    "durationTicks": 114,
                    "midi": 40,
                    "name": "E2",
                    "ticks": 140760,
                    "time": 139.6427175,
                    "velocity": 0.905511811023622
                },
                {
                    "duration": 0.11309512500000096,
                    "durationTicks": 114,
                    "midi": 52,
                    "name": "E3",
                    "ticks": 140880,
                    "time": 139.761765,
                    "velocity": 0.8267716535433071
                },
                {
                    "duration": 0.11309512500002938,
                    "durationTicks": 114,
                    "midi": 52,
                    "name": "E3",
                    "ticks": 141000,
                    "time": 139.8808125,
                    "velocity": 0.7637795275590551
                },
                {
                    "duration": 0.11309512500000096,
                    "durationTicks": 114,
                    "midi": 40,
                    "name": "E2",
                    "ticks": 141120,
                    "time": 139.99986,
                    "velocity": 0.8267716535433071
                },
                {
                    "duration": 0.11309512500000096,
                    "durationTicks": 114,
                    "midi": 40,
                    "name": "E2",
                    "ticks": 141240,
                    "time": 140.1189075,
                    "velocity": 0.8267716535433071
                },
                {
                    "duration": 0.11309512500000096,
                    "durationTicks": 114,
                    "midi": 52,
                    "name": "E3",
                    "ticks": 141360,
                    "time": 140.237955,
                    "velocity": 0.905511811023622
                },
                {
                    "duration": 0.11309512500000096,
                    "durationTicks": 114,
                    "midi": 52,
                    "name": "E3",
                    "ticks": 141480,
                    "time": 140.3570025,
                    "velocity": 0.9448818897637795
                },
                {
                    "duration": 0.11309512500002938,
                    "durationTicks": 114,
                    "midi": 40,
                    "name": "E2",
                    "ticks": 141600,
                    "time": 140.47605,
                    "velocity": 0.905511811023622
                },
                {
                    "duration": 0.11309512500000096,
                    "durationTicks": 114,
                    "midi": 40,
                    "name": "E2",
                    "ticks": 141720,
                    "time": 140.5950975,
                    "velocity": 0.9448818897637795
                },
                {
                    "duration": 0.11309512500000096,
                    "durationTicks": 114,
                    "midi": 52,
                    "name": "E3",
                    "ticks": 141840,
                    "time": 140.714145,
                    "velocity": 0.905511811023622
                },
                {
                    "duration": 0.11309512500000096,
                    "durationTicks": 114,
                    "midi": 52,
                    "name": "E3",
                    "ticks": 141960,
                    "time": 140.8331925,
                    "velocity": 0.9448818897637795
                },
                {
                    "duration": 0.11309512500002938,
                    "durationTicks": 114,
                    "midi": 47,
                    "name": "B2",
                    "ticks": 142080,
                    "time": 140.95224,
                    "velocity": 0.9448818897637795
                },
                {
                    "duration": 0.11309512500000096,
                    "durationTicks": 114,
                    "midi": 47,
                    "name": "B2",
                    "ticks": 142200,
                    "time": 141.0712875,
                    "velocity": 0.9448818897637795
                },
                {
                    "duration": 0.11309512500000096,
                    "durationTicks": 114,
                    "midi": 59,
                    "name": "B3",
                    "ticks": 142320,
                    "time": 141.190335,
                    "velocity": 0.7086614173228346
                },
                {
                    "duration": 0.11309512500000096,
                    "durationTicks": 114,
                    "midi": 59,
                    "name": "B3",
                    "ticks": 142440,
                    "time": 141.3093825,
                    "velocity": 0.7322834645669292
                },
                {
                    "duration": 0.11309512500000096,
                    "durationTicks": 114,
                    "midi": 47,
                    "name": "B2",
                    "ticks": 142560,
                    "time": 141.42843,
                    "velocity": 0.905511811023622
                },
                {
                    "duration": 0.11309512500000096,
                    "durationTicks": 114,
                    "midi": 47,
                    "name": "B2",
                    "ticks": 142680,
                    "time": 141.5474775,
                    "velocity": 0.905511811023622
                },
                {
                    "duration": 0.11309512500000096,
                    "durationTicks": 114,
                    "midi": 59,
                    "name": "B3",
                    "ticks": 142800,
                    "time": 141.666525,
                    "velocity": 0.8267716535433071
                },
                {
                    "duration": 0.11309512500000096,
                    "durationTicks": 114,
                    "midi": 59,
                    "name": "B3",
                    "ticks": 142920,
                    "time": 141.7855725,
                    "velocity": 0.7637795275590551
                },
                {
                    "duration": 0.11309512500000096,
                    "durationTicks": 114,
                    "midi": 47,
                    "name": "B2",
                    "ticks": 143040,
                    "time": 141.90462,
                    "velocity": 0.8267716535433071
                },
                {
                    "duration": 0.11309512500002938,
                    "durationTicks": 114,
                    "midi": 47,
                    "name": "B2",
                    "ticks": 143160,
                    "time": 142.0236675,
                    "velocity": 0.8267716535433071
                },
                {
                    "duration": 0.11309512500000096,
                    "durationTicks": 114,
                    "midi": 59,
                    "name": "B3",
                    "ticks": 143280,
                    "time": 142.142715,
                    "velocity": 0.905511811023622
                },
                {
                    "duration": 0.11309512500000096,
                    "durationTicks": 114,
                    "midi": 59,
                    "name": "B3",
                    "ticks": 143400,
                    "time": 142.2617625,
                    "velocity": 0.9448818897637795
                },
                {
                    "duration": 0.11309512500000096,
                    "durationTicks": 114,
                    "midi": 47,
                    "name": "B2",
                    "ticks": 143520,
                    "time": 142.38081,
                    "velocity": 0.905511811023622
                },
                {
                    "duration": 0.11309512500002938,
                    "durationTicks": 114,
                    "midi": 47,
                    "name": "B2",
                    "ticks": 143640,
                    "time": 142.4998575,
                    "velocity": 0.9448818897637795
                },
                {
                    "duration": 0.11309512500000096,
                    "durationTicks": 114,
                    "midi": 59,
                    "name": "B3",
                    "ticks": 143760,
                    "time": 142.618905,
                    "velocity": 0.905511811023622
                },
                {
                    "duration": 0.11309512500000096,
                    "durationTicks": 114,
                    "midi": 59,
                    "name": "B3",
                    "ticks": 143880,
                    "time": 142.7379525,
                    "velocity": 0.9448818897637795
                },
                {
                    "duration": 0.11309512500000096,
                    "durationTicks": 114,
                    "midi": 42,
                    "name": "F#2",
                    "ticks": 144000,
                    "time": 142.857,
                    "velocity": 0.9448818897637795
                },
                {
                    "duration": 0.11309512500000096,
                    "durationTicks": 114,
                    "midi": 42,
                    "name": "F#2",
                    "ticks": 144120,
                    "time": 142.9760475,
                    "velocity": 0.9448818897637795
                },
                {
                    "duration": 0.11309512500000096,
                    "durationTicks": 114,
                    "midi": 54,
                    "name": "F#3",
                    "ticks": 144240,
                    "time": 143.09509500000001,
                    "velocity": 0.7086614173228346
                },
                {
                    "duration": 0.11309512500000096,
                    "durationTicks": 114,
                    "midi": 54,
                    "name": "F#3",
                    "ticks": 144360,
                    "time": 143.2141425,
                    "velocity": 0.7322834645669292
                },
                {
                    "duration": 0.11309512500000096,
                    "durationTicks": 114,
                    "midi": 42,
                    "name": "F#2",
                    "ticks": 144480,
                    "time": 143.33319,
                    "velocity": 0.905511811023622
                },
                {
                    "duration": 0.11309512500000096,
                    "durationTicks": 114,
                    "midi": 42,
                    "name": "F#2",
                    "ticks": 144600,
                    "time": 143.4522375,
                    "velocity": 0.905511811023622
                },
                {
                    "duration": 0.11309512500002938,
                    "durationTicks": 114,
                    "midi": 54,
                    "name": "F#3",
                    "ticks": 144720,
                    "time": 143.571285,
                    "velocity": 0.8267716535433071
                },
                {
                    "duration": 0.11309512500000096,
                    "durationTicks": 114,
                    "midi": 54,
                    "name": "F#3",
                    "ticks": 144840,
                    "time": 143.6903325,
                    "velocity": 0.7637795275590551
                },
                {
                    "duration": 0.11309512500000096,
                    "durationTicks": 114,
                    "midi": 42,
                    "name": "F#2",
                    "ticks": 144960,
                    "time": 143.80938,
                    "velocity": 0.8267716535433071
                },
                {
                    "duration": 0.11309512500000096,
                    "durationTicks": 114,
                    "midi": 42,
                    "name": "F#2",
                    "ticks": 145080,
                    "time": 143.9284275,
                    "velocity": 0.8267716535433071
                },
                {
                    "duration": 0.11309512500000096,
                    "durationTicks": 114,
                    "midi": 54,
                    "name": "F#3",
                    "ticks": 145200,
                    "time": 144.047475,
                    "velocity": 0.905511811023622
                },
                {
                    "duration": 0.11309512500000096,
                    "durationTicks": 114,
                    "midi": 54,
                    "name": "F#3",
                    "ticks": 145320,
                    "time": 144.1665225,
                    "velocity": 0.9448818897637795
                },
                {
                    "duration": 0.11309512500000096,
                    "durationTicks": 114,
                    "midi": 42,
                    "name": "F#2",
                    "ticks": 145440,
                    "time": 144.28557,
                    "velocity": 0.905511811023622
                },
                {
                    "duration": 0.11309512500000096,
                    "durationTicks": 114,
                    "midi": 42,
                    "name": "F#2",
                    "ticks": 145560,
                    "time": 144.4046175,
                    "velocity": 0.9448818897637795
                },
                {
                    "duration": 0.11309512500000096,
                    "durationTicks": 114,
                    "midi": 54,
                    "name": "F#3",
                    "ticks": 145680,
                    "time": 144.523665,
                    "velocity": 0.905511811023622
                },
                {
                    "duration": 0.11309512500002938,
                    "durationTicks": 114,
                    "midi": 54,
                    "name": "F#3",
                    "ticks": 145800,
                    "time": 144.6427125,
                    "velocity": 0.9448818897637795
                },
                {
                    "duration": 0.11309512500000096,
                    "durationTicks": 114,
                    "midi": 42,
                    "name": "F#2",
                    "ticks": 145920,
                    "time": 144.76176,
                    "velocity": 0.9448818897637795
                },
                {
                    "duration": 0.11309512500000096,
                    "durationTicks": 114,
                    "midi": 42,
                    "name": "F#2",
                    "ticks": 146040,
                    "time": 144.8808075,
                    "velocity": 0.9448818897637795
                },
                {
                    "duration": 0.11309512500000096,
                    "durationTicks": 114,
                    "midi": 54,
                    "name": "F#3",
                    "ticks": 146160,
                    "time": 144.999855,
                    "velocity": 0.7086614173228346
                },
                {
                    "duration": 0.11309512500002938,
                    "durationTicks": 114,
                    "midi": 54,
                    "name": "F#3",
                    "ticks": 146280,
                    "time": 145.1189025,
                    "velocity": 0.7322834645669292
                },
                {
                    "duration": 0.11309512500000096,
                    "durationTicks": 114,
                    "midi": 42,
                    "name": "F#2",
                    "ticks": 146400,
                    "time": 145.23795,
                    "velocity": 0.905511811023622
                },
                {
                    "duration": 0.11309512500000096,
                    "durationTicks": 114,
                    "midi": 42,
                    "name": "F#2",
                    "ticks": 146520,
                    "time": 145.3569975,
                    "velocity": 0.905511811023622
                },
                {
                    "duration": 0.11309512500000096,
                    "durationTicks": 114,
                    "midi": 54,
                    "name": "F#3",
                    "ticks": 146640,
                    "time": 145.476045,
                    "velocity": 0.8267716535433071
                },
                {
                    "duration": 0.11309512500000096,
                    "durationTicks": 114,
                    "midi": 54,
                    "name": "F#3",
                    "ticks": 146760,
                    "time": 145.5950925,
                    "velocity": 0.7637795275590551
                },
                {
                    "duration": 0.11309512500000096,
                    "durationTicks": 114,
                    "midi": 42,
                    "name": "F#2",
                    "ticks": 146880,
                    "time": 145.71414000000001,
                    "velocity": 0.8267716535433071
                },
                {
                    "duration": 0.11309512500000096,
                    "durationTicks": 114,
                    "midi": 42,
                    "name": "F#2",
                    "ticks": 147000,
                    "time": 145.8331875,
                    "velocity": 0.8267716535433071
                },
                {
                    "duration": 0.11309512500000096,
                    "durationTicks": 114,
                    "midi": 54,
                    "name": "F#3",
                    "ticks": 147120,
                    "time": 145.952235,
                    "velocity": 0.905511811023622
                },
                {
                    "duration": 0.11309512500000096,
                    "durationTicks": 114,
                    "midi": 54,
                    "name": "F#3",
                    "ticks": 147240,
                    "time": 146.0712825,
                    "velocity": 0.9448818897637795
                },
                {
                    "duration": 0.11309512500002938,
                    "durationTicks": 114,
                    "midi": 42,
                    "name": "F#2",
                    "ticks": 147360,
                    "time": 146.19033,
                    "velocity": 0.905511811023622
                },
                {
                    "duration": 0.11309512500000096,
                    "durationTicks": 114,
                    "midi": 42,
                    "name": "F#2",
                    "ticks": 147480,
                    "time": 146.3093775,
                    "velocity": 0.9448818897637795
                },
                {
                    "duration": 0.11309512500000096,
                    "durationTicks": 114,
                    "midi": 54,
                    "name": "F#3",
                    "ticks": 147600,
                    "time": 146.428425,
                    "velocity": 0.905511811023622
                },
                {
                    "duration": 0.11309512500000096,
                    "durationTicks": 114,
                    "midi": 54,
                    "name": "F#3",
                    "ticks": 147720,
                    "time": 146.5474725,
                    "velocity": 0.9448818897637795
                },
                {
                    "duration": 0.11309512500000096,
                    "durationTicks": 114,
                    "midi": 40,
                    "name": "E2",
                    "ticks": 147840,
                    "time": 146.66652,
                    "velocity": 0.9448818897637795
                },
                {
                    "duration": 0.11309512500000096,
                    "durationTicks": 114,
                    "midi": 40,
                    "name": "E2",
                    "ticks": 147960,
                    "time": 146.7855675,
                    "velocity": 0.9448818897637795
                },
                {
                    "duration": 0.11309512500000096,
                    "durationTicks": 114,
                    "midi": 52,
                    "name": "E3",
                    "ticks": 148080,
                    "time": 146.904615,
                    "velocity": 0.7086614173228346
                },
                {
                    "duration": 0.11309512500000096,
                    "durationTicks": 114,
                    "midi": 52,
                    "name": "E3",
                    "ticks": 148200,
                    "time": 147.0236625,
                    "velocity": 0.7322834645669292
                },
                {
                    "duration": 0.11309512500000096,
                    "durationTicks": 114,
                    "midi": 40,
                    "name": "E2",
                    "ticks": 148320,
                    "time": 147.14271,
                    "velocity": 0.905511811023622
                },
                {
                    "duration": 0.11309512500002938,
                    "durationTicks": 114,
                    "midi": 40,
                    "name": "E2",
                    "ticks": 148440,
                    "time": 147.2617575,
                    "velocity": 0.905511811023622
                },
                {
                    "duration": 0.11309512500000096,
                    "durationTicks": 114,
                    "midi": 52,
                    "name": "E3",
                    "ticks": 148560,
                    "time": 147.380805,
                    "velocity": 0.8267716535433071
                },
                {
                    "duration": 0.11309512500000096,
                    "durationTicks": 114,
                    "midi": 52,
                    "name": "E3",
                    "ticks": 148680,
                    "time": 147.4998525,
                    "velocity": 0.7637795275590551
                },
                {
                    "duration": 0.11309512500000096,
                    "durationTicks": 114,
                    "midi": 40,
                    "name": "E2",
                    "ticks": 148800,
                    "time": 147.6189,
                    "velocity": 0.8267716535433071
                },
                {
                    "duration": 0.11309512500002938,
                    "durationTicks": 114,
                    "midi": 40,
                    "name": "E2",
                    "ticks": 148920,
                    "time": 147.7379475,
                    "velocity": 0.8267716535433071
                },
                {
                    "duration": 0.11309512500000096,
                    "durationTicks": 114,
                    "midi": 52,
                    "name": "E3",
                    "ticks": 149040,
                    "time": 147.856995,
                    "velocity": 0.905511811023622
                },
                {
                    "duration": 0.11309512500000096,
                    "durationTicks": 114,
                    "midi": 52,
                    "name": "E3",
                    "ticks": 149160,
                    "time": 147.9760425,
                    "velocity": 0.9448818897637795
                },
                {
                    "duration": 0.11309512500000096,
                    "durationTicks": 114,
                    "midi": 40,
                    "name": "E2",
                    "ticks": 149280,
                    "time": 148.09509,
                    "velocity": 0.905511811023622
                },
                {
                    "duration": 0.11309512500000096,
                    "durationTicks": 114,
                    "midi": 40,
                    "name": "E2",
                    "ticks": 149400,
                    "time": 148.2141375,
                    "velocity": 0.9448818897637795
                },
                {
                    "duration": 0.11309512500000096,
                    "durationTicks": 114,
                    "midi": 52,
                    "name": "E3",
                    "ticks": 149520,
                    "time": 148.33318500000001,
                    "velocity": 0.905511811023622
                },
                {
                    "duration": 0.11309512500000096,
                    "durationTicks": 114,
                    "midi": 52,
                    "name": "E3",
                    "ticks": 149640,
                    "time": 148.4522325,
                    "velocity": 0.9448818897637795
                },
                {
                    "duration": 0.11309512500000096,
                    "durationTicks": 114,
                    "midi": 47,
                    "name": "B2",
                    "ticks": 149760,
                    "time": 148.57128,
                    "velocity": 0.9448818897637795
                },
                {
                    "duration": 0.11309512500000096,
                    "durationTicks": 114,
                    "midi": 47,
                    "name": "B2",
                    "ticks": 149880,
                    "time": 148.6903275,
                    "velocity": 0.9448818897637795
                },
                {
                    "duration": 0.11309512500002938,
                    "durationTicks": 114,
                    "midi": 59,
                    "name": "B3",
                    "ticks": 150000,
                    "time": 148.809375,
                    "velocity": 0.7086614173228346
                },
                {
                    "duration": 0.11309512500000096,
                    "durationTicks": 114,
                    "midi": 59,
                    "name": "B3",
                    "ticks": 150120,
                    "time": 148.9284225,
                    "velocity": 0.7322834645669292
                },
                {
                    "duration": 0.11309512500000096,
                    "durationTicks": 114,
                    "midi": 47,
                    "name": "B2",
                    "ticks": 150240,
                    "time": 149.04747,
                    "velocity": 0.905511811023622
                },
                {
                    "duration": 0.11309512500000096,
                    "durationTicks": 114,
                    "midi": 47,
                    "name": "B2",
                    "ticks": 150360,
                    "time": 149.1665175,
                    "velocity": 0.905511811023622
                },
                {
                    "duration": 0.11309512500000096,
                    "durationTicks": 114,
                    "midi": 59,
                    "name": "B3",
                    "ticks": 150480,
                    "time": 149.285565,
                    "velocity": 0.8267716535433071
                },
                {
                    "duration": 0.11309512500000096,
                    "durationTicks": 114,
                    "midi": 59,
                    "name": "B3",
                    "ticks": 150600,
                    "time": 149.4046125,
                    "velocity": 0.7637795275590551
                },
                {
                    "duration": 0.11309512500000096,
                    "durationTicks": 114,
                    "midi": 47,
                    "name": "B2",
                    "ticks": 150720,
                    "time": 149.52366,
                    "velocity": 0.8267716535433071
                },
                {
                    "duration": 0.11309512500000096,
                    "durationTicks": 114,
                    "midi": 47,
                    "name": "B2",
                    "ticks": 150840,
                    "time": 149.6427075,
                    "velocity": 0.8267716535433071
                },
                {
                    "duration": 0.11309512500000096,
                    "durationTicks": 114,
                    "midi": 59,
                    "name": "B3",
                    "ticks": 150960,
                    "time": 149.761755,
                    "velocity": 0.905511811023622
                },
                {
                    "duration": 0.11309512500002938,
                    "durationTicks": 114,
                    "midi": 59,
                    "name": "B3",
                    "ticks": 151080,
                    "time": 149.8808025,
                    "velocity": 0.9448818897637795
                },
                {
                    "duration": 0.11309512500000096,
                    "durationTicks": 114,
                    "midi": 47,
                    "name": "B2",
                    "ticks": 151200,
                    "time": 149.99985,
                    "velocity": 0.905511811023622
                },
                {
                    "duration": 0.11309512500000096,
                    "durationTicks": 114,
                    "midi": 47,
                    "name": "B2",
                    "ticks": 151320,
                    "time": 150.1188975,
                    "velocity": 0.9448818897637795
                },
                {
                    "duration": 0.11309512500000096,
                    "durationTicks": 114,
                    "midi": 59,
                    "name": "B3",
                    "ticks": 151440,
                    "time": 150.237945,
                    "velocity": 0.905511811023622
                },
                {
                    "duration": 0.11309512500002938,
                    "durationTicks": 114,
                    "midi": 59,
                    "name": "B3",
                    "ticks": 151560,
                    "time": 150.3569925,
                    "velocity": 0.9448818897637795
                },
                {
                    "duration": 0.11309512500000096,
                    "durationTicks": 114,
                    "midi": 42,
                    "name": "F#2",
                    "ticks": 151680,
                    "time": 150.47604,
                    "velocity": 0.9448818897637795
                },
                {
                    "duration": 0.11309512500000096,
                    "durationTicks": 114,
                    "midi": 42,
                    "name": "F#2",
                    "ticks": 151800,
                    "time": 150.5950875,
                    "velocity": 0.9448818897637795
                },
                {
                    "duration": 0.11309512500000096,
                    "durationTicks": 114,
                    "midi": 54,
                    "name": "F#3",
                    "ticks": 151920,
                    "time": 150.714135,
                    "velocity": 0.7086614173228346
                },
                {
                    "duration": 0.11309512500000096,
                    "durationTicks": 114,
                    "midi": 54,
                    "name": "F#3",
                    "ticks": 152040,
                    "time": 150.8331825,
                    "velocity": 0.7322834645669292
                },
                {
                    "duration": 0.11309512500000096,
                    "durationTicks": 114,
                    "midi": 42,
                    "name": "F#2",
                    "ticks": 152160,
                    "time": 150.95223000000001,
                    "velocity": 0.905511811023622
                },
                {
                    "duration": 0.11309512500000096,
                    "durationTicks": 114,
                    "midi": 42,
                    "name": "F#2",
                    "ticks": 152280,
                    "time": 151.0712775,
                    "velocity": 0.905511811023622
                },
                {
                    "duration": 0.11309512500000096,
                    "durationTicks": 114,
                    "midi": 54,
                    "name": "F#3",
                    "ticks": 152400,
                    "time": 151.190325,
                    "velocity": 0.8267716535433071
                },
                {
                    "duration": 0.11309512500000096,
                    "durationTicks": 114,
                    "midi": 54,
                    "name": "F#3",
                    "ticks": 152520,
                    "time": 151.3093725,
                    "velocity": 0.7637795275590551
                },
                {
                    "duration": 0.11309512500002938,
                    "durationTicks": 114,
                    "midi": 42,
                    "name": "F#2",
                    "ticks": 152640,
                    "time": 151.42842,
                    "velocity": 0.8267716535433071
                },
                {
                    "duration": 0.11309512500000096,
                    "durationTicks": 114,
                    "midi": 42,
                    "name": "F#2",
                    "ticks": 152760,
                    "time": 151.5474675,
                    "velocity": 0.8267716535433071
                },
                {
                    "duration": 0.11309512500000096,
                    "durationTicks": 114,
                    "midi": 54,
                    "name": "F#3",
                    "ticks": 152880,
                    "time": 151.666515,
                    "velocity": 0.905511811023622
                },
                {
                    "duration": 0.11309512500000096,
                    "durationTicks": 114,
                    "midi": 54,
                    "name": "F#3",
                    "ticks": 153000,
                    "time": 151.7855625,
                    "velocity": 0.9448818897637795
                },
                {
                    "duration": 0.11309512500000096,
                    "durationTicks": 114,
                    "midi": 42,
                    "name": "F#2",
                    "ticks": 153120,
                    "time": 151.90461,
                    "velocity": 0.905511811023622
                },
                {
                    "duration": 0.11309512500000096,
                    "durationTicks": 114,
                    "midi": 42,
                    "name": "F#2",
                    "ticks": 153240,
                    "time": 152.0236575,
                    "velocity": 0.9448818897637795
                },
                {
                    "duration": 0.11309512500000096,
                    "durationTicks": 114,
                    "midi": 54,
                    "name": "F#3",
                    "ticks": 153360,
                    "time": 152.142705,
                    "velocity": 0.905511811023622
                },
                {
                    "duration": 0.11309512500000096,
                    "durationTicks": 114,
                    "midi": 54,
                    "name": "F#3",
                    "ticks": 153480,
                    "time": 152.2617525,
                    "velocity": 0.9448818897637795
                },
                {
                    "duration": 0.11309512500000096,
                    "durationTicks": 114,
                    "midi": 42,
                    "name": "F#2",
                    "ticks": 153600,
                    "time": 152.3808,
                    "velocity": 0.9448818897637795
                },
                {
                    "duration": 0.11309512500002938,
                    "durationTicks": 114,
                    "midi": 42,
                    "name": "F#2",
                    "ticks": 153720,
                    "time": 152.4998475,
                    "velocity": 0.9448818897637795
                },
                {
                    "duration": 0.11309512500000096,
                    "durationTicks": 114,
                    "midi": 54,
                    "name": "F#3",
                    "ticks": 153840,
                    "time": 152.618895,
                    "velocity": 0.7086614173228346
                },
                {
                    "duration": 0.11309512500000096,
                    "durationTicks": 114,
                    "midi": 54,
                    "name": "F#3",
                    "ticks": 153960,
                    "time": 152.7379425,
                    "velocity": 0.7322834645669292
                },
                {
                    "duration": 0.11309512500000096,
                    "durationTicks": 114,
                    "midi": 42,
                    "name": "F#2",
                    "ticks": 154080,
                    "time": 152.85699,
                    "velocity": 0.905511811023622
                },
                {
                    "duration": 0.11309512500002938,
                    "durationTicks": 114,
                    "midi": 42,
                    "name": "F#2",
                    "ticks": 154200,
                    "time": 152.9760375,
                    "velocity": 0.905511811023622
                },
                {
                    "duration": 0.11309512500000096,
                    "durationTicks": 114,
                    "midi": 54,
                    "name": "F#3",
                    "ticks": 154320,
                    "time": 153.095085,
                    "velocity": 0.8267716535433071
                },
                {
                    "duration": 0.11309512500000096,
                    "durationTicks": 114,
                    "midi": 54,
                    "name": "F#3",
                    "ticks": 154440,
                    "time": 153.2141325,
                    "velocity": 0.7637795275590551
                },
                {
                    "duration": 0.11309512500000096,
                    "durationTicks": 114,
                    "midi": 42,
                    "name": "F#2",
                    "ticks": 154560,
                    "time": 153.33318,
                    "velocity": 0.8267716535433071
                },
                {
                    "duration": 0.11309512500000096,
                    "durationTicks": 114,
                    "midi": 42,
                    "name": "F#2",
                    "ticks": 154680,
                    "time": 153.4522275,
                    "velocity": 0.8267716535433071
                },
                {
                    "duration": 0.11309512500000096,
                    "durationTicks": 114,
                    "midi": 54,
                    "name": "F#3",
                    "ticks": 154800,
                    "time": 153.571275,
                    "velocity": 0.905511811023622
                },
                {
                    "duration": 0.11309512500000096,
                    "durationTicks": 114,
                    "midi": 54,
                    "name": "F#3",
                    "ticks": 154920,
                    "time": 153.6903225,
                    "velocity": 0.9448818897637795
                },
                {
                    "duration": 0.11309512500000096,
                    "durationTicks": 114,
                    "midi": 42,
                    "name": "F#2",
                    "ticks": 155040,
                    "time": 153.80937,
                    "velocity": 0.905511811023622
                },
                {
                    "duration": 0.11309512500000096,
                    "durationTicks": 114,
                    "midi": 42,
                    "name": "F#2",
                    "ticks": 155160,
                    "time": 153.9284175,
                    "velocity": 0.9448818897637795
                },
                {
                    "duration": 0.11309512500002938,
                    "durationTicks": 114,
                    "midi": 54,
                    "name": "F#3",
                    "ticks": 155280,
                    "time": 154.047465,
                    "velocity": 0.905511811023622
                },
                {
                    "duration": 0.11309512500000096,
                    "durationTicks": 114,
                    "midi": 54,
                    "name": "F#3",
                    "ticks": 155400,
                    "time": 154.1665125,
                    "velocity": 0.9448818897637795
                },
                {
                    "duration": 0.11309512500000096,
                    "durationTicks": 114,
                    "midi": 40,
                    "name": "E2",
                    "ticks": 155520,
                    "time": 154.28556,
                    "velocity": 0.9448818897637795
                },
                {
                    "duration": 0.11309512500000096,
                    "durationTicks": 114,
                    "midi": 40,
                    "name": "E2",
                    "ticks": 155640,
                    "time": 154.4046075,
                    "velocity": 0.9448818897637795
                },
                {
                    "duration": 0.11309512500002938,
                    "durationTicks": 114,
                    "midi": 52,
                    "name": "E3",
                    "ticks": 155760,
                    "time": 154.523655,
                    "velocity": 0.7086614173228346
                },
                {
                    "duration": 0.11309512500000096,
                    "durationTicks": 114,
                    "midi": 52,
                    "name": "E3",
                    "ticks": 155880,
                    "time": 154.6427025,
                    "velocity": 0.7322834645669292
                },
                {
                    "duration": 0.11309512500000096,
                    "durationTicks": 114,
                    "midi": 40,
                    "name": "E2",
                    "ticks": 156000,
                    "time": 154.76175,
                    "velocity": 0.905511811023622
                },
                {
                    "duration": 0.11309512500000096,
                    "durationTicks": 114,
                    "midi": 40,
                    "name": "E2",
                    "ticks": 156120,
                    "time": 154.8807975,
                    "velocity": 0.905511811023622
                },
                {
                    "duration": 0.11309512500000096,
                    "durationTicks": 114,
                    "midi": 52,
                    "name": "E3",
                    "ticks": 156240,
                    "time": 154.999845,
                    "velocity": 0.8267716535433071
                },
                {
                    "duration": 0.11309512500002938,
                    "durationTicks": 114,
                    "midi": 52,
                    "name": "E3",
                    "ticks": 156360,
                    "time": 155.1188925,
                    "velocity": 0.7637795275590551
                },
                {
                    "duration": 0.11309512500000096,
                    "durationTicks": 114,
                    "midi": 40,
                    "name": "E2",
                    "ticks": 156480,
                    "time": 155.23794,
                    "velocity": 0.8267716535433071
                },
                {
                    "duration": 0.11309512500000096,
                    "durationTicks": 114,
                    "midi": 40,
                    "name": "E2",
                    "ticks": 156600,
                    "time": 155.3569875,
                    "velocity": 0.8267716535433071
                },
                {
                    "duration": 0.11309512500000096,
                    "durationTicks": 114,
                    "midi": 52,
                    "name": "E3",
                    "ticks": 156720,
                    "time": 155.476035,
                    "velocity": 0.905511811023622
                },
                {
                    "duration": 0.11309512500002938,
                    "durationTicks": 114,
                    "midi": 52,
                    "name": "E3",
                    "ticks": 156840,
                    "time": 155.5950825,
                    "velocity": 0.9448818897637795
                },
                {
                    "duration": 0.11309512500000096,
                    "durationTicks": 114,
                    "midi": 40,
                    "name": "E2",
                    "ticks": 156960,
                    "time": 155.71413,
                    "velocity": 0.905511811023622
                },
                {
                    "duration": 0.11309512500000096,
                    "durationTicks": 114,
                    "midi": 40,
                    "name": "E2",
                    "ticks": 157080,
                    "time": 155.8331775,
                    "velocity": 0.9448818897637795
                },
                {
                    "duration": 0.11309512500000096,
                    "durationTicks": 114,
                    "midi": 52,
                    "name": "E3",
                    "ticks": 157200,
                    "time": 155.952225,
                    "velocity": 0.905511811023622
                },
                {
                    "duration": 0.11309512500000096,
                    "durationTicks": 114,
                    "midi": 52,
                    "name": "E3",
                    "ticks": 157320,
                    "time": 156.0712725,
                    "velocity": 0.9448818897637795
                },
                {
                    "duration": 0.11309512500000096,
                    "durationTicks": 114,
                    "midi": 47,
                    "name": "B2",
                    "ticks": 157440,
                    "time": 156.19032,
                    "velocity": 0.9448818897637795
                },
                {
                    "duration": 0.11309512500000096,
                    "durationTicks": 114,
                    "midi": 47,
                    "name": "B2",
                    "ticks": 157560,
                    "time": 156.3093675,
                    "velocity": 0.9448818897637795
                },
                {
                    "duration": 0.11309512500000096,
                    "durationTicks": 114,
                    "midi": 59,
                    "name": "B3",
                    "ticks": 157680,
                    "time": 156.428415,
                    "velocity": 0.7086614173228346
                },
                {
                    "duration": 0.11309512500000096,
                    "durationTicks": 114,
                    "midi": 59,
                    "name": "B3",
                    "ticks": 157800,
                    "time": 156.5474625,
                    "velocity": 0.7322834645669292
                },
                {
                    "duration": 0.11309512500002938,
                    "durationTicks": 114,
                    "midi": 47,
                    "name": "B2",
                    "ticks": 157920,
                    "time": 156.66651,
                    "velocity": 0.905511811023622
                },
                {
                    "duration": 0.11309512500000096,
                    "durationTicks": 114,
                    "midi": 47,
                    "name": "B2",
                    "ticks": 158040,
                    "time": 156.7855575,
                    "velocity": 0.905511811023622
                },
                {
                    "duration": 0.11309512500000096,
                    "durationTicks": 114,
                    "midi": 59,
                    "name": "B3",
                    "ticks": 158160,
                    "time": 156.904605,
                    "velocity": 0.8267716535433071
                },
                {
                    "duration": 0.11309512500000096,
                    "durationTicks": 114,
                    "midi": 59,
                    "name": "B3",
                    "ticks": 158280,
                    "time": 157.0236525,
                    "velocity": 0.7637795275590551
                },
                {
                    "duration": 0.11309512500002938,
                    "durationTicks": 114,
                    "midi": 47,
                    "name": "B2",
                    "ticks": 158400,
                    "time": 157.1427,
                    "velocity": 0.8267716535433071
                },
                {
                    "duration": 0.11309512500000096,
                    "durationTicks": 114,
                    "midi": 47,
                    "name": "B2",
                    "ticks": 158520,
                    "time": 157.2617475,
                    "velocity": 0.8267716535433071
                },
                {
                    "duration": 0.11309512500000096,
                    "durationTicks": 114,
                    "midi": 59,
                    "name": "B3",
                    "ticks": 158640,
                    "time": 157.380795,
                    "velocity": 0.905511811023622
                },
                {
                    "duration": 0.11309512500000096,
                    "durationTicks": 114,
                    "midi": 59,
                    "name": "B3",
                    "ticks": 158760,
                    "time": 157.4998425,
                    "velocity": 0.9448818897637795
                },
                {
                    "duration": 0.11309512500000096,
                    "durationTicks": 114,
                    "midi": 47,
                    "name": "B2",
                    "ticks": 158880,
                    "time": 157.61889,
                    "velocity": 0.905511811023622
                },
                {
                    "duration": 0.11309512500002938,
                    "durationTicks": 114,
                    "midi": 47,
                    "name": "B2",
                    "ticks": 159000,
                    "time": 157.7379375,
                    "velocity": 0.9448818897637795
                },
                {
                    "duration": 0.11309512500000096,
                    "durationTicks": 114,
                    "midi": 59,
                    "name": "B3",
                    "ticks": 159120,
                    "time": 157.856985,
                    "velocity": 0.905511811023622
                },
                {
                    "duration": 0.11309512500000096,
                    "durationTicks": 114,
                    "midi": 59,
                    "name": "B3",
                    "ticks": 159240,
                    "time": 157.9760325,
                    "velocity": 0.9448818897637795
                },
                {
                    "duration": 0.11309512500000096,
                    "durationTicks": 114,
                    "midi": 42,
                    "name": "F#2",
                    "ticks": 159360,
                    "time": 158.09508,
                    "velocity": 0.9448818897637795
                },
                {
                    "duration": 0.11309512500002938,
                    "durationTicks": 114,
                    "midi": 42,
                    "name": "F#2",
                    "ticks": 159480,
                    "time": 158.2141275,
                    "velocity": 0.9448818897637795
                },
                {
                    "duration": 0.11309512500000096,
                    "durationTicks": 114,
                    "midi": 54,
                    "name": "F#3",
                    "ticks": 159600,
                    "time": 158.333175,
                    "velocity": 0.7086614173228346
                },
                {
                    "duration": 0.11309512500000096,
                    "durationTicks": 114,
                    "midi": 54,
                    "name": "F#3",
                    "ticks": 159720,
                    "time": 158.4522225,
                    "velocity": 0.7322834645669292
                },
                {
                    "duration": 0.11309512500000096,
                    "durationTicks": 114,
                    "midi": 42,
                    "name": "F#2",
                    "ticks": 159840,
                    "time": 158.57127,
                    "velocity": 0.905511811023622
                },
                {
                    "duration": 0.11309512500000096,
                    "durationTicks": 114,
                    "midi": 42,
                    "name": "F#2",
                    "ticks": 159960,
                    "time": 158.6903175,
                    "velocity": 0.905511811023622
                },
                {
                    "duration": 0.11309512500000096,
                    "durationTicks": 114,
                    "midi": 54,
                    "name": "F#3",
                    "ticks": 160080,
                    "time": 158.809365,
                    "velocity": 0.8267716535433071
                },
                {
                    "duration": 0.11309512500000096,
                    "durationTicks": 114,
                    "midi": 54,
                    "name": "F#3",
                    "ticks": 160200,
                    "time": 158.9284125,
                    "velocity": 0.7637795275590551
                },
                {
                    "duration": 0.11309512500000096,
                    "durationTicks": 114,
                    "midi": 42,
                    "name": "F#2",
                    "ticks": 160320,
                    "time": 159.04746,
                    "velocity": 0.8267716535433071
                },
                {
                    "duration": 0.11309512500000096,
                    "durationTicks": 114,
                    "midi": 42,
                    "name": "F#2",
                    "ticks": 160440,
                    "time": 159.1665075,
                    "velocity": 0.8267716535433071
                },
                {
                    "duration": 0.11309512500002938,
                    "durationTicks": 114,
                    "midi": 54,
                    "name": "F#3",
                    "ticks": 160560,
                    "time": 159.285555,
                    "velocity": 0.905511811023622
                },
                {
                    "duration": 0.11309512500000096,
                    "durationTicks": 114,
                    "midi": 54,
                    "name": "F#3",
                    "ticks": 160680,
                    "time": 159.4046025,
                    "velocity": 0.9448818897637795
                },
                {
                    "duration": 0.11309512500000096,
                    "durationTicks": 114,
                    "midi": 42,
                    "name": "F#2",
                    "ticks": 160800,
                    "time": 159.52365,
                    "velocity": 0.905511811023622
                },
                {
                    "duration": 0.11309512500000096,
                    "durationTicks": 114,
                    "midi": 42,
                    "name": "F#2",
                    "ticks": 160920,
                    "time": 159.6426975,
                    "velocity": 0.9448818897637795
                },
                {
                    "duration": 0.11309512500002938,
                    "durationTicks": 114,
                    "midi": 54,
                    "name": "F#3",
                    "ticks": 161040,
                    "time": 159.761745,
                    "velocity": 0.905511811023622
                },
                {
                    "duration": 0.11309512500000096,
                    "durationTicks": 114,
                    "midi": 54,
                    "name": "F#3",
                    "ticks": 161160,
                    "time": 159.8807925,
                    "velocity": 0.9448818897637795
                },
                {
                    "duration": 0.11309512500000096,
                    "durationTicks": 114,
                    "midi": 54,
                    "name": "F#3",
                    "ticks": 175680,
                    "time": 174.28554,
                    "velocity": 0.8740157480314961
                },
                {
                    "duration": 0.11309512500002938,
                    "durationTicks": 114,
                    "midi": 54,
                    "name": "F#3",
                    "ticks": 175800,
                    "time": 174.4045875,
                    "velocity": 0.7007874015748031
                },
                {
                    "duration": 0.11309512500000096,
                    "durationTicks": 114,
                    "midi": 54,
                    "name": "F#3",
                    "ticks": 175920,
                    "time": 174.523635,
                    "velocity": 0.7007874015748031
                },
                {
                    "duration": 0.11309512500000096,
                    "durationTicks": 114,
                    "midi": 54,
                    "name": "F#3",
                    "ticks": 176040,
                    "time": 174.6426825,
                    "velocity": 0.8740157480314961
                },
                {
                    "duration": 0.11309512500000096,
                    "durationTicks": 114,
                    "midi": 54,
                    "name": "F#3",
                    "ticks": 176160,
                    "time": 174.76173,
                    "velocity": 0.8740157480314961
                },
                {
                    "duration": 0.11309512500000096,
                    "durationTicks": 114,
                    "midi": 54,
                    "name": "F#3",
                    "ticks": 176280,
                    "time": 174.8807775,
                    "velocity": 0.6377952755905512
                },
                {
                    "duration": 0.11309512500002938,
                    "durationTicks": 114,
                    "midi": 54,
                    "name": "F#3",
                    "ticks": 176400,
                    "time": 174.999825,
                    "velocity": 0.7007874015748031
                },
                {
                    "duration": 0.11309512500000096,
                    "durationTicks": 114,
                    "midi": 54,
                    "name": "F#3",
                    "ticks": 176520,
                    "time": 175.1188725,
                    "velocity": 0.7322834645669292
                },
                {
                    "duration": 0.11309512500000096,
                    "durationTicks": 114,
                    "midi": 42,
                    "name": "F#2",
                    "ticks": 176640,
                    "time": 175.23792,
                    "velocity": 0.9448818897637795
                },
                {
                    "duration": 0.11309512500000096,
                    "durationTicks": 114,
                    "midi": 42,
                    "name": "F#2",
                    "ticks": 176760,
                    "time": 175.3569675,
                    "velocity": 0.9448818897637795
                },
                {
                    "duration": 0.11309512500002938,
                    "durationTicks": 114,
                    "midi": 54,
                    "name": "F#3",
                    "ticks": 176880,
                    "time": 175.476015,
                    "velocity": 0.7086614173228346
                },
                {
                    "duration": 0.11309512500000096,
                    "durationTicks": 114,
                    "midi": 54,
                    "name": "F#3",
                    "ticks": 177000,
                    "time": 175.5950625,
                    "velocity": 0.7322834645669292
                },
                {
                    "duration": 0.11309512500000096,
                    "durationTicks": 114,
                    "midi": 42,
                    "name": "F#2",
                    "ticks": 177120,
                    "time": 175.71411,
                    "velocity": 0.905511811023622
                },
                {
                    "duration": 0.11309512500000096,
                    "durationTicks": 114,
                    "midi": 42,
                    "name": "F#2",
                    "ticks": 177240,
                    "time": 175.8331575,
                    "velocity": 0.905511811023622
                },
                {
                    "duration": 0.11309512500000096,
                    "durationTicks": 114,
                    "midi": 54,
                    "name": "F#3",
                    "ticks": 177360,
                    "time": 175.952205,
                    "velocity": 0.8267716535433071
                },
                {
                    "duration": 0.11309512500000096,
                    "durationTicks": 114,
                    "midi": 54,
                    "name": "F#3",
                    "ticks": 177480,
                    "time": 176.0712525,
                    "velocity": 0.7637795275590551
                },
                {
                    "duration": 0.11309512500000096,
                    "durationTicks": 114,
                    "midi": 42,
                    "name": "F#2",
                    "ticks": 177600,
                    "time": 176.1903,
                    "velocity": 0.8267716535433071
                },
                {
                    "duration": 0.11309512500000096,
                    "durationTicks": 114,
                    "midi": 42,
                    "name": "F#2",
                    "ticks": 177720,
                    "time": 176.3093475,
                    "velocity": 0.8267716535433071
                },
                {
                    "duration": 0.11309512500000096,
                    "durationTicks": 114,
                    "midi": 54,
                    "name": "F#3",
                    "ticks": 177840,
                    "time": 176.428395,
                    "velocity": 0.905511811023622
                },
                {
                    "duration": 0.11309512500002938,
                    "durationTicks": 114,
                    "midi": 54,
                    "name": "F#3",
                    "ticks": 177960,
                    "time": 176.5474425,
                    "velocity": 0.9448818897637795
                },
                {
                    "duration": 0.11309512500000096,
                    "durationTicks": 114,
                    "midi": 42,
                    "name": "F#2",
                    "ticks": 178080,
                    "time": 176.66649,
                    "velocity": 0.905511811023622
                },
                {
                    "duration": 0.11309512500000096,
                    "durationTicks": 114,
                    "midi": 42,
                    "name": "F#2",
                    "ticks": 178200,
                    "time": 176.7855375,
                    "velocity": 0.9448818897637795
                },
                {
                    "duration": 0.11309512500000096,
                    "durationTicks": 114,
                    "midi": 54,
                    "name": "F#3",
                    "ticks": 178320,
                    "time": 176.904585,
                    "velocity": 0.905511811023622
                },
                {
                    "duration": 0.11309512500002938,
                    "durationTicks": 114,
                    "midi": 54,
                    "name": "F#3",
                    "ticks": 178440,
                    "time": 177.0236325,
                    "velocity": 0.9448818897637795
                },
                {
                    "duration": 0.11309512500000096,
                    "durationTicks": 114,
                    "midi": 42,
                    "name": "F#2",
                    "ticks": 178560,
                    "time": 177.14268,
                    "velocity": 0.9448818897637795
                },
                {
                    "duration": 0.11309512500000096,
                    "durationTicks": 114,
                    "midi": 42,
                    "name": "F#2",
                    "ticks": 178680,
                    "time": 177.2617275,
                    "velocity": 0.9448818897637795
                },
                {
                    "duration": 0.11309512500000096,
                    "durationTicks": 114,
                    "midi": 54,
                    "name": "F#3",
                    "ticks": 178800,
                    "time": 177.380775,
                    "velocity": 0.7086614173228346
                },
                {
                    "duration": 0.11309512500000096,
                    "durationTicks": 114,
                    "midi": 54,
                    "name": "F#3",
                    "ticks": 178920,
                    "time": 177.4998225,
                    "velocity": 0.7322834645669292
                },
                {
                    "duration": 0.11309512500002938,
                    "durationTicks": 114,
                    "midi": 42,
                    "name": "F#2",
                    "ticks": 179040,
                    "time": 177.61887,
                    "velocity": 0.905511811023622
                },
                {
                    "duration": 0.11309512500000096,
                    "durationTicks": 114,
                    "midi": 42,
                    "name": "F#2",
                    "ticks": 179160,
                    "time": 177.7379175,
                    "velocity": 0.905511811023622
                },
                {
                    "duration": 0.11309512500000096,
                    "durationTicks": 114,
                    "midi": 54,
                    "name": "F#3",
                    "ticks": 179280,
                    "time": 177.856965,
                    "velocity": 0.8267716535433071
                },
                {
                    "duration": 0.11309512500000096,
                    "durationTicks": 114,
                    "midi": 54,
                    "name": "F#3",
                    "ticks": 179400,
                    "time": 177.9760125,
                    "velocity": 0.7637795275590551
                },
                {
                    "duration": 0.11309512500002938,
                    "durationTicks": 114,
                    "midi": 42,
                    "name": "F#2",
                    "ticks": 179520,
                    "time": 178.09506,
                    "velocity": 0.8267716535433071
                },
                {
                    "duration": 0.11309512500000096,
                    "durationTicks": 114,
                    "midi": 42,
                    "name": "F#2",
                    "ticks": 179640,
                    "time": 178.2141075,
                    "velocity": 0.8267716535433071
                },
                {
                    "duration": 0.11309512500000096,
                    "durationTicks": 114,
                    "midi": 54,
                    "name": "F#3",
                    "ticks": 179760,
                    "time": 178.333155,
                    "velocity": 0.905511811023622
                },
                {
                    "duration": 0.11309512500000096,
                    "durationTicks": 114,
                    "midi": 54,
                    "name": "F#3",
                    "ticks": 179880,
                    "time": 178.4522025,
                    "velocity": 0.9448818897637795
                },
                {
                    "duration": 0.11309512500000096,
                    "durationTicks": 114,
                    "midi": 42,
                    "name": "F#2",
                    "ticks": 180000,
                    "time": 178.57125,
                    "velocity": 0.905511811023622
                },
                {
                    "duration": 0.11309512500000096,
                    "durationTicks": 114,
                    "midi": 42,
                    "name": "F#2",
                    "ticks": 180120,
                    "time": 178.6902975,
                    "velocity": 0.9448818897637795
                },
                {
                    "duration": 0.11309512500000096,
                    "durationTicks": 114,
                    "midi": 54,
                    "name": "F#3",
                    "ticks": 180240,
                    "time": 178.809345,
                    "velocity": 0.905511811023622
                },
                {
                    "duration": 0.11309512500000096,
                    "durationTicks": 114,
                    "midi": 54,
                    "name": "F#3",
                    "ticks": 180360,
                    "time": 178.9283925,
                    "velocity": 0.9448818897637795
                },
                {
                    "duration": 0.11309512500000096,
                    "durationTicks": 114,
                    "midi": 42,
                    "name": "F#2",
                    "ticks": 180480,
                    "time": 179.04744,
                    "velocity": 0.9448818897637795
                },
                {
                    "duration": 0.11309512500002938,
                    "durationTicks": 114,
                    "midi": 42,
                    "name": "F#2",
                    "ticks": 180600,
                    "time": 179.1664875,
                    "velocity": 0.9448818897637795
                },
                {
                    "duration": 0.11309512500000096,
                    "durationTicks": 114,
                    "midi": 54,
                    "name": "F#3",
                    "ticks": 180720,
                    "time": 179.285535,
                    "velocity": 0.7086614173228346
                },
                {
                    "duration": 0.11309512500000096,
                    "durationTicks": 114,
                    "midi": 54,
                    "name": "F#3",
                    "ticks": 180840,
                    "time": 179.4045825,
                    "velocity": 0.7322834645669292
                },
                {
                    "duration": 0.11309512500000096,
                    "durationTicks": 114,
                    "midi": 42,
                    "name": "F#2",
                    "ticks": 180960,
                    "time": 179.52363,
                    "velocity": 0.905511811023622
                },
                {
                    "duration": 0.11309512500002938,
                    "durationTicks": 114,
                    "midi": 42,
                    "name": "F#2",
                    "ticks": 181080,
                    "time": 179.6426775,
                    "velocity": 0.905511811023622
                },
                {
                    "duration": 0.11309512500000096,
                    "durationTicks": 114,
                    "midi": 54,
                    "name": "F#3",
                    "ticks": 181200,
                    "time": 179.761725,
                    "velocity": 0.8267716535433071
                },
                {
                    "duration": 0.11309512500000096,
                    "durationTicks": 114,
                    "midi": 54,
                    "name": "F#3",
                    "ticks": 181320,
                    "time": 179.8807725,
                    "velocity": 0.7637795275590551
                },
                {
                    "duration": 0.11309512500000096,
                    "durationTicks": 114,
                    "midi": 42,
                    "name": "F#2",
                    "ticks": 181440,
                    "time": 179.99982,
                    "velocity": 0.8267716535433071
                },
                {
                    "duration": 0.11309512500000096,
                    "durationTicks": 114,
                    "midi": 42,
                    "name": "F#2",
                    "ticks": 181560,
                    "time": 180.1188675,
                    "velocity": 0.8267716535433071
                },
                {
                    "duration": 0.11309512500002938,
                    "durationTicks": 114,
                    "midi": 54,
                    "name": "F#3",
                    "ticks": 181680,
                    "time": 180.237915,
                    "velocity": 0.905511811023622
                },
                {
                    "duration": 0.11309512500000096,
                    "durationTicks": 114,
                    "midi": 54,
                    "name": "F#3",
                    "ticks": 181800,
                    "time": 180.3569625,
                    "velocity": 0.9448818897637795
                },
                {
                    "duration": 0.11309512500000096,
                    "durationTicks": 114,
                    "midi": 42,
                    "name": "F#2",
                    "ticks": 181920,
                    "time": 180.47601,
                    "velocity": 0.905511811023622
                },
                {
                    "duration": 0.11309512500000096,
                    "durationTicks": 114,
                    "midi": 42,
                    "name": "F#2",
                    "ticks": 182040,
                    "time": 180.5950575,
                    "velocity": 0.9448818897637795
                },
                {
                    "duration": 0.11309512500002938,
                    "durationTicks": 114,
                    "midi": 54,
                    "name": "F#3",
                    "ticks": 182160,
                    "time": 180.714105,
                    "velocity": 0.905511811023622
                },
                {
                    "duration": 0.11309512500000096,
                    "durationTicks": 114,
                    "midi": 54,
                    "name": "F#3",
                    "ticks": 182280,
                    "time": 180.8331525,
                    "velocity": 0.9448818897637795
                },
                {
                    "duration": 0.11309512500000096,
                    "durationTicks": 114,
                    "midi": 42,
                    "name": "F#2",
                    "ticks": 182400,
                    "time": 180.9522,
                    "velocity": 0.9448818897637795
                },
                {
                    "duration": 0.11309512500000096,
                    "durationTicks": 114,
                    "midi": 42,
                    "name": "F#2",
                    "ticks": 182520,
                    "time": 181.0712475,
                    "velocity": 0.9448818897637795
                },
                {
                    "duration": 0.11309512500000096,
                    "durationTicks": 114,
                    "midi": 54,
                    "name": "F#3",
                    "ticks": 182640,
                    "time": 181.190295,
                    "velocity": 0.7086614173228346
                },
                {
                    "duration": 0.11309512500000096,
                    "durationTicks": 114,
                    "midi": 54,
                    "name": "F#3",
                    "ticks": 182760,
                    "time": 181.3093425,
                    "velocity": 0.7322834645669292
                },
                {
                    "duration": 0.11309512500000096,
                    "durationTicks": 114,
                    "midi": 42,
                    "name": "F#2",
                    "ticks": 182880,
                    "time": 181.42839,
                    "velocity": 0.905511811023622
                },
                {
                    "duration": 0.11309512500000096,
                    "durationTicks": 114,
                    "midi": 42,
                    "name": "F#2",
                    "ticks": 183000,
                    "time": 181.5474375,
                    "velocity": 0.905511811023622
                },
                {
                    "duration": 0.11309512500000096,
                    "durationTicks": 114,
                    "midi": 54,
                    "name": "F#3",
                    "ticks": 183120,
                    "time": 181.666485,
                    "velocity": 0.8267716535433071
                },
                {
                    "duration": 0.11309512500002938,
                    "durationTicks": 114,
                    "midi": 54,
                    "name": "F#3",
                    "ticks": 183240,
                    "time": 181.7855325,
                    "velocity": 0.7637795275590551
                },
                {
                    "duration": 0.11309512500000096,
                    "durationTicks": 114,
                    "midi": 42,
                    "name": "F#2",
                    "ticks": 183360,
                    "time": 181.90458,
                    "velocity": 0.8267716535433071
                },
                {
                    "duration": 0.11309512500000096,
                    "durationTicks": 114,
                    "midi": 42,
                    "name": "F#2",
                    "ticks": 183480,
                    "time": 182.0236275,
                    "velocity": 0.8267716535433071
                },
                {
                    "duration": 0.11309512500000096,
                    "durationTicks": 114,
                    "midi": 54,
                    "name": "F#3",
                    "ticks": 183600,
                    "time": 182.142675,
                    "velocity": 0.905511811023622
                },
                {
                    "duration": 0.11309512500002938,
                    "durationTicks": 114,
                    "midi": 54,
                    "name": "F#3",
                    "ticks": 183720,
                    "time": 182.2617225,
                    "velocity": 0.9448818897637795
                },
                {
                    "duration": 0.11309512500000096,
                    "durationTicks": 114,
                    "midi": 42,
                    "name": "F#2",
                    "ticks": 183840,
                    "time": 182.38077,
                    "velocity": 0.905511811023622
                },
                {
                    "duration": 0.11309512500000096,
                    "durationTicks": 114,
                    "midi": 42,
                    "name": "F#2",
                    "ticks": 183960,
                    "time": 182.4998175,
                    "velocity": 0.9448818897637795
                },
                {
                    "duration": 0.11309512500000096,
                    "durationTicks": 114,
                    "midi": 54,
                    "name": "F#3",
                    "ticks": 184080,
                    "time": 182.618865,
                    "velocity": 0.905511811023622
                },
                {
                    "duration": 0.11309512500000096,
                    "durationTicks": 114,
                    "midi": 54,
                    "name": "F#3",
                    "ticks": 184200,
                    "time": 182.7379125,
                    "velocity": 0.9448818897637795
                },
                {
                    "duration": 0.11309512500000096,
                    "durationTicks": 114,
                    "midi": 42,
                    "name": "F#2",
                    "ticks": 184320,
                    "time": 182.85696000000002,
                    "velocity": 0.9448818897637795
                },
                {
                    "duration": 0.11309512500000096,
                    "durationTicks": 114,
                    "midi": 42,
                    "name": "F#2",
                    "ticks": 184440,
                    "time": 182.9760075,
                    "velocity": 0.9448818897637795
                },
                {
                    "duration": 0.11309512500000096,
                    "durationTicks": 114,
                    "midi": 54,
                    "name": "F#3",
                    "ticks": 184560,
                    "time": 183.095055,
                    "velocity": 0.7086614173228346
                },
                {
                    "duration": 0.11309512500000096,
                    "durationTicks": 114,
                    "midi": 54,
                    "name": "F#3",
                    "ticks": 184680,
                    "time": 183.2141025,
                    "velocity": 0.7322834645669292
                },
                {
                    "duration": 0.11309512500002938,
                    "durationTicks": 114,
                    "midi": 42,
                    "name": "F#2",
                    "ticks": 184800,
                    "time": 183.33315,
                    "velocity": 0.905511811023622
                },
                {
                    "duration": 0.11309512500000096,
                    "durationTicks": 114,
                    "midi": 42,
                    "name": "F#2",
                    "ticks": 184920,
                    "time": 183.4521975,
                    "velocity": 0.905511811023622
                },
                {
                    "duration": 0.11309512500000096,
                    "durationTicks": 114,
                    "midi": 54,
                    "name": "F#3",
                    "ticks": 185040,
                    "time": 183.571245,
                    "velocity": 0.8267716535433071
                },
                {
                    "duration": 0.11309512500000096,
                    "durationTicks": 114,
                    "midi": 54,
                    "name": "F#3",
                    "ticks": 185160,
                    "time": 183.6902925,
                    "velocity": 0.7637795275590551
                },
                {
                    "duration": 0.11309512500000096,
                    "durationTicks": 114,
                    "midi": 42,
                    "name": "F#2",
                    "ticks": 185280,
                    "time": 183.80934,
                    "velocity": 0.8267716535433071
                },
                {
                    "duration": 0.11309512500000096,
                    "durationTicks": 114,
                    "midi": 42,
                    "name": "F#2",
                    "ticks": 185400,
                    "time": 183.9283875,
                    "velocity": 0.8267716535433071
                },
                {
                    "duration": 0.11309512500000096,
                    "durationTicks": 114,
                    "midi": 54,
                    "name": "F#3",
                    "ticks": 185520,
                    "time": 184.047435,
                    "velocity": 0.905511811023622
                },
                {
                    "duration": 0.11309512500000096,
                    "durationTicks": 114,
                    "midi": 54,
                    "name": "F#3",
                    "ticks": 185640,
                    "time": 184.1664825,
                    "velocity": 0.9448818897637795
                },
                {
                    "duration": 0.11309512500000096,
                    "durationTicks": 114,
                    "midi": 42,
                    "name": "F#2",
                    "ticks": 185760,
                    "time": 184.28553,
                    "velocity": 0.905511811023622
                },
                {
                    "duration": 0.11309512500002938,
                    "durationTicks": 114,
                    "midi": 42,
                    "name": "F#2",
                    "ticks": 185880,
                    "time": 184.4045775,
                    "velocity": 0.9448818897637795
                },
                {
                    "duration": 0.11309512500000096,
                    "durationTicks": 114,
                    "midi": 54,
                    "name": "F#3",
                    "ticks": 186000,
                    "time": 184.523625,
                    "velocity": 0.905511811023622
                },
                {
                    "duration": 0.11309512500000096,
                    "durationTicks": 114,
                    "midi": 54,
                    "name": "F#3",
                    "ticks": 186120,
                    "time": 184.6426725,
                    "velocity": 0.9448818897637795
                },
                {
                    "duration": 0.11309512500000096,
                    "durationTicks": 114,
                    "midi": 40,
                    "name": "E2",
                    "ticks": 186240,
                    "time": 184.76172,
                    "velocity": 0.9448818897637795
                },
                {
                    "duration": 0.11309512500002938,
                    "durationTicks": 114,
                    "midi": 40,
                    "name": "E2",
                    "ticks": 186360,
                    "time": 184.8807675,
                    "velocity": 0.9448818897637795
                },
                {
                    "duration": 0.11309512500000096,
                    "durationTicks": 114,
                    "midi": 52,
                    "name": "E3",
                    "ticks": 186480,
                    "time": 184.999815,
                    "velocity": 0.7086614173228346
                },
                {
                    "duration": 0.11309512500000096,
                    "durationTicks": 114,
                    "midi": 52,
                    "name": "E3",
                    "ticks": 186600,
                    "time": 185.1188625,
                    "velocity": 0.7322834645669292
                },
                {
                    "duration": 0.11309512500000096,
                    "durationTicks": 114,
                    "midi": 40,
                    "name": "E2",
                    "ticks": 186720,
                    "time": 185.23791,
                    "velocity": 0.905511811023622
                },
                {
                    "duration": 0.11309512500000096,
                    "durationTicks": 114,
                    "midi": 40,
                    "name": "E2",
                    "ticks": 186840,
                    "time": 185.3569575,
                    "velocity": 0.905511811023622
                },
                {
                    "duration": 0.11309512500000096,
                    "durationTicks": 114,
                    "midi": 52,
                    "name": "E3",
                    "ticks": 186960,
                    "time": 185.47600500000001,
                    "velocity": 0.8267716535433071
                },
                {
                    "duration": 0.11309512500000096,
                    "durationTicks": 114,
                    "midi": 52,
                    "name": "E3",
                    "ticks": 187080,
                    "time": 185.5950525,
                    "velocity": 0.7637795275590551
                },
                {
                    "duration": 0.11309512500000096,
                    "durationTicks": 114,
                    "midi": 40,
                    "name": "E2",
                    "ticks": 187200,
                    "time": 185.7141,
                    "velocity": 0.8267716535433071
                },
                {
                    "duration": 0.11309512500000096,
                    "durationTicks": 114,
                    "midi": 40,
                    "name": "E2",
                    "ticks": 187320,
                    "time": 185.8331475,
                    "velocity": 0.8267716535433071
                },
                {
                    "duration": 0.11309512500002938,
                    "durationTicks": 114,
                    "midi": 52,
                    "name": "E3",
                    "ticks": 187440,
                    "time": 185.952195,
                    "velocity": 0.905511811023622
                },
                {
                    "duration": 0.11309512500000096,
                    "durationTicks": 114,
                    "midi": 52,
                    "name": "E3",
                    "ticks": 187560,
                    "time": 186.0712425,
                    "velocity": 0.9448818897637795
                },
                {
                    "duration": 0.11309512500000096,
                    "durationTicks": 114,
                    "midi": 40,
                    "name": "E2",
                    "ticks": 187680,
                    "time": 186.19029,
                    "velocity": 0.905511811023622
                },
                {
                    "duration": 0.11309512500000096,
                    "durationTicks": 114,
                    "midi": 40,
                    "name": "E2",
                    "ticks": 187800,
                    "time": 186.3093375,
                    "velocity": 0.9448818897637795
                },
                {
                    "duration": 0.11309512500000096,
                    "durationTicks": 114,
                    "midi": 52,
                    "name": "E3",
                    "ticks": 187920,
                    "time": 186.428385,
                    "velocity": 0.905511811023622
                },
                {
                    "duration": 0.11309512500000096,
                    "durationTicks": 114,
                    "midi": 52,
                    "name": "E3",
                    "ticks": 188040,
                    "time": 186.5474325,
                    "velocity": 0.9448818897637795
                },
                {
                    "duration": 0.11309512500000096,
                    "durationTicks": 114,
                    "midi": 47,
                    "name": "B2",
                    "ticks": 188160,
                    "time": 186.66648,
                    "velocity": 0.9448818897637795
                },
                {
                    "duration": 0.11309512500000096,
                    "durationTicks": 114,
                    "midi": 47,
                    "name": "B2",
                    "ticks": 188280,
                    "time": 186.7855275,
                    "velocity": 0.9448818897637795
                },
                {
                    "duration": 0.11309512500000096,
                    "durationTicks": 114,
                    "midi": 59,
                    "name": "B3",
                    "ticks": 188400,
                    "time": 186.904575,
                    "velocity": 0.7086614173228346
                },
                {
                    "duration": 0.11309512500002938,
                    "durationTicks": 114,
                    "midi": 59,
                    "name": "B3",
                    "ticks": 188520,
                    "time": 187.0236225,
                    "velocity": 0.7322834645669292
                },
                {
                    "duration": 0.11309512500000096,
                    "durationTicks": 114,
                    "midi": 47,
                    "name": "B2",
                    "ticks": 188640,
                    "time": 187.14267,
                    "velocity": 0.905511811023622
                },
                {
                    "duration": 0.11309512500000096,
                    "durationTicks": 114,
                    "midi": 47,
                    "name": "B2",
                    "ticks": 188760,
                    "time": 187.2617175,
                    "velocity": 0.905511811023622
                },
                {
                    "duration": 0.11309512500000096,
                    "durationTicks": 114,
                    "midi": 59,
                    "name": "B3",
                    "ticks": 188880,
                    "time": 187.380765,
                    "velocity": 0.8267716535433071
                },
                {
                    "duration": 0.11309512500002938,
                    "durationTicks": 114,
                    "midi": 59,
                    "name": "B3",
                    "ticks": 189000,
                    "time": 187.4998125,
                    "velocity": 0.7637795275590551
                },
                {
                    "duration": 0.11309512500000096,
                    "durationTicks": 114,
                    "midi": 47,
                    "name": "B2",
                    "ticks": 189120,
                    "time": 187.61886,
                    "velocity": 0.8267716535433071
                },
                {
                    "duration": 0.11309512500000096,
                    "durationTicks": 114,
                    "midi": 47,
                    "name": "B2",
                    "ticks": 189240,
                    "time": 187.7379075,
                    "velocity": 0.8267716535433071
                },
                {
                    "duration": 0.11309512500000096,
                    "durationTicks": 114,
                    "midi": 59,
                    "name": "B3",
                    "ticks": 189360,
                    "time": 187.856955,
                    "velocity": 0.905511811023622
                },
                {
                    "duration": 0.11309512500000096,
                    "durationTicks": 114,
                    "midi": 59,
                    "name": "B3",
                    "ticks": 189480,
                    "time": 187.9760025,
                    "velocity": 0.9448818897637795
                },
                {
                    "duration": 0.11309512500000096,
                    "durationTicks": 114,
                    "midi": 47,
                    "name": "B2",
                    "ticks": 189600,
                    "time": 188.09505000000001,
                    "velocity": 0.905511811023622
                },
                {
                    "duration": 0.11309512500000096,
                    "durationTicks": 114,
                    "midi": 47,
                    "name": "B2",
                    "ticks": 189720,
                    "time": 188.2140975,
                    "velocity": 0.9448818897637795
                },
                {
                    "duration": 0.11309512500000096,
                    "durationTicks": 114,
                    "midi": 59,
                    "name": "B3",
                    "ticks": 189840,
                    "time": 188.333145,
                    "velocity": 0.905511811023622
                },
                {
                    "duration": 0.11309512500000096,
                    "durationTicks": 114,
                    "midi": 59,
                    "name": "B3",
                    "ticks": 189960,
                    "time": 188.4521925,
                    "velocity": 0.9448818897637795
                },
                {
                    "duration": 0.11309512500002938,
                    "durationTicks": 114,
                    "midi": 42,
                    "name": "F#2",
                    "ticks": 190080,
                    "time": 188.57124,
                    "velocity": 0.9448818897637795
                },
                {
                    "duration": 0.11309512500000096,
                    "durationTicks": 114,
                    "midi": 42,
                    "name": "F#2",
                    "ticks": 190200,
                    "time": 188.6902875,
                    "velocity": 0.9448818897637795
                },
                {
                    "duration": 0.11309512500000096,
                    "durationTicks": 114,
                    "midi": 54,
                    "name": "F#3",
                    "ticks": 190320,
                    "time": 188.809335,
                    "velocity": 0.7086614173228346
                },
                {
                    "duration": 0.11309512500000096,
                    "durationTicks": 114,
                    "midi": 54,
                    "name": "F#3",
                    "ticks": 190440,
                    "time": 188.9283825,
                    "velocity": 0.7322834645669292
                },
                {
                    "duration": 0.11309512500000096,
                    "durationTicks": 114,
                    "midi": 42,
                    "name": "F#2",
                    "ticks": 190560,
                    "time": 189.04743,
                    "velocity": 0.905511811023622
                },
                {
                    "duration": 0.11309512500000096,
                    "durationTicks": 114,
                    "midi": 42,
                    "name": "F#2",
                    "ticks": 190680,
                    "time": 189.1664775,
                    "velocity": 0.905511811023622
                },
                {
                    "duration": 0.11309512500000096,
                    "durationTicks": 114,
                    "midi": 54,
                    "name": "F#3",
                    "ticks": 190800,
                    "time": 189.285525,
                    "velocity": 0.8267716535433071
                },
                {
                    "duration": 0.11309512500000096,
                    "durationTicks": 114,
                    "midi": 54,
                    "name": "F#3",
                    "ticks": 190920,
                    "time": 189.4045725,
                    "velocity": 0.7637795275590551
                },
                {
                    "duration": 0.11309512500000096,
                    "durationTicks": 114,
                    "midi": 42,
                    "name": "F#2",
                    "ticks": 191040,
                    "time": 189.52362,
                    "velocity": 0.8267716535433071
                },
                {
                    "duration": 0.11309512500002938,
                    "durationTicks": 114,
                    "midi": 42,
                    "name": "F#2",
                    "ticks": 191160,
                    "time": 189.6426675,
                    "velocity": 0.8267716535433071
                },
                {
                    "duration": 0.11309512500000096,
                    "durationTicks": 114,
                    "midi": 54,
                    "name": "F#3",
                    "ticks": 191280,
                    "time": 189.761715,
                    "velocity": 0.905511811023622
                },
                {
                    "duration": 0.11309512500000096,
                    "durationTicks": 114,
                    "midi": 54,
                    "name": "F#3",
                    "ticks": 191400,
                    "time": 189.8807625,
                    "velocity": 0.9448818897637795
                },
                {
                    "duration": 0.11309512500000096,
                    "durationTicks": 114,
                    "midi": 42,
                    "name": "F#2",
                    "ticks": 191520,
                    "time": 189.99981,
                    "velocity": 0.905511811023622
                },
                {
                    "duration": 0.11309512500002938,
                    "durationTicks": 114,
                    "midi": 42,
                    "name": "F#2",
                    "ticks": 191640,
                    "time": 190.1188575,
                    "velocity": 0.9448818897637795
                },
                {
                    "duration": 0.11309512500000096,
                    "durationTicks": 114,
                    "midi": 54,
                    "name": "F#3",
                    "ticks": 191760,
                    "time": 190.237905,
                    "velocity": 0.905511811023622
                },
                {
                    "duration": 0.11309512500000096,
                    "durationTicks": 114,
                    "midi": 54,
                    "name": "F#3",
                    "ticks": 191880,
                    "time": 190.3569525,
                    "velocity": 0.9448818897637795
                },
                {
                    "duration": 0.11309512500000096,
                    "durationTicks": 114,
                    "midi": 42,
                    "name": "F#2",
                    "ticks": 192000,
                    "time": 190.476,
                    "velocity": 0.9448818897637795
                },
                {
                    "duration": 0.11309512500000096,
                    "durationTicks": 114,
                    "midi": 42,
                    "name": "F#2",
                    "ticks": 192120,
                    "time": 190.5950475,
                    "velocity": 0.9448818897637795
                },
                {
                    "duration": 0.11309512500000096,
                    "durationTicks": 114,
                    "midi": 54,
                    "name": "F#3",
                    "ticks": 192240,
                    "time": 190.71409500000001,
                    "velocity": 0.7086614173228346
                },
                {
                    "duration": 0.11309512500000096,
                    "durationTicks": 114,
                    "midi": 54,
                    "name": "F#3",
                    "ticks": 192360,
                    "time": 190.8331425,
                    "velocity": 0.7322834645669292
                },
                {
                    "duration": 0.11309512500000096,
                    "durationTicks": 114,
                    "midi": 42,
                    "name": "F#2",
                    "ticks": 192480,
                    "time": 190.95219,
                    "velocity": 0.905511811023622
                },
                {
                    "duration": 0.11309512500000096,
                    "durationTicks": 114,
                    "midi": 42,
                    "name": "F#2",
                    "ticks": 192600,
                    "time": 191.0712375,
                    "velocity": 0.905511811023622
                },
                {
                    "duration": 0.11309512500002938,
                    "durationTicks": 114,
                    "midi": 54,
                    "name": "F#3",
                    "ticks": 192720,
                    "time": 191.190285,
                    "velocity": 0.8267716535433071
                },
                {
                    "duration": 0.11309512500000096,
                    "durationTicks": 114,
                    "midi": 54,
                    "name": "F#3",
                    "ticks": 192840,
                    "time": 191.3093325,
                    "velocity": 0.7637795275590551
                },
                {
                    "duration": 0.11309512500000096,
                    "durationTicks": 114,
                    "midi": 42,
                    "name": "F#2",
                    "ticks": 192960,
                    "time": 191.42838,
                    "velocity": 0.8267716535433071
                },
                {
                    "duration": 0.11309512500000096,
                    "durationTicks": 114,
                    "midi": 42,
                    "name": "F#2",
                    "ticks": 193080,
                    "time": 191.5474275,
                    "velocity": 0.8267716535433071
                },
                {
                    "duration": 0.11309512500000096,
                    "durationTicks": 114,
                    "midi": 54,
                    "name": "F#3",
                    "ticks": 193200,
                    "time": 191.666475,
                    "velocity": 0.905511811023622
                },
                {
                    "duration": 0.11309512500000096,
                    "durationTicks": 114,
                    "midi": 54,
                    "name": "F#3",
                    "ticks": 193320,
                    "time": 191.7855225,
                    "velocity": 0.9448818897637795
                },
                {
                    "duration": 0.11309512500000096,
                    "durationTicks": 114,
                    "midi": 42,
                    "name": "F#2",
                    "ticks": 193440,
                    "time": 191.90457,
                    "velocity": 0.905511811023622
                },
                {
                    "duration": 0.11309512500000096,
                    "durationTicks": 114,
                    "midi": 42,
                    "name": "F#2",
                    "ticks": 193560,
                    "time": 192.0236175,
                    "velocity": 0.9448818897637795
                },
                {
                    "duration": 0.11309512500000096,
                    "durationTicks": 114,
                    "midi": 54,
                    "name": "F#3",
                    "ticks": 193680,
                    "time": 192.142665,
                    "velocity": 0.905511811023622
                },
                {
                    "duration": 0.11309512500002938,
                    "durationTicks": 114,
                    "midi": 54,
                    "name": "F#3",
                    "ticks": 193800,
                    "time": 192.2617125,
                    "velocity": 0.9448818897637795
                },
                {
                    "duration": 0.11309512500000096,
                    "durationTicks": 114,
                    "midi": 40,
                    "name": "E2",
                    "ticks": 193920,
                    "time": 192.38076,
                    "velocity": 0.9448818897637795
                },
                {
                    "duration": 0.11309512500000096,
                    "durationTicks": 114,
                    "midi": 40,
                    "name": "E2",
                    "ticks": 194040,
                    "time": 192.4998075,
                    "velocity": 0.9448818897637795
                },
                {
                    "duration": 0.11309512500000096,
                    "durationTicks": 114,
                    "midi": 52,
                    "name": "E3",
                    "ticks": 194160,
                    "time": 192.618855,
                    "velocity": 0.7086614173228346
                },
                {
                    "duration": 0.11309512500002938,
                    "durationTicks": 114,
                    "midi": 52,
                    "name": "E3",
                    "ticks": 194280,
                    "time": 192.7379025,
                    "velocity": 0.7322834645669292
                },
                {
                    "duration": 0.11309512500000096,
                    "durationTicks": 114,
                    "midi": 40,
                    "name": "E2",
                    "ticks": 194400,
                    "time": 192.85695,
                    "velocity": 0.905511811023622
                },
                {
                    "duration": 0.11309512500000096,
                    "durationTicks": 114,
                    "midi": 40,
                    "name": "E2",
                    "ticks": 194520,
                    "time": 192.9759975,
                    "velocity": 0.905511811023622
                },
                {
                    "duration": 0.11309512500000096,
                    "durationTicks": 114,
                    "midi": 52,
                    "name": "E3",
                    "ticks": 194640,
                    "time": 193.095045,
                    "velocity": 0.8267716535433071
                },
                {
                    "duration": 0.11309512500000096,
                    "durationTicks": 114,
                    "midi": 52,
                    "name": "E3",
                    "ticks": 194760,
                    "time": 193.2140925,
                    "velocity": 0.7637795275590551
                },
                {
                    "duration": 0.11309512500000096,
                    "durationTicks": 114,
                    "midi": 40,
                    "name": "E2",
                    "ticks": 194880,
                    "time": 193.33314000000001,
                    "velocity": 0.8267716535433071
                },
                {
                    "duration": 0.11309512500000096,
                    "durationTicks": 114,
                    "midi": 40,
                    "name": "E2",
                    "ticks": 195000,
                    "time": 193.4521875,
                    "velocity": 0.8267716535433071
                },
                {
                    "duration": 0.11309512500000096,
                    "durationTicks": 114,
                    "midi": 52,
                    "name": "E3",
                    "ticks": 195120,
                    "time": 193.571235,
                    "velocity": 0.905511811023622
                },
                {
                    "duration": 0.11309512500000096,
                    "durationTicks": 114,
                    "midi": 52,
                    "name": "E3",
                    "ticks": 195240,
                    "time": 193.6902825,
                    "velocity": 0.9448818897637795
                },
                {
                    "duration": 0.11309512500002938,
                    "durationTicks": 114,
                    "midi": 40,
                    "name": "E2",
                    "ticks": 195360,
                    "time": 193.80933,
                    "velocity": 0.905511811023622
                },
                {
                    "duration": 0.11309512500000096,
                    "durationTicks": 114,
                    "midi": 40,
                    "name": "E2",
                    "ticks": 195480,
                    "time": 193.9283775,
                    "velocity": 0.9448818897637795
                },
                {
                    "duration": 0.11309512500000096,
                    "durationTicks": 114,
                    "midi": 52,
                    "name": "E3",
                    "ticks": 195600,
                    "time": 194.047425,
                    "velocity": 0.905511811023622
                },
                {
                    "duration": 0.11309512500000096,
                    "durationTicks": 114,
                    "midi": 52,
                    "name": "E3",
                    "ticks": 195720,
                    "time": 194.1664725,
                    "velocity": 0.9448818897637795
                },
                {
                    "duration": 0.11309512500002938,
                    "durationTicks": 114,
                    "midi": 47,
                    "name": "B2",
                    "ticks": 195840,
                    "time": 194.28552,
                    "velocity": 0.9448818897637795
                },
                {
                    "duration": 0.11309512500000096,
                    "durationTicks": 114,
                    "midi": 47,
                    "name": "B2",
                    "ticks": 195960,
                    "time": 194.4045675,
                    "velocity": 0.9448818897637795
                },
                {
                    "duration": 0.11309512500000096,
                    "durationTicks": 114,
                    "midi": 59,
                    "name": "B3",
                    "ticks": 196080,
                    "time": 194.523615,
                    "velocity": 0.7086614173228346
                },
                {
                    "duration": 0.11309512500000096,
                    "durationTicks": 114,
                    "midi": 59,
                    "name": "B3",
                    "ticks": 196200,
                    "time": 194.6426625,
                    "velocity": 0.7322834645669292
                },
                {
                    "duration": 0.11309512500000096,
                    "durationTicks": 114,
                    "midi": 47,
                    "name": "B2",
                    "ticks": 196320,
                    "time": 194.76171,
                    "velocity": 0.905511811023622
                },
                {
                    "duration": 0.11309512500002938,
                    "durationTicks": 114,
                    "midi": 47,
                    "name": "B2",
                    "ticks": 196440,
                    "time": 194.8807575,
                    "velocity": 0.905511811023622
                },
                {
                    "duration": 0.11309512500000096,
                    "durationTicks": 114,
                    "midi": 59,
                    "name": "B3",
                    "ticks": 196560,
                    "time": 194.999805,
                    "velocity": 0.8267716535433071
                },
                {
                    "duration": 0.11309512500000096,
                    "durationTicks": 114,
                    "midi": 59,
                    "name": "B3",
                    "ticks": 196680,
                    "time": 195.1188525,
                    "velocity": 0.7637795275590551
                },
                {
                    "duration": 0.11309512500000096,
                    "durationTicks": 114,
                    "midi": 47,
                    "name": "B2",
                    "ticks": 196800,
                    "time": 195.2379,
                    "velocity": 0.8267716535433071
                },
                {
                    "duration": 0.11309512500002938,
                    "durationTicks": 114,
                    "midi": 47,
                    "name": "B2",
                    "ticks": 196920,
                    "time": 195.3569475,
                    "velocity": 0.8267716535433071
                },
                {
                    "duration": 0.11309512500000096,
                    "durationTicks": 114,
                    "midi": 59,
                    "name": "B3",
                    "ticks": 197040,
                    "time": 195.475995,
                    "velocity": 0.905511811023622
                },
                {
                    "duration": 0.11309512500000096,
                    "durationTicks": 114,
                    "midi": 59,
                    "name": "B3",
                    "ticks": 197160,
                    "time": 195.5950425,
                    "velocity": 0.9448818897637795
                },
                {
                    "duration": 0.11309512500000096,
                    "durationTicks": 114,
                    "midi": 47,
                    "name": "B2",
                    "ticks": 197280,
                    "time": 195.71409,
                    "velocity": 0.905511811023622
                },
                {
                    "duration": 0.11309512500000096,
                    "durationTicks": 114,
                    "midi": 47,
                    "name": "B2",
                    "ticks": 197400,
                    "time": 195.8331375,
                    "velocity": 0.9448818897637795
                },
                {
                    "duration": 0.11309512500000096,
                    "durationTicks": 114,
                    "midi": 59,
                    "name": "B3",
                    "ticks": 197520,
                    "time": 195.95218500000001,
                    "velocity": 0.905511811023622
                },
                {
                    "duration": 0.11309512500000096,
                    "durationTicks": 114,
                    "midi": 59,
                    "name": "B3",
                    "ticks": 197640,
                    "time": 196.0712325,
                    "velocity": 0.9448818897637795
                },
                {
                    "duration": 0.11309512500000096,
                    "durationTicks": 114,
                    "midi": 42,
                    "name": "F#2",
                    "ticks": 199680,
                    "time": 198.09504,
                    "velocity": 0.9448818897637795
                },
                {
                    "duration": 0.11309512500000096,
                    "durationTicks": 114,
                    "midi": 42,
                    "name": "F#2",
                    "ticks": 199800,
                    "time": 198.2140875,
                    "velocity": 0.9448818897637795
                },
                {
                    "duration": 0.11309512500000096,
                    "durationTicks": 114,
                    "midi": 54,
                    "name": "F#3",
                    "ticks": 199920,
                    "time": 198.333135,
                    "velocity": 0.7086614173228346
                },
                {
                    "duration": 0.11309512500000096,
                    "durationTicks": 114,
                    "midi": 54,
                    "name": "F#3",
                    "ticks": 200040,
                    "time": 198.4521825,
                    "velocity": 0.7322834645669292
                },
                {
                    "duration": 0.11309512500000096,
                    "durationTicks": 114,
                    "midi": 42,
                    "name": "F#2",
                    "ticks": 200160,
                    "time": 198.57123,
                    "velocity": 0.905511811023622
                },
                {
                    "duration": 0.11309512500000096,
                    "durationTicks": 114,
                    "midi": 42,
                    "name": "F#2",
                    "ticks": 200280,
                    "time": 198.6902775,
                    "velocity": 0.905511811023622
                },
                {
                    "duration": 0.11309512500000096,
                    "durationTicks": 114,
                    "midi": 54,
                    "name": "F#3",
                    "ticks": 200400,
                    "time": 198.809325,
                    "velocity": 0.8267716535433071
                },
                {
                    "duration": 0.11309512500000096,
                    "durationTicks": 114,
                    "midi": 54,
                    "name": "F#3",
                    "ticks": 200520,
                    "time": 198.9283725,
                    "velocity": 0.7637795275590551
                },
                {
                    "duration": 0.11309512500002938,
                    "durationTicks": 114,
                    "midi": 42,
                    "name": "F#2",
                    "ticks": 200640,
                    "time": 199.04742,
                    "velocity": 0.8267716535433071
                },
                {
                    "duration": 0.11309512500000096,
                    "durationTicks": 114,
                    "midi": 42,
                    "name": "F#2",
                    "ticks": 200760,
                    "time": 199.1664675,
                    "velocity": 0.8267716535433071
                },
                {
                    "duration": 0.11309512500000096,
                    "durationTicks": 114,
                    "midi": 54,
                    "name": "F#3",
                    "ticks": 200880,
                    "time": 199.285515,
                    "velocity": 0.905511811023622
                },
                {
                    "duration": 0.11309512500000096,
                    "durationTicks": 114,
                    "midi": 54,
                    "name": "F#3",
                    "ticks": 201000,
                    "time": 199.4045625,
                    "velocity": 0.9448818897637795
                },
                {
                    "duration": 0.11309512500002938,
                    "durationTicks": 114,
                    "midi": 42,
                    "name": "F#2",
                    "ticks": 201120,
                    "time": 199.52361,
                    "velocity": 0.905511811023622
                },
                {
                    "duration": 0.11309512500000096,
                    "durationTicks": 114,
                    "midi": 42,
                    "name": "F#2",
                    "ticks": 201240,
                    "time": 199.6426575,
                    "velocity": 0.9448818897637795
                },
                {
                    "duration": 0.11309512500000096,
                    "durationTicks": 114,
                    "midi": 54,
                    "name": "F#3",
                    "ticks": 201360,
                    "time": 199.761705,
                    "velocity": 0.905511811023622
                },
                {
                    "duration": 0.11309512500000096,
                    "durationTicks": 114,
                    "midi": 54,
                    "name": "F#3",
                    "ticks": 201480,
                    "time": 199.8807525,
                    "velocity": 0.9448818897637795
                },
                {
                    "duration": 0.11309512500000096,
                    "durationTicks": 114,
                    "midi": 40,
                    "name": "E2",
                    "ticks": 201600,
                    "time": 199.9998,
                    "velocity": 0.9448818897637795
                },
                {
                    "duration": 0.11309512500002938,
                    "durationTicks": 114,
                    "midi": 40,
                    "name": "E2",
                    "ticks": 201720,
                    "time": 200.1188475,
                    "velocity": 0.9448818897637795
                },
                {
                    "duration": 0.11309512500000096,
                    "durationTicks": 114,
                    "midi": 52,
                    "name": "E3",
                    "ticks": 201840,
                    "time": 200.237895,
                    "velocity": 0.7086614173228346
                },
                {
                    "duration": 0.11309512500000096,
                    "durationTicks": 114,
                    "midi": 52,
                    "name": "E3",
                    "ticks": 201960,
                    "time": 200.3569425,
                    "velocity": 0.7322834645669292
                },
                {
                    "duration": 0.11309512500000096,
                    "durationTicks": 114,
                    "midi": 40,
                    "name": "E2",
                    "ticks": 202080,
                    "time": 200.47599,
                    "velocity": 0.905511811023622
                },
                {
                    "duration": 0.11309512500002938,
                    "durationTicks": 114,
                    "midi": 40,
                    "name": "E2",
                    "ticks": 202200,
                    "time": 200.5950375,
                    "velocity": 0.905511811023622
                },
                {
                    "duration": 0.11309512500000096,
                    "durationTicks": 114,
                    "midi": 52,
                    "name": "E3",
                    "ticks": 202320,
                    "time": 200.714085,
                    "velocity": 0.8267716535433071
                },
                {
                    "duration": 0.11309512500000096,
                    "durationTicks": 114,
                    "midi": 52,
                    "name": "E3",
                    "ticks": 202440,
                    "time": 200.8331325,
                    "velocity": 0.7637795275590551
                },
                {
                    "duration": 0.11309512500000096,
                    "durationTicks": 114,
                    "midi": 40,
                    "name": "E2",
                    "ticks": 202560,
                    "time": 200.95218,
                    "velocity": 0.8267716535433071
                },
                {
                    "duration": 0.11309512500000096,
                    "durationTicks": 114,
                    "midi": 40,
                    "name": "E2",
                    "ticks": 202680,
                    "time": 201.0712275,
                    "velocity": 0.8267716535433071
                },
                {
                    "duration": 0.11309512500000096,
                    "durationTicks": 114,
                    "midi": 52,
                    "name": "E3",
                    "ticks": 202800,
                    "time": 201.190275,
                    "velocity": 0.905511811023622
                },
                {
                    "duration": 0.11309512500000096,
                    "durationTicks": 114,
                    "midi": 52,
                    "name": "E3",
                    "ticks": 202920,
                    "time": 201.3093225,
                    "velocity": 0.9448818897637795
                },
                {
                    "duration": 0.11309512500000096,
                    "durationTicks": 114,
                    "midi": 40,
                    "name": "E2",
                    "ticks": 203040,
                    "time": 201.42837,
                    "velocity": 0.905511811023622
                },
                {
                    "duration": 0.11309512500000096,
                    "durationTicks": 114,
                    "midi": 40,
                    "name": "E2",
                    "ticks": 203160,
                    "time": 201.5474175,
                    "velocity": 0.9448818897637795
                },
                {
                    "duration": 0.11309512500002938,
                    "durationTicks": 114,
                    "midi": 52,
                    "name": "E3",
                    "ticks": 203280,
                    "time": 201.666465,
                    "velocity": 0.905511811023622
                },
                {
                    "duration": 0.11309512500000096,
                    "durationTicks": 114,
                    "midi": 52,
                    "name": "E3",
                    "ticks": 203400,
                    "time": 201.7855125,
                    "velocity": 0.9448818897637795
                },
                {
                    "duration": 0.11309512500000096,
                    "durationTicks": 114,
                    "midi": 47,
                    "name": "B2",
                    "ticks": 203520,
                    "time": 201.90456,
                    "velocity": 0.9448818897637795
                },
                {
                    "duration": 0.11309512500000096,
                    "durationTicks": 114,
                    "midi": 47,
                    "name": "B2",
                    "ticks": 203640,
                    "time": 202.0236075,
                    "velocity": 0.9448818897637795
                },
                {
                    "duration": 0.11309512500002938,
                    "durationTicks": 114,
                    "midi": 59,
                    "name": "B3",
                    "ticks": 203760,
                    "time": 202.142655,
                    "velocity": 0.7086614173228346
                },
                {
                    "duration": 0.11309512500000096,
                    "durationTicks": 114,
                    "midi": 59,
                    "name": "B3",
                    "ticks": 203880,
                    "time": 202.2617025,
                    "velocity": 0.7322834645669292
                },
                {
                    "duration": 0.11309512500000096,
                    "durationTicks": 114,
                    "midi": 47,
                    "name": "B2",
                    "ticks": 204000,
                    "time": 202.38075,
                    "velocity": 0.905511811023622
                },
                {
                    "duration": 0.11309512500000096,
                    "durationTicks": 114,
                    "midi": 47,
                    "name": "B2",
                    "ticks": 204120,
                    "time": 202.4997975,
                    "velocity": 0.905511811023622
                },
                {
                    "duration": 0.11309512500000096,
                    "durationTicks": 114,
                    "midi": 59,
                    "name": "B3",
                    "ticks": 204240,
                    "time": 202.618845,
                    "velocity": 0.8267716535433071
                },
                {
                    "duration": 0.11309512500002938,
                    "durationTicks": 114,
                    "midi": 59,
                    "name": "B3",
                    "ticks": 204360,
                    "time": 202.7378925,
                    "velocity": 0.7637795275590551
                },
                {
                    "duration": 0.11309512500000096,
                    "durationTicks": 114,
                    "midi": 47,
                    "name": "B2",
                    "ticks": 204480,
                    "time": 202.85694,
                    "velocity": 0.8267716535433071
                },
                {
                    "duration": 0.11309512500000096,
                    "durationTicks": 114,
                    "midi": 47,
                    "name": "B2",
                    "ticks": 204600,
                    "time": 202.9759875,
                    "velocity": 0.8267716535433071
                },
                {
                    "duration": 0.11309512500000096,
                    "durationTicks": 114,
                    "midi": 59,
                    "name": "B3",
                    "ticks": 204720,
                    "time": 203.095035,
                    "velocity": 0.905511811023622
                },
                {
                    "duration": 0.11309512500002938,
                    "durationTicks": 114,
                    "midi": 59,
                    "name": "B3",
                    "ticks": 204840,
                    "time": 203.2140825,
                    "velocity": 0.9448818897637795
                },
                {
                    "duration": 0.11309512500000096,
                    "durationTicks": 114,
                    "midi": 47,
                    "name": "B2",
                    "ticks": 204960,
                    "time": 203.33313,
                    "velocity": 0.905511811023622
                },
                {
                    "duration": 0.11309512500000096,
                    "durationTicks": 114,
                    "midi": 47,
                    "name": "B2",
                    "ticks": 205080,
                    "time": 203.4521775,
                    "velocity": 0.9448818897637795
                },
                {
                    "duration": 0.11309512500000096,
                    "durationTicks": 114,
                    "midi": 59,
                    "name": "B3",
                    "ticks": 205200,
                    "time": 203.571225,
                    "velocity": 0.905511811023622
                },
                {
                    "duration": 0.11309512500000096,
                    "durationTicks": 114,
                    "midi": 59,
                    "name": "B3",
                    "ticks": 205320,
                    "time": 203.6902725,
                    "velocity": 0.9448818897637795
                },
                {
                    "duration": 0.11309512500000096,
                    "durationTicks": 114,
                    "midi": 42,
                    "name": "F#2",
                    "ticks": 205440,
                    "time": 203.80932,
                    "velocity": 0.9448818897637795
                },
                {
                    "duration": 0.11309512500000096,
                    "durationTicks": 114,
                    "midi": 42,
                    "name": "F#2",
                    "ticks": 205560,
                    "time": 203.9283675,
                    "velocity": 0.9448818897637795
                },
                {
                    "duration": 0.11309512500000096,
                    "durationTicks": 114,
                    "midi": 54,
                    "name": "F#3",
                    "ticks": 205680,
                    "time": 204.047415,
                    "velocity": 0.7086614173228346
                },
                {
                    "duration": 0.11309512500000096,
                    "durationTicks": 114,
                    "midi": 54,
                    "name": "F#3",
                    "ticks": 205800,
                    "time": 204.1664625,
                    "velocity": 0.7322834645669292
                },
                {
                    "duration": 0.11309512500002938,
                    "durationTicks": 114,
                    "midi": 42,
                    "name": "F#2",
                    "ticks": 205920,
                    "time": 204.28551,
                    "velocity": 0.905511811023622
                },
                {
                    "duration": 0.11309512500000096,
                    "durationTicks": 114,
                    "midi": 42,
                    "name": "F#2",
                    "ticks": 206040,
                    "time": 204.4045575,
                    "velocity": 0.905511811023622
                },
                {
                    "duration": 0.11309512500000096,
                    "durationTicks": 114,
                    "midi": 54,
                    "name": "F#3",
                    "ticks": 206160,
                    "time": 204.523605,
                    "velocity": 0.8267716535433071
                },
                {
                    "duration": 0.11309512500000096,
                    "durationTicks": 114,
                    "midi": 54,
                    "name": "F#3",
                    "ticks": 206280,
                    "time": 204.6426525,
                    "velocity": 0.7637795275590551
                },
                {
                    "duration": 0.11309512500002938,
                    "durationTicks": 114,
                    "midi": 42,
                    "name": "F#2",
                    "ticks": 206400,
                    "time": 204.7617,
                    "velocity": 0.8267716535433071
                },
                {
                    "duration": 0.11309512500000096,
                    "durationTicks": 114,
                    "midi": 42,
                    "name": "F#2",
                    "ticks": 206520,
                    "time": 204.8807475,
                    "velocity": 0.8267716535433071
                },
                {
                    "duration": 0.11309512500000096,
                    "durationTicks": 114,
                    "midi": 54,
                    "name": "F#3",
                    "ticks": 206640,
                    "time": 204.999795,
                    "velocity": 0.905511811023622
                },
                {
                    "duration": 0.11309512500000096,
                    "durationTicks": 114,
                    "midi": 54,
                    "name": "F#3",
                    "ticks": 206760,
                    "time": 205.1188425,
                    "velocity": 0.9448818897637795
                },
                {
                    "duration": 0.11309512500000096,
                    "durationTicks": 114,
                    "midi": 42,
                    "name": "F#2",
                    "ticks": 206880,
                    "time": 205.23789,
                    "velocity": 0.905511811023622
                },
                {
                    "duration": 0.11309512500000096,
                    "durationTicks": 114,
                    "midi": 42,
                    "name": "F#2",
                    "ticks": 207000,
                    "time": 205.35693750000002,
                    "velocity": 0.9448818897637795
                },
                {
                    "duration": 0.11309512500000096,
                    "durationTicks": 114,
                    "midi": 54,
                    "name": "F#3",
                    "ticks": 207120,
                    "time": 205.475985,
                    "velocity": 0.905511811023622
                },
                {
                    "duration": 0.11309512500000096,
                    "durationTicks": 114,
                    "midi": 54,
                    "name": "F#3",
                    "ticks": 207240,
                    "time": 205.5950325,
                    "velocity": 0.9448818897637795
                },
                {
                    "duration": 0.11309512500000096,
                    "durationTicks": 114,
                    "midi": 42,
                    "name": "F#2",
                    "ticks": 207360,
                    "time": 205.71408,
                    "velocity": 0.9448818897637795
                },
                {
                    "duration": 0.11309512500002938,
                    "durationTicks": 114,
                    "midi": 42,
                    "name": "F#2",
                    "ticks": 207480,
                    "time": 205.8331275,
                    "velocity": 0.9448818897637795
                },
                {
                    "duration": 0.11309512500000096,
                    "durationTicks": 114,
                    "midi": 54,
                    "name": "F#3",
                    "ticks": 207600,
                    "time": 205.952175,
                    "velocity": 0.7086614173228346
                },
                {
                    "duration": 0.11309512500000096,
                    "durationTicks": 114,
                    "midi": 54,
                    "name": "F#3",
                    "ticks": 207720,
                    "time": 206.0712225,
                    "velocity": 0.7322834645669292
                },
                {
                    "duration": 0.11309512500000096,
                    "durationTicks": 114,
                    "midi": 42,
                    "name": "F#2",
                    "ticks": 207840,
                    "time": 206.19027,
                    "velocity": 0.905511811023622
                },
                {
                    "duration": 0.11309512500000096,
                    "durationTicks": 114,
                    "midi": 42,
                    "name": "F#2",
                    "ticks": 207960,
                    "time": 206.3093175,
                    "velocity": 0.905511811023622
                },
                {
                    "duration": 0.11309512500000096,
                    "durationTicks": 114,
                    "midi": 54,
                    "name": "F#3",
                    "ticks": 208080,
                    "time": 206.428365,
                    "velocity": 0.8267716535433071
                },
                {
                    "duration": 0.11309512500000096,
                    "durationTicks": 114,
                    "midi": 54,
                    "name": "F#3",
                    "ticks": 208200,
                    "time": 206.5474125,
                    "velocity": 0.7637795275590551
                },
                {
                    "duration": 0.11309512500000096,
                    "durationTicks": 114,
                    "midi": 42,
                    "name": "F#2",
                    "ticks": 208320,
                    "time": 206.66646,
                    "velocity": 0.8267716535433071
                },
                {
                    "duration": 0.11309512500000096,
                    "durationTicks": 114,
                    "midi": 42,
                    "name": "F#2",
                    "ticks": 208440,
                    "time": 206.7855075,
                    "velocity": 0.8267716535433071
                },
                {
                    "duration": 0.11309512500002938,
                    "durationTicks": 114,
                    "midi": 54,
                    "name": "F#3",
                    "ticks": 208560,
                    "time": 206.904555,
                    "velocity": 0.905511811023622
                },
                {
                    "duration": 0.11309512500000096,
                    "durationTicks": 114,
                    "midi": 54,
                    "name": "F#3",
                    "ticks": 208680,
                    "time": 207.0236025,
                    "velocity": 0.9448818897637795
                },
                {
                    "duration": 0.11309512500000096,
                    "durationTicks": 114,
                    "midi": 42,
                    "name": "F#2",
                    "ticks": 208800,
                    "time": 207.14265,
                    "velocity": 0.905511811023622
                },
                {
                    "duration": 0.11309512500000096,
                    "durationTicks": 114,
                    "midi": 42,
                    "name": "F#2",
                    "ticks": 208920,
                    "time": 207.2616975,
                    "velocity": 0.9448818897637795
                },
                {
                    "duration": 0.11309512500002938,
                    "durationTicks": 114,
                    "midi": 54,
                    "name": "F#3",
                    "ticks": 209040,
                    "time": 207.380745,
                    "velocity": 0.905511811023622
                },
                {
                    "duration": 0.11309512500000096,
                    "durationTicks": 114,
                    "midi": 54,
                    "name": "F#3",
                    "ticks": 209160,
                    "time": 207.4997925,
                    "velocity": 0.9448818897637795
                },
                {
                    "duration": 0.11309512500000096,
                    "durationTicks": 114,
                    "midi": 40,
                    "name": "E2",
                    "ticks": 209280,
                    "time": 207.61884,
                    "velocity": 0.9448818897637795
                },
                {
                    "duration": 0.11309512500000096,
                    "durationTicks": 114,
                    "midi": 40,
                    "name": "E2",
                    "ticks": 209400,
                    "time": 207.7378875,
                    "velocity": 0.9448818897637795
                },
                {
                    "duration": 0.11309512500000096,
                    "durationTicks": 114,
                    "midi": 52,
                    "name": "E3",
                    "ticks": 209520,
                    "time": 207.856935,
                    "velocity": 0.7086614173228346
                },
                {
                    "duration": 0.11309512500000096,
                    "durationTicks": 114,
                    "midi": 52,
                    "name": "E3",
                    "ticks": 209640,
                    "time": 207.97598250000001,
                    "velocity": 0.7322834645669292
                },
                {
                    "duration": 0.11309512500000096,
                    "durationTicks": 114,
                    "midi": 40,
                    "name": "E2",
                    "ticks": 209760,
                    "time": 208.09503,
                    "velocity": 0.905511811023622
                },
                {
                    "duration": 0.11309512500000096,
                    "durationTicks": 114,
                    "midi": 40,
                    "name": "E2",
                    "ticks": 209880,
                    "time": 208.2140775,
                    "velocity": 0.905511811023622
                },
                {
                    "duration": 0.11309512500000096,
                    "durationTicks": 114,
                    "midi": 52,
                    "name": "E3",
                    "ticks": 210000,
                    "time": 208.333125,
                    "velocity": 0.8267716535433071
                },
                {
                    "duration": 0.11309512500002938,
                    "durationTicks": 114,
                    "midi": 52,
                    "name": "E3",
                    "ticks": 210120,
                    "time": 208.4521725,
                    "velocity": 0.7637795275590551
                },
                {
                    "duration": 0.11309512500000096,
                    "durationTicks": 114,
                    "midi": 40,
                    "name": "E2",
                    "ticks": 210240,
                    "time": 208.57122,
                    "velocity": 0.8267716535433071
                },
                {
                    "duration": 0.11309512500000096,
                    "durationTicks": 114,
                    "midi": 40,
                    "name": "E2",
                    "ticks": 210360,
                    "time": 208.6902675,
                    "velocity": 0.8267716535433071
                },
                {
                    "duration": 0.11309512500000096,
                    "durationTicks": 114,
                    "midi": 52,
                    "name": "E3",
                    "ticks": 210480,
                    "time": 208.809315,
                    "velocity": 0.905511811023622
                },
                {
                    "duration": 0.11309512500000096,
                    "durationTicks": 114,
                    "midi": 52,
                    "name": "E3",
                    "ticks": 210600,
                    "time": 208.9283625,
                    "velocity": 0.9448818897637795
                },
                {
                    "duration": 0.11309512500000096,
                    "durationTicks": 114,
                    "midi": 40,
                    "name": "E2",
                    "ticks": 210720,
                    "time": 209.04741,
                    "velocity": 0.905511811023622
                },
                {
                    "duration": 0.11309512500000096,
                    "durationTicks": 114,
                    "midi": 40,
                    "name": "E2",
                    "ticks": 210840,
                    "time": 209.1664575,
                    "velocity": 0.9448818897637795
                },
                {
                    "duration": 0.11309512500000096,
                    "durationTicks": 114,
                    "midi": 52,
                    "name": "E3",
                    "ticks": 210960,
                    "time": 209.285505,
                    "velocity": 0.905511811023622
                },
                {
                    "duration": 0.11309512500000096,
                    "durationTicks": 114,
                    "midi": 52,
                    "name": "E3",
                    "ticks": 211080,
                    "time": 209.4045525,
                    "velocity": 0.9448818897637795
                },
                {
                    "duration": 0.11309512500002938,
                    "durationTicks": 114,
                    "midi": 47,
                    "name": "B2",
                    "ticks": 211200,
                    "time": 209.5236,
                    "velocity": 0.9448818897637795
                },
                {
                    "duration": 0.11309512500000096,
                    "durationTicks": 114,
                    "midi": 47,
                    "name": "B2",
                    "ticks": 211320,
                    "time": 209.6426475,
                    "velocity": 0.9448818897637795
                },
                {
                    "duration": 0.11309512500000096,
                    "durationTicks": 114,
                    "midi": 59,
                    "name": "B3",
                    "ticks": 211440,
                    "time": 209.761695,
                    "velocity": 0.7086614173228346
                },
                {
                    "duration": 0.11309512500000096,
                    "durationTicks": 114,
                    "midi": 59,
                    "name": "B3",
                    "ticks": 211560,
                    "time": 209.8807425,
                    "velocity": 0.7322834645669292
                },
                {
                    "duration": 0.11309512500002938,
                    "durationTicks": 114,
                    "midi": 47,
                    "name": "B2",
                    "ticks": 211680,
                    "time": 209.99979,
                    "velocity": 0.905511811023622
                },
                {
                    "duration": 0.11309512500000096,
                    "durationTicks": 114,
                    "midi": 47,
                    "name": "B2",
                    "ticks": 211800,
                    "time": 210.1188375,
                    "velocity": 0.905511811023622
                },
                {
                    "duration": 0.11309512500000096,
                    "durationTicks": 114,
                    "midi": 59,
                    "name": "B3",
                    "ticks": 211920,
                    "time": 210.237885,
                    "velocity": 0.8267716535433071
                },
                {
                    "duration": 0.11309512500000096,
                    "durationTicks": 114,
                    "midi": 59,
                    "name": "B3",
                    "ticks": 212040,
                    "time": 210.3569325,
                    "velocity": 0.7637795275590551
                },
                {
                    "duration": 0.11309512500000096,
                    "durationTicks": 114,
                    "midi": 47,
                    "name": "B2",
                    "ticks": 212160,
                    "time": 210.47598,
                    "velocity": 0.8267716535433071
                },
                {
                    "duration": 0.11309512500000096,
                    "durationTicks": 114,
                    "midi": 47,
                    "name": "B2",
                    "ticks": 212280,
                    "time": 210.59502750000001,
                    "velocity": 0.8267716535433071
                },
                {
                    "duration": 0.11309512500000096,
                    "durationTicks": 114,
                    "midi": 59,
                    "name": "B3",
                    "ticks": 212400,
                    "time": 210.714075,
                    "velocity": 0.905511811023622
                },
                {
                    "duration": 0.11309512500000096,
                    "durationTicks": 114,
                    "midi": 59,
                    "name": "B3",
                    "ticks": 212520,
                    "time": 210.8331225,
                    "velocity": 0.9448818897637795
                },
                {
                    "duration": 0.11309512500000096,
                    "durationTicks": 114,
                    "midi": 47,
                    "name": "B2",
                    "ticks": 212640,
                    "time": 210.95217,
                    "velocity": 0.905511811023622
                },
                {
                    "duration": 0.11309512500002938,
                    "durationTicks": 114,
                    "midi": 47,
                    "name": "B2",
                    "ticks": 212760,
                    "time": 211.0712175,
                    "velocity": 0.9448818897637795
                },
                {
                    "duration": 0.11309512500000096,
                    "durationTicks": 114,
                    "midi": 59,
                    "name": "B3",
                    "ticks": 212880,
                    "time": 211.190265,
                    "velocity": 0.905511811023622
                },
                {
                    "duration": 0.11309512500000096,
                    "durationTicks": 114,
                    "midi": 59,
                    "name": "B3",
                    "ticks": 213000,
                    "time": 211.3093125,
                    "velocity": 0.9448818897637795
                },
                {
                    "duration": 0.11309512500000096,
                    "durationTicks": 114,
                    "midi": 42,
                    "name": "F#2",
                    "ticks": 213120,
                    "time": 211.42836,
                    "velocity": 0.9448818897637795
                },
                {
                    "duration": 0.11309512500000096,
                    "durationTicks": 114,
                    "midi": 42,
                    "name": "F#2",
                    "ticks": 213240,
                    "time": 211.5474075,
                    "velocity": 0.9448818897637795
                },
                {
                    "duration": 0.11309512500000096,
                    "durationTicks": 114,
                    "midi": 54,
                    "name": "F#3",
                    "ticks": 213360,
                    "time": 211.666455,
                    "velocity": 0.7086614173228346
                },
                {
                    "duration": 0.11309512500000096,
                    "durationTicks": 114,
                    "midi": 54,
                    "name": "F#3",
                    "ticks": 213480,
                    "time": 211.7855025,
                    "velocity": 0.7322834645669292
                },
                {
                    "duration": 0.11309512500000096,
                    "durationTicks": 114,
                    "midi": 42,
                    "name": "F#2",
                    "ticks": 213600,
                    "time": 211.90455,
                    "velocity": 0.905511811023622
                },
                {
                    "duration": 0.11309512500000096,
                    "durationTicks": 114,
                    "midi": 42,
                    "name": "F#2",
                    "ticks": 213720,
                    "time": 212.0235975,
                    "velocity": 0.905511811023622
                },
                {
                    "duration": 0.11309512500002938,
                    "durationTicks": 114,
                    "midi": 54,
                    "name": "F#3",
                    "ticks": 213840,
                    "time": 212.142645,
                    "velocity": 0.8267716535433071
                },
                {
                    "duration": 0.11309512500000096,
                    "durationTicks": 114,
                    "midi": 54,
                    "name": "F#3",
                    "ticks": 213960,
                    "time": 212.2616925,
                    "velocity": 0.7637795275590551
                },
                {
                    "duration": 0.11309512500000096,
                    "durationTicks": 114,
                    "midi": 42,
                    "name": "F#2",
                    "ticks": 214080,
                    "time": 212.38074,
                    "velocity": 0.8267716535433071
                },
                {
                    "duration": 0.11309512500000096,
                    "durationTicks": 114,
                    "midi": 42,
                    "name": "F#2",
                    "ticks": 214200,
                    "time": 212.4997875,
                    "velocity": 0.8267716535433071
                },
                {
                    "duration": 0.11309512500002938,
                    "durationTicks": 114,
                    "midi": 54,
                    "name": "F#3",
                    "ticks": 214320,
                    "time": 212.618835,
                    "velocity": 0.905511811023622
                },
                {
                    "duration": 0.11309512500000096,
                    "durationTicks": 114,
                    "midi": 54,
                    "name": "F#3",
                    "ticks": 214440,
                    "time": 212.7378825,
                    "velocity": 0.9448818897637795
                },
                {
                    "duration": 0.11309512500000096,
                    "durationTicks": 114,
                    "midi": 42,
                    "name": "F#2",
                    "ticks": 214560,
                    "time": 212.85693,
                    "velocity": 0.905511811023622
                },
                {
                    "duration": 0.11309512500000096,
                    "durationTicks": 114,
                    "midi": 42,
                    "name": "F#2",
                    "ticks": 214680,
                    "time": 212.9759775,
                    "velocity": 0.9448818897637795
                },
                {
                    "duration": 0.11309512500000096,
                    "durationTicks": 114,
                    "midi": 54,
                    "name": "F#3",
                    "ticks": 214800,
                    "time": 213.095025,
                    "velocity": 0.905511811023622
                },
                {
                    "duration": 0.11309512500000096,
                    "durationTicks": 114,
                    "midi": 54,
                    "name": "F#3",
                    "ticks": 214920,
                    "time": 213.21407250000001,
                    "velocity": 0.9448818897637795
                },
                {
                    "duration": 0.11309512500000096,
                    "durationTicks": 114,
                    "midi": 42,
                    "name": "F#2",
                    "ticks": 215040,
                    "time": 213.33312,
                    "velocity": 0.9448818897637795
                },
                {
                    "duration": 0.11309512500000096,
                    "durationTicks": 114,
                    "midi": 42,
                    "name": "F#2",
                    "ticks": 215160,
                    "time": 213.4521675,
                    "velocity": 0.9448818897637795
                },
                {
                    "duration": 0.11309512500000096,
                    "durationTicks": 114,
                    "midi": 54,
                    "name": "F#3",
                    "ticks": 215280,
                    "time": 213.571215,
                    "velocity": 0.7086614173228346
                },
                {
                    "duration": 0.11309512500002938,
                    "durationTicks": 114,
                    "midi": 54,
                    "name": "F#3",
                    "ticks": 215400,
                    "time": 213.6902625,
                    "velocity": 0.7322834645669292
                },
                {
                    "duration": 0.11309512500000096,
                    "durationTicks": 114,
                    "midi": 42,
                    "name": "F#2",
                    "ticks": 215520,
                    "time": 213.80931,
                    "velocity": 0.905511811023622
                },
                {
                    "duration": 0.11309512500000096,
                    "durationTicks": 114,
                    "midi": 42,
                    "name": "F#2",
                    "ticks": 215640,
                    "time": 213.9283575,
                    "velocity": 0.905511811023622
                },
                {
                    "duration": 0.11309512500000096,
                    "durationTicks": 114,
                    "midi": 54,
                    "name": "F#3",
                    "ticks": 215760,
                    "time": 214.047405,
                    "velocity": 0.8267716535433071
                },
                {
                    "duration": 0.11309512500000096,
                    "durationTicks": 114,
                    "midi": 54,
                    "name": "F#3",
                    "ticks": 215880,
                    "time": 214.1664525,
                    "velocity": 0.7637795275590551
                },
                {
                    "duration": 0.11309512500000096,
                    "durationTicks": 114,
                    "midi": 42,
                    "name": "F#2",
                    "ticks": 216000,
                    "time": 214.2855,
                    "velocity": 0.8267716535433071
                },
                {
                    "duration": 0.11309512500000096,
                    "durationTicks": 114,
                    "midi": 42,
                    "name": "F#2",
                    "ticks": 216120,
                    "time": 214.4045475,
                    "velocity": 0.8267716535433071
                },
                {
                    "duration": 0.11309512500000096,
                    "durationTicks": 114,
                    "midi": 54,
                    "name": "F#3",
                    "ticks": 216240,
                    "time": 214.523595,
                    "velocity": 0.905511811023622
                },
                {
                    "duration": 0.11309512500000096,
                    "durationTicks": 114,
                    "midi": 54,
                    "name": "F#3",
                    "ticks": 216360,
                    "time": 214.6426425,
                    "velocity": 0.9448818897637795
                },
                {
                    "duration": 0.11309512500002938,
                    "durationTicks": 114,
                    "midi": 42,
                    "name": "F#2",
                    "ticks": 216480,
                    "time": 214.76169,
                    "velocity": 0.905511811023622
                },
                {
                    "duration": 0.11309512500000096,
                    "durationTicks": 114,
                    "midi": 42,
                    "name": "F#2",
                    "ticks": 216600,
                    "time": 214.8807375,
                    "velocity": 0.9448818897637795
                },
                {
                    "duration": 0.11309512500000096,
                    "durationTicks": 114,
                    "midi": 54,
                    "name": "F#3",
                    "ticks": 216720,
                    "time": 214.999785,
                    "velocity": 0.905511811023622
                },
                {
                    "duration": 0.11309512500000096,
                    "durationTicks": 114,
                    "midi": 54,
                    "name": "F#3",
                    "ticks": 216840,
                    "time": 215.1188325,
                    "velocity": 0.9448818897637795
                },
                {
                    "duration": 0.11309512500002938,
                    "durationTicks": 114,
                    "midi": 40,
                    "name": "E2",
                    "ticks": 216960,
                    "time": 215.23788,
                    "velocity": 0.9448818897637795
                },
                {
                    "duration": 0.11309512500000096,
                    "durationTicks": 114,
                    "midi": 40,
                    "name": "E2",
                    "ticks": 217080,
                    "time": 215.3569275,
                    "velocity": 0.9448818897637795
                },
                {
                    "duration": 0.11309512500000096,
                    "durationTicks": 114,
                    "midi": 52,
                    "name": "E3",
                    "ticks": 217200,
                    "time": 215.475975,
                    "velocity": 0.7086614173228346
                },
                {
                    "duration": 0.11309512500000096,
                    "durationTicks": 114,
                    "midi": 52,
                    "name": "E3",
                    "ticks": 217320,
                    "time": 215.5950225,
                    "velocity": 0.7322834645669292
                },
                {
                    "duration": 0.11309512500000096,
                    "durationTicks": 114,
                    "midi": 40,
                    "name": "E2",
                    "ticks": 217440,
                    "time": 215.71407,
                    "velocity": 0.905511811023622
                },
                {
                    "duration": 0.11309512500000096,
                    "durationTicks": 114,
                    "midi": 40,
                    "name": "E2",
                    "ticks": 217560,
                    "time": 215.83311750000001,
                    "velocity": 0.905511811023622
                },
                {
                    "duration": 0.11309512500000096,
                    "durationTicks": 114,
                    "midi": 52,
                    "name": "E3",
                    "ticks": 217680,
                    "time": 215.952165,
                    "velocity": 0.8267716535433071
                },
                {
                    "duration": 0.11309512500000096,
                    "durationTicks": 114,
                    "midi": 52,
                    "name": "E3",
                    "ticks": 217800,
                    "time": 216.0712125,
                    "velocity": 0.7637795275590551
                },
                {
                    "duration": 0.11309512500000096,
                    "durationTicks": 114,
                    "midi": 40,
                    "name": "E2",
                    "ticks": 217920,
                    "time": 216.19026,
                    "velocity": 0.8267716535433071
                },
                {
                    "duration": 0.11309512500002938,
                    "durationTicks": 114,
                    "midi": 40,
                    "name": "E2",
                    "ticks": 218040,
                    "time": 216.3093075,
                    "velocity": 0.8267716535433071
                },
                {
                    "duration": 0.11309512500000096,
                    "durationTicks": 114,
                    "midi": 52,
                    "name": "E3",
                    "ticks": 218160,
                    "time": 216.428355,
                    "velocity": 0.905511811023622
                },
                {
                    "duration": 0.11309512500000096,
                    "durationTicks": 114,
                    "midi": 52,
                    "name": "E3",
                    "ticks": 218280,
                    "time": 216.5474025,
                    "velocity": 0.9448818897637795
                },
                {
                    "duration": 0.11309512500000096,
                    "durationTicks": 114,
                    "midi": 40,
                    "name": "E2",
                    "ticks": 218400,
                    "time": 216.66645,
                    "velocity": 0.905511811023622
                },
                {
                    "duration": 0.11309512500002938,
                    "durationTicks": 114,
                    "midi": 40,
                    "name": "E2",
                    "ticks": 218520,
                    "time": 216.7854975,
                    "velocity": 0.9448818897637795
                },
                {
                    "duration": 0.11309512500000096,
                    "durationTicks": 114,
                    "midi": 52,
                    "name": "E3",
                    "ticks": 218640,
                    "time": 216.904545,
                    "velocity": 0.905511811023622
                },
                {
                    "duration": 0.11309512500000096,
                    "durationTicks": 114,
                    "midi": 52,
                    "name": "E3",
                    "ticks": 218760,
                    "time": 217.0235925,
                    "velocity": 0.9448818897637795
                },
                {
                    "duration": 0.11309512500000096,
                    "durationTicks": 114,
                    "midi": 47,
                    "name": "B2",
                    "ticks": 218880,
                    "time": 217.14264,
                    "velocity": 0.9448818897637795
                },
                {
                    "duration": 0.11309512500000096,
                    "durationTicks": 114,
                    "midi": 47,
                    "name": "B2",
                    "ticks": 219000,
                    "time": 217.2616875,
                    "velocity": 0.9448818897637795
                },
                {
                    "duration": 0.11309512500002938,
                    "durationTicks": 114,
                    "midi": 59,
                    "name": "B3",
                    "ticks": 219120,
                    "time": 217.380735,
                    "velocity": 0.7086614173228346
                },
                {
                    "duration": 0.11309512500000096,
                    "durationTicks": 114,
                    "midi": 59,
                    "name": "B3",
                    "ticks": 219240,
                    "time": 217.4997825,
                    "velocity": 0.7322834645669292
                },
                {
                    "duration": 0.11309512500000096,
                    "durationTicks": 114,
                    "midi": 47,
                    "name": "B2",
                    "ticks": 219360,
                    "time": 217.61883,
                    "velocity": 0.905511811023622
                },
                {
                    "duration": 0.11309512500000096,
                    "durationTicks": 114,
                    "midi": 47,
                    "name": "B2",
                    "ticks": 219480,
                    "time": 217.7378775,
                    "velocity": 0.905511811023622
                },
                {
                    "duration": 0.11309512500002938,
                    "durationTicks": 114,
                    "midi": 59,
                    "name": "B3",
                    "ticks": 219600,
                    "time": 217.856925,
                    "velocity": 0.8267716535433071
                },
                {
                    "duration": 0.11309512500000096,
                    "durationTicks": 114,
                    "midi": 59,
                    "name": "B3",
                    "ticks": 219720,
                    "time": 217.9759725,
                    "velocity": 0.7637795275590551
                },
                {
                    "duration": 0.11309512500000096,
                    "durationTicks": 114,
                    "midi": 47,
                    "name": "B2",
                    "ticks": 219840,
                    "time": 218.09502,
                    "velocity": 0.8267716535433071
                },
                {
                    "duration": 0.11309512500000096,
                    "durationTicks": 114,
                    "midi": 47,
                    "name": "B2",
                    "ticks": 219960,
                    "time": 218.2140675,
                    "velocity": 0.8267716535433071
                },
                {
                    "duration": 0.11309512500000096,
                    "durationTicks": 114,
                    "midi": 59,
                    "name": "B3",
                    "ticks": 220080,
                    "time": 218.333115,
                    "velocity": 0.905511811023622
                },
                {
                    "duration": 0.11309512500000096,
                    "durationTicks": 114,
                    "midi": 59,
                    "name": "B3",
                    "ticks": 220200,
                    "time": 218.45216250000001,
                    "velocity": 0.9448818897637795
                },
                {
                    "duration": 0.11309512500000096,
                    "durationTicks": 114,
                    "midi": 47,
                    "name": "B2",
                    "ticks": 220320,
                    "time": 218.57121,
                    "velocity": 0.905511811023622
                },
                {
                    "duration": 0.11309512500000096,
                    "durationTicks": 114,
                    "midi": 47,
                    "name": "B2",
                    "ticks": 220440,
                    "time": 218.6902575,
                    "velocity": 0.9448818897637795
                },
                {
                    "duration": 0.11309512500000096,
                    "durationTicks": 114,
                    "midi": 59,
                    "name": "B3",
                    "ticks": 220560,
                    "time": 218.809305,
                    "velocity": 0.905511811023622
                },
                {
                    "duration": 0.11309512500002938,
                    "durationTicks": 114,
                    "midi": 59,
                    "name": "B3",
                    "ticks": 220680,
                    "time": 218.9283525,
                    "velocity": 0.9448818897637795
                },
                {
                    "duration": 0.11309512500000096,
                    "durationTicks": 114,
                    "midi": 42,
                    "name": "F#2",
                    "ticks": 220800,
                    "time": 219.0474,
                    "velocity": 0.9448818897637795
                },
                {
                    "duration": 0.11309512500000096,
                    "durationTicks": 114,
                    "midi": 42,
                    "name": "F#2",
                    "ticks": 220920,
                    "time": 219.1664475,
                    "velocity": 0.9448818897637795
                },
                {
                    "duration": 0.11309512500000096,
                    "durationTicks": 114,
                    "midi": 54,
                    "name": "F#3",
                    "ticks": 221040,
                    "time": 219.285495,
                    "velocity": 0.7086614173228346
                },
                {
                    "duration": 0.11309512500002938,
                    "durationTicks": 114,
                    "midi": 54,
                    "name": "F#3",
                    "ticks": 221160,
                    "time": 219.4045425,
                    "velocity": 0.7322834645669292
                },
                {
                    "duration": 0.11309512500000096,
                    "durationTicks": 114,
                    "midi": 42,
                    "name": "F#2",
                    "ticks": 221280,
                    "time": 219.52359,
                    "velocity": 0.905511811023622
                },
                {
                    "duration": 0.11309512500000096,
                    "durationTicks": 114,
                    "midi": 42,
                    "name": "F#2",
                    "ticks": 221400,
                    "time": 219.6426375,
                    "velocity": 0.905511811023622
                },
                {
                    "duration": 0.11309512500000096,
                    "durationTicks": 114,
                    "midi": 54,
                    "name": "F#3",
                    "ticks": 221520,
                    "time": 219.761685,
                    "velocity": 0.8267716535433071
                },
                {
                    "duration": 0.11309512500000096,
                    "durationTicks": 114,
                    "midi": 54,
                    "name": "F#3",
                    "ticks": 221640,
                    "time": 219.8807325,
                    "velocity": 0.7637795275590551
                },
                {
                    "duration": 0.11309512500002938,
                    "durationTicks": 114,
                    "midi": 42,
                    "name": "F#2",
                    "ticks": 221760,
                    "time": 219.99978,
                    "velocity": 0.8267716535433071
                },
                {
                    "duration": 0.11309512500000096,
                    "durationTicks": 114,
                    "midi": 42,
                    "name": "F#2",
                    "ticks": 221880,
                    "time": 220.1188275,
                    "velocity": 0.8267716535433071
                },
                {
                    "duration": 0.11309512500000096,
                    "durationTicks": 114,
                    "midi": 54,
                    "name": "F#3",
                    "ticks": 222000,
                    "time": 220.237875,
                    "velocity": 0.905511811023622
                },
                {
                    "duration": 0.11309512500000096,
                    "durationTicks": 114,
                    "midi": 54,
                    "name": "F#3",
                    "ticks": 222120,
                    "time": 220.3569225,
                    "velocity": 0.9448818897637795
                },
                {
                    "duration": 0.11309512500002938,
                    "durationTicks": 114,
                    "midi": 42,
                    "name": "F#2",
                    "ticks": 222240,
                    "time": 220.47597,
                    "velocity": 0.905511811023622
                },
                {
                    "duration": 0.11309512500000096,
                    "durationTicks": 114,
                    "midi": 42,
                    "name": "F#2",
                    "ticks": 222360,
                    "time": 220.5950175,
                    "velocity": 0.9448818897637795
                },
                {
                    "duration": 0.11309512500000096,
                    "durationTicks": 114,
                    "midi": 54,
                    "name": "F#3",
                    "ticks": 222480,
                    "time": 220.714065,
                    "velocity": 0.905511811023622
                },
                {
                    "duration": 0.11309512500000096,
                    "durationTicks": 114,
                    "midi": 54,
                    "name": "F#3",
                    "ticks": 222600,
                    "time": 220.8331125,
                    "velocity": 0.9448818897637795
                },
                {
                    "duration": 0.11309512500000096,
                    "durationTicks": 114,
                    "midi": 42,
                    "name": "F#2",
                    "ticks": 222720,
                    "time": 220.95216,
                    "velocity": 0.9448818897637795
                },
                {
                    "duration": 0.11309512500000096,
                    "durationTicks": 114,
                    "midi": 42,
                    "name": "F#2",
                    "ticks": 222840,
                    "time": 221.0712075,
                    "velocity": 0.9448818897637795
                },
                {
                    "duration": 0.11309512500000096,
                    "durationTicks": 114,
                    "midi": 54,
                    "name": "F#3",
                    "ticks": 222960,
                    "time": 221.190255,
                    "velocity": 0.7086614173228346
                },
                {
                    "duration": 0.11309512500000096,
                    "durationTicks": 114,
                    "midi": 54,
                    "name": "F#3",
                    "ticks": 223080,
                    "time": 221.3093025,
                    "velocity": 0.7322834645669292
                },
                {
                    "duration": 0.11309512500000096,
                    "durationTicks": 114,
                    "midi": 42,
                    "name": "F#2",
                    "ticks": 223200,
                    "time": 221.42835,
                    "velocity": 0.905511811023622
                },
                {
                    "duration": 0.11309512500002938,
                    "durationTicks": 114,
                    "midi": 42,
                    "name": "F#2",
                    "ticks": 223320,
                    "time": 221.5473975,
                    "velocity": 0.905511811023622
                },
                {
                    "duration": 0.11309512500000096,
                    "durationTicks": 114,
                    "midi": 54,
                    "name": "F#3",
                    "ticks": 223440,
                    "time": 221.666445,
                    "velocity": 0.8267716535433071
                },
                {
                    "duration": 0.11309512500000096,
                    "durationTicks": 114,
                    "midi": 54,
                    "name": "F#3",
                    "ticks": 223560,
                    "time": 221.7854925,
                    "velocity": 0.7637795275590551
                },
                {
                    "duration": 0.11309512500000096,
                    "durationTicks": 114,
                    "midi": 42,
                    "name": "F#2",
                    "ticks": 223680,
                    "time": 221.90454,
                    "velocity": 0.8267716535433071
                },
                {
                    "duration": 0.11309512500002938,
                    "durationTicks": 114,
                    "midi": 42,
                    "name": "F#2",
                    "ticks": 223800,
                    "time": 222.0235875,
                    "velocity": 0.8267716535433071
                },
                {
                    "duration": 0.11309512500000096,
                    "durationTicks": 114,
                    "midi": 54,
                    "name": "F#3",
                    "ticks": 223920,
                    "time": 222.142635,
                    "velocity": 0.905511811023622
                },
                {
                    "duration": 0.11309512500000096,
                    "durationTicks": 114,
                    "midi": 54,
                    "name": "F#3",
                    "ticks": 224040,
                    "time": 222.2616825,
                    "velocity": 0.9448818897637795
                },
                {
                    "duration": 0.11309512500000096,
                    "durationTicks": 114,
                    "midi": 42,
                    "name": "F#2",
                    "ticks": 224160,
                    "time": 222.38073,
                    "velocity": 0.905511811023622
                },
                {
                    "duration": 0.11309512500000096,
                    "durationTicks": 114,
                    "midi": 42,
                    "name": "F#2",
                    "ticks": 224280,
                    "time": 222.4997775,
                    "velocity": 0.9448818897637795
                },
                {
                    "duration": 0.11309512500002938,
                    "durationTicks": 114,
                    "midi": 54,
                    "name": "F#3",
                    "ticks": 224400,
                    "time": 222.618825,
                    "velocity": 0.905511811023622
                },
                {
                    "duration": 0.11309512500000096,
                    "durationTicks": 114,
                    "midi": 54,
                    "name": "F#3",
                    "ticks": 224520,
                    "time": 222.7378725,
                    "velocity": 0.9448818897637795
                },
                {
                    "duration": 0.11309512500000096,
                    "durationTicks": 114,
                    "midi": 40,
                    "name": "E2",
                    "ticks": 224640,
                    "time": 222.85692,
                    "velocity": 0.9448818897637795
                },
                {
                    "duration": 0.11309512500000096,
                    "durationTicks": 114,
                    "midi": 40,
                    "name": "E2",
                    "ticks": 224760,
                    "time": 222.9759675,
                    "velocity": 0.9448818897637795
                },
                {
                    "duration": 0.11309512500002938,
                    "durationTicks": 114,
                    "midi": 52,
                    "name": "E3",
                    "ticks": 224880,
                    "time": 223.095015,
                    "velocity": 0.7086614173228346
                },
                {
                    "duration": 0.11309512500000096,
                    "durationTicks": 114,
                    "midi": 52,
                    "name": "E3",
                    "ticks": 225000,
                    "time": 223.2140625,
                    "velocity": 0.7322834645669292
                },
                {
                    "duration": 0.11309512500000096,
                    "durationTicks": 114,
                    "midi": 40,
                    "name": "E2",
                    "ticks": 225120,
                    "time": 223.33311,
                    "velocity": 0.905511811023622
                },
                {
                    "duration": 0.11309512500000096,
                    "durationTicks": 114,
                    "midi": 40,
                    "name": "E2",
                    "ticks": 225240,
                    "time": 223.4521575,
                    "velocity": 0.905511811023622
                },
                {
                    "duration": 0.11309512500000096,
                    "durationTicks": 114,
                    "midi": 52,
                    "name": "E3",
                    "ticks": 225360,
                    "time": 223.571205,
                    "velocity": 0.8267716535433071
                },
                {
                    "duration": 0.11309512500000096,
                    "durationTicks": 114,
                    "midi": 52,
                    "name": "E3",
                    "ticks": 225480,
                    "time": 223.6902525,
                    "velocity": 0.7637795275590551
                },
                {
                    "duration": 0.11309512500000096,
                    "durationTicks": 114,
                    "midi": 40,
                    "name": "E2",
                    "ticks": 225600,
                    "time": 223.8093,
                    "velocity": 0.8267716535433071
                },
                {
                    "duration": 0.11309512500000096,
                    "durationTicks": 114,
                    "midi": 40,
                    "name": "E2",
                    "ticks": 225720,
                    "time": 223.9283475,
                    "velocity": 0.8267716535433071
                },
                {
                    "duration": 0.11309512500000096,
                    "durationTicks": 114,
                    "midi": 52,
                    "name": "E3",
                    "ticks": 225840,
                    "time": 224.047395,
                    "velocity": 0.905511811023622
                },
                {
                    "duration": 0.11309512500002938,
                    "durationTicks": 114,
                    "midi": 52,
                    "name": "E3",
                    "ticks": 225960,
                    "time": 224.1664425,
                    "velocity": 0.9448818897637795
                },
                {
                    "duration": 0.11309512500000096,
                    "durationTicks": 114,
                    "midi": 40,
                    "name": "E2",
                    "ticks": 226080,
                    "time": 224.28549,
                    "velocity": 0.905511811023622
                },
                {
                    "duration": 0.11309512500000096,
                    "durationTicks": 114,
                    "midi": 40,
                    "name": "E2",
                    "ticks": 226200,
                    "time": 224.4045375,
                    "velocity": 0.9448818897637795
                },
                {
                    "duration": 0.11309512500000096,
                    "durationTicks": 114,
                    "midi": 52,
                    "name": "E3",
                    "ticks": 226320,
                    "time": 224.523585,
                    "velocity": 0.905511811023622
                },
                {
                    "duration": 0.11309512500002938,
                    "durationTicks": 114,
                    "midi": 52,
                    "name": "E3",
                    "ticks": 226440,
                    "time": 224.6426325,
                    "velocity": 0.9448818897637795
                },
                {
                    "duration": 0.11309512500000096,
                    "durationTicks": 114,
                    "midi": 47,
                    "name": "B2",
                    "ticks": 226560,
                    "time": 224.76168,
                    "velocity": 0.9448818897637795
                },
                {
                    "duration": 0.11309512500000096,
                    "durationTicks": 114,
                    "midi": 47,
                    "name": "B2",
                    "ticks": 226680,
                    "time": 224.8807275,
                    "velocity": 0.9448818897637795
                },
                {
                    "duration": 0.11309512500000096,
                    "durationTicks": 114,
                    "midi": 59,
                    "name": "B3",
                    "ticks": 226800,
                    "time": 224.999775,
                    "velocity": 0.7086614173228346
                },
                {
                    "duration": 0.11309512500000096,
                    "durationTicks": 114,
                    "midi": 59,
                    "name": "B3",
                    "ticks": 226920,
                    "time": 225.1188225,
                    "velocity": 0.7322834645669292
                },
                {
                    "duration": 0.11309512500000096,
                    "durationTicks": 114,
                    "midi": 47,
                    "name": "B2",
                    "ticks": 227040,
                    "time": 225.23787000000002,
                    "velocity": 0.905511811023622
                },
                {
                    "duration": 0.11309512500000096,
                    "durationTicks": 114,
                    "midi": 47,
                    "name": "B2",
                    "ticks": 227160,
                    "time": 225.3569175,
                    "velocity": 0.905511811023622
                },
                {
                    "duration": 0.11309512500000096,
                    "durationTicks": 114,
                    "midi": 59,
                    "name": "B3",
                    "ticks": 227280,
                    "time": 225.475965,
                    "velocity": 0.8267716535433071
                },
                {
                    "duration": 0.11309512500000096,
                    "durationTicks": 114,
                    "midi": 59,
                    "name": "B3",
                    "ticks": 227400,
                    "time": 225.5950125,
                    "velocity": 0.7637795275590551
                },
                {
                    "duration": 0.11309512500002938,
                    "durationTicks": 114,
                    "midi": 47,
                    "name": "B2",
                    "ticks": 227520,
                    "time": 225.71406,
                    "velocity": 0.8267716535433071
                },
                {
                    "duration": 0.11309512500000096,
                    "durationTicks": 114,
                    "midi": 47,
                    "name": "B2",
                    "ticks": 227640,
                    "time": 225.8331075,
                    "velocity": 0.8267716535433071
                },
                {
                    "duration": 0.11309512500000096,
                    "durationTicks": 114,
                    "midi": 59,
                    "name": "B3",
                    "ticks": 227760,
                    "time": 225.952155,
                    "velocity": 0.905511811023622
                },
                {
                    "duration": 0.11309512500000096,
                    "durationTicks": 114,
                    "midi": 59,
                    "name": "B3",
                    "ticks": 227880,
                    "time": 226.0712025,
                    "velocity": 0.9448818897637795
                },
                {
                    "duration": 0.11309512500000096,
                    "durationTicks": 114,
                    "midi": 47,
                    "name": "B2",
                    "ticks": 228000,
                    "time": 226.19025,
                    "velocity": 0.905511811023622
                },
                {
                    "duration": 0.11309512500000096,
                    "durationTicks": 114,
                    "midi": 47,
                    "name": "B2",
                    "ticks": 228120,
                    "time": 226.3092975,
                    "velocity": 0.9448818897637795
                },
                {
                    "duration": 0.11309512500000096,
                    "durationTicks": 114,
                    "midi": 59,
                    "name": "B3",
                    "ticks": 228240,
                    "time": 226.428345,
                    "velocity": 0.905511811023622
                },
                {
                    "duration": 0.11309512500000096,
                    "durationTicks": 114,
                    "midi": 59,
                    "name": "B3",
                    "ticks": 228360,
                    "time": 226.5473925,
                    "velocity": 0.9448818897637795
                },
                {
                    "duration": 0.11309512500000096,
                    "durationTicks": 114,
                    "midi": 42,
                    "name": "F#2",
                    "ticks": 228480,
                    "time": 226.66644,
                    "velocity": 0.9448818897637795
                },
                {
                    "duration": 0.11309512500002938,
                    "durationTicks": 114,
                    "midi": 42,
                    "name": "F#2",
                    "ticks": 228600,
                    "time": 226.7854875,
                    "velocity": 0.9448818897637795
                },
                {
                    "duration": 0.11309512500000096,
                    "durationTicks": 114,
                    "midi": 54,
                    "name": "F#3",
                    "ticks": 228720,
                    "time": 226.904535,
                    "velocity": 0.7086614173228346
                },
                {
                    "duration": 0.11309512500000096,
                    "durationTicks": 114,
                    "midi": 54,
                    "name": "F#3",
                    "ticks": 228840,
                    "time": 227.0235825,
                    "velocity": 0.7322834645669292
                },
                {
                    "duration": 0.11309512500000096,
                    "durationTicks": 114,
                    "midi": 42,
                    "name": "F#2",
                    "ticks": 228960,
                    "time": 227.14263,
                    "velocity": 0.905511811023622
                },
                {
                    "duration": 0.11309512500002938,
                    "durationTicks": 114,
                    "midi": 42,
                    "name": "F#2",
                    "ticks": 229080,
                    "time": 227.2616775,
                    "velocity": 0.905511811023622
                },
                {
                    "duration": 0.11309512500000096,
                    "durationTicks": 114,
                    "midi": 54,
                    "name": "F#3",
                    "ticks": 229200,
                    "time": 227.380725,
                    "velocity": 0.8267716535433071
                },
                {
                    "duration": 0.11309512500000096,
                    "durationTicks": 114,
                    "midi": 54,
                    "name": "F#3",
                    "ticks": 229320,
                    "time": 227.4997725,
                    "velocity": 0.7637795275590551
                },
                {
                    "duration": 0.11309512500000096,
                    "durationTicks": 114,
                    "midi": 42,
                    "name": "F#2",
                    "ticks": 229440,
                    "time": 227.61882,
                    "velocity": 0.8267716535433071
                },
                {
                    "duration": 0.11309512500000096,
                    "durationTicks": 114,
                    "midi": 42,
                    "name": "F#2",
                    "ticks": 229560,
                    "time": 227.7378675,
                    "velocity": 0.8267716535433071
                },
                {
                    "duration": 0.11309512500000096,
                    "durationTicks": 114,
                    "midi": 54,
                    "name": "F#3",
                    "ticks": 229680,
                    "time": 227.85691500000001,
                    "velocity": 0.905511811023622
                },
                {
                    "duration": 0.11309512500000096,
                    "durationTicks": 114,
                    "midi": 54,
                    "name": "F#3",
                    "ticks": 229800,
                    "time": 227.9759625,
                    "velocity": 0.9448818897637795
                },
                {
                    "duration": 0.11309512500000096,
                    "durationTicks": 114,
                    "midi": 42,
                    "name": "F#2",
                    "ticks": 229920,
                    "time": 228.09501,
                    "velocity": 0.905511811023622
                },
                {
                    "duration": 0.11309512500000096,
                    "durationTicks": 114,
                    "midi": 42,
                    "name": "F#2",
                    "ticks": 230040,
                    "time": 228.2140575,
                    "velocity": 0.9448818897637795
                },
                {
                    "duration": 0.11309512500002938,
                    "durationTicks": 114,
                    "midi": 54,
                    "name": "F#3",
                    "ticks": 230160,
                    "time": 228.333105,
                    "velocity": 0.905511811023622
                },
                {
                    "duration": 0.11309512500000096,
                    "durationTicks": 114,
                    "midi": 54,
                    "name": "F#3",
                    "ticks": 230280,
                    "time": 228.4521525,
                    "velocity": 0.9448818897637795
                }
            ]
        },
        {
            "channel": 0,
            "controlChanges": {
                "0": [
                    {
                        "number": 0,
                        "ticks": 0,
                        "time": 0,
                        "value": 0
                    }
                ]
            },
            "pitchBends": [],
            "instrument": {
                "family": "piano",
                "name": "acoustic grand piano",
                "number": 0
            },
            "name": "Lead 2 (sawtooth)",
            "notes": []
        },
        {
            "channel": 12,
            "controlChanges": {
                "1": [
                    {
                        "number": 1,
                        "ticks": 835,
                        "time": 0.8283721875,
                        "value": 0
                    }
                ],
                "7": [
                    {
                        "number": 7,
                        "ticks": 510,
                        "time": 0.505951875,
                        "value": 0.7244094488188977
                    },
                    {
                        "number": 7,
                        "ticks": 44625,
                        "time": 44.2707890625,
                        "value": 0.6692913385826772
                    },
                    {
                        "number": 7,
                        "ticks": 45495,
                        "time": 45.1338834375,
                        "value": 0.6771653543307087
                    },
                    {
                        "number": 7,
                        "ticks": 46365,
                        "time": 45.9969778125,
                        "value": 0.6850393700787402
                    },
                    {
                        "number": 7,
                        "ticks": 47205,
                        "time": 46.8303103125,
                        "value": 0.6929133858267716
                    },
                    {
                        "number": 7,
                        "ticks": 48075,
                        "time": 47.6934046875,
                        "value": 0.7007874015748031
                    },
                    {
                        "number": 7,
                        "ticks": 48945,
                        "time": 48.5564990625,
                        "value": 0.7086614173228346
                    },
                    {
                        "number": 7,
                        "ticks": 49785,
                        "time": 49.3898315625,
                        "value": 0.7165354330708661
                    },
                    {
                        "number": 7,
                        "ticks": 49920,
                        "time": 49.52376,
                        "value": 0.7322834645669292
                    },
                    {
                        "number": 7,
                        "ticks": 49995,
                        "time": 49.5981646875,
                        "value": 0.7007874015748031
                    },
                    {
                        "number": 7,
                        "ticks": 50865,
                        "time": 50.4612590625,
                        "value": 0.7086614173228346
                    },
                    {
                        "number": 7,
                        "ticks": 51705,
                        "time": 51.2945915625,
                        "value": 0.7165354330708661
                    },
                    {
                        "number": 7,
                        "ticks": 51915,
                        "time": 51.5029246875,
                        "value": 0.7007874015748031
                    },
                    {
                        "number": 7,
                        "ticks": 52785,
                        "time": 52.3660190625,
                        "value": 0.7086614173228346
                    },
                    {
                        "number": 7,
                        "ticks": 53625,
                        "time": 53.1993515625,
                        "value": 0.7165354330708661
                    },
                    {
                        "number": 7,
                        "ticks": 53760,
                        "time": 53.33328,
                        "value": 0.7322834645669292
                    },
                    {
                        "number": 7,
                        "ticks": 54045,
                        "time": 53.6160178125,
                        "value": 0.6850393700787402
                    },
                    {
                        "number": 7,
                        "ticks": 54885,
                        "time": 54.4493503125,
                        "value": 0.6929133858267716
                    },
                    {
                        "number": 7,
                        "ticks": 55755,
                        "time": 55.3124446875,
                        "value": 0.7007874015748031
                    },
                    {
                        "number": 7,
                        "ticks": 56625,
                        "time": 56.1755390625,
                        "value": 0.7086614173228346
                    },
                    {
                        "number": 7,
                        "ticks": 57465,
                        "time": 57.0088715625,
                        "value": 0.7165354330708661
                    },
                    {
                        "number": 7,
                        "ticks": 57600,
                        "time": 57.1428,
                        "value": 0.7322834645669292
                    },
                    {
                        "number": 7,
                        "ticks": 57675,
                        "time": 57.2172046875,
                        "value": 0.7007874015748031
                    },
                    {
                        "number": 7,
                        "ticks": 58545,
                        "time": 58.0802990625,
                        "value": 0.7086614173228346
                    },
                    {
                        "number": 7,
                        "ticks": 59385,
                        "time": 58.9136315625,
                        "value": 0.7165354330708661
                    },
                    {
                        "number": 7,
                        "ticks": 115485,
                        "time": 114.5683378125,
                        "value": 0.6850393700787402
                    },
                    {
                        "number": 7,
                        "ticks": 116325,
                        "time": 115.4016703125,
                        "value": 0.6929133858267716
                    },
                    {
                        "number": 7,
                        "ticks": 117195,
                        "time": 116.2647646875,
                        "value": 0.7007874015748031
                    },
                    {
                        "number": 7,
                        "ticks": 118065,
                        "time": 117.1278590625,
                        "value": 0.7086614173228346
                    },
                    {
                        "number": 7,
                        "ticks": 118905,
                        "time": 117.9611915625,
                        "value": 0.7165354330708661
                    },
                    {
                        "number": 7,
                        "ticks": 119040,
                        "time": 118.09512,
                        "value": 0.7322834645669292
                    },
                    {
                        "number": 7,
                        "ticks": 119115,
                        "time": 118.1695246875,
                        "value": 0.7007874015748031
                    },
                    {
                        "number": 7,
                        "ticks": 119985,
                        "time": 119.0326190625,
                        "value": 0.7086614173228346
                    },
                    {
                        "number": 7,
                        "ticks": 120825,
                        "time": 119.8659515625,
                        "value": 0.7165354330708661
                    },
                    {
                        "number": 7,
                        "ticks": 121035,
                        "time": 120.0742846875,
                        "value": 0.7007874015748031
                    },
                    {
                        "number": 7,
                        "ticks": 121905,
                        "time": 120.9373790625,
                        "value": 0.7086614173228346
                    },
                    {
                        "number": 7,
                        "ticks": 122745,
                        "time": 121.7707115625,
                        "value": 0.7165354330708661
                    },
                    {
                        "number": 7,
                        "ticks": 122880,
                        "time": 121.90464,
                        "value": 0.7322834645669292
                    },
                    {
                        "number": 7,
                        "ticks": 123165,
                        "time": 122.1873778125,
                        "value": 0.6850393700787402
                    },
                    {
                        "number": 7,
                        "ticks": 124005,
                        "time": 123.0207103125,
                        "value": 0.6929133858267716
                    },
                    {
                        "number": 7,
                        "ticks": 124875,
                        "time": 123.8838046875,
                        "value": 0.7007874015748031
                    },
                    {
                        "number": 7,
                        "ticks": 125745,
                        "time": 124.7468990625,
                        "value": 0.7086614173228346
                    },
                    {
                        "number": 7,
                        "ticks": 126585,
                        "time": 125.5802315625,
                        "value": 0.7165354330708661
                    },
                    {
                        "number": 7,
                        "ticks": 126720,
                        "time": 125.71416,
                        "value": 0.7322834645669292
                    },
                    {
                        "number": 7,
                        "ticks": 126795,
                        "time": 125.7885646875,
                        "value": 0.7007874015748031
                    },
                    {
                        "number": 7,
                        "ticks": 127665,
                        "time": 126.6516590625,
                        "value": 0.7086614173228346
                    },
                    {
                        "number": 7,
                        "ticks": 128505,
                        "time": 127.4849915625,
                        "value": 0.7165354330708661
                    }
                ],
                "10": [
                    {
                        "number": 10,
                        "ticks": 560,
                        "time": 0.555555,
                        "value": 0.47244094488188976
                    }
                ],
                "11": [
                    {
                        "number": 11,
                        "ticks": 785,
                        "time": 0.7787690625,
                        "value": 1
                    }
                ],
                "64": [
                    {
                        "number": 64,
                        "ticks": 735,
                        "time": 0.7291659375,
                        "value": 0
                    }
                ],
                "91": [
                    {
                        "number": 91,
                        "ticks": 635,
                        "time": 0.6299596875000001,
                        "value": 0.7401574803149606
                    }
                ],
                "93": [
                    {
                        "number": 93,
                        "ticks": 685,
                        "time": 0.6795628125,
                        "value": 0.29133858267716534
                    }
                ],
                "120": [
                    {
                        "number": 120,
                        "ticks": 49920,
                        "time": 49.52376,
                        "value": 0
                    },
                    {
                        "number": 120,
                        "ticks": 53760,
                        "time": 53.33328,
                        "value": 0
                    },
                    {
                        "number": 120,
                        "ticks": 57600,
                        "time": 57.1428,
                        "value": 0
                    },
                    {
                        "number": 120,
                        "ticks": 119040,
                        "time": 118.09512,
                        "value": 0
                    },
                    {
                        "number": 120,
                        "ticks": 122880,
                        "time": 121.90464,
                        "value": 0
                    },
                    {
                        "number": 120,
                        "ticks": 126720,
                        "time": 125.71416,
                        "value": 0
                    }
                ],
                "121": [
                    {
                        "number": 121,
                        "ticks": 342,
                        "time": 0.339285375,
                        "value": 0
                    }
                ],
                "123": [
                    {
                        "number": 123,
                        "ticks": 49920,
                        "time": 49.52376,
                        "value": 0
                    },
                    {
                        "number": 123,
                        "ticks": 53760,
                        "time": 53.33328,
                        "value": 0
                    },
                    {
                        "number": 123,
                        "ticks": 57600,
                        "time": 57.1428,
                        "value": 0
                    },
                    {
                        "number": 123,
                        "ticks": 119040,
                        "time": 118.09512,
                        "value": 0
                    },
                    {
                        "number": 123,
                        "ticks": 122880,
                        "time": 121.90464,
                        "value": 0
                    },
                    {
                        "number": 123,
                        "ticks": 126720,
                        "time": 125.71416,
                        "value": 0
                    }
                ]
            },
            "pitchBends": [
                {
                    "ticks": 885,
                    "time": 0.8779753125,
                    "value": 0
                }
            ],
            "instrument": {
                "family": "synth lead",
                "name": "lead 2 (sawtooth)",
                "number": 81
            },
            "name": "",
            "notes": [
                {
                    "duration": 3.8035676249999995,
                    "durationTicks": 3834,
                    "midi": 35,
                    "name": "B1",
                    "ticks": 19200,
                    "time": 19.0476,
                    "velocity": 0.7952755905511811
                },
                {
                    "duration": 3.8035676249999995,
                    "durationTicks": 3834,
                    "midi": 47,
                    "name": "B2",
                    "ticks": 19200,
                    "time": 19.0476,
                    "velocity": 0.8582677165354331
                },
                {
                    "duration": 0.23214262499999805,
                    "durationTicks": 234,
                    "midi": 30,
                    "name": "F#1",
                    "ticks": 23040,
                    "time": 22.857120000000002,
                    "velocity": 0.7952755905511811
                },
                {
                    "duration": 0.23214262499999805,
                    "durationTicks": 234,
                    "midi": 42,
                    "name": "F#2",
                    "ticks": 23280,
                    "time": 23.095215,
                    "velocity": 0.7952755905511811
                },
                {
                    "duration": 0.23214262499999805,
                    "durationTicks": 234,
                    "midi": 30,
                    "name": "F#1",
                    "ticks": 23520,
                    "time": 23.33331,
                    "velocity": 0.7952755905511811
                },
                {
                    "duration": 0.2321426250000016,
                    "durationTicks": 234,
                    "midi": 42,
                    "name": "F#2",
                    "ticks": 23760,
                    "time": 23.571405,
                    "velocity": 0.7952755905511811
                },
                {
                    "duration": 0.23214262499999805,
                    "durationTicks": 234,
                    "midi": 30,
                    "name": "F#1",
                    "ticks": 24000,
                    "time": 23.8095,
                    "velocity": 0.7952755905511811
                },
                {
                    "duration": 0.23214262499999805,
                    "durationTicks": 234,
                    "midi": 42,
                    "name": "F#2",
                    "ticks": 24240,
                    "time": 24.047595,
                    "velocity": 0.7952755905511811
                },
                {
                    "duration": 0.2321426250000016,
                    "durationTicks": 234,
                    "midi": 30,
                    "name": "F#1",
                    "ticks": 24480,
                    "time": 24.28569,
                    "velocity": 0.7952755905511811
                },
                {
                    "duration": 0.23214262499999805,
                    "durationTicks": 234,
                    "midi": 42,
                    "name": "F#2",
                    "ticks": 24720,
                    "time": 24.523785,
                    "velocity": 0.7952755905511811
                },
                {
                    "duration": 0.23214262499999805,
                    "durationTicks": 234,
                    "midi": 28,
                    "name": "E1",
                    "ticks": 24960,
                    "time": 24.76188,
                    "velocity": 0.7952755905511811
                },
                {
                    "duration": 0.23214262499999805,
                    "durationTicks": 234,
                    "midi": 40,
                    "name": "E2",
                    "ticks": 25200,
                    "time": 24.999975,
                    "velocity": 0.7952755905511811
                },
                {
                    "duration": 0.23214262499999805,
                    "durationTicks": 234,
                    "midi": 28,
                    "name": "E1",
                    "ticks": 25440,
                    "time": 25.23807,
                    "velocity": 0.7952755905511811
                },
                {
                    "duration": 0.23214262499999805,
                    "durationTicks": 234,
                    "midi": 40,
                    "name": "E2",
                    "ticks": 25680,
                    "time": 25.476165,
                    "velocity": 0.7952755905511811
                },
                {
                    "duration": 0.23214262499999805,
                    "durationTicks": 234,
                    "midi": 28,
                    "name": "E1",
                    "ticks": 25920,
                    "time": 25.71426,
                    "velocity": 0.7952755905511811
                },
                {
                    "duration": 0.23214262499999805,
                    "durationTicks": 234,
                    "midi": 40,
                    "name": "E2",
                    "ticks": 26160,
                    "time": 25.952355,
                    "velocity": 0.7952755905511811
                },
                {
                    "duration": 0.2321426250000016,
                    "durationTicks": 234,
                    "midi": 28,
                    "name": "E1",
                    "ticks": 26400,
                    "time": 26.19045,
                    "velocity": 0.7952755905511811
                },
                {
                    "duration": 0.23214262499999805,
                    "durationTicks": 234,
                    "midi": 40,
                    "name": "E2",
                    "ticks": 26640,
                    "time": 26.428545,
                    "velocity": 0.7952755905511811
                },
                {
                    "duration": 0.23214262499999805,
                    "durationTicks": 234,
                    "midi": 35,
                    "name": "B1",
                    "ticks": 26880,
                    "time": 26.66664,
                    "velocity": 0.7952755905511811
                },
                {
                    "duration": 0.2321426250000016,
                    "durationTicks": 234,
                    "midi": 47,
                    "name": "B2",
                    "ticks": 27120,
                    "time": 26.904735,
                    "velocity": 0.7952755905511811
                },
                {
                    "duration": 0.23214262499999805,
                    "durationTicks": 234,
                    "midi": 35,
                    "name": "B1",
                    "ticks": 27360,
                    "time": 27.14283,
                    "velocity": 0.7952755905511811
                },
                {
                    "duration": 0.23214262499999805,
                    "durationTicks": 234,
                    "midi": 47,
                    "name": "B2",
                    "ticks": 27600,
                    "time": 27.380925,
                    "velocity": 0.7952755905511811
                },
                {
                    "duration": 0.23214262499999805,
                    "durationTicks": 234,
                    "midi": 35,
                    "name": "B1",
                    "ticks": 27840,
                    "time": 27.61902,
                    "velocity": 0.7952755905511811
                },
                {
                    "duration": 0.23214262499999805,
                    "durationTicks": 234,
                    "midi": 47,
                    "name": "B2",
                    "ticks": 28080,
                    "time": 27.857115,
                    "velocity": 0.7952755905511811
                },
                {
                    "duration": 0.23214262499999805,
                    "durationTicks": 234,
                    "midi": 35,
                    "name": "B1",
                    "ticks": 28320,
                    "time": 28.09521,
                    "velocity": 0.7952755905511811
                },
                {
                    "duration": 0.23214262499999805,
                    "durationTicks": 234,
                    "midi": 47,
                    "name": "B2",
                    "ticks": 28560,
                    "time": 28.333305,
                    "velocity": 0.7952755905511811
                },
                {
                    "duration": 0.23214262499999805,
                    "durationTicks": 234,
                    "midi": 30,
                    "name": "F#1",
                    "ticks": 28800,
                    "time": 28.5714,
                    "velocity": 0.7952755905511811
                },
                {
                    "duration": 0.23214262499999805,
                    "durationTicks": 234,
                    "midi": 42,
                    "name": "F#2",
                    "ticks": 29040,
                    "time": 28.809495000000002,
                    "velocity": 0.7952755905511811
                },
                {
                    "duration": 0.23214262499999805,
                    "durationTicks": 234,
                    "midi": 30,
                    "name": "F#1",
                    "ticks": 29280,
                    "time": 29.04759,
                    "velocity": 0.7952755905511811
                },
                {
                    "duration": 0.23214262499999805,
                    "durationTicks": 234,
                    "midi": 42,
                    "name": "F#2",
                    "ticks": 29520,
                    "time": 29.285685,
                    "velocity": 0.7952755905511811
                },
                {
                    "duration": 0.2321426250000016,
                    "durationTicks": 234,
                    "midi": 30,
                    "name": "F#1",
                    "ticks": 29760,
                    "time": 29.52378,
                    "velocity": 0.7952755905511811
                },
                {
                    "duration": 0.23214262499999805,
                    "durationTicks": 234,
                    "midi": 42,
                    "name": "F#2",
                    "ticks": 30000,
                    "time": 29.761875,
                    "velocity": 0.7952755905511811
                },
                {
                    "duration": 0.23214262499999805,
                    "durationTicks": 234,
                    "midi": 30,
                    "name": "F#1",
                    "ticks": 30240,
                    "time": 29.99997,
                    "velocity": 0.7952755905511811
                },
                {
                    "duration": 0.2321426250000016,
                    "durationTicks": 234,
                    "midi": 42,
                    "name": "F#2",
                    "ticks": 30480,
                    "time": 30.238065,
                    "velocity": 0.7952755905511811
                },
                {
                    "duration": 0.4702376249999958,
                    "durationTicks": 474,
                    "midi": 35,
                    "name": "B1",
                    "ticks": 44160,
                    "time": 43.80948,
                    "velocity": 0.6220472440944882
                },
                {
                    "duration": 0.4702376249999958,
                    "durationTicks": 474,
                    "midi": 35,
                    "name": "B1",
                    "ticks": 44640,
                    "time": 44.28567,
                    "velocity": 0.6850393700787402
                },
                {
                    "duration": 0.4702376250000029,
                    "durationTicks": 474,
                    "midi": 35,
                    "name": "B1",
                    "ticks": 45120,
                    "time": 44.76186,
                    "velocity": 0.6535433070866141
                },
                {
                    "duration": 0.4702376249999958,
                    "durationTicks": 474,
                    "midi": 35,
                    "name": "B1",
                    "ticks": 45600,
                    "time": 45.23805,
                    "velocity": 0.6535433070866141
                },
                {
                    "duration": 0.2321426249999945,
                    "durationTicks": 234,
                    "midi": 30,
                    "name": "F#1",
                    "ticks": 46080,
                    "time": 45.714240000000004,
                    "velocity": 0.6929133858267716
                },
                {
                    "duration": 0.2321426250000016,
                    "durationTicks": 234,
                    "midi": 42,
                    "name": "F#2",
                    "ticks": 46320,
                    "time": 45.952335,
                    "velocity": 0.6929133858267716
                },
                {
                    "duration": 0.2321426250000016,
                    "durationTicks": 234,
                    "midi": 30,
                    "name": "F#1",
                    "ticks": 46560,
                    "time": 46.19043,
                    "velocity": 0.6929133858267716
                },
                {
                    "duration": 0.2321426250000016,
                    "durationTicks": 234,
                    "midi": 42,
                    "name": "F#2",
                    "ticks": 46800,
                    "time": 46.428525,
                    "velocity": 0.6929133858267716
                },
                {
                    "duration": 0.2321426249999945,
                    "durationTicks": 234,
                    "midi": 30,
                    "name": "F#1",
                    "ticks": 47040,
                    "time": 46.66662,
                    "velocity": 0.6929133858267716
                },
                {
                    "duration": 0.2321426249999945,
                    "durationTicks": 234,
                    "midi": 42,
                    "name": "F#2",
                    "ticks": 47280,
                    "time": 46.904715,
                    "velocity": 0.6929133858267716
                },
                {
                    "duration": 0.2321426250000016,
                    "durationTicks": 234,
                    "midi": 30,
                    "name": "F#1",
                    "ticks": 47520,
                    "time": 47.14281,
                    "velocity": 0.6929133858267716
                },
                {
                    "duration": 0.2321426250000016,
                    "durationTicks": 234,
                    "midi": 42,
                    "name": "F#2",
                    "ticks": 47760,
                    "time": 47.380905,
                    "velocity": 0.6929133858267716
                },
                {
                    "duration": 0.2321426250000016,
                    "durationTicks": 234,
                    "midi": 28,
                    "name": "E1",
                    "ticks": 48000,
                    "time": 47.619,
                    "velocity": 0.6929133858267716
                },
                {
                    "duration": 0.2321426249999945,
                    "durationTicks": 234,
                    "midi": 40,
                    "name": "E2",
                    "ticks": 48240,
                    "time": 47.857095,
                    "velocity": 0.6929133858267716
                },
                {
                    "duration": 0.2321426249999945,
                    "durationTicks": 234,
                    "midi": 28,
                    "name": "E1",
                    "ticks": 48480,
                    "time": 48.09519,
                    "velocity": 0.6929133858267716
                },
                {
                    "duration": 0.2321426249999945,
                    "durationTicks": 234,
                    "midi": 40,
                    "name": "E2",
                    "ticks": 48720,
                    "time": 48.333285000000004,
                    "velocity": 0.6929133858267716
                },
                {
                    "duration": 0.2321426250000016,
                    "durationTicks": 234,
                    "midi": 28,
                    "name": "E1",
                    "ticks": 48960,
                    "time": 48.57138,
                    "velocity": 0.6929133858267716
                },
                {
                    "duration": 0.2321426250000016,
                    "durationTicks": 234,
                    "midi": 40,
                    "name": "E2",
                    "ticks": 49200,
                    "time": 48.809475,
                    "velocity": 0.6929133858267716
                },
                {
                    "duration": 0.2321426250000016,
                    "durationTicks": 234,
                    "midi": 28,
                    "name": "E1",
                    "ticks": 49440,
                    "time": 49.04757,
                    "velocity": 0.6929133858267716
                },
                {
                    "duration": 0.2321426249999945,
                    "durationTicks": 234,
                    "midi": 40,
                    "name": "E2",
                    "ticks": 49680,
                    "time": 49.285665,
                    "velocity": 0.6929133858267716
                },
                {
                    "duration": 0.2321426249999945,
                    "durationTicks": 234,
                    "midi": 35,
                    "name": "B1",
                    "ticks": 49920,
                    "time": 49.52376,
                    "velocity": 0.6929133858267716
                },
                {
                    "duration": 0.2321426250000016,
                    "durationTicks": 234,
                    "midi": 47,
                    "name": "B2",
                    "ticks": 50160,
                    "time": 49.761855,
                    "velocity": 0.6929133858267716
                },
                {
                    "duration": 0.2321426250000016,
                    "durationTicks": 234,
                    "midi": 35,
                    "name": "B1",
                    "ticks": 50400,
                    "time": 49.99995,
                    "velocity": 0.6929133858267716
                },
                {
                    "duration": 0.2321426250000016,
                    "durationTicks": 234,
                    "midi": 47,
                    "name": "B2",
                    "ticks": 50640,
                    "time": 50.238045,
                    "velocity": 0.6929133858267716
                },
                {
                    "duration": 0.2321426249999945,
                    "durationTicks": 234,
                    "midi": 35,
                    "name": "B1",
                    "ticks": 50880,
                    "time": 50.47614,
                    "velocity": 0.6929133858267716
                },
                {
                    "duration": 0.2321426249999945,
                    "durationTicks": 234,
                    "midi": 47,
                    "name": "B2",
                    "ticks": 51120,
                    "time": 50.714235,
                    "velocity": 0.6929133858267716
                },
                {
                    "duration": 0.2321426249999945,
                    "durationTicks": 234,
                    "midi": 35,
                    "name": "B1",
                    "ticks": 51360,
                    "time": 50.95233,
                    "velocity": 0.6929133858267716
                },
                {
                    "duration": 0.2321426250000016,
                    "durationTicks": 234,
                    "midi": 47,
                    "name": "B2",
                    "ticks": 51600,
                    "time": 51.190425,
                    "velocity": 0.6929133858267716
                },
                {
                    "duration": 0.2321426250000016,
                    "durationTicks": 234,
                    "midi": 30,
                    "name": "F#1",
                    "ticks": 51840,
                    "time": 51.42852,
                    "velocity": 0.6929133858267716
                },
                {
                    "duration": 0.2321426250000016,
                    "durationTicks": 234,
                    "midi": 42,
                    "name": "F#2",
                    "ticks": 52080,
                    "time": 51.666615,
                    "velocity": 0.6929133858267716
                },
                {
                    "duration": 0.2321426249999945,
                    "durationTicks": 234,
                    "midi": 30,
                    "name": "F#1",
                    "ticks": 52320,
                    "time": 51.90471,
                    "velocity": 0.6929133858267716
                },
                {
                    "duration": 0.2321426249999945,
                    "durationTicks": 234,
                    "midi": 42,
                    "name": "F#2",
                    "ticks": 52560,
                    "time": 52.142805,
                    "velocity": 0.6929133858267716
                },
                {
                    "duration": 0.2321426250000016,
                    "durationTicks": 234,
                    "midi": 30,
                    "name": "F#1",
                    "ticks": 52800,
                    "time": 52.3809,
                    "velocity": 0.6929133858267716
                },
                {
                    "duration": 0.2321426250000016,
                    "durationTicks": 234,
                    "midi": 42,
                    "name": "F#2",
                    "ticks": 53040,
                    "time": 52.618995,
                    "velocity": 0.6929133858267716
                },
                {
                    "duration": 0.2321426250000016,
                    "durationTicks": 234,
                    "midi": 30,
                    "name": "F#1",
                    "ticks": 53280,
                    "time": 52.85709,
                    "velocity": 0.6929133858267716
                },
                {
                    "duration": 0.2321426250000016,
                    "durationTicks": 234,
                    "midi": 42,
                    "name": "F#2",
                    "ticks": 53520,
                    "time": 53.095185,
                    "velocity": 0.6929133858267716
                },
                {
                    "duration": 0.2321426249999945,
                    "durationTicks": 234,
                    "midi": 30,
                    "name": "F#1",
                    "ticks": 53760,
                    "time": 53.33328,
                    "velocity": 0.6929133858267716
                },
                {
                    "duration": 0.2321426249999945,
                    "durationTicks": 234,
                    "midi": 42,
                    "name": "F#2",
                    "ticks": 54000,
                    "time": 53.571375,
                    "velocity": 0.6929133858267716
                },
                {
                    "duration": 0.2321426250000016,
                    "durationTicks": 234,
                    "midi": 30,
                    "name": "F#1",
                    "ticks": 54240,
                    "time": 53.80947,
                    "velocity": 0.6929133858267716
                },
                {
                    "duration": 0.2321426250000016,
                    "durationTicks": 234,
                    "midi": 42,
                    "name": "F#2",
                    "ticks": 54480,
                    "time": 54.047565,
                    "velocity": 0.6929133858267716
                },
                {
                    "duration": 0.2321426250000016,
                    "durationTicks": 234,
                    "midi": 30,
                    "name": "F#1",
                    "ticks": 54720,
                    "time": 54.28566,
                    "velocity": 0.6929133858267716
                },
                {
                    "duration": 0.2321426249999945,
                    "durationTicks": 234,
                    "midi": 42,
                    "name": "F#2",
                    "ticks": 54960,
                    "time": 54.523755,
                    "velocity": 0.6929133858267716
                },
                {
                    "duration": 0.2321426249999945,
                    "durationTicks": 234,
                    "midi": 30,
                    "name": "F#1",
                    "ticks": 55200,
                    "time": 54.76185,
                    "velocity": 0.6929133858267716
                },
                {
                    "duration": 0.2321426250000016,
                    "durationTicks": 234,
                    "midi": 42,
                    "name": "F#2",
                    "ticks": 55440,
                    "time": 54.999945,
                    "velocity": 0.6929133858267716
                },
                {
                    "duration": 0.2321426250000016,
                    "durationTicks": 234,
                    "midi": 28,
                    "name": "E1",
                    "ticks": 55680,
                    "time": 55.23804,
                    "velocity": 0.6929133858267716
                },
                {
                    "duration": 0.2321426250000016,
                    "durationTicks": 234,
                    "midi": 40,
                    "name": "E2",
                    "ticks": 55920,
                    "time": 55.476135,
                    "velocity": 0.6929133858267716
                },
                {
                    "duration": 0.2321426250000016,
                    "durationTicks": 234,
                    "midi": 28,
                    "name": "E1",
                    "ticks": 56160,
                    "time": 55.71423,
                    "velocity": 0.6929133858267716
                },
                {
                    "duration": 0.2321426249999945,
                    "durationTicks": 234,
                    "midi": 40,
                    "name": "E2",
                    "ticks": 56400,
                    "time": 55.952325,
                    "velocity": 0.6929133858267716
                },
                {
                    "duration": 0.2321426249999945,
                    "durationTicks": 234,
                    "midi": 28,
                    "name": "E1",
                    "ticks": 56640,
                    "time": 56.19042,
                    "velocity": 0.6929133858267716
                },
                {
                    "duration": 0.2321426250000016,
                    "durationTicks": 234,
                    "midi": 40,
                    "name": "E2",
                    "ticks": 56880,
                    "time": 56.428515,
                    "velocity": 0.6929133858267716
                },
                {
                    "duration": 0.2321426250000016,
                    "durationTicks": 234,
                    "midi": 28,
                    "name": "E1",
                    "ticks": 57120,
                    "time": 56.66661,
                    "velocity": 0.6929133858267716
                },
                {
                    "duration": 0.2321426250000016,
                    "durationTicks": 234,
                    "midi": 40,
                    "name": "E2",
                    "ticks": 57360,
                    "time": 56.904705,
                    "velocity": 0.6929133858267716
                },
                {
                    "duration": 0.2321426249999945,
                    "durationTicks": 234,
                    "midi": 35,
                    "name": "B1",
                    "ticks": 57600,
                    "time": 57.1428,
                    "velocity": 0.6929133858267716
                },
                {
                    "duration": 0.2321426249999945,
                    "durationTicks": 234,
                    "midi": 47,
                    "name": "B2",
                    "ticks": 57840,
                    "time": 57.380895,
                    "velocity": 0.6929133858267716
                },
                {
                    "duration": 0.2321426249999945,
                    "durationTicks": 234,
                    "midi": 35,
                    "name": "B1",
                    "ticks": 58080,
                    "time": 57.618990000000004,
                    "velocity": 0.6929133858267716
                },
                {
                    "duration": 0.2321426250000016,
                    "durationTicks": 234,
                    "midi": 47,
                    "name": "B2",
                    "ticks": 58320,
                    "time": 57.857085,
                    "velocity": 0.6929133858267716
                },
                {
                    "duration": 0.2321426250000016,
                    "durationTicks": 234,
                    "midi": 35,
                    "name": "B1",
                    "ticks": 58560,
                    "time": 58.09518,
                    "velocity": 0.6929133858267716
                },
                {
                    "duration": 0.2321426250000016,
                    "durationTicks": 234,
                    "midi": 47,
                    "name": "B2",
                    "ticks": 58800,
                    "time": 58.333275,
                    "velocity": 0.6929133858267716
                },
                {
                    "duration": 0.2321426249999945,
                    "durationTicks": 234,
                    "midi": 35,
                    "name": "B1",
                    "ticks": 59040,
                    "time": 58.57137,
                    "velocity": 0.6929133858267716
                },
                {
                    "duration": 0.2321426249999945,
                    "durationTicks": 234,
                    "midi": 47,
                    "name": "B2",
                    "ticks": 59280,
                    "time": 58.809465,
                    "velocity": 0.6929133858267716
                },
                {
                    "duration": 1.8988076250000034,
                    "durationTicks": 1914,
                    "midi": 47,
                    "name": "B2",
                    "ticks": 59520,
                    "time": 59.04756,
                    "velocity": 0.5039370078740157
                },
                {
                    "duration": 1.8988076250000034,
                    "durationTicks": 1914,
                    "midi": 35,
                    "name": "B1",
                    "ticks": 59520,
                    "time": 59.04756,
                    "velocity": 0.5039370078740157
                },
                {
                    "duration": 0.2321426250000087,
                    "durationTicks": 234,
                    "midi": 30,
                    "name": "F#1",
                    "ticks": 61440,
                    "time": 60.95232,
                    "velocity": 0.7952755905511811
                },
                {
                    "duration": 0.2321426250000016,
                    "durationTicks": 234,
                    "midi": 42,
                    "name": "F#2",
                    "ticks": 61680,
                    "time": 61.190415,
                    "velocity": 0.7952755905511811
                },
                {
                    "duration": 0.2321426250000016,
                    "durationTicks": 234,
                    "midi": 30,
                    "name": "F#1",
                    "ticks": 61920,
                    "time": 61.42851,
                    "velocity": 0.7952755905511811
                },
                {
                    "duration": 0.2321426250000087,
                    "durationTicks": 234,
                    "midi": 42,
                    "name": "F#2",
                    "ticks": 62160,
                    "time": 61.666605,
                    "velocity": 0.7952755905511811
                },
                {
                    "duration": 0.2321426250000087,
                    "durationTicks": 234,
                    "midi": 30,
                    "name": "F#1",
                    "ticks": 62400,
                    "time": 61.9047,
                    "velocity": 0.7952755905511811
                },
                {
                    "duration": 0.2321426250000087,
                    "durationTicks": 234,
                    "midi": 42,
                    "name": "F#2",
                    "ticks": 62640,
                    "time": 62.142795,
                    "velocity": 0.7952755905511811
                },
                {
                    "duration": 0.2321426250000016,
                    "durationTicks": 234,
                    "midi": 30,
                    "name": "F#1",
                    "ticks": 62880,
                    "time": 62.38089,
                    "velocity": 0.7952755905511811
                },
                {
                    "duration": 0.2321426250000016,
                    "durationTicks": 234,
                    "midi": 42,
                    "name": "F#2",
                    "ticks": 63120,
                    "time": 62.618985,
                    "velocity": 0.7952755905511811
                },
                {
                    "duration": 0.2321426250000016,
                    "durationTicks": 234,
                    "midi": 28,
                    "name": "E1",
                    "ticks": 63360,
                    "time": 62.85708,
                    "velocity": 0.7952755905511811
                },
                {
                    "duration": 0.2321426250000087,
                    "durationTicks": 234,
                    "midi": 40,
                    "name": "E2",
                    "ticks": 63600,
                    "time": 63.095175,
                    "velocity": 0.7952755905511811
                },
                {
                    "duration": 0.2321426250000087,
                    "durationTicks": 234,
                    "midi": 28,
                    "name": "E1",
                    "ticks": 63840,
                    "time": 63.33327,
                    "velocity": 0.7952755905511811
                },
                {
                    "duration": 0.2321426250000087,
                    "durationTicks": 234,
                    "midi": 40,
                    "name": "E2",
                    "ticks": 64080,
                    "time": 63.571365,
                    "velocity": 0.7952755905511811
                },
                {
                    "duration": 0.2321426250000087,
                    "durationTicks": 234,
                    "midi": 28,
                    "name": "E1",
                    "ticks": 64320,
                    "time": 63.80946,
                    "velocity": 0.7952755905511811
                },
                {
                    "duration": 0.2321426250000087,
                    "durationTicks": 234,
                    "midi": 40,
                    "name": "E2",
                    "ticks": 64560,
                    "time": 64.047555,
                    "velocity": 0.7952755905511811
                },
                {
                    "duration": 0.2321426250000087,
                    "durationTicks": 234,
                    "midi": 28,
                    "name": "E1",
                    "ticks": 64800,
                    "time": 64.28565,
                    "velocity": 0.7952755905511811
                },
                {
                    "duration": 0.2321426249999945,
                    "durationTicks": 234,
                    "midi": 40,
                    "name": "E2",
                    "ticks": 65040,
                    "time": 64.523745,
                    "velocity": 0.7952755905511811
                },
                {
                    "duration": 0.2321426249999945,
                    "durationTicks": 234,
                    "midi": 35,
                    "name": "B1",
                    "ticks": 65280,
                    "time": 64.76184,
                    "velocity": 0.7952755905511811
                },
                {
                    "duration": 0.2321426250000087,
                    "durationTicks": 234,
                    "midi": 47,
                    "name": "B2",
                    "ticks": 65520,
                    "time": 64.999935,
                    "velocity": 0.7952755905511811
                },
                {
                    "duration": 0.2321426250000087,
                    "durationTicks": 234,
                    "midi": 35,
                    "name": "B1",
                    "ticks": 65760,
                    "time": 65.23803,
                    "velocity": 0.7952755905511811
                },
                {
                    "duration": 0.2321426250000087,
                    "durationTicks": 234,
                    "midi": 47,
                    "name": "B2",
                    "ticks": 66000,
                    "time": 65.476125,
                    "velocity": 0.7952755905511811
                },
                {
                    "duration": 0.2321426250000087,
                    "durationTicks": 234,
                    "midi": 35,
                    "name": "B1",
                    "ticks": 66240,
                    "time": 65.71422,
                    "velocity": 0.7952755905511811
                },
                {
                    "duration": 0.2321426250000087,
                    "durationTicks": 234,
                    "midi": 47,
                    "name": "B2",
                    "ticks": 66480,
                    "time": 65.952315,
                    "velocity": 0.7952755905511811
                },
                {
                    "duration": 0.2321426250000087,
                    "durationTicks": 234,
                    "midi": 35,
                    "name": "B1",
                    "ticks": 66720,
                    "time": 66.19041,
                    "velocity": 0.7952755905511811
                },
                {
                    "duration": 0.2321426250000087,
                    "durationTicks": 234,
                    "midi": 47,
                    "name": "B2",
                    "ticks": 66960,
                    "time": 66.428505,
                    "velocity": 0.7952755905511811
                },
                {
                    "duration": 0.2321426250000087,
                    "durationTicks": 234,
                    "midi": 30,
                    "name": "F#1",
                    "ticks": 67200,
                    "time": 66.6666,
                    "velocity": 0.7952755905511811
                },
                {
                    "duration": 0.2321426250000087,
                    "durationTicks": 234,
                    "midi": 42,
                    "name": "F#2",
                    "ticks": 67440,
                    "time": 66.904695,
                    "velocity": 0.7952755905511811
                },
                {
                    "duration": 0.2321426249999945,
                    "durationTicks": 234,
                    "midi": 30,
                    "name": "F#1",
                    "ticks": 67680,
                    "time": 67.14279,
                    "velocity": 0.7952755905511811
                },
                {
                    "duration": 0.2321426249999945,
                    "durationTicks": 234,
                    "midi": 42,
                    "name": "F#2",
                    "ticks": 67920,
                    "time": 67.380885,
                    "velocity": 0.7952755905511811
                },
                {
                    "duration": 0.2321426250000087,
                    "durationTicks": 234,
                    "midi": 30,
                    "name": "F#1",
                    "ticks": 68160,
                    "time": 67.61898,
                    "velocity": 0.7952755905511811
                },
                {
                    "duration": 0.2321426250000087,
                    "durationTicks": 234,
                    "midi": 42,
                    "name": "F#2",
                    "ticks": 68400,
                    "time": 67.857075,
                    "velocity": 0.7952755905511811
                },
                {
                    "duration": 0.2321426250000087,
                    "durationTicks": 234,
                    "midi": 30,
                    "name": "F#1",
                    "ticks": 68640,
                    "time": 68.09517,
                    "velocity": 0.7952755905511811
                },
                {
                    "duration": 0.2321426250000087,
                    "durationTicks": 234,
                    "midi": 42,
                    "name": "F#2",
                    "ticks": 68880,
                    "time": 68.333265,
                    "velocity": 0.7952755905511811
                },
                {
                    "duration": 0.2321426250000087,
                    "durationTicks": 234,
                    "midi": 30,
                    "name": "F#1",
                    "ticks": 69120,
                    "time": 68.57136,
                    "velocity": 0.7952755905511811
                },
                {
                    "duration": 0.2321426250000087,
                    "durationTicks": 234,
                    "midi": 42,
                    "name": "F#2",
                    "ticks": 69360,
                    "time": 68.809455,
                    "velocity": 0.7952755905511811
                },
                {
                    "duration": 0.2321426250000087,
                    "durationTicks": 234,
                    "midi": 30,
                    "name": "F#1",
                    "ticks": 69600,
                    "time": 69.04755,
                    "velocity": 0.7952755905511811
                },
                {
                    "duration": 0.2321426250000087,
                    "durationTicks": 234,
                    "midi": 42,
                    "name": "F#2",
                    "ticks": 69840,
                    "time": 69.285645,
                    "velocity": 0.7952755905511811
                },
                {
                    "duration": 0.2321426250000087,
                    "durationTicks": 234,
                    "midi": 30,
                    "name": "F#1",
                    "ticks": 70080,
                    "time": 69.52374,
                    "velocity": 0.7952755905511811
                },
                {
                    "duration": 0.2321426249999945,
                    "durationTicks": 234,
                    "midi": 42,
                    "name": "F#2",
                    "ticks": 70320,
                    "time": 69.761835,
                    "velocity": 0.7952755905511811
                },
                {
                    "duration": 0.2321426249999945,
                    "durationTicks": 234,
                    "midi": 30,
                    "name": "F#1",
                    "ticks": 70560,
                    "time": 69.99993,
                    "velocity": 0.7952755905511811
                },
                {
                    "duration": 0.2321426250000087,
                    "durationTicks": 234,
                    "midi": 42,
                    "name": "F#2",
                    "ticks": 70800,
                    "time": 70.238025,
                    "velocity": 0.7952755905511811
                },
                {
                    "duration": 0.2321426250000087,
                    "durationTicks": 234,
                    "midi": 28,
                    "name": "E1",
                    "ticks": 71040,
                    "time": 70.47612,
                    "velocity": 0.7952755905511811
                },
                {
                    "duration": 0.2321426250000087,
                    "durationTicks": 234,
                    "midi": 40,
                    "name": "E2",
                    "ticks": 71280,
                    "time": 70.714215,
                    "velocity": 0.7952755905511811
                },
                {
                    "duration": 0.2321426250000087,
                    "durationTicks": 234,
                    "midi": 28,
                    "name": "E1",
                    "ticks": 71520,
                    "time": 70.95231,
                    "velocity": 0.7952755905511811
                },
                {
                    "duration": 0.2321426250000087,
                    "durationTicks": 234,
                    "midi": 40,
                    "name": "E2",
                    "ticks": 71760,
                    "time": 71.190405,
                    "velocity": 0.7952755905511811
                },
                {
                    "duration": 0.2321426250000087,
                    "durationTicks": 234,
                    "midi": 28,
                    "name": "E1",
                    "ticks": 72000,
                    "time": 71.4285,
                    "velocity": 0.7952755905511811
                },
                {
                    "duration": 0.2321426250000087,
                    "durationTicks": 234,
                    "midi": 40,
                    "name": "E2",
                    "ticks": 72240,
                    "time": 71.666595,
                    "velocity": 0.7952755905511811
                },
                {
                    "duration": 0.2321426250000087,
                    "durationTicks": 234,
                    "midi": 28,
                    "name": "E1",
                    "ticks": 72480,
                    "time": 71.90469,
                    "velocity": 0.7952755905511811
                },
                {
                    "duration": 0.2321426250000087,
                    "durationTicks": 234,
                    "midi": 40,
                    "name": "E2",
                    "ticks": 72720,
                    "time": 72.142785,
                    "velocity": 0.7952755905511811
                },
                {
                    "duration": 0.2321426249999945,
                    "durationTicks": 234,
                    "midi": 35,
                    "name": "B1",
                    "ticks": 72960,
                    "time": 72.38088,
                    "velocity": 0.7952755905511811
                },
                {
                    "duration": 0.2321426249999945,
                    "durationTicks": 234,
                    "midi": 47,
                    "name": "B2",
                    "ticks": 73200,
                    "time": 72.618975,
                    "velocity": 0.7952755905511811
                },
                {
                    "duration": 0.2321426249999945,
                    "durationTicks": 234,
                    "midi": 35,
                    "name": "B1",
                    "ticks": 73440,
                    "time": 72.85707000000001,
                    "velocity": 0.7952755905511811
                },
                {
                    "duration": 0.2321426250000087,
                    "durationTicks": 234,
                    "midi": 47,
                    "name": "B2",
                    "ticks": 73680,
                    "time": 73.095165,
                    "velocity": 0.7952755905511811
                },
                {
                    "duration": 0.2321426250000087,
                    "durationTicks": 234,
                    "midi": 35,
                    "name": "B1",
                    "ticks": 73920,
                    "time": 73.33326,
                    "velocity": 0.7952755905511811
                },
                {
                    "duration": 0.2321426250000087,
                    "durationTicks": 234,
                    "midi": 47,
                    "name": "B2",
                    "ticks": 74160,
                    "time": 73.571355,
                    "velocity": 0.7952755905511811
                },
                {
                    "duration": 0.2321426250000087,
                    "durationTicks": 234,
                    "midi": 35,
                    "name": "B1",
                    "ticks": 74400,
                    "time": 73.80945,
                    "velocity": 0.7952755905511811
                },
                {
                    "duration": 0.2321426250000087,
                    "durationTicks": 234,
                    "midi": 47,
                    "name": "B2",
                    "ticks": 74640,
                    "time": 74.047545,
                    "velocity": 0.7952755905511811
                },
                {
                    "duration": 0.2321426250000087,
                    "durationTicks": 234,
                    "midi": 30,
                    "name": "F#1",
                    "ticks": 74880,
                    "time": 74.28564,
                    "velocity": 0.7952755905511811
                },
                {
                    "duration": 0.2321426250000087,
                    "durationTicks": 234,
                    "midi": 42,
                    "name": "F#2",
                    "ticks": 75120,
                    "time": 74.523735,
                    "velocity": 0.7952755905511811
                },
                {
                    "duration": 0.2321426250000087,
                    "durationTicks": 234,
                    "midi": 30,
                    "name": "F#1",
                    "ticks": 75360,
                    "time": 74.76183,
                    "velocity": 0.7952755905511811
                },
                {
                    "duration": 0.2321426249999945,
                    "durationTicks": 234,
                    "midi": 42,
                    "name": "F#2",
                    "ticks": 75600,
                    "time": 74.999925,
                    "velocity": 0.7952755905511811
                },
                {
                    "duration": 0.2321426249999945,
                    "durationTicks": 234,
                    "midi": 30,
                    "name": "F#1",
                    "ticks": 75840,
                    "time": 75.23802,
                    "velocity": 0.7952755905511811
                },
                {
                    "duration": 0.2321426249999945,
                    "durationTicks": 234,
                    "midi": 42,
                    "name": "F#2",
                    "ticks": 76080,
                    "time": 75.47611500000001,
                    "velocity": 0.7952755905511811
                },
                {
                    "duration": 0.2321426250000087,
                    "durationTicks": 234,
                    "midi": 30,
                    "name": "F#1",
                    "ticks": 76320,
                    "time": 75.71421,
                    "velocity": 0.7952755905511811
                },
                {
                    "duration": 0.2321426250000087,
                    "durationTicks": 234,
                    "midi": 42,
                    "name": "F#2",
                    "ticks": 76560,
                    "time": 75.952305,
                    "velocity": 0.7952755905511811
                },
                {
                    "duration": 0.2321426250000087,
                    "durationTicks": 234,
                    "midi": 30,
                    "name": "F#1",
                    "ticks": 76800,
                    "time": 76.1904,
                    "velocity": 0.7952755905511811
                },
                {
                    "duration": 0.2321426250000087,
                    "durationTicks": 234,
                    "midi": 42,
                    "name": "F#2",
                    "ticks": 77040,
                    "time": 76.428495,
                    "velocity": 0.7952755905511811
                },
                {
                    "duration": 0.2321426250000087,
                    "durationTicks": 234,
                    "midi": 30,
                    "name": "F#1",
                    "ticks": 77280,
                    "time": 76.66659,
                    "velocity": 0.7952755905511811
                },
                {
                    "duration": 0.2321426250000087,
                    "durationTicks": 234,
                    "midi": 42,
                    "name": "F#2",
                    "ticks": 77520,
                    "time": 76.904685,
                    "velocity": 0.7952755905511811
                },
                {
                    "duration": 0.2321426250000087,
                    "durationTicks": 234,
                    "midi": 30,
                    "name": "F#1",
                    "ticks": 77760,
                    "time": 77.14278,
                    "velocity": 0.7952755905511811
                },
                {
                    "duration": 0.2321426250000087,
                    "durationTicks": 234,
                    "midi": 42,
                    "name": "F#2",
                    "ticks": 78000,
                    "time": 77.380875,
                    "velocity": 0.7952755905511811
                },
                {
                    "duration": 0.2321426249999945,
                    "durationTicks": 234,
                    "midi": 30,
                    "name": "F#1",
                    "ticks": 78240,
                    "time": 77.61897,
                    "velocity": 0.7952755905511811
                },
                {
                    "duration": 0.2321426249999945,
                    "durationTicks": 234,
                    "midi": 42,
                    "name": "F#2",
                    "ticks": 78480,
                    "time": 77.857065,
                    "velocity": 0.7952755905511811
                },
                {
                    "duration": 0.2321426249999945,
                    "durationTicks": 234,
                    "midi": 28,
                    "name": "E1",
                    "ticks": 78720,
                    "time": 78.09516,
                    "velocity": 0.7952755905511811
                },
                {
                    "duration": 0.2321426250000087,
                    "durationTicks": 234,
                    "midi": 40,
                    "name": "E2",
                    "ticks": 78960,
                    "time": 78.333255,
                    "velocity": 0.7952755905511811
                },
                {
                    "duration": 0.2321426250000087,
                    "durationTicks": 234,
                    "midi": 28,
                    "name": "E1",
                    "ticks": 79200,
                    "time": 78.57135,
                    "velocity": 0.7952755905511811
                },
                {
                    "duration": 0.2321426250000087,
                    "durationTicks": 234,
                    "midi": 40,
                    "name": "E2",
                    "ticks": 79440,
                    "time": 78.809445,
                    "velocity": 0.7952755905511811
                },
                {
                    "duration": 0.2321426250000087,
                    "durationTicks": 234,
                    "midi": 28,
                    "name": "E1",
                    "ticks": 79680,
                    "time": 79.04754,
                    "velocity": 0.7952755905511811
                },
                {
                    "duration": 0.2321426250000087,
                    "durationTicks": 234,
                    "midi": 40,
                    "name": "E2",
                    "ticks": 79920,
                    "time": 79.285635,
                    "velocity": 0.7952755905511811
                },
                {
                    "duration": 0.2321426250000087,
                    "durationTicks": 234,
                    "midi": 28,
                    "name": "E1",
                    "ticks": 80160,
                    "time": 79.52373,
                    "velocity": 0.7952755905511811
                },
                {
                    "duration": 0.2321426250000087,
                    "durationTicks": 234,
                    "midi": 40,
                    "name": "E2",
                    "ticks": 80400,
                    "time": 79.761825,
                    "velocity": 0.7952755905511811
                },
                {
                    "duration": 0.2321426250000087,
                    "durationTicks": 234,
                    "midi": 35,
                    "name": "B1",
                    "ticks": 80640,
                    "time": 79.99992,
                    "velocity": 0.7952755905511811
                },
                {
                    "duration": 0.2321426249999945,
                    "durationTicks": 234,
                    "midi": 47,
                    "name": "B2",
                    "ticks": 80880,
                    "time": 80.238015,
                    "velocity": 0.7952755905511811
                },
                {
                    "duration": 0.2321426249999945,
                    "durationTicks": 234,
                    "midi": 35,
                    "name": "B1",
                    "ticks": 81120,
                    "time": 80.47611,
                    "velocity": 0.7952755905511811
                },
                {
                    "duration": 0.2321426249999945,
                    "durationTicks": 234,
                    "midi": 47,
                    "name": "B2",
                    "ticks": 81360,
                    "time": 80.714205,
                    "velocity": 0.7952755905511811
                },
                {
                    "duration": 0.2321426250000087,
                    "durationTicks": 234,
                    "midi": 35,
                    "name": "B1",
                    "ticks": 81600,
                    "time": 80.9523,
                    "velocity": 0.7952755905511811
                },
                {
                    "duration": 0.2321426250000087,
                    "durationTicks": 234,
                    "midi": 47,
                    "name": "B2",
                    "ticks": 81840,
                    "time": 81.190395,
                    "velocity": 0.7952755905511811
                },
                {
                    "duration": 0.2321426250000087,
                    "durationTicks": 234,
                    "midi": 35,
                    "name": "B1",
                    "ticks": 82080,
                    "time": 81.42849,
                    "velocity": 0.7952755905511811
                },
                {
                    "duration": 0.2321426250000087,
                    "durationTicks": 234,
                    "midi": 47,
                    "name": "B2",
                    "ticks": 82320,
                    "time": 81.666585,
                    "velocity": 0.7952755905511811
                },
                {
                    "duration": 0.2321426250000087,
                    "durationTicks": 234,
                    "midi": 30,
                    "name": "F#1",
                    "ticks": 82560,
                    "time": 81.90468,
                    "velocity": 0.7952755905511811
                },
                {
                    "duration": 0.2321426250000087,
                    "durationTicks": 234,
                    "midi": 42,
                    "name": "F#2",
                    "ticks": 82800,
                    "time": 82.142775,
                    "velocity": 0.7952755905511811
                },
                {
                    "duration": 0.2321426250000087,
                    "durationTicks": 234,
                    "midi": 30,
                    "name": "F#1",
                    "ticks": 83040,
                    "time": 82.38087,
                    "velocity": 0.7952755905511811
                },
                {
                    "duration": 0.2321426250000087,
                    "durationTicks": 234,
                    "midi": 42,
                    "name": "F#2",
                    "ticks": 83280,
                    "time": 82.618965,
                    "velocity": 0.7952755905511811
                },
                {
                    "duration": 0.2321426250000087,
                    "durationTicks": 234,
                    "midi": 30,
                    "name": "F#1",
                    "ticks": 83520,
                    "time": 82.85706,
                    "velocity": 0.7952755905511811
                },
                {
                    "duration": 0.2321426249999945,
                    "durationTicks": 234,
                    "midi": 42,
                    "name": "F#2",
                    "ticks": 83760,
                    "time": 83.095155,
                    "velocity": 0.7952755905511811
                },
                {
                    "duration": 0.2321426249999945,
                    "durationTicks": 234,
                    "midi": 30,
                    "name": "F#1",
                    "ticks": 84000,
                    "time": 83.33325,
                    "velocity": 0.7952755905511811
                },
                {
                    "duration": 0.2321426250000087,
                    "durationTicks": 234,
                    "midi": 42,
                    "name": "F#2",
                    "ticks": 84240,
                    "time": 83.571345,
                    "velocity": 0.7952755905511811
                },
                {
                    "duration": 0.2321426250000087,
                    "durationTicks": 234,
                    "midi": 30,
                    "name": "F#1",
                    "ticks": 84480,
                    "time": 83.80944,
                    "velocity": 0.7952755905511811
                },
                {
                    "duration": 0.2321426250000087,
                    "durationTicks": 234,
                    "midi": 42,
                    "name": "F#2",
                    "ticks": 84720,
                    "time": 84.047535,
                    "velocity": 0.7952755905511811
                },
                {
                    "duration": 0.2321426250000087,
                    "durationTicks": 234,
                    "midi": 30,
                    "name": "F#1",
                    "ticks": 84960,
                    "time": 84.28563,
                    "velocity": 0.7952755905511811
                },
                {
                    "duration": 0.2321426250000087,
                    "durationTicks": 234,
                    "midi": 42,
                    "name": "F#2",
                    "ticks": 85200,
                    "time": 84.523725,
                    "velocity": 0.7952755905511811
                },
                {
                    "duration": 0.2321426250000087,
                    "durationTicks": 234,
                    "midi": 30,
                    "name": "F#1",
                    "ticks": 85440,
                    "time": 84.76182,
                    "velocity": 0.7952755905511811
                },
                {
                    "duration": 0.2321426250000087,
                    "durationTicks": 234,
                    "midi": 42,
                    "name": "F#2",
                    "ticks": 85680,
                    "time": 84.999915,
                    "velocity": 0.7952755905511811
                },
                {
                    "duration": 0.2321426250000087,
                    "durationTicks": 234,
                    "midi": 30,
                    "name": "F#1",
                    "ticks": 85920,
                    "time": 85.23801,
                    "velocity": 0.7952755905511811
                },
                {
                    "duration": 0.2321426250000087,
                    "durationTicks": 234,
                    "midi": 42,
                    "name": "F#2",
                    "ticks": 86160,
                    "time": 85.476105,
                    "velocity": 0.7952755905511811
                },
                {
                    "duration": 0.2321426249999945,
                    "durationTicks": 234,
                    "midi": 28,
                    "name": "E1",
                    "ticks": 86400,
                    "time": 85.7142,
                    "velocity": 0.7952755905511811
                },
                {
                    "duration": 0.2321426249999945,
                    "durationTicks": 234,
                    "midi": 40,
                    "name": "E2",
                    "ticks": 86640,
                    "time": 85.952295,
                    "velocity": 0.7952755905511811
                },
                {
                    "duration": 0.2321426250000087,
                    "durationTicks": 234,
                    "midi": 28,
                    "name": "E1",
                    "ticks": 86880,
                    "time": 86.19039,
                    "velocity": 0.7952755905511811
                },
                {
                    "duration": 0.2321426250000087,
                    "durationTicks": 234,
                    "midi": 40,
                    "name": "E2",
                    "ticks": 87120,
                    "time": 86.428485,
                    "velocity": 0.7952755905511811
                },
                {
                    "duration": 0.2321426250000087,
                    "durationTicks": 234,
                    "midi": 28,
                    "name": "E1",
                    "ticks": 87360,
                    "time": 86.66658,
                    "velocity": 0.7952755905511811
                },
                {
                    "duration": 0.2321426250000087,
                    "durationTicks": 234,
                    "midi": 40,
                    "name": "E2",
                    "ticks": 87600,
                    "time": 86.904675,
                    "velocity": 0.7952755905511811
                },
                {
                    "duration": 0.2321426250000087,
                    "durationTicks": 234,
                    "midi": 28,
                    "name": "E1",
                    "ticks": 87840,
                    "time": 87.14277,
                    "velocity": 0.7952755905511811
                },
                {
                    "duration": 0.2321426250000087,
                    "durationTicks": 234,
                    "midi": 40,
                    "name": "E2",
                    "ticks": 88080,
                    "time": 87.380865,
                    "velocity": 0.7952755905511811
                },
                {
                    "duration": 0.2321426250000087,
                    "durationTicks": 234,
                    "midi": 35,
                    "name": "B1",
                    "ticks": 88320,
                    "time": 87.61896,
                    "velocity": 0.7952755905511811
                },
                {
                    "duration": 0.2321426250000087,
                    "durationTicks": 234,
                    "midi": 47,
                    "name": "B2",
                    "ticks": 88560,
                    "time": 87.857055,
                    "velocity": 0.7952755905511811
                },
                {
                    "duration": 0.2321426250000087,
                    "durationTicks": 234,
                    "midi": 35,
                    "name": "B1",
                    "ticks": 88800,
                    "time": 88.09515,
                    "velocity": 0.7952755905511811
                },
                {
                    "duration": 0.2321426249999945,
                    "durationTicks": 234,
                    "midi": 47,
                    "name": "B2",
                    "ticks": 89040,
                    "time": 88.333245,
                    "velocity": 0.7952755905511811
                },
                {
                    "duration": 0.2321426249999945,
                    "durationTicks": 234,
                    "midi": 35,
                    "name": "B1",
                    "ticks": 89280,
                    "time": 88.57134,
                    "velocity": 0.7952755905511811
                },
                {
                    "duration": 0.2321426250000087,
                    "durationTicks": 234,
                    "midi": 47,
                    "name": "B2",
                    "ticks": 89520,
                    "time": 88.809435,
                    "velocity": 0.7952755905511811
                },
                {
                    "duration": 0.2321426250000087,
                    "durationTicks": 234,
                    "midi": 35,
                    "name": "B1",
                    "ticks": 89760,
                    "time": 89.04753,
                    "velocity": 0.7952755905511811
                },
                {
                    "duration": 0.2321426250000087,
                    "durationTicks": 234,
                    "midi": 47,
                    "name": "B2",
                    "ticks": 90000,
                    "time": 89.285625,
                    "velocity": 0.7952755905511811
                },
                {
                    "duration": 0.2321426250000087,
                    "durationTicks": 234,
                    "midi": 30,
                    "name": "F#1",
                    "ticks": 90240,
                    "time": 89.52372,
                    "velocity": 0.7952755905511811
                },
                {
                    "duration": 0.2321426250000087,
                    "durationTicks": 234,
                    "midi": 42,
                    "name": "F#2",
                    "ticks": 90480,
                    "time": 89.761815,
                    "velocity": 0.7952755905511811
                },
                {
                    "duration": 0.2321426250000087,
                    "durationTicks": 234,
                    "midi": 30,
                    "name": "F#1",
                    "ticks": 90720,
                    "time": 89.99991,
                    "velocity": 0.7952755905511811
                },
                {
                    "duration": 0.2321426250000087,
                    "durationTicks": 234,
                    "midi": 42,
                    "name": "F#2",
                    "ticks": 90960,
                    "time": 90.238005,
                    "velocity": 0.7952755905511811
                },
                {
                    "duration": 0.2321426250000087,
                    "durationTicks": 234,
                    "midi": 30,
                    "name": "F#1",
                    "ticks": 91200,
                    "time": 90.4761,
                    "velocity": 0.7952755905511811
                },
                {
                    "duration": 0.2321426250000087,
                    "durationTicks": 234,
                    "midi": 42,
                    "name": "F#2",
                    "ticks": 91440,
                    "time": 90.714195,
                    "velocity": 0.7952755905511811
                },
                {
                    "duration": 0.2321426249999945,
                    "durationTicks": 234,
                    "midi": 30,
                    "name": "F#1",
                    "ticks": 91680,
                    "time": 90.95229,
                    "velocity": 0.7952755905511811
                },
                {
                    "duration": 0.2321426249999945,
                    "durationTicks": 234,
                    "midi": 42,
                    "name": "F#2",
                    "ticks": 91920,
                    "time": 91.190385,
                    "velocity": 0.7952755905511811
                },
                {
                    "duration": 1.8988076250000177,
                    "durationTicks": 1914,
                    "midi": 47,
                    "name": "B2",
                    "ticks": 105600,
                    "time": 104.7618,
                    "velocity": 0.5039370078740157
                },
                {
                    "duration": 1.8988076250000177,
                    "durationTicks": 1914,
                    "midi": 35,
                    "name": "B1",
                    "ticks": 105600,
                    "time": 104.7618,
                    "velocity": 0.5039370078740157
                },
                {
                    "duration": 0.1517855624999953,
                    "durationTicks": 153,
                    "midi": 35,
                    "name": "B1",
                    "ticks": 113280,
                    "time": 112.38084,
                    "velocity": 0.937007874015748
                },
                {
                    "duration": 0.1517855624999953,
                    "durationTicks": 153,
                    "midi": 35,
                    "name": "B1",
                    "ticks": 113440,
                    "time": 112.53957000000001,
                    "velocity": 0.937007874015748
                },
                {
                    "duration": 0.15178556250002373,
                    "durationTicks": 153,
                    "midi": 35,
                    "name": "B1",
                    "ticks": 113600,
                    "time": 112.69829999999999,
                    "velocity": 0.937007874015748
                },
                {
                    "duration": 0.15178556250000952,
                    "durationTicks": 153,
                    "midi": 35,
                    "name": "B1",
                    "ticks": 113760,
                    "time": 112.85703,
                    "velocity": 0.937007874015748
                },
                {
                    "duration": 0.1517855624999953,
                    "durationTicks": 153,
                    "midi": 35,
                    "name": "B1",
                    "ticks": 113920,
                    "time": 113.01576,
                    "velocity": 0.937007874015748
                },
                {
                    "duration": 0.15178556250000952,
                    "durationTicks": 153,
                    "midi": 35,
                    "name": "B1",
                    "ticks": 114080,
                    "time": 113.17448999999999,
                    "velocity": 0.937007874015748
                },
                {
                    "duration": 0.1517855624999953,
                    "durationTicks": 153,
                    "midi": 35,
                    "name": "B1",
                    "ticks": 114240,
                    "time": 113.33322,
                    "velocity": 0.937007874015748
                },
                {
                    "duration": 0.2321426250000087,
                    "durationTicks": 234,
                    "midi": 30,
                    "name": "F#1",
                    "ticks": 115200,
                    "time": 114.2856,
                    "velocity": 0.6929133858267716
                },
                {
                    "duration": 0.2321426250000087,
                    "durationTicks": 234,
                    "midi": 42,
                    "name": "F#2",
                    "ticks": 115440,
                    "time": 114.523695,
                    "velocity": 0.6929133858267716
                },
                {
                    "duration": 0.2321426249999945,
                    "durationTicks": 234,
                    "midi": 30,
                    "name": "F#1",
                    "ticks": 115680,
                    "time": 114.76179,
                    "velocity": 0.6929133858267716
                },
                {
                    "duration": 0.2321426249999945,
                    "durationTicks": 234,
                    "midi": 42,
                    "name": "F#2",
                    "ticks": 115920,
                    "time": 114.999885,
                    "velocity": 0.6929133858267716
                },
                {
                    "duration": 0.2321426249999945,
                    "durationTicks": 234,
                    "midi": 30,
                    "name": "F#1",
                    "ticks": 116160,
                    "time": 115.23798000000001,
                    "velocity": 0.6929133858267716
                },
                {
                    "duration": 0.2321426250000087,
                    "durationTicks": 234,
                    "midi": 42,
                    "name": "F#2",
                    "ticks": 116400,
                    "time": 115.476075,
                    "velocity": 0.6929133858267716
                },
                {
                    "duration": 0.2321426250000087,
                    "durationTicks": 234,
                    "midi": 30,
                    "name": "F#1",
                    "ticks": 116640,
                    "time": 115.71417,
                    "velocity": 0.6929133858267716
                },
                {
                    "duration": 0.2321426250000087,
                    "durationTicks": 234,
                    "midi": 42,
                    "name": "F#2",
                    "ticks": 116880,
                    "time": 115.952265,
                    "velocity": 0.6929133858267716
                },
                {
                    "duration": 0.2321426250000087,
                    "durationTicks": 234,
                    "midi": 28,
                    "name": "E1",
                    "ticks": 117120,
                    "time": 116.19036,
                    "velocity": 0.6929133858267716
                },
                {
                    "duration": 0.2321426250000087,
                    "durationTicks": 234,
                    "midi": 40,
                    "name": "E2",
                    "ticks": 117360,
                    "time": 116.428455,
                    "velocity": 0.6929133858267716
                },
                {
                    "duration": 0.2321426250000087,
                    "durationTicks": 234,
                    "midi": 28,
                    "name": "E1",
                    "ticks": 117600,
                    "time": 116.66655,
                    "velocity": 0.6929133858267716
                },
                {
                    "duration": 0.2321426250000087,
                    "durationTicks": 234,
                    "midi": 40,
                    "name": "E2",
                    "ticks": 117840,
                    "time": 116.904645,
                    "velocity": 0.6929133858267716
                },
                {
                    "duration": 0.2321426250000087,
                    "durationTicks": 234,
                    "midi": 28,
                    "name": "E1",
                    "ticks": 118080,
                    "time": 117.14274,
                    "velocity": 0.6929133858267716
                },
                {
                    "duration": 0.2321426249999945,
                    "durationTicks": 234,
                    "midi": 40,
                    "name": "E2",
                    "ticks": 118320,
                    "time": 117.380835,
                    "velocity": 0.6929133858267716
                },
                {
                    "duration": 0.2321426249999945,
                    "durationTicks": 234,
                    "midi": 28,
                    "name": "E1",
                    "ticks": 118560,
                    "time": 117.61893,
                    "velocity": 0.6929133858267716
                },
                {
                    "duration": 0.2321426249999945,
                    "durationTicks": 234,
                    "midi": 40,
                    "name": "E2",
                    "ticks": 118800,
                    "time": 117.85702500000001,
                    "velocity": 0.6929133858267716
                },
                {
                    "duration": 0.2321426250000087,
                    "durationTicks": 234,
                    "midi": 35,
                    "name": "B1",
                    "ticks": 119040,
                    "time": 118.09512,
                    "velocity": 0.6929133858267716
                },
                {
                    "duration": 0.2321426250000087,
                    "durationTicks": 234,
                    "midi": 47,
                    "name": "B2",
                    "ticks": 119280,
                    "time": 118.333215,
                    "velocity": 0.6929133858267716
                },
                {
                    "duration": 0.2321426250000087,
                    "durationTicks": 234,
                    "midi": 35,
                    "name": "B1",
                    "ticks": 119520,
                    "time": 118.57131,
                    "velocity": 0.6929133858267716
                },
                {
                    "duration": 0.2321426250000087,
                    "durationTicks": 234,
                    "midi": 47,
                    "name": "B2",
                    "ticks": 119760,
                    "time": 118.809405,
                    "velocity": 0.6929133858267716
                },
                {
                    "duration": 0.2321426250000087,
                    "durationTicks": 234,
                    "midi": 35,
                    "name": "B1",
                    "ticks": 120000,
                    "time": 119.0475,
                    "velocity": 0.6929133858267716
                },
                {
                    "duration": 0.2321426250000087,
                    "durationTicks": 234,
                    "midi": 47,
                    "name": "B2",
                    "ticks": 120240,
                    "time": 119.285595,
                    "velocity": 0.6929133858267716
                },
                {
                    "duration": 0.2321426250000087,
                    "durationTicks": 234,
                    "midi": 35,
                    "name": "B1",
                    "ticks": 120480,
                    "time": 119.52369,
                    "velocity": 0.6929133858267716
                },
                {
                    "duration": 0.2321426250000087,
                    "durationTicks": 234,
                    "midi": 47,
                    "name": "B2",
                    "ticks": 120720,
                    "time": 119.761785,
                    "velocity": 0.6929133858267716
                },
                {
                    "duration": 0.2321426249999945,
                    "durationTicks": 234,
                    "midi": 30,
                    "name": "F#1",
                    "ticks": 120960,
                    "time": 119.99988,
                    "velocity": 0.6929133858267716
                },
                {
                    "duration": 0.2321426249999945,
                    "durationTicks": 234,
                    "midi": 42,
                    "name": "F#2",
                    "ticks": 121200,
                    "time": 120.237975,
                    "velocity": 0.6929133858267716
                },
                {
                    "duration": 0.2321426249999945,
                    "durationTicks": 234,
                    "midi": 30,
                    "name": "F#1",
                    "ticks": 121440,
                    "time": 120.47607,
                    "velocity": 0.6929133858267716
                },
                {
                    "duration": 0.2321426250000087,
                    "durationTicks": 234,
                    "midi": 42,
                    "name": "F#2",
                    "ticks": 121680,
                    "time": 120.714165,
                    "velocity": 0.6929133858267716
                },
                {
                    "duration": 0.2321426250000087,
                    "durationTicks": 234,
                    "midi": 30,
                    "name": "F#1",
                    "ticks": 121920,
                    "time": 120.95226,
                    "velocity": 0.6929133858267716
                },
                {
                    "duration": 0.2321426250000087,
                    "durationTicks": 234,
                    "midi": 42,
                    "name": "F#2",
                    "ticks": 122160,
                    "time": 121.190355,
                    "velocity": 0.6929133858267716
                },
                {
                    "duration": 0.2321426250000087,
                    "durationTicks": 234,
                    "midi": 30,
                    "name": "F#1",
                    "ticks": 122400,
                    "time": 121.42845,
                    "velocity": 0.6929133858267716
                },
                {
                    "duration": 0.2321426250000087,
                    "durationTicks": 234,
                    "midi": 42,
                    "name": "F#2",
                    "ticks": 122640,
                    "time": 121.666545,
                    "velocity": 0.6929133858267716
                },
                {
                    "duration": 0.2321426250000087,
                    "durationTicks": 234,
                    "midi": 30,
                    "name": "F#1",
                    "ticks": 122880,
                    "time": 121.90464,
                    "velocity": 0.6929133858267716
                },
                {
                    "duration": 0.2321426250000087,
                    "durationTicks": 234,
                    "midi": 42,
                    "name": "F#2",
                    "ticks": 123120,
                    "time": 122.142735,
                    "velocity": 0.6929133858267716
                },
                {
                    "duration": 0.2321426250000087,
                    "durationTicks": 234,
                    "midi": 30,
                    "name": "F#1",
                    "ticks": 123360,
                    "time": 122.38083,
                    "velocity": 0.6929133858267716
                },
                {
                    "duration": 0.2321426249999945,
                    "durationTicks": 234,
                    "midi": 42,
                    "name": "F#2",
                    "ticks": 123600,
                    "time": 122.618925,
                    "velocity": 0.6929133858267716
                },
                {
                    "duration": 0.2321426249999945,
                    "durationTicks": 234,
                    "midi": 30,
                    "name": "F#1",
                    "ticks": 123840,
                    "time": 122.85702,
                    "velocity": 0.6929133858267716
                },
                {
                    "duration": 0.2321426249999945,
                    "durationTicks": 234,
                    "midi": 42,
                    "name": "F#2",
                    "ticks": 124080,
                    "time": 123.095115,
                    "velocity": 0.6929133858267716
                },
                {
                    "duration": 0.2321426250000087,
                    "durationTicks": 234,
                    "midi": 30,
                    "name": "F#1",
                    "ticks": 124320,
                    "time": 123.33321,
                    "velocity": 0.6929133858267716
                },
                {
                    "duration": 0.2321426250000087,
                    "durationTicks": 234,
                    "midi": 42,
                    "name": "F#2",
                    "ticks": 124560,
                    "time": 123.571305,
                    "velocity": 0.6929133858267716
                },
                {
                    "duration": 0.2321426250000087,
                    "durationTicks": 234,
                    "midi": 28,
                    "name": "E1",
                    "ticks": 124800,
                    "time": 123.8094,
                    "velocity": 0.6929133858267716
                },
                {
                    "duration": 0.2321426250000087,
                    "durationTicks": 234,
                    "midi": 40,
                    "name": "E2",
                    "ticks": 125040,
                    "time": 124.047495,
                    "velocity": 0.6929133858267716
                },
                {
                    "duration": 0.2321426250000087,
                    "durationTicks": 234,
                    "midi": 28,
                    "name": "E1",
                    "ticks": 125280,
                    "time": 124.28559,
                    "velocity": 0.6929133858267716
                },
                {
                    "duration": 0.2321426250000087,
                    "durationTicks": 234,
                    "midi": 40,
                    "name": "E2",
                    "ticks": 125520,
                    "time": 124.523685,
                    "velocity": 0.6929133858267716
                },
                {
                    "duration": 0.2321426250000087,
                    "durationTicks": 234,
                    "midi": 28,
                    "name": "E1",
                    "ticks": 125760,
                    "time": 124.76178,
                    "velocity": 0.6929133858267716
                },
                {
                    "duration": 0.2321426250000087,
                    "durationTicks": 234,
                    "midi": 40,
                    "name": "E2",
                    "ticks": 126000,
                    "time": 124.999875,
                    "velocity": 0.6929133858267716
                },
                {
                    "duration": 0.2321426250000087,
                    "durationTicks": 234,
                    "midi": 28,
                    "name": "E1",
                    "ticks": 126240,
                    "time": 125.23797,
                    "velocity": 0.6929133858267716
                },
                {
                    "duration": 0.2321426249999945,
                    "durationTicks": 234,
                    "midi": 40,
                    "name": "E2",
                    "ticks": 126480,
                    "time": 125.476065,
                    "velocity": 0.6929133858267716
                },
                {
                    "duration": 0.2321426249999945,
                    "durationTicks": 234,
                    "midi": 35,
                    "name": "B1",
                    "ticks": 126720,
                    "time": 125.71416,
                    "velocity": 0.6929133858267716
                },
                {
                    "duration": 0.2321426250000087,
                    "durationTicks": 234,
                    "midi": 47,
                    "name": "B2",
                    "ticks": 126960,
                    "time": 125.952255,
                    "velocity": 0.6929133858267716
                },
                {
                    "duration": 0.2321426250000087,
                    "durationTicks": 234,
                    "midi": 35,
                    "name": "B1",
                    "ticks": 127200,
                    "time": 126.19035,
                    "velocity": 0.6929133858267716
                },
                {
                    "duration": 0.2321426250000087,
                    "durationTicks": 234,
                    "midi": 47,
                    "name": "B2",
                    "ticks": 127440,
                    "time": 126.428445,
                    "velocity": 0.6929133858267716
                },
                {
                    "duration": 1.8988076249999892,
                    "durationTicks": 1914,
                    "midi": 47,
                    "name": "B2",
                    "ticks": 128640,
                    "time": 127.61892,
                    "velocity": 0.5039370078740157
                },
                {
                    "duration": 1.8988076249999892,
                    "durationTicks": 1914,
                    "midi": 35,
                    "name": "B1",
                    "ticks": 128640,
                    "time": 127.61892,
                    "velocity": 0.5039370078740157
                },
                {
                    "duration": 0.2321426249999945,
                    "durationTicks": 234,
                    "midi": 30,
                    "name": "F#1",
                    "ticks": 130560,
                    "time": 129.52368,
                    "velocity": 0.7952755905511811
                },
                {
                    "duration": 0.2321426249999945,
                    "durationTicks": 234,
                    "midi": 42,
                    "name": "F#2",
                    "ticks": 130800,
                    "time": 129.761775,
                    "velocity": 0.7952755905511811
                },
                {
                    "duration": 0.23214262500002292,
                    "durationTicks": 234,
                    "midi": 30,
                    "name": "F#1",
                    "ticks": 131040,
                    "time": 129.99987,
                    "velocity": 0.7952755905511811
                },
                {
                    "duration": 0.2321426249999945,
                    "durationTicks": 234,
                    "midi": 42,
                    "name": "F#2",
                    "ticks": 131280,
                    "time": 130.237965,
                    "velocity": 0.7952755905511811
                },
                {
                    "duration": 0.23214262500002292,
                    "durationTicks": 234,
                    "midi": 30,
                    "name": "F#1",
                    "ticks": 131520,
                    "time": 130.47606,
                    "velocity": 0.7952755905511811
                },
                {
                    "duration": 0.2321426249999945,
                    "durationTicks": 234,
                    "midi": 42,
                    "name": "F#2",
                    "ticks": 131760,
                    "time": 130.714155,
                    "velocity": 0.7952755905511811
                },
                {
                    "duration": 0.23214262500002292,
                    "durationTicks": 234,
                    "midi": 30,
                    "name": "F#1",
                    "ticks": 132000,
                    "time": 130.95225,
                    "velocity": 0.7952755905511811
                },
                {
                    "duration": 0.2321426249999945,
                    "durationTicks": 234,
                    "midi": 42,
                    "name": "F#2",
                    "ticks": 132240,
                    "time": 131.190345,
                    "velocity": 0.7952755905511811
                },
                {
                    "duration": 0.23214262500002292,
                    "durationTicks": 234,
                    "midi": 28,
                    "name": "E1",
                    "ticks": 132480,
                    "time": 131.42844,
                    "velocity": 0.7952755905511811
                },
                {
                    "duration": 0.2321426249999945,
                    "durationTicks": 234,
                    "midi": 40,
                    "name": "E2",
                    "ticks": 132720,
                    "time": 131.666535,
                    "velocity": 0.7952755905511811
                },
                {
                    "duration": 0.2321426249999945,
                    "durationTicks": 234,
                    "midi": 28,
                    "name": "E1",
                    "ticks": 132960,
                    "time": 131.90463,
                    "velocity": 0.7952755905511811
                },
                {
                    "duration": 0.2321426249999945,
                    "durationTicks": 234,
                    "midi": 40,
                    "name": "E2",
                    "ticks": 133200,
                    "time": 132.142725,
                    "velocity": 0.7952755905511811
                },
                {
                    "duration": 0.2321426249999945,
                    "durationTicks": 234,
                    "midi": 28,
                    "name": "E1",
                    "ticks": 133440,
                    "time": 132.38082,
                    "velocity": 0.7952755905511811
                },
                {
                    "duration": 0.23214262500002292,
                    "durationTicks": 234,
                    "midi": 40,
                    "name": "E2",
                    "ticks": 133680,
                    "time": 132.618915,
                    "velocity": 0.7952755905511811
                },
                {
                    "duration": 0.2321426249999945,
                    "durationTicks": 234,
                    "midi": 28,
                    "name": "E1",
                    "ticks": 133920,
                    "time": 132.85701,
                    "velocity": 0.7952755905511811
                },
                {
                    "duration": 0.23214262500002292,
                    "durationTicks": 234,
                    "midi": 40,
                    "name": "E2",
                    "ticks": 134160,
                    "time": 133.095105,
                    "velocity": 0.7952755905511811
                },
                {
                    "duration": 0.2321426249999945,
                    "durationTicks": 234,
                    "midi": 35,
                    "name": "B1",
                    "ticks": 134400,
                    "time": 133.3332,
                    "velocity": 0.7952755905511811
                },
                {
                    "duration": 0.23214262500002292,
                    "durationTicks": 234,
                    "midi": 47,
                    "name": "B2",
                    "ticks": 134640,
                    "time": 133.571295,
                    "velocity": 0.7952755905511811
                },
                {
                    "duration": 0.2321426249999945,
                    "durationTicks": 234,
                    "midi": 35,
                    "name": "B1",
                    "ticks": 134880,
                    "time": 133.80939,
                    "velocity": 0.7952755905511811
                },
                {
                    "duration": 0.23214262500002292,
                    "durationTicks": 234,
                    "midi": 47,
                    "name": "B2",
                    "ticks": 135120,
                    "time": 134.047485,
                    "velocity": 0.7952755905511811
                },
                {
                    "duration": 0.2321426249999945,
                    "durationTicks": 234,
                    "midi": 35,
                    "name": "B1",
                    "ticks": 135360,
                    "time": 134.28558,
                    "velocity": 0.7952755905511811
                },
                {
                    "duration": 0.23214262500002292,
                    "durationTicks": 234,
                    "midi": 47,
                    "name": "B2",
                    "ticks": 135600,
                    "time": 134.523675,
                    "velocity": 0.7952755905511811
                },
                {
                    "duration": 0.2321426249999945,
                    "durationTicks": 234,
                    "midi": 35,
                    "name": "B1",
                    "ticks": 135840,
                    "time": 134.76177,
                    "velocity": 0.7952755905511811
                },
                {
                    "duration": 0.2321426249999945,
                    "durationTicks": 234,
                    "midi": 47,
                    "name": "B2",
                    "ticks": 136080,
                    "time": 134.999865,
                    "velocity": 0.7952755905511811
                },
                {
                    "duration": 0.23214262500002292,
                    "durationTicks": 234,
                    "midi": 30,
                    "name": "F#1",
                    "ticks": 136320,
                    "time": 135.23796,
                    "velocity": 0.7952755905511811
                },
                {
                    "duration": 0.2321426249999945,
                    "durationTicks": 234,
                    "midi": 42,
                    "name": "F#2",
                    "ticks": 136560,
                    "time": 135.476055,
                    "velocity": 0.7952755905511811
                },
                {
                    "duration": 0.23214262500002292,
                    "durationTicks": 234,
                    "midi": 30,
                    "name": "F#1",
                    "ticks": 136800,
                    "time": 135.71415,
                    "velocity": 0.7952755905511811
                },
                {
                    "duration": 0.2321426249999945,
                    "durationTicks": 234,
                    "midi": 42,
                    "name": "F#2",
                    "ticks": 137040,
                    "time": 135.952245,
                    "velocity": 0.7952755905511811
                },
                {
                    "duration": 0.23214262500002292,
                    "durationTicks": 234,
                    "midi": 30,
                    "name": "F#1",
                    "ticks": 137280,
                    "time": 136.19034,
                    "velocity": 0.7952755905511811
                },
                {
                    "duration": 0.2321426249999945,
                    "durationTicks": 234,
                    "midi": 42,
                    "name": "F#2",
                    "ticks": 137520,
                    "time": 136.428435,
                    "velocity": 0.7952755905511811
                },
                {
                    "duration": 0.23214262500002292,
                    "durationTicks": 234,
                    "midi": 30,
                    "name": "F#1",
                    "ticks": 137760,
                    "time": 136.66653,
                    "velocity": 0.7952755905511811
                },
                {
                    "duration": 0.2321426249999945,
                    "durationTicks": 234,
                    "midi": 42,
                    "name": "F#2",
                    "ticks": 138000,
                    "time": 136.904625,
                    "velocity": 0.7952755905511811
                },
                {
                    "duration": 0.23214262500002292,
                    "durationTicks": 234,
                    "midi": 30,
                    "name": "F#1",
                    "ticks": 138240,
                    "time": 137.14272,
                    "velocity": 0.7952755905511811
                },
                {
                    "duration": 0.2321426249999945,
                    "durationTicks": 234,
                    "midi": 42,
                    "name": "F#2",
                    "ticks": 138480,
                    "time": 137.380815,
                    "velocity": 0.7952755905511811
                },
                {
                    "duration": 0.2321426249999945,
                    "durationTicks": 234,
                    "midi": 30,
                    "name": "F#1",
                    "ticks": 138720,
                    "time": 137.61891,
                    "velocity": 0.7952755905511811
                },
                {
                    "duration": 0.23214262500002292,
                    "durationTicks": 234,
                    "midi": 42,
                    "name": "F#2",
                    "ticks": 138960,
                    "time": 137.857005,
                    "velocity": 0.7952755905511811
                },
                {
                    "duration": 0.2321426249999945,
                    "durationTicks": 234,
                    "midi": 30,
                    "name": "F#1",
                    "ticks": 139200,
                    "time": 138.0951,
                    "velocity": 0.7952755905511811
                },
                {
                    "duration": 0.23214262500002292,
                    "durationTicks": 234,
                    "midi": 42,
                    "name": "F#2",
                    "ticks": 139440,
                    "time": 138.333195,
                    "velocity": 0.7952755905511811
                },
                {
                    "duration": 0.2321426249999945,
                    "durationTicks": 234,
                    "midi": 30,
                    "name": "F#1",
                    "ticks": 139680,
                    "time": 138.57129,
                    "velocity": 0.7952755905511811
                },
                {
                    "duration": 0.23214262500002292,
                    "durationTicks": 234,
                    "midi": 42,
                    "name": "F#2",
                    "ticks": 139920,
                    "time": 138.809385,
                    "velocity": 0.7952755905511811
                },
                {
                    "duration": 0.2321426249999945,
                    "durationTicks": 234,
                    "midi": 28,
                    "name": "E1",
                    "ticks": 140160,
                    "time": 139.04748,
                    "velocity": 0.7952755905511811
                },
                {
                    "duration": 0.23214262500002292,
                    "durationTicks": 234,
                    "midi": 40,
                    "name": "E2",
                    "ticks": 140400,
                    "time": 139.285575,
                    "velocity": 0.7952755905511811
                },
                {
                    "duration": 0.2321426249999945,
                    "durationTicks": 234,
                    "midi": 28,
                    "name": "E1",
                    "ticks": 140640,
                    "time": 139.52367,
                    "velocity": 0.7952755905511811
                },
                {
                    "duration": 0.23214262500002292,
                    "durationTicks": 234,
                    "midi": 40,
                    "name": "E2",
                    "ticks": 140880,
                    "time": 139.761765,
                    "velocity": 0.7952755905511811
                },
                {
                    "duration": 0.2321426249999945,
                    "durationTicks": 234,
                    "midi": 28,
                    "name": "E1",
                    "ticks": 141120,
                    "time": 139.99986,
                    "velocity": 0.7952755905511811
                },
                {
                    "duration": 0.2321426249999945,
                    "durationTicks": 234,
                    "midi": 40,
                    "name": "E2",
                    "ticks": 141360,
                    "time": 140.237955,
                    "velocity": 0.7952755905511811
                },
                {
                    "duration": 0.23214262500002292,
                    "durationTicks": 234,
                    "midi": 28,
                    "name": "E1",
                    "ticks": 141600,
                    "time": 140.47605,
                    "velocity": 0.7952755905511811
                },
                {
                    "duration": 0.2321426249999945,
                    "durationTicks": 234,
                    "midi": 40,
                    "name": "E2",
                    "ticks": 141840,
                    "time": 140.714145,
                    "velocity": 0.7952755905511811
                },
                {
                    "duration": 0.23214262500002292,
                    "durationTicks": 234,
                    "midi": 35,
                    "name": "B1",
                    "ticks": 142080,
                    "time": 140.95224,
                    "velocity": 0.7952755905511811
                },
                {
                    "duration": 0.2321426249999945,
                    "durationTicks": 234,
                    "midi": 47,
                    "name": "B2",
                    "ticks": 142320,
                    "time": 141.190335,
                    "velocity": 0.7952755905511811
                },
                {
                    "duration": 0.23214262500002292,
                    "durationTicks": 234,
                    "midi": 35,
                    "name": "B1",
                    "ticks": 142560,
                    "time": 141.42843,
                    "velocity": 0.7952755905511811
                },
                {
                    "duration": 0.2321426249999945,
                    "durationTicks": 234,
                    "midi": 47,
                    "name": "B2",
                    "ticks": 142800,
                    "time": 141.666525,
                    "velocity": 0.7952755905511811
                },
                {
                    "duration": 0.23214262500002292,
                    "durationTicks": 234,
                    "midi": 35,
                    "name": "B1",
                    "ticks": 143040,
                    "time": 141.90462,
                    "velocity": 0.7952755905511811
                },
                {
                    "duration": 0.2321426249999945,
                    "durationTicks": 234,
                    "midi": 47,
                    "name": "B2",
                    "ticks": 143280,
                    "time": 142.142715,
                    "velocity": 0.7952755905511811
                },
                {
                    "duration": 0.23214262500002292,
                    "durationTicks": 234,
                    "midi": 35,
                    "name": "B1",
                    "ticks": 143520,
                    "time": 142.38081,
                    "velocity": 0.7952755905511811
                },
                {
                    "duration": 0.2321426249999945,
                    "durationTicks": 234,
                    "midi": 47,
                    "name": "B2",
                    "ticks": 143760,
                    "time": 142.618905,
                    "velocity": 0.7952755905511811
                },
                {
                    "duration": 0.2321426249999945,
                    "durationTicks": 234,
                    "midi": 30,
                    "name": "F#1",
                    "ticks": 144000,
                    "time": 142.857,
                    "velocity": 0.7952755905511811
                },
                {
                    "duration": 0.2321426249999945,
                    "durationTicks": 234,
                    "midi": 42,
                    "name": "F#2",
                    "ticks": 144240,
                    "time": 143.09509500000001,
                    "velocity": 0.7952755905511811
                },
                {
                    "duration": 0.2321426249999945,
                    "durationTicks": 234,
                    "midi": 30,
                    "name": "F#1",
                    "ticks": 144480,
                    "time": 143.33319,
                    "velocity": 0.7952755905511811
                },
                {
                    "duration": 0.23214262500002292,
                    "durationTicks": 234,
                    "midi": 42,
                    "name": "F#2",
                    "ticks": 144720,
                    "time": 143.571285,
                    "velocity": 0.7952755905511811
                },
                {
                    "duration": 0.2321426249999945,
                    "durationTicks": 234,
                    "midi": 30,
                    "name": "F#1",
                    "ticks": 144960,
                    "time": 143.80938,
                    "velocity": 0.7952755905511811
                },
                {
                    "duration": 0.23214262500002292,
                    "durationTicks": 234,
                    "midi": 42,
                    "name": "F#2",
                    "ticks": 145200,
                    "time": 144.047475,
                    "velocity": 0.7952755905511811
                },
                {
                    "duration": 0.2321426249999945,
                    "durationTicks": 234,
                    "midi": 30,
                    "name": "F#1",
                    "ticks": 145440,
                    "time": 144.28557,
                    "velocity": 0.7952755905511811
                },
                {
                    "duration": 0.23214262500002292,
                    "durationTicks": 234,
                    "midi": 42,
                    "name": "F#2",
                    "ticks": 145680,
                    "time": 144.523665,
                    "velocity": 0.7952755905511811
                },
                {
                    "duration": 0.2321426249999945,
                    "durationTicks": 234,
                    "midi": 30,
                    "name": "F#1",
                    "ticks": 145920,
                    "time": 144.76176,
                    "velocity": 0.7952755905511811
                },
                {
                    "duration": 0.23214262500002292,
                    "durationTicks": 234,
                    "midi": 42,
                    "name": "F#2",
                    "ticks": 146160,
                    "time": 144.999855,
                    "velocity": 0.7952755905511811
                },
                {
                    "duration": 0.2321426249999945,
                    "durationTicks": 234,
                    "midi": 30,
                    "name": "F#1",
                    "ticks": 146400,
                    "time": 145.23795,
                    "velocity": 0.7952755905511811
                },
                {
                    "duration": 0.2321426249999945,
                    "durationTicks": 234,
                    "midi": 42,
                    "name": "F#2",
                    "ticks": 146640,
                    "time": 145.476045,
                    "velocity": 0.7952755905511811
                },
                {
                    "duration": 0.2321426249999945,
                    "durationTicks": 234,
                    "midi": 30,
                    "name": "F#1",
                    "ticks": 146880,
                    "time": 145.71414000000001,
                    "velocity": 0.7952755905511811
                },
                {
                    "duration": 0.2321426249999945,
                    "durationTicks": 234,
                    "midi": 42,
                    "name": "F#2",
                    "ticks": 147120,
                    "time": 145.952235,
                    "velocity": 0.7952755905511811
                },
                {
                    "duration": 0.23214262500002292,
                    "durationTicks": 234,
                    "midi": 30,
                    "name": "F#1",
                    "ticks": 147360,
                    "time": 146.19033,
                    "velocity": 0.7952755905511811
                },
                {
                    "duration": 0.2321426249999945,
                    "durationTicks": 234,
                    "midi": 42,
                    "name": "F#2",
                    "ticks": 147600,
                    "time": 146.428425,
                    "velocity": 0.7952755905511811
                },
                {
                    "duration": 0.23214262500002292,
                    "durationTicks": 234,
                    "midi": 28,
                    "name": "E1",
                    "ticks": 147840,
                    "time": 146.66652,
                    "velocity": 0.7952755905511811
                },
                {
                    "duration": 0.2321426249999945,
                    "durationTicks": 234,
                    "midi": 40,
                    "name": "E2",
                    "ticks": 148080,
                    "time": 146.904615,
                    "velocity": 0.7952755905511811
                },
                {
                    "duration": 0.23214262500002292,
                    "durationTicks": 234,
                    "midi": 28,
                    "name": "E1",
                    "ticks": 148320,
                    "time": 147.14271,
                    "velocity": 0.7952755905511811
                },
                {
                    "duration": 0.2321426249999945,
                    "durationTicks": 234,
                    "midi": 40,
                    "name": "E2",
                    "ticks": 148560,
                    "time": 147.380805,
                    "velocity": 0.7952755905511811
                },
                {
                    "duration": 0.23214262500002292,
                    "durationTicks": 234,
                    "midi": 28,
                    "name": "E1",
                    "ticks": 148800,
                    "time": 147.6189,
                    "velocity": 0.7952755905511811
                },
                {
                    "duration": 0.2321426249999945,
                    "durationTicks": 234,
                    "midi": 40,
                    "name": "E2",
                    "ticks": 149040,
                    "time": 147.856995,
                    "velocity": 0.7952755905511811
                },
                {
                    "duration": 0.2321426249999945,
                    "durationTicks": 234,
                    "midi": 28,
                    "name": "E1",
                    "ticks": 149280,
                    "time": 148.09509,
                    "velocity": 0.7952755905511811
                },
                {
                    "duration": 0.2321426249999945,
                    "durationTicks": 234,
                    "midi": 40,
                    "name": "E2",
                    "ticks": 149520,
                    "time": 148.33318500000001,
                    "velocity": 0.7952755905511811
                },
                {
                    "duration": 0.2321426249999945,
                    "durationTicks": 234,
                    "midi": 35,
                    "name": "B1",
                    "ticks": 149760,
                    "time": 148.57128,
                    "velocity": 0.7952755905511811
                },
                {
                    "duration": 0.23214262500002292,
                    "durationTicks": 234,
                    "midi": 47,
                    "name": "B2",
                    "ticks": 150000,
                    "time": 148.809375,
                    "velocity": 0.7952755905511811
                },
                {
                    "duration": 0.2321426249999945,
                    "durationTicks": 234,
                    "midi": 35,
                    "name": "B1",
                    "ticks": 150240,
                    "time": 149.04747,
                    "velocity": 0.7952755905511811
                },
                {
                    "duration": 0.23214262500002292,
                    "durationTicks": 234,
                    "midi": 47,
                    "name": "B2",
                    "ticks": 150480,
                    "time": 149.285565,
                    "velocity": 0.7952755905511811
                },
                {
                    "duration": 0.2321426249999945,
                    "durationTicks": 234,
                    "midi": 35,
                    "name": "B1",
                    "ticks": 150720,
                    "time": 149.52366,
                    "velocity": 0.7952755905511811
                },
                {
                    "duration": 0.23214262500002292,
                    "durationTicks": 234,
                    "midi": 47,
                    "name": "B2",
                    "ticks": 150960,
                    "time": 149.761755,
                    "velocity": 0.7952755905511811
                },
                {
                    "duration": 0.2321426249999945,
                    "durationTicks": 234,
                    "midi": 35,
                    "name": "B1",
                    "ticks": 151200,
                    "time": 149.99985,
                    "velocity": 0.7952755905511811
                },
                {
                    "duration": 0.23214262500002292,
                    "durationTicks": 234,
                    "midi": 47,
                    "name": "B2",
                    "ticks": 151440,
                    "time": 150.237945,
                    "velocity": 0.7952755905511811
                },
                {
                    "duration": 0.2321426249999945,
                    "durationTicks": 234,
                    "midi": 30,
                    "name": "F#1",
                    "ticks": 151680,
                    "time": 150.47604,
                    "velocity": 0.7952755905511811
                },
                {
                    "duration": 0.2321426249999945,
                    "durationTicks": 234,
                    "midi": 42,
                    "name": "F#2",
                    "ticks": 151920,
                    "time": 150.714135,
                    "velocity": 0.7952755905511811
                },
                {
                    "duration": 0.2321426249999945,
                    "durationTicks": 234,
                    "midi": 30,
                    "name": "F#1",
                    "ticks": 152160,
                    "time": 150.95223000000001,
                    "velocity": 0.7952755905511811
                },
                {
                    "duration": 0.2321426249999945,
                    "durationTicks": 234,
                    "midi": 42,
                    "name": "F#2",
                    "ticks": 152400,
                    "time": 151.190325,
                    "velocity": 0.7952755905511811
                },
                {
                    "duration": 0.23214262500002292,
                    "durationTicks": 234,
                    "midi": 30,
                    "name": "F#1",
                    "ticks": 152640,
                    "time": 151.42842,
                    "velocity": 0.7952755905511811
                },
                {
                    "duration": 0.2321426249999945,
                    "durationTicks": 234,
                    "midi": 42,
                    "name": "F#2",
                    "ticks": 152880,
                    "time": 151.666515,
                    "velocity": 0.7952755905511811
                },
                {
                    "duration": 0.23214262500002292,
                    "durationTicks": 234,
                    "midi": 30,
                    "name": "F#1",
                    "ticks": 153120,
                    "time": 151.90461,
                    "velocity": 0.7952755905511811
                },
                {
                    "duration": 0.2321426249999945,
                    "durationTicks": 234,
                    "midi": 42,
                    "name": "F#2",
                    "ticks": 153360,
                    "time": 152.142705,
                    "velocity": 0.7952755905511811
                },
                {
                    "duration": 0.23214262500002292,
                    "durationTicks": 234,
                    "midi": 30,
                    "name": "F#1",
                    "ticks": 153600,
                    "time": 152.3808,
                    "velocity": 0.7952755905511811
                },
                {
                    "duration": 0.2321426249999945,
                    "durationTicks": 234,
                    "midi": 42,
                    "name": "F#2",
                    "ticks": 153840,
                    "time": 152.618895,
                    "velocity": 0.7952755905511811
                },
                {
                    "duration": 0.23214262500002292,
                    "durationTicks": 234,
                    "midi": 30,
                    "name": "F#1",
                    "ticks": 154080,
                    "time": 152.85699,
                    "velocity": 0.7952755905511811
                },
                {
                    "duration": 0.2321426249999945,
                    "durationTicks": 234,
                    "midi": 42,
                    "name": "F#2",
                    "ticks": 154320,
                    "time": 153.095085,
                    "velocity": 0.7952755905511811
                },
                {
                    "duration": 0.2321426249999945,
                    "durationTicks": 234,
                    "midi": 30,
                    "name": "F#1",
                    "ticks": 154560,
                    "time": 153.33318,
                    "velocity": 0.7952755905511811
                },
                {
                    "duration": 0.2321426249999945,
                    "durationTicks": 234,
                    "midi": 42,
                    "name": "F#2",
                    "ticks": 154800,
                    "time": 153.571275,
                    "velocity": 0.7952755905511811
                },
                {
                    "duration": 0.2321426249999945,
                    "durationTicks": 234,
                    "midi": 30,
                    "name": "F#1",
                    "ticks": 155040,
                    "time": 153.80937,
                    "velocity": 0.7952755905511811
                },
                {
                    "duration": 0.23214262500002292,
                    "durationTicks": 234,
                    "midi": 42,
                    "name": "F#2",
                    "ticks": 155280,
                    "time": 154.047465,
                    "velocity": 0.7952755905511811
                },
                {
                    "duration": 0.2321426249999945,
                    "durationTicks": 234,
                    "midi": 28,
                    "name": "E1",
                    "ticks": 155520,
                    "time": 154.28556,
                    "velocity": 0.7952755905511811
                },
                {
                    "duration": 0.23214262500002292,
                    "durationTicks": 234,
                    "midi": 40,
                    "name": "E2",
                    "ticks": 155760,
                    "time": 154.523655,
                    "velocity": 0.7952755905511811
                },
                {
                    "duration": 0.2321426249999945,
                    "durationTicks": 234,
                    "midi": 28,
                    "name": "E1",
                    "ticks": 156000,
                    "time": 154.76175,
                    "velocity": 0.7952755905511811
                },
                {
                    "duration": 0.23214262500002292,
                    "durationTicks": 234,
                    "midi": 40,
                    "name": "E2",
                    "ticks": 156240,
                    "time": 154.999845,
                    "velocity": 0.7952755905511811
                },
                {
                    "duration": 0.2321426249999945,
                    "durationTicks": 234,
                    "midi": 28,
                    "name": "E1",
                    "ticks": 156480,
                    "time": 155.23794,
                    "velocity": 0.7952755905511811
                },
                {
                    "duration": 0.23214262500002292,
                    "durationTicks": 234,
                    "midi": 40,
                    "name": "E2",
                    "ticks": 156720,
                    "time": 155.476035,
                    "velocity": 0.7952755905511811
                },
                {
                    "duration": 0.2321426249999945,
                    "durationTicks": 234,
                    "midi": 28,
                    "name": "E1",
                    "ticks": 156960,
                    "time": 155.71413,
                    "velocity": 0.7952755905511811
                },
                {
                    "duration": 0.2321426249999945,
                    "durationTicks": 234,
                    "midi": 40,
                    "name": "E2",
                    "ticks": 157200,
                    "time": 155.952225,
                    "velocity": 0.7952755905511811
                },
                {
                    "duration": 0.2321426249999945,
                    "durationTicks": 234,
                    "midi": 35,
                    "name": "B1",
                    "ticks": 157440,
                    "time": 156.19032,
                    "velocity": 0.7952755905511811
                },
                {
                    "duration": 0.2321426249999945,
                    "durationTicks": 234,
                    "midi": 47,
                    "name": "B2",
                    "ticks": 157680,
                    "time": 156.428415,
                    "velocity": 0.7952755905511811
                },
                {
                    "duration": 0.23214262500002292,
                    "durationTicks": 234,
                    "midi": 35,
                    "name": "B1",
                    "ticks": 157920,
                    "time": 156.66651,
                    "velocity": 0.7952755905511811
                },
                {
                    "duration": 0.2321426249999945,
                    "durationTicks": 234,
                    "midi": 47,
                    "name": "B2",
                    "ticks": 158160,
                    "time": 156.904605,
                    "velocity": 0.7952755905511811
                },
                {
                    "duration": 0.23214262500002292,
                    "durationTicks": 234,
                    "midi": 35,
                    "name": "B1",
                    "ticks": 158400,
                    "time": 157.1427,
                    "velocity": 0.7952755905511811
                },
                {
                    "duration": 0.2321426249999945,
                    "durationTicks": 234,
                    "midi": 47,
                    "name": "B2",
                    "ticks": 158640,
                    "time": 157.380795,
                    "velocity": 0.7952755905511811
                },
                {
                    "duration": 0.23214262500002292,
                    "durationTicks": 234,
                    "midi": 35,
                    "name": "B1",
                    "ticks": 158880,
                    "time": 157.61889,
                    "velocity": 0.7952755905511811
                },
                {
                    "duration": 0.2321426249999945,
                    "durationTicks": 234,
                    "midi": 47,
                    "name": "B2",
                    "ticks": 159120,
                    "time": 157.856985,
                    "velocity": 0.7952755905511811
                },
                {
                    "duration": 0.23214262500002292,
                    "durationTicks": 234,
                    "midi": 30,
                    "name": "F#1",
                    "ticks": 159360,
                    "time": 158.09508,
                    "velocity": 0.7952755905511811
                },
                {
                    "duration": 0.2321426249999945,
                    "durationTicks": 234,
                    "midi": 42,
                    "name": "F#2",
                    "ticks": 159600,
                    "time": 158.333175,
                    "velocity": 0.7952755905511811
                },
                {
                    "duration": 0.2321426249999945,
                    "durationTicks": 234,
                    "midi": 30,
                    "name": "F#1",
                    "ticks": 159840,
                    "time": 158.57127,
                    "velocity": 0.7952755905511811
                },
                {
                    "duration": 0.2321426249999945,
                    "durationTicks": 234,
                    "midi": 42,
                    "name": "F#2",
                    "ticks": 160080,
                    "time": 158.809365,
                    "velocity": 0.7952755905511811
                },
                {
                    "duration": 0.2321426249999945,
                    "durationTicks": 234,
                    "midi": 30,
                    "name": "F#1",
                    "ticks": 160320,
                    "time": 159.04746,
                    "velocity": 0.7952755905511811
                },
                {
                    "duration": 0.23214262500002292,
                    "durationTicks": 234,
                    "midi": 42,
                    "name": "F#2",
                    "ticks": 160560,
                    "time": 159.285555,
                    "velocity": 0.7952755905511811
                },
                {
                    "duration": 0.2321426249999945,
                    "durationTicks": 234,
                    "midi": 30,
                    "name": "F#1",
                    "ticks": 160800,
                    "time": 159.52365,
                    "velocity": 0.7952755905511811
                },
                {
                    "duration": 0.23214262500002292,
                    "durationTicks": 234,
                    "midi": 42,
                    "name": "F#2",
                    "ticks": 161040,
                    "time": 159.761745,
                    "velocity": 0.7952755905511811
                },
                {
                    "duration": 0.2321426249999945,
                    "durationTicks": 234,
                    "midi": 30,
                    "name": "F#1",
                    "ticks": 176640,
                    "time": 175.23792,
                    "velocity": 0.7952755905511811
                },
                {
                    "duration": 0.23214262500002292,
                    "durationTicks": 234,
                    "midi": 42,
                    "name": "F#2",
                    "ticks": 176880,
                    "time": 175.476015,
                    "velocity": 0.7952755905511811
                },
                {
                    "duration": 0.2321426249999945,
                    "durationTicks": 234,
                    "midi": 30,
                    "name": "F#1",
                    "ticks": 177120,
                    "time": 175.71411,
                    "velocity": 0.7952755905511811
                },
                {
                    "duration": 0.23214262500002292,
                    "durationTicks": 234,
                    "midi": 42,
                    "name": "F#2",
                    "ticks": 177360,
                    "time": 175.952205,
                    "velocity": 0.7952755905511811
                },
                {
                    "duration": 0.2321426249999945,
                    "durationTicks": 234,
                    "midi": 30,
                    "name": "F#1",
                    "ticks": 177600,
                    "time": 176.1903,
                    "velocity": 0.7952755905511811
                },
                {
                    "duration": 0.23214262500002292,
                    "durationTicks": 234,
                    "midi": 42,
                    "name": "F#2",
                    "ticks": 177840,
                    "time": 176.428395,
                    "velocity": 0.7952755905511811
                },
                {
                    "duration": 0.2321426249999945,
                    "durationTicks": 234,
                    "midi": 30,
                    "name": "F#1",
                    "ticks": 178080,
                    "time": 176.66649,
                    "velocity": 0.7952755905511811
                },
                {
                    "duration": 0.23214262500002292,
                    "durationTicks": 234,
                    "midi": 42,
                    "name": "F#2",
                    "ticks": 178320,
                    "time": 176.904585,
                    "velocity": 0.7952755905511811
                },
                {
                    "duration": 0.2321426249999945,
                    "durationTicks": 234,
                    "midi": 30,
                    "name": "F#1",
                    "ticks": 178560,
                    "time": 177.14268,
                    "velocity": 0.7952755905511811
                },
                {
                    "duration": 0.2321426249999945,
                    "durationTicks": 234,
                    "midi": 42,
                    "name": "F#2",
                    "ticks": 178800,
                    "time": 177.380775,
                    "velocity": 0.7952755905511811
                },
                {
                    "duration": 0.23214262500002292,
                    "durationTicks": 234,
                    "midi": 30,
                    "name": "F#1",
                    "ticks": 179040,
                    "time": 177.61887,
                    "velocity": 0.7952755905511811
                },
                {
                    "duration": 0.2321426249999945,
                    "durationTicks": 234,
                    "midi": 42,
                    "name": "F#2",
                    "ticks": 179280,
                    "time": 177.856965,
                    "velocity": 0.7952755905511811
                },
                {
                    "duration": 0.23214262500002292,
                    "durationTicks": 234,
                    "midi": 30,
                    "name": "F#1",
                    "ticks": 179520,
                    "time": 178.09506,
                    "velocity": 0.7952755905511811
                },
                {
                    "duration": 0.2321426249999945,
                    "durationTicks": 234,
                    "midi": 42,
                    "name": "F#2",
                    "ticks": 179760,
                    "time": 178.333155,
                    "velocity": 0.7952755905511811
                },
                {
                    "duration": 0.23214262500002292,
                    "durationTicks": 234,
                    "midi": 30,
                    "name": "F#1",
                    "ticks": 180000,
                    "time": 178.57125,
                    "velocity": 0.7952755905511811
                },
                {
                    "duration": 0.2321426249999945,
                    "durationTicks": 234,
                    "midi": 42,
                    "name": "F#2",
                    "ticks": 180240,
                    "time": 178.809345,
                    "velocity": 0.7952755905511811
                },
                {
                    "duration": 0.23214262500002292,
                    "durationTicks": 234,
                    "midi": 30,
                    "name": "F#1",
                    "ticks": 180480,
                    "time": 179.04744,
                    "velocity": 0.7952755905511811
                },
                {
                    "duration": 0.2321426249999945,
                    "durationTicks": 234,
                    "midi": 42,
                    "name": "F#2",
                    "ticks": 180720,
                    "time": 179.285535,
                    "velocity": 0.7952755905511811
                },
                {
                    "duration": 0.23214262500002292,
                    "durationTicks": 234,
                    "midi": 30,
                    "name": "F#1",
                    "ticks": 180960,
                    "time": 179.52363,
                    "velocity": 0.7952755905511811
                },
                {
                    "duration": 0.2321426249999945,
                    "durationTicks": 234,
                    "midi": 42,
                    "name": "F#2",
                    "ticks": 181200,
                    "time": 179.761725,
                    "velocity": 0.7952755905511811
                },
                {
                    "duration": 0.2321426249999945,
                    "durationTicks": 234,
                    "midi": 30,
                    "name": "F#1",
                    "ticks": 181440,
                    "time": 179.99982,
                    "velocity": 0.7952755905511811
                },
                {
                    "duration": 0.23214262500002292,
                    "durationTicks": 234,
                    "midi": 42,
                    "name": "F#2",
                    "ticks": 181680,
                    "time": 180.237915,
                    "velocity": 0.7952755905511811
                },
                {
                    "duration": 0.2321426249999945,
                    "durationTicks": 234,
                    "midi": 30,
                    "name": "F#1",
                    "ticks": 181920,
                    "time": 180.47601,
                    "velocity": 0.7952755905511811
                },
                {
                    "duration": 0.23214262500002292,
                    "durationTicks": 234,
                    "midi": 42,
                    "name": "F#2",
                    "ticks": 182160,
                    "time": 180.714105,
                    "velocity": 0.7952755905511811
                },
                {
                    "duration": 1.8988076250000177,
                    "durationTicks": 1914,
                    "midi": 47,
                    "name": "B2",
                    "ticks": 197760,
                    "time": 196.19028,
                    "velocity": 0.5039370078740157
                },
                {
                    "duration": 1.8988076250000177,
                    "durationTicks": 1914,
                    "midi": 35,
                    "name": "B1",
                    "ticks": 197760,
                    "time": 196.19028,
                    "velocity": 0.5039370078740157
                },
                {
                    "duration": 0.2321426249999945,
                    "durationTicks": 234,
                    "midi": 30,
                    "name": "F#1",
                    "ticks": 199680,
                    "time": 198.09504,
                    "velocity": 0.7952755905511811
                },
                {
                    "duration": 0.2321426249999945,
                    "durationTicks": 234,
                    "midi": 42,
                    "name": "F#2",
                    "ticks": 199920,
                    "time": 198.333135,
                    "velocity": 0.7952755905511811
                },
                {
                    "duration": 0.2321426249999945,
                    "durationTicks": 234,
                    "midi": 30,
                    "name": "F#1",
                    "ticks": 200160,
                    "time": 198.57123,
                    "velocity": 0.7952755905511811
                },
                {
                    "duration": 0.2321426249999945,
                    "durationTicks": 234,
                    "midi": 42,
                    "name": "F#2",
                    "ticks": 200400,
                    "time": 198.809325,
                    "velocity": 0.7952755905511811
                },
                {
                    "duration": 0.23214262500002292,
                    "durationTicks": 234,
                    "midi": 30,
                    "name": "F#1",
                    "ticks": 200640,
                    "time": 199.04742,
                    "velocity": 0.7952755905511811
                },
                {
                    "duration": 0.2321426249999945,
                    "durationTicks": 234,
                    "midi": 42,
                    "name": "F#2",
                    "ticks": 200880,
                    "time": 199.285515,
                    "velocity": 0.7952755905511811
                },
                {
                    "duration": 0.23214262500002292,
                    "durationTicks": 234,
                    "midi": 30,
                    "name": "F#1",
                    "ticks": 201120,
                    "time": 199.52361,
                    "velocity": 0.7952755905511811
                },
                {
                    "duration": 0.2321426249999945,
                    "durationTicks": 234,
                    "midi": 42,
                    "name": "F#2",
                    "ticks": 201360,
                    "time": 199.761705,
                    "velocity": 0.7952755905511811
                },
                {
                    "duration": 0.23214262500002292,
                    "durationTicks": 234,
                    "midi": 28,
                    "name": "E1",
                    "ticks": 201600,
                    "time": 199.9998,
                    "velocity": 0.7952755905511811
                },
                {
                    "duration": 0.2321426249999945,
                    "durationTicks": 234,
                    "midi": 40,
                    "name": "E2",
                    "ticks": 201840,
                    "time": 200.237895,
                    "velocity": 0.7952755905511811
                },
                {
                    "duration": 0.23214262500002292,
                    "durationTicks": 234,
                    "midi": 28,
                    "name": "E1",
                    "ticks": 202080,
                    "time": 200.47599,
                    "velocity": 0.7952755905511811
                },
                {
                    "duration": 0.2321426249999945,
                    "durationTicks": 234,
                    "midi": 40,
                    "name": "E2",
                    "ticks": 202320,
                    "time": 200.714085,
                    "velocity": 0.7952755905511811
                },
                {
                    "duration": 0.2321426249999945,
                    "durationTicks": 234,
                    "midi": 28,
                    "name": "E1",
                    "ticks": 202560,
                    "time": 200.95218,
                    "velocity": 0.7952755905511811
                },
                {
                    "duration": 0.2321426249999945,
                    "durationTicks": 234,
                    "midi": 40,
                    "name": "E2",
                    "ticks": 202800,
                    "time": 201.190275,
                    "velocity": 0.7952755905511811
                },
                {
                    "duration": 0.2321426249999945,
                    "durationTicks": 234,
                    "midi": 28,
                    "name": "E1",
                    "ticks": 203040,
                    "time": 201.42837,
                    "velocity": 0.7952755905511811
                },
                {
                    "duration": 0.23214262500002292,
                    "durationTicks": 234,
                    "midi": 40,
                    "name": "E2",
                    "ticks": 203280,
                    "time": 201.666465,
                    "velocity": 0.7952755905511811
                },
                {
                    "duration": 0.2321426249999945,
                    "durationTicks": 234,
                    "midi": 35,
                    "name": "B1",
                    "ticks": 203520,
                    "time": 201.90456,
                    "velocity": 0.7952755905511811
                },
                {
                    "duration": 0.23214262500002292,
                    "durationTicks": 234,
                    "midi": 47,
                    "name": "B2",
                    "ticks": 203760,
                    "time": 202.142655,
                    "velocity": 0.7952755905511811
                },
                {
                    "duration": 0.2321426249999945,
                    "durationTicks": 234,
                    "midi": 35,
                    "name": "B1",
                    "ticks": 204000,
                    "time": 202.38075,
                    "velocity": 0.7952755905511811
                },
                {
                    "duration": 0.23214262500002292,
                    "durationTicks": 234,
                    "midi": 47,
                    "name": "B2",
                    "ticks": 204240,
                    "time": 202.618845,
                    "velocity": 0.7952755905511811
                },
                {
                    "duration": 0.2321426249999945,
                    "durationTicks": 234,
                    "midi": 35,
                    "name": "B1",
                    "ticks": 204480,
                    "time": 202.85694,
                    "velocity": 0.7952755905511811
                },
                {
                    "duration": 0.23214262500002292,
                    "durationTicks": 234,
                    "midi": 47,
                    "name": "B2",
                    "ticks": 204720,
                    "time": 203.095035,
                    "velocity": 0.7952755905511811
                },
                {
                    "duration": 0.2321426249999945,
                    "durationTicks": 234,
                    "midi": 35,
                    "name": "B1",
                    "ticks": 204960,
                    "time": 203.33313,
                    "velocity": 0.7952755905511811
                },
                {
                    "duration": 0.2321426249999945,
                    "durationTicks": 234,
                    "midi": 47,
                    "name": "B2",
                    "ticks": 205200,
                    "time": 203.571225,
                    "velocity": 0.7952755905511811
                },
                {
                    "duration": 0.2321426249999945,
                    "durationTicks": 234,
                    "midi": 30,
                    "name": "F#1",
                    "ticks": 205440,
                    "time": 203.80932,
                    "velocity": 0.7952755905511811
                },
                {
                    "duration": 0.2321426249999945,
                    "durationTicks": 234,
                    "midi": 42,
                    "name": "F#2",
                    "ticks": 205680,
                    "time": 204.047415,
                    "velocity": 0.7952755905511811
                },
                {
                    "duration": 0.23214262500002292,
                    "durationTicks": 234,
                    "midi": 30,
                    "name": "F#1",
                    "ticks": 205920,
                    "time": 204.28551,
                    "velocity": 0.7952755905511811
                },
                {
                    "duration": 0.2321426249999945,
                    "durationTicks": 234,
                    "midi": 42,
                    "name": "F#2",
                    "ticks": 206160,
                    "time": 204.523605,
                    "velocity": 0.7952755905511811
                },
                {
                    "duration": 0.23214262500002292,
                    "durationTicks": 234,
                    "midi": 30,
                    "name": "F#1",
                    "ticks": 206400,
                    "time": 204.7617,
                    "velocity": 0.7952755905511811
                },
                {
                    "duration": 0.2321426249999945,
                    "durationTicks": 234,
                    "midi": 42,
                    "name": "F#2",
                    "ticks": 206640,
                    "time": 204.999795,
                    "velocity": 0.7952755905511811
                },
                {
                    "duration": 0.23214262500002292,
                    "durationTicks": 234,
                    "midi": 30,
                    "name": "F#1",
                    "ticks": 206880,
                    "time": 205.23789,
                    "velocity": 0.7952755905511811
                },
                {
                    "duration": 0.2321426249999945,
                    "durationTicks": 234,
                    "midi": 42,
                    "name": "F#2",
                    "ticks": 207120,
                    "time": 205.475985,
                    "velocity": 0.7952755905511811
                },
                {
                    "duration": 0.23214262500002292,
                    "durationTicks": 234,
                    "midi": 30,
                    "name": "F#1",
                    "ticks": 207360,
                    "time": 205.71408,
                    "velocity": 0.7952755905511811
                },
                {
                    "duration": 0.2321426249999945,
                    "durationTicks": 234,
                    "midi": 42,
                    "name": "F#2",
                    "ticks": 207600,
                    "time": 205.952175,
                    "velocity": 0.7952755905511811
                },
                {
                    "duration": 0.2321426249999945,
                    "durationTicks": 234,
                    "midi": 30,
                    "name": "F#1",
                    "ticks": 207840,
                    "time": 206.19027,
                    "velocity": 0.7952755905511811
                },
                {
                    "duration": 0.2321426249999945,
                    "durationTicks": 234,
                    "midi": 42,
                    "name": "F#2",
                    "ticks": 208080,
                    "time": 206.428365,
                    "velocity": 0.7952755905511811
                },
                {
                    "duration": 0.2321426249999945,
                    "durationTicks": 234,
                    "midi": 30,
                    "name": "F#1",
                    "ticks": 208320,
                    "time": 206.66646,
                    "velocity": 0.7952755905511811
                },
                {
                    "duration": 0.23214262500002292,
                    "durationTicks": 234,
                    "midi": 42,
                    "name": "F#2",
                    "ticks": 208560,
                    "time": 206.904555,
                    "velocity": 0.7952755905511811
                },
                {
                    "duration": 0.2321426249999945,
                    "durationTicks": 234,
                    "midi": 30,
                    "name": "F#1",
                    "ticks": 208800,
                    "time": 207.14265,
                    "velocity": 0.7952755905511811
                },
                {
                    "duration": 0.23214262500002292,
                    "durationTicks": 234,
                    "midi": 42,
                    "name": "F#2",
                    "ticks": 209040,
                    "time": 207.380745,
                    "velocity": 0.7952755905511811
                },
                {
                    "duration": 0.2321426249999945,
                    "durationTicks": 234,
                    "midi": 28,
                    "name": "E1",
                    "ticks": 209280,
                    "time": 207.61884,
                    "velocity": 0.7952755905511811
                },
                {
                    "duration": 0.23214262500002292,
                    "durationTicks": 234,
                    "midi": 40,
                    "name": "E2",
                    "ticks": 209520,
                    "time": 207.856935,
                    "velocity": 0.7952755905511811
                },
                {
                    "duration": 0.2321426249999945,
                    "durationTicks": 234,
                    "midi": 28,
                    "name": "E1",
                    "ticks": 209760,
                    "time": 208.09503,
                    "velocity": 0.7952755905511811
                },
                {
                    "duration": 0.23214262500002292,
                    "durationTicks": 234,
                    "midi": 40,
                    "name": "E2",
                    "ticks": 210000,
                    "time": 208.333125,
                    "velocity": 0.7952755905511811
                },
                {
                    "duration": 0.2321426249999945,
                    "durationTicks": 234,
                    "midi": 28,
                    "name": "E1",
                    "ticks": 210240,
                    "time": 208.57122,
                    "velocity": 0.7952755905511811
                },
                {
                    "duration": 0.2321426249999945,
                    "durationTicks": 234,
                    "midi": 40,
                    "name": "E2",
                    "ticks": 210480,
                    "time": 208.809315,
                    "velocity": 0.7952755905511811
                },
                {
                    "duration": 0.2321426249999945,
                    "durationTicks": 234,
                    "midi": 28,
                    "name": "E1",
                    "ticks": 210720,
                    "time": 209.04741,
                    "velocity": 0.7952755905511811
                },
                {
                    "duration": 0.2321426249999945,
                    "durationTicks": 234,
                    "midi": 40,
                    "name": "E2",
                    "ticks": 210960,
                    "time": 209.285505,
                    "velocity": 0.7952755905511811
                },
                {
                    "duration": 0.23214262500002292,
                    "durationTicks": 234,
                    "midi": 35,
                    "name": "B1",
                    "ticks": 211200,
                    "time": 209.5236,
                    "velocity": 0.7952755905511811
                },
                {
                    "duration": 0.2321426249999945,
                    "durationTicks": 234,
                    "midi": 47,
                    "name": "B2",
                    "ticks": 211440,
                    "time": 209.761695,
                    "velocity": 0.7952755905511811
                },
                {
                    "duration": 0.23214262500002292,
                    "durationTicks": 234,
                    "midi": 35,
                    "name": "B1",
                    "ticks": 211680,
                    "time": 209.99979,
                    "velocity": 0.7952755905511811
                },
                {
                    "duration": 0.2321426249999945,
                    "durationTicks": 234,
                    "midi": 47,
                    "name": "B2",
                    "ticks": 211920,
                    "time": 210.237885,
                    "velocity": 0.7952755905511811
                },
                {
                    "duration": 0.23214262500002292,
                    "durationTicks": 234,
                    "midi": 35,
                    "name": "B1",
                    "ticks": 212160,
                    "time": 210.47598,
                    "velocity": 0.7952755905511811
                },
                {
                    "duration": 0.2321426249999945,
                    "durationTicks": 234,
                    "midi": 47,
                    "name": "B2",
                    "ticks": 212400,
                    "time": 210.714075,
                    "velocity": 0.7952755905511811
                },
                {
                    "duration": 0.23214262500002292,
                    "durationTicks": 234,
                    "midi": 35,
                    "name": "B1",
                    "ticks": 212640,
                    "time": 210.95217,
                    "velocity": 0.7952755905511811
                },
                {
                    "duration": 0.2321426249999945,
                    "durationTicks": 234,
                    "midi": 47,
                    "name": "B2",
                    "ticks": 212880,
                    "time": 211.190265,
                    "velocity": 0.7952755905511811
                },
                {
                    "duration": 0.2321426249999945,
                    "durationTicks": 234,
                    "midi": 30,
                    "name": "F#1",
                    "ticks": 213120,
                    "time": 211.42836,
                    "velocity": 0.7952755905511811
                },
                {
                    "duration": 0.2321426249999945,
                    "durationTicks": 234,
                    "midi": 42,
                    "name": "F#2",
                    "ticks": 213360,
                    "time": 211.666455,
                    "velocity": 0.7952755905511811
                },
                {
                    "duration": 0.2321426249999945,
                    "durationTicks": 234,
                    "midi": 30,
                    "name": "F#1",
                    "ticks": 213600,
                    "time": 211.90455,
                    "velocity": 0.7952755905511811
                },
                {
                    "duration": 0.23214262500002292,
                    "durationTicks": 234,
                    "midi": 42,
                    "name": "F#2",
                    "ticks": 213840,
                    "time": 212.142645,
                    "velocity": 0.7952755905511811
                },
                {
                    "duration": 0.2321426249999945,
                    "durationTicks": 234,
                    "midi": 30,
                    "name": "F#1",
                    "ticks": 214080,
                    "time": 212.38074,
                    "velocity": 0.7952755905511811
                },
                {
                    "duration": 0.23214262500002292,
                    "durationTicks": 234,
                    "midi": 42,
                    "name": "F#2",
                    "ticks": 214320,
                    "time": 212.618835,
                    "velocity": 0.7952755905511811
                },
                {
                    "duration": 0.2321426249999945,
                    "durationTicks": 234,
                    "midi": 30,
                    "name": "F#1",
                    "ticks": 214560,
                    "time": 212.85693,
                    "velocity": 0.7952755905511811
                },
                {
                    "duration": 0.23214262500002292,
                    "durationTicks": 234,
                    "midi": 42,
                    "name": "F#2",
                    "ticks": 214800,
                    "time": 213.095025,
                    "velocity": 0.7952755905511811
                },
                {
                    "duration": 0.2321426249999945,
                    "durationTicks": 234,
                    "midi": 30,
                    "name": "F#1",
                    "ticks": 215040,
                    "time": 213.33312,
                    "velocity": 0.7952755905511811
                },
                {
                    "duration": 0.23214262500002292,
                    "durationTicks": 234,
                    "midi": 42,
                    "name": "F#2",
                    "ticks": 215280,
                    "time": 213.571215,
                    "velocity": 0.7952755905511811
                },
                {
                    "duration": 0.2321426249999945,
                    "durationTicks": 234,
                    "midi": 30,
                    "name": "F#1",
                    "ticks": 215520,
                    "time": 213.80931,
                    "velocity": 0.7952755905511811
                },
                {
                    "duration": 0.2321426249999945,
                    "durationTicks": 234,
                    "midi": 42,
                    "name": "F#2",
                    "ticks": 215760,
                    "time": 214.047405,
                    "velocity": 0.7952755905511811
                },
                {
                    "duration": 0.2321426249999945,
                    "durationTicks": 234,
                    "midi": 30,
                    "name": "F#1",
                    "ticks": 216000,
                    "time": 214.2855,
                    "velocity": 0.7952755905511811
                },
                {
                    "duration": 0.2321426249999945,
                    "durationTicks": 234,
                    "midi": 42,
                    "name": "F#2",
                    "ticks": 216240,
                    "time": 214.523595,
                    "velocity": 0.7952755905511811
                },
                {
                    "duration": 0.23214262500002292,
                    "durationTicks": 234,
                    "midi": 30,
                    "name": "F#1",
                    "ticks": 216480,
                    "time": 214.76169,
                    "velocity": 0.7952755905511811
                },
                {
                    "duration": 0.2321426249999945,
                    "durationTicks": 234,
                    "midi": 42,
                    "name": "F#2",
                    "ticks": 216720,
                    "time": 214.999785,
                    "velocity": 0.7952755905511811
                },
                {
                    "duration": 0.23214262500002292,
                    "durationTicks": 234,
                    "midi": 28,
                    "name": "E1",
                    "ticks": 216960,
                    "time": 215.23788,
                    "velocity": 0.7952755905511811
                },
                {
                    "duration": 0.2321426249999945,
                    "durationTicks": 234,
                    "midi": 40,
                    "name": "E2",
                    "ticks": 217200,
                    "time": 215.475975,
                    "velocity": 0.7952755905511811
                },
                {
                    "duration": 0.23214262500002292,
                    "durationTicks": 234,
                    "midi": 28,
                    "name": "E1",
                    "ticks": 217440,
                    "time": 215.71407,
                    "velocity": 0.7952755905511811
                },
                {
                    "duration": 0.2321426249999945,
                    "durationTicks": 234,
                    "midi": 40,
                    "name": "E2",
                    "ticks": 217680,
                    "time": 215.952165,
                    "velocity": 0.7952755905511811
                },
                {
                    "duration": 0.23214262500002292,
                    "durationTicks": 234,
                    "midi": 28,
                    "name": "E1",
                    "ticks": 217920,
                    "time": 216.19026,
                    "velocity": 0.7952755905511811
                },
                {
                    "duration": 0.2321426249999945,
                    "durationTicks": 234,
                    "midi": 40,
                    "name": "E2",
                    "ticks": 218160,
                    "time": 216.428355,
                    "velocity": 0.7952755905511811
                },
                {
                    "duration": 0.23214262500002292,
                    "durationTicks": 234,
                    "midi": 28,
                    "name": "E1",
                    "ticks": 218400,
                    "time": 216.66645,
                    "velocity": 0.7952755905511811
                },
                {
                    "duration": 0.2321426249999945,
                    "durationTicks": 234,
                    "midi": 40,
                    "name": "E2",
                    "ticks": 218640,
                    "time": 216.904545,
                    "velocity": 0.7952755905511811
                },
                {
                    "duration": 0.2321426249999945,
                    "durationTicks": 234,
                    "midi": 35,
                    "name": "B1",
                    "ticks": 218880,
                    "time": 217.14264,
                    "velocity": 0.7952755905511811
                },
                {
                    "duration": 0.23214262500002292,
                    "durationTicks": 234,
                    "midi": 47,
                    "name": "B2",
                    "ticks": 219120,
                    "time": 217.380735,
                    "velocity": 0.7952755905511811
                },
                {
                    "duration": 0.2321426249999945,
                    "durationTicks": 234,
                    "midi": 35,
                    "name": "B1",
                    "ticks": 219360,
                    "time": 217.61883,
                    "velocity": 0.7952755905511811
                },
                {
                    "duration": 0.23214262500002292,
                    "durationTicks": 234,
                    "midi": 47,
                    "name": "B2",
                    "ticks": 219600,
                    "time": 217.856925,
                    "velocity": 0.7952755905511811
                },
                {
                    "duration": 0.2321426249999945,
                    "durationTicks": 234,
                    "midi": 35,
                    "name": "B1",
                    "ticks": 219840,
                    "time": 218.09502,
                    "velocity": 0.7952755905511811
                },
                {
                    "duration": 0.23214262500002292,
                    "durationTicks": 234,
                    "midi": 47,
                    "name": "B2",
                    "ticks": 220080,
                    "time": 218.333115,
                    "velocity": 0.7952755905511811
                },
                {
                    "duration": 0.2321426249999945,
                    "durationTicks": 234,
                    "midi": 35,
                    "name": "B1",
                    "ticks": 220320,
                    "time": 218.57121,
                    "velocity": 0.7952755905511811
                },
                {
                    "duration": 0.23214262500002292,
                    "durationTicks": 234,
                    "midi": 47,
                    "name": "B2",
                    "ticks": 220560,
                    "time": 218.809305,
                    "velocity": 0.7952755905511811
                },
                {
                    "duration": 0.2321426249999945,
                    "durationTicks": 234,
                    "midi": 30,
                    "name": "F#1",
                    "ticks": 220800,
                    "time": 219.0474,
                    "velocity": 0.7952755905511811
                },
                {
                    "duration": 0.23214262500002292,
                    "durationTicks": 234,
                    "midi": 42,
                    "name": "F#2",
                    "ticks": 221040,
                    "time": 219.285495,
                    "velocity": 0.7952755905511811
                },
                {
                    "duration": 0.2321426249999945,
                    "durationTicks": 234,
                    "midi": 30,
                    "name": "F#1",
                    "ticks": 221280,
                    "time": 219.52359,
                    "velocity": 0.7952755905511811
                },
                {
                    "duration": 0.2321426249999945,
                    "durationTicks": 234,
                    "midi": 42,
                    "name": "F#2",
                    "ticks": 221520,
                    "time": 219.761685,
                    "velocity": 0.7952755905511811
                },
                {
                    "duration": 0.23214262500002292,
                    "durationTicks": 234,
                    "midi": 30,
                    "name": "F#1",
                    "ticks": 221760,
                    "time": 219.99978,
                    "velocity": 0.7952755905511811
                },
                {
                    "duration": 0.2321426249999945,
                    "durationTicks": 234,
                    "midi": 42,
                    "name": "F#2",
                    "ticks": 222000,
                    "time": 220.237875,
                    "velocity": 0.7952755905511811
                },
                {
                    "duration": 0.23214262500002292,
                    "durationTicks": 234,
                    "midi": 30,
                    "name": "F#1",
                    "ticks": 222240,
                    "time": 220.47597,
                    "velocity": 0.7952755905511811
                },
                {
                    "duration": 0.2321426249999945,
                    "durationTicks": 234,
                    "midi": 42,
                    "name": "F#2",
                    "ticks": 222480,
                    "time": 220.714065,
                    "velocity": 0.7952755905511811
                },
                {
                    "duration": 0.23214262500002292,
                    "durationTicks": 234,
                    "midi": 30,
                    "name": "F#1",
                    "ticks": 222720,
                    "time": 220.95216,
                    "velocity": 0.7952755905511811
                },
                {
                    "duration": 0.2321426249999945,
                    "durationTicks": 234,
                    "midi": 42,
                    "name": "F#2",
                    "ticks": 222960,
                    "time": 221.190255,
                    "velocity": 0.7952755905511811
                },
                {
                    "duration": 0.23214262500002292,
                    "durationTicks": 234,
                    "midi": 30,
                    "name": "F#1",
                    "ticks": 223200,
                    "time": 221.42835,
                    "velocity": 0.7952755905511811
                },
                {
                    "duration": 0.2321426249999945,
                    "durationTicks": 234,
                    "midi": 42,
                    "name": "F#2",
                    "ticks": 223440,
                    "time": 221.666445,
                    "velocity": 0.7952755905511811
                },
                {
                    "duration": 0.23214262500002292,
                    "durationTicks": 234,
                    "midi": 30,
                    "name": "F#1",
                    "ticks": 223680,
                    "time": 221.90454,
                    "velocity": 0.7952755905511811
                },
                {
                    "duration": 0.2321426249999945,
                    "durationTicks": 234,
                    "midi": 42,
                    "name": "F#2",
                    "ticks": 223920,
                    "time": 222.142635,
                    "velocity": 0.7952755905511811
                },
                {
                    "duration": 0.2321426249999945,
                    "durationTicks": 234,
                    "midi": 30,
                    "name": "F#1",
                    "ticks": 224160,
                    "time": 222.38073,
                    "velocity": 0.7952755905511811
                },
                {
                    "duration": 0.23214262500002292,
                    "durationTicks": 234,
                    "midi": 42,
                    "name": "F#2",
                    "ticks": 224400,
                    "time": 222.618825,
                    "velocity": 0.7952755905511811
                },
                {
                    "duration": 0.2321426249999945,
                    "durationTicks": 234,
                    "midi": 28,
                    "name": "E1",
                    "ticks": 224640,
                    "time": 222.85692,
                    "velocity": 0.7952755905511811
                },
                {
                    "duration": 0.23214262500002292,
                    "durationTicks": 234,
                    "midi": 40,
                    "name": "E2",
                    "ticks": 224880,
                    "time": 223.095015,
                    "velocity": 0.7952755905511811
                },
                {
                    "duration": 0.2321426249999945,
                    "durationTicks": 234,
                    "midi": 28,
                    "name": "E1",
                    "ticks": 225120,
                    "time": 223.33311,
                    "velocity": 0.7952755905511811
                },
                {
                    "duration": 0.23214262500002292,
                    "durationTicks": 234,
                    "midi": 40,
                    "name": "E2",
                    "ticks": 225360,
                    "time": 223.571205,
                    "velocity": 0.7952755905511811
                },
                {
                    "duration": 0.2321426249999945,
                    "durationTicks": 234,
                    "midi": 28,
                    "name": "E1",
                    "ticks": 225600,
                    "time": 223.8093,
                    "velocity": 0.7952755905511811
                },
                {
                    "duration": 0.23214262500002292,
                    "durationTicks": 234,
                    "midi": 40,
                    "name": "E2",
                    "ticks": 225840,
                    "time": 224.047395,
                    "velocity": 0.7952755905511811
                },
                {
                    "duration": 0.2321426249999945,
                    "durationTicks": 234,
                    "midi": 28,
                    "name": "E1",
                    "ticks": 226080,
                    "time": 224.28549,
                    "velocity": 0.7952755905511811
                },
                {
                    "duration": 0.23214262500002292,
                    "durationTicks": 234,
                    "midi": 40,
                    "name": "E2",
                    "ticks": 226320,
                    "time": 224.523585,
                    "velocity": 0.7952755905511811
                },
                {
                    "duration": 0.2321426249999945,
                    "durationTicks": 234,
                    "midi": 35,
                    "name": "B1",
                    "ticks": 226560,
                    "time": 224.76168,
                    "velocity": 0.7952755905511811
                },
                {
                    "duration": 0.2321426249999945,
                    "durationTicks": 234,
                    "midi": 47,
                    "name": "B2",
                    "ticks": 226800,
                    "time": 224.999775,
                    "velocity": 0.7952755905511811
                },
                {
                    "duration": 0.2321426249999945,
                    "durationTicks": 234,
                    "midi": 35,
                    "name": "B1",
                    "ticks": 227040,
                    "time": 225.23787000000002,
                    "velocity": 0.7952755905511811
                },
                {
                    "duration": 0.2321426249999945,
                    "durationTicks": 234,
                    "midi": 47,
                    "name": "B2",
                    "ticks": 227280,
                    "time": 225.475965,
                    "velocity": 0.7952755905511811
                },
                {
                    "duration": 0.23214262500002292,
                    "durationTicks": 234,
                    "midi": 35,
                    "name": "B1",
                    "ticks": 227520,
                    "time": 225.71406,
                    "velocity": 0.7952755905511811
                },
                {
                    "duration": 0.2321426249999945,
                    "durationTicks": 234,
                    "midi": 47,
                    "name": "B2",
                    "ticks": 227760,
                    "time": 225.952155,
                    "velocity": 0.7952755905511811
                },
                {
                    "duration": 0.23214262500002292,
                    "durationTicks": 234,
                    "midi": 35,
                    "name": "B1",
                    "ticks": 228000,
                    "time": 226.19025,
                    "velocity": 0.7952755905511811
                },
                {
                    "duration": 0.2321426249999945,
                    "durationTicks": 234,
                    "midi": 47,
                    "name": "B2",
                    "ticks": 228240,
                    "time": 226.428345,
                    "velocity": 0.7952755905511811
                },
                {
                    "duration": 0.23214262500002292,
                    "durationTicks": 234,
                    "midi": 30,
                    "name": "F#1",
                    "ticks": 228480,
                    "time": 226.66644,
                    "velocity": 0.7952755905511811
                },
                {
                    "duration": 0.2321426249999945,
                    "durationTicks": 234,
                    "midi": 42,
                    "name": "F#2",
                    "ticks": 228720,
                    "time": 226.904535,
                    "velocity": 0.7952755905511811
                },
                {
                    "duration": 0.23214262500002292,
                    "durationTicks": 234,
                    "midi": 30,
                    "name": "F#1",
                    "ticks": 228960,
                    "time": 227.14263,
                    "velocity": 0.7952755905511811
                },
                {
                    "duration": 0.2321426249999945,
                    "durationTicks": 234,
                    "midi": 42,
                    "name": "F#2",
                    "ticks": 229200,
                    "time": 227.380725,
                    "velocity": 0.7952755905511811
                },
                {
                    "duration": 0.2321426249999945,
                    "durationTicks": 234,
                    "midi": 30,
                    "name": "F#1",
                    "ticks": 229440,
                    "time": 227.61882,
                    "velocity": 0.7952755905511811
                },
                {
                    "duration": 0.2321426249999945,
                    "durationTicks": 234,
                    "midi": 42,
                    "name": "F#2",
                    "ticks": 229680,
                    "time": 227.85691500000001,
                    "velocity": 0.7952755905511811
                },
                {
                    "duration": 0.2321426249999945,
                    "durationTicks": 234,
                    "midi": 30,
                    "name": "F#1",
                    "ticks": 229920,
                    "time": 228.09501,
                    "velocity": 0.7952755905511811
                },
                {
                    "duration": 0.23214262500002292,
                    "durationTicks": 234,
                    "midi": 42,
                    "name": "F#2",
                    "ticks": 230160,
                    "time": 228.333105,
                    "velocity": 0.7952755905511811
                }
            ]
        },
        {
            "channel": 0,
            "controlChanges": {
                "0": [
                    {
                        "number": 0,
                        "ticks": 0,
                        "time": 0,
                        "value": 0
                    }
                ]
            },
            "pitchBends": [],
            "instrument": {
                "family": "piano",
                "name": "acoustic grand piano",
                "number": 0
            },
            "name": "Reverse Cymbal",
            "notes": []
        },
        {
            "channel": 10,
            "controlChanges": {
                "1": [
                    {
                        "number": 1,
                        "ticks": 837,
                        "time": 0.8303563125,
                        "value": 0
                    }
                ],
                "7": [
                    {
                        "number": 7,
                        "ticks": 512,
                        "time": 0.5079359999999999,
                        "value": 0.7007874015748031
                    },
                    {
                        "number": 7,
                        "ticks": 44595,
                        "time": 44.2410271875,
                        "value": 0.6929133858267716
                    }
                ],
                "10": [
                    {
                        "number": 10,
                        "ticks": 562,
                        "time": 0.557539125,
                        "value": 0.5590551181102362
                    }
                ],
                "11": [
                    {
                        "number": 11,
                        "ticks": 787,
                        "time": 0.7807531875,
                        "value": 1
                    }
                ],
                "64": [
                    {
                        "number": 64,
                        "ticks": 737,
                        "time": 0.7311500625,
                        "value": 0
                    }
                ],
                "91": [
                    {
                        "number": 91,
                        "ticks": 637,
                        "time": 0.6319438125,
                        "value": 0.8582677165354331
                    }
                ],
                "93": [
                    {
                        "number": 93,
                        "ticks": 687,
                        "time": 0.6815469375,
                        "value": 0.2125984251968504
                    }
                ],
                "120": [
                    {
                        "number": 120,
                        "ticks": 49920,
                        "time": 49.52376,
                        "value": 0
                    },
                    {
                        "number": 120,
                        "ticks": 53760,
                        "time": 53.33328,
                        "value": 0
                    },
                    {
                        "number": 120,
                        "ticks": 57600,
                        "time": 57.1428,
                        "value": 0
                    },
                    {
                        "number": 120,
                        "ticks": 119040,
                        "time": 118.09512,
                        "value": 0
                    },
                    {
                        "number": 120,
                        "ticks": 122880,
                        "time": 121.90464,
                        "value": 0
                    },
                    {
                        "number": 120,
                        "ticks": 126720,
                        "time": 125.71416,
                        "value": 0
                    }
                ],
                "121": [
                    {
                        "number": 121,
                        "ticks": 345,
                        "time": 0.3422615625,
                        "value": 0
                    }
                ],
                "123": [
                    {
                        "number": 123,
                        "ticks": 49920,
                        "time": 49.52376,
                        "value": 0
                    },
                    {
                        "number": 123,
                        "ticks": 53760,
                        "time": 53.33328,
                        "value": 0
                    },
                    {
                        "number": 123,
                        "ticks": 57600,
                        "time": 57.1428,
                        "value": 0
                    },
                    {
                        "number": 123,
                        "ticks": 119040,
                        "time": 118.09512,
                        "value": 0
                    },
                    {
                        "number": 123,
                        "ticks": 122880,
                        "time": 121.90464,
                        "value": 0
                    },
                    {
                        "number": 123,
                        "ticks": 126720,
                        "time": 125.71416,
                        "value": 0
                    }
                ]
            },
            "pitchBends": [
                {
                    "ticks": 887,
                    "time": 0.8799594375,
                    "value": 0
                }
            ],
            "instrument": {
                "family": "percussive",
                "name": "reverse cymbal",
                "number": 119
            },
            "name": "",
            "notes": [
                {
                    "duration": 1.3115066249999963,
                    "durationTicks": 1322,
                    "midi": 47,
                    "name": "B2",
                    "ticks": 21655,
                    "time": 21.483113437500002,
                    "velocity": 0.937007874015748
                },
                {
                    "duration": 1.4394826875000035,
                    "durationTicks": 1451,
                    "midi": 58,
                    "name": "A#3",
                    "ticks": 44680,
                    "time": 44.3253525,
                    "velocity": 0.8346456692913385
                },
                {
                    "duration": 1.3115066249999998,
                    "durationTicks": 1322,
                    "midi": 59,
                    "name": "B3",
                    "ticks": 60055,
                    "time": 59.5783134375,
                    "velocity": 0.937007874015748
                },
                {
                    "duration": 0.9226181249999996,
                    "durationTicks": 930,
                    "midi": 59,
                    "name": "B3",
                    "ticks": 75840,
                    "time": 75.23802,
                    "velocity": 1
                },
                {
                    "duration": 1.3115066249999927,
                    "durationTicks": 1322,
                    "midi": 59,
                    "name": "B3",
                    "ticks": 106135,
                    "time": 105.2925534375,
                    "velocity": 0.937007874015748
                },
                {
                    "duration": 1.3115066249999927,
                    "durationTicks": 1322,
                    "midi": 59,
                    "name": "B3",
                    "ticks": 129175,
                    "time": 128.14967343749998,
                    "velocity": 0.937007874015748
                },
                {
                    "duration": 0.9226181249999854,
                    "durationTicks": 930,
                    "midi": 59,
                    "name": "B3",
                    "ticks": 144960,
                    "time": 143.80938,
                    "velocity": 1
                },
                {
                    "duration": 0.9226181249999854,
                    "durationTicks": 930,
                    "midi": 59,
                    "name": "B3",
                    "ticks": 183360,
                    "time": 181.90458,
                    "velocity": 1
                },
                {
                    "duration": 1.3115066249999927,
                    "durationTicks": 1322,
                    "midi": 59,
                    "name": "B3",
                    "ticks": 198295,
                    "time": 196.72103343749998,
                    "velocity": 0.937007874015748
                },
                {
                    "duration": 0.9226181249999854,
                    "durationTicks": 930,
                    "midi": 59,
                    "name": "B3",
                    "ticks": 214080,
                    "time": 212.38074,
                    "velocity": 1
                },
                {
                    "duration": 0.9226181250000138,
                    "durationTicks": 930,
                    "midi": 59,
                    "name": "B3",
                    "ticks": 229440,
                    "time": 227.61882,
                    "velocity": 0.937007874015748
                }
            ]
        },
        {
            "channel": 0,
            "controlChanges": {
                "0": [
                    {
                        "number": 0,
                        "ticks": 0,
                        "time": 0,
                        "value": 0
                    }
                ]
            },
            "pitchBends": [],
            "instrument": {
                "family": "piano",
                "name": "acoustic grand piano",
                "number": 0
            },
            "name": "Lead 1 (square)",
            "notes": []
        },
        {
            "channel": 13,
            "controlChanges": {
                "1": [
                    {
                        "number": 1,
                        "ticks": 837,
                        "time": 0.8303563125,
                        "value": 0
                    }
                ],
                "5": [
                    {
                        "number": 5,
                        "ticks": 1762,
                        "time": 1.748014125,
                        "value": 0.49606299212598426
                    }
                ],
                "7": [
                    {
                        "number": 7,
                        "ticks": 512,
                        "time": 0.5079359999999999,
                        "value": 0.7007874015748031
                    },
                    {
                        "number": 7,
                        "ticks": 44640,
                        "time": 44.28567,
                        "value": 0.6062992125984252
                    },
                    {
                        "number": 7,
                        "ticks": 45384,
                        "time": 45.0237645,
                        "value": 0.5196850393700787
                    },
                    {
                        "number": 7,
                        "ticks": 46128,
                        "time": 45.761858999999994,
                        "value": 0.4330708661417323
                    },
                    {
                        "number": 7,
                        "ticks": 46872,
                        "time": 46.499953500000004,
                        "value": 0.3464566929133858
                    },
                    {
                        "number": 7,
                        "ticks": 47616,
                        "time": 47.238048,
                        "value": 0.25984251968503935
                    },
                    {
                        "number": 7,
                        "ticks": 48360,
                        "time": 47.9761425,
                        "value": 0.1732283464566929
                    },
                    {
                        "number": 7,
                        "ticks": 49104,
                        "time": 48.714237,
                        "value": 0.08661417322834646
                    },
                    {
                        "number": 7,
                        "ticks": 49848,
                        "time": 49.4523315,
                        "value": 0
                    },
                    {
                        "number": 7,
                        "ticks": 50280,
                        "time": 49.8809025,
                        "value": 0.1732283464566929
                    },
                    {
                        "number": 7,
                        "ticks": 51024,
                        "time": 50.618997,
                        "value": 0.08661417322834646
                    },
                    {
                        "number": 7,
                        "ticks": 51768,
                        "time": 51.357091499999996,
                        "value": 0
                    },
                    {
                        "number": 7,
                        "ticks": 52200,
                        "time": 51.7856625,
                        "value": 0.1732283464566929
                    },
                    {
                        "number": 7,
                        "ticks": 52944,
                        "time": 52.523756999999996,
                        "value": 0.08661417322834646
                    },
                    {
                        "number": 7,
                        "ticks": 53688,
                        "time": 53.2618515,
                        "value": 0
                    },
                    {
                        "number": 7,
                        "ticks": 53808,
                        "time": 53.380899,
                        "value": 0.4330708661417323
                    },
                    {
                        "number": 7,
                        "ticks": 54552,
                        "time": 54.1189935,
                        "value": 0.3464566929133858
                    },
                    {
                        "number": 7,
                        "ticks": 55296,
                        "time": 54.857088000000005,
                        "value": 0.25984251968503935
                    },
                    {
                        "number": 7,
                        "ticks": 56040,
                        "time": 55.5951825,
                        "value": 0.1732283464566929
                    },
                    {
                        "number": 7,
                        "ticks": 56784,
                        "time": 56.333276999999995,
                        "value": 0.08661417322834646
                    },
                    {
                        "number": 7,
                        "ticks": 57528,
                        "time": 57.0713715,
                        "value": 0
                    },
                    {
                        "number": 7,
                        "ticks": 57960,
                        "time": 57.4999425,
                        "value": 0.1732283464566929
                    },
                    {
                        "number": 7,
                        "ticks": 58704,
                        "time": 58.238037,
                        "value": 0.08661417322834646
                    },
                    {
                        "number": 7,
                        "ticks": 59448,
                        "time": 58.9761315,
                        "value": 0
                    },
                    {
                        "number": 7,
                        "ticks": 97455,
                        "time": 96.6814509375,
                        "value": 0.30708661417322836
                    },
                    {
                        "number": 7,
                        "ticks": 97485,
                        "time": 96.7112128125,
                        "value": 0.3779527559055118
                    },
                    {
                        "number": 7,
                        "ticks": 97515,
                        "time": 96.7409746875,
                        "value": 0.4566929133858268
                    },
                    {
                        "number": 7,
                        "ticks": 97545,
                        "time": 96.7707365625,
                        "value": 0.5354330708661418
                    },
                    {
                        "number": 7,
                        "ticks": 97575,
                        "time": 96.8004984375,
                        "value": 0.6141732283464567
                    },
                    {
                        "number": 7,
                        "ticks": 97605,
                        "time": 96.8302603125,
                        "value": 0.6850393700787402
                    },
                    {
                        "number": 7,
                        "ticks": 97635,
                        "time": 96.86002218750001,
                        "value": 0.7637795275590551
                    },
                    {
                        "number": 7,
                        "ticks": 97665,
                        "time": 96.8897840625,
                        "value": 0.84251968503937
                    },
                    {
                        "number": 7,
                        "ticks": 97695,
                        "time": 96.9195459375,
                        "value": 0.9212598425196851
                    },
                    {
                        "number": 7,
                        "ticks": 97725,
                        "time": 96.9493078125,
                        "value": 1
                    },
                    {
                        "number": 7,
                        "ticks": 105135,
                        "time": 104.3004909375,
                        "value": 0.30708661417322836
                    },
                    {
                        "number": 7,
                        "ticks": 105165,
                        "time": 104.3302528125,
                        "value": 0.3779527559055118
                    },
                    {
                        "number": 7,
                        "ticks": 105195,
                        "time": 104.3600146875,
                        "value": 0.4566929133858268
                    },
                    {
                        "number": 7,
                        "ticks": 105225,
                        "time": 104.3897765625,
                        "value": 0.5354330708661418
                    },
                    {
                        "number": 7,
                        "ticks": 105255,
                        "time": 104.4195384375,
                        "value": 0.6141732283464567
                    },
                    {
                        "number": 7,
                        "ticks": 105285,
                        "time": 104.4493003125,
                        "value": 0.6850393700787402
                    },
                    {
                        "number": 7,
                        "ticks": 105315,
                        "time": 104.4790621875,
                        "value": 0.7637795275590551
                    },
                    {
                        "number": 7,
                        "ticks": 105345,
                        "time": 104.5088240625,
                        "value": 0.84251968503937
                    },
                    {
                        "number": 7,
                        "ticks": 105375,
                        "time": 104.5385859375,
                        "value": 0.9212598425196851
                    },
                    {
                        "number": 7,
                        "ticks": 105405,
                        "time": 104.5683478125,
                        "value": 1
                    },
                    {
                        "number": 7,
                        "ticks": 115248,
                        "time": 114.333219,
                        "value": 0.4330708661417323
                    },
                    {
                        "number": 7,
                        "ticks": 115992,
                        "time": 115.0713135,
                        "value": 0.3464566929133858
                    },
                    {
                        "number": 7,
                        "ticks": 116736,
                        "time": 115.80940799999999,
                        "value": 0.25984251968503935
                    },
                    {
                        "number": 7,
                        "ticks": 117480,
                        "time": 116.54750250000001,
                        "value": 0.1732283464566929
                    },
                    {
                        "number": 7,
                        "ticks": 118224,
                        "time": 117.28559700000001,
                        "value": 0.08661417322834646
                    },
                    {
                        "number": 7,
                        "ticks": 118968,
                        "time": 118.0236915,
                        "value": 0
                    },
                    {
                        "number": 7,
                        "ticks": 119400,
                        "time": 118.4522625,
                        "value": 0.1732283464566929
                    },
                    {
                        "number": 7,
                        "ticks": 120144,
                        "time": 119.190357,
                        "value": 0.08661417322834646
                    },
                    {
                        "number": 7,
                        "ticks": 120888,
                        "time": 119.9284515,
                        "value": 0
                    },
                    {
                        "number": 7,
                        "ticks": 121320,
                        "time": 120.3570225,
                        "value": 0.1732283464566929
                    },
                    {
                        "number": 7,
                        "ticks": 122064,
                        "time": 121.095117,
                        "value": 0.08661417322834646
                    },
                    {
                        "number": 7,
                        "ticks": 122808,
                        "time": 121.8332115,
                        "value": 0
                    },
                    {
                        "number": 7,
                        "ticks": 122928,
                        "time": 121.95225900000001,
                        "value": 0.4330708661417323
                    },
                    {
                        "number": 7,
                        "ticks": 123672,
                        "time": 122.69035349999999,
                        "value": 0.3464566929133858
                    },
                    {
                        "number": 7,
                        "ticks": 124416,
                        "time": 123.42844799999999,
                        "value": 0.25984251968503935
                    },
                    {
                        "number": 7,
                        "ticks": 125160,
                        "time": 124.1665425,
                        "value": 0.1732283464566929
                    },
                    {
                        "number": 7,
                        "ticks": 125904,
                        "time": 124.90463700000001,
                        "value": 0.08661417322834646
                    },
                    {
                        "number": 7,
                        "ticks": 126648,
                        "time": 125.64273150000001,
                        "value": 0
                    },
                    {
                        "number": 7,
                        "ticks": 127080,
                        "time": 126.0713025,
                        "value": 0.1732283464566929
                    },
                    {
                        "number": 7,
                        "ticks": 127824,
                        "time": 126.809397,
                        "value": 0.08661417322834646
                    },
                    {
                        "number": 7,
                        "ticks": 128568,
                        "time": 127.5474915,
                        "value": 0
                    },
                    {
                        "number": 7,
                        "ticks": 243885,
                        "time": 241.9491628125,
                        "value": 0.5354330708661418
                    },
                    {
                        "number": 7,
                        "ticks": 243945,
                        "time": 242.0086865625,
                        "value": 0.6535433070866141
                    },
                    {
                        "number": 7,
                        "ticks": 244005,
                        "time": 242.0682103125,
                        "value": 0.7952755905511811
                    },
                    {
                        "number": 7,
                        "ticks": 244035,
                        "time": 242.0979721875,
                        "value": 0.937007874015748
                    },
                    {
                        "number": 7,
                        "ticks": 244065,
                        "time": 242.1277340625,
                        "value": 1
                    },
                    {
                        "number": 7,
                        "ticks": 258795,
                        "time": 256.7408146875,
                        "value": 0.937007874015748
                    },
                    {
                        "number": 7,
                        "ticks": 258825,
                        "time": 256.7705765625,
                        "value": 0.9212598425196851
                    },
                    {
                        "number": 7,
                        "ticks": 258855,
                        "time": 256.8003384375,
                        "value": 0.905511811023622
                    },
                    {
                        "number": 7,
                        "ticks": 258885,
                        "time": 256.8301003125,
                        "value": 0.889763779527559
                    },
                    {
                        "number": 7,
                        "ticks": 258915,
                        "time": 256.8598621875,
                        "value": 0.8661417322834646
                    },
                    {
                        "number": 7,
                        "ticks": 258945,
                        "time": 256.8896240625,
                        "value": 0.8503937007874016
                    },
                    {
                        "number": 7,
                        "ticks": 258975,
                        "time": 256.9193859375,
                        "value": 0.8346456692913385
                    },
                    {
                        "number": 7,
                        "ticks": 259005,
                        "time": 256.9491478125,
                        "value": 0.8188976377952756
                    },
                    {
                        "number": 7,
                        "ticks": 259035,
                        "time": 256.9789096875,
                        "value": 0.7952755905511811
                    },
                    {
                        "number": 7,
                        "ticks": 259065,
                        "time": 257.0086715625,
                        "value": 0.7795275590551181
                    },
                    {
                        "number": 7,
                        "ticks": 259095,
                        "time": 257.0384334375,
                        "value": 0.7637795275590551
                    },
                    {
                        "number": 7,
                        "ticks": 259125,
                        "time": 257.0681953125,
                        "value": 0.7480314960629921
                    },
                    {
                        "number": 7,
                        "ticks": 259155,
                        "time": 257.0979571875,
                        "value": 0.7244094488188977
                    },
                    {
                        "number": 7,
                        "ticks": 259185,
                        "time": 257.1277190625,
                        "value": 0.7086614173228346
                    },
                    {
                        "number": 7,
                        "ticks": 259215,
                        "time": 257.1574809375,
                        "value": 0.6929133858267716
                    },
                    {
                        "number": 7,
                        "ticks": 259245,
                        "time": 257.1872428125,
                        "value": 0.6771653543307087
                    },
                    {
                        "number": 7,
                        "ticks": 259275,
                        "time": 257.2170046875,
                        "value": 0.6535433070866141
                    },
                    {
                        "number": 7,
                        "ticks": 259305,
                        "time": 257.2467665625,
                        "value": 0.6377952755905512
                    },
                    {
                        "number": 7,
                        "ticks": 259335,
                        "time": 257.2765284375,
                        "value": 0.6220472440944882
                    },
                    {
                        "number": 7,
                        "ticks": 259365,
                        "time": 257.3062903125,
                        "value": 0.6062992125984252
                    },
                    {
                        "number": 7,
                        "ticks": 259395,
                        "time": 257.3360521875,
                        "value": 0.5826771653543307
                    }
                ],
                "10": [
                    {
                        "number": 10,
                        "ticks": 562,
                        "time": 0.557539125,
                        "value": 0.7007874015748031
                    }
                ],
                "11": [
                    {
                        "number": 11,
                        "ticks": 787,
                        "time": 0.7807531875,
                        "value": 1
                    }
                ],
                "64": [
                    {
                        "number": 64,
                        "ticks": 737,
                        "time": 0.7311500625,
                        "value": 0
                    }
                ],
                "65": [
                    {
                        "number": 65,
                        "ticks": 1747,
                        "time": 1.7331331875,
                        "value": 1
                    }
                ],
                "91": [
                    {
                        "number": 91,
                        "ticks": 637,
                        "time": 0.6319438125,
                        "value": 0.6692913385826772
                    }
                ],
                "93": [
                    {
                        "number": 93,
                        "ticks": 687,
                        "time": 0.6815469375,
                        "value": 0.2283464566929134
                    }
                ],
                "120": [
                    {
                        "number": 120,
                        "ticks": 49920,
                        "time": 49.52376,
                        "value": 0
                    },
                    {
                        "number": 120,
                        "ticks": 53760,
                        "time": 53.33328,
                        "value": 0
                    },
                    {
                        "number": 120,
                        "ticks": 57600,
                        "time": 57.1428,
                        "value": 0
                    },
                    {
                        "number": 120,
                        "ticks": 119040,
                        "time": 118.09512,
                        "value": 0
                    },
                    {
                        "number": 120,
                        "ticks": 122880,
                        "time": 121.90464,
                        "value": 0
                    },
                    {
                        "number": 120,
                        "ticks": 126720,
                        "time": 125.71416,
                        "value": 0
                    }
                ],
                "121": [
                    {
                        "number": 121,
                        "ticks": 345,
                        "time": 0.3422615625,
                        "value": 0
                    }
                ],
                "123": [
                    {
                        "number": 123,
                        "ticks": 49920,
                        "time": 49.52376,
                        "value": 0
                    },
                    {
                        "number": 123,
                        "ticks": 53760,
                        "time": 53.33328,
                        "value": 0
                    },
                    {
                        "number": 123,
                        "ticks": 57600,
                        "time": 57.1428,
                        "value": 0
                    },
                    {
                        "number": 123,
                        "ticks": 119040,
                        "time": 118.09512,
                        "value": 0
                    },
                    {
                        "number": 123,
                        "ticks": 122880,
                        "time": 121.90464,
                        "value": 0
                    },
                    {
                        "number": 123,
                        "ticks": 126720,
                        "time": 125.71416,
                        "value": 0
                    }
                ]
            },
            "pitchBends": [
                {
                    "ticks": 887,
                    "time": 0.8799594375,
                    "value": 0
                }
            ],
            "instrument": {
                "family": "synth lead",
                "name": "lead 1 (square)",
                "number": 80
            },
            "name": "",
            "notes": [
                {
                    "duration": 0.1398808124999995,
                    "durationTicks": 141,
                    "midi": 46,
                    "name": "A#2",
                    "ticks": 18720,
                    "time": 18.57141,
                    "velocity": 0.007874015748031496
                },
                {
                    "duration": 0.4702376249999993,
                    "durationTicks": 474,
                    "midi": 35,
                    "name": "B1",
                    "ticks": 19200,
                    "time": 19.0476,
                    "velocity": 0.9763779527559056
                },
                {
                    "duration": 0.708332624999997,
                    "durationTicks": 714,
                    "midi": 47,
                    "name": "B2",
                    "ticks": 19680,
                    "time": 19.52379,
                    "velocity": 0.9763779527559056
                },
                {
                    "duration": 1.1845226249999996,
                    "durationTicks": 1194,
                    "midi": 59,
                    "name": "B3",
                    "ticks": 20400,
                    "time": 20.238075,
                    "velocity": 1
                },
                {
                    "duration": 0.9464276249999983,
                    "durationTicks": 954,
                    "midi": 47,
                    "name": "B2",
                    "ticks": 21240,
                    "time": 21.0714075,
                    "velocity": 1
                },
                {
                    "duration": 0.8601181874999995,
                    "durationTicks": 867,
                    "midi": 35,
                    "name": "B1",
                    "ticks": 22080,
                    "time": 21.90474,
                    "velocity": 1
                },
                {
                    "duration": 0.4702376250000029,
                    "durationTicks": 474,
                    "midi": 59,
                    "name": "B3",
                    "ticks": 59520,
                    "time": 59.04756,
                    "velocity": 0.5039370078740157
                },
                {
                    "duration": 0.9464276249999983,
                    "durationTicks": 954,
                    "midi": 47,
                    "name": "B2",
                    "ticks": 59640,
                    "time": 59.1666075,
                    "velocity": 1
                },
                {
                    "duration": 0.8601181874999995,
                    "durationTicks": 867,
                    "midi": 35,
                    "name": "B1",
                    "ticks": 60480,
                    "time": 59.99994,
                    "velocity": 1
                },
                {
                    "duration": 0.4613090625000069,
                    "durationTicks": 465,
                    "midi": 47,
                    "name": "B2",
                    "ticks": 97920,
                    "time": 97.14276,
                    "velocity": 0.905511811023622
                },
                {
                    "duration": 0.4613090625000069,
                    "durationTicks": 465,
                    "midi": 35,
                    "name": "B1",
                    "ticks": 98400,
                    "time": 97.61895,
                    "velocity": 0.905511811023622
                },
                {
                    "duration": 0.47023762500001,
                    "durationTicks": 474,
                    "midi": 59,
                    "name": "B3",
                    "ticks": 105600,
                    "time": 104.7618,
                    "velocity": 0.5039370078740157
                },
                {
                    "duration": 0.9464276249999983,
                    "durationTicks": 954,
                    "midi": 47,
                    "name": "B2",
                    "ticks": 105720,
                    "time": 104.8808475,
                    "velocity": 1
                },
                {
                    "duration": 0.8601181875000066,
                    "durationTicks": 867,
                    "midi": 35,
                    "name": "B1",
                    "ticks": 106560,
                    "time": 105.71418,
                    "velocity": 1
                },
                {
                    "duration": 0.47023762500001,
                    "durationTicks": 474,
                    "midi": 59,
                    "name": "B3",
                    "ticks": 128640,
                    "time": 127.61892,
                    "velocity": 0.5039370078740157
                },
                {
                    "duration": 0.9464276250000125,
                    "durationTicks": 954,
                    "midi": 47,
                    "name": "B2",
                    "ticks": 128760,
                    "time": 127.7379675,
                    "velocity": 1
                },
                {
                    "duration": 0.8601181874999781,
                    "durationTicks": 867,
                    "midi": 35,
                    "name": "B1",
                    "ticks": 129600,
                    "time": 128.5713,
                    "velocity": 1
                },
                {
                    "duration": 0.47023762500001,
                    "durationTicks": 474,
                    "midi": 59,
                    "name": "B3",
                    "ticks": 197760,
                    "time": 196.19028,
                    "velocity": 0.5039370078740157
                },
                {
                    "duration": 0.9464276250000125,
                    "durationTicks": 954,
                    "midi": 47,
                    "name": "B2",
                    "ticks": 197880,
                    "time": 196.3093275,
                    "velocity": 1
                },
                {
                    "duration": 0.8601181874999781,
                    "durationTicks": 867,
                    "midi": 35,
                    "name": "B1",
                    "ticks": 198720,
                    "time": 197.14266,
                    "velocity": 1
                }
            ]
        },
        {
            "channel": 0,
            "controlChanges": {
                "0": [
                    {
                        "number": 0,
                        "ticks": 0,
                        "time": 0,
                        "value": 0
                    }
                ]
            },
            "pitchBends": [],
            "instrument": {
                "family": "piano",
                "name": "acoustic grand piano",
                "number": 0
            },
            "name": "Synth Bass 1",
            "notes": []
        },
        {
            "channel": 0,
            "controlChanges": {
                "1": [
                    {
                        "number": 1,
                        "ticks": 837,
                        "time": 0.8303563125,
                        "value": 0
                    }
                ],
                "7": [
                    {
                        "number": 7,
                        "ticks": 512,
                        "time": 0.5079359999999999,
                        "value": 0.5275590551181102
                    }
                ],
                "10": [
                    {
                        "number": 10,
                        "ticks": 562,
                        "time": 0.557539125,
                        "value": 0.1732283464566929
                    }
                ],
                "11": [
                    {
                        "number": 11,
                        "ticks": 787,
                        "time": 0.7807531875,
                        "value": 1
                    }
                ],
                "64": [
                    {
                        "number": 64,
                        "ticks": 737,
                        "time": 0.7311500625,
                        "value": 0
                    }
                ],
                "91": [
                    {
                        "number": 91,
                        "ticks": 637,
                        "time": 0.6319438125,
                        "value": 0.23622047244094488
                    }
                ],
                "93": [
                    {
                        "number": 93,
                        "ticks": 687,
                        "time": 0.6815469375,
                        "value": 0.14173228346456693
                    }
                ],
                "121": [
                    {
                        "number": 121,
                        "ticks": 345,
                        "time": 0.3422615625,
                        "value": 0
                    }
                ]
            },
            "pitchBends": [
                {
                    "ticks": 887,
                    "time": 0.8799594375,
                    "value": 0
                }
            ],
            "instrument": {
                "family": "bass",
                "name": "synth bass 1",
                "number": 38
            },
            "name": "",
            "notes": []
        },
        {
            "channel": 0,
            "controlChanges": {
                "0": [
                    {
                        "number": 0,
                        "ticks": 0,
                        "time": 0,
                        "value": 0
                    }
                ]
            },
            "pitchBends": [],
            "instrument": {
                "family": "piano",
                "name": "acoustic grand piano",
                "number": 0
            },
            "name": "Distortion Guitar",
            "notes": []
        },
        {
            "channel": 6,
            "controlChanges": {
                "1": [
                    {
                        "number": 1,
                        "ticks": 840,
                        "time": 0.8333325,
                        "value": 0
                    }
                ],
                "6": [
                    {
                        "number": 6,
                        "ticks": 940,
                        "time": 0.93253875,
                        "value": 0.5039370078740157
                    }
                ],
                "7": [
                    {
                        "number": 7,
                        "ticks": 515,
                        "time": 0.5109121875,
                        "value": 0.6929133858267716
                    },
                    {
                        "number": 7,
                        "ticks": 44595,
                        "time": 44.2410271875,
                        "value": 0.6771653543307087
                    },
                    {
                        "number": 7,
                        "ticks": 45165,
                        "time": 44.8065028125,
                        "value": 0.6692913385826772
                    },
                    {
                        "number": 7,
                        "ticks": 45705,
                        "time": 45.3422165625,
                        "value": 0.6614173228346457
                    },
                    {
                        "number": 7,
                        "ticks": 46245,
                        "time": 45.8779303125,
                        "value": 0.6535433070866141
                    },
                    {
                        "number": 7,
                        "ticks": 46785,
                        "time": 46.4136440625,
                        "value": 0.6456692913385826
                    },
                    {
                        "number": 7,
                        "ticks": 47355,
                        "time": 46.9791196875,
                        "value": 0.6377952755905512
                    },
                    {
                        "number": 7,
                        "ticks": 47895,
                        "time": 47.5148334375,
                        "value": 0.6299212598425197
                    },
                    {
                        "number": 7,
                        "ticks": 48435,
                        "time": 48.0505471875,
                        "value": 0.6220472440944882
                    },
                    {
                        "number": 7,
                        "ticks": 48975,
                        "time": 48.5862609375,
                        "value": 0.6141732283464567
                    },
                    {
                        "number": 7,
                        "ticks": 49545,
                        "time": 49.1517365625,
                        "value": 0.6062992125984252
                    },
                    {
                        "number": 7,
                        "ticks": 49920,
                        "time": 49.52376,
                        "value": 0.5748031496062992
                    },
                    {
                        "number": 7,
                        "ticks": 50355,
                        "time": 49.9553071875,
                        "value": 0.6220472440944882
                    },
                    {
                        "number": 7,
                        "ticks": 50895,
                        "time": 50.491020937500004,
                        "value": 0.6141732283464567
                    },
                    {
                        "number": 7,
                        "ticks": 51465,
                        "time": 51.0564965625,
                        "value": 0.6062992125984252
                    },
                    {
                        "number": 7,
                        "ticks": 52275,
                        "time": 51.8600671875,
                        "value": 0.6220472440944882
                    },
                    {
                        "number": 7,
                        "ticks": 52815,
                        "time": 52.3957809375,
                        "value": 0.6141732283464567
                    },
                    {
                        "number": 7,
                        "ticks": 53385,
                        "time": 52.9612565625,
                        "value": 0.6062992125984252
                    },
                    {
                        "number": 7,
                        "ticks": 53760,
                        "time": 53.33328,
                        "value": 0.5748031496062992
                    },
                    {
                        "number": 7,
                        "ticks": 53925,
                        "time": 53.496970312500004,
                        "value": 0.6535433070866141
                    },
                    {
                        "number": 7,
                        "ticks": 54465,
                        "time": 54.0326840625,
                        "value": 0.6456692913385826
                    },
                    {
                        "number": 7,
                        "ticks": 55035,
                        "time": 54.5981596875,
                        "value": 0.6377952755905512
                    },
                    {
                        "number": 7,
                        "ticks": 55575,
                        "time": 55.1338734375,
                        "value": 0.6299212598425197
                    },
                    {
                        "number": 7,
                        "ticks": 56115,
                        "time": 55.6695871875,
                        "value": 0.6220472440944882
                    },
                    {
                        "number": 7,
                        "ticks": 56655,
                        "time": 56.2053009375,
                        "value": 0.6141732283464567
                    },
                    {
                        "number": 7,
                        "ticks": 57225,
                        "time": 56.770776562500004,
                        "value": 0.6062992125984252
                    },
                    {
                        "number": 7,
                        "ticks": 57600,
                        "time": 57.1428,
                        "value": 0.5748031496062992
                    },
                    {
                        "number": 7,
                        "ticks": 58035,
                        "time": 57.5743471875,
                        "value": 0.6220472440944882
                    },
                    {
                        "number": 7,
                        "ticks": 58575,
                        "time": 58.1100609375,
                        "value": 0.6141732283464567
                    },
                    {
                        "number": 7,
                        "ticks": 59145,
                        "time": 58.6755365625,
                        "value": 0.6062992125984252
                    },
                    {
                        "number": 7,
                        "ticks": 115365,
                        "time": 114.4492903125,
                        "value": 0.6535433070866141
                    },
                    {
                        "number": 7,
                        "ticks": 115905,
                        "time": 114.9850040625,
                        "value": 0.6456692913385826
                    },
                    {
                        "number": 7,
                        "ticks": 116475,
                        "time": 115.5504796875,
                        "value": 0.6377952755905512
                    },
                    {
                        "number": 7,
                        "ticks": 117015,
                        "time": 116.0861934375,
                        "value": 0.6299212598425197
                    },
                    {
                        "number": 7,
                        "ticks": 117555,
                        "time": 116.6219071875,
                        "value": 0.6220472440944882
                    },
                    {
                        "number": 7,
                        "ticks": 118095,
                        "time": 117.1576209375,
                        "value": 0.6141732283464567
                    },
                    {
                        "number": 7,
                        "ticks": 118665,
                        "time": 117.7230965625,
                        "value": 0.6062992125984252
                    },
                    {
                        "number": 7,
                        "ticks": 119040,
                        "time": 118.09512,
                        "value": 0.5748031496062992
                    },
                    {
                        "number": 7,
                        "ticks": 119475,
                        "time": 118.5266671875,
                        "value": 0.6220472440944882
                    },
                    {
                        "number": 7,
                        "ticks": 120015,
                        "time": 119.0623809375,
                        "value": 0.6141732283464567
                    },
                    {
                        "number": 7,
                        "ticks": 120585,
                        "time": 119.6278565625,
                        "value": 0.6062992125984252
                    },
                    {
                        "number": 7,
                        "ticks": 121395,
                        "time": 120.4314271875,
                        "value": 0.6220472440944882
                    },
                    {
                        "number": 7,
                        "ticks": 121935,
                        "time": 120.9671409375,
                        "value": 0.6141732283464567
                    },
                    {
                        "number": 7,
                        "ticks": 122505,
                        "time": 121.5326165625,
                        "value": 0.6062992125984252
                    },
                    {
                        "number": 7,
                        "ticks": 122880,
                        "time": 121.90464,
                        "value": 0.5748031496062992
                    },
                    {
                        "number": 7,
                        "ticks": 123045,
                        "time": 122.0683303125,
                        "value": 0.6535433070866141
                    },
                    {
                        "number": 7,
                        "ticks": 123585,
                        "time": 122.6040440625,
                        "value": 0.6456692913385826
                    },
                    {
                        "number": 7,
                        "ticks": 124155,
                        "time": 123.1695196875,
                        "value": 0.6377952755905512
                    },
                    {
                        "number": 7,
                        "ticks": 124695,
                        "time": 123.7052334375,
                        "value": 0.6299212598425197
                    },
                    {
                        "number": 7,
                        "ticks": 125235,
                        "time": 124.2409471875,
                        "value": 0.6220472440944882
                    },
                    {
                        "number": 7,
                        "ticks": 125775,
                        "time": 124.7766609375,
                        "value": 0.6141732283464567
                    },
                    {
                        "number": 7,
                        "ticks": 126345,
                        "time": 125.3421365625,
                        "value": 0.6062992125984252
                    },
                    {
                        "number": 7,
                        "ticks": 126720,
                        "time": 125.71416,
                        "value": 0.5748031496062992
                    },
                    {
                        "number": 7,
                        "ticks": 127155,
                        "time": 126.1457071875,
                        "value": 0.6220472440944882
                    },
                    {
                        "number": 7,
                        "ticks": 127695,
                        "time": 126.68142093750001,
                        "value": 0.6141732283464567
                    },
                    {
                        "number": 7,
                        "ticks": 128265,
                        "time": 127.2468965625,
                        "value": 0.6062992125984252
                    }
                ],
                "10": [
                    {
                        "number": 10,
                        "ticks": 565,
                        "time": 0.5605153125,
                        "value": 0.7401574803149606
                    }
                ],
                "11": [
                    {
                        "number": 11,
                        "ticks": 790,
                        "time": 0.783729375,
                        "value": 1
                    }
                ],
                "64": [
                    {
                        "number": 64,
                        "ticks": 740,
                        "time": 0.7341262500000001,
                        "value": 0
                    }
                ],
                "91": [
                    {
                        "number": 91,
                        "ticks": 640,
                        "time": 0.6349199999999999,
                        "value": 0.7244094488188977
                    }
                ],
                "93": [
                    {
                        "number": 93,
                        "ticks": 690,
                        "time": 0.684523125,
                        "value": 0.31496062992125984
                    }
                ],
                "98": [
                    {
                        "number": 98,
                        "ticks": 940,
                        "time": 0.93253875,
                        "value": 0.25196850393700787
                    }
                ],
                "99": [
                    {
                        "number": 99,
                        "ticks": 940,
                        "time": 0.93253875,
                        "value": 0.007874015748031496
                    }
                ],
                "120": [
                    {
                        "number": 120,
                        "ticks": 49920,
                        "time": 49.52376,
                        "value": 0
                    },
                    {
                        "number": 120,
                        "ticks": 53760,
                        "time": 53.33328,
                        "value": 0
                    },
                    {
                        "number": 120,
                        "ticks": 57600,
                        "time": 57.1428,
                        "value": 0
                    },
                    {
                        "number": 120,
                        "ticks": 119040,
                        "time": 118.09512,
                        "value": 0
                    },
                    {
                        "number": 120,
                        "ticks": 122880,
                        "time": 121.90464,
                        "value": 0
                    },
                    {
                        "number": 120,
                        "ticks": 126720,
                        "time": 125.71416,
                        "value": 0
                    }
                ],
                "121": [
                    {
                        "number": 121,
                        "ticks": 347,
                        "time": 0.3442456875,
                        "value": 0
                    }
                ],
                "123": [
                    {
                        "number": 123,
                        "ticks": 49920,
                        "time": 49.52376,
                        "value": 0
                    },
                    {
                        "number": 123,
                        "ticks": 53760,
                        "time": 53.33328,
                        "value": 0
                    },
                    {
                        "number": 123,
                        "ticks": 57600,
                        "time": 57.1428,
                        "value": 0
                    },
                    {
                        "number": 123,
                        "ticks": 119040,
                        "time": 118.09512,
                        "value": 0
                    },
                    {
                        "number": 123,
                        "ticks": 122880,
                        "time": 121.90464,
                        "value": 0
                    },
                    {
                        "number": 123,
                        "ticks": 126720,
                        "time": 125.71416,
                        "value": 0
                    }
                ]
            },
            "pitchBends": [
                {
                    "ticks": 890,
                    "time": 0.882935625,
                    "value": 0
                }
            ],
            "instrument": {
                "family": "guitar",
                "name": "distortion guitar",
                "number": 30
            },
            "name": "",
            "notes": [
                {
                    "duration": 0.25297593750000047,
                    "durationTicks": 255,
                    "midi": 42,
                    "name": "F#2",
                    "ticks": 23280,
                    "time": 23.095215,
                    "velocity": 0.9448818897637795
                },
                {
                    "duration": 0.2698410000000031,
                    "durationTicks": 272,
                    "midi": 49,
                    "name": "C#3",
                    "ticks": 23280,
                    "time": 23.095215,
                    "velocity": 1
                },
                {
                    "duration": 0.2777775000000027,
                    "durationTicks": 280,
                    "midi": 42,
                    "name": "F#2",
                    "ticks": 23760,
                    "time": 23.571405,
                    "velocity": 1
                },
                {
                    "duration": 0.3124996875000008,
                    "durationTicks": 315,
                    "midi": 49,
                    "name": "C#3",
                    "ticks": 23760,
                    "time": 23.571405,
                    "velocity": 0.9448818897637795
                },
                {
                    "duration": 0.2847219375000023,
                    "durationTicks": 287,
                    "midi": 42,
                    "name": "F#2",
                    "ticks": 24240,
                    "time": 24.047595,
                    "velocity": 1
                },
                {
                    "duration": 0.30456318749999767,
                    "durationTicks": 307,
                    "midi": 49,
                    "name": "C#3",
                    "ticks": 24240,
                    "time": 24.047595,
                    "velocity": 0.9448818897637795
                },
                {
                    "duration": 0.2519838750000005,
                    "durationTicks": 254,
                    "midi": 42,
                    "name": "F#2",
                    "ticks": 24720,
                    "time": 24.523785,
                    "velocity": 1
                },
                {
                    "duration": 0.27876956249999907,
                    "durationTicks": 281,
                    "midi": 49,
                    "name": "C#3",
                    "ticks": 24720,
                    "time": 24.523785,
                    "velocity": 0.9448818897637795
                },
                {
                    "duration": 0.25297593750000047,
                    "durationTicks": 255,
                    "midi": 40,
                    "name": "E2",
                    "ticks": 25200,
                    "time": 24.999975,
                    "velocity": 0.9448818897637795
                },
                {
                    "duration": 0.2698410000000031,
                    "durationTicks": 272,
                    "midi": 47,
                    "name": "B2",
                    "ticks": 25200,
                    "time": 24.999975,
                    "velocity": 1
                },
                {
                    "duration": 0.2777774999999991,
                    "durationTicks": 280,
                    "midi": 40,
                    "name": "E2",
                    "ticks": 25680,
                    "time": 25.476165,
                    "velocity": 1
                },
                {
                    "duration": 0.31249968749999724,
                    "durationTicks": 315,
                    "midi": 47,
                    "name": "B2",
                    "ticks": 25680,
                    "time": 25.476165,
                    "velocity": 0.9448818897637795
                },
                {
                    "duration": 0.2847219375000023,
                    "durationTicks": 287,
                    "midi": 40,
                    "name": "E2",
                    "ticks": 26160,
                    "time": 25.952355,
                    "velocity": 1
                },
                {
                    "duration": 0.3045631875000012,
                    "durationTicks": 307,
                    "midi": 47,
                    "name": "B2",
                    "ticks": 26160,
                    "time": 25.952355,
                    "velocity": 0.9448818897637795
                },
                {
                    "duration": 0.2519838750000005,
                    "durationTicks": 254,
                    "midi": 40,
                    "name": "E2",
                    "ticks": 26640,
                    "time": 26.428545,
                    "velocity": 1
                },
                {
                    "duration": 0.27876956249999907,
                    "durationTicks": 281,
                    "midi": 47,
                    "name": "B2",
                    "ticks": 26640,
                    "time": 26.428545,
                    "velocity": 0.9448818897637795
                },
                {
                    "duration": 0.25297593750000047,
                    "durationTicks": 255,
                    "midi": 47,
                    "name": "B2",
                    "ticks": 27120,
                    "time": 26.904735,
                    "velocity": 0.9448818897637795
                },
                {
                    "duration": 0.2698410000000031,
                    "durationTicks": 272,
                    "midi": 54,
                    "name": "F#3",
                    "ticks": 27120,
                    "time": 26.904735,
                    "velocity": 1
                },
                {
                    "duration": 0.2777774999999991,
                    "durationTicks": 280,
                    "midi": 47,
                    "name": "B2",
                    "ticks": 27600,
                    "time": 27.380925,
                    "velocity": 1
                },
                {
                    "duration": 0.31249968749999724,
                    "durationTicks": 315,
                    "midi": 54,
                    "name": "F#3",
                    "ticks": 27600,
                    "time": 27.380925,
                    "velocity": 0.9448818897637795
                },
                {
                    "duration": 0.2847219375000023,
                    "durationTicks": 287,
                    "midi": 47,
                    "name": "B2",
                    "ticks": 28080,
                    "time": 27.857115,
                    "velocity": 1
                },
                {
                    "duration": 0.3045631875000012,
                    "durationTicks": 307,
                    "midi": 54,
                    "name": "F#3",
                    "ticks": 28080,
                    "time": 27.857115,
                    "velocity": 0.9448818897637795
                },
                {
                    "duration": 0.2519838750000005,
                    "durationTicks": 254,
                    "midi": 47,
                    "name": "B2",
                    "ticks": 28560,
                    "time": 28.333305,
                    "velocity": 1
                },
                {
                    "duration": 0.2787695625000026,
                    "durationTicks": 281,
                    "midi": 54,
                    "name": "F#3",
                    "ticks": 28560,
                    "time": 28.333305,
                    "velocity": 0.9448818897637795
                },
                {
                    "duration": 0.2529759374999969,
                    "durationTicks": 255,
                    "midi": 42,
                    "name": "F#2",
                    "ticks": 29040,
                    "time": 28.809495000000002,
                    "velocity": 0.9448818897637795
                },
                {
                    "duration": 0.26984099999999955,
                    "durationTicks": 272,
                    "midi": 49,
                    "name": "C#3",
                    "ticks": 29040,
                    "time": 28.809495000000002,
                    "velocity": 1
                },
                {
                    "duration": 0.2777774999999991,
                    "durationTicks": 280,
                    "midi": 42,
                    "name": "F#2",
                    "ticks": 29520,
                    "time": 29.285685,
                    "velocity": 1
                },
                {
                    "duration": 0.3124996875000008,
                    "durationTicks": 315,
                    "midi": 49,
                    "name": "C#3",
                    "ticks": 29520,
                    "time": 29.285685,
                    "velocity": 0.9448818897637795
                },
                {
                    "duration": 0.2847219375000023,
                    "durationTicks": 287,
                    "midi": 42,
                    "name": "F#2",
                    "ticks": 30000,
                    "time": 29.761875,
                    "velocity": 1
                },
                {
                    "duration": 0.3045631875000012,
                    "durationTicks": 307,
                    "midi": 49,
                    "name": "C#3",
                    "ticks": 30000,
                    "time": 29.761875,
                    "velocity": 0.9448818897637795
                },
                {
                    "duration": 0.2519838750000005,
                    "durationTicks": 254,
                    "midi": 42,
                    "name": "F#2",
                    "ticks": 30480,
                    "time": 30.238065,
                    "velocity": 1
                },
                {
                    "duration": 0.27876956249999907,
                    "durationTicks": 281,
                    "midi": 49,
                    "name": "C#3",
                    "ticks": 30480,
                    "time": 30.238065,
                    "velocity": 0.9448818897637795
                },
                {
                    "duration": 0.252975937500004,
                    "durationTicks": 255,
                    "midi": 42,
                    "name": "F#2",
                    "ticks": 46320,
                    "time": 45.952335,
                    "velocity": 0.9448818897637795
                },
                {
                    "duration": 0.26984099999999955,
                    "durationTicks": 272,
                    "midi": 49,
                    "name": "C#3",
                    "ticks": 46320,
                    "time": 45.952335,
                    "velocity": 1
                },
                {
                    "duration": 0.2777774999999991,
                    "durationTicks": 280,
                    "midi": 42,
                    "name": "F#2",
                    "ticks": 46800,
                    "time": 46.428525,
                    "velocity": 1
                },
                {
                    "duration": 0.3124996875000008,
                    "durationTicks": 315,
                    "midi": 49,
                    "name": "C#3",
                    "ticks": 46800,
                    "time": 46.428525,
                    "velocity": 0.9448818897637795
                },
                {
                    "duration": 0.2847219374999952,
                    "durationTicks": 287,
                    "midi": 42,
                    "name": "F#2",
                    "ticks": 47280,
                    "time": 46.904715,
                    "velocity": 1
                },
                {
                    "duration": 0.3045631874999941,
                    "durationTicks": 307,
                    "midi": 49,
                    "name": "C#3",
                    "ticks": 47280,
                    "time": 46.904715,
                    "velocity": 0.9448818897637795
                },
                {
                    "duration": 0.2519838750000005,
                    "durationTicks": 254,
                    "midi": 42,
                    "name": "F#2",
                    "ticks": 47760,
                    "time": 47.380905,
                    "velocity": 1
                },
                {
                    "duration": 0.2787695624999955,
                    "durationTicks": 281,
                    "midi": 49,
                    "name": "C#3",
                    "ticks": 47760,
                    "time": 47.380905,
                    "velocity": 0.9448818897637795
                },
                {
                    "duration": 0.2529759374999969,
                    "durationTicks": 255,
                    "midi": 40,
                    "name": "E2",
                    "ticks": 48240,
                    "time": 47.857095,
                    "velocity": 0.9448818897637795
                },
                {
                    "duration": 0.26984099999999955,
                    "durationTicks": 272,
                    "midi": 47,
                    "name": "B2",
                    "ticks": 48240,
                    "time": 47.857095,
                    "velocity": 1
                },
                {
                    "duration": 0.277777499999992,
                    "durationTicks": 280,
                    "midi": 40,
                    "name": "E2",
                    "ticks": 48720,
                    "time": 48.333285000000004,
                    "velocity": 1
                },
                {
                    "duration": 0.3124996874999937,
                    "durationTicks": 315,
                    "midi": 47,
                    "name": "B2",
                    "ticks": 48720,
                    "time": 48.333285000000004,
                    "velocity": 0.9448818897637795
                },
                {
                    "duration": 0.2847219375000023,
                    "durationTicks": 287,
                    "midi": 40,
                    "name": "E2",
                    "ticks": 49200,
                    "time": 48.809475,
                    "velocity": 1
                },
                {
                    "duration": 0.3045631875000012,
                    "durationTicks": 307,
                    "midi": 47,
                    "name": "B2",
                    "ticks": 49200,
                    "time": 48.809475,
                    "velocity": 0.9448818897637795
                },
                {
                    "duration": 0.2519838750000005,
                    "durationTicks": 254,
                    "midi": 40,
                    "name": "E2",
                    "ticks": 49680,
                    "time": 49.285665,
                    "velocity": 1
                },
                {
                    "duration": 0.2787695624999955,
                    "durationTicks": 281,
                    "midi": 47,
                    "name": "B2",
                    "ticks": 49680,
                    "time": 49.285665,
                    "velocity": 0.9448818897637795
                },
                {
                    "duration": 0.04067456249999424,
                    "durationTicks": 41,
                    "midi": 56,
                    "name": "G#3",
                    "ticks": 49920,
                    "time": 49.52376,
                    "velocity": 0.5039370078740157
                },
                {
                    "duration": 0.252975937500004,
                    "durationTicks": 255,
                    "midi": 47,
                    "name": "B2",
                    "ticks": 50160,
                    "time": 49.761855,
                    "velocity": 0.9448818897637795
                },
                {
                    "duration": 0.26984099999999955,
                    "durationTicks": 272,
                    "midi": 54,
                    "name": "F#3",
                    "ticks": 50160,
                    "time": 49.761855,
                    "velocity": 1
                },
                {
                    "duration": 0.2777774999999991,
                    "durationTicks": 280,
                    "midi": 47,
                    "name": "B2",
                    "ticks": 50640,
                    "time": 50.238045,
                    "velocity": 1
                },
                {
                    "duration": 0.3124996875000008,
                    "durationTicks": 315,
                    "midi": 54,
                    "name": "F#3",
                    "ticks": 50640,
                    "time": 50.238045,
                    "velocity": 0.9448818897637795
                },
                {
                    "duration": 0.2847219374999952,
                    "durationTicks": 287,
                    "midi": 47,
                    "name": "B2",
                    "ticks": 51120,
                    "time": 50.714235,
                    "velocity": 1
                },
                {
                    "duration": 0.3045631875000012,
                    "durationTicks": 307,
                    "midi": 54,
                    "name": "F#3",
                    "ticks": 51120,
                    "time": 50.714235,
                    "velocity": 0.9448818897637795
                },
                {
                    "duration": 0.2787695625000026,
                    "durationTicks": 281,
                    "midi": 54,
                    "name": "F#3",
                    "ticks": 51600,
                    "time": 51.190425,
                    "velocity": 0.9448818897637795
                },
                {
                    "duration": 0.2519838750000005,
                    "durationTicks": 254,
                    "midi": 47,
                    "name": "B2",
                    "ticks": 51600,
                    "time": 51.190425,
                    "velocity": 1
                },
                {
                    "duration": 0.04067456250000134,
                    "durationTicks": 41,
                    "midi": 51,
                    "name": "D#3",
                    "ticks": 51840,
                    "time": 51.42852,
                    "velocity": 0.5039370078740157
                },
                {
                    "duration": 0.2529759374999969,
                    "durationTicks": 255,
                    "midi": 42,
                    "name": "F#2",
                    "ticks": 52080,
                    "time": 51.666615,
                    "velocity": 0.9448818897637795
                },
                {
                    "duration": 0.26984099999999955,
                    "durationTicks": 272,
                    "midi": 49,
                    "name": "C#3",
                    "ticks": 52080,
                    "time": 51.666615,
                    "velocity": 1
                },
                {
                    "duration": 0.277777499999992,
                    "durationTicks": 280,
                    "midi": 42,
                    "name": "F#2",
                    "ticks": 52560,
                    "time": 52.142805,
                    "velocity": 1
                },
                {
                    "duration": 0.3124996875000008,
                    "durationTicks": 315,
                    "midi": 49,
                    "name": "C#3",
                    "ticks": 52560,
                    "time": 52.142805,
                    "velocity": 0.9448818897637795
                },
                {
                    "duration": 0.2847219375000023,
                    "durationTicks": 287,
                    "midi": 42,
                    "name": "F#2",
                    "ticks": 53040,
                    "time": 52.618995,
                    "velocity": 1
                },
                {
                    "duration": 0.3045631875000012,
                    "durationTicks": 307,
                    "midi": 49,
                    "name": "C#3",
                    "ticks": 53040,
                    "time": 52.618995,
                    "velocity": 0.9448818897637795
                },
                {
                    "duration": 0.2787695624999955,
                    "durationTicks": 281,
                    "midi": 49,
                    "name": "C#3",
                    "ticks": 53520,
                    "time": 53.095185,
                    "velocity": 0.9448818897637795
                },
                {
                    "duration": 0.2519838750000005,
                    "durationTicks": 254,
                    "midi": 42,
                    "name": "F#2",
                    "ticks": 53520,
                    "time": 53.095185,
                    "velocity": 1
                },
                {
                    "duration": 0.2529759374999969,
                    "durationTicks": 255,
                    "midi": 42,
                    "name": "F#2",
                    "ticks": 54000,
                    "time": 53.571375,
                    "velocity": 0.9448818897637795
                },
                {
                    "duration": 0.26984099999999245,
                    "durationTicks": 272,
                    "midi": 49,
                    "name": "C#3",
                    "ticks": 54000,
                    "time": 53.571375,
                    "velocity": 1
                },
                {
                    "duration": 0.2777774999999991,
                    "durationTicks": 280,
                    "midi": 42,
                    "name": "F#2",
                    "ticks": 54480,
                    "time": 54.047565,
                    "velocity": 1
                },
                {
                    "duration": 0.3124996875000008,
                    "durationTicks": 315,
                    "midi": 49,
                    "name": "C#3",
                    "ticks": 54480,
                    "time": 54.047565,
                    "velocity": 0.9448818897637795
                },
                {
                    "duration": 0.2847219374999952,
                    "durationTicks": 287,
                    "midi": 42,
                    "name": "F#2",
                    "ticks": 54960,
                    "time": 54.523755,
                    "velocity": 1
                },
                {
                    "duration": 0.3045631875000012,
                    "durationTicks": 307,
                    "midi": 49,
                    "name": "C#3",
                    "ticks": 54960,
                    "time": 54.523755,
                    "velocity": 0.9448818897637795
                },
                {
                    "duration": 0.25198387500000763,
                    "durationTicks": 254,
                    "midi": 42,
                    "name": "F#2",
                    "ticks": 55440,
                    "time": 54.999945,
                    "velocity": 1
                },
                {
                    "duration": 0.2787695625000026,
                    "durationTicks": 281,
                    "midi": 49,
                    "name": "C#3",
                    "ticks": 55440,
                    "time": 54.999945,
                    "velocity": 0.9448818897637795
                },
                {
                    "duration": 0.252975937500004,
                    "durationTicks": 255,
                    "midi": 40,
                    "name": "E2",
                    "ticks": 55920,
                    "time": 55.476135,
                    "velocity": 0.9448818897637795
                },
                {
                    "duration": 0.26984099999999955,
                    "durationTicks": 272,
                    "midi": 47,
                    "name": "B2",
                    "ticks": 55920,
                    "time": 55.476135,
                    "velocity": 1
                },
                {
                    "duration": 0.2777774999999991,
                    "durationTicks": 280,
                    "midi": 40,
                    "name": "E2",
                    "ticks": 56400,
                    "time": 55.952325,
                    "velocity": 1
                },
                {
                    "duration": 0.3124996875000008,
                    "durationTicks": 315,
                    "midi": 47,
                    "name": "B2",
                    "ticks": 56400,
                    "time": 55.952325,
                    "velocity": 0.9448818897637795
                },
                {
                    "duration": 0.2847219375000023,
                    "durationTicks": 287,
                    "midi": 40,
                    "name": "E2",
                    "ticks": 56880,
                    "time": 56.428515,
                    "velocity": 1
                },
                {
                    "duration": 0.3045631875000012,
                    "durationTicks": 307,
                    "midi": 47,
                    "name": "B2",
                    "ticks": 56880,
                    "time": 56.428515,
                    "velocity": 0.9448818897637795
                },
                {
                    "duration": 0.2519838750000005,
                    "durationTicks": 254,
                    "midi": 40,
                    "name": "E2",
                    "ticks": 57360,
                    "time": 56.904705,
                    "velocity": 1
                },
                {
                    "duration": 0.2787695624999955,
                    "durationTicks": 281,
                    "midi": 47,
                    "name": "B2",
                    "ticks": 57360,
                    "time": 56.904705,
                    "velocity": 0.9448818897637795
                },
                {
                    "duration": 0.04067456249999424,
                    "durationTicks": 41,
                    "midi": 56,
                    "name": "G#3",
                    "ticks": 57600,
                    "time": 57.1428,
                    "velocity": 0.5039370078740157
                },
                {
                    "duration": 0.2529759374999969,
                    "durationTicks": 255,
                    "midi": 47,
                    "name": "B2",
                    "ticks": 57840,
                    "time": 57.380895,
                    "velocity": 0.9448818897637795
                },
                {
                    "duration": 0.26984099999999955,
                    "durationTicks": 272,
                    "midi": 54,
                    "name": "F#3",
                    "ticks": 57840,
                    "time": 57.380895,
                    "velocity": 1
                },
                {
                    "duration": 0.2777774999999991,
                    "durationTicks": 280,
                    "midi": 47,
                    "name": "B2",
                    "ticks": 58320,
                    "time": 57.857085,
                    "velocity": 1
                },
                {
                    "duration": 0.3124996875000008,
                    "durationTicks": 315,
                    "midi": 54,
                    "name": "F#3",
                    "ticks": 58320,
                    "time": 57.857085,
                    "velocity": 0.9448818897637795
                },
                {
                    "duration": 0.2847219374999952,
                    "durationTicks": 287,
                    "midi": 47,
                    "name": "B2",
                    "ticks": 58800,
                    "time": 58.333275,
                    "velocity": 1
                },
                {
                    "duration": 0.3045631875000012,
                    "durationTicks": 307,
                    "midi": 54,
                    "name": "F#3",
                    "ticks": 58800,
                    "time": 58.333275,
                    "velocity": 0.9448818897637795
                },
                {
                    "duration": 0.2519838750000005,
                    "durationTicks": 254,
                    "midi": 47,
                    "name": "B2",
                    "ticks": 59280,
                    "time": 58.809465,
                    "velocity": 1
                },
                {
                    "duration": 0.2787695624999955,
                    "durationTicks": 281,
                    "midi": 54,
                    "name": "F#3",
                    "ticks": 59280,
                    "time": 58.809465,
                    "velocity": 0.9448818897637795
                },
                {
                    "duration": 0.2529759374999969,
                    "durationTicks": 255,
                    "midi": 42,
                    "name": "F#2",
                    "ticks": 61680,
                    "time": 61.190415,
                    "velocity": 0.9448818897637795
                },
                {
                    "duration": 0.26984099999999955,
                    "durationTicks": 272,
                    "midi": 49,
                    "name": "C#3",
                    "ticks": 61680,
                    "time": 61.190415,
                    "velocity": 1
                },
                {
                    "duration": 0.27777750000000623,
                    "durationTicks": 280,
                    "midi": 42,
                    "name": "F#2",
                    "ticks": 62160,
                    "time": 61.666605,
                    "velocity": 1
                },
                {
                    "duration": 0.3124996875000008,
                    "durationTicks": 315,
                    "midi": 49,
                    "name": "C#3",
                    "ticks": 62160,
                    "time": 61.666605,
                    "velocity": 0.9448818897637795
                },
                {
                    "duration": 0.2847219375000023,
                    "durationTicks": 287,
                    "midi": 42,
                    "name": "F#2",
                    "ticks": 62640,
                    "time": 62.142795,
                    "velocity": 1
                },
                {
                    "duration": 0.3045631874999941,
                    "durationTicks": 307,
                    "midi": 49,
                    "name": "C#3",
                    "ticks": 62640,
                    "time": 62.142795,
                    "velocity": 0.9448818897637795
                },
                {
                    "duration": 0.2519838750000005,
                    "durationTicks": 254,
                    "midi": 42,
                    "name": "F#2",
                    "ticks": 63120,
                    "time": 62.618985,
                    "velocity": 1
                },
                {
                    "duration": 0.2787695625000026,
                    "durationTicks": 281,
                    "midi": 49,
                    "name": "C#3",
                    "ticks": 63120,
                    "time": 62.618985,
                    "velocity": 0.9448818897637795
                },
                {
                    "duration": 0.252975937500004,
                    "durationTicks": 255,
                    "midi": 40,
                    "name": "E2",
                    "ticks": 63600,
                    "time": 63.095175,
                    "velocity": 0.9448818897637795
                },
                {
                    "duration": 0.26984099999999955,
                    "durationTicks": 272,
                    "midi": 47,
                    "name": "B2",
                    "ticks": 63600,
                    "time": 63.095175,
                    "velocity": 1
                },
                {
                    "duration": 0.27777750000000623,
                    "durationTicks": 280,
                    "midi": 40,
                    "name": "E2",
                    "ticks": 64080,
                    "time": 63.571365,
                    "velocity": 1
                },
                {
                    "duration": 0.3124996875000008,
                    "durationTicks": 315,
                    "midi": 47,
                    "name": "B2",
                    "ticks": 64080,
                    "time": 63.571365,
                    "velocity": 0.9448818897637795
                },
                {
                    "duration": 0.2847219374999952,
                    "durationTicks": 287,
                    "midi": 40,
                    "name": "E2",
                    "ticks": 64560,
                    "time": 64.047555,
                    "velocity": 1
                },
                {
                    "duration": 0.3045631874999941,
                    "durationTicks": 307,
                    "midi": 47,
                    "name": "B2",
                    "ticks": 64560,
                    "time": 64.047555,
                    "velocity": 0.9448818897637795
                },
                {
                    "duration": 0.2519838749999934,
                    "durationTicks": 254,
                    "midi": 40,
                    "name": "E2",
                    "ticks": 65040,
                    "time": 64.523745,
                    "velocity": 1
                },
                {
                    "duration": 0.2787695625000026,
                    "durationTicks": 281,
                    "midi": 47,
                    "name": "B2",
                    "ticks": 65040,
                    "time": 64.523745,
                    "velocity": 0.9448818897637795
                },
                {
                    "duration": 0.2529759375000111,
                    "durationTicks": 255,
                    "midi": 47,
                    "name": "B2",
                    "ticks": 65520,
                    "time": 64.999935,
                    "velocity": 0.9448818897637795
                },
                {
                    "duration": 0.26984099999999955,
                    "durationTicks": 272,
                    "midi": 54,
                    "name": "F#3",
                    "ticks": 65520,
                    "time": 64.999935,
                    "velocity": 1
                },
                {
                    "duration": 0.27777750000001333,
                    "durationTicks": 280,
                    "midi": 47,
                    "name": "B2",
                    "ticks": 66000,
                    "time": 65.476125,
                    "velocity": 1
                },
                {
                    "duration": 0.3124996875000079,
                    "durationTicks": 315,
                    "midi": 54,
                    "name": "F#3",
                    "ticks": 66000,
                    "time": 65.476125,
                    "velocity": 0.9448818897637795
                },
                {
                    "duration": 0.2847219374999952,
                    "durationTicks": 287,
                    "midi": 47,
                    "name": "B2",
                    "ticks": 66480,
                    "time": 65.952315,
                    "velocity": 1
                },
                {
                    "duration": 0.3045631874999941,
                    "durationTicks": 307,
                    "midi": 54,
                    "name": "F#3",
                    "ticks": 66480,
                    "time": 65.952315,
                    "velocity": 0.9448818897637795
                },
                {
                    "duration": 0.2519838749999934,
                    "durationTicks": 254,
                    "midi": 47,
                    "name": "B2",
                    "ticks": 66960,
                    "time": 66.428505,
                    "velocity": 1
                },
                {
                    "duration": 0.2787695625000026,
                    "durationTicks": 281,
                    "midi": 54,
                    "name": "F#3",
                    "ticks": 66960,
                    "time": 66.428505,
                    "velocity": 0.9448818897637795
                },
                {
                    "duration": 0.2529759374999969,
                    "durationTicks": 255,
                    "midi": 42,
                    "name": "F#2",
                    "ticks": 67440,
                    "time": 66.904695,
                    "velocity": 0.9448818897637795
                },
                {
                    "duration": 0.26984099999999955,
                    "durationTicks": 272,
                    "midi": 49,
                    "name": "C#3",
                    "ticks": 67440,
                    "time": 66.904695,
                    "velocity": 1
                },
                {
                    "duration": 0.2777774999999991,
                    "durationTicks": 280,
                    "midi": 42,
                    "name": "F#2",
                    "ticks": 67920,
                    "time": 67.380885,
                    "velocity": 1
                },
                {
                    "duration": 0.3124996874999937,
                    "durationTicks": 315,
                    "midi": 49,
                    "name": "C#3",
                    "ticks": 67920,
                    "time": 67.380885,
                    "velocity": 0.9448818897637795
                },
                {
                    "duration": 0.2847219375000094,
                    "durationTicks": 287,
                    "midi": 42,
                    "name": "F#2",
                    "ticks": 68400,
                    "time": 67.857075,
                    "velocity": 1
                },
                {
                    "duration": 0.3045631874999941,
                    "durationTicks": 307,
                    "midi": 49,
                    "name": "C#3",
                    "ticks": 68400,
                    "time": 67.857075,
                    "velocity": 0.9448818897637795
                },
                {
                    "duration": 0.25198387500000763,
                    "durationTicks": 254,
                    "midi": 42,
                    "name": "F#2",
                    "ticks": 68880,
                    "time": 68.333265,
                    "velocity": 1
                },
                {
                    "duration": 0.2787695625000026,
                    "durationTicks": 281,
                    "midi": 49,
                    "name": "C#3",
                    "ticks": 68880,
                    "time": 68.333265,
                    "velocity": 0.9448818897637795
                },
                {
                    "duration": 0.2529759374999969,
                    "durationTicks": 255,
                    "midi": 42,
                    "name": "F#2",
                    "ticks": 69360,
                    "time": 68.809455,
                    "velocity": 0.9448818897637795
                },
                {
                    "duration": 0.26984099999999955,
                    "durationTicks": 272,
                    "midi": 49,
                    "name": "C#3",
                    "ticks": 69360,
                    "time": 68.809455,
                    "velocity": 1
                },
                {
                    "duration": 0.2777774999999991,
                    "durationTicks": 280,
                    "midi": 42,
                    "name": "F#2",
                    "ticks": 69840,
                    "time": 69.285645,
                    "velocity": 1
                },
                {
                    "duration": 0.3124996874999937,
                    "durationTicks": 315,
                    "midi": 49,
                    "name": "C#3",
                    "ticks": 69840,
                    "time": 69.285645,
                    "velocity": 0.9448818897637795
                },
                {
                    "duration": 0.2847219374999952,
                    "durationTicks": 287,
                    "midi": 42,
                    "name": "F#2",
                    "ticks": 70320,
                    "time": 69.761835,
                    "velocity": 1
                },
                {
                    "duration": 0.3045631874999941,
                    "durationTicks": 307,
                    "midi": 49,
                    "name": "C#3",
                    "ticks": 70320,
                    "time": 69.761835,
                    "velocity": 0.9448818897637795
                },
                {
                    "duration": 0.25198387500000763,
                    "durationTicks": 254,
                    "midi": 42,
                    "name": "F#2",
                    "ticks": 70800,
                    "time": 70.238025,
                    "velocity": 1
                },
                {
                    "duration": 0.27876956250001683,
                    "durationTicks": 281,
                    "midi": 49,
                    "name": "C#3",
                    "ticks": 70800,
                    "time": 70.238025,
                    "velocity": 0.9448818897637795
                },
                {
                    "duration": 0.2529759375000111,
                    "durationTicks": 255,
                    "midi": 40,
                    "name": "E2",
                    "ticks": 71280,
                    "time": 70.714215,
                    "velocity": 0.9448818897637795
                },
                {
                    "duration": 0.26984099999999955,
                    "durationTicks": 272,
                    "midi": 47,
                    "name": "B2",
                    "ticks": 71280,
                    "time": 70.714215,
                    "velocity": 1
                },
                {
                    "duration": 0.27777750000001333,
                    "durationTicks": 280,
                    "midi": 40,
                    "name": "E2",
                    "ticks": 71760,
                    "time": 71.190405,
                    "velocity": 1
                },
                {
                    "duration": 0.3124996875000079,
                    "durationTicks": 315,
                    "midi": 47,
                    "name": "B2",
                    "ticks": 71760,
                    "time": 71.190405,
                    "velocity": 0.9448818897637795
                },
                {
                    "duration": 0.2847219374999952,
                    "durationTicks": 287,
                    "midi": 40,
                    "name": "E2",
                    "ticks": 72240,
                    "time": 71.666595,
                    "velocity": 1
                },
                {
                    "duration": 0.3045631874999941,
                    "durationTicks": 307,
                    "midi": 47,
                    "name": "B2",
                    "ticks": 72240,
                    "time": 71.666595,
                    "velocity": 0.9448818897637795
                },
                {
                    "duration": 0.2519838749999934,
                    "durationTicks": 254,
                    "midi": 40,
                    "name": "E2",
                    "ticks": 72720,
                    "time": 72.142785,
                    "velocity": 1
                },
                {
                    "duration": 0.2787695625000026,
                    "durationTicks": 281,
                    "midi": 47,
                    "name": "B2",
                    "ticks": 72720,
                    "time": 72.142785,
                    "velocity": 0.9448818897637795
                },
                {
                    "duration": 0.2529759374999969,
                    "durationTicks": 255,
                    "midi": 47,
                    "name": "B2",
                    "ticks": 73200,
                    "time": 72.618975,
                    "velocity": 0.9448818897637795
                },
                {
                    "duration": 0.26984099999999955,
                    "durationTicks": 272,
                    "midi": 54,
                    "name": "F#3",
                    "ticks": 73200,
                    "time": 72.618975,
                    "velocity": 1
                },
                {
                    "duration": 0.27777750000001333,
                    "durationTicks": 280,
                    "midi": 47,
                    "name": "B2",
                    "ticks": 73680,
                    "time": 73.095165,
                    "velocity": 1
                },
                {
                    "duration": 0.3124996875000079,
                    "durationTicks": 315,
                    "midi": 54,
                    "name": "F#3",
                    "ticks": 73680,
                    "time": 73.095165,
                    "velocity": 0.9448818897637795
                },
                {
                    "duration": 0.2847219374999952,
                    "durationTicks": 287,
                    "midi": 47,
                    "name": "B2",
                    "ticks": 74160,
                    "time": 73.571355,
                    "velocity": 1
                },
                {
                    "duration": 0.3045631874999941,
                    "durationTicks": 307,
                    "midi": 54,
                    "name": "F#3",
                    "ticks": 74160,
                    "time": 73.571355,
                    "velocity": 0.9448818897637795
                },
                {
                    "duration": 0.25198387500000763,
                    "durationTicks": 254,
                    "midi": 47,
                    "name": "B2",
                    "ticks": 74640,
                    "time": 74.047545,
                    "velocity": 1
                },
                {
                    "duration": 0.2787695625000026,
                    "durationTicks": 281,
                    "midi": 54,
                    "name": "F#3",
                    "ticks": 74640,
                    "time": 74.047545,
                    "velocity": 0.9448818897637795
                },
                {
                    "duration": 0.2529759374999969,
                    "durationTicks": 255,
                    "midi": 42,
                    "name": "F#2",
                    "ticks": 75120,
                    "time": 74.523735,
                    "velocity": 0.9448818897637795
                },
                {
                    "duration": 0.26984099999999955,
                    "durationTicks": 272,
                    "midi": 49,
                    "name": "C#3",
                    "ticks": 75120,
                    "time": 74.523735,
                    "velocity": 1
                },
                {
                    "duration": 0.2777774999999991,
                    "durationTicks": 280,
                    "midi": 42,
                    "name": "F#2",
                    "ticks": 75600,
                    "time": 74.999925,
                    "velocity": 1
                },
                {
                    "duration": 0.3124996874999937,
                    "durationTicks": 315,
                    "midi": 49,
                    "name": "C#3",
                    "ticks": 75600,
                    "time": 74.999925,
                    "velocity": 0.9448818897637795
                },
                {
                    "duration": 0.2847219374999952,
                    "durationTicks": 287,
                    "midi": 42,
                    "name": "F#2",
                    "ticks": 76080,
                    "time": 75.47611500000001,
                    "velocity": 1
                },
                {
                    "duration": 0.3045631874999799,
                    "durationTicks": 307,
                    "midi": 49,
                    "name": "C#3",
                    "ticks": 76080,
                    "time": 75.47611500000001,
                    "velocity": 0.9448818897637795
                },
                {
                    "duration": 0.25198387500000763,
                    "durationTicks": 254,
                    "midi": 42,
                    "name": "F#2",
                    "ticks": 76560,
                    "time": 75.952305,
                    "velocity": 1
                },
                {
                    "duration": 0.2787695625000026,
                    "durationTicks": 281,
                    "midi": 49,
                    "name": "C#3",
                    "ticks": 76560,
                    "time": 75.952305,
                    "velocity": 0.9448818897637795
                },
                {
                    "duration": 0.2529759374999969,
                    "durationTicks": 255,
                    "midi": 42,
                    "name": "F#2",
                    "ticks": 77040,
                    "time": 76.428495,
                    "velocity": 0.9448818897637795
                },
                {
                    "duration": 0.26984099999999955,
                    "durationTicks": 272,
                    "midi": 49,
                    "name": "C#3",
                    "ticks": 77040,
                    "time": 76.428495,
                    "velocity": 1
                },
                {
                    "duration": 0.2777774999999991,
                    "durationTicks": 280,
                    "midi": 42,
                    "name": "F#2",
                    "ticks": 77520,
                    "time": 76.904685,
                    "velocity": 1
                },
                {
                    "duration": 0.3124996874999937,
                    "durationTicks": 315,
                    "midi": 49,
                    "name": "C#3",
                    "ticks": 77520,
                    "time": 76.904685,
                    "velocity": 0.9448818897637795
                },
                {
                    "duration": 0.2847219374999952,
                    "durationTicks": 287,
                    "midi": 42,
                    "name": "F#2",
                    "ticks": 78000,
                    "time": 77.380875,
                    "velocity": 1
                },
                {
                    "duration": 0.3045631874999941,
                    "durationTicks": 307,
                    "midi": 49,
                    "name": "C#3",
                    "ticks": 78000,
                    "time": 77.380875,
                    "velocity": 0.9448818897637795
                },
                {
                    "duration": 0.2519838749999934,
                    "durationTicks": 254,
                    "midi": 42,
                    "name": "F#2",
                    "ticks": 78480,
                    "time": 77.857065,
                    "velocity": 1
                },
                {
                    "duration": 0.2787695625000026,
                    "durationTicks": 281,
                    "midi": 49,
                    "name": "C#3",
                    "ticks": 78480,
                    "time": 77.857065,
                    "velocity": 0.9448818897637795
                },
                {
                    "duration": 0.2529759375000111,
                    "durationTicks": 255,
                    "midi": 40,
                    "name": "E2",
                    "ticks": 78960,
                    "time": 78.333255,
                    "velocity": 0.9448818897637795
                },
                {
                    "duration": 0.26984099999999955,
                    "durationTicks": 272,
                    "midi": 47,
                    "name": "B2",
                    "ticks": 78960,
                    "time": 78.333255,
                    "velocity": 1
                },
                {
                    "duration": 0.27777750000001333,
                    "durationTicks": 280,
                    "midi": 40,
                    "name": "E2",
                    "ticks": 79440,
                    "time": 78.809445,
                    "velocity": 1
                },
                {
                    "duration": 0.3124996875000079,
                    "durationTicks": 315,
                    "midi": 47,
                    "name": "B2",
                    "ticks": 79440,
                    "time": 78.809445,
                    "velocity": 0.9448818897637795
                },
                {
                    "duration": 0.2847219374999952,
                    "durationTicks": 287,
                    "midi": 40,
                    "name": "E2",
                    "ticks": 79920,
                    "time": 79.285635,
                    "velocity": 1
                },
                {
                    "duration": 0.3045631874999941,
                    "durationTicks": 307,
                    "midi": 47,
                    "name": "B2",
                    "ticks": 79920,
                    "time": 79.285635,
                    "velocity": 0.9448818897637795
                },
                {
                    "duration": 0.2519838749999934,
                    "durationTicks": 254,
                    "midi": 40,
                    "name": "E2",
                    "ticks": 80400,
                    "time": 79.761825,
                    "velocity": 1
                },
                {
                    "duration": 0.2787695625000026,
                    "durationTicks": 281,
                    "midi": 47,
                    "name": "B2",
                    "ticks": 80400,
                    "time": 79.761825,
                    "velocity": 0.9448818897637795
                },
                {
                    "duration": 0.2529759374999969,
                    "durationTicks": 255,
                    "midi": 47,
                    "name": "B2",
                    "ticks": 80880,
                    "time": 80.238015,
                    "velocity": 0.9448818897637795
                },
                {
                    "duration": 0.26984099999999955,
                    "durationTicks": 272,
                    "midi": 54,
                    "name": "F#3",
                    "ticks": 80880,
                    "time": 80.238015,
                    "velocity": 1
                },
                {
                    "duration": 0.2777774999999991,
                    "durationTicks": 280,
                    "midi": 47,
                    "name": "B2",
                    "ticks": 81360,
                    "time": 80.714205,
                    "velocity": 1
                },
                {
                    "duration": 0.3124996874999937,
                    "durationTicks": 315,
                    "midi": 54,
                    "name": "F#3",
                    "ticks": 81360,
                    "time": 80.714205,
                    "velocity": 0.9448818897637795
                },
                {
                    "duration": 0.2847219375000094,
                    "durationTicks": 287,
                    "midi": 47,
                    "name": "B2",
                    "ticks": 81840,
                    "time": 81.190395,
                    "velocity": 1
                },
                {
                    "duration": 0.3045631874999941,
                    "durationTicks": 307,
                    "midi": 54,
                    "name": "F#3",
                    "ticks": 81840,
                    "time": 81.190395,
                    "velocity": 0.9448818897637795
                },
                {
                    "duration": 0.25198387500000763,
                    "durationTicks": 254,
                    "midi": 47,
                    "name": "B2",
                    "ticks": 82320,
                    "time": 81.666585,
                    "velocity": 1
                },
                {
                    "duration": 0.2787695625000026,
                    "durationTicks": 281,
                    "midi": 54,
                    "name": "F#3",
                    "ticks": 82320,
                    "time": 81.666585,
                    "velocity": 0.9448818897637795
                },
                {
                    "duration": 0.2529759374999969,
                    "durationTicks": 255,
                    "midi": 42,
                    "name": "F#2",
                    "ticks": 82800,
                    "time": 82.142775,
                    "velocity": 0.9448818897637795
                },
                {
                    "duration": 0.26984099999999955,
                    "durationTicks": 272,
                    "midi": 49,
                    "name": "C#3",
                    "ticks": 82800,
                    "time": 82.142775,
                    "velocity": 1
                },
                {
                    "duration": 0.2777774999999991,
                    "durationTicks": 280,
                    "midi": 42,
                    "name": "F#2",
                    "ticks": 83280,
                    "time": 82.618965,
                    "velocity": 1
                },
                {
                    "duration": 0.3124996874999937,
                    "durationTicks": 315,
                    "midi": 49,
                    "name": "C#3",
                    "ticks": 83280,
                    "time": 82.618965,
                    "velocity": 0.9448818897637795
                },
                {
                    "duration": 0.2847219374999952,
                    "durationTicks": 287,
                    "midi": 42,
                    "name": "F#2",
                    "ticks": 83760,
                    "time": 83.095155,
                    "velocity": 1
                },
                {
                    "duration": 0.3045631874999941,
                    "durationTicks": 307,
                    "midi": 49,
                    "name": "C#3",
                    "ticks": 83760,
                    "time": 83.095155,
                    "velocity": 0.9448818897637795
                },
                {
                    "duration": 0.25198387500000763,
                    "durationTicks": 254,
                    "midi": 42,
                    "name": "F#2",
                    "ticks": 84240,
                    "time": 83.571345,
                    "velocity": 1
                },
                {
                    "duration": 0.27876956250001683,
                    "durationTicks": 281,
                    "midi": 49,
                    "name": "C#3",
                    "ticks": 84240,
                    "time": 83.571345,
                    "velocity": 0.9448818897637795
                },
                {
                    "duration": 0.2529759375000111,
                    "durationTicks": 255,
                    "midi": 42,
                    "name": "F#2",
                    "ticks": 84720,
                    "time": 84.047535,
                    "velocity": 0.9448818897637795
                },
                {
                    "duration": 0.26984099999999955,
                    "durationTicks": 272,
                    "midi": 49,
                    "name": "C#3",
                    "ticks": 84720,
                    "time": 84.047535,
                    "velocity": 1
                },
                {
                    "duration": 0.2777774999999991,
                    "durationTicks": 280,
                    "midi": 42,
                    "name": "F#2",
                    "ticks": 85200,
                    "time": 84.523725,
                    "velocity": 1
                },
                {
                    "duration": 0.3124996875000079,
                    "durationTicks": 315,
                    "midi": 49,
                    "name": "C#3",
                    "ticks": 85200,
                    "time": 84.523725,
                    "velocity": 0.9448818897637795
                },
                {
                    "duration": 0.2847219374999952,
                    "durationTicks": 287,
                    "midi": 42,
                    "name": "F#2",
                    "ticks": 85680,
                    "time": 84.999915,
                    "velocity": 1
                },
                {
                    "duration": 0.3045631874999941,
                    "durationTicks": 307,
                    "midi": 49,
                    "name": "C#3",
                    "ticks": 85680,
                    "time": 84.999915,
                    "velocity": 0.9448818897637795
                },
                {
                    "duration": 0.2519838749999934,
                    "durationTicks": 254,
                    "midi": 42,
                    "name": "F#2",
                    "ticks": 86160,
                    "time": 85.476105,
                    "velocity": 1
                },
                {
                    "duration": 0.2787695625000026,
                    "durationTicks": 281,
                    "midi": 49,
                    "name": "C#3",
                    "ticks": 86160,
                    "time": 85.476105,
                    "velocity": 0.9448818897637795
                },
                {
                    "duration": 0.2529759374999969,
                    "durationTicks": 255,
                    "midi": 40,
                    "name": "E2",
                    "ticks": 86640,
                    "time": 85.952295,
                    "velocity": 0.9448818897637795
                },
                {
                    "duration": 0.26984099999998534,
                    "durationTicks": 272,
                    "midi": 47,
                    "name": "B2",
                    "ticks": 86640,
                    "time": 85.952295,
                    "velocity": 1
                },
                {
                    "duration": 0.27777750000001333,
                    "durationTicks": 280,
                    "midi": 40,
                    "name": "E2",
                    "ticks": 87120,
                    "time": 86.428485,
                    "velocity": 1
                },
                {
                    "duration": 0.3124996875000079,
                    "durationTicks": 315,
                    "midi": 47,
                    "name": "B2",
                    "ticks": 87120,
                    "time": 86.428485,
                    "velocity": 0.9448818897637795
                },
                {
                    "duration": 0.2847219374999952,
                    "durationTicks": 287,
                    "midi": 40,
                    "name": "E2",
                    "ticks": 87600,
                    "time": 86.904675,
                    "velocity": 1
                },
                {
                    "duration": 0.3045631874999941,
                    "durationTicks": 307,
                    "midi": 47,
                    "name": "B2",
                    "ticks": 87600,
                    "time": 86.904675,
                    "velocity": 0.9448818897637795
                },
                {
                    "duration": 0.25198387500000763,
                    "durationTicks": 254,
                    "midi": 40,
                    "name": "E2",
                    "ticks": 88080,
                    "time": 87.380865,
                    "velocity": 1
                },
                {
                    "duration": 0.2787695625000026,
                    "durationTicks": 281,
                    "midi": 47,
                    "name": "B2",
                    "ticks": 88080,
                    "time": 87.380865,
                    "velocity": 0.9448818897637795
                },
                {
                    "duration": 0.2529759374999969,
                    "durationTicks": 255,
                    "midi": 47,
                    "name": "B2",
                    "ticks": 88560,
                    "time": 87.857055,
                    "velocity": 0.9448818897637795
                },
                {
                    "duration": 0.26984099999999955,
                    "durationTicks": 272,
                    "midi": 54,
                    "name": "F#3",
                    "ticks": 88560,
                    "time": 87.857055,
                    "velocity": 1
                },
                {
                    "duration": 0.2777774999999991,
                    "durationTicks": 280,
                    "midi": 47,
                    "name": "B2",
                    "ticks": 89040,
                    "time": 88.333245,
                    "velocity": 1
                },
                {
                    "duration": 0.3124996874999937,
                    "durationTicks": 315,
                    "midi": 54,
                    "name": "F#3",
                    "ticks": 89040,
                    "time": 88.333245,
                    "velocity": 0.9448818897637795
                },
                {
                    "duration": 0.2847219375000094,
                    "durationTicks": 287,
                    "midi": 47,
                    "name": "B2",
                    "ticks": 89520,
                    "time": 88.809435,
                    "velocity": 1
                },
                {
                    "duration": 0.3045631874999941,
                    "durationTicks": 307,
                    "midi": 54,
                    "name": "F#3",
                    "ticks": 89520,
                    "time": 88.809435,
                    "velocity": 0.9448818897637795
                },
                {
                    "duration": 0.25198387500000763,
                    "durationTicks": 254,
                    "midi": 47,
                    "name": "B2",
                    "ticks": 90000,
                    "time": 89.285625,
                    "velocity": 1
                },
                {
                    "duration": 0.2787695625000026,
                    "durationTicks": 281,
                    "midi": 54,
                    "name": "F#3",
                    "ticks": 90000,
                    "time": 89.285625,
                    "velocity": 0.9448818897637795
                },
                {
                    "duration": 0.2529759374999969,
                    "durationTicks": 255,
                    "midi": 42,
                    "name": "F#2",
                    "ticks": 90480,
                    "time": 89.761815,
                    "velocity": 0.9448818897637795
                },
                {
                    "duration": 0.26984099999999955,
                    "durationTicks": 272,
                    "midi": 49,
                    "name": "C#3",
                    "ticks": 90480,
                    "time": 89.761815,
                    "velocity": 1
                },
                {
                    "duration": 0.2777774999999991,
                    "durationTicks": 280,
                    "midi": 42,
                    "name": "F#2",
                    "ticks": 90960,
                    "time": 90.238005,
                    "velocity": 1
                },
                {
                    "duration": 0.3124996874999937,
                    "durationTicks": 315,
                    "midi": 49,
                    "name": "C#3",
                    "ticks": 90960,
                    "time": 90.238005,
                    "velocity": 0.9448818897637795
                },
                {
                    "duration": 0.2847219374999952,
                    "durationTicks": 287,
                    "midi": 42,
                    "name": "F#2",
                    "ticks": 91440,
                    "time": 90.714195,
                    "velocity": 1
                },
                {
                    "duration": 0.3045631874999941,
                    "durationTicks": 307,
                    "midi": 49,
                    "name": "C#3",
                    "ticks": 91440,
                    "time": 90.714195,
                    "velocity": 0.9448818897637795
                },
                {
                    "duration": 0.2519838749999934,
                    "durationTicks": 254,
                    "midi": 42,
                    "name": "F#2",
                    "ticks": 91920,
                    "time": 91.190385,
                    "velocity": 1
                },
                {
                    "duration": 0.2787695625000026,
                    "durationTicks": 281,
                    "midi": 49,
                    "name": "C#3",
                    "ticks": 91920,
                    "time": 91.190385,
                    "velocity": 0.9448818897637795
                },
                {
                    "duration": 0.2529759374999969,
                    "durationTicks": 255,
                    "midi": 42,
                    "name": "F#2",
                    "ticks": 115440,
                    "time": 114.523695,
                    "velocity": 0.9448818897637795
                },
                {
                    "duration": 0.26984099999999955,
                    "durationTicks": 272,
                    "midi": 49,
                    "name": "C#3",
                    "ticks": 115440,
                    "time": 114.523695,
                    "velocity": 1
                },
                {
                    "duration": 0.2777774999999991,
                    "durationTicks": 280,
                    "midi": 42,
                    "name": "F#2",
                    "ticks": 115920,
                    "time": 114.999885,
                    "velocity": 1
                },
                {
                    "duration": 0.3124996874999937,
                    "durationTicks": 315,
                    "midi": 49,
                    "name": "C#3",
                    "ticks": 115920,
                    "time": 114.999885,
                    "velocity": 0.9448818897637795
                },
                {
                    "duration": 0.2847219375000094,
                    "durationTicks": 287,
                    "midi": 42,
                    "name": "F#2",
                    "ticks": 116400,
                    "time": 115.476075,
                    "velocity": 1
                },
                {
                    "duration": 0.3045631874999941,
                    "durationTicks": 307,
                    "midi": 49,
                    "name": "C#3",
                    "ticks": 116400,
                    "time": 115.476075,
                    "velocity": 0.9448818897637795
                },
                {
                    "duration": 0.25198387500000763,
                    "durationTicks": 254,
                    "midi": 42,
                    "name": "F#2",
                    "ticks": 116880,
                    "time": 115.952265,
                    "velocity": 1
                },
                {
                    "duration": 0.2787695625000026,
                    "durationTicks": 281,
                    "midi": 49,
                    "name": "C#3",
                    "ticks": 116880,
                    "time": 115.952265,
                    "velocity": 0.9448818897637795
                },
                {
                    "duration": 0.2529759374999969,
                    "durationTicks": 255,
                    "midi": 40,
                    "name": "E2",
                    "ticks": 117360,
                    "time": 116.428455,
                    "velocity": 0.9448818897637795
                },
                {
                    "duration": 0.26984099999999955,
                    "durationTicks": 272,
                    "midi": 47,
                    "name": "B2",
                    "ticks": 117360,
                    "time": 116.428455,
                    "velocity": 1
                },
                {
                    "duration": 0.2777774999999991,
                    "durationTicks": 280,
                    "midi": 40,
                    "name": "E2",
                    "ticks": 117840,
                    "time": 116.904645,
                    "velocity": 1
                },
                {
                    "duration": 0.3124996874999937,
                    "durationTicks": 315,
                    "midi": 47,
                    "name": "B2",
                    "ticks": 117840,
                    "time": 116.904645,
                    "velocity": 0.9448818897637795
                },
                {
                    "duration": 0.2847219374999952,
                    "durationTicks": 287,
                    "midi": 40,
                    "name": "E2",
                    "ticks": 118320,
                    "time": 117.380835,
                    "velocity": 1
                },
                {
                    "duration": 0.3045631874999941,
                    "durationTicks": 307,
                    "midi": 47,
                    "name": "B2",
                    "ticks": 118320,
                    "time": 117.380835,
                    "velocity": 0.9448818897637795
                },
                {
                    "duration": 0.2519838749999934,
                    "durationTicks": 254,
                    "midi": 40,
                    "name": "E2",
                    "ticks": 118800,
                    "time": 117.85702500000001,
                    "velocity": 1
                },
                {
                    "duration": 0.2787695625000026,
                    "durationTicks": 281,
                    "midi": 47,
                    "name": "B2",
                    "ticks": 118800,
                    "time": 117.85702500000001,
                    "velocity": 0.9448818897637795
                },
                {
                    "duration": 0.040674562500015554,
                    "durationTicks": 41,
                    "midi": 56,
                    "name": "G#3",
                    "ticks": 119040,
                    "time": 118.09512,
                    "velocity": 0.5039370078740157
                },
                {
                    "duration": 0.2529759375000111,
                    "durationTicks": 255,
                    "midi": 47,
                    "name": "B2",
                    "ticks": 119280,
                    "time": 118.333215,
                    "velocity": 0.9448818897637795
                },
                {
                    "duration": 0.26984099999999955,
                    "durationTicks": 272,
                    "midi": 54,
                    "name": "F#3",
                    "ticks": 119280,
                    "time": 118.333215,
                    "velocity": 1
                },
                {
                    "duration": 0.27777750000001333,
                    "durationTicks": 280,
                    "midi": 47,
                    "name": "B2",
                    "ticks": 119760,
                    "time": 118.809405,
                    "velocity": 1
                },
                {
                    "duration": 0.3124996875000079,
                    "durationTicks": 315,
                    "midi": 54,
                    "name": "F#3",
                    "ticks": 119760,
                    "time": 118.809405,
                    "velocity": 0.9448818897637795
                },
                {
                    "duration": 0.2847219374999952,
                    "durationTicks": 287,
                    "midi": 47,
                    "name": "B2",
                    "ticks": 120240,
                    "time": 119.285595,
                    "velocity": 1
                },
                {
                    "duration": 0.3045631874999941,
                    "durationTicks": 307,
                    "midi": 54,
                    "name": "F#3",
                    "ticks": 120240,
                    "time": 119.285595,
                    "velocity": 0.9448818897637795
                },
                {
                    "duration": 0.2787695625000026,
                    "durationTicks": 281,
                    "midi": 54,
                    "name": "F#3",
                    "ticks": 120720,
                    "time": 119.761785,
                    "velocity": 0.9448818897637795
                },
                {
                    "duration": 0.2519838749999934,
                    "durationTicks": 254,
                    "midi": 47,
                    "name": "B2",
                    "ticks": 120720,
                    "time": 119.761785,
                    "velocity": 1
                },
                {
                    "duration": 0.04067456250000134,
                    "durationTicks": 41,
                    "midi": 51,
                    "name": "D#3",
                    "ticks": 120960,
                    "time": 119.99988,
                    "velocity": 0.5039370078740157
                },
                {
                    "duration": 0.2529759374999969,
                    "durationTicks": 255,
                    "midi": 42,
                    "name": "F#2",
                    "ticks": 121200,
                    "time": 120.237975,
                    "velocity": 0.9448818897637795
                },
                {
                    "duration": 0.26984099999999955,
                    "durationTicks": 272,
                    "midi": 49,
                    "name": "C#3",
                    "ticks": 121200,
                    "time": 120.237975,
                    "velocity": 1
                },
                {
                    "duration": 0.27777750000001333,
                    "durationTicks": 280,
                    "midi": 42,
                    "name": "F#2",
                    "ticks": 121680,
                    "time": 120.714165,
                    "velocity": 1
                },
                {
                    "duration": 0.3124996875000079,
                    "durationTicks": 315,
                    "midi": 49,
                    "name": "C#3",
                    "ticks": 121680,
                    "time": 120.714165,
                    "velocity": 0.9448818897637795
                },
                {
                    "duration": 0.2847219374999952,
                    "durationTicks": 287,
                    "midi": 42,
                    "name": "F#2",
                    "ticks": 122160,
                    "time": 121.190355,
                    "velocity": 1
                },
                {
                    "duration": 0.3045631874999941,
                    "durationTicks": 307,
                    "midi": 49,
                    "name": "C#3",
                    "ticks": 122160,
                    "time": 121.190355,
                    "velocity": 0.9448818897637795
                },
                {
                    "duration": 0.2787695625000026,
                    "durationTicks": 281,
                    "midi": 49,
                    "name": "C#3",
                    "ticks": 122640,
                    "time": 121.666545,
                    "velocity": 0.9448818897637795
                },
                {
                    "duration": 0.2519838749999934,
                    "durationTicks": 254,
                    "midi": 42,
                    "name": "F#2",
                    "ticks": 122640,
                    "time": 121.666545,
                    "velocity": 1
                },
                {
                    "duration": 0.2529759374999969,
                    "durationTicks": 255,
                    "midi": 42,
                    "name": "F#2",
                    "ticks": 123120,
                    "time": 122.142735,
                    "velocity": 0.9448818897637795
                },
                {
                    "duration": 0.26984099999999955,
                    "durationTicks": 272,
                    "midi": 49,
                    "name": "C#3",
                    "ticks": 123120,
                    "time": 122.142735,
                    "velocity": 1
                },
                {
                    "duration": 0.2777774999999849,
                    "durationTicks": 280,
                    "midi": 42,
                    "name": "F#2",
                    "ticks": 123600,
                    "time": 122.618925,
                    "velocity": 1
                },
                {
                    "duration": 0.3124996874999937,
                    "durationTicks": 315,
                    "midi": 49,
                    "name": "C#3",
                    "ticks": 123600,
                    "time": 122.618925,
                    "velocity": 0.9448818897637795
                },
                {
                    "duration": 0.2847219374999952,
                    "durationTicks": 287,
                    "midi": 42,
                    "name": "F#2",
                    "ticks": 124080,
                    "time": 123.095115,
                    "velocity": 1
                },
                {
                    "duration": 0.3045631874999941,
                    "durationTicks": 307,
                    "midi": 49,
                    "name": "C#3",
                    "ticks": 124080,
                    "time": 123.095115,
                    "velocity": 0.9448818897637795
                },
                {
                    "duration": 0.2519838749999934,
                    "durationTicks": 254,
                    "midi": 42,
                    "name": "F#2",
                    "ticks": 124560,
                    "time": 123.571305,
                    "velocity": 1
                },
                {
                    "duration": 0.2787695625000026,
                    "durationTicks": 281,
                    "midi": 49,
                    "name": "C#3",
                    "ticks": 124560,
                    "time": 123.571305,
                    "velocity": 0.9448818897637795
                },
                {
                    "duration": 0.2529759374999969,
                    "durationTicks": 255,
                    "midi": 40,
                    "name": "E2",
                    "ticks": 125040,
                    "time": 124.047495,
                    "velocity": 0.9448818897637795
                },
                {
                    "duration": 0.26984099999999955,
                    "durationTicks": 272,
                    "midi": 47,
                    "name": "B2",
                    "ticks": 125040,
                    "time": 124.047495,
                    "velocity": 1
                },
                {
                    "duration": 0.2777774999999849,
                    "durationTicks": 280,
                    "midi": 40,
                    "name": "E2",
                    "ticks": 125520,
                    "time": 124.523685,
                    "velocity": 1
                },
                {
                    "duration": 0.3124996874999937,
                    "durationTicks": 315,
                    "midi": 47,
                    "name": "B2",
                    "ticks": 125520,
                    "time": 124.523685,
                    "velocity": 0.9448818897637795
                },
                {
                    "duration": 0.2847219374999952,
                    "durationTicks": 287,
                    "midi": 40,
                    "name": "E2",
                    "ticks": 126000,
                    "time": 124.999875,
                    "velocity": 1
                },
                {
                    "duration": 0.3045631875000083,
                    "durationTicks": 307,
                    "midi": 47,
                    "name": "B2",
                    "ticks": 126000,
                    "time": 124.999875,
                    "velocity": 0.9448818897637795
                },
                {
                    "duration": 0.2519838749999792,
                    "durationTicks": 254,
                    "midi": 40,
                    "name": "E2",
                    "ticks": 126480,
                    "time": 125.476065,
                    "velocity": 1
                },
                {
                    "duration": 0.2787695625000026,
                    "durationTicks": 281,
                    "midi": 47,
                    "name": "B2",
                    "ticks": 126480,
                    "time": 125.476065,
                    "velocity": 0.9448818897637795
                },
                {
                    "duration": 0.04067456250000134,
                    "durationTicks": 41,
                    "midi": 56,
                    "name": "G#3",
                    "ticks": 126720,
                    "time": 125.71416,
                    "velocity": 0.5039370078740157
                },
                {
                    "duration": 0.2529759375000111,
                    "durationTicks": 255,
                    "midi": 47,
                    "name": "B2",
                    "ticks": 126960,
                    "time": 125.952255,
                    "velocity": 0.9448818897637795
                },
                {
                    "duration": 0.26984099999999955,
                    "durationTicks": 272,
                    "midi": 54,
                    "name": "F#3",
                    "ticks": 126960,
                    "time": 125.952255,
                    "velocity": 1
                },
                {
                    "duration": 0.2777774999999991,
                    "durationTicks": 280,
                    "midi": 47,
                    "name": "B2",
                    "ticks": 127440,
                    "time": 126.428445,
                    "velocity": 1
                },
                {
                    "duration": 0.3124996875000079,
                    "durationTicks": 315,
                    "midi": 54,
                    "name": "F#3",
                    "ticks": 127440,
                    "time": 126.428445,
                    "velocity": 0.9448818897637795
                },
                {
                    "duration": 0.2529759374999969,
                    "durationTicks": 255,
                    "midi": 42,
                    "name": "F#2",
                    "ticks": 130800,
                    "time": 129.761775,
                    "velocity": 0.9448818897637795
                },
                {
                    "duration": 0.26984099999998534,
                    "durationTicks": 272,
                    "midi": 49,
                    "name": "C#3",
                    "ticks": 130800,
                    "time": 129.761775,
                    "velocity": 1
                },
                {
                    "duration": 0.2777774999999849,
                    "durationTicks": 280,
                    "midi": 42,
                    "name": "F#2",
                    "ticks": 131280,
                    "time": 130.237965,
                    "velocity": 1
                },
                {
                    "duration": 0.3124996875000079,
                    "durationTicks": 315,
                    "midi": 49,
                    "name": "C#3",
                    "ticks": 131280,
                    "time": 130.237965,
                    "velocity": 0.9448818897637795
                },
                {
                    "duration": 0.2847219374999952,
                    "durationTicks": 287,
                    "midi": 42,
                    "name": "F#2",
                    "ticks": 131760,
                    "time": 130.714155,
                    "velocity": 1
                },
                {
                    "duration": 0.3045631875000083,
                    "durationTicks": 307,
                    "midi": 49,
                    "name": "C#3",
                    "ticks": 131760,
                    "time": 130.714155,
                    "velocity": 0.9448818897637795
                },
                {
                    "duration": 0.2519838749999792,
                    "durationTicks": 254,
                    "midi": 42,
                    "name": "F#2",
                    "ticks": 132240,
                    "time": 131.190345,
                    "velocity": 1
                },
                {
                    "duration": 0.2787695625000026,
                    "durationTicks": 281,
                    "midi": 49,
                    "name": "C#3",
                    "ticks": 132240,
                    "time": 131.190345,
                    "velocity": 0.9448818897637795
                },
                {
                    "duration": 0.2529759374999969,
                    "durationTicks": 255,
                    "midi": 40,
                    "name": "E2",
                    "ticks": 132720,
                    "time": 131.666535,
                    "velocity": 0.9448818897637795
                },
                {
                    "duration": 0.26984099999998534,
                    "durationTicks": 272,
                    "midi": 47,
                    "name": "B2",
                    "ticks": 132720,
                    "time": 131.666535,
                    "velocity": 1
                },
                {
                    "duration": 0.2777774999999849,
                    "durationTicks": 280,
                    "midi": 40,
                    "name": "E2",
                    "ticks": 133200,
                    "time": 132.142725,
                    "velocity": 1
                },
                {
                    "duration": 0.3124996874999795,
                    "durationTicks": 315,
                    "midi": 47,
                    "name": "B2",
                    "ticks": 133200,
                    "time": 132.142725,
                    "velocity": 0.9448818897637795
                },
                {
                    "duration": 0.2847219375000236,
                    "durationTicks": 287,
                    "midi": 40,
                    "name": "E2",
                    "ticks": 133680,
                    "time": 132.618915,
                    "velocity": 1
                },
                {
                    "duration": 0.3045631875000083,
                    "durationTicks": 307,
                    "midi": 47,
                    "name": "B2",
                    "ticks": 133680,
                    "time": 132.618915,
                    "velocity": 0.9448818897637795
                },
                {
                    "duration": 0.25198387500000763,
                    "durationTicks": 254,
                    "midi": 40,
                    "name": "E2",
                    "ticks": 134160,
                    "time": 133.095105,
                    "velocity": 1
                },
                {
                    "duration": 0.2787695625000026,
                    "durationTicks": 281,
                    "midi": 47,
                    "name": "B2",
                    "ticks": 134160,
                    "time": 133.095105,
                    "velocity": 0.9448818897637795
                },
                {
                    "duration": 0.2529759374999969,
                    "durationTicks": 255,
                    "midi": 47,
                    "name": "B2",
                    "ticks": 134640,
                    "time": 133.571295,
                    "velocity": 0.9448818897637795
                },
                {
                    "duration": 0.26984100000001376,
                    "durationTicks": 272,
                    "midi": 54,
                    "name": "F#3",
                    "ticks": 134640,
                    "time": 133.571295,
                    "velocity": 1
                },
                {
                    "duration": 0.2777774999999849,
                    "durationTicks": 280,
                    "midi": 47,
                    "name": "B2",
                    "ticks": 135120,
                    "time": 134.047485,
                    "velocity": 1
                },
                {
                    "duration": 0.3124996875000079,
                    "durationTicks": 315,
                    "midi": 54,
                    "name": "F#3",
                    "ticks": 135120,
                    "time": 134.047485,
                    "velocity": 0.9448818897637795
                },
                {
                    "duration": 0.2847219374999952,
                    "durationTicks": 287,
                    "midi": 47,
                    "name": "B2",
                    "ticks": 135600,
                    "time": 134.523675,
                    "velocity": 1
                },
                {
                    "duration": 0.3045631875000083,
                    "durationTicks": 307,
                    "midi": 54,
                    "name": "F#3",
                    "ticks": 135600,
                    "time": 134.523675,
                    "velocity": 0.9448818897637795
                },
                {
                    "duration": 0.2519838749999792,
                    "durationTicks": 254,
                    "midi": 47,
                    "name": "B2",
                    "ticks": 136080,
                    "time": 134.999865,
                    "velocity": 1
                },
                {
                    "duration": 0.2787695625000026,
                    "durationTicks": 281,
                    "midi": 54,
                    "name": "F#3",
                    "ticks": 136080,
                    "time": 134.999865,
                    "velocity": 0.9448818897637795
                },
                {
                    "duration": 0.2529759374999969,
                    "durationTicks": 255,
                    "midi": 42,
                    "name": "F#2",
                    "ticks": 136560,
                    "time": 135.476055,
                    "velocity": 0.9448818897637795
                },
                {
                    "duration": 0.26984099999998534,
                    "durationTicks": 272,
                    "midi": 49,
                    "name": "C#3",
                    "ticks": 136560,
                    "time": 135.476055,
                    "velocity": 1
                },
                {
                    "duration": 0.2777774999999849,
                    "durationTicks": 280,
                    "midi": 42,
                    "name": "F#2",
                    "ticks": 137040,
                    "time": 135.952245,
                    "velocity": 1
                },
                {
                    "duration": 0.3124996875000079,
                    "durationTicks": 315,
                    "midi": 49,
                    "name": "C#3",
                    "ticks": 137040,
                    "time": 135.952245,
                    "velocity": 0.9448818897637795
                },
                {
                    "duration": 0.2847219374999952,
                    "durationTicks": 287,
                    "midi": 42,
                    "name": "F#2",
                    "ticks": 137520,
                    "time": 136.428435,
                    "velocity": 1
                },
                {
                    "duration": 0.3045631875000083,
                    "durationTicks": 307,
                    "midi": 49,
                    "name": "C#3",
                    "ticks": 137520,
                    "time": 136.428435,
                    "velocity": 0.9448818897637795
                },
                {
                    "duration": 0.2519838749999792,
                    "durationTicks": 254,
                    "midi": 42,
                    "name": "F#2",
                    "ticks": 138000,
                    "time": 136.904625,
                    "velocity": 1
                },
                {
                    "duration": 0.2787695625000026,
                    "durationTicks": 281,
                    "midi": 49,
                    "name": "C#3",
                    "ticks": 138000,
                    "time": 136.904625,
                    "velocity": 0.9448818897637795
                },
                {
                    "duration": 0.2529759374999969,
                    "durationTicks": 255,
                    "midi": 42,
                    "name": "F#2",
                    "ticks": 138480,
                    "time": 137.380815,
                    "velocity": 0.9448818897637795
                },
                {
                    "duration": 0.26984099999998534,
                    "durationTicks": 272,
                    "midi": 49,
                    "name": "C#3",
                    "ticks": 138480,
                    "time": 137.380815,
                    "velocity": 1
                },
                {
                    "duration": 0.27777750000001333,
                    "durationTicks": 280,
                    "midi": 42,
                    "name": "F#2",
                    "ticks": 138960,
                    "time": 137.857005,
                    "velocity": 1
                },
                {
                    "duration": 0.3124996875000079,
                    "durationTicks": 315,
                    "midi": 49,
                    "name": "C#3",
                    "ticks": 138960,
                    "time": 137.857005,
                    "velocity": 0.9448818897637795
                },
                {
                    "duration": 0.2847219375000236,
                    "durationTicks": 287,
                    "midi": 42,
                    "name": "F#2",
                    "ticks": 139440,
                    "time": 138.333195,
                    "velocity": 1
                },
                {
                    "duration": 0.3045631875000083,
                    "durationTicks": 307,
                    "midi": 49,
                    "name": "C#3",
                    "ticks": 139440,
                    "time": 138.333195,
                    "velocity": 0.9448818897637795
                },
                {
                    "duration": 0.25198387500000763,
                    "durationTicks": 254,
                    "midi": 42,
                    "name": "F#2",
                    "ticks": 139920,
                    "time": 138.809385,
                    "velocity": 1
                },
                {
                    "duration": 0.2787695625000026,
                    "durationTicks": 281,
                    "midi": 49,
                    "name": "C#3",
                    "ticks": 139920,
                    "time": 138.809385,
                    "velocity": 0.9448818897637795
                },
                {
                    "duration": 0.2529759374999969,
                    "durationTicks": 255,
                    "midi": 40,
                    "name": "E2",
                    "ticks": 140400,
                    "time": 139.285575,
                    "velocity": 0.9448818897637795
                },
                {
                    "duration": 0.26984100000001376,
                    "durationTicks": 272,
                    "midi": 47,
                    "name": "B2",
                    "ticks": 140400,
                    "time": 139.285575,
                    "velocity": 1
                },
                {
                    "duration": 0.2777774999999849,
                    "durationTicks": 280,
                    "midi": 40,
                    "name": "E2",
                    "ticks": 140880,
                    "time": 139.761765,
                    "velocity": 1
                },
                {
                    "duration": 0.3124996875000079,
                    "durationTicks": 315,
                    "midi": 47,
                    "name": "B2",
                    "ticks": 140880,
                    "time": 139.761765,
                    "velocity": 0.9448818897637795
                },
                {
                    "duration": 0.2847219374999952,
                    "durationTicks": 287,
                    "midi": 40,
                    "name": "E2",
                    "ticks": 141360,
                    "time": 140.237955,
                    "velocity": 1
                },
                {
                    "duration": 0.3045631875000083,
                    "durationTicks": 307,
                    "midi": 47,
                    "name": "B2",
                    "ticks": 141360,
                    "time": 140.237955,
                    "velocity": 0.9448818897637795
                },
                {
                    "duration": 0.2519838749999792,
                    "durationTicks": 254,
                    "midi": 40,
                    "name": "E2",
                    "ticks": 141840,
                    "time": 140.714145,
                    "velocity": 1
                },
                {
                    "duration": 0.2787695625000026,
                    "durationTicks": 281,
                    "midi": 47,
                    "name": "B2",
                    "ticks": 141840,
                    "time": 140.714145,
                    "velocity": 0.9448818897637795
                },
                {
                    "duration": 0.2529759374999969,
                    "durationTicks": 255,
                    "midi": 47,
                    "name": "B2",
                    "ticks": 142320,
                    "time": 141.190335,
                    "velocity": 0.9448818897637795
                },
                {
                    "duration": 0.26984099999998534,
                    "durationTicks": 272,
                    "midi": 54,
                    "name": "F#3",
                    "ticks": 142320,
                    "time": 141.190335,
                    "velocity": 1
                },
                {
                    "duration": 0.2777774999999849,
                    "durationTicks": 280,
                    "midi": 47,
                    "name": "B2",
                    "ticks": 142800,
                    "time": 141.666525,
                    "velocity": 1
                },
                {
                    "duration": 0.3124996874999795,
                    "durationTicks": 315,
                    "midi": 54,
                    "name": "F#3",
                    "ticks": 142800,
                    "time": 141.666525,
                    "velocity": 0.9448818897637795
                },
                {
                    "duration": 0.2847219374999952,
                    "durationTicks": 287,
                    "midi": 47,
                    "name": "B2",
                    "ticks": 143280,
                    "time": 142.142715,
                    "velocity": 1
                },
                {
                    "duration": 0.3045631875000083,
                    "durationTicks": 307,
                    "midi": 54,
                    "name": "F#3",
                    "ticks": 143280,
                    "time": 142.142715,
                    "velocity": 0.9448818897637795
                },
                {
                    "duration": 0.2519838749999792,
                    "durationTicks": 254,
                    "midi": 47,
                    "name": "B2",
                    "ticks": 143760,
                    "time": 142.618905,
                    "velocity": 1
                },
                {
                    "duration": 0.2787695625000026,
                    "durationTicks": 281,
                    "midi": 54,
                    "name": "F#3",
                    "ticks": 143760,
                    "time": 142.618905,
                    "velocity": 0.9448818897637795
                },
                {
                    "duration": 0.2529759374999969,
                    "durationTicks": 255,
                    "midi": 42,
                    "name": "F#2",
                    "ticks": 144240,
                    "time": 143.09509500000001,
                    "velocity": 0.9448818897637795
                },
                {
                    "duration": 0.26984099999998534,
                    "durationTicks": 272,
                    "midi": 49,
                    "name": "C#3",
                    "ticks": 144240,
                    "time": 143.09509500000001,
                    "velocity": 1
                },
                {
                    "duration": 0.27777750000001333,
                    "durationTicks": 280,
                    "midi": 42,
                    "name": "F#2",
                    "ticks": 144720,
                    "time": 143.571285,
                    "velocity": 1
                },
                {
                    "duration": 0.3124996875000079,
                    "durationTicks": 315,
                    "midi": 49,
                    "name": "C#3",
                    "ticks": 144720,
                    "time": 143.571285,
                    "velocity": 0.9448818897637795
                },
                {
                    "duration": 0.2847219374999952,
                    "durationTicks": 287,
                    "midi": 42,
                    "name": "F#2",
                    "ticks": 145200,
                    "time": 144.047475,
                    "velocity": 1
                },
                {
                    "duration": 0.3045631875000083,
                    "durationTicks": 307,
                    "midi": 49,
                    "name": "C#3",
                    "ticks": 145200,
                    "time": 144.047475,
                    "velocity": 0.9448818897637795
                },
                {
                    "duration": 0.25198387500000763,
                    "durationTicks": 254,
                    "midi": 42,
                    "name": "F#2",
                    "ticks": 145680,
                    "time": 144.523665,
                    "velocity": 1
                },
                {
                    "duration": 0.2787695625000026,
                    "durationTicks": 281,
                    "midi": 49,
                    "name": "C#3",
                    "ticks": 145680,
                    "time": 144.523665,
                    "velocity": 0.9448818897637795
                },
                {
                    "duration": 0.2529759374999969,
                    "durationTicks": 255,
                    "midi": 42,
                    "name": "F#2",
                    "ticks": 146160,
                    "time": 144.999855,
                    "velocity": 0.9448818897637795
                },
                {
                    "duration": 0.26984100000001376,
                    "durationTicks": 272,
                    "midi": 49,
                    "name": "C#3",
                    "ticks": 146160,
                    "time": 144.999855,
                    "velocity": 1
                },
                {
                    "duration": 0.2777774999999849,
                    "durationTicks": 280,
                    "midi": 42,
                    "name": "F#2",
                    "ticks": 146640,
                    "time": 145.476045,
                    "velocity": 1
                },
                {
                    "duration": 0.3124996875000079,
                    "durationTicks": 315,
                    "midi": 49,
                    "name": "C#3",
                    "ticks": 146640,
                    "time": 145.476045,
                    "velocity": 0.9448818897637795
                },
                {
                    "duration": 0.2847219374999952,
                    "durationTicks": 287,
                    "midi": 42,
                    "name": "F#2",
                    "ticks": 147120,
                    "time": 145.952235,
                    "velocity": 1
                },
                {
                    "duration": 0.3045631875000083,
                    "durationTicks": 307,
                    "midi": 49,
                    "name": "C#3",
                    "ticks": 147120,
                    "time": 145.952235,
                    "velocity": 0.9448818897637795
                },
                {
                    "duration": 0.2519838749999792,
                    "durationTicks": 254,
                    "midi": 42,
                    "name": "F#2",
                    "ticks": 147600,
                    "time": 146.428425,
                    "velocity": 1
                },
                {
                    "duration": 0.2787695625000026,
                    "durationTicks": 281,
                    "midi": 49,
                    "name": "C#3",
                    "ticks": 147600,
                    "time": 146.428425,
                    "velocity": 0.9448818897637795
                },
                {
                    "duration": 0.2529759374999969,
                    "durationTicks": 255,
                    "midi": 40,
                    "name": "E2",
                    "ticks": 148080,
                    "time": 146.904615,
                    "velocity": 0.9448818897637795
                },
                {
                    "duration": 0.26984099999998534,
                    "durationTicks": 272,
                    "midi": 47,
                    "name": "B2",
                    "ticks": 148080,
                    "time": 146.904615,
                    "velocity": 1
                },
                {
                    "duration": 0.2777774999999849,
                    "durationTicks": 280,
                    "midi": 40,
                    "name": "E2",
                    "ticks": 148560,
                    "time": 147.380805,
                    "velocity": 1
                },
                {
                    "duration": 0.3124996874999795,
                    "durationTicks": 315,
                    "midi": 47,
                    "name": "B2",
                    "ticks": 148560,
                    "time": 147.380805,
                    "velocity": 0.9448818897637795
                },
                {
                    "duration": 0.2847219374999952,
                    "durationTicks": 287,
                    "midi": 40,
                    "name": "E2",
                    "ticks": 149040,
                    "time": 147.856995,
                    "velocity": 1
                },
                {
                    "duration": 0.3045631875000083,
                    "durationTicks": 307,
                    "midi": 47,
                    "name": "B2",
                    "ticks": 149040,
                    "time": 147.856995,
                    "velocity": 0.9448818897637795
                },
                {
                    "duration": 0.2519838749999792,
                    "durationTicks": 254,
                    "midi": 40,
                    "name": "E2",
                    "ticks": 149520,
                    "time": 148.33318500000001,
                    "velocity": 1
                },
                {
                    "duration": 0.2787695625000026,
                    "durationTicks": 281,
                    "midi": 47,
                    "name": "B2",
                    "ticks": 149520,
                    "time": 148.33318500000001,
                    "velocity": 0.9448818897637795
                },
                {
                    "duration": 0.25297593750002534,
                    "durationTicks": 255,
                    "midi": 47,
                    "name": "B2",
                    "ticks": 150000,
                    "time": 148.809375,
                    "velocity": 0.9448818897637795
                },
                {
                    "duration": 0.26984100000001376,
                    "durationTicks": 272,
                    "midi": 54,
                    "name": "F#3",
                    "ticks": 150000,
                    "time": 148.809375,
                    "velocity": 1
                },
                {
                    "duration": 0.27777750000001333,
                    "durationTicks": 280,
                    "midi": 47,
                    "name": "B2",
                    "ticks": 150480,
                    "time": 149.285565,
                    "velocity": 1
                },
                {
                    "duration": 0.3124996875000079,
                    "durationTicks": 315,
                    "midi": 54,
                    "name": "F#3",
                    "ticks": 150480,
                    "time": 149.285565,
                    "velocity": 0.9448818897637795
                },
                {
                    "duration": 0.2847219374999952,
                    "durationTicks": 287,
                    "midi": 47,
                    "name": "B2",
                    "ticks": 150960,
                    "time": 149.761755,
                    "velocity": 1
                },
                {
                    "duration": 0.3045631875000083,
                    "durationTicks": 307,
                    "midi": 54,
                    "name": "F#3",
                    "ticks": 150960,
                    "time": 149.761755,
                    "velocity": 0.9448818897637795
                },
                {
                    "duration": 0.2519838749999792,
                    "durationTicks": 254,
                    "midi": 47,
                    "name": "B2",
                    "ticks": 151440,
                    "time": 150.237945,
                    "velocity": 1
                },
                {
                    "duration": 0.2787695625000026,
                    "durationTicks": 281,
                    "midi": 54,
                    "name": "F#3",
                    "ticks": 151440,
                    "time": 150.237945,
                    "velocity": 0.9448818897637795
                },
                {
                    "duration": 0.2529759374999969,
                    "durationTicks": 255,
                    "midi": 42,
                    "name": "F#2",
                    "ticks": 151920,
                    "time": 150.714135,
                    "velocity": 0.9448818897637795
                },
                {
                    "duration": 0.26984100000001376,
                    "durationTicks": 272,
                    "midi": 49,
                    "name": "C#3",
                    "ticks": 151920,
                    "time": 150.714135,
                    "velocity": 1
                },
                {
                    "duration": 0.2777774999999849,
                    "durationTicks": 280,
                    "midi": 42,
                    "name": "F#2",
                    "ticks": 152400,
                    "time": 151.190325,
                    "velocity": 1
                },
                {
                    "duration": 0.3124996875000079,
                    "durationTicks": 315,
                    "midi": 49,
                    "name": "C#3",
                    "ticks": 152400,
                    "time": 151.190325,
                    "velocity": 0.9448818897637795
                },
                {
                    "duration": 0.2847219374999952,
                    "durationTicks": 287,
                    "midi": 42,
                    "name": "F#2",
                    "ticks": 152880,
                    "time": 151.666515,
                    "velocity": 1
                },
                {
                    "duration": 0.3045631875000083,
                    "durationTicks": 307,
                    "midi": 49,
                    "name": "C#3",
                    "ticks": 152880,
                    "time": 151.666515,
                    "velocity": 0.9448818897637795
                },
                {
                    "duration": 0.2519838749999792,
                    "durationTicks": 254,
                    "midi": 42,
                    "name": "F#2",
                    "ticks": 153360,
                    "time": 152.142705,
                    "velocity": 1
                },
                {
                    "duration": 0.2787695625000026,
                    "durationTicks": 281,
                    "midi": 49,
                    "name": "C#3",
                    "ticks": 153360,
                    "time": 152.142705,
                    "velocity": 0.9448818897637795
                },
                {
                    "duration": 0.2529759374999969,
                    "durationTicks": 255,
                    "midi": 42,
                    "name": "F#2",
                    "ticks": 153840,
                    "time": 152.618895,
                    "velocity": 0.9448818897637795
                },
                {
                    "duration": 0.26984099999998534,
                    "durationTicks": 272,
                    "midi": 49,
                    "name": "C#3",
                    "ticks": 153840,
                    "time": 152.618895,
                    "velocity": 1
                },
                {
                    "duration": 0.2777774999999849,
                    "durationTicks": 280,
                    "midi": 42,
                    "name": "F#2",
                    "ticks": 154320,
                    "time": 153.095085,
                    "velocity": 1
                },
                {
                    "duration": 0.3124996874999795,
                    "durationTicks": 315,
                    "midi": 49,
                    "name": "C#3",
                    "ticks": 154320,
                    "time": 153.095085,
                    "velocity": 0.9448818897637795
                },
                {
                    "duration": 0.2847219374999952,
                    "durationTicks": 287,
                    "midi": 42,
                    "name": "F#2",
                    "ticks": 154800,
                    "time": 153.571275,
                    "velocity": 1
                },
                {
                    "duration": 0.3045631874999799,
                    "durationTicks": 307,
                    "midi": 49,
                    "name": "C#3",
                    "ticks": 154800,
                    "time": 153.571275,
                    "velocity": 0.9448818897637795
                },
                {
                    "duration": 0.25198387500000763,
                    "durationTicks": 254,
                    "midi": 42,
                    "name": "F#2",
                    "ticks": 155280,
                    "time": 154.047465,
                    "velocity": 1
                },
                {
                    "duration": 0.2787695625000026,
                    "durationTicks": 281,
                    "midi": 49,
                    "name": "C#3",
                    "ticks": 155280,
                    "time": 154.047465,
                    "velocity": 0.9448818897637795
                },
                {
                    "duration": 0.2529759374999969,
                    "durationTicks": 255,
                    "midi": 40,
                    "name": "E2",
                    "ticks": 155760,
                    "time": 154.523655,
                    "velocity": 0.9448818897637795
                },
                {
                    "duration": 0.26984100000001376,
                    "durationTicks": 272,
                    "midi": 47,
                    "name": "B2",
                    "ticks": 155760,
                    "time": 154.523655,
                    "velocity": 1
                },
                {
                    "duration": 0.2777774999999849,
                    "durationTicks": 280,
                    "midi": 40,
                    "name": "E2",
                    "ticks": 156240,
                    "time": 154.999845,
                    "velocity": 1
                },
                {
                    "duration": 0.3124996875000079,
                    "durationTicks": 315,
                    "midi": 47,
                    "name": "B2",
                    "ticks": 156240,
                    "time": 154.999845,
                    "velocity": 0.9448818897637795
                },
                {
                    "duration": 0.2847219374999952,
                    "durationTicks": 287,
                    "midi": 40,
                    "name": "E2",
                    "ticks": 156720,
                    "time": 155.476035,
                    "velocity": 1
                },
                {
                    "duration": 0.3045631875000083,
                    "durationTicks": 307,
                    "midi": 47,
                    "name": "B2",
                    "ticks": 156720,
                    "time": 155.476035,
                    "velocity": 0.9448818897637795
                },
                {
                    "duration": 0.2519838749999792,
                    "durationTicks": 254,
                    "midi": 40,
                    "name": "E2",
                    "ticks": 157200,
                    "time": 155.952225,
                    "velocity": 1
                },
                {
                    "duration": 0.2787695625000026,
                    "durationTicks": 281,
                    "midi": 47,
                    "name": "B2",
                    "ticks": 157200,
                    "time": 155.952225,
                    "velocity": 0.9448818897637795
                },
                {
                    "duration": 0.2529759374999969,
                    "durationTicks": 255,
                    "midi": 47,
                    "name": "B2",
                    "ticks": 157680,
                    "time": 156.428415,
                    "velocity": 0.9448818897637795
                },
                {
                    "duration": 0.26984099999998534,
                    "durationTicks": 272,
                    "midi": 54,
                    "name": "F#3",
                    "ticks": 157680,
                    "time": 156.428415,
                    "velocity": 1
                },
                {
                    "duration": 0.2777774999999849,
                    "durationTicks": 280,
                    "midi": 47,
                    "name": "B2",
                    "ticks": 158160,
                    "time": 156.904605,
                    "velocity": 1
                },
                {
                    "duration": 0.3124996875000079,
                    "durationTicks": 315,
                    "midi": 54,
                    "name": "F#3",
                    "ticks": 158160,
                    "time": 156.904605,
                    "velocity": 0.9448818897637795
                },
                {
                    "duration": 0.2847219374999952,
                    "durationTicks": 287,
                    "midi": 47,
                    "name": "B2",
                    "ticks": 158640,
                    "time": 157.380795,
                    "velocity": 1
                },
                {
                    "duration": 0.3045631875000083,
                    "durationTicks": 307,
                    "midi": 54,
                    "name": "F#3",
                    "ticks": 158640,
                    "time": 157.380795,
                    "velocity": 0.9448818897637795
                },
                {
                    "duration": 0.2519838749999792,
                    "durationTicks": 254,
                    "midi": 47,
                    "name": "B2",
                    "ticks": 159120,
                    "time": 157.856985,
                    "velocity": 1
                },
                {
                    "duration": 0.2787695625000026,
                    "durationTicks": 281,
                    "midi": 54,
                    "name": "F#3",
                    "ticks": 159120,
                    "time": 157.856985,
                    "velocity": 0.9448818897637795
                },
                {
                    "duration": 0.2529759374999969,
                    "durationTicks": 255,
                    "midi": 42,
                    "name": "F#2",
                    "ticks": 159600,
                    "time": 158.333175,
                    "velocity": 0.9448818897637795
                },
                {
                    "duration": 0.26984099999998534,
                    "durationTicks": 272,
                    "midi": 49,
                    "name": "C#3",
                    "ticks": 159600,
                    "time": 158.333175,
                    "velocity": 1
                },
                {
                    "duration": 0.2777774999999849,
                    "durationTicks": 280,
                    "midi": 42,
                    "name": "F#2",
                    "ticks": 160080,
                    "time": 158.809365,
                    "velocity": 1
                },
                {
                    "duration": 0.3124996874999795,
                    "durationTicks": 315,
                    "midi": 49,
                    "name": "C#3",
                    "ticks": 160080,
                    "time": 158.809365,
                    "velocity": 0.9448818897637795
                },
                {
                    "duration": 0.2847219375000236,
                    "durationTicks": 287,
                    "midi": 42,
                    "name": "F#2",
                    "ticks": 160560,
                    "time": 159.285555,
                    "velocity": 1
                },
                {
                    "duration": 0.3045631875000083,
                    "durationTicks": 307,
                    "midi": 49,
                    "name": "C#3",
                    "ticks": 160560,
                    "time": 159.285555,
                    "velocity": 0.9448818897637795
                },
                {
                    "duration": 0.25198387500000763,
                    "durationTicks": 254,
                    "midi": 42,
                    "name": "F#2",
                    "ticks": 161040,
                    "time": 159.761745,
                    "velocity": 1
                },
                {
                    "duration": 0.2787695625000026,
                    "durationTicks": 281,
                    "midi": 49,
                    "name": "C#3",
                    "ticks": 161040,
                    "time": 159.761745,
                    "velocity": 0.9448818897637795
                },
                {
                    "duration": 0.040674562500015554,
                    "durationTicks": 41,
                    "midi": 54,
                    "name": "F#3",
                    "ticks": 176640,
                    "time": 175.23792,
                    "velocity": 0.5039370078740157
                },
                {
                    "duration": 0.25297593750002534,
                    "durationTicks": 255,
                    "midi": 42,
                    "name": "F#2",
                    "ticks": 176880,
                    "time": 175.476015,
                    "velocity": 0.9448818897637795
                },
                {
                    "duration": 0.26984100000001376,
                    "durationTicks": 272,
                    "midi": 49,
                    "name": "C#3",
                    "ticks": 176880,
                    "time": 175.476015,
                    "velocity": 1
                },
                {
                    "duration": 0.27777750000001333,
                    "durationTicks": 280,
                    "midi": 42,
                    "name": "F#2",
                    "ticks": 177360,
                    "time": 175.952205,
                    "velocity": 1
                },
                {
                    "duration": 0.3124996875000079,
                    "durationTicks": 315,
                    "midi": 49,
                    "name": "C#3",
                    "ticks": 177360,
                    "time": 175.952205,
                    "velocity": 0.9448818897637795
                },
                {
                    "duration": 0.2847219374999952,
                    "durationTicks": 287,
                    "midi": 42,
                    "name": "F#2",
                    "ticks": 177840,
                    "time": 176.428395,
                    "velocity": 1
                },
                {
                    "duration": 0.3045631875000083,
                    "durationTicks": 307,
                    "midi": 49,
                    "name": "C#3",
                    "ticks": 177840,
                    "time": 176.428395,
                    "velocity": 0.9448818897637795
                },
                {
                    "duration": 0.2519838749999792,
                    "durationTicks": 254,
                    "midi": 42,
                    "name": "F#2",
                    "ticks": 178320,
                    "time": 176.904585,
                    "velocity": 1
                },
                {
                    "duration": 0.2380950000000155,
                    "durationTicks": 240,
                    "midi": 49,
                    "name": "C#3",
                    "ticks": 178320,
                    "time": 176.904585,
                    "velocity": 0.9448818897637795
                },
                {
                    "duration": 0.04067456249998713,
                    "durationTicks": 41,
                    "midi": 54,
                    "name": "F#3",
                    "ticks": 178560,
                    "time": 177.14268,
                    "velocity": 0.5039370078740157
                },
                {
                    "duration": 0.2529759374999969,
                    "durationTicks": 255,
                    "midi": 42,
                    "name": "F#2",
                    "ticks": 178800,
                    "time": 177.380775,
                    "velocity": 0.9448818897637795
                },
                {
                    "duration": 0.26984099999998534,
                    "durationTicks": 272,
                    "midi": 49,
                    "name": "C#3",
                    "ticks": 178800,
                    "time": 177.380775,
                    "velocity": 1
                },
                {
                    "duration": 0.2777774999999849,
                    "durationTicks": 280,
                    "midi": 42,
                    "name": "F#2",
                    "ticks": 179280,
                    "time": 177.856965,
                    "velocity": 1
                },
                {
                    "duration": 0.3124996875000079,
                    "durationTicks": 315,
                    "midi": 49,
                    "name": "C#3",
                    "ticks": 179280,
                    "time": 177.856965,
                    "velocity": 0.9448818897637795
                },
                {
                    "duration": 0.2847219374999952,
                    "durationTicks": 287,
                    "midi": 42,
                    "name": "F#2",
                    "ticks": 179760,
                    "time": 178.333155,
                    "velocity": 1
                },
                {
                    "duration": 0.3045631875000083,
                    "durationTicks": 307,
                    "midi": 49,
                    "name": "C#3",
                    "ticks": 179760,
                    "time": 178.333155,
                    "velocity": 0.9448818897637795
                },
                {
                    "duration": 0.2519838749999792,
                    "durationTicks": 254,
                    "midi": 42,
                    "name": "F#2",
                    "ticks": 180240,
                    "time": 178.809345,
                    "velocity": 1
                },
                {
                    "duration": 0.23809499999998707,
                    "durationTicks": 240,
                    "midi": 49,
                    "name": "C#3",
                    "ticks": 180240,
                    "time": 178.809345,
                    "velocity": 0.9448818897637795
                },
                {
                    "duration": 0.040674562500015554,
                    "durationTicks": 41,
                    "midi": 54,
                    "name": "F#3",
                    "ticks": 180480,
                    "time": 179.04744,
                    "velocity": 0.5039370078740157
                },
                {
                    "duration": 0.2529759374999969,
                    "durationTicks": 255,
                    "midi": 42,
                    "name": "F#2",
                    "ticks": 180720,
                    "time": 179.285535,
                    "velocity": 0.9448818897637795
                },
                {
                    "duration": 0.26984099999998534,
                    "durationTicks": 272,
                    "midi": 49,
                    "name": "C#3",
                    "ticks": 180720,
                    "time": 179.285535,
                    "velocity": 1
                },
                {
                    "duration": 0.2777774999999849,
                    "durationTicks": 280,
                    "midi": 42,
                    "name": "F#2",
                    "ticks": 181200,
                    "time": 179.761725,
                    "velocity": 1
                },
                {
                    "duration": 0.3124996874999795,
                    "durationTicks": 315,
                    "midi": 49,
                    "name": "C#3",
                    "ticks": 181200,
                    "time": 179.761725,
                    "velocity": 0.9448818897637795
                },
                {
                    "duration": 0.2847219375000236,
                    "durationTicks": 287,
                    "midi": 42,
                    "name": "F#2",
                    "ticks": 181680,
                    "time": 180.237915,
                    "velocity": 1
                },
                {
                    "duration": 0.3045631875000083,
                    "durationTicks": 307,
                    "midi": 49,
                    "name": "C#3",
                    "ticks": 181680,
                    "time": 180.237915,
                    "velocity": 0.9448818897637795
                },
                {
                    "duration": 0.25198387500000763,
                    "durationTicks": 254,
                    "midi": 42,
                    "name": "F#2",
                    "ticks": 182160,
                    "time": 180.714105,
                    "velocity": 1
                },
                {
                    "duration": 0.2380950000000155,
                    "durationTicks": 240,
                    "midi": 49,
                    "name": "C#3",
                    "ticks": 182160,
                    "time": 180.714105,
                    "velocity": 0.9448818897637795
                },
                {
                    "duration": 0.2529759374999969,
                    "durationTicks": 255,
                    "midi": 42,
                    "name": "F#2",
                    "ticks": 199920,
                    "time": 198.333135,
                    "velocity": 0.9448818897637795
                },
                {
                    "duration": 0.26984100000001376,
                    "durationTicks": 272,
                    "midi": 49,
                    "name": "C#3",
                    "ticks": 199920,
                    "time": 198.333135,
                    "velocity": 1
                },
                {
                    "duration": 0.2777774999999849,
                    "durationTicks": 280,
                    "midi": 42,
                    "name": "F#2",
                    "ticks": 200400,
                    "time": 198.809325,
                    "velocity": 1
                },
                {
                    "duration": 0.3124996875000079,
                    "durationTicks": 315,
                    "midi": 49,
                    "name": "C#3",
                    "ticks": 200400,
                    "time": 198.809325,
                    "velocity": 0.9448818897637795
                },
                {
                    "duration": 0.2847219374999952,
                    "durationTicks": 287,
                    "midi": 42,
                    "name": "F#2",
                    "ticks": 200880,
                    "time": 199.285515,
                    "velocity": 1
                },
                {
                    "duration": 0.3045631875000083,
                    "durationTicks": 307,
                    "midi": 49,
                    "name": "C#3",
                    "ticks": 200880,
                    "time": 199.285515,
                    "velocity": 0.9448818897637795
                },
                {
                    "duration": 0.2519838749999792,
                    "durationTicks": 254,
                    "midi": 42,
                    "name": "F#2",
                    "ticks": 201360,
                    "time": 199.761705,
                    "velocity": 1
                },
                {
                    "duration": 0.2787695625000026,
                    "durationTicks": 281,
                    "midi": 49,
                    "name": "C#3",
                    "ticks": 201360,
                    "time": 199.761705,
                    "velocity": 0.9448818897637795
                },
                {
                    "duration": 0.2529759374999969,
                    "durationTicks": 255,
                    "midi": 40,
                    "name": "E2",
                    "ticks": 201840,
                    "time": 200.237895,
                    "velocity": 0.9448818897637795
                },
                {
                    "duration": 0.26984099999998534,
                    "durationTicks": 272,
                    "midi": 47,
                    "name": "B2",
                    "ticks": 201840,
                    "time": 200.237895,
                    "velocity": 1
                },
                {
                    "duration": 0.2777774999999849,
                    "durationTicks": 280,
                    "midi": 40,
                    "name": "E2",
                    "ticks": 202320,
                    "time": 200.714085,
                    "velocity": 1
                },
                {
                    "duration": 0.3124996874999795,
                    "durationTicks": 315,
                    "midi": 47,
                    "name": "B2",
                    "ticks": 202320,
                    "time": 200.714085,
                    "velocity": 0.9448818897637795
                },
                {
                    "duration": 0.2847219374999952,
                    "durationTicks": 287,
                    "midi": 40,
                    "name": "E2",
                    "ticks": 202800,
                    "time": 201.190275,
                    "velocity": 1
                },
                {
                    "duration": 0.3045631875000083,
                    "durationTicks": 307,
                    "midi": 47,
                    "name": "B2",
                    "ticks": 202800,
                    "time": 201.190275,
                    "velocity": 0.9448818897637795
                },
                {
                    "duration": 0.25198387500000763,
                    "durationTicks": 254,
                    "midi": 40,
                    "name": "E2",
                    "ticks": 203280,
                    "time": 201.666465,
                    "velocity": 1
                },
                {
                    "duration": 0.2787695625000026,
                    "durationTicks": 281,
                    "midi": 47,
                    "name": "B2",
                    "ticks": 203280,
                    "time": 201.666465,
                    "velocity": 0.9448818897637795
                },
                {
                    "duration": 0.2529759374999969,
                    "durationTicks": 255,
                    "midi": 47,
                    "name": "B2",
                    "ticks": 203760,
                    "time": 202.142655,
                    "velocity": 0.9448818897637795
                },
                {
                    "duration": 0.26984100000001376,
                    "durationTicks": 272,
                    "midi": 54,
                    "name": "F#3",
                    "ticks": 203760,
                    "time": 202.142655,
                    "velocity": 1
                },
                {
                    "duration": 0.2777774999999849,
                    "durationTicks": 280,
                    "midi": 47,
                    "name": "B2",
                    "ticks": 204240,
                    "time": 202.618845,
                    "velocity": 1
                },
                {
                    "duration": 0.3124996875000079,
                    "durationTicks": 315,
                    "midi": 54,
                    "name": "F#3",
                    "ticks": 204240,
                    "time": 202.618845,
                    "velocity": 0.9448818897637795
                },
                {
                    "duration": 0.2847219374999952,
                    "durationTicks": 287,
                    "midi": 47,
                    "name": "B2",
                    "ticks": 204720,
                    "time": 203.095035,
                    "velocity": 1
                },
                {
                    "duration": 0.3045631875000083,
                    "durationTicks": 307,
                    "midi": 54,
                    "name": "F#3",
                    "ticks": 204720,
                    "time": 203.095035,
                    "velocity": 0.9448818897637795
                },
                {
                    "duration": 0.2519838749999792,
                    "durationTicks": 254,
                    "midi": 47,
                    "name": "B2",
                    "ticks": 205200,
                    "time": 203.571225,
                    "velocity": 1
                },
                {
                    "duration": 0.2787695625000026,
                    "durationTicks": 281,
                    "midi": 54,
                    "name": "F#3",
                    "ticks": 205200,
                    "time": 203.571225,
                    "velocity": 0.9448818897637795
                },
                {
                    "duration": 0.2529759374999969,
                    "durationTicks": 255,
                    "midi": 42,
                    "name": "F#2",
                    "ticks": 205680,
                    "time": 204.047415,
                    "velocity": 0.9448818897637795
                },
                {
                    "duration": 0.26984099999998534,
                    "durationTicks": 272,
                    "midi": 49,
                    "name": "C#3",
                    "ticks": 205680,
                    "time": 204.047415,
                    "velocity": 1
                },
                {
                    "duration": 0.2777774999999849,
                    "durationTicks": 280,
                    "midi": 42,
                    "name": "F#2",
                    "ticks": 206160,
                    "time": 204.523605,
                    "velocity": 1
                },
                {
                    "duration": 0.3124996875000079,
                    "durationTicks": 315,
                    "midi": 49,
                    "name": "C#3",
                    "ticks": 206160,
                    "time": 204.523605,
                    "velocity": 0.9448818897637795
                },
                {
                    "duration": 0.2847219374999952,
                    "durationTicks": 287,
                    "midi": 42,
                    "name": "F#2",
                    "ticks": 206640,
                    "time": 204.999795,
                    "velocity": 1
                },
                {
                    "duration": 0.3045631875000083,
                    "durationTicks": 307,
                    "midi": 49,
                    "name": "C#3",
                    "ticks": 206640,
                    "time": 204.999795,
                    "velocity": 0.9448818897637795
                },
                {
                    "duration": 0.2519838749999792,
                    "durationTicks": 254,
                    "midi": 42,
                    "name": "F#2",
                    "ticks": 207120,
                    "time": 205.475985,
                    "velocity": 1
                },
                {
                    "duration": 0.2787695625000026,
                    "durationTicks": 281,
                    "midi": 49,
                    "name": "C#3",
                    "ticks": 207120,
                    "time": 205.475985,
                    "velocity": 0.9448818897637795
                },
                {
                    "duration": 0.2529759374999969,
                    "durationTicks": 255,
                    "midi": 42,
                    "name": "F#2",
                    "ticks": 207600,
                    "time": 205.952175,
                    "velocity": 0.9448818897637795
                },
                {
                    "duration": 0.26984099999998534,
                    "durationTicks": 272,
                    "midi": 49,
                    "name": "C#3",
                    "ticks": 207600,
                    "time": 205.952175,
                    "velocity": 1
                },
                {
                    "duration": 0.2777774999999849,
                    "durationTicks": 280,
                    "midi": 42,
                    "name": "F#2",
                    "ticks": 208080,
                    "time": 206.428365,
                    "velocity": 1
                },
                {
                    "duration": 0.3124996874999795,
                    "durationTicks": 315,
                    "midi": 49,
                    "name": "C#3",
                    "ticks": 208080,
                    "time": 206.428365,
                    "velocity": 0.9448818897637795
                },
                {
                    "duration": 0.2847219375000236,
                    "durationTicks": 287,
                    "midi": 42,
                    "name": "F#2",
                    "ticks": 208560,
                    "time": 206.904555,
                    "velocity": 1
                },
                {
                    "duration": 0.3045631875000083,
                    "durationTicks": 307,
                    "midi": 49,
                    "name": "C#3",
                    "ticks": 208560,
                    "time": 206.904555,
                    "velocity": 0.9448818897637795
                },
                {
                    "duration": 0.25198387500000763,
                    "durationTicks": 254,
                    "midi": 42,
                    "name": "F#2",
                    "ticks": 209040,
                    "time": 207.380745,
                    "velocity": 1
                },
                {
                    "duration": 0.2787695625000026,
                    "durationTicks": 281,
                    "midi": 49,
                    "name": "C#3",
                    "ticks": 209040,
                    "time": 207.380745,
                    "velocity": 0.9448818897637795
                },
                {
                    "duration": 0.2529759374999969,
                    "durationTicks": 255,
                    "midi": 40,
                    "name": "E2",
                    "ticks": 209520,
                    "time": 207.856935,
                    "velocity": 0.9448818897637795
                },
                {
                    "duration": 0.26984100000001376,
                    "durationTicks": 272,
                    "midi": 47,
                    "name": "B2",
                    "ticks": 209520,
                    "time": 207.856935,
                    "velocity": 1
                },
                {
                    "duration": 0.2777774999999849,
                    "durationTicks": 280,
                    "midi": 40,
                    "name": "E2",
                    "ticks": 210000,
                    "time": 208.333125,
                    "velocity": 1
                },
                {
                    "duration": 0.3124996875000079,
                    "durationTicks": 315,
                    "midi": 47,
                    "name": "B2",
                    "ticks": 210000,
                    "time": 208.333125,
                    "velocity": 0.9448818897637795
                },
                {
                    "duration": 0.2847219374999952,
                    "durationTicks": 287,
                    "midi": 40,
                    "name": "E2",
                    "ticks": 210480,
                    "time": 208.809315,
                    "velocity": 1
                },
                {
                    "duration": 0.3045631875000083,
                    "durationTicks": 307,
                    "midi": 47,
                    "name": "B2",
                    "ticks": 210480,
                    "time": 208.809315,
                    "velocity": 0.9448818897637795
                },
                {
                    "duration": 0.2519838749999792,
                    "durationTicks": 254,
                    "midi": 40,
                    "name": "E2",
                    "ticks": 210960,
                    "time": 209.285505,
                    "velocity": 1
                },
                {
                    "duration": 0.2787695625000026,
                    "durationTicks": 281,
                    "midi": 47,
                    "name": "B2",
                    "ticks": 210960,
                    "time": 209.285505,
                    "velocity": 0.9448818897637795
                },
                {
                    "duration": 0.2529759374999969,
                    "durationTicks": 255,
                    "midi": 47,
                    "name": "B2",
                    "ticks": 211440,
                    "time": 209.761695,
                    "velocity": 0.9448818897637795
                },
                {
                    "duration": 0.26984099999998534,
                    "durationTicks": 272,
                    "midi": 54,
                    "name": "F#3",
                    "ticks": 211440,
                    "time": 209.761695,
                    "velocity": 1
                },
                {
                    "duration": 0.2777774999999849,
                    "durationTicks": 280,
                    "midi": 47,
                    "name": "B2",
                    "ticks": 211920,
                    "time": 210.237885,
                    "velocity": 1
                },
                {
                    "duration": 0.3124996875000079,
                    "durationTicks": 315,
                    "midi": 54,
                    "name": "F#3",
                    "ticks": 211920,
                    "time": 210.237885,
                    "velocity": 0.9448818897637795
                },
                {
                    "duration": 0.2847219374999952,
                    "durationTicks": 287,
                    "midi": 47,
                    "name": "B2",
                    "ticks": 212400,
                    "time": 210.714075,
                    "velocity": 1
                },
                {
                    "duration": 0.3045631875000083,
                    "durationTicks": 307,
                    "midi": 54,
                    "name": "F#3",
                    "ticks": 212400,
                    "time": 210.714075,
                    "velocity": 0.9448818897637795
                },
                {
                    "duration": 0.2519838749999792,
                    "durationTicks": 254,
                    "midi": 47,
                    "name": "B2",
                    "ticks": 212880,
                    "time": 211.190265,
                    "velocity": 1
                },
                {
                    "duration": 0.2787695625000026,
                    "durationTicks": 281,
                    "midi": 54,
                    "name": "F#3",
                    "ticks": 212880,
                    "time": 211.190265,
                    "velocity": 0.9448818897637795
                },
                {
                    "duration": 0.2529759374999969,
                    "durationTicks": 255,
                    "midi": 42,
                    "name": "F#2",
                    "ticks": 213360,
                    "time": 211.666455,
                    "velocity": 0.9448818897637795
                },
                {
                    "duration": 0.26984099999998534,
                    "durationTicks": 272,
                    "midi": 49,
                    "name": "C#3",
                    "ticks": 213360,
                    "time": 211.666455,
                    "velocity": 1
                },
                {
                    "duration": 0.27777750000001333,
                    "durationTicks": 280,
                    "midi": 42,
                    "name": "F#2",
                    "ticks": 213840,
                    "time": 212.142645,
                    "velocity": 1
                },
                {
                    "duration": 0.3124996875000079,
                    "durationTicks": 315,
                    "midi": 49,
                    "name": "C#3",
                    "ticks": 213840,
                    "time": 212.142645,
                    "velocity": 0.9448818897637795
                },
                {
                    "duration": 0.2847219374999952,
                    "durationTicks": 287,
                    "midi": 42,
                    "name": "F#2",
                    "ticks": 214320,
                    "time": 212.618835,
                    "velocity": 1
                },
                {
                    "duration": 0.3045631875000083,
                    "durationTicks": 307,
                    "midi": 49,
                    "name": "C#3",
                    "ticks": 214320,
                    "time": 212.618835,
                    "velocity": 0.9448818897637795
                },
                {
                    "duration": 0.25198387500000763,
                    "durationTicks": 254,
                    "midi": 42,
                    "name": "F#2",
                    "ticks": 214800,
                    "time": 213.095025,
                    "velocity": 1
                },
                {
                    "duration": 0.2787695625000026,
                    "durationTicks": 281,
                    "midi": 49,
                    "name": "C#3",
                    "ticks": 214800,
                    "time": 213.095025,
                    "velocity": 0.9448818897637795
                },
                {
                    "duration": 0.2529759374999969,
                    "durationTicks": 255,
                    "midi": 42,
                    "name": "F#2",
                    "ticks": 215280,
                    "time": 213.571215,
                    "velocity": 0.9448818897637795
                },
                {
                    "duration": 0.26984100000001376,
                    "durationTicks": 272,
                    "midi": 49,
                    "name": "C#3",
                    "ticks": 215280,
                    "time": 213.571215,
                    "velocity": 1
                },
                {
                    "duration": 0.2777774999999849,
                    "durationTicks": 280,
                    "midi": 42,
                    "name": "F#2",
                    "ticks": 215760,
                    "time": 214.047405,
                    "velocity": 1
                },
                {
                    "duration": 0.3124996875000079,
                    "durationTicks": 315,
                    "midi": 49,
                    "name": "C#3",
                    "ticks": 215760,
                    "time": 214.047405,
                    "velocity": 0.9448818897637795
                },
                {
                    "duration": 0.2847219374999952,
                    "durationTicks": 287,
                    "midi": 42,
                    "name": "F#2",
                    "ticks": 216240,
                    "time": 214.523595,
                    "velocity": 1
                },
                {
                    "duration": 0.3045631875000083,
                    "durationTicks": 307,
                    "midi": 49,
                    "name": "C#3",
                    "ticks": 216240,
                    "time": 214.523595,
                    "velocity": 0.9448818897637795
                },
                {
                    "duration": 0.2519838749999792,
                    "durationTicks": 254,
                    "midi": 42,
                    "name": "F#2",
                    "ticks": 216720,
                    "time": 214.999785,
                    "velocity": 1
                },
                {
                    "duration": 0.2787695625000026,
                    "durationTicks": 281,
                    "midi": 49,
                    "name": "C#3",
                    "ticks": 216720,
                    "time": 214.999785,
                    "velocity": 0.9448818897637795
                },
                {
                    "duration": 0.2529759374999969,
                    "durationTicks": 255,
                    "midi": 40,
                    "name": "E2",
                    "ticks": 217200,
                    "time": 215.475975,
                    "velocity": 0.9448818897637795
                },
                {
                    "duration": 0.26984099999998534,
                    "durationTicks": 272,
                    "midi": 47,
                    "name": "B2",
                    "ticks": 217200,
                    "time": 215.475975,
                    "velocity": 1
                },
                {
                    "duration": 0.2777774999999849,
                    "durationTicks": 280,
                    "midi": 40,
                    "name": "E2",
                    "ticks": 217680,
                    "time": 215.952165,
                    "velocity": 1
                },
                {
                    "duration": 0.3124996874999795,
                    "durationTicks": 315,
                    "midi": 47,
                    "name": "B2",
                    "ticks": 217680,
                    "time": 215.952165,
                    "velocity": 0.9448818897637795
                },
                {
                    "duration": 0.2847219374999952,
                    "durationTicks": 287,
                    "midi": 40,
                    "name": "E2",
                    "ticks": 218160,
                    "time": 216.428355,
                    "velocity": 1
                },
                {
                    "duration": 0.3045631875000083,
                    "durationTicks": 307,
                    "midi": 47,
                    "name": "B2",
                    "ticks": 218160,
                    "time": 216.428355,
                    "velocity": 0.9448818897637795
                },
                {
                    "duration": 0.2519838749999792,
                    "durationTicks": 254,
                    "midi": 40,
                    "name": "E2",
                    "ticks": 218640,
                    "time": 216.904545,
                    "velocity": 1
                },
                {
                    "duration": 0.2787695625000026,
                    "durationTicks": 281,
                    "midi": 47,
                    "name": "B2",
                    "ticks": 218640,
                    "time": 216.904545,
                    "velocity": 0.9448818897637795
                },
                {
                    "duration": 0.25297593750002534,
                    "durationTicks": 255,
                    "midi": 47,
                    "name": "B2",
                    "ticks": 219120,
                    "time": 217.380735,
                    "velocity": 0.9448818897637795
                },
                {
                    "duration": 0.26984100000001376,
                    "durationTicks": 272,
                    "midi": 54,
                    "name": "F#3",
                    "ticks": 219120,
                    "time": 217.380735,
                    "velocity": 1
                },
                {
                    "duration": 0.27777750000001333,
                    "durationTicks": 280,
                    "midi": 47,
                    "name": "B2",
                    "ticks": 219600,
                    "time": 217.856925,
                    "velocity": 1
                },
                {
                    "duration": 0.3124996875000079,
                    "durationTicks": 315,
                    "midi": 54,
                    "name": "F#3",
                    "ticks": 219600,
                    "time": 217.856925,
                    "velocity": 0.9448818897637795
                },
                {
                    "duration": 0.2847219374999952,
                    "durationTicks": 287,
                    "midi": 47,
                    "name": "B2",
                    "ticks": 220080,
                    "time": 218.333115,
                    "velocity": 1
                },
                {
                    "duration": 0.3045631875000083,
                    "durationTicks": 307,
                    "midi": 54,
                    "name": "F#3",
                    "ticks": 220080,
                    "time": 218.333115,
                    "velocity": 0.9448818897637795
                },
                {
                    "duration": 0.25198387500000763,
                    "durationTicks": 254,
                    "midi": 47,
                    "name": "B2",
                    "ticks": 220560,
                    "time": 218.809305,
                    "velocity": 1
                },
                {
                    "duration": 0.2787695625000026,
                    "durationTicks": 281,
                    "midi": 54,
                    "name": "F#3",
                    "ticks": 220560,
                    "time": 218.809305,
                    "velocity": 0.9448818897637795
                },
                {
                    "duration": 0.2529759374999969,
                    "durationTicks": 255,
                    "midi": 42,
                    "name": "F#2",
                    "ticks": 221040,
                    "time": 219.285495,
                    "velocity": 0.9448818897637795
                },
                {
                    "duration": 0.26984100000001376,
                    "durationTicks": 272,
                    "midi": 49,
                    "name": "C#3",
                    "ticks": 221040,
                    "time": 219.285495,
                    "velocity": 1
                },
                {
                    "duration": 0.2777774999999849,
                    "durationTicks": 280,
                    "midi": 42,
                    "name": "F#2",
                    "ticks": 221520,
                    "time": 219.761685,
                    "velocity": 1
                },
                {
                    "duration": 0.3124996875000079,
                    "durationTicks": 315,
                    "midi": 49,
                    "name": "C#3",
                    "ticks": 221520,
                    "time": 219.761685,
                    "velocity": 0.9448818897637795
                },
                {
                    "duration": 0.2847219374999952,
                    "durationTicks": 287,
                    "midi": 42,
                    "name": "F#2",
                    "ticks": 222000,
                    "time": 220.237875,
                    "velocity": 1
                },
                {
                    "duration": 0.3045631875000083,
                    "durationTicks": 307,
                    "midi": 49,
                    "name": "C#3",
                    "ticks": 222000,
                    "time": 220.237875,
                    "velocity": 0.9448818897637795
                },
                {
                    "duration": 0.2519838749999792,
                    "durationTicks": 254,
                    "midi": 42,
                    "name": "F#2",
                    "ticks": 222480,
                    "time": 220.714065,
                    "velocity": 1
                },
                {
                    "duration": 0.2787695625000026,
                    "durationTicks": 281,
                    "midi": 49,
                    "name": "C#3",
                    "ticks": 222480,
                    "time": 220.714065,
                    "velocity": 0.9448818897637795
                },
                {
                    "duration": 0.2529759374999969,
                    "durationTicks": 255,
                    "midi": 42,
                    "name": "F#2",
                    "ticks": 222960,
                    "time": 221.190255,
                    "velocity": 0.9448818897637795
                },
                {
                    "duration": 0.26984099999998534,
                    "durationTicks": 272,
                    "midi": 49,
                    "name": "C#3",
                    "ticks": 222960,
                    "time": 221.190255,
                    "velocity": 1
                },
                {
                    "duration": 0.2777774999999849,
                    "durationTicks": 280,
                    "midi": 42,
                    "name": "F#2",
                    "ticks": 223440,
                    "time": 221.666445,
                    "velocity": 1
                },
                {
                    "duration": 0.3124996874999795,
                    "durationTicks": 315,
                    "midi": 49,
                    "name": "C#3",
                    "ticks": 223440,
                    "time": 221.666445,
                    "velocity": 0.9448818897637795
                },
                {
                    "duration": 0.2847219374999952,
                    "durationTicks": 287,
                    "midi": 42,
                    "name": "F#2",
                    "ticks": 223920,
                    "time": 222.142635,
                    "velocity": 1
                },
                {
                    "duration": 0.3045631875000083,
                    "durationTicks": 307,
                    "midi": 49,
                    "name": "C#3",
                    "ticks": 223920,
                    "time": 222.142635,
                    "velocity": 0.9448818897637795
                },
                {
                    "duration": 0.25198387500000763,
                    "durationTicks": 254,
                    "midi": 42,
                    "name": "F#2",
                    "ticks": 224400,
                    "time": 222.618825,
                    "velocity": 1
                },
                {
                    "duration": 0.27876956250003104,
                    "durationTicks": 281,
                    "midi": 49,
                    "name": "C#3",
                    "ticks": 224400,
                    "time": 222.618825,
                    "velocity": 0.9448818897637795
                },
                {
                    "duration": 0.25297593750002534,
                    "durationTicks": 255,
                    "midi": 40,
                    "name": "E2",
                    "ticks": 224880,
                    "time": 223.095015,
                    "velocity": 0.9448818897637795
                },
                {
                    "duration": 0.26984100000001376,
                    "durationTicks": 272,
                    "midi": 47,
                    "name": "B2",
                    "ticks": 224880,
                    "time": 223.095015,
                    "velocity": 1
                },
                {
                    "duration": 0.27777750000001333,
                    "durationTicks": 280,
                    "midi": 40,
                    "name": "E2",
                    "ticks": 225360,
                    "time": 223.571205,
                    "velocity": 1
                },
                {
                    "duration": 0.3124996875000079,
                    "durationTicks": 315,
                    "midi": 47,
                    "name": "B2",
                    "ticks": 225360,
                    "time": 223.571205,
                    "velocity": 0.9448818897637795
                },
                {
                    "duration": 0.2847219374999952,
                    "durationTicks": 287,
                    "midi": 40,
                    "name": "E2",
                    "ticks": 225840,
                    "time": 224.047395,
                    "velocity": 1
                },
                {
                    "duration": 0.3045631875000083,
                    "durationTicks": 307,
                    "midi": 47,
                    "name": "B2",
                    "ticks": 225840,
                    "time": 224.047395,
                    "velocity": 0.9448818897637795
                },
                {
                    "duration": 0.2519838749999792,
                    "durationTicks": 254,
                    "midi": 40,
                    "name": "E2",
                    "ticks": 226320,
                    "time": 224.523585,
                    "velocity": 1
                },
                {
                    "duration": 0.2787695625000026,
                    "durationTicks": 281,
                    "midi": 47,
                    "name": "B2",
                    "ticks": 226320,
                    "time": 224.523585,
                    "velocity": 0.9448818897637795
                },
                {
                    "duration": 0.2529759374999969,
                    "durationTicks": 255,
                    "midi": 47,
                    "name": "B2",
                    "ticks": 226800,
                    "time": 224.999775,
                    "velocity": 0.9448818897637795
                },
                {
                    "duration": 0.26984100000001376,
                    "durationTicks": 272,
                    "midi": 54,
                    "name": "F#3",
                    "ticks": 226800,
                    "time": 224.999775,
                    "velocity": 1
                },
                {
                    "duration": 0.2777774999999849,
                    "durationTicks": 280,
                    "midi": 47,
                    "name": "B2",
                    "ticks": 227280,
                    "time": 225.475965,
                    "velocity": 1
                },
                {
                    "duration": 0.3124996875000079,
                    "durationTicks": 315,
                    "midi": 54,
                    "name": "F#3",
                    "ticks": 227280,
                    "time": 225.475965,
                    "velocity": 0.9448818897637795
                },
                {
                    "duration": 0.2847219374999952,
                    "durationTicks": 287,
                    "midi": 47,
                    "name": "B2",
                    "ticks": 227760,
                    "time": 225.952155,
                    "velocity": 1
                },
                {
                    "duration": 0.3045631875000083,
                    "durationTicks": 307,
                    "midi": 54,
                    "name": "F#3",
                    "ticks": 227760,
                    "time": 225.952155,
                    "velocity": 0.9448818897637795
                },
                {
                    "duration": 0.2519838749999792,
                    "durationTicks": 254,
                    "midi": 47,
                    "name": "B2",
                    "ticks": 228240,
                    "time": 226.428345,
                    "velocity": 1
                },
                {
                    "duration": 0.2787695625000026,
                    "durationTicks": 281,
                    "midi": 54,
                    "name": "F#3",
                    "ticks": 228240,
                    "time": 226.428345,
                    "velocity": 0.9448818897637795
                },
                {
                    "duration": 0.2529759374999969,
                    "durationTicks": 255,
                    "midi": 42,
                    "name": "F#2",
                    "ticks": 228720,
                    "time": 226.904535,
                    "velocity": 0.9448818897637795
                },
                {
                    "duration": 0.26984099999998534,
                    "durationTicks": 272,
                    "midi": 49,
                    "name": "C#3",
                    "ticks": 228720,
                    "time": 226.904535,
                    "velocity": 1
                },
                {
                    "duration": 0.2777774999999849,
                    "durationTicks": 280,
                    "midi": 42,
                    "name": "F#2",
                    "ticks": 229200,
                    "time": 227.380725,
                    "velocity": 1
                },
                {
                    "duration": 0.3124996874999795,
                    "durationTicks": 315,
                    "midi": 49,
                    "name": "C#3",
                    "ticks": 229200,
                    "time": 227.380725,
                    "velocity": 0.9448818897637795
                },
                {
                    "duration": 0.2847219374999952,
                    "durationTicks": 287,
                    "midi": 42,
                    "name": "F#2",
                    "ticks": 229680,
                    "time": 227.85691500000001,
                    "velocity": 1
                },
                {
                    "duration": 0.3045631874999799,
                    "durationTicks": 307,
                    "midi": 49,
                    "name": "C#3",
                    "ticks": 229680,
                    "time": 227.85691500000001,
                    "velocity": 0.9448818897637795
                },
                {
                    "duration": 0.2787695625000026,
                    "durationTicks": 281,
                    "midi": 49,
                    "name": "C#3",
                    "ticks": 230160,
                    "time": 228.333105,
                    "velocity": 0.9448818897637795
                },
                {
                    "duration": 0.25198387500000763,
                    "durationTicks": 254,
                    "midi": 42,
                    "name": "F#2",
                    "ticks": 230160,
                    "time": 228.333105,
                    "velocity": 1
                }
            ]
        },
        {
            "channel": 6,
            "controlChanges": {},
            "pitchBends": [],
            "instrument": {
                "family": "synth lead",
                "name": "lead 1 (square)",
                "number": 80
            },
            "name": "",
            "notes": [
                {
                    "duration": 0.11210306249998325,
                    "durationTicks": 113,
                    "midi": 66,
                    "name": "F#4",
                    "ticks": 247680,
                    "time": 245.71404,
                    "velocity": 0.5039370078740157
                },
                {
                    "duration": 0.11210306249998325,
                    "durationTicks": 113,
                    "midi": 69,
                    "name": "A4",
                    "ticks": 248400,
                    "time": 246.428325,
                    "velocity": 0.5039370078740157
                },
                {
                    "duration": 0.11210306250001167,
                    "durationTicks": 113,
                    "midi": 66,
                    "name": "F#4",
                    "ticks": 249120,
                    "time": 247.14261,
                    "velocity": 0.5039370078740157
                },
                {
                    "duration": 0.11210306249998325,
                    "durationTicks": 113,
                    "midi": 66,
                    "name": "F#4",
                    "ticks": 251520,
                    "time": 249.52356,
                    "velocity": 0.5039370078740157
                },
                {
                    "duration": 0.11210306250001167,
                    "durationTicks": 113,
                    "midi": 69,
                    "name": "A4",
                    "ticks": 252240,
                    "time": 250.237845,
                    "velocity": 0.5039370078740157
                },
                {
                    "duration": 0.11210306249998325,
                    "durationTicks": 113,
                    "midi": 66,
                    "name": "F#4",
                    "ticks": 252960,
                    "time": 250.95213,
                    "velocity": 0.5039370078740157
                },
                {
                    "duration": 0.11210306250001167,
                    "durationTicks": 113,
                    "midi": 66,
                    "name": "F#4",
                    "ticks": 255360,
                    "time": 253.33308,
                    "velocity": 0.5039370078740157
                },
                {
                    "duration": 0.11210306249998325,
                    "durationTicks": 113,
                    "midi": 69,
                    "name": "A4",
                    "ticks": 256080,
                    "time": 254.047365,
                    "velocity": 0.5039370078740157
                },
                {
                    "duration": 0.11210306249998325,
                    "durationTicks": 113,
                    "midi": 66,
                    "name": "F#4",
                    "ticks": 256800,
                    "time": 254.76165,
                    "velocity": 0.5039370078740157
                },
                {
                    "duration": 0.11210306249995483,
                    "durationTicks": 113,
                    "midi": 66,
                    "name": "F#4",
                    "ticks": 259200,
                    "time": 257.1426,
                    "velocity": 0.5039370078740157
                },
                {
                    "duration": 0.11210306250001167,
                    "durationTicks": 113,
                    "midi": 69,
                    "name": "A4",
                    "ticks": 259920,
                    "time": 257.856885,
                    "velocity": 0.5039370078740157
                },
                {
                    "duration": 0.11210306250001167,
                    "durationTicks": 113,
                    "midi": 66,
                    "name": "F#4",
                    "ticks": 260640,
                    "time": 258.57117,
                    "velocity": 0.5039370078740157
                }
            ]
        },
        {
            "channel": 0,
            "controlChanges": {
                "0": [
                    {
                        "number": 0,
                        "ticks": 0,
                        "time": 0,
                        "value": 0
                    }
                ]
            },
            "pitchBends": [],
            "instrument": {
                "family": "piano",
                "name": "acoustic grand piano",
                "number": 0
            },
            "name": "Contrabass",
            "notes": []
        },
        {
            "channel": 15,
            "controlChanges": {
                "1": [
                    {
                        "number": 1,
                        "ticks": 914,
                        "time": 0.9067451249999999,
                        "value": 0
                    }
                ],
                "7": [
                    {
                        "number": 7,
                        "ticks": 589,
                        "time": 0.5843248125,
                        "value": 0.7165354330708661
                    },
                    {
                        "number": 7,
                        "ticks": 673,
                        "time": 0.6676580625,
                        "value": 0.7874015748031497
                    },
                    {
                        "number": 7,
                        "ticks": 44565,
                        "time": 44.211265312500004,
                        "value": 0.7716535433070866
                    },
                    {
                        "number": 7,
                        "ticks": 49920,
                        "time": 49.52376,
                        "value": 1
                    },
                    {
                        "number": 7,
                        "ticks": 53760,
                        "time": 53.33328,
                        "value": 1
                    },
                    {
                        "number": 7,
                        "ticks": 57600,
                        "time": 57.1428,
                        "value": 1
                    },
                    {
                        "number": 7,
                        "ticks": 119040,
                        "time": 118.09512,
                        "value": 1
                    },
                    {
                        "number": 7,
                        "ticks": 122880,
                        "time": 121.90464,
                        "value": 1
                    },
                    {
                        "number": 7,
                        "ticks": 126720,
                        "time": 125.71416,
                        "value": 1
                    }
                ],
                "10": [
                    {
                        "number": 10,
                        "ticks": 639,
                        "time": 0.6339279375,
                        "value": 0.7007874015748031
                    },
                    {
                        "number": 10,
                        "ticks": 683,
                        "time": 0.6775786874999999,
                        "value": 0.5039370078740157
                    }
                ],
                "11": [
                    {
                        "number": 11,
                        "ticks": 657,
                        "time": 0.6517850625,
                        "value": 1
                    },
                    {
                        "number": 11,
                        "ticks": 864,
                        "time": 0.8571420000000001,
                        "value": 1
                    }
                ],
                "64": [
                    {
                        "number": 64,
                        "ticks": 814,
                        "time": 0.807538875,
                        "value": 0
                    }
                ],
                "91": [
                    {
                        "number": 91,
                        "ticks": 696,
                        "time": 0.6904755,
                        "value": 0
                    },
                    {
                        "number": 91,
                        "ticks": 714,
                        "time": 0.708332625,
                        "value": 0.9606299212598425
                    }
                ],
                "93": [
                    {
                        "number": 93,
                        "ticks": 712,
                        "time": 0.7063485,
                        "value": 0
                    },
                    {
                        "number": 93,
                        "ticks": 764,
                        "time": 0.7579357499999999,
                        "value": 0.44881889763779526
                    }
                ],
                "120": [
                    {
                        "number": 120,
                        "ticks": 49920,
                        "time": 49.52376,
                        "value": 0
                    },
                    {
                        "number": 120,
                        "ticks": 53760,
                        "time": 53.33328,
                        "value": 0
                    },
                    {
                        "number": 120,
                        "ticks": 57600,
                        "time": 57.1428,
                        "value": 0
                    },
                    {
                        "number": 120,
                        "ticks": 119040,
                        "time": 118.09512,
                        "value": 0
                    },
                    {
                        "number": 120,
                        "ticks": 122880,
                        "time": 121.90464,
                        "value": 0
                    },
                    {
                        "number": 120,
                        "ticks": 126720,
                        "time": 125.71416,
                        "value": 0
                    }
                ],
                "121": [
                    {
                        "number": 121,
                        "ticks": 421,
                        "time": 0.4176583125,
                        "value": 0
                    },
                    {
                        "number": 121,
                        "ticks": 480,
                        "time": 0.47619,
                        "value": 0
                    }
                ],
                "123": [
                    {
                        "number": 123,
                        "ticks": 49920,
                        "time": 49.52376,
                        "value": 0
                    },
                    {
                        "number": 123,
                        "ticks": 53760,
                        "time": 53.33328,
                        "value": 0
                    },
                    {
                        "number": 123,
                        "ticks": 57600,
                        "time": 57.1428,
                        "value": 0
                    },
                    {
                        "number": 123,
                        "ticks": 119040,
                        "time": 118.09512,
                        "value": 0
                    },
                    {
                        "number": 123,
                        "ticks": 122880,
                        "time": 121.90464,
                        "value": 0
                    },
                    {
                        "number": 123,
                        "ticks": 126720,
                        "time": 125.71416,
                        "value": 0
                    }
                ]
            },
            "pitchBends": [
                {
                    "ticks": 607,
                    "time": 0.6021819375,
                    "value": 0
                },
                {
                    "ticks": 964,
                    "time": 0.95634825,
                    "value": 0
                }
            ],
            "instrument": {
                "family": "strings",
                "name": "contrabass",
                "number": 43
            },
            "name": "",
            "notes": [
                {
                    "duration": 0.06746024999999944,
                    "durationTicks": 68,
                    "midi": 37,
                    "name": "C#2",
                    "ticks": 3924,
                    "time": 3.8928532500000004,
                    "velocity": 1
                },
                {
                    "duration": 0.067460249999999,
                    "durationTicks": 68,
                    "midi": 37,
                    "name": "C#2",
                    "ticks": 4044,
                    "time": 4.011900750000001,
                    "velocity": 1
                },
                {
                    "duration": 0.06746024999999989,
                    "durationTicks": 68,
                    "midi": 40,
                    "name": "E2",
                    "ticks": 4164,
                    "time": 4.13094825,
                    "velocity": 1
                },
                {
                    "duration": 0.06746024999999989,
                    "durationTicks": 68,
                    "midi": 44,
                    "name": "G#2",
                    "ticks": 4284,
                    "time": 4.24999575,
                    "velocity": 0.8582677165354331
                },
                {
                    "duration": 0.067460249999999,
                    "durationTicks": 68,
                    "midi": 40,
                    "name": "E2",
                    "ticks": 4404,
                    "time": 4.369043250000001,
                    "velocity": 0.8582677165354331
                },
                {
                    "duration": 0.06746024999999989,
                    "durationTicks": 68,
                    "midi": 37,
                    "name": "C#2",
                    "ticks": 4524,
                    "time": 4.4880907500000005,
                    "velocity": 1
                },
                {
                    "duration": 0.06746024999999989,
                    "durationTicks": 68,
                    "midi": 40,
                    "name": "E2",
                    "ticks": 4644,
                    "time": 4.60713825,
                    "velocity": 0.905511811023622
                },
                {
                    "duration": 0.06746024999999989,
                    "durationTicks": 68,
                    "midi": 44,
                    "name": "G#2",
                    "ticks": 4764,
                    "time": 4.72618575,
                    "velocity": 1
                },
                {
                    "duration": 0.067460249999999,
                    "durationTicks": 68,
                    "midi": 40,
                    "name": "E2",
                    "ticks": 4884,
                    "time": 4.845233250000001,
                    "velocity": 0.9763779527559056
                },
                {
                    "duration": 0.06746024999999989,
                    "durationTicks": 68,
                    "midi": 37,
                    "name": "C#2",
                    "ticks": 5004,
                    "time": 4.96428075,
                    "velocity": 1
                },
                {
                    "duration": 0.06746024999999989,
                    "durationTicks": 68,
                    "midi": 40,
                    "name": "E2",
                    "ticks": 5124,
                    "time": 5.08332825,
                    "velocity": 0.9763779527559056
                },
                {
                    "duration": 0.067460249999999,
                    "durationTicks": 68,
                    "midi": 44,
                    "name": "G#2",
                    "ticks": 5244,
                    "time": 5.202375750000001,
                    "velocity": 0.905511811023622
                },
                {
                    "duration": 0.067460249999999,
                    "durationTicks": 68,
                    "midi": 40,
                    "name": "E2",
                    "ticks": 5364,
                    "time": 5.3214232500000005,
                    "velocity": 1
                },
                {
                    "duration": 0.06746024999999989,
                    "durationTicks": 68,
                    "midi": 37,
                    "name": "C#2",
                    "ticks": 5484,
                    "time": 5.44047075,
                    "velocity": 0.905511811023622
                },
                {
                    "duration": 0.06746024999999989,
                    "durationTicks": 68,
                    "midi": 40,
                    "name": "E2",
                    "ticks": 5604,
                    "time": 5.55951825,
                    "velocity": 1
                },
                {
                    "duration": 0.067460249999999,
                    "durationTicks": 68,
                    "midi": 37,
                    "name": "C#2",
                    "ticks": 5724,
                    "time": 5.678565750000001,
                    "velocity": 1
                },
                {
                    "duration": 0.06746024999999989,
                    "durationTicks": 68,
                    "midi": 37,
                    "name": "C#2",
                    "ticks": 5844,
                    "time": 5.79761325,
                    "velocity": 1
                },
                {
                    "duration": 0.06746024999999989,
                    "durationTicks": 68,
                    "midi": 37,
                    "name": "C#2",
                    "ticks": 5964,
                    "time": 5.91666075,
                    "velocity": 1
                },
                {
                    "duration": 0.067460249999999,
                    "durationTicks": 68,
                    "midi": 40,
                    "name": "E2",
                    "ticks": 6084,
                    "time": 6.035708250000001,
                    "velocity": 1
                },
                {
                    "duration": 0.067460249999999,
                    "durationTicks": 68,
                    "midi": 44,
                    "name": "G#2",
                    "ticks": 6204,
                    "time": 6.1547557500000005,
                    "velocity": 0.8582677165354331
                },
                {
                    "duration": 0.06746024999999989,
                    "durationTicks": 68,
                    "midi": 40,
                    "name": "E2",
                    "ticks": 6324,
                    "time": 6.27380325,
                    "velocity": 0.8582677165354331
                },
                {
                    "duration": 0.06746024999999989,
                    "durationTicks": 68,
                    "midi": 37,
                    "name": "C#2",
                    "ticks": 6444,
                    "time": 6.39285075,
                    "velocity": 1
                },
                {
                    "duration": 0.067460249999999,
                    "durationTicks": 68,
                    "midi": 40,
                    "name": "E2",
                    "ticks": 6564,
                    "time": 6.511898250000001,
                    "velocity": 0.905511811023622
                },
                {
                    "duration": 0.06746024999999989,
                    "durationTicks": 68,
                    "midi": 44,
                    "name": "G#2",
                    "ticks": 6684,
                    "time": 6.63094575,
                    "velocity": 1
                },
                {
                    "duration": 0.06746024999999989,
                    "durationTicks": 68,
                    "midi": 40,
                    "name": "E2",
                    "ticks": 6804,
                    "time": 6.74999325,
                    "velocity": 0.9763779527559056
                },
                {
                    "duration": 0.067460249999999,
                    "durationTicks": 68,
                    "midi": 37,
                    "name": "C#2",
                    "ticks": 6924,
                    "time": 6.869040750000001,
                    "velocity": 1
                },
                {
                    "duration": 0.067460249999999,
                    "durationTicks": 68,
                    "midi": 40,
                    "name": "E2",
                    "ticks": 7044,
                    "time": 6.988088250000001,
                    "velocity": 0.9763779527559056
                },
                {
                    "duration": 0.06746024999999989,
                    "durationTicks": 68,
                    "midi": 44,
                    "name": "G#2",
                    "ticks": 7164,
                    "time": 7.10713575,
                    "velocity": 0.905511811023622
                },
                {
                    "duration": 0.06746024999999989,
                    "durationTicks": 68,
                    "midi": 40,
                    "name": "E2",
                    "ticks": 7284,
                    "time": 7.22618325,
                    "velocity": 1
                },
                {
                    "duration": 0.067460249999999,
                    "durationTicks": 68,
                    "midi": 37,
                    "name": "C#2",
                    "ticks": 7404,
                    "time": 7.345230750000001,
                    "velocity": 0.905511811023622
                },
                {
                    "duration": 0.06746024999999989,
                    "durationTicks": 68,
                    "midi": 40,
                    "name": "E2",
                    "ticks": 7524,
                    "time": 7.4642782500000004,
                    "velocity": 1
                },
                {
                    "duration": 0.06746024999999989,
                    "durationTicks": 68,
                    "midi": 37,
                    "name": "C#2",
                    "ticks": 7644,
                    "time": 7.58332575,
                    "velocity": 1
                },
                {
                    "duration": 0.06746024999999989,
                    "durationTicks": 68,
                    "midi": 37,
                    "name": "C#2",
                    "ticks": 7764,
                    "time": 7.70237325,
                    "velocity": 1
                },
                {
                    "duration": 0.067460249999999,
                    "durationTicks": 68,
                    "midi": 37,
                    "name": "C#2",
                    "ticks": 7884,
                    "time": 7.821420750000001,
                    "velocity": 1
                },
                {
                    "duration": 0.06746024999999989,
                    "durationTicks": 68,
                    "midi": 40,
                    "name": "E2",
                    "ticks": 8004,
                    "time": 7.94046825,
                    "velocity": 1
                },
                {
                    "duration": 0.06746024999999811,
                    "durationTicks": 68,
                    "midi": 44,
                    "name": "G#2",
                    "ticks": 8124,
                    "time": 8.059515750000001,
                    "velocity": 0.8582677165354331
                },
                {
                    "duration": 0.06746024999999989,
                    "durationTicks": 68,
                    "midi": 40,
                    "name": "E2",
                    "ticks": 8244,
                    "time": 8.17856325,
                    "velocity": 0.8582677165354331
                },
                {
                    "duration": 0.06746024999999989,
                    "durationTicks": 68,
                    "midi": 37,
                    "name": "C#2",
                    "ticks": 8364,
                    "time": 8.29761075,
                    "velocity": 1
                },
                {
                    "duration": 0.06746024999999811,
                    "durationTicks": 68,
                    "midi": 40,
                    "name": "E2",
                    "ticks": 8484,
                    "time": 8.416658250000001,
                    "velocity": 0.905511811023622
                },
                {
                    "duration": 0.06746024999999989,
                    "durationTicks": 68,
                    "midi": 44,
                    "name": "G#2",
                    "ticks": 8604,
                    "time": 8.53570575,
                    "velocity": 1
                },
                {
                    "duration": 0.06746024999999989,
                    "durationTicks": 68,
                    "midi": 40,
                    "name": "E2",
                    "ticks": 8724,
                    "time": 8.65475325,
                    "velocity": 0.9763779527559056
                },
                {
                    "duration": 0.06746024999999811,
                    "durationTicks": 68,
                    "midi": 37,
                    "name": "C#2",
                    "ticks": 8844,
                    "time": 8.773800750000001,
                    "velocity": 1
                },
                {
                    "duration": 0.06746024999999989,
                    "durationTicks": 68,
                    "midi": 40,
                    "name": "E2",
                    "ticks": 8964,
                    "time": 8.89284825,
                    "velocity": 0.9763779527559056
                },
                {
                    "duration": 0.06746024999999989,
                    "durationTicks": 68,
                    "midi": 44,
                    "name": "G#2",
                    "ticks": 9084,
                    "time": 9.01189575,
                    "velocity": 0.905511811023622
                },
                {
                    "duration": 0.06746024999999989,
                    "durationTicks": 68,
                    "midi": 40,
                    "name": "E2",
                    "ticks": 9204,
                    "time": 9.13094325,
                    "velocity": 1
                },
                {
                    "duration": 0.06746024999999989,
                    "durationTicks": 68,
                    "midi": 37,
                    "name": "C#2",
                    "ticks": 9324,
                    "time": 9.24999075,
                    "velocity": 0.905511811023622
                },
                {
                    "duration": 0.06746024999999989,
                    "durationTicks": 68,
                    "midi": 40,
                    "name": "E2",
                    "ticks": 9444,
                    "time": 9.369038250000001,
                    "velocity": 1
                },
                {
                    "duration": 0.06746024999999989,
                    "durationTicks": 68,
                    "midi": 37,
                    "name": "C#2",
                    "ticks": 9564,
                    "time": 9.48808575,
                    "velocity": 1
                },
                {
                    "duration": 0.06746024999999989,
                    "durationTicks": 68,
                    "midi": 37,
                    "name": "C#2",
                    "ticks": 9684,
                    "time": 9.60713325,
                    "velocity": 1
                },
                {
                    "duration": 0.06746024999999811,
                    "durationTicks": 68,
                    "midi": 37,
                    "name": "C#2",
                    "ticks": 9804,
                    "time": 9.726180750000001,
                    "velocity": 1
                },
                {
                    "duration": 0.06746024999999989,
                    "durationTicks": 68,
                    "midi": 40,
                    "name": "E2",
                    "ticks": 9924,
                    "time": 9.84522825,
                    "velocity": 1
                },
                {
                    "duration": 0.06746024999999989,
                    "durationTicks": 68,
                    "midi": 44,
                    "name": "G#2",
                    "ticks": 10044,
                    "time": 9.96427575,
                    "velocity": 0.8582677165354331
                },
                {
                    "duration": 0.06746024999999811,
                    "durationTicks": 68,
                    "midi": 40,
                    "name": "E2",
                    "ticks": 10164,
                    "time": 10.083323250000001,
                    "velocity": 0.8582677165354331
                },
                {
                    "duration": 0.06746024999999989,
                    "durationTicks": 68,
                    "midi": 37,
                    "name": "C#2",
                    "ticks": 10284,
                    "time": 10.20237075,
                    "velocity": 1
                },
                {
                    "duration": 0.06746024999999989,
                    "durationTicks": 68,
                    "midi": 40,
                    "name": "E2",
                    "ticks": 10404,
                    "time": 10.32141825,
                    "velocity": 0.905511811023622
                },
                {
                    "duration": 0.06746024999999989,
                    "durationTicks": 68,
                    "midi": 44,
                    "name": "G#2",
                    "ticks": 10524,
                    "time": 10.44046575,
                    "velocity": 1
                },
                {
                    "duration": 0.06746024999999989,
                    "durationTicks": 68,
                    "midi": 40,
                    "name": "E2",
                    "ticks": 10644,
                    "time": 10.55951325,
                    "velocity": 0.9763779527559056
                },
                {
                    "duration": 0.06746024999999989,
                    "durationTicks": 68,
                    "midi": 37,
                    "name": "C#2",
                    "ticks": 10764,
                    "time": 10.67856075,
                    "velocity": 1
                },
                {
                    "duration": 0.06746024999999989,
                    "durationTicks": 68,
                    "midi": 40,
                    "name": "E2",
                    "ticks": 10884,
                    "time": 10.79760825,
                    "velocity": 0.9763779527559056
                },
                {
                    "duration": 0.06746024999999989,
                    "durationTicks": 68,
                    "midi": 44,
                    "name": "G#2",
                    "ticks": 11004,
                    "time": 10.91665575,
                    "velocity": 0.905511811023622
                },
                {
                    "duration": 0.06746024999999811,
                    "durationTicks": 68,
                    "midi": 40,
                    "name": "E2",
                    "ticks": 11124,
                    "time": 11.035703250000001,
                    "velocity": 1
                },
                {
                    "duration": 0.06746024999999989,
                    "durationTicks": 68,
                    "midi": 37,
                    "name": "C#2",
                    "ticks": 11244,
                    "time": 11.15475075,
                    "velocity": 0.905511811023622
                },
                {
                    "duration": 0.06746024999999989,
                    "durationTicks": 68,
                    "midi": 40,
                    "name": "E2",
                    "ticks": 11364,
                    "time": 11.27379825,
                    "velocity": 1
                },
                {
                    "duration": 0.06746024999999811,
                    "durationTicks": 68,
                    "midi": 37,
                    "name": "C#2",
                    "ticks": 11484,
                    "time": 11.392845750000001,
                    "velocity": 1
                },
                {
                    "duration": 0.06746024999999989,
                    "durationTicks": 68,
                    "midi": 37,
                    "name": "C#2",
                    "ticks": 11604,
                    "time": 11.51189325,
                    "velocity": 1
                },
                {
                    "duration": 0.06746024999999989,
                    "durationTicks": 68,
                    "midi": 37,
                    "name": "C#2",
                    "ticks": 11724,
                    "time": 11.63094075,
                    "velocity": 1
                },
                {
                    "duration": 0.06746024999999811,
                    "durationTicks": 68,
                    "midi": 40,
                    "name": "E2",
                    "ticks": 11844,
                    "time": 11.749988250000001,
                    "velocity": 1
                },
                {
                    "duration": 0.06746024999999989,
                    "durationTicks": 68,
                    "midi": 44,
                    "name": "G#2",
                    "ticks": 11964,
                    "time": 11.86903575,
                    "velocity": 0.8582677165354331
                },
                {
                    "duration": 0.06746024999999989,
                    "durationTicks": 68,
                    "midi": 40,
                    "name": "E2",
                    "ticks": 12084,
                    "time": 11.98808325,
                    "velocity": 0.8582677165354331
                },
                {
                    "duration": 0.06746024999999989,
                    "durationTicks": 68,
                    "midi": 37,
                    "name": "C#2",
                    "ticks": 12204,
                    "time": 12.10713075,
                    "velocity": 1
                },
                {
                    "duration": 0.06746024999999989,
                    "durationTicks": 68,
                    "midi": 40,
                    "name": "E2",
                    "ticks": 12324,
                    "time": 12.22617825,
                    "velocity": 0.905511811023622
                },
                {
                    "duration": 0.06746024999999989,
                    "durationTicks": 68,
                    "midi": 44,
                    "name": "G#2",
                    "ticks": 12444,
                    "time": 12.34522575,
                    "velocity": 1
                },
                {
                    "duration": 0.06746024999999989,
                    "durationTicks": 68,
                    "midi": 40,
                    "name": "E2",
                    "ticks": 12564,
                    "time": 12.46427325,
                    "velocity": 0.9763779527559056
                },
                {
                    "duration": 0.06746024999999989,
                    "durationTicks": 68,
                    "midi": 37,
                    "name": "C#2",
                    "ticks": 12684,
                    "time": 12.58332075,
                    "velocity": 1
                },
                {
                    "duration": 0.06746024999999811,
                    "durationTicks": 68,
                    "midi": 40,
                    "name": "E2",
                    "ticks": 12804,
                    "time": 12.702368250000001,
                    "velocity": 0.9763779527559056
                },
                {
                    "duration": 0.06746024999999989,
                    "durationTicks": 68,
                    "midi": 44,
                    "name": "G#2",
                    "ticks": 12924,
                    "time": 12.82141575,
                    "velocity": 0.905511811023622
                },
                {
                    "duration": 0.06746024999999989,
                    "durationTicks": 68,
                    "midi": 40,
                    "name": "E2",
                    "ticks": 13044,
                    "time": 12.94046325,
                    "velocity": 1
                },
                {
                    "duration": 0.06746024999999811,
                    "durationTicks": 68,
                    "midi": 37,
                    "name": "C#2",
                    "ticks": 13164,
                    "time": 13.059510750000001,
                    "velocity": 0.905511811023622
                },
                {
                    "duration": 0.06746024999999989,
                    "durationTicks": 68,
                    "midi": 40,
                    "name": "E2",
                    "ticks": 13284,
                    "time": 13.17855825,
                    "velocity": 1
                },
                {
                    "duration": 0.06746024999999989,
                    "durationTicks": 68,
                    "midi": 37,
                    "name": "C#2",
                    "ticks": 13404,
                    "time": 13.29760575,
                    "velocity": 1
                },
                {
                    "duration": 0.06746024999999989,
                    "durationTicks": 68,
                    "midi": 37,
                    "name": "C#2",
                    "ticks": 13524,
                    "time": 13.41665325,
                    "velocity": 1
                },
                {
                    "duration": 0.06746024999999989,
                    "durationTicks": 68,
                    "midi": 37,
                    "name": "C#2",
                    "ticks": 13644,
                    "time": 13.53570075,
                    "velocity": 1
                },
                {
                    "duration": 0.06746024999999989,
                    "durationTicks": 68,
                    "midi": 40,
                    "name": "E2",
                    "ticks": 13764,
                    "time": 13.65474825,
                    "velocity": 1
                },
                {
                    "duration": 0.06746024999999989,
                    "durationTicks": 68,
                    "midi": 44,
                    "name": "G#2",
                    "ticks": 13884,
                    "time": 13.77379575,
                    "velocity": 0.8582677165354331
                },
                {
                    "duration": 0.06746024999999989,
                    "durationTicks": 68,
                    "midi": 40,
                    "name": "E2",
                    "ticks": 14004,
                    "time": 13.89284325,
                    "velocity": 0.8582677165354331
                },
                {
                    "duration": 0.06746024999999989,
                    "durationTicks": 68,
                    "midi": 37,
                    "name": "C#2",
                    "ticks": 14124,
                    "time": 14.011890750000001,
                    "velocity": 1
                },
                {
                    "duration": 0.06746024999999989,
                    "durationTicks": 68,
                    "midi": 40,
                    "name": "E2",
                    "ticks": 14244,
                    "time": 14.13093825,
                    "velocity": 0.905511811023622
                },
                {
                    "duration": 0.06746024999999989,
                    "durationTicks": 68,
                    "midi": 44,
                    "name": "G#2",
                    "ticks": 14364,
                    "time": 14.24998575,
                    "velocity": 1
                },
                {
                    "duration": 0.06746024999999811,
                    "durationTicks": 68,
                    "midi": 40,
                    "name": "E2",
                    "ticks": 14484,
                    "time": 14.369033250000001,
                    "velocity": 0.9763779527559056
                },
                {
                    "duration": 0.06746024999999989,
                    "durationTicks": 68,
                    "midi": 37,
                    "name": "C#2",
                    "ticks": 14604,
                    "time": 14.48808075,
                    "velocity": 1
                },
                {
                    "duration": 0.06746024999999989,
                    "durationTicks": 68,
                    "midi": 40,
                    "name": "E2",
                    "ticks": 14724,
                    "time": 14.60712825,
                    "velocity": 0.9763779527559056
                },
                {
                    "duration": 0.06746024999999811,
                    "durationTicks": 68,
                    "midi": 44,
                    "name": "G#2",
                    "ticks": 14844,
                    "time": 14.726175750000001,
                    "velocity": 0.905511811023622
                },
                {
                    "duration": 0.06746024999999989,
                    "durationTicks": 68,
                    "midi": 40,
                    "name": "E2",
                    "ticks": 14964,
                    "time": 14.84522325,
                    "velocity": 1
                },
                {
                    "duration": 0.06746024999999989,
                    "durationTicks": 68,
                    "midi": 37,
                    "name": "C#2",
                    "ticks": 15084,
                    "time": 14.96427075,
                    "velocity": 0.905511811023622
                },
                {
                    "duration": 0.06746024999999989,
                    "durationTicks": 68,
                    "midi": 40,
                    "name": "E2",
                    "ticks": 15204,
                    "time": 15.08331825,
                    "velocity": 1
                },
                {
                    "duration": 0.06746025000000166,
                    "durationTicks": 68,
                    "midi": 37,
                    "name": "C#2",
                    "ticks": 15324,
                    "time": 15.20236575,
                    "velocity": 1
                },
                {
                    "duration": 0.06746025000000344,
                    "durationTicks": 68,
                    "midi": 37,
                    "name": "C#2",
                    "ticks": 15444,
                    "time": 15.321413249999999,
                    "velocity": 1
                },
                {
                    "duration": 0.06746025000000344,
                    "durationTicks": 68,
                    "midi": 37,
                    "name": "C#2",
                    "ticks": 15564,
                    "time": 15.440460749999998,
                    "velocity": 1
                },
                {
                    "duration": 0.06746025000000344,
                    "durationTicks": 68,
                    "midi": 40,
                    "name": "E2",
                    "ticks": 15684,
                    "time": 15.559508249999999,
                    "velocity": 1
                },
                {
                    "duration": 0.06746025000000166,
                    "durationTicks": 68,
                    "midi": 44,
                    "name": "G#2",
                    "ticks": 15804,
                    "time": 15.67855575,
                    "velocity": 0.8582677165354331
                },
                {
                    "duration": 0.06746025000000344,
                    "durationTicks": 68,
                    "midi": 40,
                    "name": "E2",
                    "ticks": 15924,
                    "time": 15.797603249999998,
                    "velocity": 0.8582677165354331
                },
                {
                    "duration": 0.06746025000000344,
                    "durationTicks": 68,
                    "midi": 37,
                    "name": "C#2",
                    "ticks": 16044,
                    "time": 15.916650749999999,
                    "velocity": 1
                },
                {
                    "duration": 0.06746025000000344,
                    "durationTicks": 68,
                    "midi": 40,
                    "name": "E2",
                    "ticks": 16164,
                    "time": 16.03569825,
                    "velocity": 0.905511811023622
                },
                {
                    "duration": 0.06746024999999989,
                    "durationTicks": 68,
                    "midi": 44,
                    "name": "G#2",
                    "ticks": 16284,
                    "time": 16.15474575,
                    "velocity": 1
                },
                {
                    "duration": 0.06746025000000344,
                    "durationTicks": 68,
                    "midi": 40,
                    "name": "E2",
                    "ticks": 16404,
                    "time": 16.273793249999997,
                    "velocity": 0.9763779527559056
                },
                {
                    "duration": 0.06746025000000344,
                    "durationTicks": 68,
                    "midi": 37,
                    "name": "C#2",
                    "ticks": 16524,
                    "time": 16.392840749999998,
                    "velocity": 1
                },
                {
                    "duration": 0.06746025000000344,
                    "durationTicks": 68,
                    "midi": 40,
                    "name": "E2",
                    "ticks": 16644,
                    "time": 16.51188825,
                    "velocity": 0.9763779527559056
                },
                {
                    "duration": 0.06746025000000344,
                    "durationTicks": 68,
                    "midi": 44,
                    "name": "G#2",
                    "ticks": 16764,
                    "time": 16.63093575,
                    "velocity": 0.905511811023622
                },
                {
                    "duration": 0.06746025000000344,
                    "durationTicks": 68,
                    "midi": 40,
                    "name": "E2",
                    "ticks": 16884,
                    "time": 16.74998325,
                    "velocity": 1
                },
                {
                    "duration": 0.06746024999999989,
                    "durationTicks": 68,
                    "midi": 37,
                    "name": "C#2",
                    "ticks": 17004,
                    "time": 16.86903075,
                    "velocity": 0.905511811023622
                },
                {
                    "duration": 0.06746025000000344,
                    "durationTicks": 68,
                    "midi": 40,
                    "name": "E2",
                    "ticks": 17124,
                    "time": 16.988078249999997,
                    "velocity": 1
                },
                {
                    "duration": 0.06746025000000344,
                    "durationTicks": 68,
                    "midi": 37,
                    "name": "C#2",
                    "ticks": 17244,
                    "time": 17.107125749999998,
                    "velocity": 1
                },
                {
                    "duration": 0.06746025000000344,
                    "durationTicks": 68,
                    "midi": 37,
                    "name": "C#2",
                    "ticks": 17364,
                    "time": 17.22617325,
                    "velocity": 1
                },
                {
                    "duration": 0.06746025000000344,
                    "durationTicks": 68,
                    "midi": 37,
                    "name": "C#2",
                    "ticks": 17484,
                    "time": 17.34522075,
                    "velocity": 1
                },
                {
                    "duration": 0.06746025000000344,
                    "durationTicks": 68,
                    "midi": 40,
                    "name": "E2",
                    "ticks": 17604,
                    "time": 17.46426825,
                    "velocity": 1
                },
                {
                    "duration": 0.06746025000000344,
                    "durationTicks": 68,
                    "midi": 44,
                    "name": "G#2",
                    "ticks": 17724,
                    "time": 17.583315749999997,
                    "velocity": 0.8582677165354331
                },
                {
                    "duration": 0.06746025000000344,
                    "durationTicks": 68,
                    "midi": 40,
                    "name": "E2",
                    "ticks": 17844,
                    "time": 17.702363249999998,
                    "velocity": 0.8582677165354331
                },
                {
                    "duration": 0.06746025000000344,
                    "durationTicks": 68,
                    "midi": 37,
                    "name": "C#2",
                    "ticks": 17964,
                    "time": 17.82141075,
                    "velocity": 1
                },
                {
                    "duration": 0.06746025000000344,
                    "durationTicks": 68,
                    "midi": 40,
                    "name": "E2",
                    "ticks": 18084,
                    "time": 17.94045825,
                    "velocity": 0.905511811023622
                },
                {
                    "duration": 0.06746025000000344,
                    "durationTicks": 68,
                    "midi": 44,
                    "name": "G#2",
                    "ticks": 18204,
                    "time": 18.05950575,
                    "velocity": 1
                },
                {
                    "duration": 0.06746024999999989,
                    "durationTicks": 68,
                    "midi": 40,
                    "name": "E2",
                    "ticks": 18324,
                    "time": 18.17855325,
                    "velocity": 0.9763779527559056
                },
                {
                    "duration": 0.06746025000000344,
                    "durationTicks": 68,
                    "midi": 37,
                    "name": "C#2",
                    "ticks": 18444,
                    "time": 18.297600749999997,
                    "velocity": 1
                },
                {
                    "duration": 0.06746025000000344,
                    "durationTicks": 68,
                    "midi": 40,
                    "name": "E2",
                    "ticks": 18564,
                    "time": 18.416648249999998,
                    "velocity": 0.9763779527559056
                },
                {
                    "duration": 0.06746025000000344,
                    "durationTicks": 68,
                    "midi": 44,
                    "name": "G#2",
                    "ticks": 18684,
                    "time": 18.53569575,
                    "velocity": 0.905511811023622
                },
                {
                    "duration": 0.06746025000000344,
                    "durationTicks": 68,
                    "midi": 40,
                    "name": "E2",
                    "ticks": 18804,
                    "time": 18.65474325,
                    "velocity": 1
                },
                {
                    "duration": 0.06746025000000344,
                    "durationTicks": 68,
                    "midi": 37,
                    "name": "C#2",
                    "ticks": 18924,
                    "time": 18.77379075,
                    "velocity": 0.905511811023622
                },
                {
                    "duration": 0.06746024999999989,
                    "durationTicks": 68,
                    "midi": 40,
                    "name": "E2",
                    "ticks": 19044,
                    "time": 18.89283825,
                    "velocity": 1
                },
                {
                    "duration": 0.06746025000000344,
                    "durationTicks": 68,
                    "midi": 37,
                    "name": "C#2",
                    "ticks": 19164,
                    "time": 19.011885749999998,
                    "velocity": 1
                },
                {
                    "duration": 0.2321426249999945,
                    "durationTicks": 234,
                    "midi": 49,
                    "name": "C#3",
                    "ticks": 38244,
                    "time": 37.94043825,
                    "velocity": 0.8661417322834646
                },
                {
                    "duration": 1.8988076249999963,
                    "durationTicks": 1914,
                    "midi": 42,
                    "name": "F#2",
                    "ticks": 38484,
                    "time": 38.17853325,
                    "velocity": 0.8661417322834646
                },
                {
                    "duration": 1.8988076250000034,
                    "durationTicks": 1914,
                    "midi": 40,
                    "name": "E2",
                    "ticks": 40404,
                    "time": 40.08329325,
                    "velocity": 0.8661417322834646
                },
                {
                    "duration": 1.8988076249999963,
                    "durationTicks": 1914,
                    "midi": 47,
                    "name": "B2",
                    "ticks": 42324,
                    "time": 41.98805325,
                    "velocity": 0.8661417322834646
                },
                {
                    "duration": 0.23611087500000139,
                    "durationTicks": 238,
                    "midi": 59,
                    "name": "B3",
                    "ticks": 46320,
                    "time": 45.952335,
                    "velocity": 0.007874015748031496
                },
                {
                    "duration": 1.4265858750000007,
                    "durationTicks": 1438,
                    "midi": 66,
                    "name": "F#4",
                    "ticks": 46560,
                    "time": 46.19043,
                    "velocity": 0.007874015748031496
                },
                {
                    "duration": 1.4265858750000007,
                    "durationTicks": 1438,
                    "midi": 70,
                    "name": "A#4",
                    "ticks": 46560,
                    "time": 46.19043,
                    "velocity": 0.007874015748031496
                },
                {
                    "duration": 0.7123008750000039,
                    "durationTicks": 718,
                    "midi": 68,
                    "name": "G#4",
                    "ticks": 48000,
                    "time": 47.619,
                    "velocity": 0.007874015748031496
                },
                {
                    "duration": 0.7123008750000039,
                    "durationTicks": 718,
                    "midi": 71,
                    "name": "B4",
                    "ticks": 48000,
                    "time": 47.619,
                    "velocity": 0.007874015748031496
                },
                {
                    "duration": 0.19444424999999654,
                    "durationTicks": 196,
                    "midi": 64,
                    "name": "E4",
                    "ticks": 48720,
                    "time": 48.333285000000004,
                    "velocity": 0.007874015748031496
                },
                {
                    "duration": 0.19444424999999654,
                    "durationTicks": 196,
                    "midi": 68,
                    "name": "G#4",
                    "ticks": 48720,
                    "time": 48.333285000000004,
                    "velocity": 0.007874015748031496
                },
                {
                    "duration": 0.7123008749999968,
                    "durationTicks": 718,
                    "midi": 75,
                    "name": "D#5",
                    "ticks": 49920,
                    "time": 49.52376,
                    "velocity": 0.007874015748031496
                },
                {
                    "duration": 0.7123008749999968,
                    "durationTicks": 718,
                    "midi": 78,
                    "name": "F#5",
                    "ticks": 49920,
                    "time": 49.52376,
                    "velocity": 0.007874015748031496
                },
                {
                    "duration": 0.19444424999999654,
                    "durationTicks": 196,
                    "midi": 71,
                    "name": "B4",
                    "ticks": 50640,
                    "time": 50.238045,
                    "velocity": 0.007874015748031496
                },
                {
                    "duration": 0.19444424999999654,
                    "durationTicks": 196,
                    "midi": 75,
                    "name": "D#5",
                    "ticks": 50640,
                    "time": 50.238045,
                    "velocity": 0.007874015748031496
                },
                {
                    "duration": 0.7123008750000039,
                    "durationTicks": 718,
                    "midi": 70,
                    "name": "A#4",
                    "ticks": 51840,
                    "time": 51.42852,
                    "velocity": 0.007874015748031496
                },
                {
                    "duration": 0.7123008750000039,
                    "durationTicks": 718,
                    "midi": 73,
                    "name": "C#5",
                    "ticks": 51840,
                    "time": 51.42852,
                    "velocity": 0.007874015748031496
                },
                {
                    "duration": 0.19444424999999654,
                    "durationTicks": 196,
                    "midi": 66,
                    "name": "F#4",
                    "ticks": 52560,
                    "time": 52.142805,
                    "velocity": 0.007874015748031496
                },
                {
                    "duration": 0.19444424999999654,
                    "durationTicks": 196,
                    "midi": 70,
                    "name": "A#4",
                    "ticks": 52560,
                    "time": 52.142805,
                    "velocity": 0.007874015748031496
                },
                {
                    "duration": 0.23611087500000139,
                    "durationTicks": 238,
                    "midi": 59,
                    "name": "B3",
                    "ticks": 54000,
                    "time": 53.571375,
                    "velocity": 0.007874015748031496
                },
                {
                    "duration": 1.4265858750000078,
                    "durationTicks": 1438,
                    "midi": 66,
                    "name": "F#4",
                    "ticks": 54240,
                    "time": 53.80947,
                    "velocity": 0.007874015748031496
                },
                {
                    "duration": 1.4265858750000078,
                    "durationTicks": 1438,
                    "midi": 70,
                    "name": "A#4",
                    "ticks": 54240,
                    "time": 53.80947,
                    "velocity": 0.007874015748031496
                },
                {
                    "duration": 0.7123008750000039,
                    "durationTicks": 718,
                    "midi": 68,
                    "name": "G#4",
                    "ticks": 55680,
                    "time": 55.23804,
                    "velocity": 0.007874015748031496
                },
                {
                    "duration": 0.7123008750000039,
                    "durationTicks": 718,
                    "midi": 71,
                    "name": "B4",
                    "ticks": 55680,
                    "time": 55.23804,
                    "velocity": 0.007874015748031496
                },
                {
                    "duration": 0.19444424999999654,
                    "durationTicks": 196,
                    "midi": 64,
                    "name": "E4",
                    "ticks": 56400,
                    "time": 55.952325,
                    "velocity": 0.007874015748031496
                },
                {
                    "duration": 0.19444424999999654,
                    "durationTicks": 196,
                    "midi": 68,
                    "name": "G#4",
                    "ticks": 56400,
                    "time": 55.952325,
                    "velocity": 0.007874015748031496
                },
                {
                    "duration": 0.7123008750000039,
                    "durationTicks": 718,
                    "midi": 75,
                    "name": "D#5",
                    "ticks": 57600,
                    "time": 57.1428,
                    "velocity": 0.007874015748031496
                },
                {
                    "duration": 0.7123008750000039,
                    "durationTicks": 718,
                    "midi": 78,
                    "name": "F#5",
                    "ticks": 57600,
                    "time": 57.1428,
                    "velocity": 0.007874015748031496
                },
                {
                    "duration": 0.19444425000000365,
                    "durationTicks": 196,
                    "midi": 71,
                    "name": "B4",
                    "ticks": 58320,
                    "time": 57.857085,
                    "velocity": 0.007874015748031496
                },
                {
                    "duration": 0.19444425000000365,
                    "durationTicks": 196,
                    "midi": 75,
                    "name": "D#5",
                    "ticks": 58320,
                    "time": 57.857085,
                    "velocity": 0.007874015748031496
                },
                {
                    "duration": 0.06746024999999634,
                    "durationTicks": 68,
                    "midi": 37,
                    "name": "C#2",
                    "ticks": 92160,
                    "time": 91.42848000000001,
                    "velocity": 1
                },
                {
                    "duration": 0.06746025000001055,
                    "durationTicks": 68,
                    "midi": 37,
                    "name": "C#2",
                    "ticks": 92280,
                    "time": 91.5475275,
                    "velocity": 1
                },
                {
                    "duration": 0.06746025000001055,
                    "durationTicks": 68,
                    "midi": 40,
                    "name": "E2",
                    "ticks": 92400,
                    "time": 91.666575,
                    "velocity": 1
                },
                {
                    "duration": 0.06746025000001055,
                    "durationTicks": 68,
                    "midi": 44,
                    "name": "G#2",
                    "ticks": 92520,
                    "time": 91.7856225,
                    "velocity": 0.8582677165354331
                },
                {
                    "duration": 0.06746025000001055,
                    "durationTicks": 68,
                    "midi": 40,
                    "name": "E2",
                    "ticks": 92640,
                    "time": 91.90467,
                    "velocity": 0.8582677165354331
                },
                {
                    "duration": 0.06746024999999634,
                    "durationTicks": 68,
                    "midi": 37,
                    "name": "C#2",
                    "ticks": 92760,
                    "time": 92.0237175,
                    "velocity": 1
                },
                {
                    "duration": 0.06746025000001055,
                    "durationTicks": 68,
                    "midi": 40,
                    "name": "E2",
                    "ticks": 92880,
                    "time": 92.142765,
                    "velocity": 0.905511811023622
                },
                {
                    "duration": 0.06746024999999634,
                    "durationTicks": 68,
                    "midi": 44,
                    "name": "G#2",
                    "ticks": 93000,
                    "time": 92.2618125,
                    "velocity": 1
                },
                {
                    "duration": 0.06746025000001055,
                    "durationTicks": 68,
                    "midi": 40,
                    "name": "E2",
                    "ticks": 93120,
                    "time": 92.38086,
                    "velocity": 0.9763779527559056
                },
                {
                    "duration": 0.06746024999999634,
                    "durationTicks": 68,
                    "midi": 37,
                    "name": "C#2",
                    "ticks": 93240,
                    "time": 92.4999075,
                    "velocity": 1
                },
                {
                    "duration": 0.06746025000001055,
                    "durationTicks": 68,
                    "midi": 40,
                    "name": "E2",
                    "ticks": 93360,
                    "time": 92.618955,
                    "velocity": 0.9763779527559056
                },
                {
                    "duration": 0.06746024999999634,
                    "durationTicks": 68,
                    "midi": 44,
                    "name": "G#2",
                    "ticks": 93480,
                    "time": 92.73800250000001,
                    "velocity": 0.905511811023622
                },
                {
                    "duration": 0.06746025000001055,
                    "durationTicks": 68,
                    "midi": 40,
                    "name": "E2",
                    "ticks": 93600,
                    "time": 92.85705,
                    "velocity": 1
                },
                {
                    "duration": 0.06746025000001055,
                    "durationTicks": 68,
                    "midi": 37,
                    "name": "C#2",
                    "ticks": 93720,
                    "time": 92.9760975,
                    "velocity": 0.905511811023622
                },
                {
                    "duration": 0.06746025000001055,
                    "durationTicks": 68,
                    "midi": 40,
                    "name": "E2",
                    "ticks": 93840,
                    "time": 93.095145,
                    "velocity": 1
                },
                {
                    "duration": 0.06746025000001055,
                    "durationTicks": 68,
                    "midi": 37,
                    "name": "C#2",
                    "ticks": 93960,
                    "time": 93.2141925,
                    "velocity": 1
                },
                {
                    "duration": 0.06746024999999634,
                    "durationTicks": 68,
                    "midi": 37,
                    "name": "C#2",
                    "ticks": 94080,
                    "time": 93.33324,
                    "velocity": 1
                },
                {
                    "duration": 0.06746025000001055,
                    "durationTicks": 68,
                    "midi": 37,
                    "name": "C#2",
                    "ticks": 94200,
                    "time": 93.4522875,
                    "velocity": 1
                },
                {
                    "duration": 0.06746024999999634,
                    "durationTicks": 68,
                    "midi": 40,
                    "name": "E2",
                    "ticks": 94320,
                    "time": 93.571335,
                    "velocity": 1
                },
                {
                    "duration": 0.06746025000001055,
                    "durationTicks": 68,
                    "midi": 44,
                    "name": "G#2",
                    "ticks": 94440,
                    "time": 93.6903825,
                    "velocity": 0.8582677165354331
                },
                {
                    "duration": 0.06746024999999634,
                    "durationTicks": 68,
                    "midi": 40,
                    "name": "E2",
                    "ticks": 94560,
                    "time": 93.80943,
                    "velocity": 0.8582677165354331
                },
                {
                    "duration": 0.06746025000001055,
                    "durationTicks": 68,
                    "midi": 37,
                    "name": "C#2",
                    "ticks": 94680,
                    "time": 93.9284775,
                    "velocity": 1
                },
                {
                    "duration": 0.06746024999999634,
                    "durationTicks": 68,
                    "midi": 40,
                    "name": "E2",
                    "ticks": 94800,
                    "time": 94.04752500000001,
                    "velocity": 0.905511811023622
                },
                {
                    "duration": 0.06746025000001055,
                    "durationTicks": 68,
                    "midi": 44,
                    "name": "G#2",
                    "ticks": 94920,
                    "time": 94.1665725,
                    "velocity": 1
                },
                {
                    "duration": 0.06746025000001055,
                    "durationTicks": 68,
                    "midi": 40,
                    "name": "E2",
                    "ticks": 95040,
                    "time": 94.28562,
                    "velocity": 0.9763779527559056
                },
                {
                    "duration": 0.06746025000001055,
                    "durationTicks": 68,
                    "midi": 37,
                    "name": "C#2",
                    "ticks": 95160,
                    "time": 94.4046675,
                    "velocity": 1
                },
                {
                    "duration": 0.06746025000001055,
                    "durationTicks": 68,
                    "midi": 40,
                    "name": "E2",
                    "ticks": 95280,
                    "time": 94.523715,
                    "velocity": 0.9763779527559056
                },
                {
                    "duration": 0.06746024999999634,
                    "durationTicks": 68,
                    "midi": 44,
                    "name": "G#2",
                    "ticks": 95400,
                    "time": 94.6427625,
                    "velocity": 0.905511811023622
                },
                {
                    "duration": 0.06746025000001055,
                    "durationTicks": 68,
                    "midi": 40,
                    "name": "E2",
                    "ticks": 95520,
                    "time": 94.76181,
                    "velocity": 1
                },
                {
                    "duration": 0.06746024999999634,
                    "durationTicks": 68,
                    "midi": 37,
                    "name": "C#2",
                    "ticks": 95640,
                    "time": 94.8808575,
                    "velocity": 0.905511811023622
                },
                {
                    "duration": 0.06746025000001055,
                    "durationTicks": 68,
                    "midi": 40,
                    "name": "E2",
                    "ticks": 95760,
                    "time": 94.999905,
                    "velocity": 1
                },
                {
                    "duration": 0.06746024999999634,
                    "durationTicks": 68,
                    "midi": 37,
                    "name": "C#2",
                    "ticks": 95880,
                    "time": 95.1189525,
                    "velocity": 1
                },
                {
                    "duration": 0.06746025000001055,
                    "durationTicks": 68,
                    "midi": 37,
                    "name": "C#2",
                    "ticks": 96000,
                    "time": 95.238,
                    "velocity": 1
                },
                {
                    "duration": 0.06746024999999634,
                    "durationTicks": 68,
                    "midi": 37,
                    "name": "C#2",
                    "ticks": 96120,
                    "time": 95.35704750000001,
                    "velocity": 1
                },
                {
                    "duration": 0.06746025000001055,
                    "durationTicks": 68,
                    "midi": 40,
                    "name": "E2",
                    "ticks": 96240,
                    "time": 95.476095,
                    "velocity": 1
                },
                {
                    "duration": 0.06746025000001055,
                    "durationTicks": 68,
                    "midi": 44,
                    "name": "G#2",
                    "ticks": 96360,
                    "time": 95.5951425,
                    "velocity": 0.8582677165354331
                },
                {
                    "duration": 0.06746025000001055,
                    "durationTicks": 68,
                    "midi": 40,
                    "name": "E2",
                    "ticks": 96480,
                    "time": 95.71419,
                    "velocity": 0.8582677165354331
                },
                {
                    "duration": 0.06746025000001055,
                    "durationTicks": 68,
                    "midi": 37,
                    "name": "C#2",
                    "ticks": 96600,
                    "time": 95.8332375,
                    "velocity": 1
                },
                {
                    "duration": 0.06746024999999634,
                    "durationTicks": 68,
                    "midi": 40,
                    "name": "E2",
                    "ticks": 96720,
                    "time": 95.952285,
                    "velocity": 0.905511811023622
                },
                {
                    "duration": 0.06746025000001055,
                    "durationTicks": 68,
                    "midi": 44,
                    "name": "G#2",
                    "ticks": 96840,
                    "time": 96.0713325,
                    "velocity": 1
                },
                {
                    "duration": 0.06746024999999634,
                    "durationTicks": 68,
                    "midi": 40,
                    "name": "E2",
                    "ticks": 96960,
                    "time": 96.19038,
                    "velocity": 0.9763779527559056
                },
                {
                    "duration": 0.06746025000001055,
                    "durationTicks": 68,
                    "midi": 37,
                    "name": "C#2",
                    "ticks": 97080,
                    "time": 96.3094275,
                    "velocity": 1
                },
                {
                    "duration": 0.06746024999999634,
                    "durationTicks": 68,
                    "midi": 40,
                    "name": "E2",
                    "ticks": 97200,
                    "time": 96.428475,
                    "velocity": 0.9763779527559056
                },
                {
                    "duration": 0.06746025000001055,
                    "durationTicks": 68,
                    "midi": 44,
                    "name": "G#2",
                    "ticks": 97320,
                    "time": 96.5475225,
                    "velocity": 0.905511811023622
                },
                {
                    "duration": 0.06746024999999634,
                    "durationTicks": 68,
                    "midi": 40,
                    "name": "E2",
                    "ticks": 97440,
                    "time": 96.66657000000001,
                    "velocity": 1
                },
                {
                    "duration": 0.06746025000001055,
                    "durationTicks": 68,
                    "midi": 37,
                    "name": "C#2",
                    "ticks": 97560,
                    "time": 96.7856175,
                    "velocity": 0.905511811023622
                },
                {
                    "duration": 0.06746025000001055,
                    "durationTicks": 68,
                    "midi": 40,
                    "name": "E2",
                    "ticks": 97680,
                    "time": 96.904665,
                    "velocity": 1
                },
                {
                    "duration": 0.06746025000001055,
                    "durationTicks": 68,
                    "midi": 37,
                    "name": "C#2",
                    "ticks": 97800,
                    "time": 97.0237125,
                    "velocity": 1
                },
                {
                    "duration": 1.8988076249999892,
                    "durationTicks": 1914,
                    "midi": 42,
                    "name": "F#2",
                    "ticks": 107484,
                    "time": 106.63084575,
                    "velocity": 0.8661417322834646
                },
                {
                    "duration": 1.8988076249999892,
                    "durationTicks": 1914,
                    "midi": 40,
                    "name": "E2",
                    "ticks": 109404,
                    "time": 108.53560575,
                    "velocity": 0.8661417322834646
                },
                {
                    "duration": 1.933529812499998,
                    "durationTicks": 1949,
                    "midi": 47,
                    "name": "B2",
                    "ticks": 111324,
                    "time": 110.44036575000001,
                    "velocity": 0.8661417322834646
                },
                {
                    "duration": 0.23611087499999428,
                    "durationTicks": 238,
                    "midi": 59,
                    "name": "B3",
                    "ticks": 115440,
                    "time": 114.523695,
                    "velocity": 0.007874015748031496
                },
                {
                    "duration": 1.4265858750000007,
                    "durationTicks": 1438,
                    "midi": 66,
                    "name": "F#4",
                    "ticks": 115680,
                    "time": 114.76179,
                    "velocity": 0.007874015748031496
                },
                {
                    "duration": 1.4265858750000007,
                    "durationTicks": 1438,
                    "midi": 70,
                    "name": "A#4",
                    "ticks": 115680,
                    "time": 114.76179,
                    "velocity": 0.007874015748031496
                },
                {
                    "duration": 0.712300875000011,
                    "durationTicks": 718,
                    "midi": 68,
                    "name": "G#4",
                    "ticks": 117120,
                    "time": 116.19036,
                    "velocity": 0.007874015748031496
                },
                {
                    "duration": 0.712300875000011,
                    "durationTicks": 718,
                    "midi": 71,
                    "name": "B4",
                    "ticks": 117120,
                    "time": 116.19036,
                    "velocity": 0.007874015748031496
                },
                {
                    "duration": 0.19444425000000365,
                    "durationTicks": 196,
                    "midi": 64,
                    "name": "E4",
                    "ticks": 117840,
                    "time": 116.904645,
                    "velocity": 0.007874015748031496
                },
                {
                    "duration": 0.19444425000000365,
                    "durationTicks": 196,
                    "midi": 68,
                    "name": "G#4",
                    "ticks": 117840,
                    "time": 116.904645,
                    "velocity": 0.007874015748031496
                },
                {
                    "duration": 0.712300875000011,
                    "durationTicks": 718,
                    "midi": 75,
                    "name": "D#5",
                    "ticks": 119040,
                    "time": 118.09512,
                    "velocity": 0.007874015748031496
                },
                {
                    "duration": 0.712300875000011,
                    "durationTicks": 718,
                    "midi": 78,
                    "name": "F#5",
                    "ticks": 119040,
                    "time": 118.09512,
                    "velocity": 0.007874015748031496
                },
                {
                    "duration": 0.19444425000000365,
                    "durationTicks": 196,
                    "midi": 71,
                    "name": "B4",
                    "ticks": 119760,
                    "time": 118.809405,
                    "velocity": 0.007874015748031496
                },
                {
                    "duration": 0.19444425000000365,
                    "durationTicks": 196,
                    "midi": 75,
                    "name": "D#5",
                    "ticks": 119760,
                    "time": 118.809405,
                    "velocity": 0.007874015748031496
                },
                {
                    "duration": 0.7123008749999968,
                    "durationTicks": 718,
                    "midi": 70,
                    "name": "A#4",
                    "ticks": 120960,
                    "time": 119.99988,
                    "velocity": 0.007874015748031496
                },
                {
                    "duration": 0.7123008749999968,
                    "durationTicks": 718,
                    "midi": 73,
                    "name": "C#5",
                    "ticks": 120960,
                    "time": 119.99988,
                    "velocity": 0.007874015748031496
                },
                {
                    "duration": 0.19444425000000365,
                    "durationTicks": 196,
                    "midi": 66,
                    "name": "F#4",
                    "ticks": 121680,
                    "time": 120.714165,
                    "velocity": 0.007874015748031496
                },
                {
                    "duration": 0.19444425000000365,
                    "durationTicks": 196,
                    "midi": 70,
                    "name": "A#4",
                    "ticks": 121680,
                    "time": 120.714165,
                    "velocity": 0.007874015748031496
                },
                {
                    "duration": 0.23611087499999428,
                    "durationTicks": 238,
                    "midi": 59,
                    "name": "B3",
                    "ticks": 123120,
                    "time": 122.142735,
                    "velocity": 0.007874015748031496
                },
                {
                    "duration": 1.4265858750000007,
                    "durationTicks": 1438,
                    "midi": 66,
                    "name": "F#4",
                    "ticks": 123360,
                    "time": 122.38083,
                    "velocity": 0.007874015748031496
                },
                {
                    "duration": 1.4265858750000007,
                    "durationTicks": 1438,
                    "midi": 70,
                    "name": "A#4",
                    "ticks": 123360,
                    "time": 122.38083,
                    "velocity": 0.007874015748031496
                },
                {
                    "duration": 0.712300875000011,
                    "durationTicks": 718,
                    "midi": 68,
                    "name": "G#4",
                    "ticks": 124800,
                    "time": 123.8094,
                    "velocity": 0.007874015748031496
                },
                {
                    "duration": 0.712300875000011,
                    "durationTicks": 718,
                    "midi": 71,
                    "name": "B4",
                    "ticks": 124800,
                    "time": 123.8094,
                    "velocity": 0.007874015748031496
                },
                {
                    "duration": 0.19444425000001786,
                    "durationTicks": 196,
                    "midi": 64,
                    "name": "E4",
                    "ticks": 125520,
                    "time": 124.523685,
                    "velocity": 0.007874015748031496
                },
                {
                    "duration": 0.19444425000001786,
                    "durationTicks": 196,
                    "midi": 68,
                    "name": "G#4",
                    "ticks": 125520,
                    "time": 124.523685,
                    "velocity": 0.007874015748031496
                },
                {
                    "duration": 0.7123008749999968,
                    "durationTicks": 718,
                    "midi": 75,
                    "name": "D#5",
                    "ticks": 126720,
                    "time": 125.71416,
                    "velocity": 0.007874015748031496
                },
                {
                    "duration": 0.7123008749999968,
                    "durationTicks": 718,
                    "midi": 78,
                    "name": "F#5",
                    "ticks": 126720,
                    "time": 125.71416,
                    "velocity": 0.007874015748031496
                },
                {
                    "duration": 0.19444425000001786,
                    "durationTicks": 196,
                    "midi": 71,
                    "name": "B4",
                    "ticks": 127440,
                    "time": 126.428445,
                    "velocity": 0.007874015748031496
                },
                {
                    "duration": 0.19444425000001786,
                    "durationTicks": 196,
                    "midi": 75,
                    "name": "D#5",
                    "ticks": 127440,
                    "time": 126.428445,
                    "velocity": 0.007874015748031496
                },
                {
                    "duration": 0.06746024999998212,
                    "durationTicks": 68,
                    "midi": 37,
                    "name": "C#2",
                    "ticks": 161364,
                    "time": 160.08317325000002,
                    "velocity": 1
                },
                {
                    "duration": 0.06746024999998212,
                    "durationTicks": 68,
                    "midi": 37,
                    "name": "C#2",
                    "ticks": 161484,
                    "time": 160.20222075,
                    "velocity": 1
                },
                {
                    "duration": 0.06746024999998212,
                    "durationTicks": 68,
                    "midi": 40,
                    "name": "E2",
                    "ticks": 161604,
                    "time": 160.32126825,
                    "velocity": 1
                },
                {
                    "duration": 0.06746025000001055,
                    "durationTicks": 68,
                    "midi": 44,
                    "name": "G#2",
                    "ticks": 161724,
                    "time": 160.44031575,
                    "velocity": 0.8582677165354331
                },
                {
                    "duration": 0.06746024999998212,
                    "durationTicks": 68,
                    "midi": 40,
                    "name": "E2",
                    "ticks": 161844,
                    "time": 160.55936325000002,
                    "velocity": 0.8582677165354331
                },
                {
                    "duration": 0.06746024999998212,
                    "durationTicks": 68,
                    "midi": 37,
                    "name": "C#2",
                    "ticks": 161964,
                    "time": 160.67841075,
                    "velocity": 1
                },
                {
                    "duration": 0.06746024999998212,
                    "durationTicks": 68,
                    "midi": 40,
                    "name": "E2",
                    "ticks": 162084,
                    "time": 160.79745825,
                    "velocity": 0.905511811023622
                },
                {
                    "duration": 0.06746025000001055,
                    "durationTicks": 68,
                    "midi": 44,
                    "name": "G#2",
                    "ticks": 162204,
                    "time": 160.91650575,
                    "velocity": 1
                },
                {
                    "duration": 0.06746025000001055,
                    "durationTicks": 68,
                    "midi": 40,
                    "name": "E2",
                    "ticks": 162324,
                    "time": 161.03555325,
                    "velocity": 0.9763779527559056
                },
                {
                    "duration": 0.06746024999998212,
                    "durationTicks": 68,
                    "midi": 37,
                    "name": "C#2",
                    "ticks": 162444,
                    "time": 161.15460075000001,
                    "velocity": 1
                },
                {
                    "duration": 0.06746024999998212,
                    "durationTicks": 68,
                    "midi": 40,
                    "name": "E2",
                    "ticks": 162564,
                    "time": 161.27364825,
                    "velocity": 0.9763779527559056
                },
                {
                    "duration": 0.06746025000001055,
                    "durationTicks": 68,
                    "midi": 44,
                    "name": "G#2",
                    "ticks": 162684,
                    "time": 161.39269575,
                    "velocity": 0.905511811023622
                },
                {
                    "duration": 0.06746025000001055,
                    "durationTicks": 68,
                    "midi": 40,
                    "name": "E2",
                    "ticks": 162804,
                    "time": 161.51174325,
                    "velocity": 1
                },
                {
                    "duration": 0.06746024999998212,
                    "durationTicks": 68,
                    "midi": 37,
                    "name": "C#2",
                    "ticks": 162924,
                    "time": 161.63079075000002,
                    "velocity": 0.905511811023622
                },
                {
                    "duration": 0.06746024999998212,
                    "durationTicks": 68,
                    "midi": 40,
                    "name": "E2",
                    "ticks": 163044,
                    "time": 161.74983825,
                    "velocity": 1
                },
                {
                    "duration": 0.06746024999998212,
                    "durationTicks": 68,
                    "midi": 37,
                    "name": "C#2",
                    "ticks": 163164,
                    "time": 161.86888575,
                    "velocity": 1
                },
                {
                    "duration": 0.06746025000001055,
                    "durationTicks": 68,
                    "midi": 37,
                    "name": "C#2",
                    "ticks": 163284,
                    "time": 161.98793325,
                    "velocity": 1
                },
                {
                    "duration": 0.06746024999998212,
                    "durationTicks": 68,
                    "midi": 37,
                    "name": "C#2",
                    "ticks": 163404,
                    "time": 162.10698075000002,
                    "velocity": 1
                },
                {
                    "duration": 0.06746024999998212,
                    "durationTicks": 68,
                    "midi": 40,
                    "name": "E2",
                    "ticks": 163524,
                    "time": 162.22602825,
                    "velocity": 1
                },
                {
                    "duration": 0.06746024999998212,
                    "durationTicks": 68,
                    "midi": 44,
                    "name": "G#2",
                    "ticks": 163644,
                    "time": 162.34507575,
                    "velocity": 0.8582677165354331
                },
                {
                    "duration": 0.06746025000001055,
                    "durationTicks": 68,
                    "midi": 40,
                    "name": "E2",
                    "ticks": 163764,
                    "time": 162.46412325,
                    "velocity": 0.8582677165354331
                },
                {
                    "duration": 0.06746025000001055,
                    "durationTicks": 68,
                    "midi": 37,
                    "name": "C#2",
                    "ticks": 163884,
                    "time": 162.58317075,
                    "velocity": 1
                },
                {
                    "duration": 0.06746024999998212,
                    "durationTicks": 68,
                    "midi": 40,
                    "name": "E2",
                    "ticks": 164004,
                    "time": 162.70221825000002,
                    "velocity": 0.905511811023622
                },
                {
                    "duration": 0.06746024999998212,
                    "durationTicks": 68,
                    "midi": 44,
                    "name": "G#2",
                    "ticks": 164124,
                    "time": 162.82126575,
                    "velocity": 1
                },
                {
                    "duration": 0.06746024999998212,
                    "durationTicks": 68,
                    "midi": 40,
                    "name": "E2",
                    "ticks": 164244,
                    "time": 162.94031325,
                    "velocity": 0.9763779527559056
                },
                {
                    "duration": 0.06746025000001055,
                    "durationTicks": 68,
                    "midi": 37,
                    "name": "C#2",
                    "ticks": 164364,
                    "time": 163.05936075,
                    "velocity": 1
                },
                {
                    "duration": 0.06746024999998212,
                    "durationTicks": 68,
                    "midi": 40,
                    "name": "E2",
                    "ticks": 164484,
                    "time": 163.17840825000002,
                    "velocity": 0.9763779527559056
                },
                {
                    "duration": 0.06746024999998212,
                    "durationTicks": 68,
                    "midi": 44,
                    "name": "G#2",
                    "ticks": 164604,
                    "time": 163.29745575,
                    "velocity": 0.905511811023622
                },
                {
                    "duration": 0.06746024999998212,
                    "durationTicks": 68,
                    "midi": 40,
                    "name": "E2",
                    "ticks": 164724,
                    "time": 163.41650325,
                    "velocity": 1
                },
                {
                    "duration": 0.06746025000001055,
                    "durationTicks": 68,
                    "midi": 37,
                    "name": "C#2",
                    "ticks": 164844,
                    "time": 163.53555075,
                    "velocity": 0.905511811023622
                },
                {
                    "duration": 0.06746025000001055,
                    "durationTicks": 68,
                    "midi": 40,
                    "name": "E2",
                    "ticks": 164964,
                    "time": 163.65459825,
                    "velocity": 1
                },
                {
                    "duration": 0.06746024999998212,
                    "durationTicks": 68,
                    "midi": 37,
                    "name": "C#2",
                    "ticks": 165204,
                    "time": 163.89269325,
                    "velocity": 1
                },
                {
                    "duration": 0.06746025000001055,
                    "durationTicks": 68,
                    "midi": 37,
                    "name": "C#2",
                    "ticks": 165324,
                    "time": 164.01174075,
                    "velocity": 1
                },
                {
                    "duration": 0.06746025000001055,
                    "durationTicks": 68,
                    "midi": 40,
                    "name": "E2",
                    "ticks": 165444,
                    "time": 164.13078825,
                    "velocity": 1
                },
                {
                    "duration": 0.06746024999998212,
                    "durationTicks": 68,
                    "midi": 44,
                    "name": "G#2",
                    "ticks": 165564,
                    "time": 164.24983575000002,
                    "velocity": 0.8582677165354331
                },
                {
                    "duration": 0.06746024999998212,
                    "durationTicks": 68,
                    "midi": 40,
                    "name": "E2",
                    "ticks": 165684,
                    "time": 164.36888325,
                    "velocity": 0.8582677165354331
                },
                {
                    "duration": 0.06746024999998212,
                    "durationTicks": 68,
                    "midi": 37,
                    "name": "C#2",
                    "ticks": 165804,
                    "time": 164.48793075,
                    "velocity": 1
                },
                {
                    "duration": 0.06746025000001055,
                    "durationTicks": 68,
                    "midi": 40,
                    "name": "E2",
                    "ticks": 165924,
                    "time": 164.60697825,
                    "velocity": 0.905511811023622
                },
                {
                    "duration": 0.06746024999998212,
                    "durationTicks": 68,
                    "midi": 44,
                    "name": "G#2",
                    "ticks": 166044,
                    "time": 164.72602575000002,
                    "velocity": 1
                },
                {
                    "duration": 0.06746024999998212,
                    "durationTicks": 68,
                    "midi": 40,
                    "name": "E2",
                    "ticks": 166164,
                    "time": 164.84507325,
                    "velocity": 0.9763779527559056
                },
                {
                    "duration": 0.06746024999998212,
                    "durationTicks": 68,
                    "midi": 37,
                    "name": "C#2",
                    "ticks": 166284,
                    "time": 164.96412075,
                    "velocity": 1
                },
                {
                    "duration": 0.06746025000001055,
                    "durationTicks": 68,
                    "midi": 40,
                    "name": "E2",
                    "ticks": 166404,
                    "time": 165.08316825,
                    "velocity": 0.9763779527559056
                },
                {
                    "duration": 0.06746025000001055,
                    "durationTicks": 68,
                    "midi": 44,
                    "name": "G#2",
                    "ticks": 166524,
                    "time": 165.20221575,
                    "velocity": 0.905511811023622
                },
                {
                    "duration": 0.06746024999998212,
                    "durationTicks": 68,
                    "midi": 40,
                    "name": "E2",
                    "ticks": 166644,
                    "time": 165.32126325000002,
                    "velocity": 1
                },
                {
                    "duration": 0.06746024999998212,
                    "durationTicks": 68,
                    "midi": 37,
                    "name": "C#2",
                    "ticks": 166764,
                    "time": 165.44031075,
                    "velocity": 0.905511811023622
                },
                {
                    "duration": 0.06746025000001055,
                    "durationTicks": 68,
                    "midi": 40,
                    "name": "E2",
                    "ticks": 166884,
                    "time": 165.55935825,
                    "velocity": 1
                },
                {
                    "duration": 0.06746025000001055,
                    "durationTicks": 68,
                    "midi": 37,
                    "name": "C#2",
                    "ticks": 167004,
                    "time": 165.67840575,
                    "velocity": 1
                },
                {
                    "duration": 0.06746024999998212,
                    "durationTicks": 68,
                    "midi": 37,
                    "name": "C#2",
                    "ticks": 167124,
                    "time": 165.79745325000002,
                    "velocity": 1
                },
                {
                    "duration": 0.06746024999998212,
                    "durationTicks": 68,
                    "midi": 37,
                    "name": "C#2",
                    "ticks": 167244,
                    "time": 165.91650075,
                    "velocity": 1
                },
                {
                    "duration": 0.06746024999998212,
                    "durationTicks": 68,
                    "midi": 40,
                    "name": "E2",
                    "ticks": 167364,
                    "time": 166.03554825,
                    "velocity": 1
                },
                {
                    "duration": 0.06746025000001055,
                    "durationTicks": 68,
                    "midi": 44,
                    "name": "G#2",
                    "ticks": 167484,
                    "time": 166.15459575,
                    "velocity": 0.8582677165354331
                },
                {
                    "duration": 0.06746025000001055,
                    "durationTicks": 68,
                    "midi": 40,
                    "name": "E2",
                    "ticks": 167604,
                    "time": 166.27364325,
                    "velocity": 0.8582677165354331
                },
                {
                    "duration": 0.06746024999998212,
                    "durationTicks": 68,
                    "midi": 37,
                    "name": "C#2",
                    "ticks": 167724,
                    "time": 166.39269075,
                    "velocity": 1
                },
                {
                    "duration": 0.06746024999998212,
                    "durationTicks": 68,
                    "midi": 40,
                    "name": "E2",
                    "ticks": 167844,
                    "time": 166.51173825,
                    "velocity": 0.905511811023622
                },
                {
                    "duration": 0.06746025000001055,
                    "durationTicks": 68,
                    "midi": 44,
                    "name": "G#2",
                    "ticks": 167964,
                    "time": 166.63078575,
                    "velocity": 1
                },
                {
                    "duration": 0.06746025000001055,
                    "durationTicks": 68,
                    "midi": 40,
                    "name": "E2",
                    "ticks": 168084,
                    "time": 166.74983325,
                    "velocity": 0.9763779527559056
                },
                {
                    "duration": 0.06746024999998212,
                    "durationTicks": 68,
                    "midi": 37,
                    "name": "C#2",
                    "ticks": 168204,
                    "time": 166.86888075000002,
                    "velocity": 1
                },
                {
                    "duration": 0.06746024999998212,
                    "durationTicks": 68,
                    "midi": 40,
                    "name": "E2",
                    "ticks": 168324,
                    "time": 166.98792825,
                    "velocity": 0.9763779527559056
                },
                {
                    "duration": 0.06746024999998212,
                    "durationTicks": 68,
                    "midi": 44,
                    "name": "G#2",
                    "ticks": 168444,
                    "time": 167.10697575,
                    "velocity": 0.905511811023622
                },
                {
                    "duration": 0.06746025000001055,
                    "durationTicks": 68,
                    "midi": 40,
                    "name": "E2",
                    "ticks": 168564,
                    "time": 167.22602325,
                    "velocity": 1
                },
                {
                    "duration": 0.06746024999998212,
                    "durationTicks": 68,
                    "midi": 37,
                    "name": "C#2",
                    "ticks": 168684,
                    "time": 167.34507075000002,
                    "velocity": 0.905511811023622
                },
                {
                    "duration": 0.06746024999998212,
                    "durationTicks": 68,
                    "midi": 40,
                    "name": "E2",
                    "ticks": 168804,
                    "time": 167.46411825,
                    "velocity": 1
                },
                {
                    "duration": 0.06746025000001055,
                    "durationTicks": 68,
                    "midi": 37,
                    "name": "C#2",
                    "ticks": 169044,
                    "time": 167.70221325,
                    "velocity": 1
                },
                {
                    "duration": 0.06746025000001055,
                    "durationTicks": 68,
                    "midi": 37,
                    "name": "C#2",
                    "ticks": 169164,
                    "time": 167.82126075,
                    "velocity": 1
                },
                {
                    "duration": 0.06746024999998212,
                    "durationTicks": 68,
                    "midi": 40,
                    "name": "E2",
                    "ticks": 169284,
                    "time": 167.94030825000002,
                    "velocity": 1
                },
                {
                    "duration": 0.06746024999998212,
                    "durationTicks": 68,
                    "midi": 44,
                    "name": "G#2",
                    "ticks": 169404,
                    "time": 168.05935575,
                    "velocity": 0.8582677165354331
                },
                {
                    "duration": 0.06746025000001055,
                    "durationTicks": 68,
                    "midi": 40,
                    "name": "E2",
                    "ticks": 169524,
                    "time": 168.17840325,
                    "velocity": 0.8582677165354331
                },
                {
                    "duration": 0.06746025000001055,
                    "durationTicks": 68,
                    "midi": 37,
                    "name": "C#2",
                    "ticks": 169644,
                    "time": 168.29745075,
                    "velocity": 1
                },
                {
                    "duration": 0.06746024999998212,
                    "durationTicks": 68,
                    "midi": 40,
                    "name": "E2",
                    "ticks": 169764,
                    "time": 168.41649825000002,
                    "velocity": 0.905511811023622
                },
                {
                    "duration": 0.06746024999998212,
                    "durationTicks": 68,
                    "midi": 44,
                    "name": "G#2",
                    "ticks": 169884,
                    "time": 168.53554575,
                    "velocity": 1
                },
                {
                    "duration": 0.06746024999998212,
                    "durationTicks": 68,
                    "midi": 40,
                    "name": "E2",
                    "ticks": 170004,
                    "time": 168.65459325,
                    "velocity": 0.9763779527559056
                },
                {
                    "duration": 0.06746025000001055,
                    "durationTicks": 68,
                    "midi": 37,
                    "name": "C#2",
                    "ticks": 170124,
                    "time": 168.77364075,
                    "velocity": 1
                },
                {
                    "duration": 0.06746024999998212,
                    "durationTicks": 68,
                    "midi": 40,
                    "name": "E2",
                    "ticks": 170244,
                    "time": 168.89268825000002,
                    "velocity": 0.9763779527559056
                },
                {
                    "duration": 0.06746024999998212,
                    "durationTicks": 68,
                    "midi": 44,
                    "name": "G#2",
                    "ticks": 170364,
                    "time": 169.01173575,
                    "velocity": 0.905511811023622
                },
                {
                    "duration": 0.06746024999998212,
                    "durationTicks": 68,
                    "midi": 40,
                    "name": "E2",
                    "ticks": 170484,
                    "time": 169.13078325,
                    "velocity": 1
                },
                {
                    "duration": 0.06746025000001055,
                    "durationTicks": 68,
                    "midi": 37,
                    "name": "C#2",
                    "ticks": 170604,
                    "time": 169.24983075,
                    "velocity": 0.905511811023622
                },
                {
                    "duration": 0.06746025000001055,
                    "durationTicks": 68,
                    "midi": 40,
                    "name": "E2",
                    "ticks": 170724,
                    "time": 169.36887825,
                    "velocity": 1
                },
                {
                    "duration": 0.06746024999998212,
                    "durationTicks": 68,
                    "midi": 37,
                    "name": "C#2",
                    "ticks": 170844,
                    "time": 169.48792575000002,
                    "velocity": 1
                },
                {
                    "duration": 0.06746024999998212,
                    "durationTicks": 68,
                    "midi": 37,
                    "name": "C#2",
                    "ticks": 170964,
                    "time": 169.60697325,
                    "velocity": 1
                },
                {
                    "duration": 0.06746024999998212,
                    "durationTicks": 68,
                    "midi": 37,
                    "name": "C#2",
                    "ticks": 171084,
                    "time": 169.72602075,
                    "velocity": 1
                },
                {
                    "duration": 0.06746025000001055,
                    "durationTicks": 68,
                    "midi": 40,
                    "name": "E2",
                    "ticks": 171204,
                    "time": 169.84506825,
                    "velocity": 1
                },
                {
                    "duration": 0.06746024999998212,
                    "durationTicks": 68,
                    "midi": 44,
                    "name": "G#2",
                    "ticks": 171324,
                    "time": 169.96411575000002,
                    "velocity": 0.8582677165354331
                },
                {
                    "duration": 0.06746024999998212,
                    "durationTicks": 68,
                    "midi": 40,
                    "name": "E2",
                    "ticks": 171444,
                    "time": 170.08316325,
                    "velocity": 0.8582677165354331
                },
                {
                    "duration": 0.06746024999998212,
                    "durationTicks": 68,
                    "midi": 37,
                    "name": "C#2",
                    "ticks": 171564,
                    "time": 170.20221075,
                    "velocity": 1
                },
                {
                    "duration": 0.06746025000001055,
                    "durationTicks": 68,
                    "midi": 40,
                    "name": "E2",
                    "ticks": 171684,
                    "time": 170.32125825,
                    "velocity": 0.905511811023622
                },
                {
                    "duration": 0.06746025000001055,
                    "durationTicks": 68,
                    "midi": 44,
                    "name": "G#2",
                    "ticks": 171804,
                    "time": 170.44030575,
                    "velocity": 1
                },
                {
                    "duration": 0.06746024999998212,
                    "durationTicks": 68,
                    "midi": 40,
                    "name": "E2",
                    "ticks": 171924,
                    "time": 170.55935325000002,
                    "velocity": 0.9763779527559056
                },
                {
                    "duration": 0.06746024999998212,
                    "durationTicks": 68,
                    "midi": 37,
                    "name": "C#2",
                    "ticks": 172044,
                    "time": 170.67840075,
                    "velocity": 1
                },
                {
                    "duration": 0.06746025000001055,
                    "durationTicks": 68,
                    "midi": 40,
                    "name": "E2",
                    "ticks": 172164,
                    "time": 170.79744825,
                    "velocity": 0.9763779527559056
                },
                {
                    "duration": 0.06746025000001055,
                    "durationTicks": 68,
                    "midi": 44,
                    "name": "G#2",
                    "ticks": 172284,
                    "time": 170.91649575,
                    "velocity": 0.905511811023622
                },
                {
                    "duration": 0.06746024999998212,
                    "durationTicks": 68,
                    "midi": 40,
                    "name": "E2",
                    "ticks": 172404,
                    "time": 171.03554325000002,
                    "velocity": 1
                },
                {
                    "duration": 0.06746024999998212,
                    "durationTicks": 68,
                    "midi": 37,
                    "name": "C#2",
                    "ticks": 172524,
                    "time": 171.15459075,
                    "velocity": 0.905511811023622
                },
                {
                    "duration": 0.06746024999998212,
                    "durationTicks": 68,
                    "midi": 40,
                    "name": "E2",
                    "ticks": 172644,
                    "time": 171.27363825,
                    "velocity": 1
                },
                {
                    "duration": 0.06746024999998212,
                    "durationTicks": 68,
                    "midi": 37,
                    "name": "C#2",
                    "ticks": 172884,
                    "time": 171.51173325000002,
                    "velocity": 1
                },
                {
                    "duration": 0.06746024999998212,
                    "durationTicks": 68,
                    "midi": 37,
                    "name": "C#2",
                    "ticks": 173004,
                    "time": 171.63078075,
                    "velocity": 1
                },
                {
                    "duration": 0.06746024999998212,
                    "durationTicks": 68,
                    "midi": 40,
                    "name": "E2",
                    "ticks": 173124,
                    "time": 171.74982825,
                    "velocity": 1
                },
                {
                    "duration": 0.06746025000001055,
                    "durationTicks": 68,
                    "midi": 44,
                    "name": "G#2",
                    "ticks": 173244,
                    "time": 171.86887575,
                    "velocity": 0.8582677165354331
                },
                {
                    "duration": 0.06746025000001055,
                    "durationTicks": 68,
                    "midi": 40,
                    "name": "E2",
                    "ticks": 173364,
                    "time": 171.98792325,
                    "velocity": 0.8582677165354331
                },
                {
                    "duration": 0.06746024999998212,
                    "durationTicks": 68,
                    "midi": 37,
                    "name": "C#2",
                    "ticks": 173484,
                    "time": 172.10697075000002,
                    "velocity": 1
                },
                {
                    "duration": 0.06746024999998212,
                    "durationTicks": 68,
                    "midi": 40,
                    "name": "E2",
                    "ticks": 173604,
                    "time": 172.22601825,
                    "velocity": 0.905511811023622
                },
                {
                    "duration": 0.06746024999998212,
                    "durationTicks": 68,
                    "midi": 44,
                    "name": "G#2",
                    "ticks": 173724,
                    "time": 172.34506575,
                    "velocity": 1
                },
                {
                    "duration": 0.06746025000001055,
                    "durationTicks": 68,
                    "midi": 40,
                    "name": "E2",
                    "ticks": 173844,
                    "time": 172.46411325,
                    "velocity": 0.9763779527559056
                },
                {
                    "duration": 0.06746024999998212,
                    "durationTicks": 68,
                    "midi": 37,
                    "name": "C#2",
                    "ticks": 173964,
                    "time": 172.58316075000002,
                    "velocity": 1
                },
                {
                    "duration": 0.06746024999998212,
                    "durationTicks": 68,
                    "midi": 40,
                    "name": "E2",
                    "ticks": 174084,
                    "time": 172.70220825,
                    "velocity": 0.9763779527559056
                },
                {
                    "duration": 0.06746024999998212,
                    "durationTicks": 68,
                    "midi": 44,
                    "name": "G#2",
                    "ticks": 174204,
                    "time": 172.82125575,
                    "velocity": 0.905511811023622
                },
                {
                    "duration": 0.06746025000001055,
                    "durationTicks": 68,
                    "midi": 40,
                    "name": "E2",
                    "ticks": 174324,
                    "time": 172.94030325,
                    "velocity": 1
                },
                {
                    "duration": 0.06746025000001055,
                    "durationTicks": 68,
                    "midi": 37,
                    "name": "C#2",
                    "ticks": 174444,
                    "time": 173.05935075,
                    "velocity": 0.905511811023622
                },
                {
                    "duration": 0.06746024999998212,
                    "durationTicks": 68,
                    "midi": 40,
                    "name": "E2",
                    "ticks": 174564,
                    "time": 173.17839825000001,
                    "velocity": 1
                },
                {
                    "duration": 0.06746024999998212,
                    "durationTicks": 68,
                    "midi": 37,
                    "name": "C#2",
                    "ticks": 174684,
                    "time": 173.29744575,
                    "velocity": 1
                },
                {
                    "duration": 0.06746025000001055,
                    "durationTicks": 68,
                    "midi": 37,
                    "name": "C#2",
                    "ticks": 174804,
                    "time": 173.41649325,
                    "velocity": 1
                },
                {
                    "duration": 0.06746025000001055,
                    "durationTicks": 68,
                    "midi": 37,
                    "name": "C#2",
                    "ticks": 174924,
                    "time": 173.53554075,
                    "velocity": 1
                },
                {
                    "duration": 0.06746024999998212,
                    "durationTicks": 68,
                    "midi": 40,
                    "name": "E2",
                    "ticks": 175044,
                    "time": 173.65458825000002,
                    "velocity": 1
                },
                {
                    "duration": 0.06746024999998212,
                    "durationTicks": 68,
                    "midi": 44,
                    "name": "G#2",
                    "ticks": 175164,
                    "time": 173.77363575,
                    "velocity": 0.8582677165354331
                },
                {
                    "duration": 0.06746024999998212,
                    "durationTicks": 68,
                    "midi": 40,
                    "name": "E2",
                    "ticks": 175284,
                    "time": 173.89268325,
                    "velocity": 0.8582677165354331
                },
                {
                    "duration": 0.06746025000001055,
                    "durationTicks": 68,
                    "midi": 37,
                    "name": "C#2",
                    "ticks": 175404,
                    "time": 174.01173075,
                    "velocity": 1
                },
                {
                    "duration": 0.06746024999998212,
                    "durationTicks": 68,
                    "midi": 40,
                    "name": "E2",
                    "ticks": 175524,
                    "time": 174.13077825000002,
                    "velocity": 0.905511811023622
                }
            ]
        },
        {
            "channel": 15,
            "controlChanges": {},
            "pitchBends": [],
            "instrument": {
                "family": "synth pad",
                "name": "pad 4 (choir)",
                "number": 91
            },
            "name": "",
            "notes": [
                {
                    "duration": 0.2321426250000016,
                    "durationTicks": 234,
                    "midi": 59,
                    "name": "B3",
                    "ticks": 36804,
                    "time": 36.51186825,
                    "velocity": 0.905511811023622
                },
                {
                    "duration": 0.2321426249999945,
                    "durationTicks": 234,
                    "midi": 58,
                    "name": "A#3",
                    "ticks": 37044,
                    "time": 36.74996325,
                    "velocity": 0.8031496062992126
                },
                {
                    "duration": 0.2321426249999945,
                    "durationTicks": 234,
                    "midi": 54,
                    "name": "F#3",
                    "ticks": 37284,
                    "time": 36.98805825,
                    "velocity": 0.6141732283464567
                },
                {
                    "duration": 0.2321426250000016,
                    "durationTicks": 234,
                    "midi": 52,
                    "name": "E3",
                    "ticks": 37524,
                    "time": 37.226153249999996,
                    "velocity": 0.8582677165354331
                },
                {
                    "duration": 0.2321426250000016,
                    "durationTicks": 234,
                    "midi": 49,
                    "name": "C#3",
                    "ticks": 37764,
                    "time": 37.46424825,
                    "velocity": 0.8661417322834646
                },
                {
                    "duration": 0.2321426250000016,
                    "durationTicks": 234,
                    "midi": 52,
                    "name": "E3",
                    "ticks": 38004,
                    "time": 37.70234325,
                    "velocity": 0.7322834645669292
                }
            ]
        },
        {
            "channel": 9,
            "controlChanges": {
                "0": [
                    {
                        "number": 0,
                        "ticks": 0,
                        "time": 0,
                        "value": 0
                    }
                ],
                "7": [
                    {
                        "number": 7,
                        "ticks": 865,
                        "time": 0.8581340625,
                        "value": 0.937007874015748
                    },
                    {
                        "number": 7,
                        "ticks": 2055,
                        "time": 2.0386884375,
                        "value": 1
                    }
                ],
                "11": [
                    {
                        "number": 11,
                        "ticks": 860,
                        "time": 0.8531737500000001,
                        "value": 1
                    }
                ],
                "91": [
                    {
                        "number": 91,
                        "ticks": 855,
                        "time": 0.8482134375,
                        "value": 0.3779527559055118
                    }
                ],
                "93": [
                    {
                        "number": 93,
                        "ticks": 850,
                        "time": 0.8432531249999999,
                        "value": 0.1889763779527559
                    }
                ],
                "120": [
                    {
                        "number": 120,
                        "ticks": 49920,
                        "time": 49.52376,
                        "value": 0
                    },
                    {
                        "number": 120,
                        "ticks": 53760,
                        "time": 53.33328,
                        "value": 0
                    },
                    {
                        "number": 120,
                        "ticks": 57600,
                        "time": 57.1428,
                        "value": 0
                    },
                    {
                        "number": 120,
                        "ticks": 119040,
                        "time": 118.09512,
                        "value": 0
                    },
                    {
                        "number": 120,
                        "ticks": 122880,
                        "time": 121.90464,
                        "value": 0
                    },
                    {
                        "number": 120,
                        "ticks": 126720,
                        "time": 125.71416,
                        "value": 0
                    }
                ],
                "121": [
                    {
                        "number": 121,
                        "ticks": 840,
                        "time": 0.8333325,
                        "value": 0
                    }
                ],
                "123": [
                    {
                        "number": 123,
                        "ticks": 49920,
                        "time": 49.52376,
                        "value": 0
                    },
                    {
                        "number": 123,
                        "ticks": 53760,
                        "time": 53.33328,
                        "value": 0
                    },
                    {
                        "number": 123,
                        "ticks": 57600,
                        "time": 57.1428,
                        "value": 0
                    },
                    {
                        "number": 123,
                        "ticks": 119040,
                        "time": 118.09512,
                        "value": 0
                    },
                    {
                        "number": 123,
                        "ticks": 122880,
                        "time": 121.90464,
                        "value": 0
                    },
                    {
                        "number": 123,
                        "ticks": 126720,
                        "time": 125.71416,
                        "value": 0
                    }
                ]
            },
            "pitchBends": [
                {
                    "ticks": 870,
                    "time": 0.863094375,
                    "value": 0
                }
            ],
            "instrument": {
                "family": "drums",
                "name": "standard kit",
                "number": 0
            },
            "name": "Acoustic Guitar (steel)",
            "notes": [
                {
                    "duration": 0.0853173749999998,
                    "durationTicks": 86,
                    "midi": 42,
                    "name": "F#2",
                    "ticks": 1920,
                    "time": 1.90476,
                    "velocity": 0.6850393700787402
                },
                {
                    "duration": 0.09226181249999987,
                    "durationTicks": 93,
                    "midi": 42,
                    "name": "F#2",
                    "ticks": 2400,
                    "time": 2.38095,
                    "velocity": 0.5905511811023622
                },
                {
                    "duration": 0.08531737499999936,
                    "durationTicks": 86,
                    "midi": 42,
                    "name": "F#2",
                    "ticks": 2880,
                    "time": 2.8571400000000002,
                    "velocity": 0.6850393700787402
                },
                {
                    "duration": 0.09226181249999987,
                    "durationTicks": 93,
                    "midi": 42,
                    "name": "F#2",
                    "ticks": 3360,
                    "time": 3.33333,
                    "velocity": 0.5905511811023622
                },
                {
                    "duration": 0.03273806249999822,
                    "durationTicks": 33,
                    "midi": 36,
                    "name": "C2",
                    "ticks": 23040,
                    "time": 22.857120000000002,
                    "velocity": 0.937007874015748
                },
                {
                    "duration": 0.03273806249999822,
                    "durationTicks": 33,
                    "midi": 42,
                    "name": "F#2",
                    "ticks": 23040,
                    "time": 22.857120000000002,
                    "velocity": 0.6535433070866141
                },
                {
                    "duration": 0.03273806249999822,
                    "durationTicks": 33,
                    "midi": 57,
                    "name": "A3",
                    "ticks": 23040,
                    "time": 22.857120000000002,
                    "velocity": 0.6850393700787402
                },
                {
                    "duration": 0.032738062500001774,
                    "durationTicks": 33,
                    "midi": 42,
                    "name": "F#2",
                    "ticks": 23160,
                    "time": 22.9761675,
                    "velocity": 0.6535433070866141
                },
                {
                    "duration": 0.032738062500001774,
                    "durationTicks": 33,
                    "midi": 46,
                    "name": "A#2",
                    "ticks": 23280,
                    "time": 23.095215,
                    "velocity": 0.6535433070866141
                },
                {
                    "duration": 0.03273806249999822,
                    "durationTicks": 33,
                    "midi": 36,
                    "name": "C2",
                    "ticks": 23520,
                    "time": 23.33331,
                    "velocity": 0.937007874015748
                },
                {
                    "duration": 0.03273806249999822,
                    "durationTicks": 33,
                    "midi": 38,
                    "name": "D2",
                    "ticks": 23520,
                    "time": 23.33331,
                    "velocity": 0.889763779527559
                },
                {
                    "duration": 0.03273806249999822,
                    "durationTicks": 33,
                    "midi": 42,
                    "name": "F#2",
                    "ticks": 23520,
                    "time": 23.33331,
                    "velocity": 0.6535433070866141
                },
                {
                    "duration": 0.03273806249999822,
                    "durationTicks": 33,
                    "midi": 42,
                    "name": "F#2",
                    "ticks": 23640,
                    "time": 23.4523575,
                    "velocity": 0.6535433070866141
                },
                {
                    "duration": 0.032738062500001774,
                    "durationTicks": 33,
                    "midi": 46,
                    "name": "A#2",
                    "ticks": 23760,
                    "time": 23.571405,
                    "velocity": 0.6535433070866141
                },
                {
                    "duration": 0.032738062500001774,
                    "durationTicks": 33,
                    "midi": 36,
                    "name": "C2",
                    "ticks": 24000,
                    "time": 23.8095,
                    "velocity": 0.937007874015748
                },
                {
                    "duration": 0.032738062500001774,
                    "durationTicks": 33,
                    "midi": 42,
                    "name": "F#2",
                    "ticks": 24000,
                    "time": 23.8095,
                    "velocity": 0.6535433070866141
                },
                {
                    "duration": 0.032738062500001774,
                    "durationTicks": 33,
                    "midi": 42,
                    "name": "F#2",
                    "ticks": 24120,
                    "time": 23.9285475,
                    "velocity": 0.6535433070866141
                },
                {
                    "duration": 0.03273806249999822,
                    "durationTicks": 33,
                    "midi": 46,
                    "name": "A#2",
                    "ticks": 24240,
                    "time": 24.047595,
                    "velocity": 0.6535433070866141
                },
                {
                    "duration": 0.032738062500001774,
                    "durationTicks": 33,
                    "midi": 36,
                    "name": "C2",
                    "ticks": 24480,
                    "time": 24.28569,
                    "velocity": 0.937007874015748
                },
                {
                    "duration": 0.032738062500001774,
                    "durationTicks": 33,
                    "midi": 38,
                    "name": "D2",
                    "ticks": 24480,
                    "time": 24.28569,
                    "velocity": 0.889763779527559
                },
                {
                    "duration": 0.032738062500001774,
                    "durationTicks": 33,
                    "midi": 42,
                    "name": "F#2",
                    "ticks": 24480,
                    "time": 24.28569,
                    "velocity": 0.6535433070866141
                },
                {
                    "duration": 0.032738062500001774,
                    "durationTicks": 33,
                    "midi": 42,
                    "name": "F#2",
                    "ticks": 24600,
                    "time": 24.4047375,
                    "velocity": 0.6535433070866141
                },
                {
                    "duration": 0.032738062500001774,
                    "durationTicks": 33,
                    "midi": 46,
                    "name": "A#2",
                    "ticks": 24720,
                    "time": 24.523785,
                    "velocity": 0.6535433070866141
                },
                {
                    "duration": 0.03273806249999822,
                    "durationTicks": 33,
                    "midi": 36,
                    "name": "C2",
                    "ticks": 24960,
                    "time": 24.76188,
                    "velocity": 0.937007874015748
                },
                {
                    "duration": 0.03273806249999822,
                    "durationTicks": 33,
                    "midi": 42,
                    "name": "F#2",
                    "ticks": 24960,
                    "time": 24.76188,
                    "velocity": 0.6535433070866141
                },
                {
                    "duration": 0.032738062500001774,
                    "durationTicks": 33,
                    "midi": 42,
                    "name": "F#2",
                    "ticks": 25080,
                    "time": 24.8809275,
                    "velocity": 0.6535433070866141
                },
                {
                    "duration": 0.032738062500001774,
                    "durationTicks": 33,
                    "midi": 46,
                    "name": "A#2",
                    "ticks": 25200,
                    "time": 24.999975,
                    "velocity": 0.6535433070866141
                },
                {
                    "duration": 0.032738062500001774,
                    "durationTicks": 33,
                    "midi": 36,
                    "name": "C2",
                    "ticks": 25440,
                    "time": 25.23807,
                    "velocity": 0.937007874015748
                },
                {
                    "duration": 0.032738062500001774,
                    "durationTicks": 33,
                    "midi": 38,
                    "name": "D2",
                    "ticks": 25440,
                    "time": 25.23807,
                    "velocity": 0.889763779527559
                },
                {
                    "duration": 0.032738062500001774,
                    "durationTicks": 33,
                    "midi": 42,
                    "name": "F#2",
                    "ticks": 25440,
                    "time": 25.23807,
                    "velocity": 0.6535433070866141
                },
                {
                    "duration": 0.03273806249999822,
                    "durationTicks": 33,
                    "midi": 42,
                    "name": "F#2",
                    "ticks": 25560,
                    "time": 25.3571175,
                    "velocity": 0.6535433070866141
                },
                {
                    "duration": 0.03273806249999822,
                    "durationTicks": 33,
                    "midi": 46,
                    "name": "A#2",
                    "ticks": 25680,
                    "time": 25.476165,
                    "velocity": 0.6535433070866141
                },
                {
                    "duration": 0.032738062500001774,
                    "durationTicks": 33,
                    "midi": 36,
                    "name": "C2",
                    "ticks": 25920,
                    "time": 25.71426,
                    "velocity": 0.937007874015748
                },
                {
                    "duration": 0.032738062500001774,
                    "durationTicks": 33,
                    "midi": 42,
                    "name": "F#2",
                    "ticks": 25920,
                    "time": 25.71426,
                    "velocity": 0.6535433070866141
                },
                {
                    "duration": 0.032738062500001774,
                    "durationTicks": 33,
                    "midi": 42,
                    "name": "F#2",
                    "ticks": 26040,
                    "time": 25.8333075,
                    "velocity": 0.6535433070866141
                },
                {
                    "duration": 0.032738062500001774,
                    "durationTicks": 33,
                    "midi": 46,
                    "name": "A#2",
                    "ticks": 26160,
                    "time": 25.952355,
                    "velocity": 0.6535433070866141
                },
                {
                    "duration": 0.032738062500001774,
                    "durationTicks": 33,
                    "midi": 36,
                    "name": "C2",
                    "ticks": 26400,
                    "time": 26.19045,
                    "velocity": 0.937007874015748
                },
                {
                    "duration": 0.032738062500001774,
                    "durationTicks": 33,
                    "midi": 38,
                    "name": "D2",
                    "ticks": 26400,
                    "time": 26.19045,
                    "velocity": 0.889763779527559
                },
                {
                    "duration": 0.032738062500001774,
                    "durationTicks": 33,
                    "midi": 42,
                    "name": "F#2",
                    "ticks": 26400,
                    "time": 26.19045,
                    "velocity": 0.6535433070866141
                },
                {
                    "duration": 0.032738062500001774,
                    "durationTicks": 33,
                    "midi": 42,
                    "name": "F#2",
                    "ticks": 26520,
                    "time": 26.3094975,
                    "velocity": 0.6535433070866141
                },
                {
                    "duration": 0.032738062500001774,
                    "durationTicks": 33,
                    "midi": 46,
                    "name": "A#2",
                    "ticks": 26640,
                    "time": 26.428545,
                    "velocity": 0.6535433070866141
                },
                {
                    "duration": 0.03273806249999822,
                    "durationTicks": 33,
                    "midi": 36,
                    "name": "C2",
                    "ticks": 26880,
                    "time": 26.66664,
                    "velocity": 0.937007874015748
                },
                {
                    "duration": 0.03273806249999822,
                    "durationTicks": 33,
                    "midi": 42,
                    "name": "F#2",
                    "ticks": 26880,
                    "time": 26.66664,
                    "velocity": 0.6535433070866141
                },
                {
                    "duration": 0.03273806249999822,
                    "durationTicks": 33,
                    "midi": 42,
                    "name": "F#2",
                    "ticks": 27000,
                    "time": 26.7856875,
                    "velocity": 0.6535433070866141
                },
                {
                    "duration": 0.032738062500001774,
                    "durationTicks": 33,
                    "midi": 46,
                    "name": "A#2",
                    "ticks": 27120,
                    "time": 26.904735,
                    "velocity": 0.6535433070866141
                },
                {
                    "duration": 0.032738062500001774,
                    "durationTicks": 33,
                    "midi": 36,
                    "name": "C2",
                    "ticks": 27360,
                    "time": 27.14283,
                    "velocity": 0.937007874015748
                },
                {
                    "duration": 0.032738062500001774,
                    "durationTicks": 33,
                    "midi": 38,
                    "name": "D2",
                    "ticks": 27360,
                    "time": 27.14283,
                    "velocity": 0.889763779527559
                },
                {
                    "duration": 0.032738062500001774,
                    "durationTicks": 33,
                    "midi": 42,
                    "name": "F#2",
                    "ticks": 27360,
                    "time": 27.14283,
                    "velocity": 0.6535433070866141
                },
                {
                    "duration": 0.032738062500001774,
                    "durationTicks": 33,
                    "midi": 42,
                    "name": "F#2",
                    "ticks": 27480,
                    "time": 27.2618775,
                    "velocity": 0.6535433070866141
                },
                {
                    "duration": 0.03273806249999822,
                    "durationTicks": 33,
                    "midi": 46,
                    "name": "A#2",
                    "ticks": 27600,
                    "time": 27.380925,
                    "velocity": 0.6535433070866141
                },
                {
                    "duration": 0.032738062500001774,
                    "durationTicks": 33,
                    "midi": 36,
                    "name": "C2",
                    "ticks": 27840,
                    "time": 27.61902,
                    "velocity": 0.937007874015748
                },
                {
                    "duration": 0.032738062500001774,
                    "durationTicks": 33,
                    "midi": 42,
                    "name": "F#2",
                    "ticks": 27840,
                    "time": 27.61902,
                    "velocity": 0.6535433070866141
                },
                {
                    "duration": 0.032738062500001774,
                    "durationTicks": 33,
                    "midi": 42,
                    "name": "F#2",
                    "ticks": 27960,
                    "time": 27.7380675,
                    "velocity": 0.6535433070866141
                },
                {
                    "duration": 0.032738062500001774,
                    "durationTicks": 33,
                    "midi": 46,
                    "name": "A#2",
                    "ticks": 28080,
                    "time": 27.857115,
                    "velocity": 0.6535433070866141
                },
                {
                    "duration": 0.03273806249999822,
                    "durationTicks": 33,
                    "midi": 36,
                    "name": "C2",
                    "ticks": 28320,
                    "time": 28.09521,
                    "velocity": 0.937007874015748
                },
                {
                    "duration": 0.03273806249999822,
                    "durationTicks": 33,
                    "midi": 38,
                    "name": "D2",
                    "ticks": 28320,
                    "time": 28.09521,
                    "velocity": 0.889763779527559
                },
                {
                    "duration": 0.03273806249999822,
                    "durationTicks": 33,
                    "midi": 42,
                    "name": "F#2",
                    "ticks": 28320,
                    "time": 28.09521,
                    "velocity": 0.6535433070866141
                },
                {
                    "duration": 0.032738062500001774,
                    "durationTicks": 33,
                    "midi": 42,
                    "name": "F#2",
                    "ticks": 28440,
                    "time": 28.2142575,
                    "velocity": 0.6535433070866141
                },
                {
                    "duration": 0.032738062500001774,
                    "durationTicks": 33,
                    "midi": 46,
                    "name": "A#2",
                    "ticks": 28560,
                    "time": 28.333305,
                    "velocity": 0.6535433070866141
                },
                {
                    "duration": 0.032738062500001774,
                    "durationTicks": 33,
                    "midi": 36,
                    "name": "C2",
                    "ticks": 28800,
                    "time": 28.5714,
                    "velocity": 0.937007874015748
                },
                {
                    "duration": 0.032738062500001774,
                    "durationTicks": 33,
                    "midi": 42,
                    "name": "F#2",
                    "ticks": 28800,
                    "time": 28.5714,
                    "velocity": 0.6535433070866141
                },
                {
                    "duration": 0.03273806249999822,
                    "durationTicks": 33,
                    "midi": 42,
                    "name": "F#2",
                    "ticks": 28920,
                    "time": 28.6904475,
                    "velocity": 0.6535433070866141
                },
                {
                    "duration": 0.03273806249999822,
                    "durationTicks": 33,
                    "midi": 46,
                    "name": "A#2",
                    "ticks": 29040,
                    "time": 28.809495000000002,
                    "velocity": 0.6535433070866141
                },
                {
                    "duration": 0.032738062500001774,
                    "durationTicks": 33,
                    "midi": 36,
                    "name": "C2",
                    "ticks": 29280,
                    "time": 29.04759,
                    "velocity": 0.937007874015748
                },
                {
                    "duration": 0.032738062500001774,
                    "durationTicks": 33,
                    "midi": 38,
                    "name": "D2",
                    "ticks": 29280,
                    "time": 29.04759,
                    "velocity": 0.889763779527559
                },
                {
                    "duration": 0.032738062500001774,
                    "durationTicks": 33,
                    "midi": 42,
                    "name": "F#2",
                    "ticks": 29280,
                    "time": 29.04759,
                    "velocity": 0.6535433070866141
                },
                {
                    "duration": 0.032738062500001774,
                    "durationTicks": 33,
                    "midi": 42,
                    "name": "F#2",
                    "ticks": 29400,
                    "time": 29.1666375,
                    "velocity": 0.6535433070866141
                },
                {
                    "duration": 0.03273806249999822,
                    "durationTicks": 33,
                    "midi": 46,
                    "name": "A#2",
                    "ticks": 29520,
                    "time": 29.285685,
                    "velocity": 0.6535433070866141
                },
                {
                    "duration": 0.032738062500001774,
                    "durationTicks": 33,
                    "midi": 36,
                    "name": "C2",
                    "ticks": 29760,
                    "time": 29.52378,
                    "velocity": 0.937007874015748
                },
                {
                    "duration": 0.032738062500001774,
                    "durationTicks": 33,
                    "midi": 42,
                    "name": "F#2",
                    "ticks": 29760,
                    "time": 29.52378,
                    "velocity": 0.6535433070866141
                },
                {
                    "duration": 0.032738062500001774,
                    "durationTicks": 33,
                    "midi": 42,
                    "name": "F#2",
                    "ticks": 29880,
                    "time": 29.6428275,
                    "velocity": 0.6535433070866141
                },
                {
                    "duration": 0.032738062500001774,
                    "durationTicks": 33,
                    "midi": 46,
                    "name": "A#2",
                    "ticks": 30000,
                    "time": 29.761875,
                    "velocity": 0.6535433070866141
                },
                {
                    "duration": 0.03273806249999822,
                    "durationTicks": 33,
                    "midi": 36,
                    "name": "C2",
                    "ticks": 30240,
                    "time": 29.99997,
                    "velocity": 0.937007874015748
                },
                {
                    "duration": 0.03273806249999822,
                    "durationTicks": 33,
                    "midi": 38,
                    "name": "D2",
                    "ticks": 30240,
                    "time": 29.99997,
                    "velocity": 0.889763779527559
                },
                {
                    "duration": 0.03273806249999822,
                    "durationTicks": 33,
                    "midi": 42,
                    "name": "F#2",
                    "ticks": 30240,
                    "time": 29.99997,
                    "velocity": 0.6535433070866141
                },
                {
                    "duration": 0.03273806249999822,
                    "durationTicks": 33,
                    "midi": 42,
                    "name": "F#2",
                    "ticks": 30360,
                    "time": 30.1190175,
                    "velocity": 0.6535433070866141
                },
                {
                    "duration": 0.032738062500001774,
                    "durationTicks": 33,
                    "midi": 46,
                    "name": "A#2",
                    "ticks": 30480,
                    "time": 30.238065,
                    "velocity": 0.6535433070866141
                },
                {
                    "duration": 0.09027768749999865,
                    "durationTicks": 91,
                    "midi": 35,
                    "name": "B1",
                    "ticks": 30720,
                    "time": 30.47616,
                    "velocity": 0.6692913385826772
                },
                {
                    "duration": 0.09027768749999865,
                    "durationTicks": 91,
                    "midi": 35,
                    "name": "B1",
                    "ticks": 31200,
                    "time": 30.95235,
                    "velocity": 0.6692913385826772
                },
                {
                    "duration": 0.09027768749999865,
                    "durationTicks": 91,
                    "midi": 39,
                    "name": "D#2",
                    "ticks": 31200,
                    "time": 30.95235,
                    "velocity": 0.5905511811023622
                },
                {
                    "duration": 0.09027768749999865,
                    "durationTicks": 91,
                    "midi": 35,
                    "name": "B1",
                    "ticks": 31680,
                    "time": 31.42854,
                    "velocity": 0.6692913385826772
                },
                {
                    "duration": 0.09027768749999865,
                    "durationTicks": 91,
                    "midi": 35,
                    "name": "B1",
                    "ticks": 32160,
                    "time": 31.90473,
                    "velocity": 0.6692913385826772
                },
                {
                    "duration": 0.09027768749999865,
                    "durationTicks": 91,
                    "midi": 39,
                    "name": "D#2",
                    "ticks": 32160,
                    "time": 31.90473,
                    "velocity": 0.5905511811023622
                },
                {
                    "duration": 0.09027768749999865,
                    "durationTicks": 91,
                    "midi": 35,
                    "name": "B1",
                    "ticks": 32640,
                    "time": 32.38092,
                    "velocity": 0.6692913385826772
                },
                {
                    "duration": 0.09027768749999865,
                    "durationTicks": 91,
                    "midi": 35,
                    "name": "B1",
                    "ticks": 33120,
                    "time": 32.85711,
                    "velocity": 0.6692913385826772
                },
                {
                    "duration": 0.09027768749999865,
                    "durationTicks": 91,
                    "midi": 39,
                    "name": "D#2",
                    "ticks": 33120,
                    "time": 32.85711,
                    "velocity": 0.5905511811023622
                },
                {
                    "duration": 0.09027768749999865,
                    "durationTicks": 91,
                    "midi": 35,
                    "name": "B1",
                    "ticks": 33600,
                    "time": 33.3333,
                    "velocity": 0.6692913385826772
                },
                {
                    "duration": 0.09027768750000575,
                    "durationTicks": 91,
                    "midi": 35,
                    "name": "B1",
                    "ticks": 34080,
                    "time": 33.80949,
                    "velocity": 0.6692913385826772
                },
                {
                    "duration": 0.09027768750000575,
                    "durationTicks": 91,
                    "midi": 39,
                    "name": "D#2",
                    "ticks": 34080,
                    "time": 33.80949,
                    "velocity": 0.5905511811023622
                },
                {
                    "duration": 0.09027768749999865,
                    "durationTicks": 91,
                    "midi": 35,
                    "name": "B1",
                    "ticks": 34560,
                    "time": 34.28568,
                    "velocity": 0.6692913385826772
                },
                {
                    "duration": 0.09027768749999865,
                    "durationTicks": 91,
                    "midi": 35,
                    "name": "B1",
                    "ticks": 35040,
                    "time": 34.76187,
                    "velocity": 0.6692913385826772
                },
                {
                    "duration": 0.09027768749999865,
                    "durationTicks": 91,
                    "midi": 39,
                    "name": "D#2",
                    "ticks": 35040,
                    "time": 34.76187,
                    "velocity": 0.5905511811023622
                },
                {
                    "duration": 0.09027768749999865,
                    "durationTicks": 91,
                    "midi": 35,
                    "name": "B1",
                    "ticks": 35520,
                    "time": 35.23806,
                    "velocity": 0.6692913385826772
                },
                {
                    "duration": 0.09027768749999865,
                    "durationTicks": 91,
                    "midi": 35,
                    "name": "B1",
                    "ticks": 36000,
                    "time": 35.71425,
                    "velocity": 0.6692913385826772
                },
                {
                    "duration": 0.09027768749999865,
                    "durationTicks": 91,
                    "midi": 39,
                    "name": "D#2",
                    "ticks": 36000,
                    "time": 35.71425,
                    "velocity": 0.5905511811023622
                },
                {
                    "duration": 0.09027768749999865,
                    "durationTicks": 91,
                    "midi": 35,
                    "name": "B1",
                    "ticks": 36480,
                    "time": 36.19044,
                    "velocity": 0.6692913385826772
                },
                {
                    "duration": 0.09027768749999865,
                    "durationTicks": 91,
                    "midi": 35,
                    "name": "B1",
                    "ticks": 36960,
                    "time": 36.66663,
                    "velocity": 0.6692913385826772
                },
                {
                    "duration": 0.09027768749999865,
                    "durationTicks": 91,
                    "midi": 39,
                    "name": "D#2",
                    "ticks": 36960,
                    "time": 36.66663,
                    "velocity": 0.5905511811023622
                },
                {
                    "duration": 0.09027768749999865,
                    "durationTicks": 91,
                    "midi": 35,
                    "name": "B1",
                    "ticks": 37440,
                    "time": 37.14282,
                    "velocity": 0.6692913385826772
                },
                {
                    "duration": 0.09027768749999865,
                    "durationTicks": 91,
                    "midi": 35,
                    "name": "B1",
                    "ticks": 37920,
                    "time": 37.61901,
                    "velocity": 0.6692913385826772
                },
                {
                    "duration": 0.09027768749999865,
                    "durationTicks": 91,
                    "midi": 39,
                    "name": "D#2",
                    "ticks": 37920,
                    "time": 37.61901,
                    "velocity": 0.5905511811023622
                },
                {
                    "duration": 0.03273806249999467,
                    "durationTicks": 33,
                    "midi": 36,
                    "name": "C2",
                    "ticks": 46080,
                    "time": 45.714240000000004,
                    "velocity": 0.937007874015748
                },
                {
                    "duration": 0.03273806249999467,
                    "durationTicks": 33,
                    "midi": 42,
                    "name": "F#2",
                    "ticks": 46080,
                    "time": 45.714240000000004,
                    "velocity": 0.6535433070866141
                },
                {
                    "duration": 0.03273806249999467,
                    "durationTicks": 33,
                    "midi": 57,
                    "name": "A3",
                    "ticks": 46080,
                    "time": 45.714240000000004,
                    "velocity": 0.6850393700787402
                },
                {
                    "duration": 0.032738062500001774,
                    "durationTicks": 33,
                    "midi": 42,
                    "name": "F#2",
                    "ticks": 46200,
                    "time": 45.8332875,
                    "velocity": 0.6535433070866141
                },
                {
                    "duration": 0.032738062500001774,
                    "durationTicks": 33,
                    "midi": 46,
                    "name": "A#2",
                    "ticks": 46320,
                    "time": 45.952335,
                    "velocity": 0.6535433070866141
                },
                {
                    "duration": 0.032738062500001774,
                    "durationTicks": 33,
                    "midi": 36,
                    "name": "C2",
                    "ticks": 46560,
                    "time": 46.19043,
                    "velocity": 0.937007874015748
                },
                {
                    "duration": 0.032738062500001774,
                    "durationTicks": 33,
                    "midi": 38,
                    "name": "D2",
                    "ticks": 46560,
                    "time": 46.19043,
                    "velocity": 0.889763779527559
                },
                {
                    "duration": 0.032738062500001774,
                    "durationTicks": 33,
                    "midi": 42,
                    "name": "F#2",
                    "ticks": 46560,
                    "time": 46.19043,
                    "velocity": 0.6535433070866141
                },
                {
                    "duration": 0.03273806249999467,
                    "durationTicks": 33,
                    "midi": 42,
                    "name": "F#2",
                    "ticks": 46680,
                    "time": 46.3094775,
                    "velocity": 0.6535433070866141
                },
                {
                    "duration": 0.03273806249999467,
                    "durationTicks": 33,
                    "midi": 46,
                    "name": "A#2",
                    "ticks": 46800,
                    "time": 46.428525,
                    "velocity": 0.6535433070866141
                },
                {
                    "duration": 0.03273806249999467,
                    "durationTicks": 33,
                    "midi": 36,
                    "name": "C2",
                    "ticks": 47040,
                    "time": 46.66662,
                    "velocity": 0.937007874015748
                },
                {
                    "duration": 0.03273806249999467,
                    "durationTicks": 33,
                    "midi": 42,
                    "name": "F#2",
                    "ticks": 47040,
                    "time": 46.66662,
                    "velocity": 0.6535433070866141
                },
                {
                    "duration": 0.03273806249999467,
                    "durationTicks": 33,
                    "midi": 42,
                    "name": "F#2",
                    "ticks": 47160,
                    "time": 46.7856675,
                    "velocity": 0.6535433070866141
                },
                {
                    "duration": 0.03273806249999467,
                    "durationTicks": 33,
                    "midi": 46,
                    "name": "A#2",
                    "ticks": 47280,
                    "time": 46.904715,
                    "velocity": 0.6535433070866141
                },
                {
                    "duration": 0.032738062500001774,
                    "durationTicks": 33,
                    "midi": 36,
                    "name": "C2",
                    "ticks": 47520,
                    "time": 47.14281,
                    "velocity": 0.937007874015748
                },
                {
                    "duration": 0.032738062500001774,
                    "durationTicks": 33,
                    "midi": 38,
                    "name": "D2",
                    "ticks": 47520,
                    "time": 47.14281,
                    "velocity": 0.889763779527559
                },
                {
                    "duration": 0.032738062500001774,
                    "durationTicks": 33,
                    "midi": 42,
                    "name": "F#2",
                    "ticks": 47520,
                    "time": 47.14281,
                    "velocity": 0.6535433070866141
                },
                {
                    "duration": 0.032738062500001774,
                    "durationTicks": 33,
                    "midi": 42,
                    "name": "F#2",
                    "ticks": 47640,
                    "time": 47.2618575,
                    "velocity": 0.6535433070866141
                },
                {
                    "duration": 0.032738062500001774,
                    "durationTicks": 33,
                    "midi": 46,
                    "name": "A#2",
                    "ticks": 47760,
                    "time": 47.380905,
                    "velocity": 0.6535433070866141
                },
                {
                    "duration": 0.03273806249999467,
                    "durationTicks": 33,
                    "midi": 36,
                    "name": "C2",
                    "ticks": 48000,
                    "time": 47.619,
                    "velocity": 0.937007874015748
                },
                {
                    "duration": 0.03273806249999467,
                    "durationTicks": 33,
                    "midi": 42,
                    "name": "F#2",
                    "ticks": 48000,
                    "time": 47.619,
                    "velocity": 0.6535433070866141
                },
                {
                    "duration": 0.03273806249999467,
                    "durationTicks": 33,
                    "midi": 42,
                    "name": "F#2",
                    "ticks": 48120,
                    "time": 47.7380475,
                    "velocity": 0.6535433070866141
                },
                {
                    "duration": 0.03273806249999467,
                    "durationTicks": 33,
                    "midi": 46,
                    "name": "A#2",
                    "ticks": 48240,
                    "time": 47.857095,
                    "velocity": 0.6535433070866141
                },
                {
                    "duration": 0.03273806249999467,
                    "durationTicks": 33,
                    "midi": 36,
                    "name": "C2",
                    "ticks": 48480,
                    "time": 48.09519,
                    "velocity": 0.937007874015748
                },
                {
                    "duration": 0.03273806249999467,
                    "durationTicks": 33,
                    "midi": 38,
                    "name": "D2",
                    "ticks": 48480,
                    "time": 48.09519,
                    "velocity": 0.889763779527559
                },
                {
                    "duration": 0.03273806249999467,
                    "durationTicks": 33,
                    "midi": 42,
                    "name": "F#2",
                    "ticks": 48480,
                    "time": 48.09519,
                    "velocity": 0.6535433070866141
                },
                {
                    "duration": 0.03273806249999467,
                    "durationTicks": 33,
                    "midi": 42,
                    "name": "F#2",
                    "ticks": 48600,
                    "time": 48.2142375,
                    "velocity": 0.6535433070866141
                },
                {
                    "duration": 0.03273806249999467,
                    "durationTicks": 33,
                    "midi": 46,
                    "name": "A#2",
                    "ticks": 48720,
                    "time": 48.333285000000004,
                    "velocity": 0.6535433070866141
                },
                {
                    "duration": 0.032738062500001774,
                    "durationTicks": 33,
                    "midi": 36,
                    "name": "C2",
                    "ticks": 48960,
                    "time": 48.57138,
                    "velocity": 0.937007874015748
                },
                {
                    "duration": 0.032738062500001774,
                    "durationTicks": 33,
                    "midi": 42,
                    "name": "F#2",
                    "ticks": 48960,
                    "time": 48.57138,
                    "velocity": 0.6535433070866141
                },
                {
                    "duration": 0.032738062500001774,
                    "durationTicks": 33,
                    "midi": 42,
                    "name": "F#2",
                    "ticks": 49080,
                    "time": 48.6904275,
                    "velocity": 0.6535433070866141
                },
                {
                    "duration": 0.032738062500001774,
                    "durationTicks": 33,
                    "midi": 46,
                    "name": "A#2",
                    "ticks": 49200,
                    "time": 48.809475,
                    "velocity": 0.6535433070866141
                },
                {
                    "duration": 0.03273806249999467,
                    "durationTicks": 33,
                    "midi": 36,
                    "name": "C2",
                    "ticks": 49440,
                    "time": 49.04757,
                    "velocity": 0.937007874015748
                },
                {
                    "duration": 0.03273806249999467,
                    "durationTicks": 33,
                    "midi": 38,
                    "name": "D2",
                    "ticks": 49440,
                    "time": 49.04757,
                    "velocity": 0.889763779527559
                },
                {
                    "duration": 0.03273806249999467,
                    "durationTicks": 33,
                    "midi": 42,
                    "name": "F#2",
                    "ticks": 49440,
                    "time": 49.04757,
                    "velocity": 0.6535433070866141
                },
                {
                    "duration": 0.03273806249999467,
                    "durationTicks": 33,
                    "midi": 42,
                    "name": "F#2",
                    "ticks": 49560,
                    "time": 49.1666175,
                    "velocity": 0.6535433070866141
                },
                {
                    "duration": 0.03273806249999467,
                    "durationTicks": 33,
                    "midi": 46,
                    "name": "A#2",
                    "ticks": 49680,
                    "time": 49.285665,
                    "velocity": 0.6535433070866141
                },
                {
                    "duration": 0.03273806249999467,
                    "durationTicks": 33,
                    "midi": 36,
                    "name": "C2",
                    "ticks": 49920,
                    "time": 49.52376,
                    "velocity": 0.937007874015748
                },
                {
                    "duration": 0.03273806249999467,
                    "durationTicks": 33,
                    "midi": 42,
                    "name": "F#2",
                    "ticks": 49920,
                    "time": 49.52376,
                    "velocity": 0.6535433070866141
                },
                {
                    "duration": 0.03273806249999467,
                    "durationTicks": 33,
                    "midi": 42,
                    "name": "F#2",
                    "ticks": 50040,
                    "time": 49.6428075,
                    "velocity": 0.6535433070866141
                },
                {
                    "duration": 0.032738062500001774,
                    "durationTicks": 33,
                    "midi": 46,
                    "name": "A#2",
                    "ticks": 50160,
                    "time": 49.761855,
                    "velocity": 0.6535433070866141
                },
                {
                    "duration": 0.032738062500001774,
                    "durationTicks": 33,
                    "midi": 36,
                    "name": "C2",
                    "ticks": 50400,
                    "time": 49.99995,
                    "velocity": 0.937007874015748
                },
                {
                    "duration": 0.032738062500001774,
                    "durationTicks": 33,
                    "midi": 38,
                    "name": "D2",
                    "ticks": 50400,
                    "time": 49.99995,
                    "velocity": 0.889763779527559
                },
                {
                    "duration": 0.032738062500001774,
                    "durationTicks": 33,
                    "midi": 42,
                    "name": "F#2",
                    "ticks": 50400,
                    "time": 49.99995,
                    "velocity": 0.6535433070866141
                },
                {
                    "duration": 0.032738062500001774,
                    "durationTicks": 33,
                    "midi": 42,
                    "name": "F#2",
                    "ticks": 50520,
                    "time": 50.1189975,
                    "velocity": 0.6535433070866141
                },
                {
                    "duration": 0.03273806249999467,
                    "durationTicks": 33,
                    "midi": 46,
                    "name": "A#2",
                    "ticks": 50640,
                    "time": 50.238045,
                    "velocity": 0.6535433070866141
                },
                {
                    "duration": 0.03273806249999467,
                    "durationTicks": 33,
                    "midi": 36,
                    "name": "C2",
                    "ticks": 50880,
                    "time": 50.47614,
                    "velocity": 0.937007874015748
                },
                {
                    "duration": 0.03273806249999467,
                    "durationTicks": 33,
                    "midi": 42,
                    "name": "F#2",
                    "ticks": 50880,
                    "time": 50.47614,
                    "velocity": 0.6535433070866141
                },
                {
                    "duration": 0.03273806249999467,
                    "durationTicks": 33,
                    "midi": 42,
                    "name": "F#2",
                    "ticks": 51000,
                    "time": 50.5951875,
                    "velocity": 0.6535433070866141
                },
                {
                    "duration": 0.03273806249999467,
                    "durationTicks": 33,
                    "midi": 46,
                    "name": "A#2",
                    "ticks": 51120,
                    "time": 50.714235,
                    "velocity": 0.6535433070866141
                },
                {
                    "duration": 0.03273806249999467,
                    "durationTicks": 33,
                    "midi": 36,
                    "name": "C2",
                    "ticks": 51360,
                    "time": 50.95233,
                    "velocity": 0.937007874015748
                },
                {
                    "duration": 0.03273806249999467,
                    "durationTicks": 33,
                    "midi": 38,
                    "name": "D2",
                    "ticks": 51360,
                    "time": 50.95233,
                    "velocity": 0.889763779527559
                },
                {
                    "duration": 0.03273806249999467,
                    "durationTicks": 33,
                    "midi": 42,
                    "name": "F#2",
                    "ticks": 51360,
                    "time": 50.95233,
                    "velocity": 0.6535433070866141
                },
                {
                    "duration": 0.032738062500001774,
                    "durationTicks": 33,
                    "midi": 42,
                    "name": "F#2",
                    "ticks": 51480,
                    "time": 51.0713775,
                    "velocity": 0.6535433070866141
                },
                {
                    "duration": 0.032738062500001774,
                    "durationTicks": 33,
                    "midi": 46,
                    "name": "A#2",
                    "ticks": 51600,
                    "time": 51.190425,
                    "velocity": 0.6535433070866141
                },
                {
                    "duration": 0.032738062500001774,
                    "durationTicks": 33,
                    "midi": 36,
                    "name": "C2",
                    "ticks": 51840,
                    "time": 51.42852,
                    "velocity": 0.937007874015748
                },
                {
                    "duration": 0.032738062500001774,
                    "durationTicks": 33,
                    "midi": 42,
                    "name": "F#2",
                    "ticks": 51840,
                    "time": 51.42852,
                    "velocity": 0.6535433070866141
                },
                {
                    "duration": 0.03273806249999467,
                    "durationTicks": 33,
                    "midi": 42,
                    "name": "F#2",
                    "ticks": 51960,
                    "time": 51.5475675,
                    "velocity": 0.6535433070866141
                },
                {
                    "duration": 0.03273806249999467,
                    "durationTicks": 33,
                    "midi": 46,
                    "name": "A#2",
                    "ticks": 52080,
                    "time": 51.666615,
                    "velocity": 0.6535433070866141
                },
                {
                    "duration": 0.03273806249999467,
                    "durationTicks": 33,
                    "midi": 36,
                    "name": "C2",
                    "ticks": 52320,
                    "time": 51.90471,
                    "velocity": 0.937007874015748
                },
                {
                    "duration": 0.03273806249999467,
                    "durationTicks": 33,
                    "midi": 38,
                    "name": "D2",
                    "ticks": 52320,
                    "time": 51.90471,
                    "velocity": 0.889763779527559
                },
                {
                    "duration": 0.03273806249999467,
                    "durationTicks": 33,
                    "midi": 42,
                    "name": "F#2",
                    "ticks": 52320,
                    "time": 51.90471,
                    "velocity": 0.6535433070866141
                },
                {
                    "duration": 0.03273806249999467,
                    "durationTicks": 33,
                    "midi": 42,
                    "name": "F#2",
                    "ticks": 52440,
                    "time": 52.0237575,
                    "velocity": 0.6535433070866141
                },
                {
                    "duration": 0.03273806249999467,
                    "durationTicks": 33,
                    "midi": 46,
                    "name": "A#2",
                    "ticks": 52560,
                    "time": 52.142805,
                    "velocity": 0.6535433070866141
                },
                {
                    "duration": 0.032738062500001774,
                    "durationTicks": 33,
                    "midi": 36,
                    "name": "C2",
                    "ticks": 52800,
                    "time": 52.3809,
                    "velocity": 0.937007874015748
                },
                {
                    "duration": 0.032738062500001774,
                    "durationTicks": 33,
                    "midi": 42,
                    "name": "F#2",
                    "ticks": 52800,
                    "time": 52.3809,
                    "velocity": 0.6535433070866141
                },
                {
                    "duration": 0.032738062500001774,
                    "durationTicks": 33,
                    "midi": 42,
                    "name": "F#2",
                    "ticks": 52920,
                    "time": 52.4999475,
                    "velocity": 0.6535433070866141
                },
                {
                    "duration": 0.032738062500001774,
                    "durationTicks": 33,
                    "midi": 46,
                    "name": "A#2",
                    "ticks": 53040,
                    "time": 52.618995,
                    "velocity": 0.6535433070866141
                },
                {
                    "duration": 0.03273806249999467,
                    "durationTicks": 33,
                    "midi": 36,
                    "name": "C2",
                    "ticks": 53280,
                    "time": 52.85709,
                    "velocity": 0.937007874015748
                },
                {
                    "duration": 0.03273806249999467,
                    "durationTicks": 33,
                    "midi": 38,
                    "name": "D2",
                    "ticks": 53280,
                    "time": 52.85709,
                    "velocity": 0.889763779527559
                },
                {
                    "duration": 0.03273806249999467,
                    "durationTicks": 33,
                    "midi": 42,
                    "name": "F#2",
                    "ticks": 53280,
                    "time": 52.85709,
                    "velocity": 0.6535433070866141
                },
                {
                    "duration": 0.03273806249999467,
                    "durationTicks": 33,
                    "midi": 42,
                    "name": "F#2",
                    "ticks": 53400,
                    "time": 52.9761375,
                    "velocity": 0.6535433070866141
                },
                {
                    "duration": 0.03273806249999467,
                    "durationTicks": 33,
                    "midi": 46,
                    "name": "A#2",
                    "ticks": 53520,
                    "time": 53.095185,
                    "velocity": 0.6535433070866141
                },
                {
                    "duration": 0.03273806249999467,
                    "durationTicks": 33,
                    "midi": 36,
                    "name": "C2",
                    "ticks": 53760,
                    "time": 53.33328,
                    "velocity": 0.937007874015748
                },
                {
                    "duration": 0.03273806249999467,
                    "durationTicks": 33,
                    "midi": 42,
                    "name": "F#2",
                    "ticks": 53760,
                    "time": 53.33328,
                    "velocity": 0.6535433070866141
                },
                {
                    "duration": 0.03273806249999467,
                    "durationTicks": 33,
                    "midi": 57,
                    "name": "A3",
                    "ticks": 53760,
                    "time": 53.33328,
                    "velocity": 0.6850393700787402
                },
                {
                    "duration": 0.03273806249999467,
                    "durationTicks": 33,
                    "midi": 42,
                    "name": "F#2",
                    "ticks": 53880,
                    "time": 53.4523275,
                    "velocity": 0.6535433070866141
                },
                {
                    "duration": 0.03273806249999467,
                    "durationTicks": 33,
                    "midi": 46,
                    "name": "A#2",
                    "ticks": 54000,
                    "time": 53.571375,
                    "velocity": 0.6535433070866141
                },
                {
                    "duration": 0.032738062500001774,
                    "durationTicks": 33,
                    "midi": 36,
                    "name": "C2",
                    "ticks": 54240,
                    "time": 53.80947,
                    "velocity": 0.937007874015748
                },
                {
                    "duration": 0.032738062500001774,
                    "durationTicks": 33,
                    "midi": 38,
                    "name": "D2",
                    "ticks": 54240,
                    "time": 53.80947,
                    "velocity": 0.889763779527559
                },
                {
                    "duration": 0.032738062500001774,
                    "durationTicks": 33,
                    "midi": 42,
                    "name": "F#2",
                    "ticks": 54240,
                    "time": 53.80947,
                    "velocity": 0.6535433070866141
                },
                {
                    "duration": 0.032738062500001774,
                    "durationTicks": 33,
                    "midi": 42,
                    "name": "F#2",
                    "ticks": 54360,
                    "time": 53.9285175,
                    "velocity": 0.6535433070866141
                },
                {
                    "duration": 0.032738062500001774,
                    "durationTicks": 33,
                    "midi": 46,
                    "name": "A#2",
                    "ticks": 54480,
                    "time": 54.047565,
                    "velocity": 0.6535433070866141
                },
                {
                    "duration": 0.03273806249999467,
                    "durationTicks": 33,
                    "midi": 36,
                    "name": "C2",
                    "ticks": 54720,
                    "time": 54.28566,
                    "velocity": 0.937007874015748
                },
                {
                    "duration": 0.03273806249999467,
                    "durationTicks": 33,
                    "midi": 42,
                    "name": "F#2",
                    "ticks": 54720,
                    "time": 54.28566,
                    "velocity": 0.6535433070866141
                },
                {
                    "duration": 0.03273806249999467,
                    "durationTicks": 33,
                    "midi": 42,
                    "name": "F#2",
                    "ticks": 54840,
                    "time": 54.4047075,
                    "velocity": 0.6535433070866141
                },
                {
                    "duration": 0.03273806249999467,
                    "durationTicks": 33,
                    "midi": 46,
                    "name": "A#2",
                    "ticks": 54960,
                    "time": 54.523755,
                    "velocity": 0.6535433070866141
                },
                {
                    "duration": 0.03273806249999467,
                    "durationTicks": 33,
                    "midi": 36,
                    "name": "C2",
                    "ticks": 55200,
                    "time": 54.76185,
                    "velocity": 0.937007874015748
                },
                {
                    "duration": 0.03273806249999467,
                    "durationTicks": 33,
                    "midi": 38,
                    "name": "D2",
                    "ticks": 55200,
                    "time": 54.76185,
                    "velocity": 0.889763779527559
                },
                {
                    "duration": 0.03273806249999467,
                    "durationTicks": 33,
                    "midi": 42,
                    "name": "F#2",
                    "ticks": 55200,
                    "time": 54.76185,
                    "velocity": 0.6535433070866141
                },
                {
                    "duration": 0.03273806249999467,
                    "durationTicks": 33,
                    "midi": 42,
                    "name": "F#2",
                    "ticks": 55320,
                    "time": 54.8808975,
                    "velocity": 0.6535433070866141
                },
                {
                    "duration": 0.032738062500001774,
                    "durationTicks": 33,
                    "midi": 46,
                    "name": "A#2",
                    "ticks": 55440,
                    "time": 54.999945,
                    "velocity": 0.6535433070866141
                },
                {
                    "duration": 0.032738062500001774,
                    "durationTicks": 33,
                    "midi": 36,
                    "name": "C2",
                    "ticks": 55680,
                    "time": 55.23804,
                    "velocity": 0.937007874015748
                },
                {
                    "duration": 0.032738062500001774,
                    "durationTicks": 33,
                    "midi": 42,
                    "name": "F#2",
                    "ticks": 55680,
                    "time": 55.23804,
                    "velocity": 0.6535433070866141
                },
                {
                    "duration": 0.032738062500001774,
                    "durationTicks": 33,
                    "midi": 42,
                    "name": "F#2",
                    "ticks": 55800,
                    "time": 55.3570875,
                    "velocity": 0.6535433070866141
                },
                {
                    "duration": 0.032738062500001774,
                    "durationTicks": 33,
                    "midi": 46,
                    "name": "A#2",
                    "ticks": 55920,
                    "time": 55.476135,
                    "velocity": 0.6535433070866141
                },
                {
                    "duration": 0.03273806249999467,
                    "durationTicks": 33,
                    "midi": 36,
                    "name": "C2",
                    "ticks": 56160,
                    "time": 55.71423,
                    "velocity": 0.937007874015748
                },
                {
                    "duration": 0.03273806249999467,
                    "durationTicks": 33,
                    "midi": 38,
                    "name": "D2",
                    "ticks": 56160,
                    "time": 55.71423,
                    "velocity": 0.889763779527559
                },
                {
                    "duration": 0.03273806249999467,
                    "durationTicks": 33,
                    "midi": 42,
                    "name": "F#2",
                    "ticks": 56160,
                    "time": 55.71423,
                    "velocity": 0.6535433070866141
                },
                {
                    "duration": 0.03273806249999467,
                    "durationTicks": 33,
                    "midi": 42,
                    "name": "F#2",
                    "ticks": 56280,
                    "time": 55.8332775,
                    "velocity": 0.6535433070866141
                },
                {
                    "duration": 0.03273806249999467,
                    "durationTicks": 33,
                    "midi": 46,
                    "name": "A#2",
                    "ticks": 56400,
                    "time": 55.952325,
                    "velocity": 0.6535433070866141
                },
                {
                    "duration": 0.03273806249999467,
                    "durationTicks": 33,
                    "midi": 36,
                    "name": "C2",
                    "ticks": 56640,
                    "time": 56.19042,
                    "velocity": 0.937007874015748
                },
                {
                    "duration": 0.03273806249999467,
                    "durationTicks": 33,
                    "midi": 42,
                    "name": "F#2",
                    "ticks": 56640,
                    "time": 56.19042,
                    "velocity": 0.6535433070866141
                },
                {
                    "duration": 0.03273806249999467,
                    "durationTicks": 33,
                    "midi": 42,
                    "name": "F#2",
                    "ticks": 56760,
                    "time": 56.309467500000004,
                    "velocity": 0.6535433070866141
                },
                {
                    "duration": 0.032738062500001774,
                    "durationTicks": 33,
                    "midi": 46,
                    "name": "A#2",
                    "ticks": 56880,
                    "time": 56.428515,
                    "velocity": 0.6535433070866141
                },
                {
                    "duration": 0.032738062500001774,
                    "durationTicks": 33,
                    "midi": 36,
                    "name": "C2",
                    "ticks": 57120,
                    "time": 56.66661,
                    "velocity": 0.937007874015748
                },
                {
                    "duration": 0.032738062500001774,
                    "durationTicks": 33,
                    "midi": 38,
                    "name": "D2",
                    "ticks": 57120,
                    "time": 56.66661,
                    "velocity": 0.889763779527559
                },
                {
                    "duration": 0.032738062500001774,
                    "durationTicks": 33,
                    "midi": 42,
                    "name": "F#2",
                    "ticks": 57120,
                    "time": 56.66661,
                    "velocity": 0.6535433070866141
                },
                {
                    "duration": 0.032738062500001774,
                    "durationTicks": 33,
                    "midi": 42,
                    "name": "F#2",
                    "ticks": 57240,
                    "time": 56.7856575,
                    "velocity": 0.6535433070866141
                },
                {
                    "duration": 0.03273806249999467,
                    "durationTicks": 33,
                    "midi": 46,
                    "name": "A#2",
                    "ticks": 57360,
                    "time": 56.904705,
                    "velocity": 0.6535433070866141
                },
                {
                    "duration": 0.03273806249999467,
                    "durationTicks": 33,
                    "midi": 36,
                    "name": "C2",
                    "ticks": 57600,
                    "time": 57.1428,
                    "velocity": 0.937007874015748
                },
                {
                    "duration": 0.03273806249999467,
                    "durationTicks": 33,
                    "midi": 42,
                    "name": "F#2",
                    "ticks": 57600,
                    "time": 57.1428,
                    "velocity": 0.6535433070866141
                },
                {
                    "duration": 0.03273806249999467,
                    "durationTicks": 33,
                    "midi": 42,
                    "name": "F#2",
                    "ticks": 57720,
                    "time": 57.2618475,
                    "velocity": 0.6535433070866141
                },
                {
                    "duration": 0.03273806249999467,
                    "durationTicks": 33,
                    "midi": 46,
                    "name": "A#2",
                    "ticks": 57840,
                    "time": 57.380895,
                    "velocity": 0.6535433070866141
                },
                {
                    "duration": 0.03273806249999467,
                    "durationTicks": 33,
                    "midi": 36,
                    "name": "C2",
                    "ticks": 58080,
                    "time": 57.618990000000004,
                    "velocity": 0.937007874015748
                },
                {
                    "duration": 0.03273806249999467,
                    "durationTicks": 33,
                    "midi": 38,
                    "name": "D2",
                    "ticks": 58080,
                    "time": 57.618990000000004,
                    "velocity": 0.889763779527559
                },
                {
                    "duration": 0.03273806249999467,
                    "durationTicks": 33,
                    "midi": 42,
                    "name": "F#2",
                    "ticks": 58080,
                    "time": 57.618990000000004,
                    "velocity": 0.6535433070866141
                },
                {
                    "duration": 0.032738062500001774,
                    "durationTicks": 33,
                    "midi": 42,
                    "name": "F#2",
                    "ticks": 58200,
                    "time": 57.7380375,
                    "velocity": 0.6535433070866141
                },
                {
                    "duration": 0.032738062500001774,
                    "durationTicks": 33,
                    "midi": 46,
                    "name": "A#2",
                    "ticks": 58320,
                    "time": 57.857085,
                    "velocity": 0.6535433070866141
                },
                {
                    "duration": 0.032738062500001774,
                    "durationTicks": 33,
                    "midi": 36,
                    "name": "C2",
                    "ticks": 58560,
                    "time": 58.09518,
                    "velocity": 0.937007874015748
                },
                {
                    "duration": 0.032738062500001774,
                    "durationTicks": 33,
                    "midi": 42,
                    "name": "F#2",
                    "ticks": 58560,
                    "time": 58.09518,
                    "velocity": 0.6535433070866141
                },
                {
                    "duration": 0.03273806249999467,
                    "durationTicks": 33,
                    "midi": 42,
                    "name": "F#2",
                    "ticks": 58680,
                    "time": 58.2142275,
                    "velocity": 0.6535433070866141
                },
                {
                    "duration": 0.03273806249999467,
                    "durationTicks": 33,
                    "midi": 46,
                    "name": "A#2",
                    "ticks": 58800,
                    "time": 58.333275,
                    "velocity": 0.6535433070866141
                },
                {
                    "duration": 0.03273806249999467,
                    "durationTicks": 33,
                    "midi": 36,
                    "name": "C2",
                    "ticks": 59040,
                    "time": 58.57137,
                    "velocity": 0.937007874015748
                },
                {
                    "duration": 0.03273806249999467,
                    "durationTicks": 33,
                    "midi": 38,
                    "name": "D2",
                    "ticks": 59040,
                    "time": 58.57137,
                    "velocity": 0.889763779527559
                },
                {
                    "duration": 0.03273806249999467,
                    "durationTicks": 33,
                    "midi": 42,
                    "name": "F#2",
                    "ticks": 59040,
                    "time": 58.57137,
                    "velocity": 0.6535433070866141
                },
                {
                    "duration": 0.03273806249999467,
                    "durationTicks": 33,
                    "midi": 42,
                    "name": "F#2",
                    "ticks": 59160,
                    "time": 58.6904175,
                    "velocity": 0.6535433070866141
                },
                {
                    "duration": 0.03273806249999467,
                    "durationTicks": 33,
                    "midi": 46,
                    "name": "A#2",
                    "ticks": 59280,
                    "time": 58.809465,
                    "velocity": 0.6535433070866141
                },
                {
                    "duration": 0.03273806249999467,
                    "durationTicks": 33,
                    "midi": 36,
                    "name": "C2",
                    "ticks": 61440,
                    "time": 60.95232,
                    "velocity": 0.937007874015748
                },
                {
                    "duration": 0.03273806249999467,
                    "durationTicks": 33,
                    "midi": 42,
                    "name": "F#2",
                    "ticks": 61440,
                    "time": 60.95232,
                    "velocity": 0.6535433070866141
                },
                {
                    "duration": 0.03273806249999467,
                    "durationTicks": 33,
                    "midi": 57,
                    "name": "A3",
                    "ticks": 61440,
                    "time": 60.95232,
                    "velocity": 0.6850393700787402
                },
                {
                    "duration": 0.03273806249999467,
                    "durationTicks": 33,
                    "midi": 42,
                    "name": "F#2",
                    "ticks": 61560,
                    "time": 61.0713675,
                    "velocity": 0.6535433070866141
                },
                {
                    "duration": 0.03273806249999467,
                    "durationTicks": 33,
                    "midi": 46,
                    "name": "A#2",
                    "ticks": 61680,
                    "time": 61.190415,
                    "velocity": 0.6535433070866141
                },
                {
                    "duration": 0.03273806249999467,
                    "durationTicks": 33,
                    "midi": 36,
                    "name": "C2",
                    "ticks": 61920,
                    "time": 61.42851,
                    "velocity": 0.937007874015748
                },
                {
                    "duration": 0.03273806249999467,
                    "durationTicks": 33,
                    "midi": 38,
                    "name": "D2",
                    "ticks": 61920,
                    "time": 61.42851,
                    "velocity": 0.889763779527559
                },
                {
                    "duration": 0.03273806249999467,
                    "durationTicks": 33,
                    "midi": 42,
                    "name": "F#2",
                    "ticks": 61920,
                    "time": 61.42851,
                    "velocity": 0.6535433070866141
                },
                {
                    "duration": 0.03273806249999467,
                    "durationTicks": 33,
                    "midi": 42,
                    "name": "F#2",
                    "ticks": 62040,
                    "time": 61.5475575,
                    "velocity": 0.6535433070866141
                },
                {
                    "duration": 0.032738062500001774,
                    "durationTicks": 33,
                    "midi": 46,
                    "name": "A#2",
                    "ticks": 62160,
                    "time": 61.666605,
                    "velocity": 0.6535433070866141
                },
                {
                    "duration": 0.032738062500001774,
                    "durationTicks": 33,
                    "midi": 36,
                    "name": "C2",
                    "ticks": 62400,
                    "time": 61.9047,
                    "velocity": 0.937007874015748
                },
                {
                    "duration": 0.032738062500001774,
                    "durationTicks": 33,
                    "midi": 42,
                    "name": "F#2",
                    "ticks": 62400,
                    "time": 61.9047,
                    "velocity": 0.6535433070866141
                },
                {
                    "duration": 0.032738062500001774,
                    "durationTicks": 33,
                    "midi": 42,
                    "name": "F#2",
                    "ticks": 62520,
                    "time": 62.0237475,
                    "velocity": 0.6535433070866141
                },
                {
                    "duration": 0.03273806249999467,
                    "durationTicks": 33,
                    "midi": 46,
                    "name": "A#2",
                    "ticks": 62640,
                    "time": 62.142795,
                    "velocity": 0.6535433070866141
                },
                {
                    "duration": 0.03273806249999467,
                    "durationTicks": 33,
                    "midi": 36,
                    "name": "C2",
                    "ticks": 62880,
                    "time": 62.38089,
                    "velocity": 0.937007874015748
                },
                {
                    "duration": 0.03273806249999467,
                    "durationTicks": 33,
                    "midi": 38,
                    "name": "D2",
                    "ticks": 62880,
                    "time": 62.38089,
                    "velocity": 0.889763779527559
                },
                {
                    "duration": 0.03273806249999467,
                    "durationTicks": 33,
                    "midi": 42,
                    "name": "F#2",
                    "ticks": 62880,
                    "time": 62.38089,
                    "velocity": 0.6535433070866141
                },
                {
                    "duration": 0.03273806249999467,
                    "durationTicks": 33,
                    "midi": 42,
                    "name": "F#2",
                    "ticks": 63000,
                    "time": 62.4999375,
                    "velocity": 0.6535433070866141
                },
                {
                    "duration": 0.03273806249999467,
                    "durationTicks": 33,
                    "midi": 46,
                    "name": "A#2",
                    "ticks": 63120,
                    "time": 62.618985,
                    "velocity": 0.6535433070866141
                },
                {
                    "duration": 0.03273806249999467,
                    "durationTicks": 33,
                    "midi": 36,
                    "name": "C2",
                    "ticks": 63360,
                    "time": 62.85708,
                    "velocity": 0.937007874015748
                },
                {
                    "duration": 0.03273806249999467,
                    "durationTicks": 33,
                    "midi": 42,
                    "name": "F#2",
                    "ticks": 63360,
                    "time": 62.85708,
                    "velocity": 0.6535433070866141
                },
                {
                    "duration": 0.032738062500001774,
                    "durationTicks": 33,
                    "midi": 42,
                    "name": "F#2",
                    "ticks": 63480,
                    "time": 62.9761275,
                    "velocity": 0.6535433070866141
                },
                {
                    "duration": 0.032738062500001774,
                    "durationTicks": 33,
                    "midi": 46,
                    "name": "A#2",
                    "ticks": 63600,
                    "time": 63.095175,
                    "velocity": 0.6535433070866141
                },
                {
                    "duration": 0.032738062500001774,
                    "durationTicks": 33,
                    "midi": 36,
                    "name": "C2",
                    "ticks": 63840,
                    "time": 63.33327,
                    "velocity": 0.937007874015748
                },
                {
                    "duration": 0.032738062500001774,
                    "durationTicks": 33,
                    "midi": 38,
                    "name": "D2",
                    "ticks": 63840,
                    "time": 63.33327,
                    "velocity": 0.889763779527559
                },
                {
                    "duration": 0.032738062500001774,
                    "durationTicks": 33,
                    "midi": 42,
                    "name": "F#2",
                    "ticks": 63840,
                    "time": 63.33327,
                    "velocity": 0.6535433070866141
                },
                {
                    "duration": 0.03273806249999467,
                    "durationTicks": 33,
                    "midi": 42,
                    "name": "F#2",
                    "ticks": 63960,
                    "time": 63.4523175,
                    "velocity": 0.6535433070866141
                },
                {
                    "duration": 0.03273806249999467,
                    "durationTicks": 33,
                    "midi": 46,
                    "name": "A#2",
                    "ticks": 64080,
                    "time": 63.571365,
                    "velocity": 0.6535433070866141
                },
                {
                    "duration": 0.03273806249999467,
                    "durationTicks": 33,
                    "midi": 36,
                    "name": "C2",
                    "ticks": 64320,
                    "time": 63.80946,
                    "velocity": 0.937007874015748
                },
                {
                    "duration": 0.03273806249999467,
                    "durationTicks": 33,
                    "midi": 42,
                    "name": "F#2",
                    "ticks": 64320,
                    "time": 63.80946,
                    "velocity": 0.6535433070866141
                },
                {
                    "duration": 0.03273806249999467,
                    "durationTicks": 33,
                    "midi": 42,
                    "name": "F#2",
                    "ticks": 64440,
                    "time": 63.9285075,
                    "velocity": 0.6535433070866141
                },
                {
                    "duration": 0.032738062500001774,
                    "durationTicks": 33,
                    "midi": 46,
                    "name": "A#2",
                    "ticks": 64560,
                    "time": 64.047555,
                    "velocity": 0.6535433070866141
                },
                {
                    "duration": 0.032738062499987564,
                    "durationTicks": 33,
                    "midi": 36,
                    "name": "C2",
                    "ticks": 64800,
                    "time": 64.28565,
                    "velocity": 0.937007874015748
                },
                {
                    "duration": 0.032738062499987564,
                    "durationTicks": 33,
                    "midi": 38,
                    "name": "D2",
                    "ticks": 64800,
                    "time": 64.28565,
                    "velocity": 0.889763779527559
                },
                {
                    "duration": 0.032738062499987564,
                    "durationTicks": 33,
                    "midi": 42,
                    "name": "F#2",
                    "ticks": 64800,
                    "time": 64.28565,
                    "velocity": 0.6535433070866141
                },
                {
                    "duration": 0.032738062500001774,
                    "durationTicks": 33,
                    "midi": 42,
                    "name": "F#2",
                    "ticks": 64920,
                    "time": 64.4046975,
                    "velocity": 0.6535433070866141
                },
                {
                    "duration": 0.032738062499987564,
                    "durationTicks": 33,
                    "midi": 46,
                    "name": "A#2",
                    "ticks": 65040,
                    "time": 64.523745,
                    "velocity": 0.6535433070866141
                },
                {
                    "duration": 0.032738062499987564,
                    "durationTicks": 33,
                    "midi": 36,
                    "name": "C2",
                    "ticks": 65280,
                    "time": 64.76184,
                    "velocity": 0.937007874015748
                },
                {
                    "duration": 0.032738062499987564,
                    "durationTicks": 33,
                    "midi": 42,
                    "name": "F#2",
                    "ticks": 65280,
                    "time": 64.76184,
                    "velocity": 0.6535433070866141
                },
                {
                    "duration": 0.032738062500001774,
                    "durationTicks": 33,
                    "midi": 42,
                    "name": "F#2",
                    "ticks": 65400,
                    "time": 64.8808875,
                    "velocity": 0.6535433070866141
                },
                {
                    "duration": 0.032738062500001774,
                    "durationTicks": 33,
                    "midi": 46,
                    "name": "A#2",
                    "ticks": 65520,
                    "time": 64.999935,
                    "velocity": 0.6535433070866141
                },
                {
                    "duration": 0.032738062500001774,
                    "durationTicks": 33,
                    "midi": 36,
                    "name": "C2",
                    "ticks": 65760,
                    "time": 65.23803,
                    "velocity": 0.937007874015748
                },
                {
                    "duration": 0.032738062500001774,
                    "durationTicks": 33,
                    "midi": 38,
                    "name": "D2",
                    "ticks": 65760,
                    "time": 65.23803,
                    "velocity": 0.889763779527559
                },
                {
                    "duration": 0.032738062500001774,
                    "durationTicks": 33,
                    "midi": 42,
                    "name": "F#2",
                    "ticks": 65760,
                    "time": 65.23803,
                    "velocity": 0.6535433070866141
                },
                {
                    "duration": 0.032738062500001774,
                    "durationTicks": 33,
                    "midi": 42,
                    "name": "F#2",
                    "ticks": 65880,
                    "time": 65.3570775,
                    "velocity": 0.6535433070866141
                },
                {
                    "duration": 0.032738062500001774,
                    "durationTicks": 33,
                    "midi": 46,
                    "name": "A#2",
                    "ticks": 66000,
                    "time": 65.476125,
                    "velocity": 0.6535433070866141
                },
                {
                    "duration": 0.032738062500001774,
                    "durationTicks": 33,
                    "midi": 36,
                    "name": "C2",
                    "ticks": 66240,
                    "time": 65.71422,
                    "velocity": 0.937007874015748
                },
                {
                    "duration": 0.032738062500001774,
                    "durationTicks": 33,
                    "midi": 42,
                    "name": "F#2",
                    "ticks": 66240,
                    "time": 65.71422,
                    "velocity": 0.6535433070866141
                },
                {
                    "duration": 0.032738062499987564,
                    "durationTicks": 33,
                    "midi": 42,
                    "name": "F#2",
                    "ticks": 66360,
                    "time": 65.8332675,
                    "velocity": 0.6535433070866141
                },
                {
                    "duration": 0.032738062500001774,
                    "durationTicks": 33,
                    "midi": 46,
                    "name": "A#2",
                    "ticks": 66480,
                    "time": 65.952315,
                    "velocity": 0.6535433070866141
                },
                {
                    "duration": 0.032738062500001774,
                    "durationTicks": 33,
                    "midi": 36,
                    "name": "C2",
                    "ticks": 66720,
                    "time": 66.19041,
                    "velocity": 0.937007874015748
                },
                {
                    "duration": 0.032738062500001774,
                    "durationTicks": 33,
                    "midi": 38,
                    "name": "D2",
                    "ticks": 66720,
                    "time": 66.19041,
                    "velocity": 0.889763779527559
                },
                {
                    "duration": 0.032738062500001774,
                    "durationTicks": 33,
                    "midi": 42,
                    "name": "F#2",
                    "ticks": 66720,
                    "time": 66.19041,
                    "velocity": 0.6535433070866141
                },
                {
                    "duration": 0.032738062500001774,
                    "durationTicks": 33,
                    "midi": 42,
                    "name": "F#2",
                    "ticks": 66840,
                    "time": 66.3094575,
                    "velocity": 0.6535433070866141
                },
                {
                    "duration": 0.032738062500001774,
                    "durationTicks": 33,
                    "midi": 46,
                    "name": "A#2",
                    "ticks": 66960,
                    "time": 66.428505,
                    "velocity": 0.6535433070866141
                },
                {
                    "duration": 0.032738062500001774,
                    "durationTicks": 33,
                    "midi": 36,
                    "name": "C2",
                    "ticks": 67200,
                    "time": 66.6666,
                    "velocity": 0.937007874015748
                },
                {
                    "duration": 0.032738062500001774,
                    "durationTicks": 33,
                    "midi": 42,
                    "name": "F#2",
                    "ticks": 67200,
                    "time": 66.6666,
                    "velocity": 0.6535433070866141
                },
                {
                    "duration": 0.032738062500001774,
                    "durationTicks": 33,
                    "midi": 42,
                    "name": "F#2",
                    "ticks": 67320,
                    "time": 66.7856475,
                    "velocity": 0.6535433070866141
                },
                {
                    "duration": 0.032738062499987564,
                    "durationTicks": 33,
                    "midi": 46,
                    "name": "A#2",
                    "ticks": 67440,
                    "time": 66.904695,
                    "velocity": 0.6535433070866141
                },
                {
                    "duration": 0.032738062499987564,
                    "durationTicks": 33,
                    "midi": 36,
                    "name": "C2",
                    "ticks": 67680,
                    "time": 67.14279,
                    "velocity": 0.937007874015748
                },
                {
                    "duration": 0.032738062499987564,
                    "durationTicks": 33,
                    "midi": 38,
                    "name": "D2",
                    "ticks": 67680,
                    "time": 67.14279,
                    "velocity": 0.889763779527559
                },
                {
                    "duration": 0.032738062499987564,
                    "durationTicks": 33,
                    "midi": 42,
                    "name": "F#2",
                    "ticks": 67680,
                    "time": 67.14279,
                    "velocity": 0.6535433070866141
                },
                {
                    "duration": 0.032738062500001774,
                    "durationTicks": 33,
                    "midi": 42,
                    "name": "F#2",
                    "ticks": 67800,
                    "time": 67.2618375,
                    "velocity": 0.6535433070866141
                },
                {
                    "duration": 0.032738062499987564,
                    "durationTicks": 33,
                    "midi": 46,
                    "name": "A#2",
                    "ticks": 67920,
                    "time": 67.380885,
                    "velocity": 0.6535433070866141
                },
                {
                    "duration": 0.032738062500001774,
                    "durationTicks": 33,
                    "midi": 36,
                    "name": "C2",
                    "ticks": 68160,
                    "time": 67.61898,
                    "velocity": 0.937007874015748
                },
                {
                    "duration": 0.032738062500001774,
                    "durationTicks": 33,
                    "midi": 42,
                    "name": "F#2",
                    "ticks": 68160,
                    "time": 67.61898,
                    "velocity": 0.6535433070866141
                },
                {
                    "duration": 0.032738062500001774,
                    "durationTicks": 33,
                    "midi": 42,
                    "name": "F#2",
                    "ticks": 68280,
                    "time": 67.7380275,
                    "velocity": 0.6535433070866141
                },
                {
                    "duration": 0.032738062500001774,
                    "durationTicks": 33,
                    "midi": 46,
                    "name": "A#2",
                    "ticks": 68400,
                    "time": 67.857075,
                    "velocity": 0.6535433070866141
                },
                {
                    "duration": 0.032738062500001774,
                    "durationTicks": 33,
                    "midi": 36,
                    "name": "C2",
                    "ticks": 68640,
                    "time": 68.09517,
                    "velocity": 0.937007874015748
                },
                {
                    "duration": 0.032738062500001774,
                    "durationTicks": 33,
                    "midi": 38,
                    "name": "D2",
                    "ticks": 68640,
                    "time": 68.09517,
                    "velocity": 0.889763779527559
                },
                {
                    "duration": 0.032738062500001774,
                    "durationTicks": 33,
                    "midi": 42,
                    "name": "F#2",
                    "ticks": 68640,
                    "time": 68.09517,
                    "velocity": 0.6535433070866141
                },
                {
                    "duration": 0.032738062499987564,
                    "durationTicks": 33,
                    "midi": 42,
                    "name": "F#2",
                    "ticks": 68760,
                    "time": 68.2142175,
                    "velocity": 0.6535433070866141
                },
                {
                    "duration": 0.032738062500001774,
                    "durationTicks": 33,
                    "midi": 46,
                    "name": "A#2",
                    "ticks": 68880,
                    "time": 68.333265,
                    "velocity": 0.6535433070866141
                },
                {
                    "duration": 0.032738062500001774,
                    "durationTicks": 33,
                    "midi": 36,
                    "name": "C2",
                    "ticks": 69120,
                    "time": 68.57136,
                    "velocity": 0.937007874015748
                },
                {
                    "duration": 0.032738062500001774,
                    "durationTicks": 33,
                    "midi": 42,
                    "name": "F#2",
                    "ticks": 69120,
                    "time": 68.57136,
                    "velocity": 0.6535433070866141
                },
                {
                    "duration": 0.032738062500001774,
                    "durationTicks": 33,
                    "midi": 57,
                    "name": "A3",
                    "ticks": 69120,
                    "time": 68.57136,
                    "velocity": 0.6850393700787402
                },
                {
                    "duration": 0.032738062499987564,
                    "durationTicks": 33,
                    "midi": 42,
                    "name": "F#2",
                    "ticks": 69240,
                    "time": 68.6904075,
                    "velocity": 0.6535433070866141
                },
                {
                    "duration": 0.032738062500001774,
                    "durationTicks": 33,
                    "midi": 46,
                    "name": "A#2",
                    "ticks": 69360,
                    "time": 68.809455,
                    "velocity": 0.6535433070866141
                },
                {
                    "duration": 0.032738062500001774,
                    "durationTicks": 33,
                    "midi": 36,
                    "name": "C2",
                    "ticks": 69600,
                    "time": 69.04755,
                    "velocity": 0.937007874015748
                },
                {
                    "duration": 0.032738062500001774,
                    "durationTicks": 33,
                    "midi": 38,
                    "name": "D2",
                    "ticks": 69600,
                    "time": 69.04755,
                    "velocity": 0.889763779527559
                },
                {
                    "duration": 0.032738062500001774,
                    "durationTicks": 33,
                    "midi": 42,
                    "name": "F#2",
                    "ticks": 69600,
                    "time": 69.04755,
                    "velocity": 0.6535433070866141
                },
                {
                    "duration": 0.032738062500001774,
                    "durationTicks": 33,
                    "midi": 42,
                    "name": "F#2",
                    "ticks": 69720,
                    "time": 69.1665975,
                    "velocity": 0.6535433070866141
                },
                {
                    "duration": 0.032738062500001774,
                    "durationTicks": 33,
                    "midi": 46,
                    "name": "A#2",
                    "ticks": 69840,
                    "time": 69.285645,
                    "velocity": 0.6535433070866141
                },
                {
                    "duration": 0.032738062499987564,
                    "durationTicks": 33,
                    "midi": 36,
                    "name": "C2",
                    "ticks": 70080,
                    "time": 69.52374,
                    "velocity": 0.937007874015748
                },
                {
                    "duration": 0.032738062499987564,
                    "durationTicks": 33,
                    "midi": 42,
                    "name": "F#2",
                    "ticks": 70080,
                    "time": 69.52374,
                    "velocity": 0.6535433070866141
                },
                {
                    "duration": 0.032738062500001774,
                    "durationTicks": 33,
                    "midi": 42,
                    "name": "F#2",
                    "ticks": 70200,
                    "time": 69.6427875,
                    "velocity": 0.6535433070866141
                },
                {
                    "duration": 0.032738062499987564,
                    "durationTicks": 33,
                    "midi": 46,
                    "name": "A#2",
                    "ticks": 70320,
                    "time": 69.761835,
                    "velocity": 0.6535433070866141
                },
                {
                    "duration": 0.032738062499987564,
                    "durationTicks": 33,
                    "midi": 36,
                    "name": "C2",
                    "ticks": 70560,
                    "time": 69.99993,
                    "velocity": 0.937007874015748
                },
                {
                    "duration": 0.032738062499987564,
                    "durationTicks": 33,
                    "midi": 38,
                    "name": "D2",
                    "ticks": 70560,
                    "time": 69.99993,
                    "velocity": 0.889763779527559
                },
                {
                    "duration": 0.032738062499987564,
                    "durationTicks": 33,
                    "midi": 42,
                    "name": "F#2",
                    "ticks": 70560,
                    "time": 69.99993,
                    "velocity": 0.6535433070866141
                },
                {
                    "duration": 0.032738062500001774,
                    "durationTicks": 33,
                    "midi": 42,
                    "name": "F#2",
                    "ticks": 70680,
                    "time": 70.1189775,
                    "velocity": 0.6535433070866141
                },
                {
                    "duration": 0.032738062500001774,
                    "durationTicks": 33,
                    "midi": 46,
                    "name": "A#2",
                    "ticks": 70800,
                    "time": 70.238025,
                    "velocity": 0.6535433070866141
                },
                {
                    "duration": 0.032738062500001774,
                    "durationTicks": 33,
                    "midi": 36,
                    "name": "C2",
                    "ticks": 71040,
                    "time": 70.47612,
                    "velocity": 0.937007874015748
                },
                {
                    "duration": 0.032738062500001774,
                    "durationTicks": 33,
                    "midi": 42,
                    "name": "F#2",
                    "ticks": 71040,
                    "time": 70.47612,
                    "velocity": 0.6535433070866141
                },
                {
                    "duration": 0.032738062500001774,
                    "durationTicks": 33,
                    "midi": 42,
                    "name": "F#2",
                    "ticks": 71160,
                    "time": 70.5951675,
                    "velocity": 0.6535433070866141
                },
                {
                    "duration": 0.032738062500001774,
                    "durationTicks": 33,
                    "midi": 46,
                    "name": "A#2",
                    "ticks": 71280,
                    "time": 70.714215,
                    "velocity": 0.6535433070866141
                },
                {
                    "duration": 0.032738062500001774,
                    "durationTicks": 33,
                    "midi": 36,
                    "name": "C2",
                    "ticks": 71520,
                    "time": 70.95231,
                    "velocity": 0.937007874015748
                },
                {
                    "duration": 0.032738062500001774,
                    "durationTicks": 33,
                    "midi": 38,
                    "name": "D2",
                    "ticks": 71520,
                    "time": 70.95231,
                    "velocity": 0.889763779527559
                },
                {
                    "duration": 0.032738062500001774,
                    "durationTicks": 33,
                    "midi": 42,
                    "name": "F#2",
                    "ticks": 71520,
                    "time": 70.95231,
                    "velocity": 0.6535433070866141
                },
                {
                    "duration": 0.032738062499987564,
                    "durationTicks": 33,
                    "midi": 42,
                    "name": "F#2",
                    "ticks": 71640,
                    "time": 71.0713575,
                    "velocity": 0.6535433070866141
                },
                {
                    "duration": 0.032738062500001774,
                    "durationTicks": 33,
                    "midi": 46,
                    "name": "A#2",
                    "ticks": 71760,
                    "time": 71.190405,
                    "velocity": 0.6535433070866141
                },
                {
                    "duration": 0.032738062500001774,
                    "durationTicks": 33,
                    "midi": 36,
                    "name": "C2",
                    "ticks": 72000,
                    "time": 71.4285,
                    "velocity": 0.937007874015748
                },
                {
                    "duration": 0.032738062500001774,
                    "durationTicks": 33,
                    "midi": 42,
                    "name": "F#2",
                    "ticks": 72000,
                    "time": 71.4285,
                    "velocity": 0.6535433070866141
                },
                {
                    "duration": 0.032738062499987564,
                    "durationTicks": 33,
                    "midi": 42,
                    "name": "F#2",
                    "ticks": 72120,
                    "time": 71.54754750000001,
                    "velocity": 0.6535433070866141
                },
                {
                    "duration": 0.032738062500001774,
                    "durationTicks": 33,
                    "midi": 46,
                    "name": "A#2",
                    "ticks": 72240,
                    "time": 71.666595,
                    "velocity": 0.6535433070866141
                },
                {
                    "duration": 0.032738062500001774,
                    "durationTicks": 33,
                    "midi": 36,
                    "name": "C2",
                    "ticks": 72480,
                    "time": 71.90469,
                    "velocity": 0.937007874015748
                },
                {
                    "duration": 0.032738062500001774,
                    "durationTicks": 33,
                    "midi": 38,
                    "name": "D2",
                    "ticks": 72480,
                    "time": 71.90469,
                    "velocity": 0.889763779527559
                },
                {
                    "duration": 0.032738062500001774,
                    "durationTicks": 33,
                    "midi": 42,
                    "name": "F#2",
                    "ticks": 72480,
                    "time": 71.90469,
                    "velocity": 0.6535433070866141
                },
                {
                    "duration": 0.032738062500001774,
                    "durationTicks": 33,
                    "midi": 42,
                    "name": "F#2",
                    "ticks": 72600,
                    "time": 72.0237375,
                    "velocity": 0.6535433070866141
                },
                {
                    "duration": 0.032738062499987564,
                    "durationTicks": 33,
                    "midi": 46,
                    "name": "A#2",
                    "ticks": 72720,
                    "time": 72.142785,
                    "velocity": 0.6535433070866141
                },
                {
                    "duration": 0.032738062499987564,
                    "durationTicks": 33,
                    "midi": 36,
                    "name": "C2",
                    "ticks": 72960,
                    "time": 72.38088,
                    "velocity": 0.937007874015748
                },
                {
                    "duration": 0.032738062499987564,
                    "durationTicks": 33,
                    "midi": 42,
                    "name": "F#2",
                    "ticks": 72960,
                    "time": 72.38088,
                    "velocity": 0.6535433070866141
                },
                {
                    "duration": 0.032738062500001774,
                    "durationTicks": 33,
                    "midi": 42,
                    "name": "F#2",
                    "ticks": 73080,
                    "time": 72.4999275,
                    "velocity": 0.6535433070866141
                },
                {
                    "duration": 0.032738062499987564,
                    "durationTicks": 33,
                    "midi": 46,
                    "name": "A#2",
                    "ticks": 73200,
                    "time": 72.618975,
                    "velocity": 0.6535433070866141
                },
                {
                    "duration": 0.032738062499987564,
                    "durationTicks": 33,
                    "midi": 36,
                    "name": "C2",
                    "ticks": 73440,
                    "time": 72.85707000000001,
                    "velocity": 0.937007874015748
                },
                {
                    "duration": 0.032738062499987564,
                    "durationTicks": 33,
                    "midi": 38,
                    "name": "D2",
                    "ticks": 73440,
                    "time": 72.85707000000001,
                    "velocity": 0.889763779527559
                },
                {
                    "duration": 0.032738062499987564,
                    "durationTicks": 33,
                    "midi": 42,
                    "name": "F#2",
                    "ticks": 73440,
                    "time": 72.85707000000001,
                    "velocity": 0.6535433070866141
                },
                {
                    "duration": 0.032738062500001774,
                    "durationTicks": 33,
                    "midi": 42,
                    "name": "F#2",
                    "ticks": 73560,
                    "time": 72.9761175,
                    "velocity": 0.6535433070866141
                },
                {
                    "duration": 0.032738062500001774,
                    "durationTicks": 33,
                    "midi": 46,
                    "name": "A#2",
                    "ticks": 73680,
                    "time": 73.095165,
                    "velocity": 0.6535433070866141
                },
                {
                    "duration": 0.032738062500001774,
                    "durationTicks": 33,
                    "midi": 36,
                    "name": "C2",
                    "ticks": 73920,
                    "time": 73.33326,
                    "velocity": 0.937007874015748
                },
                {
                    "duration": 0.032738062500001774,
                    "durationTicks": 33,
                    "midi": 42,
                    "name": "F#2",
                    "ticks": 73920,
                    "time": 73.33326,
                    "velocity": 0.6535433070866141
                },
                {
                    "duration": 0.032738062499987564,
                    "durationTicks": 33,
                    "midi": 42,
                    "name": "F#2",
                    "ticks": 74040,
                    "time": 73.4523075,
                    "velocity": 0.6535433070866141
                },
                {
                    "duration": 0.032738062500001774,
                    "durationTicks": 33,
                    "midi": 46,
                    "name": "A#2",
                    "ticks": 74160,
                    "time": 73.571355,
                    "velocity": 0.6535433070866141
                },
                {
                    "duration": 0.032738062500001774,
                    "durationTicks": 33,
                    "midi": 36,
                    "name": "C2",
                    "ticks": 74400,
                    "time": 73.80945,
                    "velocity": 0.937007874015748
                },
                {
                    "duration": 0.032738062500001774,
                    "durationTicks": 33,
                    "midi": 38,
                    "name": "D2",
                    "ticks": 74400,
                    "time": 73.80945,
                    "velocity": 0.889763779527559
                },
                {
                    "duration": 0.032738062500001774,
                    "durationTicks": 33,
                    "midi": 42,
                    "name": "F#2",
                    "ticks": 74400,
                    "time": 73.80945,
                    "velocity": 0.6535433070866141
                },
                {
                    "duration": 0.032738062499987564,
                    "durationTicks": 33,
                    "midi": 42,
                    "name": "F#2",
                    "ticks": 74520,
                    "time": 73.9284975,
                    "velocity": 0.6535433070866141
                },
                {
                    "duration": 0.032738062500001774,
                    "durationTicks": 33,
                    "midi": 46,
                    "name": "A#2",
                    "ticks": 74640,
                    "time": 74.047545,
                    "velocity": 0.6535433070866141
                },
                {
                    "duration": 0.032738062500001774,
                    "durationTicks": 33,
                    "midi": 36,
                    "name": "C2",
                    "ticks": 74880,
                    "time": 74.28564,
                    "velocity": 0.937007874015748
                },
                {
                    "duration": 0.032738062500001774,
                    "durationTicks": 33,
                    "midi": 42,
                    "name": "F#2",
                    "ticks": 74880,
                    "time": 74.28564,
                    "velocity": 0.6535433070866141
                },
                {
                    "duration": 0.032738062500001774,
                    "durationTicks": 33,
                    "midi": 42,
                    "name": "F#2",
                    "ticks": 75000,
                    "time": 74.4046875,
                    "velocity": 0.6535433070866141
                },
                {
                    "duration": 0.032738062500001774,
                    "durationTicks": 33,
                    "midi": 46,
                    "name": "A#2",
                    "ticks": 75120,
                    "time": 74.523735,
                    "velocity": 0.6535433070866141
                },
                {
                    "duration": 0.032738062499987564,
                    "durationTicks": 33,
                    "midi": 36,
                    "name": "C2",
                    "ticks": 75360,
                    "time": 74.76183,
                    "velocity": 0.937007874015748
                },
                {
                    "duration": 0.032738062499987564,
                    "durationTicks": 33,
                    "midi": 38,
                    "name": "D2",
                    "ticks": 75360,
                    "time": 74.76183,
                    "velocity": 0.889763779527559
                },
                {
                    "duration": 0.032738062499987564,
                    "durationTicks": 33,
                    "midi": 42,
                    "name": "F#2",
                    "ticks": 75360,
                    "time": 74.76183,
                    "velocity": 0.6535433070866141
                },
                {
                    "duration": 0.032738062500001774,
                    "durationTicks": 33,
                    "midi": 42,
                    "name": "F#2",
                    "ticks": 75480,
                    "time": 74.8808775,
                    "velocity": 0.6535433070866141
                },
                {
                    "duration": 0.032738062499987564,
                    "durationTicks": 33,
                    "midi": 46,
                    "name": "A#2",
                    "ticks": 75600,
                    "time": 74.999925,
                    "velocity": 0.6535433070866141
                },
                {
                    "duration": 0.032738062499987564,
                    "durationTicks": 33,
                    "midi": 36,
                    "name": "C2",
                    "ticks": 75840,
                    "time": 75.23802,
                    "velocity": 0.937007874015748
                },
                {
                    "duration": 0.032738062499987564,
                    "durationTicks": 33,
                    "midi": 42,
                    "name": "F#2",
                    "ticks": 75840,
                    "time": 75.23802,
                    "velocity": 0.6535433070866141
                },
                {
                    "duration": 0.032738062500001774,
                    "durationTicks": 33,
                    "midi": 42,
                    "name": "F#2",
                    "ticks": 75960,
                    "time": 75.3570675,
                    "velocity": 0.6535433070866141
                },
                {
                    "duration": 0.032738062499987564,
                    "durationTicks": 33,
                    "midi": 46,
                    "name": "A#2",
                    "ticks": 76080,
                    "time": 75.47611500000001,
                    "velocity": 0.6535433070866141
                },
                {
                    "duration": 0.032738062500001774,
                    "durationTicks": 33,
                    "midi": 36,
                    "name": "C2",
                    "ticks": 76320,
                    "time": 75.71421,
                    "velocity": 0.937007874015748
                },
                {
                    "duration": 0.032738062500001774,
                    "durationTicks": 33,
                    "midi": 38,
                    "name": "D2",
                    "ticks": 76320,
                    "time": 75.71421,
                    "velocity": 0.889763779527559
                },
                {
                    "duration": 0.032738062500001774,
                    "durationTicks": 33,
                    "midi": 42,
                    "name": "F#2",
                    "ticks": 76320,
                    "time": 75.71421,
                    "velocity": 0.6535433070866141
                },
                {
                    "duration": 0.032738062500001774,
                    "durationTicks": 33,
                    "midi": 42,
                    "name": "F#2",
                    "ticks": 76440,
                    "time": 75.8332575,
                    "velocity": 0.6535433070866141
                },
                {
                    "duration": 0.032738062500001774,
                    "durationTicks": 33,
                    "midi": 46,
                    "name": "A#2",
                    "ticks": 76560,
                    "time": 75.952305,
                    "velocity": 0.6535433070866141
                },
                {
                    "duration": 0.032738062500001774,
                    "durationTicks": 33,
                    "midi": 36,
                    "name": "C2",
                    "ticks": 76800,
                    "time": 76.1904,
                    "velocity": 0.937007874015748
                },
                {
                    "duration": 0.032738062500001774,
                    "durationTicks": 33,
                    "midi": 42,
                    "name": "F#2",
                    "ticks": 76800,
                    "time": 76.1904,
                    "velocity": 0.6535433070866141
                },
                {
                    "duration": 0.032738062500001774,
                    "durationTicks": 33,
                    "midi": 57,
                    "name": "A3",
                    "ticks": 76800,
                    "time": 76.1904,
                    "velocity": 0.6850393700787402
                },
                {
                    "duration": 0.032738062499987564,
                    "durationTicks": 33,
                    "midi": 42,
                    "name": "F#2",
                    "ticks": 76920,
                    "time": 76.3094475,
                    "velocity": 0.6535433070866141
                },
                {
                    "duration": 0.032738062500001774,
                    "durationTicks": 33,
                    "midi": 46,
                    "name": "A#2",
                    "ticks": 77040,
                    "time": 76.428495,
                    "velocity": 0.6535433070866141
                },
                {
                    "duration": 0.032738062500001774,
                    "durationTicks": 33,
                    "midi": 36,
                    "name": "C2",
                    "ticks": 77280,
                    "time": 76.66659,
                    "velocity": 0.937007874015748
                },
                {
                    "duration": 0.032738062500001774,
                    "durationTicks": 33,
                    "midi": 38,
                    "name": "D2",
                    "ticks": 77280,
                    "time": 76.66659,
                    "velocity": 0.889763779527559
                },
                {
                    "duration": 0.032738062500001774,
                    "durationTicks": 33,
                    "midi": 42,
                    "name": "F#2",
                    "ticks": 77280,
                    "time": 76.66659,
                    "velocity": 0.6535433070866141
                },
                {
                    "duration": 0.032738062499987564,
                    "durationTicks": 33,
                    "midi": 42,
                    "name": "F#2",
                    "ticks": 77400,
                    "time": 76.7856375,
                    "velocity": 0.6535433070866141
                },
                {
                    "duration": 0.032738062500001774,
                    "durationTicks": 33,
                    "midi": 46,
                    "name": "A#2",
                    "ticks": 77520,
                    "time": 76.904685,
                    "velocity": 0.6535433070866141
                },
                {
                    "duration": 0.032738062500001774,
                    "durationTicks": 33,
                    "midi": 36,
                    "name": "C2",
                    "ticks": 77760,
                    "time": 77.14278,
                    "velocity": 0.937007874015748
                },
                {
                    "duration": 0.032738062500001774,
                    "durationTicks": 33,
                    "midi": 42,
                    "name": "F#2",
                    "ticks": 77760,
                    "time": 77.14278,
                    "velocity": 0.6535433070866141
                },
                {
                    "duration": 0.032738062500001774,
                    "durationTicks": 33,
                    "midi": 42,
                    "name": "F#2",
                    "ticks": 77880,
                    "time": 77.2618275,
                    "velocity": 0.6535433070866141
                },
                {
                    "duration": 0.032738062499987564,
                    "durationTicks": 33,
                    "midi": 46,
                    "name": "A#2",
                    "ticks": 78000,
                    "time": 77.380875,
                    "velocity": 0.6535433070866141
                },
                {
                    "duration": 0.032738062499987564,
                    "durationTicks": 33,
                    "midi": 36,
                    "name": "C2",
                    "ticks": 78240,
                    "time": 77.61897,
                    "velocity": 0.937007874015748
                },
                {
                    "duration": 0.032738062499987564,
                    "durationTicks": 33,
                    "midi": 38,
                    "name": "D2",
                    "ticks": 78240,
                    "time": 77.61897,
                    "velocity": 0.889763779527559
                },
                {
                    "duration": 0.032738062499987564,
                    "durationTicks": 33,
                    "midi": 42,
                    "name": "F#2",
                    "ticks": 78240,
                    "time": 77.61897,
                    "velocity": 0.6535433070866141
                },
                {
                    "duration": 0.032738062500001774,
                    "durationTicks": 33,
                    "midi": 42,
                    "name": "F#2",
                    "ticks": 78360,
                    "time": 77.7380175,
                    "velocity": 0.6535433070866141
                },
                {
                    "duration": 0.032738062499987564,
                    "durationTicks": 33,
                    "midi": 46,
                    "name": "A#2",
                    "ticks": 78480,
                    "time": 77.857065,
                    "velocity": 0.6535433070866141
                },
                {
                    "duration": 0.032738062499987564,
                    "durationTicks": 33,
                    "midi": 36,
                    "name": "C2",
                    "ticks": 78720,
                    "time": 78.09516,
                    "velocity": 0.937007874015748
                },
                {
                    "duration": 0.032738062499987564,
                    "durationTicks": 33,
                    "midi": 42,
                    "name": "F#2",
                    "ticks": 78720,
                    "time": 78.09516,
                    "velocity": 0.6535433070866141
                },
                {
                    "duration": 0.032738062500001774,
                    "durationTicks": 33,
                    "midi": 42,
                    "name": "F#2",
                    "ticks": 78840,
                    "time": 78.2142075,
                    "velocity": 0.6535433070866141
                },
                {
                    "duration": 0.032738062500001774,
                    "durationTicks": 33,
                    "midi": 46,
                    "name": "A#2",
                    "ticks": 78960,
                    "time": 78.333255,
                    "velocity": 0.6535433070866141
                },
                {
                    "duration": 0.032738062500001774,
                    "durationTicks": 33,
                    "midi": 36,
                    "name": "C2",
                    "ticks": 79200,
                    "time": 78.57135,
                    "velocity": 0.937007874015748
                },
                {
                    "duration": 0.032738062500001774,
                    "durationTicks": 33,
                    "midi": 38,
                    "name": "D2",
                    "ticks": 79200,
                    "time": 78.57135,
                    "velocity": 0.889763779527559
                },
                {
                    "duration": 0.032738062500001774,
                    "durationTicks": 33,
                    "midi": 42,
                    "name": "F#2",
                    "ticks": 79200,
                    "time": 78.57135,
                    "velocity": 0.6535433070866141
                },
                {
                    "duration": 0.032738062499987564,
                    "durationTicks": 33,
                    "midi": 42,
                    "name": "F#2",
                    "ticks": 79320,
                    "time": 78.6903975,
                    "velocity": 0.6535433070866141
                },
                {
                    "duration": 0.032738062500001774,
                    "durationTicks": 33,
                    "midi": 46,
                    "name": "A#2",
                    "ticks": 79440,
                    "time": 78.809445,
                    "velocity": 0.6535433070866141
                },
                {
                    "duration": 0.032738062500001774,
                    "durationTicks": 33,
                    "midi": 36,
                    "name": "C2",
                    "ticks": 79680,
                    "time": 79.04754,
                    "velocity": 0.937007874015748
                },
                {
                    "duration": 0.032738062500001774,
                    "durationTicks": 33,
                    "midi": 42,
                    "name": "F#2",
                    "ticks": 79680,
                    "time": 79.04754,
                    "velocity": 0.6535433070866141
                },
                {
                    "duration": 0.032738062499987564,
                    "durationTicks": 33,
                    "midi": 42,
                    "name": "F#2",
                    "ticks": 79800,
                    "time": 79.1665875,
                    "velocity": 0.6535433070866141
                },
                {
                    "duration": 0.032738062500001774,
                    "durationTicks": 33,
                    "midi": 46,
                    "name": "A#2",
                    "ticks": 79920,
                    "time": 79.285635,
                    "velocity": 0.6535433070866141
                },
                {
                    "duration": 0.032738062500001774,
                    "durationTicks": 33,
                    "midi": 36,
                    "name": "C2",
                    "ticks": 80160,
                    "time": 79.52373,
                    "velocity": 0.937007874015748
                },
                {
                    "duration": 0.032738062500001774,
                    "durationTicks": 33,
                    "midi": 38,
                    "name": "D2",
                    "ticks": 80160,
                    "time": 79.52373,
                    "velocity": 0.889763779527559
                },
                {
                    "duration": 0.032738062500001774,
                    "durationTicks": 33,
                    "midi": 42,
                    "name": "F#2",
                    "ticks": 80160,
                    "time": 79.52373,
                    "velocity": 0.6535433070866141
                },
                {
                    "duration": 0.032738062500001774,
                    "durationTicks": 33,
                    "midi": 42,
                    "name": "F#2",
                    "ticks": 80280,
                    "time": 79.6427775,
                    "velocity": 0.6535433070866141
                },
                {
                    "duration": 0.032738062500001774,
                    "durationTicks": 33,
                    "midi": 46,
                    "name": "A#2",
                    "ticks": 80400,
                    "time": 79.761825,
                    "velocity": 0.6535433070866141
                },
                {
                    "duration": 0.032738062499987564,
                    "durationTicks": 33,
                    "midi": 36,
                    "name": "C2",
                    "ticks": 80640,
                    "time": 79.99992,
                    "velocity": 0.937007874015748
                },
                {
                    "duration": 0.032738062499987564,
                    "durationTicks": 33,
                    "midi": 42,
                    "name": "F#2",
                    "ticks": 80640,
                    "time": 79.99992,
                    "velocity": 0.6535433070866141
                },
                {
                    "duration": 0.032738062500001774,
                    "durationTicks": 33,
                    "midi": 42,
                    "name": "F#2",
                    "ticks": 80760,
                    "time": 80.1189675,
                    "velocity": 0.6535433070866141
                },
                {
                    "duration": 0.032738062499987564,
                    "durationTicks": 33,
                    "midi": 46,
                    "name": "A#2",
                    "ticks": 80880,
                    "time": 80.238015,
                    "velocity": 0.6535433070866141
                },
                {
                    "duration": 0.032738062499987564,
                    "durationTicks": 33,
                    "midi": 36,
                    "name": "C2",
                    "ticks": 81120,
                    "time": 80.47611,
                    "velocity": 0.937007874015748
                },
                {
                    "duration": 0.032738062499987564,
                    "durationTicks": 33,
                    "midi": 38,
                    "name": "D2",
                    "ticks": 81120,
                    "time": 80.47611,
                    "velocity": 0.889763779527559
                },
                {
                    "duration": 0.032738062499987564,
                    "durationTicks": 33,
                    "midi": 42,
                    "name": "F#2",
                    "ticks": 81120,
                    "time": 80.47611,
                    "velocity": 0.6535433070866141
                },
                {
                    "duration": 0.032738062500001774,
                    "durationTicks": 33,
                    "midi": 42,
                    "name": "F#2",
                    "ticks": 81240,
                    "time": 80.5951575,
                    "velocity": 0.6535433070866141
                },
                {
                    "duration": 0.032738062499987564,
                    "durationTicks": 33,
                    "midi": 46,
                    "name": "A#2",
                    "ticks": 81360,
                    "time": 80.714205,
                    "velocity": 0.6535433070866141
                },
                {
                    "duration": 0.032738062500001774,
                    "durationTicks": 33,
                    "midi": 36,
                    "name": "C2",
                    "ticks": 81600,
                    "time": 80.9523,
                    "velocity": 0.937007874015748
                },
                {
                    "duration": 0.032738062500001774,
                    "durationTicks": 33,
                    "midi": 42,
                    "name": "F#2",
                    "ticks": 81600,
                    "time": 80.9523,
                    "velocity": 0.6535433070866141
                },
                {
                    "duration": 0.032738062500001774,
                    "durationTicks": 33,
                    "midi": 42,
                    "name": "F#2",
                    "ticks": 81720,
                    "time": 81.0713475,
                    "velocity": 0.6535433070866141
                },
                {
                    "duration": 0.032738062500001774,
                    "durationTicks": 33,
                    "midi": 46,
                    "name": "A#2",
                    "ticks": 81840,
                    "time": 81.190395,
                    "velocity": 0.6535433070866141
                },
                {
                    "duration": 0.032738062500001774,
                    "durationTicks": 33,
                    "midi": 36,
                    "name": "C2",
                    "ticks": 82080,
                    "time": 81.42849,
                    "velocity": 0.937007874015748
                },
                {
                    "duration": 0.032738062500001774,
                    "durationTicks": 33,
                    "midi": 38,
                    "name": "D2",
                    "ticks": 82080,
                    "time": 81.42849,
                    "velocity": 0.889763779527559
                },
                {
                    "duration": 0.032738062500001774,
                    "durationTicks": 33,
                    "midi": 42,
                    "name": "F#2",
                    "ticks": 82080,
                    "time": 81.42849,
                    "velocity": 0.6535433070866141
                },
                {
                    "duration": 0.032738062499987564,
                    "durationTicks": 33,
                    "midi": 42,
                    "name": "F#2",
                    "ticks": 82200,
                    "time": 81.5475375,
                    "velocity": 0.6535433070866141
                },
                {
                    "duration": 0.032738062500001774,
                    "durationTicks": 33,
                    "midi": 46,
                    "name": "A#2",
                    "ticks": 82320,
                    "time": 81.666585,
                    "velocity": 0.6535433070866141
                },
                {
                    "duration": 0.032738062500001774,
                    "durationTicks": 33,
                    "midi": 36,
                    "name": "C2",
                    "ticks": 82560,
                    "time": 81.90468,
                    "velocity": 0.937007874015748
                },
                {
                    "duration": 0.032738062500001774,
                    "durationTicks": 33,
                    "midi": 42,
                    "name": "F#2",
                    "ticks": 82560,
                    "time": 81.90468,
                    "velocity": 0.6535433070866141
                },
                {
                    "duration": 0.032738062499987564,
                    "durationTicks": 33,
                    "midi": 42,
                    "name": "F#2",
                    "ticks": 82680,
                    "time": 82.0237275,
                    "velocity": 0.6535433070866141
                },
                {
                    "duration": 0.032738062500001774,
                    "durationTicks": 33,
                    "midi": 46,
                    "name": "A#2",
                    "ticks": 82800,
                    "time": 82.142775,
                    "velocity": 0.6535433070866141
                },
                {
                    "duration": 0.032738062500001774,
                    "durationTicks": 33,
                    "midi": 36,
                    "name": "C2",
                    "ticks": 83040,
                    "time": 82.38087,
                    "velocity": 0.937007874015748
                },
                {
                    "duration": 0.032738062500001774,
                    "durationTicks": 33,
                    "midi": 38,
                    "name": "D2",
                    "ticks": 83040,
                    "time": 82.38087,
                    "velocity": 0.889763779527559
                },
                {
                    "duration": 0.032738062500001774,
                    "durationTicks": 33,
                    "midi": 42,
                    "name": "F#2",
                    "ticks": 83040,
                    "time": 82.38087,
                    "velocity": 0.6535433070866141
                },
                {
                    "duration": 0.032738062500001774,
                    "durationTicks": 33,
                    "midi": 42,
                    "name": "F#2",
                    "ticks": 83160,
                    "time": 82.4999175,
                    "velocity": 0.6535433070866141
                },
                {
                    "duration": 0.032738062500001774,
                    "durationTicks": 33,
                    "midi": 46,
                    "name": "A#2",
                    "ticks": 83280,
                    "time": 82.618965,
                    "velocity": 0.6535433070866141
                },
                {
                    "duration": 0.032738062499987564,
                    "durationTicks": 33,
                    "midi": 36,
                    "name": "C2",
                    "ticks": 83520,
                    "time": 82.85706,
                    "velocity": 0.937007874015748
                },
                {
                    "duration": 0.032738062499987564,
                    "durationTicks": 33,
                    "midi": 42,
                    "name": "F#2",
                    "ticks": 83520,
                    "time": 82.85706,
                    "velocity": 0.6535433070866141
                },
                {
                    "duration": 0.032738062500001774,
                    "durationTicks": 33,
                    "midi": 42,
                    "name": "F#2",
                    "ticks": 83640,
                    "time": 82.9761075,
                    "velocity": 0.6535433070866141
                },
                {
                    "duration": 0.032738062499987564,
                    "durationTicks": 33,
                    "midi": 46,
                    "name": "A#2",
                    "ticks": 83760,
                    "time": 83.095155,
                    "velocity": 0.6535433070866141
                },
                {
                    "duration": 0.032738062499987564,
                    "durationTicks": 33,
                    "midi": 36,
                    "name": "C2",
                    "ticks": 84000,
                    "time": 83.33325,
                    "velocity": 0.937007874015748
                },
                {
                    "duration": 0.032738062499987564,
                    "durationTicks": 33,
                    "midi": 38,
                    "name": "D2",
                    "ticks": 84000,
                    "time": 83.33325,
                    "velocity": 0.889763779527559
                },
                {
                    "duration": 0.032738062499987564,
                    "durationTicks": 33,
                    "midi": 42,
                    "name": "F#2",
                    "ticks": 84000,
                    "time": 83.33325,
                    "velocity": 0.6535433070866141
                },
                {
                    "duration": 0.032738062500001774,
                    "durationTicks": 33,
                    "midi": 42,
                    "name": "F#2",
                    "ticks": 84120,
                    "time": 83.4522975,
                    "velocity": 0.6535433070866141
                },
                {
                    "duration": 0.032738062500001774,
                    "durationTicks": 33,
                    "midi": 46,
                    "name": "A#2",
                    "ticks": 84240,
                    "time": 83.571345,
                    "velocity": 0.6535433070866141
                },
                {
                    "duration": 0.032738062500001774,
                    "durationTicks": 33,
                    "midi": 36,
                    "name": "C2",
                    "ticks": 84480,
                    "time": 83.80944,
                    "velocity": 0.937007874015748
                },
                {
                    "duration": 0.032738062500001774,
                    "durationTicks": 33,
                    "midi": 42,
                    "name": "F#2",
                    "ticks": 84480,
                    "time": 83.80944,
                    "velocity": 0.6535433070866141
                },
                {
                    "duration": 0.032738062500001774,
                    "durationTicks": 33,
                    "midi": 57,
                    "name": "A3",
                    "ticks": 84480,
                    "time": 83.80944,
                    "velocity": 0.6850393700787402
                },
                {
                    "duration": 0.032738062500001774,
                    "durationTicks": 33,
                    "midi": 42,
                    "name": "F#2",
                    "ticks": 84600,
                    "time": 83.9284875,
                    "velocity": 0.6535433070866141
                },
                {
                    "duration": 0.032738062500001774,
                    "durationTicks": 33,
                    "midi": 46,
                    "name": "A#2",
                    "ticks": 84720,
                    "time": 84.047535,
                    "velocity": 0.6535433070866141
                },
                {
                    "duration": 0.032738062500001774,
                    "durationTicks": 33,
                    "midi": 36,
                    "name": "C2",
                    "ticks": 84960,
                    "time": 84.28563,
                    "velocity": 0.937007874015748
                },
                {
                    "duration": 0.032738062500001774,
                    "durationTicks": 33,
                    "midi": 38,
                    "name": "D2",
                    "ticks": 84960,
                    "time": 84.28563,
                    "velocity": 0.889763779527559
                },
                {
                    "duration": 0.032738062500001774,
                    "durationTicks": 33,
                    "midi": 42,
                    "name": "F#2",
                    "ticks": 84960,
                    "time": 84.28563,
                    "velocity": 0.6535433070866141
                },
                {
                    "duration": 0.032738062499987564,
                    "durationTicks": 33,
                    "midi": 42,
                    "name": "F#2",
                    "ticks": 85080,
                    "time": 84.4046775,
                    "velocity": 0.6535433070866141
                },
                {
                    "duration": 0.032738062500001774,
                    "durationTicks": 33,
                    "midi": 46,
                    "name": "A#2",
                    "ticks": 85200,
                    "time": 84.523725,
                    "velocity": 0.6535433070866141
                },
                {
                    "duration": 0.032738062500001774,
                    "durationTicks": 33,
                    "midi": 36,
                    "name": "C2",
                    "ticks": 85440,
                    "time": 84.76182,
                    "velocity": 0.937007874015748
                },
                {
                    "duration": 0.032738062500001774,
                    "durationTicks": 33,
                    "midi": 42,
                    "name": "F#2",
                    "ticks": 85440,
                    "time": 84.76182,
                    "velocity": 0.6535433070866141
                },
                {
                    "duration": 0.032738062500001774,
                    "durationTicks": 33,
                    "midi": 42,
                    "name": "F#2",
                    "ticks": 85560,
                    "time": 84.8808675,
                    "velocity": 0.6535433070866141
                },
                {
                    "duration": 0.032738062500001774,
                    "durationTicks": 33,
                    "midi": 46,
                    "name": "A#2",
                    "ticks": 85680,
                    "time": 84.999915,
                    "velocity": 0.6535433070866141
                },
                {
                    "duration": 0.032738062500001774,
                    "durationTicks": 33,
                    "midi": 36,
                    "name": "C2",
                    "ticks": 85920,
                    "time": 85.23801,
                    "velocity": 0.937007874015748
                },
                {
                    "duration": 0.032738062500001774,
                    "durationTicks": 33,
                    "midi": 38,
                    "name": "D2",
                    "ticks": 85920,
                    "time": 85.23801,
                    "velocity": 0.889763779527559
                },
                {
                    "duration": 0.032738062500001774,
                    "durationTicks": 33,
                    "midi": 42,
                    "name": "F#2",
                    "ticks": 85920,
                    "time": 85.23801,
                    "velocity": 0.6535433070866141
                },
                {
                    "duration": 0.032738062500001774,
                    "durationTicks": 33,
                    "midi": 42,
                    "name": "F#2",
                    "ticks": 86040,
                    "time": 85.3570575,
                    "velocity": 0.6535433070866141
                },
                {
                    "duration": 0.032738062499987564,
                    "durationTicks": 33,
                    "midi": 46,
                    "name": "A#2",
                    "ticks": 86160,
                    "time": 85.476105,
                    "velocity": 0.6535433070866141
                },
                {
                    "duration": 0.032738062499987564,
                    "durationTicks": 33,
                    "midi": 36,
                    "name": "C2",
                    "ticks": 86400,
                    "time": 85.7142,
                    "velocity": 0.937007874015748
                },
                {
                    "duration": 0.032738062499987564,
                    "durationTicks": 33,
                    "midi": 42,
                    "name": "F#2",
                    "ticks": 86400,
                    "time": 85.7142,
                    "velocity": 0.6535433070866141
                },
                {
                    "duration": 0.032738062500001774,
                    "durationTicks": 33,
                    "midi": 42,
                    "name": "F#2",
                    "ticks": 86520,
                    "time": 85.8332475,
                    "velocity": 0.6535433070866141
                },
                {
                    "duration": 0.032738062499987564,
                    "durationTicks": 33,
                    "midi": 46,
                    "name": "A#2",
                    "ticks": 86640,
                    "time": 85.952295,
                    "velocity": 0.6535433070866141
                },
                {
                    "duration": 0.032738062500001774,
                    "durationTicks": 33,
                    "midi": 36,
                    "name": "C2",
                    "ticks": 86880,
                    "time": 86.19039,
                    "velocity": 0.937007874015748
                },
                {
                    "duration": 0.032738062500001774,
                    "durationTicks": 33,
                    "midi": 38,
                    "name": "D2",
                    "ticks": 86880,
                    "time": 86.19039,
                    "velocity": 0.889763779527559
                },
                {
                    "duration": 0.032738062500001774,
                    "durationTicks": 33,
                    "midi": 42,
                    "name": "F#2",
                    "ticks": 86880,
                    "time": 86.19039,
                    "velocity": 0.6535433070866141
                },
                {
                    "duration": 0.032738062500001774,
                    "durationTicks": 33,
                    "midi": 42,
                    "name": "F#2",
                    "ticks": 87000,
                    "time": 86.3094375,
                    "velocity": 0.6535433070866141
                },
                {
                    "duration": 0.032738062500001774,
                    "durationTicks": 33,
                    "midi": 46,
                    "name": "A#2",
                    "ticks": 87120,
                    "time": 86.428485,
                    "velocity": 0.6535433070866141
                },
                {
                    "duration": 0.032738062500001774,
                    "durationTicks": 33,
                    "midi": 36,
                    "name": "C2",
                    "ticks": 87360,
                    "time": 86.66658,
                    "velocity": 0.937007874015748
                },
                {
                    "duration": 0.032738062500001774,
                    "durationTicks": 33,
                    "midi": 42,
                    "name": "F#2",
                    "ticks": 87360,
                    "time": 86.66658,
                    "velocity": 0.6535433070866141
                },
                {
                    "duration": 0.032738062499987564,
                    "durationTicks": 33,
                    "midi": 42,
                    "name": "F#2",
                    "ticks": 87480,
                    "time": 86.7856275,
                    "velocity": 0.6535433070866141
                },
                {
                    "duration": 0.032738062500001774,
                    "durationTicks": 33,
                    "midi": 46,
                    "name": "A#2",
                    "ticks": 87600,
                    "time": 86.904675,
                    "velocity": 0.6535433070866141
                },
                {
                    "duration": 0.032738062500001774,
                    "durationTicks": 33,
                    "midi": 36,
                    "name": "C2",
                    "ticks": 87840,
                    "time": 87.14277,
                    "velocity": 0.937007874015748
                },
                {
                    "duration": 0.032738062500001774,
                    "durationTicks": 33,
                    "midi": 38,
                    "name": "D2",
                    "ticks": 87840,
                    "time": 87.14277,
                    "velocity": 0.889763779527559
                },
                {
                    "duration": 0.032738062500001774,
                    "durationTicks": 33,
                    "midi": 42,
                    "name": "F#2",
                    "ticks": 87840,
                    "time": 87.14277,
                    "velocity": 0.6535433070866141
                },
                {
                    "duration": 0.032738062499987564,
                    "durationTicks": 33,
                    "midi": 42,
                    "name": "F#2",
                    "ticks": 87960,
                    "time": 87.2618175,
                    "velocity": 0.6535433070866141
                },
                {
                    "duration": 0.032738062500001774,
                    "durationTicks": 33,
                    "midi": 46,
                    "name": "A#2",
                    "ticks": 88080,
                    "time": 87.380865,
                    "velocity": 0.6535433070866141
                },
                {
                    "duration": 0.032738062500001774,
                    "durationTicks": 33,
                    "midi": 36,
                    "name": "C2",
                    "ticks": 88320,
                    "time": 87.61896,
                    "velocity": 0.937007874015748
                },
                {
                    "duration": 0.032738062500001774,
                    "durationTicks": 33,
                    "midi": 42,
                    "name": "F#2",
                    "ticks": 88320,
                    "time": 87.61896,
                    "velocity": 0.6535433070866141
                },
                {
                    "duration": 0.032738062500001774,
                    "durationTicks": 33,
                    "midi": 42,
                    "name": "F#2",
                    "ticks": 88440,
                    "time": 87.7380075,
                    "velocity": 0.6535433070866141
                },
                {
                    "duration": 0.032738062500001774,
                    "durationTicks": 33,
                    "midi": 46,
                    "name": "A#2",
                    "ticks": 88560,
                    "time": 87.857055,
                    "velocity": 0.6535433070866141
                },
                {
                    "duration": 0.032738062499987564,
                    "durationTicks": 33,
                    "midi": 36,
                    "name": "C2",
                    "ticks": 88800,
                    "time": 88.09515,
                    "velocity": 0.937007874015748
                },
                {
                    "duration": 0.032738062499987564,
                    "durationTicks": 33,
                    "midi": 38,
                    "name": "D2",
                    "ticks": 88800,
                    "time": 88.09515,
                    "velocity": 0.889763779527559
                },
                {
                    "duration": 0.032738062499987564,
                    "durationTicks": 33,
                    "midi": 42,
                    "name": "F#2",
                    "ticks": 88800,
                    "time": 88.09515,
                    "velocity": 0.6535433070866141
                },
                {
                    "duration": 0.032738062500001774,
                    "durationTicks": 33,
                    "midi": 42,
                    "name": "F#2",
                    "ticks": 88920,
                    "time": 88.2141975,
                    "velocity": 0.6535433070866141
                },
                {
                    "duration": 0.032738062499987564,
                    "durationTicks": 33,
                    "midi": 46,
                    "name": "A#2",
                    "ticks": 89040,
                    "time": 88.333245,
                    "velocity": 0.6535433070866141
                },
                {
                    "duration": 0.032738062499987564,
                    "durationTicks": 33,
                    "midi": 36,
                    "name": "C2",
                    "ticks": 89280,
                    "time": 88.57134,
                    "velocity": 0.937007874015748
                },
                {
                    "duration": 0.032738062499987564,
                    "durationTicks": 33,
                    "midi": 42,
                    "name": "F#2",
                    "ticks": 89280,
                    "time": 88.57134,
                    "velocity": 0.6535433070866141
                },
                {
                    "duration": 0.032738062500001774,
                    "durationTicks": 33,
                    "midi": 42,
                    "name": "F#2",
                    "ticks": 89400,
                    "time": 88.6903875,
                    "velocity": 0.6535433070866141
                },
                {
                    "duration": 0.032738062500001774,
                    "durationTicks": 33,
                    "midi": 46,
                    "name": "A#2",
                    "ticks": 89520,
                    "time": 88.809435,
                    "velocity": 0.6535433070866141
                },
                {
                    "duration": 0.032738062500001774,
                    "durationTicks": 33,
                    "midi": 36,
                    "name": "C2",
                    "ticks": 89760,
                    "time": 89.04753,
                    "velocity": 0.937007874015748
                },
                {
                    "duration": 0.032738062500001774,
                    "durationTicks": 33,
                    "midi": 38,
                    "name": "D2",
                    "ticks": 89760,
                    "time": 89.04753,
                    "velocity": 0.889763779527559
                },
                {
                    "duration": 0.032738062500001774,
                    "durationTicks": 33,
                    "midi": 42,
                    "name": "F#2",
                    "ticks": 89760,
                    "time": 89.04753,
                    "velocity": 0.6535433070866141
                },
                {
                    "duration": 0.032738062500001774,
                    "durationTicks": 33,
                    "midi": 42,
                    "name": "F#2",
                    "ticks": 89880,
                    "time": 89.1665775,
                    "velocity": 0.6535433070866141
                },
                {
                    "duration": 0.032738062500001774,
                    "durationTicks": 33,
                    "midi": 46,
                    "name": "A#2",
                    "ticks": 90000,
                    "time": 89.285625,
                    "velocity": 0.6535433070866141
                },
                {
                    "duration": 0.032738062500001774,
                    "durationTicks": 33,
                    "midi": 36,
                    "name": "C2",
                    "ticks": 90240,
                    "time": 89.52372,
                    "velocity": 0.937007874015748
                },
                {
                    "duration": 0.032738062500001774,
                    "durationTicks": 33,
                    "midi": 42,
                    "name": "F#2",
                    "ticks": 90240,
                    "time": 89.52372,
                    "velocity": 0.6535433070866141
                },
                {
                    "duration": 0.032738062499987564,
                    "durationTicks": 33,
                    "midi": 42,
                    "name": "F#2",
                    "ticks": 90360,
                    "time": 89.6427675,
                    "velocity": 0.6535433070866141
                },
                {
                    "duration": 0.032738062500001774,
                    "durationTicks": 33,
                    "midi": 46,
                    "name": "A#2",
                    "ticks": 90480,
                    "time": 89.761815,
                    "velocity": 0.6535433070866141
                },
                {
                    "duration": 0.032738062500001774,
                    "durationTicks": 33,
                    "midi": 36,
                    "name": "C2",
                    "ticks": 90720,
                    "time": 89.99991,
                    "velocity": 0.937007874015748
                },
                {
                    "duration": 0.032738062500001774,
                    "durationTicks": 33,
                    "midi": 38,
                    "name": "D2",
                    "ticks": 90720,
                    "time": 89.99991,
                    "velocity": 0.889763779527559
                },
                {
                    "duration": 0.032738062500001774,
                    "durationTicks": 33,
                    "midi": 42,
                    "name": "F#2",
                    "ticks": 90720,
                    "time": 89.99991,
                    "velocity": 0.6535433070866141
                },
                {
                    "duration": 0.032738062500001774,
                    "durationTicks": 33,
                    "midi": 42,
                    "name": "F#2",
                    "ticks": 90840,
                    "time": 90.1189575,
                    "velocity": 0.6535433070866141
                },
                {
                    "duration": 0.032738062500001774,
                    "durationTicks": 33,
                    "midi": 46,
                    "name": "A#2",
                    "ticks": 90960,
                    "time": 90.238005,
                    "velocity": 0.6535433070866141
                },
                {
                    "duration": 0.032738062500001774,
                    "durationTicks": 33,
                    "midi": 36,
                    "name": "C2",
                    "ticks": 91200,
                    "time": 90.4761,
                    "velocity": 0.937007874015748
                },
                {
                    "duration": 0.032738062500001774,
                    "durationTicks": 33,
                    "midi": 42,
                    "name": "F#2",
                    "ticks": 91200,
                    "time": 90.4761,
                    "velocity": 0.6535433070866141
                },
                {
                    "duration": 0.032738062500001774,
                    "durationTicks": 33,
                    "midi": 42,
                    "name": "F#2",
                    "ticks": 91320,
                    "time": 90.5951475,
                    "velocity": 0.6535433070866141
                },
                {
                    "duration": 0.032738062499987564,
                    "durationTicks": 33,
                    "midi": 46,
                    "name": "A#2",
                    "ticks": 91440,
                    "time": 90.714195,
                    "velocity": 0.6535433070866141
                },
                {
                    "duration": 0.032738062499987564,
                    "durationTicks": 33,
                    "midi": 36,
                    "name": "C2",
                    "ticks": 91680,
                    "time": 90.95229,
                    "velocity": 0.937007874015748
                },
                {
                    "duration": 0.032738062499987564,
                    "durationTicks": 33,
                    "midi": 38,
                    "name": "D2",
                    "ticks": 91680,
                    "time": 90.95229,
                    "velocity": 0.889763779527559
                },
                {
                    "duration": 0.032738062499987564,
                    "durationTicks": 33,
                    "midi": 42,
                    "name": "F#2",
                    "ticks": 91680,
                    "time": 90.95229,
                    "velocity": 0.6535433070866141
                },
                {
                    "duration": 0.032738062500001774,
                    "durationTicks": 33,
                    "midi": 42,
                    "name": "F#2",
                    "ticks": 91800,
                    "time": 91.0713375,
                    "velocity": 0.6535433070866141
                },
                {
                    "duration": 0.032738062499987564,
                    "durationTicks": 33,
                    "midi": 46,
                    "name": "A#2",
                    "ticks": 91920,
                    "time": 91.190385,
                    "velocity": 0.6535433070866141
                },
                {
                    "duration": 0.2311505625000052,
                    "durationTicks": 233,
                    "midi": 57,
                    "name": "A3",
                    "ticks": 92160,
                    "time": 91.42848000000001,
                    "velocity": 0.5039370078740157
                },
                {
                    "duration": 0.2311505625000052,
                    "durationTicks": 233,
                    "midi": 36,
                    "name": "C2",
                    "ticks": 92160,
                    "time": 91.42848000000001,
                    "velocity": 0.937007874015748
                },
                {
                    "duration": 0.2311505625000052,
                    "durationTicks": 233,
                    "midi": 36,
                    "name": "C2",
                    "ticks": 92640,
                    "time": 91.90467,
                    "velocity": 0.937007874015748
                },
                {
                    "duration": 0.2311505625000052,
                    "durationTicks": 233,
                    "midi": 36,
                    "name": "C2",
                    "ticks": 93120,
                    "time": 92.38086,
                    "velocity": 0.937007874015748
                },
                {
                    "duration": 0.2311505625000052,
                    "durationTicks": 233,
                    "midi": 36,
                    "name": "C2",
                    "ticks": 93600,
                    "time": 92.85705,
                    "velocity": 0.937007874015748
                },
                {
                    "duration": 0.2311505625000052,
                    "durationTicks": 233,
                    "midi": 36,
                    "name": "C2",
                    "ticks": 94080,
                    "time": 93.33324,
                    "velocity": 0.937007874015748
                },
                {
                    "duration": 0.2311505625000052,
                    "durationTicks": 233,
                    "midi": 36,
                    "name": "C2",
                    "ticks": 94560,
                    "time": 93.80943,
                    "velocity": 0.937007874015748
                },
                {
                    "duration": 0.2311505625000052,
                    "durationTicks": 233,
                    "midi": 36,
                    "name": "C2",
                    "ticks": 95040,
                    "time": 94.28562,
                    "velocity": 0.937007874015748
                },
                {
                    "duration": 0.2311505625000052,
                    "durationTicks": 233,
                    "midi": 36,
                    "name": "C2",
                    "ticks": 95520,
                    "time": 94.76181,
                    "velocity": 0.937007874015748
                },
                {
                    "duration": 0.2311505625000052,
                    "durationTicks": 233,
                    "midi": 36,
                    "name": "C2",
                    "ticks": 96000,
                    "time": 95.238,
                    "velocity": 0.937007874015748
                },
                {
                    "duration": 0.2311505625000052,
                    "durationTicks": 233,
                    "midi": 36,
                    "name": "C2",
                    "ticks": 96480,
                    "time": 95.71419,
                    "velocity": 0.937007874015748
                },
                {
                    "duration": 0.2311505625000052,
                    "durationTicks": 233,
                    "midi": 36,
                    "name": "C2",
                    "ticks": 96960,
                    "time": 96.19038,
                    "velocity": 0.937007874015748
                },
                {
                    "duration": 0.2311505625000052,
                    "durationTicks": 233,
                    "midi": 36,
                    "name": "C2",
                    "ticks": 97440,
                    "time": 96.66657000000001,
                    "velocity": 0.937007874015748
                },
                {
                    "duration": 0.08928562500000226,
                    "durationTicks": 90,
                    "midi": 38,
                    "name": "D2",
                    "ticks": 98880,
                    "time": 98.09514,
                    "velocity": 0.5039370078740157
                },
                {
                    "duration": 0.08928562500000226,
                    "durationTicks": 90,
                    "midi": 38,
                    "name": "D2",
                    "ticks": 99000,
                    "time": 98.2141875,
                    "velocity": 0.5039370078740157
                },
                {
                    "duration": 0.08928562500000226,
                    "durationTicks": 90,
                    "midi": 38,
                    "name": "D2",
                    "ticks": 99120,
                    "time": 98.333235,
                    "velocity": 0.5039370078740157
                },
                {
                    "duration": 0.08928562500000226,
                    "durationTicks": 90,
                    "midi": 38,
                    "name": "D2",
                    "ticks": 99240,
                    "time": 98.4522825,
                    "velocity": 0.5039370078740157
                },
                {
                    "duration": 0.08928562500000226,
                    "durationTicks": 90,
                    "midi": 38,
                    "name": "D2",
                    "ticks": 99360,
                    "time": 98.57133,
                    "velocity": 0.5039370078740157
                },
                {
                    "duration": 0.08928562500000226,
                    "durationTicks": 90,
                    "midi": 38,
                    "name": "D2",
                    "ticks": 99480,
                    "time": 98.6903775,
                    "velocity": 0.5039370078740157
                },
                {
                    "duration": 0.08928562500000226,
                    "durationTicks": 90,
                    "midi": 38,
                    "name": "D2",
                    "ticks": 99600,
                    "time": 98.809425,
                    "velocity": 0.5039370078740157
                },
                {
                    "duration": 0.08928562500000226,
                    "durationTicks": 90,
                    "midi": 38,
                    "name": "D2",
                    "ticks": 99720,
                    "time": 98.9284725,
                    "velocity": 0.5039370078740157
                },
                {
                    "duration": 0.2311505625000052,
                    "durationTicks": 233,
                    "midi": 57,
                    "name": "A3",
                    "ticks": 99840,
                    "time": 99.04752,
                    "velocity": 0.5039370078740157
                },
                {
                    "duration": 0.2311505625000052,
                    "durationTicks": 233,
                    "midi": 36,
                    "name": "C2",
                    "ticks": 99840,
                    "time": 99.04752,
                    "velocity": 0.937007874015748
                },
                {
                    "duration": 0.23115056250001942,
                    "durationTicks": 233,
                    "midi": 36,
                    "name": "C2",
                    "ticks": 100320,
                    "time": 99.52371,
                    "velocity": 0.937007874015748
                },
                {
                    "duration": 0.2311505625000052,
                    "durationTicks": 233,
                    "midi": 36,
                    "name": "C2",
                    "ticks": 100800,
                    "time": 99.9999,
                    "velocity": 0.937007874015748
                },
                {
                    "duration": 0.2311505625000052,
                    "durationTicks": 233,
                    "midi": 36,
                    "name": "C2",
                    "ticks": 101280,
                    "time": 100.47609,
                    "velocity": 0.937007874015748
                },
                {
                    "duration": 0.2311505625000052,
                    "durationTicks": 233,
                    "midi": 36,
                    "name": "C2",
                    "ticks": 101760,
                    "time": 100.95228,
                    "velocity": 0.937007874015748
                },
                {
                    "duration": 0.2311505625000052,
                    "durationTicks": 233,
                    "midi": 36,
                    "name": "C2",
                    "ticks": 102240,
                    "time": 101.42847,
                    "velocity": 0.937007874015748
                },
                {
                    "duration": 0.2311505625000052,
                    "durationTicks": 233,
                    "midi": 36,
                    "name": "C2",
                    "ticks": 102720,
                    "time": 101.90466,
                    "velocity": 0.937007874015748
                },
                {
                    "duration": 0.2311505625000052,
                    "durationTicks": 233,
                    "midi": 36,
                    "name": "C2",
                    "ticks": 103200,
                    "time": 102.38085,
                    "velocity": 0.937007874015748
                },
                {
                    "duration": 0.2311505625000052,
                    "durationTicks": 233,
                    "midi": 36,
                    "name": "C2",
                    "ticks": 103680,
                    "time": 102.85704,
                    "velocity": 0.937007874015748
                },
                {
                    "duration": 0.2311505625000052,
                    "durationTicks": 233,
                    "midi": 36,
                    "name": "C2",
                    "ticks": 104160,
                    "time": 103.33323,
                    "velocity": 0.937007874015748
                },
                {
                    "duration": 0.2311505625000052,
                    "durationTicks": 233,
                    "midi": 36,
                    "name": "C2",
                    "ticks": 104640,
                    "time": 103.80942,
                    "velocity": 0.937007874015748
                },
                {
                    "duration": 0.2311505625000052,
                    "durationTicks": 233,
                    "midi": 36,
                    "name": "C2",
                    "ticks": 105120,
                    "time": 104.28561,
                    "velocity": 0.937007874015748
                },
                {
                    "duration": 0.23115056250001942,
                    "durationTicks": 233,
                    "midi": 36,
                    "name": "C2",
                    "ticks": 105600,
                    "time": 104.7618,
                    "velocity": 0.937007874015748
                },
                {
                    "duration": 0.2311505625000052,
                    "durationTicks": 233,
                    "midi": 36,
                    "name": "C2",
                    "ticks": 106080,
                    "time": 105.23799,
                    "velocity": 0.937007874015748
                },
                {
                    "duration": 0.2311505625000052,
                    "durationTicks": 233,
                    "midi": 36,
                    "name": "C2",
                    "ticks": 106560,
                    "time": 105.71418,
                    "velocity": 0.937007874015748
                },
                {
                    "duration": 0.09027768749999154,
                    "durationTicks": 91,
                    "midi": 36,
                    "name": "C2",
                    "ticks": 107520,
                    "time": 106.66656,
                    "velocity": 0.937007874015748
                },
                {
                    "duration": 0.11210306249999746,
                    "durationTicks": 113,
                    "midi": 57,
                    "name": "A3",
                    "ticks": 107520,
                    "time": 106.66656,
                    "velocity": 0.937007874015748
                },
                {
                    "duration": 0.09027768749999154,
                    "durationTicks": 91,
                    "midi": 36,
                    "name": "C2",
                    "ticks": 108000,
                    "time": 107.14275,
                    "velocity": 0.937007874015748
                },
                {
                    "duration": 0.09027768749999154,
                    "durationTicks": 91,
                    "midi": 39,
                    "name": "D#2",
                    "ticks": 108000,
                    "time": 107.14275,
                    "velocity": 0.937007874015748
                },
                {
                    "duration": 0.09027768750000575,
                    "durationTicks": 91,
                    "midi": 36,
                    "name": "C2",
                    "ticks": 108480,
                    "time": 107.61894,
                    "velocity": 0.937007874015748
                },
                {
                    "duration": 0.09027768750000575,
                    "durationTicks": 91,
                    "midi": 36,
                    "name": "C2",
                    "ticks": 108960,
                    "time": 108.09513,
                    "velocity": 0.937007874015748
                },
                {
                    "duration": 0.09027768750000575,
                    "durationTicks": 91,
                    "midi": 39,
                    "name": "D#2",
                    "ticks": 108960,
                    "time": 108.09513,
                    "velocity": 0.937007874015748
                },
                {
                    "duration": 0.09027768750000575,
                    "durationTicks": 91,
                    "midi": 36,
                    "name": "C2",
                    "ticks": 109440,
                    "time": 108.57132,
                    "velocity": 0.937007874015748
                },
                {
                    "duration": 0.09027768749999154,
                    "durationTicks": 91,
                    "midi": 36,
                    "name": "C2",
                    "ticks": 109920,
                    "time": 109.04751,
                    "velocity": 0.937007874015748
                },
                {
                    "duration": 0.09027768749999154,
                    "durationTicks": 91,
                    "midi": 39,
                    "name": "D#2",
                    "ticks": 109920,
                    "time": 109.04751,
                    "velocity": 0.937007874015748
                },
                {
                    "duration": 0.09027768749999154,
                    "durationTicks": 91,
                    "midi": 36,
                    "name": "C2",
                    "ticks": 110400,
                    "time": 109.5237,
                    "velocity": 0.937007874015748
                },
                {
                    "duration": 0.09027768750000575,
                    "durationTicks": 91,
                    "midi": 36,
                    "name": "C2",
                    "ticks": 110880,
                    "time": 109.99989,
                    "velocity": 0.937007874015748
                },
                {
                    "duration": 0.09027768750000575,
                    "durationTicks": 91,
                    "midi": 39,
                    "name": "D#2",
                    "ticks": 110880,
                    "time": 109.99989,
                    "velocity": 0.937007874015748
                },
                {
                    "duration": 0.09027768750000575,
                    "durationTicks": 91,
                    "midi": 36,
                    "name": "C2",
                    "ticks": 111360,
                    "time": 110.47608,
                    "velocity": 0.937007874015748
                },
                {
                    "duration": 0.09027768750000575,
                    "durationTicks": 91,
                    "midi": 36,
                    "name": "C2",
                    "ticks": 111840,
                    "time": 110.95227,
                    "velocity": 0.937007874015748
                },
                {
                    "duration": 0.09027768750000575,
                    "durationTicks": 91,
                    "midi": 39,
                    "name": "D#2",
                    "ticks": 111840,
                    "time": 110.95227,
                    "velocity": 0.937007874015748
                },
                {
                    "duration": 0.09027768749999154,
                    "durationTicks": 91,
                    "midi": 36,
                    "name": "C2",
                    "ticks": 112320,
                    "time": 111.42846,
                    "velocity": 0.937007874015748
                },
                {
                    "duration": 0.09027768749999154,
                    "durationTicks": 91,
                    "midi": 36,
                    "name": "C2",
                    "ticks": 112800,
                    "time": 111.90465,
                    "velocity": 0.937007874015748
                },
                {
                    "duration": 0.09027768749999154,
                    "durationTicks": 91,
                    "midi": 39,
                    "name": "D#2",
                    "ticks": 112800,
                    "time": 111.90465,
                    "velocity": 0.937007874015748
                },
                {
                    "duration": 0.1517855624999953,
                    "durationTicks": 153,
                    "midi": 35,
                    "name": "B1",
                    "ticks": 113280,
                    "time": 112.38084,
                    "velocity": 0.937007874015748
                },
                {
                    "duration": 0.1517855624999953,
                    "durationTicks": 153,
                    "midi": 38,
                    "name": "D2",
                    "ticks": 113280,
                    "time": 112.38084,
                    "velocity": 0.937007874015748
                },
                {
                    "duration": 0.1517855624999953,
                    "durationTicks": 153,
                    "midi": 35,
                    "name": "B1",
                    "ticks": 113440,
                    "time": 112.53957000000001,
                    "velocity": 0.937007874015748
                },
                {
                    "duration": 0.1517855624999953,
                    "durationTicks": 153,
                    "midi": 38,
                    "name": "D2",
                    "ticks": 113440,
                    "time": 112.53957000000001,
                    "velocity": 0.937007874015748
                },
                {
                    "duration": 0.15178556250002373,
                    "durationTicks": 153,
                    "midi": 35,
                    "name": "B1",
                    "ticks": 113600,
                    "time": 112.69829999999999,
                    "velocity": 0.937007874015748
                },
                {
                    "duration": 0.15178556250002373,
                    "durationTicks": 153,
                    "midi": 38,
                    "name": "D2",
                    "ticks": 113600,
                    "time": 112.69829999999999,
                    "velocity": 0.937007874015748
                },
                {
                    "duration": 0.15178556250000952,
                    "durationTicks": 153,
                    "midi": 35,
                    "name": "B1",
                    "ticks": 113760,
                    "time": 112.85703,
                    "velocity": 0.937007874015748
                },
                {
                    "duration": 0.15178556250000952,
                    "durationTicks": 153,
                    "midi": 38,
                    "name": "D2",
                    "ticks": 113760,
                    "time": 112.85703,
                    "velocity": 0.937007874015748
                },
                {
                    "duration": 0.1517855624999953,
                    "durationTicks": 153,
                    "midi": 35,
                    "name": "B1",
                    "ticks": 113920,
                    "time": 113.01576,
                    "velocity": 0.937007874015748
                },
                {
                    "duration": 0.1517855624999953,
                    "durationTicks": 153,
                    "midi": 38,
                    "name": "D2",
                    "ticks": 113920,
                    "time": 113.01576,
                    "velocity": 0.937007874015748
                },
                {
                    "duration": 0.15178556250000952,
                    "durationTicks": 153,
                    "midi": 35,
                    "name": "B1",
                    "ticks": 114080,
                    "time": 113.17448999999999,
                    "velocity": 0.937007874015748
                },
                {
                    "duration": 0.15178556250000952,
                    "durationTicks": 153,
                    "midi": 38,
                    "name": "D2",
                    "ticks": 114080,
                    "time": 113.17448999999999,
                    "velocity": 0.937007874015748
                },
                {
                    "duration": 0.1517855624999953,
                    "durationTicks": 153,
                    "midi": 35,
                    "name": "B1",
                    "ticks": 114240,
                    "time": 113.33322,
                    "velocity": 0.937007874015748
                },
                {
                    "duration": 0.1517855624999953,
                    "durationTicks": 153,
                    "midi": 38,
                    "name": "D2",
                    "ticks": 114240,
                    "time": 113.33322,
                    "velocity": 0.937007874015748
                },
                {
                    "duration": 0.1517855624999953,
                    "durationTicks": 153,
                    "midi": 35,
                    "name": "B1",
                    "ticks": 114720,
                    "time": 113.80941,
                    "velocity": 0.937007874015748
                },
                {
                    "duration": 0.1517855624999953,
                    "durationTicks": 153,
                    "midi": 38,
                    "name": "D2",
                    "ticks": 114720,
                    "time": 113.80941,
                    "velocity": 0.937007874015748
                },
                {
                    "duration": 0.032738062500001774,
                    "durationTicks": 33,
                    "midi": 36,
                    "name": "C2",
                    "ticks": 115200,
                    "time": 114.2856,
                    "velocity": 0.937007874015748
                },
                {
                    "duration": 0.032738062500001774,
                    "durationTicks": 33,
                    "midi": 42,
                    "name": "F#2",
                    "ticks": 115200,
                    "time": 114.2856,
                    "velocity": 0.6535433070866141
                },
                {
                    "duration": 0.032738062500001774,
                    "durationTicks": 33,
                    "midi": 57,
                    "name": "A3",
                    "ticks": 115200,
                    "time": 114.2856,
                    "velocity": 0.6850393700787402
                },
                {
                    "duration": 0.032738062500001774,
                    "durationTicks": 33,
                    "midi": 42,
                    "name": "F#2",
                    "ticks": 115320,
                    "time": 114.4046475,
                    "velocity": 0.6535433070866141
                },
                {
                    "duration": 0.032738062499987564,
                    "durationTicks": 33,
                    "midi": 46,
                    "name": "A#2",
                    "ticks": 115440,
                    "time": 114.523695,
                    "velocity": 0.6535433070866141
                },
                {
                    "duration": 0.032738062499987564,
                    "durationTicks": 33,
                    "midi": 36,
                    "name": "C2",
                    "ticks": 115680,
                    "time": 114.76179,
                    "velocity": 0.937007874015748
                },
                {
                    "duration": 0.032738062499987564,
                    "durationTicks": 33,
                    "midi": 38,
                    "name": "D2",
                    "ticks": 115680,
                    "time": 114.76179,
                    "velocity": 0.889763779527559
                },
                {
                    "duration": 0.032738062499987564,
                    "durationTicks": 33,
                    "midi": 42,
                    "name": "F#2",
                    "ticks": 115680,
                    "time": 114.76179,
                    "velocity": 0.6535433070866141
                },
                {
                    "duration": 0.032738062500001774,
                    "durationTicks": 33,
                    "midi": 42,
                    "name": "F#2",
                    "ticks": 115800,
                    "time": 114.8808375,
                    "velocity": 0.6535433070866141
                },
                {
                    "duration": 0.032738062499987564,
                    "durationTicks": 33,
                    "midi": 46,
                    "name": "A#2",
                    "ticks": 115920,
                    "time": 114.999885,
                    "velocity": 0.6535433070866141
                },
                {
                    "duration": 0.032738062499987564,
                    "durationTicks": 33,
                    "midi": 36,
                    "name": "C2",
                    "ticks": 116160,
                    "time": 115.23798000000001,
                    "velocity": 0.937007874015748
                },
                {
                    "duration": 0.032738062499987564,
                    "durationTicks": 33,
                    "midi": 42,
                    "name": "F#2",
                    "ticks": 116160,
                    "time": 115.23798000000001,
                    "velocity": 0.6535433070866141
                },
                {
                    "duration": 0.032738062500001774,
                    "durationTicks": 33,
                    "midi": 42,
                    "name": "F#2",
                    "ticks": 116280,
                    "time": 115.3570275,
                    "velocity": 0.6535433070866141
                },
                {
                    "duration": 0.032738062500001774,
                    "durationTicks": 33,
                    "midi": 46,
                    "name": "A#2",
                    "ticks": 116400,
                    "time": 115.476075,
                    "velocity": 0.6535433070866141
                },
                {
                    "duration": 0.032738062500001774,
                    "durationTicks": 33,
                    "midi": 36,
                    "name": "C2",
                    "ticks": 116640,
                    "time": 115.71417,
                    "velocity": 0.937007874015748
                },
                {
                    "duration": 0.032738062500001774,
                    "durationTicks": 33,
                    "midi": 38,
                    "name": "D2",
                    "ticks": 116640,
                    "time": 115.71417,
                    "velocity": 0.889763779527559
                },
                {
                    "duration": 0.032738062500001774,
                    "durationTicks": 33,
                    "midi": 42,
                    "name": "F#2",
                    "ticks": 116640,
                    "time": 115.71417,
                    "velocity": 0.6535433070866141
                },
                {
                    "duration": 0.032738062499987564,
                    "durationTicks": 33,
                    "midi": 42,
                    "name": "F#2",
                    "ticks": 116760,
                    "time": 115.8332175,
                    "velocity": 0.6535433070866141
                },
                {
                    "duration": 0.032738062500001774,
                    "durationTicks": 33,
                    "midi": 46,
                    "name": "A#2",
                    "ticks": 116880,
                    "time": 115.952265,
                    "velocity": 0.6535433070866141
                },
                {
                    "duration": 0.032738062500001774,
                    "durationTicks": 33,
                    "midi": 36,
                    "name": "C2",
                    "ticks": 117120,
                    "time": 116.19036,
                    "velocity": 0.937007874015748
                },
                {
                    "duration": 0.032738062500001774,
                    "durationTicks": 33,
                    "midi": 42,
                    "name": "F#2",
                    "ticks": 117120,
                    "time": 116.19036,
                    "velocity": 0.6535433070866141
                },
                {
                    "duration": 0.032738062499987564,
                    "durationTicks": 33,
                    "midi": 42,
                    "name": "F#2",
                    "ticks": 117240,
                    "time": 116.3094075,
                    "velocity": 0.6535433070866141
                },
                {
                    "duration": 0.032738062500001774,
                    "durationTicks": 33,
                    "midi": 46,
                    "name": "A#2",
                    "ticks": 117360,
                    "time": 116.428455,
                    "velocity": 0.6535433070866141
                },
                {
                    "duration": 0.032738062500001774,
                    "durationTicks": 33,
                    "midi": 36,
                    "name": "C2",
                    "ticks": 117600,
                    "time": 116.66655,
                    "velocity": 0.937007874015748
                },
                {
                    "duration": 0.032738062500001774,
                    "durationTicks": 33,
                    "midi": 38,
                    "name": "D2",
                    "ticks": 117600,
                    "time": 116.66655,
                    "velocity": 0.889763779527559
                },
                {
                    "duration": 0.032738062500001774,
                    "durationTicks": 33,
                    "midi": 42,
                    "name": "F#2",
                    "ticks": 117600,
                    "time": 116.66655,
                    "velocity": 0.6535433070866141
                },
                {
                    "duration": 0.032738062500001774,
                    "durationTicks": 33,
                    "midi": 42,
                    "name": "F#2",
                    "ticks": 117720,
                    "time": 116.7855975,
                    "velocity": 0.6535433070866141
                },
                {
                    "duration": 0.032738062500001774,
                    "durationTicks": 33,
                    "midi": 46,
                    "name": "A#2",
                    "ticks": 117840,
                    "time": 116.904645,
                    "velocity": 0.6535433070866141
                },
                {
                    "duration": 0.032738062499987564,
                    "durationTicks": 33,
                    "midi": 36,
                    "name": "C2",
                    "ticks": 118080,
                    "time": 117.14274,
                    "velocity": 0.937007874015748
                },
                {
                    "duration": 0.032738062499987564,
                    "durationTicks": 33,
                    "midi": 42,
                    "name": "F#2",
                    "ticks": 118080,
                    "time": 117.14274,
                    "velocity": 0.6535433070866141
                },
                {
                    "duration": 0.032738062500001774,
                    "durationTicks": 33,
                    "midi": 42,
                    "name": "F#2",
                    "ticks": 118200,
                    "time": 117.2617875,
                    "velocity": 0.6535433070866141
                },
                {
                    "duration": 0.032738062499987564,
                    "durationTicks": 33,
                    "midi": 46,
                    "name": "A#2",
                    "ticks": 118320,
                    "time": 117.380835,
                    "velocity": 0.6535433070866141
                },
                {
                    "duration": 0.032738062499987564,
                    "durationTicks": 33,
                    "midi": 36,
                    "name": "C2",
                    "ticks": 118560,
                    "time": 117.61893,
                    "velocity": 0.937007874015748
                },
                {
                    "duration": 0.032738062499987564,
                    "durationTicks": 33,
                    "midi": 38,
                    "name": "D2",
                    "ticks": 118560,
                    "time": 117.61893,
                    "velocity": 0.889763779527559
                },
                {
                    "duration": 0.032738062499987564,
                    "durationTicks": 33,
                    "midi": 42,
                    "name": "F#2",
                    "ticks": 118560,
                    "time": 117.61893,
                    "velocity": 0.6535433070866141
                },
                {
                    "duration": 0.032738062500001774,
                    "durationTicks": 33,
                    "midi": 42,
                    "name": "F#2",
                    "ticks": 118680,
                    "time": 117.7379775,
                    "velocity": 0.6535433070866141
                },
                {
                    "duration": 0.032738062499987564,
                    "durationTicks": 33,
                    "midi": 46,
                    "name": "A#2",
                    "ticks": 118800,
                    "time": 117.85702500000001,
                    "velocity": 0.6535433070866141
                },
                {
                    "duration": 0.032738062500001774,
                    "durationTicks": 33,
                    "midi": 36,
                    "name": "C2",
                    "ticks": 119040,
                    "time": 118.09512,
                    "velocity": 0.937007874015748
                },
                {
                    "duration": 0.032738062500001774,
                    "durationTicks": 33,
                    "midi": 42,
                    "name": "F#2",
                    "ticks": 119040,
                    "time": 118.09512,
                    "velocity": 0.6535433070866141
                },
                {
                    "duration": 0.032738062500001774,
                    "durationTicks": 33,
                    "midi": 42,
                    "name": "F#2",
                    "ticks": 119160,
                    "time": 118.2141675,
                    "velocity": 0.6535433070866141
                },
                {
                    "duration": 0.032738062500001774,
                    "durationTicks": 33,
                    "midi": 46,
                    "name": "A#2",
                    "ticks": 119280,
                    "time": 118.333215,
                    "velocity": 0.6535433070866141
                },
                {
                    "duration": 0.032738062500001774,
                    "durationTicks": 33,
                    "midi": 36,
                    "name": "C2",
                    "ticks": 119520,
                    "time": 118.57131,
                    "velocity": 0.937007874015748
                },
                {
                    "duration": 0.032738062500001774,
                    "durationTicks": 33,
                    "midi": 38,
                    "name": "D2",
                    "ticks": 119520,
                    "time": 118.57131,
                    "velocity": 0.889763779527559
                },
                {
                    "duration": 0.032738062500001774,
                    "durationTicks": 33,
                    "midi": 42,
                    "name": "F#2",
                    "ticks": 119520,
                    "time": 118.57131,
                    "velocity": 0.6535433070866141
                },
                {
                    "duration": 0.032738062499987564,
                    "durationTicks": 33,
                    "midi": 42,
                    "name": "F#2",
                    "ticks": 119640,
                    "time": 118.6903575,
                    "velocity": 0.6535433070866141
                },
                {
                    "duration": 0.032738062500001774,
                    "durationTicks": 33,
                    "midi": 46,
                    "name": "A#2",
                    "ticks": 119760,
                    "time": 118.809405,
                    "velocity": 0.6535433070866141
                },
                {
                    "duration": 0.032738062500001774,
                    "durationTicks": 33,
                    "midi": 36,
                    "name": "C2",
                    "ticks": 120000,
                    "time": 119.0475,
                    "velocity": 0.937007874015748
                },
                {
                    "duration": 0.032738062500001774,
                    "durationTicks": 33,
                    "midi": 42,
                    "name": "F#2",
                    "ticks": 120000,
                    "time": 119.0475,
                    "velocity": 0.6535433070866141
                },
                {
                    "duration": 0.032738062499987564,
                    "durationTicks": 33,
                    "midi": 42,
                    "name": "F#2",
                    "ticks": 120120,
                    "time": 119.16654750000001,
                    "velocity": 0.6535433070866141
                },
                {
                    "duration": 0.032738062500001774,
                    "durationTicks": 33,
                    "midi": 46,
                    "name": "A#2",
                    "ticks": 120240,
                    "time": 119.285595,
                    "velocity": 0.6535433070866141
                },
                {
                    "duration": 0.032738062500001774,
                    "durationTicks": 33,
                    "midi": 36,
                    "name": "C2",
                    "ticks": 120480,
                    "time": 119.52369,
                    "velocity": 0.937007874015748
                },
                {
                    "duration": 0.032738062500001774,
                    "durationTicks": 33,
                    "midi": 38,
                    "name": "D2",
                    "ticks": 120480,
                    "time": 119.52369,
                    "velocity": 0.889763779527559
                },
                {
                    "duration": 0.032738062500001774,
                    "durationTicks": 33,
                    "midi": 42,
                    "name": "F#2",
                    "ticks": 120480,
                    "time": 119.52369,
                    "velocity": 0.6535433070866141
                },
                {
                    "duration": 0.032738062500001774,
                    "durationTicks": 33,
                    "midi": 42,
                    "name": "F#2",
                    "ticks": 120600,
                    "time": 119.6427375,
                    "velocity": 0.6535433070866141
                },
                {
                    "duration": 0.032738062499987564,
                    "durationTicks": 33,
                    "midi": 46,
                    "name": "A#2",
                    "ticks": 120720,
                    "time": 119.761785,
                    "velocity": 0.6535433070866141
                },
                {
                    "duration": 0.032738062499987564,
                    "durationTicks": 33,
                    "midi": 36,
                    "name": "C2",
                    "ticks": 120960,
                    "time": 119.99988,
                    "velocity": 0.937007874015748
                },
                {
                    "duration": 0.032738062499987564,
                    "durationTicks": 33,
                    "midi": 42,
                    "name": "F#2",
                    "ticks": 120960,
                    "time": 119.99988,
                    "velocity": 0.6535433070866141
                },
                {
                    "duration": 0.032738062500001774,
                    "durationTicks": 33,
                    "midi": 42,
                    "name": "F#2",
                    "ticks": 121080,
                    "time": 120.1189275,
                    "velocity": 0.6535433070866141
                },
                {
                    "duration": 0.032738062499987564,
                    "durationTicks": 33,
                    "midi": 46,
                    "name": "A#2",
                    "ticks": 121200,
                    "time": 120.237975,
                    "velocity": 0.6535433070866141
                },
                {
                    "duration": 0.032738062499987564,
                    "durationTicks": 33,
                    "midi": 36,
                    "name": "C2",
                    "ticks": 121440,
                    "time": 120.47607,
                    "velocity": 0.937007874015748
                },
                {
                    "duration": 0.032738062499987564,
                    "durationTicks": 33,
                    "midi": 38,
                    "name": "D2",
                    "ticks": 121440,
                    "time": 120.47607,
                    "velocity": 0.889763779527559
                },
                {
                    "duration": 0.032738062499987564,
                    "durationTicks": 33,
                    "midi": 42,
                    "name": "F#2",
                    "ticks": 121440,
                    "time": 120.47607,
                    "velocity": 0.6535433070866141
                },
                {
                    "duration": 0.032738062500001774,
                    "durationTicks": 33,
                    "midi": 42,
                    "name": "F#2",
                    "ticks": 121560,
                    "time": 120.5951175,
                    "velocity": 0.6535433070866141
                },
                {
                    "duration": 0.032738062500001774,
                    "durationTicks": 33,
                    "midi": 46,
                    "name": "A#2",
                    "ticks": 121680,
                    "time": 120.714165,
                    "velocity": 0.6535433070866141
                },
                {
                    "duration": 0.032738062500001774,
                    "durationTicks": 33,
                    "midi": 36,
                    "name": "C2",
                    "ticks": 121920,
                    "time": 120.95226,
                    "velocity": 0.937007874015748
                },
                {
                    "duration": 0.032738062500001774,
                    "durationTicks": 33,
                    "midi": 42,
                    "name": "F#2",
                    "ticks": 121920,
                    "time": 120.95226,
                    "velocity": 0.6535433070866141
                },
                {
                    "duration": 0.032738062499987564,
                    "durationTicks": 33,
                    "midi": 42,
                    "name": "F#2",
                    "ticks": 122040,
                    "time": 121.0713075,
                    "velocity": 0.6535433070866141
                },
                {
                    "duration": 0.032738062500001774,
                    "durationTicks": 33,
                    "midi": 46,
                    "name": "A#2",
                    "ticks": 122160,
                    "time": 121.190355,
                    "velocity": 0.6535433070866141
                },
                {
                    "duration": 0.032738062500001774,
                    "durationTicks": 33,
                    "midi": 36,
                    "name": "C2",
                    "ticks": 122400,
                    "time": 121.42845,
                    "velocity": 0.937007874015748
                },
                {
                    "duration": 0.032738062500001774,
                    "durationTicks": 33,
                    "midi": 38,
                    "name": "D2",
                    "ticks": 122400,
                    "time": 121.42845,
                    "velocity": 0.889763779527559
                },
                {
                    "duration": 0.032738062500001774,
                    "durationTicks": 33,
                    "midi": 42,
                    "name": "F#2",
                    "ticks": 122400,
                    "time": 121.42845,
                    "velocity": 0.6535433070866141
                },
                {
                    "duration": 0.032738062499987564,
                    "durationTicks": 33,
                    "midi": 42,
                    "name": "F#2",
                    "ticks": 122520,
                    "time": 121.5474975,
                    "velocity": 0.6535433070866141
                },
                {
                    "duration": 0.032738062500001774,
                    "durationTicks": 33,
                    "midi": 46,
                    "name": "A#2",
                    "ticks": 122640,
                    "time": 121.666545,
                    "velocity": 0.6535433070866141
                },
                {
                    "duration": 0.032738062500015985,
                    "durationTicks": 33,
                    "midi": 36,
                    "name": "C2",
                    "ticks": 122880,
                    "time": 121.90464,
                    "velocity": 0.937007874015748
                },
                {
                    "duration": 0.032738062500015985,
                    "durationTicks": 33,
                    "midi": 42,
                    "name": "F#2",
                    "ticks": 122880,
                    "time": 121.90464,
                    "velocity": 0.6535433070866141
                },
                {
                    "duration": 0.032738062500015985,
                    "durationTicks": 33,
                    "midi": 57,
                    "name": "A3",
                    "ticks": 122880,
                    "time": 121.90464,
                    "velocity": 0.6850393700787402
                },
                {
                    "duration": 0.032738062500015985,
                    "durationTicks": 33,
                    "midi": 42,
                    "name": "F#2",
                    "ticks": 123000,
                    "time": 122.0236875,
                    "velocity": 0.6535433070866141
                },
                {
                    "duration": 0.032738062500015985,
                    "durationTicks": 33,
                    "midi": 46,
                    "name": "A#2",
                    "ticks": 123120,
                    "time": 122.142735,
                    "velocity": 0.6535433070866141
                },
                {
                    "duration": 0.032738062500001774,
                    "durationTicks": 33,
                    "midi": 36,
                    "name": "C2",
                    "ticks": 123360,
                    "time": 122.38083,
                    "velocity": 0.937007874015748
                },
                {
                    "duration": 0.032738062500001774,
                    "durationTicks": 33,
                    "midi": 38,
                    "name": "D2",
                    "ticks": 123360,
                    "time": 122.38083,
                    "velocity": 0.889763779527559
                },
                {
                    "duration": 0.032738062500001774,
                    "durationTicks": 33,
                    "midi": 42,
                    "name": "F#2",
                    "ticks": 123360,
                    "time": 122.38083,
                    "velocity": 0.6535433070866141
                },
                {
                    "duration": 0.032738062500015985,
                    "durationTicks": 33,
                    "midi": 42,
                    "name": "F#2",
                    "ticks": 123480,
                    "time": 122.4998775,
                    "velocity": 0.6535433070866141
                },
                {
                    "duration": 0.032738062500001774,
                    "durationTicks": 33,
                    "midi": 46,
                    "name": "A#2",
                    "ticks": 123600,
                    "time": 122.618925,
                    "velocity": 0.6535433070866141
                },
                {
                    "duration": 0.032738062500001774,
                    "durationTicks": 33,
                    "midi": 36,
                    "name": "C2",
                    "ticks": 123840,
                    "time": 122.85702,
                    "velocity": 0.937007874015748
                },
                {
                    "duration": 0.032738062500001774,
                    "durationTicks": 33,
                    "midi": 42,
                    "name": "F#2",
                    "ticks": 123840,
                    "time": 122.85702,
                    "velocity": 0.6535433070866141
                },
                {
                    "duration": 0.032738062500015985,
                    "durationTicks": 33,
                    "midi": 42,
                    "name": "F#2",
                    "ticks": 123960,
                    "time": 122.9760675,
                    "velocity": 0.6535433070866141
                },
                {
                    "duration": 0.032738062500001774,
                    "durationTicks": 33,
                    "midi": 46,
                    "name": "A#2",
                    "ticks": 124080,
                    "time": 123.095115,
                    "velocity": 0.6535433070866141
                },
                {
                    "duration": 0.032738062500015985,
                    "durationTicks": 33,
                    "midi": 36,
                    "name": "C2",
                    "ticks": 124320,
                    "time": 123.33321,
                    "velocity": 0.937007874015748
                },
                {
                    "duration": 0.032738062500015985,
                    "durationTicks": 33,
                    "midi": 38,
                    "name": "D2",
                    "ticks": 124320,
                    "time": 123.33321,
                    "velocity": 0.889763779527559
                },
                {
                    "duration": 0.032738062500015985,
                    "durationTicks": 33,
                    "midi": 42,
                    "name": "F#2",
                    "ticks": 124320,
                    "time": 123.33321,
                    "velocity": 0.6535433070866141
                },
                {
                    "duration": 0.032738062500015985,
                    "durationTicks": 33,
                    "midi": 42,
                    "name": "F#2",
                    "ticks": 124440,
                    "time": 123.4522575,
                    "velocity": 0.6535433070866141
                },
                {
                    "duration": 0.032738062500015985,
                    "durationTicks": 33,
                    "midi": 46,
                    "name": "A#2",
                    "ticks": 124560,
                    "time": 123.571305,
                    "velocity": 0.6535433070866141
                },
                {
                    "duration": 0.032738062500015985,
                    "durationTicks": 33,
                    "midi": 36,
                    "name": "C2",
                    "ticks": 124800,
                    "time": 123.8094,
                    "velocity": 0.937007874015748
                },
                {
                    "duration": 0.032738062500015985,
                    "durationTicks": 33,
                    "midi": 42,
                    "name": "F#2",
                    "ticks": 124800,
                    "time": 123.8094,
                    "velocity": 0.6535433070866141
                },
                {
                    "duration": 0.032738062500001774,
                    "durationTicks": 33,
                    "midi": 42,
                    "name": "F#2",
                    "ticks": 124920,
                    "time": 123.9284475,
                    "velocity": 0.6535433070866141
                },
                {
                    "duration": 0.032738062500015985,
                    "durationTicks": 33,
                    "midi": 46,
                    "name": "A#2",
                    "ticks": 125040,
                    "time": 124.047495,
                    "velocity": 0.6535433070866141
                },
                {
                    "duration": 0.032738062500015985,
                    "durationTicks": 33,
                    "midi": 36,
                    "name": "C2",
                    "ticks": 125280,
                    "time": 124.28559,
                    "velocity": 0.937007874015748
                },
                {
                    "duration": 0.032738062500015985,
                    "durationTicks": 33,
                    "midi": 38,
                    "name": "D2",
                    "ticks": 125280,
                    "time": 124.28559,
                    "velocity": 0.889763779527559
                },
                {
                    "duration": 0.032738062500015985,
                    "durationTicks": 33,
                    "midi": 42,
                    "name": "F#2",
                    "ticks": 125280,
                    "time": 124.28559,
                    "velocity": 0.6535433070866141
                },
                {
                    "duration": 0.032738062500001774,
                    "durationTicks": 33,
                    "midi": 42,
                    "name": "F#2",
                    "ticks": 125400,
                    "time": 124.4046375,
                    "velocity": 0.6535433070866141
                },
                {
                    "duration": 0.032738062500015985,
                    "durationTicks": 33,
                    "midi": 46,
                    "name": "A#2",
                    "ticks": 125520,
                    "time": 124.523685,
                    "velocity": 0.6535433070866141
                },
                {
                    "duration": 0.032738062500015985,
                    "durationTicks": 33,
                    "midi": 36,
                    "name": "C2",
                    "ticks": 125760,
                    "time": 124.76178,
                    "velocity": 0.937007874015748
                },
                {
                    "duration": 0.032738062500015985,
                    "durationTicks": 33,
                    "midi": 42,
                    "name": "F#2",
                    "ticks": 125760,
                    "time": 124.76178,
                    "velocity": 0.6535433070866141
                },
                {
                    "duration": 0.032738062500015985,
                    "durationTicks": 33,
                    "midi": 42,
                    "name": "F#2",
                    "ticks": 125880,
                    "time": 124.8808275,
                    "velocity": 0.6535433070866141
                },
                {
                    "duration": 0.032738062500001774,
                    "durationTicks": 33,
                    "midi": 46,
                    "name": "A#2",
                    "ticks": 126000,
                    "time": 124.999875,
                    "velocity": 0.6535433070866141
                },
                {
                    "duration": 0.032738062500001774,
                    "durationTicks": 33,
                    "midi": 36,
                    "name": "C2",
                    "ticks": 126240,
                    "time": 125.23797,
                    "velocity": 0.937007874015748
                },
                {
                    "duration": 0.032738062500001774,
                    "durationTicks": 33,
                    "midi": 38,
                    "name": "D2",
                    "ticks": 126240,
                    "time": 125.23797,
                    "velocity": 0.889763779527559
                },
                {
                    "duration": 0.032738062500001774,
                    "durationTicks": 33,
                    "midi": 42,
                    "name": "F#2",
                    "ticks": 126240,
                    "time": 125.23797,
                    "velocity": 0.6535433070866141
                },
                {
                    "duration": 0.032738062500015985,
                    "durationTicks": 33,
                    "midi": 42,
                    "name": "F#2",
                    "ticks": 126360,
                    "time": 125.3570175,
                    "velocity": 0.6535433070866141
                },
                {
                    "duration": 0.032738062500001774,
                    "durationTicks": 33,
                    "midi": 46,
                    "name": "A#2",
                    "ticks": 126480,
                    "time": 125.476065,
                    "velocity": 0.6535433070866141
                },
                {
                    "duration": 0.032738062500001774,
                    "durationTicks": 33,
                    "midi": 36,
                    "name": "C2",
                    "ticks": 126720,
                    "time": 125.71416,
                    "velocity": 0.937007874015748
                },
                {
                    "duration": 0.032738062500001774,
                    "durationTicks": 33,
                    "midi": 42,
                    "name": "F#2",
                    "ticks": 126720,
                    "time": 125.71416,
                    "velocity": 0.6535433070866141
                },
                {
                    "duration": 0.032738062500015985,
                    "durationTicks": 33,
                    "midi": 42,
                    "name": "F#2",
                    "ticks": 126840,
                    "time": 125.8332075,
                    "velocity": 0.6535433070866141
                },
                {
                    "duration": 0.032738062500015985,
                    "durationTicks": 33,
                    "midi": 46,
                    "name": "A#2",
                    "ticks": 126960,
                    "time": 125.952255,
                    "velocity": 0.6535433070866141
                },
                {
                    "duration": 0.032738062500015985,
                    "durationTicks": 33,
                    "midi": 36,
                    "name": "C2",
                    "ticks": 127200,
                    "time": 126.19035,
                    "velocity": 0.937007874015748
                },
                {
                    "duration": 0.032738062500015985,
                    "durationTicks": 33,
                    "midi": 38,
                    "name": "D2",
                    "ticks": 127200,
                    "time": 126.19035,
                    "velocity": 0.889763779527559
                },
                {
                    "duration": 0.032738062500015985,
                    "durationTicks": 33,
                    "midi": 42,
                    "name": "F#2",
                    "ticks": 127200,
                    "time": 126.19035,
                    "velocity": 0.6535433070866141
                },
                {
                    "duration": 0.032738062500001774,
                    "durationTicks": 33,
                    "midi": 42,
                    "name": "F#2",
                    "ticks": 127320,
                    "time": 126.3093975,
                    "velocity": 0.6535433070866141
                },
                {
                    "duration": 0.032738062500015985,
                    "durationTicks": 33,
                    "midi": 46,
                    "name": "A#2",
                    "ticks": 127440,
                    "time": 126.428445,
                    "velocity": 0.6535433070866141
                },
                {
                    "duration": 0.032738062499987564,
                    "durationTicks": 33,
                    "midi": 36,
                    "name": "C2",
                    "ticks": 130560,
                    "time": 129.52368,
                    "velocity": 0.937007874015748
                },
                {
                    "duration": 0.032738062499987564,
                    "durationTicks": 33,
                    "midi": 42,
                    "name": "F#2",
                    "ticks": 130560,
                    "time": 129.52368,
                    "velocity": 0.6535433070866141
                },
                {
                    "duration": 0.032738062499987564,
                    "durationTicks": 33,
                    "midi": 57,
                    "name": "A3",
                    "ticks": 130560,
                    "time": 129.52368,
                    "velocity": 0.6850393700787402
                },
                {
                    "duration": 0.032738062500015985,
                    "durationTicks": 33,
                    "midi": 42,
                    "name": "F#2",
                    "ticks": 130680,
                    "time": 129.6427275,
                    "velocity": 0.6535433070866141
                },
                {
                    "duration": 0.032738062500015985,
                    "durationTicks": 33,
                    "midi": 46,
                    "name": "A#2",
                    "ticks": 130800,
                    "time": 129.761775,
                    "velocity": 0.6535433070866141
                },
                {
                    "duration": 0.032738062500015985,
                    "durationTicks": 33,
                    "midi": 36,
                    "name": "C2",
                    "ticks": 131040,
                    "time": 129.99987,
                    "velocity": 0.937007874015748
                },
                {
                    "duration": 0.032738062500015985,
                    "durationTicks": 33,
                    "midi": 38,
                    "name": "D2",
                    "ticks": 131040,
                    "time": 129.99987,
                    "velocity": 0.889763779527559
                },
                {
                    "duration": 0.032738062500015985,
                    "durationTicks": 33,
                    "midi": 42,
                    "name": "F#2",
                    "ticks": 131040,
                    "time": 129.99987,
                    "velocity": 0.6535433070866141
                },
                {
                    "duration": 0.032738062500015985,
                    "durationTicks": 33,
                    "midi": 42,
                    "name": "F#2",
                    "ticks": 131160,
                    "time": 130.1189175,
                    "velocity": 0.6535433070866141
                },
                {
                    "duration": 0.032738062500015985,
                    "durationTicks": 33,
                    "midi": 46,
                    "name": "A#2",
                    "ticks": 131280,
                    "time": 130.237965,
                    "velocity": 0.6535433070866141
                },
                {
                    "duration": 0.032738062500015985,
                    "durationTicks": 33,
                    "midi": 36,
                    "name": "C2",
                    "ticks": 131520,
                    "time": 130.47606,
                    "velocity": 0.937007874015748
                },
                {
                    "duration": 0.032738062500015985,
                    "durationTicks": 33,
                    "midi": 42,
                    "name": "F#2",
                    "ticks": 131520,
                    "time": 130.47606,
                    "velocity": 0.6535433070866141
                },
                {
                    "duration": 0.032738062499987564,
                    "durationTicks": 33,
                    "midi": 42,
                    "name": "F#2",
                    "ticks": 131640,
                    "time": 130.5951075,
                    "velocity": 0.6535433070866141
                },
                {
                    "duration": 0.032738062500015985,
                    "durationTicks": 33,
                    "midi": 46,
                    "name": "A#2",
                    "ticks": 131760,
                    "time": 130.714155,
                    "velocity": 0.6535433070866141
                },
                {
                    "duration": 0.032738062500015985,
                    "durationTicks": 33,
                    "midi": 36,
                    "name": "C2",
                    "ticks": 132000,
                    "time": 130.95225,
                    "velocity": 0.937007874015748
                },
                {
                    "duration": 0.032738062500015985,
                    "durationTicks": 33,
                    "midi": 38,
                    "name": "D2",
                    "ticks": 132000,
                    "time": 130.95225,
                    "velocity": 0.889763779527559
                },
                {
                    "duration": 0.032738062500015985,
                    "durationTicks": 33,
                    "midi": 42,
                    "name": "F#2",
                    "ticks": 132000,
                    "time": 130.95225,
                    "velocity": 0.6535433070866141
                },
                {
                    "duration": 0.032738062499987564,
                    "durationTicks": 33,
                    "midi": 42,
                    "name": "F#2",
                    "ticks": 132120,
                    "time": 131.07129750000001,
                    "velocity": 0.6535433070866141
                },
                {
                    "duration": 0.032738062500015985,
                    "durationTicks": 33,
                    "midi": 46,
                    "name": "A#2",
                    "ticks": 132240,
                    "time": 131.190345,
                    "velocity": 0.6535433070866141
                },
                {
                    "duration": 0.032738062500015985,
                    "durationTicks": 33,
                    "midi": 36,
                    "name": "C2",
                    "ticks": 132480,
                    "time": 131.42844,
                    "velocity": 0.937007874015748
                },
                {
                    "duration": 0.032738062500015985,
                    "durationTicks": 33,
                    "midi": 42,
                    "name": "F#2",
                    "ticks": 132480,
                    "time": 131.42844,
                    "velocity": 0.6535433070866141
                },
                {
                    "duration": 0.032738062500015985,
                    "durationTicks": 33,
                    "midi": 42,
                    "name": "F#2",
                    "ticks": 132600,
                    "time": 131.5474875,
                    "velocity": 0.6535433070866141
                },
                {
                    "duration": 0.032738062499987564,
                    "durationTicks": 33,
                    "midi": 46,
                    "name": "A#2",
                    "ticks": 132720,
                    "time": 131.666535,
                    "velocity": 0.6535433070866141
                },
                {
                    "duration": 0.032738062500015985,
                    "durationTicks": 33,
                    "midi": 36,
                    "name": "C2",
                    "ticks": 132960,
                    "time": 131.90463,
                    "velocity": 0.937007874015748
                },
                {
                    "duration": 0.032738062500015985,
                    "durationTicks": 33,
                    "midi": 38,
                    "name": "D2",
                    "ticks": 132960,
                    "time": 131.90463,
                    "velocity": 0.889763779527559
                },
                {
                    "duration": 0.032738062500015985,
                    "durationTicks": 33,
                    "midi": 42,
                    "name": "F#2",
                    "ticks": 132960,
                    "time": 131.90463,
                    "velocity": 0.6535433070866141
                },
                {
                    "duration": 0.032738062500015985,
                    "durationTicks": 33,
                    "midi": 42,
                    "name": "F#2",
                    "ticks": 133080,
                    "time": 132.0236775,
                    "velocity": 0.6535433070866141
                },
                {
                    "duration": 0.032738062499987564,
                    "durationTicks": 33,
                    "midi": 46,
                    "name": "A#2",
                    "ticks": 133200,
                    "time": 132.142725,
                    "velocity": 0.6535433070866141
                },
                {
                    "duration": 0.032738062500015985,
                    "durationTicks": 33,
                    "midi": 36,
                    "name": "C2",
                    "ticks": 133440,
                    "time": 132.38082,
                    "velocity": 0.937007874015748
                },
                {
                    "duration": 0.032738062500015985,
                    "durationTicks": 33,
                    "midi": 42,
                    "name": "F#2",
                    "ticks": 133440,
                    "time": 132.38082,
                    "velocity": 0.6535433070866141
                },
                {
                    "duration": 0.032738062500015985,
                    "durationTicks": 33,
                    "midi": 42,
                    "name": "F#2",
                    "ticks": 133560,
                    "time": 132.4998675,
                    "velocity": 0.6535433070866141
                },
                {
                    "duration": 0.032738062500015985,
                    "durationTicks": 33,
                    "midi": 46,
                    "name": "A#2",
                    "ticks": 133680,
                    "time": 132.618915,
                    "velocity": 0.6535433070866141
                },
                {
                    "duration": 0.032738062500015985,
                    "durationTicks": 33,
                    "midi": 36,
                    "name": "C2",
                    "ticks": 133920,
                    "time": 132.85701,
                    "velocity": 0.937007874015748
                },
                {
                    "duration": 0.032738062500015985,
                    "durationTicks": 33,
                    "midi": 38,
                    "name": "D2",
                    "ticks": 133920,
                    "time": 132.85701,
                    "velocity": 0.889763779527559
                },
                {
                    "duration": 0.032738062500015985,
                    "durationTicks": 33,
                    "midi": 42,
                    "name": "F#2",
                    "ticks": 133920,
                    "time": 132.85701,
                    "velocity": 0.6535433070866141
                },
                {
                    "duration": 0.032738062500015985,
                    "durationTicks": 33,
                    "midi": 42,
                    "name": "F#2",
                    "ticks": 134040,
                    "time": 132.9760575,
                    "velocity": 0.6535433070866141
                },
                {
                    "duration": 0.032738062500015985,
                    "durationTicks": 33,
                    "midi": 46,
                    "name": "A#2",
                    "ticks": 134160,
                    "time": 133.095105,
                    "velocity": 0.6535433070866141
                },
                {
                    "duration": 0.032738062500015985,
                    "durationTicks": 33,
                    "midi": 36,
                    "name": "C2",
                    "ticks": 134400,
                    "time": 133.3332,
                    "velocity": 0.937007874015748
                },
                {
                    "duration": 0.032738062500015985,
                    "durationTicks": 33,
                    "midi": 42,
                    "name": "F#2",
                    "ticks": 134400,
                    "time": 133.3332,
                    "velocity": 0.6535433070866141
                },
                {
                    "duration": 0.032738062500015985,
                    "durationTicks": 33,
                    "midi": 42,
                    "name": "F#2",
                    "ticks": 134520,
                    "time": 133.4522475,
                    "velocity": 0.6535433070866141
                },
                {
                    "duration": 0.032738062500015985,
                    "durationTicks": 33,
                    "midi": 46,
                    "name": "A#2",
                    "ticks": 134640,
                    "time": 133.571295,
                    "velocity": 0.6535433070866141
                },
                {
                    "duration": 0.032738062500015985,
                    "durationTicks": 33,
                    "midi": 36,
                    "name": "C2",
                    "ticks": 134880,
                    "time": 133.80939,
                    "velocity": 0.937007874015748
                },
                {
                    "duration": 0.032738062500015985,
                    "durationTicks": 33,
                    "midi": 38,
                    "name": "D2",
                    "ticks": 134880,
                    "time": 133.80939,
                    "velocity": 0.889763779527559
                },
                {
                    "duration": 0.032738062500015985,
                    "durationTicks": 33,
                    "midi": 42,
                    "name": "F#2",
                    "ticks": 134880,
                    "time": 133.80939,
                    "velocity": 0.6535433070866141
                },
                {
                    "duration": 0.032738062500015985,
                    "durationTicks": 33,
                    "midi": 42,
                    "name": "F#2",
                    "ticks": 135000,
                    "time": 133.9284375,
                    "velocity": 0.6535433070866141
                },
                {
                    "duration": 0.032738062500015985,
                    "durationTicks": 33,
                    "midi": 46,
                    "name": "A#2",
                    "ticks": 135120,
                    "time": 134.047485,
                    "velocity": 0.6535433070866141
                },
                {
                    "duration": 0.032738062499987564,
                    "durationTicks": 33,
                    "midi": 36,
                    "name": "C2",
                    "ticks": 135360,
                    "time": 134.28558,
                    "velocity": 0.937007874015748
                },
                {
                    "duration": 0.032738062499987564,
                    "durationTicks": 33,
                    "midi": 42,
                    "name": "F#2",
                    "ticks": 135360,
                    "time": 134.28558,
                    "velocity": 0.6535433070866141
                },
                {
                    "duration": 0.032738062500015985,
                    "durationTicks": 33,
                    "midi": 42,
                    "name": "F#2",
                    "ticks": 135480,
                    "time": 134.4046275,
                    "velocity": 0.6535433070866141
                },
                {
                    "duration": 0.032738062500015985,
                    "durationTicks": 33,
                    "midi": 46,
                    "name": "A#2",
                    "ticks": 135600,
                    "time": 134.523675,
                    "velocity": 0.6535433070866141
                },
                {
                    "duration": 0.032738062499987564,
                    "durationTicks": 33,
                    "midi": 36,
                    "name": "C2",
                    "ticks": 135840,
                    "time": 134.76177,
                    "velocity": 0.937007874015748
                },
                {
                    "duration": 0.032738062499987564,
                    "durationTicks": 33,
                    "midi": 38,
                    "name": "D2",
                    "ticks": 135840,
                    "time": 134.76177,
                    "velocity": 0.889763779527559
                },
                {
                    "duration": 0.032738062499987564,
                    "durationTicks": 33,
                    "midi": 42,
                    "name": "F#2",
                    "ticks": 135840,
                    "time": 134.76177,
                    "velocity": 0.6535433070866141
                },
                {
                    "duration": 0.032738062500015985,
                    "durationTicks": 33,
                    "midi": 42,
                    "name": "F#2",
                    "ticks": 135960,
                    "time": 134.8808175,
                    "velocity": 0.6535433070866141
                },
                {
                    "duration": 0.032738062500015985,
                    "durationTicks": 33,
                    "midi": 46,
                    "name": "A#2",
                    "ticks": 136080,
                    "time": 134.999865,
                    "velocity": 0.6535433070866141
                },
                {
                    "duration": 0.032738062500015985,
                    "durationTicks": 33,
                    "midi": 36,
                    "name": "C2",
                    "ticks": 136320,
                    "time": 135.23796,
                    "velocity": 0.937007874015748
                },
                {
                    "duration": 0.032738062500015985,
                    "durationTicks": 33,
                    "midi": 42,
                    "name": "F#2",
                    "ticks": 136320,
                    "time": 135.23796,
                    "velocity": 0.6535433070866141
                },
                {
                    "duration": 0.032738062500015985,
                    "durationTicks": 33,
                    "midi": 42,
                    "name": "F#2",
                    "ticks": 136440,
                    "time": 135.3570075,
                    "velocity": 0.6535433070866141
                },
                {
                    "duration": 0.032738062500015985,
                    "durationTicks": 33,
                    "midi": 46,
                    "name": "A#2",
                    "ticks": 136560,
                    "time": 135.476055,
                    "velocity": 0.6535433070866141
                },
                {
                    "duration": 0.032738062500015985,
                    "durationTicks": 33,
                    "midi": 36,
                    "name": "C2",
                    "ticks": 136800,
                    "time": 135.71415,
                    "velocity": 0.937007874015748
                },
                {
                    "duration": 0.032738062500015985,
                    "durationTicks": 33,
                    "midi": 38,
                    "name": "D2",
                    "ticks": 136800,
                    "time": 135.71415,
                    "velocity": 0.889763779527559
                },
                {
                    "duration": 0.032738062500015985,
                    "durationTicks": 33,
                    "midi": 42,
                    "name": "F#2",
                    "ticks": 136800,
                    "time": 135.71415,
                    "velocity": 0.6535433070866141
                },
                {
                    "duration": 0.032738062499987564,
                    "durationTicks": 33,
                    "midi": 42,
                    "name": "F#2",
                    "ticks": 136920,
                    "time": 135.8331975,
                    "velocity": 0.6535433070866141
                },
                {
                    "duration": 0.032738062500015985,
                    "durationTicks": 33,
                    "midi": 46,
                    "name": "A#2",
                    "ticks": 137040,
                    "time": 135.952245,
                    "velocity": 0.6535433070866141
                },
                {
                    "duration": 0.032738062500015985,
                    "durationTicks": 33,
                    "midi": 36,
                    "name": "C2",
                    "ticks": 137280,
                    "time": 136.19034,
                    "velocity": 0.937007874015748
                },
                {
                    "duration": 0.032738062500015985,
                    "durationTicks": 33,
                    "midi": 42,
                    "name": "F#2",
                    "ticks": 137280,
                    "time": 136.19034,
                    "velocity": 0.6535433070866141
                },
                {
                    "duration": 0.032738062499987564,
                    "durationTicks": 33,
                    "midi": 42,
                    "name": "F#2",
                    "ticks": 137400,
                    "time": 136.3093875,
                    "velocity": 0.6535433070866141
                },
                {
                    "duration": 0.032738062500015985,
                    "durationTicks": 33,
                    "midi": 46,
                    "name": "A#2",
                    "ticks": 137520,
                    "time": 136.428435,
                    "velocity": 0.6535433070866141
                },
                {
                    "duration": 0.032738062500015985,
                    "durationTicks": 33,
                    "midi": 36,
                    "name": "C2",
                    "ticks": 137760,
                    "time": 136.66653,
                    "velocity": 0.937007874015748
                },
                {
                    "duration": 0.032738062500015985,
                    "durationTicks": 33,
                    "midi": 38,
                    "name": "D2",
                    "ticks": 137760,
                    "time": 136.66653,
                    "velocity": 0.889763779527559
                },
                {
                    "duration": 0.032738062500015985,
                    "durationTicks": 33,
                    "midi": 42,
                    "name": "F#2",
                    "ticks": 137760,
                    "time": 136.66653,
                    "velocity": 0.6535433070866141
                },
                {
                    "duration": 0.032738062500015985,
                    "durationTicks": 33,
                    "midi": 42,
                    "name": "F#2",
                    "ticks": 137880,
                    "time": 136.7855775,
                    "velocity": 0.6535433070866141
                },
                {
                    "duration": 0.032738062499987564,
                    "durationTicks": 33,
                    "midi": 46,
                    "name": "A#2",
                    "ticks": 138000,
                    "time": 136.904625,
                    "velocity": 0.6535433070866141
                },
                {
                    "duration": 0.032738062500015985,
                    "durationTicks": 33,
                    "midi": 36,
                    "name": "C2",
                    "ticks": 138240,
                    "time": 137.14272,
                    "velocity": 0.937007874015748
                },
                {
                    "duration": 0.032738062500015985,
                    "durationTicks": 33,
                    "midi": 42,
                    "name": "F#2",
                    "ticks": 138240,
                    "time": 137.14272,
                    "velocity": 0.6535433070866141
                },
                {
                    "duration": 0.032738062500015985,
                    "durationTicks": 33,
                    "midi": 57,
                    "name": "A3",
                    "ticks": 138240,
                    "time": 137.14272,
                    "velocity": 0.6850393700787402
                },
                {
                    "duration": 0.032738062500015985,
                    "durationTicks": 33,
                    "midi": 42,
                    "name": "F#2",
                    "ticks": 138360,
                    "time": 137.2617675,
                    "velocity": 0.6535433070866141
                },
                {
                    "duration": 0.032738062499987564,
                    "durationTicks": 33,
                    "midi": 46,
                    "name": "A#2",
                    "ticks": 138480,
                    "time": 137.380815,
                    "velocity": 0.6535433070866141
                },
                {
                    "duration": 0.032738062500015985,
                    "durationTicks": 33,
                    "midi": 36,
                    "name": "C2",
                    "ticks": 138720,
                    "time": 137.61891,
                    "velocity": 0.937007874015748
                },
                {
                    "duration": 0.032738062500015985,
                    "durationTicks": 33,
                    "midi": 38,
                    "name": "D2",
                    "ticks": 138720,
                    "time": 137.61891,
                    "velocity": 0.889763779527559
                },
                {
                    "duration": 0.032738062500015985,
                    "durationTicks": 33,
                    "midi": 42,
                    "name": "F#2",
                    "ticks": 138720,
                    "time": 137.61891,
                    "velocity": 0.6535433070866141
                },
                {
                    "duration": 0.032738062500015985,
                    "durationTicks": 33,
                    "midi": 42,
                    "name": "F#2",
                    "ticks": 138840,
                    "time": 137.7379575,
                    "velocity": 0.6535433070866141
                },
                {
                    "duration": 0.032738062500015985,
                    "durationTicks": 33,
                    "midi": 46,
                    "name": "A#2",
                    "ticks": 138960,
                    "time": 137.857005,
                    "velocity": 0.6535433070866141
                },
                {
                    "duration": 0.032738062500015985,
                    "durationTicks": 33,
                    "midi": 36,
                    "name": "C2",
                    "ticks": 139200,
                    "time": 138.0951,
                    "velocity": 0.937007874015748
                },
                {
                    "duration": 0.032738062500015985,
                    "durationTicks": 33,
                    "midi": 42,
                    "name": "F#2",
                    "ticks": 139200,
                    "time": 138.0951,
                    "velocity": 0.6535433070866141
                },
                {
                    "duration": 0.032738062500015985,
                    "durationTicks": 33,
                    "midi": 42,
                    "name": "F#2",
                    "ticks": 139320,
                    "time": 138.2141475,
                    "velocity": 0.6535433070866141
                },
                {
                    "duration": 0.032738062500015985,
                    "durationTicks": 33,
                    "midi": 46,
                    "name": "A#2",
                    "ticks": 139440,
                    "time": 138.333195,
                    "velocity": 0.6535433070866141
                },
                {
                    "duration": 0.032738062500015985,
                    "durationTicks": 33,
                    "midi": 36,
                    "name": "C2",
                    "ticks": 139680,
                    "time": 138.57129,
                    "velocity": 0.937007874015748
                },
                {
                    "duration": 0.032738062500015985,
                    "durationTicks": 33,
                    "midi": 38,
                    "name": "D2",
                    "ticks": 139680,
                    "time": 138.57129,
                    "velocity": 0.889763779527559
                },
                {
                    "duration": 0.032738062500015985,
                    "durationTicks": 33,
                    "midi": 42,
                    "name": "F#2",
                    "ticks": 139680,
                    "time": 138.57129,
                    "velocity": 0.6535433070866141
                },
                {
                    "duration": 0.032738062500015985,
                    "durationTicks": 33,
                    "midi": 42,
                    "name": "F#2",
                    "ticks": 139800,
                    "time": 138.6903375,
                    "velocity": 0.6535433070866141
                },
                {
                    "duration": 0.032738062500015985,
                    "durationTicks": 33,
                    "midi": 46,
                    "name": "A#2",
                    "ticks": 139920,
                    "time": 138.809385,
                    "velocity": 0.6535433070866141
                },
                {
                    "duration": 0.032738062500015985,
                    "durationTicks": 33,
                    "midi": 36,
                    "name": "C2",
                    "ticks": 140160,
                    "time": 139.04748,
                    "velocity": 0.937007874015748
                },
                {
                    "duration": 0.032738062500015985,
                    "durationTicks": 33,
                    "midi": 42,
                    "name": "F#2",
                    "ticks": 140160,
                    "time": 139.04748,
                    "velocity": 0.6535433070866141
                },
                {
                    "duration": 0.032738062500015985,
                    "durationTicks": 33,
                    "midi": 42,
                    "name": "F#2",
                    "ticks": 140280,
                    "time": 139.1665275,
                    "velocity": 0.6535433070866141
                },
                {
                    "duration": 0.032738062500015985,
                    "durationTicks": 33,
                    "midi": 46,
                    "name": "A#2",
                    "ticks": 140400,
                    "time": 139.285575,
                    "velocity": 0.6535433070866141
                },
                {
                    "duration": 0.032738062499987564,
                    "durationTicks": 33,
                    "midi": 36,
                    "name": "C2",
                    "ticks": 140640,
                    "time": 139.52367,
                    "velocity": 0.937007874015748
                },
                {
                    "duration": 0.032738062499987564,
                    "durationTicks": 33,
                    "midi": 38,
                    "name": "D2",
                    "ticks": 140640,
                    "time": 139.52367,
                    "velocity": 0.889763779527559
                },
                {
                    "duration": 0.032738062499987564,
                    "durationTicks": 33,
                    "midi": 42,
                    "name": "F#2",
                    "ticks": 140640,
                    "time": 139.52367,
                    "velocity": 0.6535433070866141
                },
                {
                    "duration": 0.032738062500015985,
                    "durationTicks": 33,
                    "midi": 42,
                    "name": "F#2",
                    "ticks": 140760,
                    "time": 139.6427175,
                    "velocity": 0.6535433070866141
                },
                {
                    "duration": 0.032738062500015985,
                    "durationTicks": 33,
                    "midi": 46,
                    "name": "A#2",
                    "ticks": 140880,
                    "time": 139.761765,
                    "velocity": 0.6535433070866141
                },
                {
                    "duration": 0.032738062499987564,
                    "durationTicks": 33,
                    "midi": 36,
                    "name": "C2",
                    "ticks": 141120,
                    "time": 139.99986,
                    "velocity": 0.937007874015748
                },
                {
                    "duration": 0.032738062499987564,
                    "durationTicks": 33,
                    "midi": 42,
                    "name": "F#2",
                    "ticks": 141120,
                    "time": 139.99986,
                    "velocity": 0.6535433070866141
                },
                {
                    "duration": 0.032738062500015985,
                    "durationTicks": 33,
                    "midi": 42,
                    "name": "F#2",
                    "ticks": 141240,
                    "time": 140.1189075,
                    "velocity": 0.6535433070866141
                },
                {
                    "duration": 0.032738062500015985,
                    "durationTicks": 33,
                    "midi": 46,
                    "name": "A#2",
                    "ticks": 141360,
                    "time": 140.237955,
                    "velocity": 0.6535433070866141
                },
                {
                    "duration": 0.032738062500015985,
                    "durationTicks": 33,
                    "midi": 36,
                    "name": "C2",
                    "ticks": 141600,
                    "time": 140.47605,
                    "velocity": 0.937007874015748
                },
                {
                    "duration": 0.032738062500015985,
                    "durationTicks": 33,
                    "midi": 38,
                    "name": "D2",
                    "ticks": 141600,
                    "time": 140.47605,
                    "velocity": 0.889763779527559
                },
                {
                    "duration": 0.032738062500015985,
                    "durationTicks": 33,
                    "midi": 42,
                    "name": "F#2",
                    "ticks": 141600,
                    "time": 140.47605,
                    "velocity": 0.6535433070866141
                },
                {
                    "duration": 0.032738062500015985,
                    "durationTicks": 33,
                    "midi": 42,
                    "name": "F#2",
                    "ticks": 141720,
                    "time": 140.5950975,
                    "velocity": 0.6535433070866141
                },
                {
                    "duration": 0.032738062500015985,
                    "durationTicks": 33,
                    "midi": 46,
                    "name": "A#2",
                    "ticks": 141840,
                    "time": 140.714145,
                    "velocity": 0.6535433070866141
                },
                {
                    "duration": 0.032738062500015985,
                    "durationTicks": 33,
                    "midi": 36,
                    "name": "C2",
                    "ticks": 142080,
                    "time": 140.95224,
                    "velocity": 0.937007874015748
                },
                {
                    "duration": 0.032738062500015985,
                    "durationTicks": 33,
                    "midi": 42,
                    "name": "F#2",
                    "ticks": 142080,
                    "time": 140.95224,
                    "velocity": 0.6535433070866141
                },
                {
                    "duration": 0.032738062499987564,
                    "durationTicks": 33,
                    "midi": 42,
                    "name": "F#2",
                    "ticks": 142200,
                    "time": 141.0712875,
                    "velocity": 0.6535433070866141
                },
                {
                    "duration": 0.032738062500015985,
                    "durationTicks": 33,
                    "midi": 46,
                    "name": "A#2",
                    "ticks": 142320,
                    "time": 141.190335,
                    "velocity": 0.6535433070866141
                },
                {
                    "duration": 0.032738062500015985,
                    "durationTicks": 33,
                    "midi": 36,
                    "name": "C2",
                    "ticks": 142560,
                    "time": 141.42843,
                    "velocity": 0.937007874015748
                },
                {
                    "duration": 0.032738062500015985,
                    "durationTicks": 33,
                    "midi": 38,
                    "name": "D2",
                    "ticks": 142560,
                    "time": 141.42843,
                    "velocity": 0.889763779527559
                },
                {
                    "duration": 0.032738062500015985,
                    "durationTicks": 33,
                    "midi": 42,
                    "name": "F#2",
                    "ticks": 142560,
                    "time": 141.42843,
                    "velocity": 0.6535433070866141
                },
                {
                    "duration": 0.032738062499987564,
                    "durationTicks": 33,
                    "midi": 42,
                    "name": "F#2",
                    "ticks": 142680,
                    "time": 141.5474775,
                    "velocity": 0.6535433070866141
                },
                {
                    "duration": 0.032738062500015985,
                    "durationTicks": 33,
                    "midi": 46,
                    "name": "A#2",
                    "ticks": 142800,
                    "time": 141.666525,
                    "velocity": 0.6535433070866141
                },
                {
                    "duration": 0.032738062500015985,
                    "durationTicks": 33,
                    "midi": 36,
                    "name": "C2",
                    "ticks": 143040,
                    "time": 141.90462,
                    "velocity": 0.937007874015748
                },
                {
                    "duration": 0.032738062500015985,
                    "durationTicks": 33,
                    "midi": 42,
                    "name": "F#2",
                    "ticks": 143040,
                    "time": 141.90462,
                    "velocity": 0.6535433070866141
                },
                {
                    "duration": 0.032738062500015985,
                    "durationTicks": 33,
                    "midi": 42,
                    "name": "F#2",
                    "ticks": 143160,
                    "time": 142.0236675,
                    "velocity": 0.6535433070866141
                },
                {
                    "duration": 0.032738062500015985,
                    "durationTicks": 33,
                    "midi": 46,
                    "name": "A#2",
                    "ticks": 143280,
                    "time": 142.142715,
                    "velocity": 0.6535433070866141
                },
                {
                    "duration": 0.032738062500015985,
                    "durationTicks": 33,
                    "midi": 36,
                    "name": "C2",
                    "ticks": 143520,
                    "time": 142.38081,
                    "velocity": 0.937007874015748
                },
                {
                    "duration": 0.032738062500015985,
                    "durationTicks": 33,
                    "midi": 38,
                    "name": "D2",
                    "ticks": 143520,
                    "time": 142.38081,
                    "velocity": 0.889763779527559
                },
                {
                    "duration": 0.032738062500015985,
                    "durationTicks": 33,
                    "midi": 42,
                    "name": "F#2",
                    "ticks": 143520,
                    "time": 142.38081,
                    "velocity": 0.6535433070866141
                },
                {
                    "duration": 0.032738062500015985,
                    "durationTicks": 33,
                    "midi": 42,
                    "name": "F#2",
                    "ticks": 143640,
                    "time": 142.4998575,
                    "velocity": 0.6535433070866141
                },
                {
                    "duration": 0.032738062499987564,
                    "durationTicks": 33,
                    "midi": 46,
                    "name": "A#2",
                    "ticks": 143760,
                    "time": 142.618905,
                    "velocity": 0.6535433070866141
                },
                {
                    "duration": 0.032738062500015985,
                    "durationTicks": 33,
                    "midi": 36,
                    "name": "C2",
                    "ticks": 144000,
                    "time": 142.857,
                    "velocity": 0.937007874015748
                },
                {
                    "duration": 0.032738062500015985,
                    "durationTicks": 33,
                    "midi": 42,
                    "name": "F#2",
                    "ticks": 144000,
                    "time": 142.857,
                    "velocity": 0.6535433070866141
                },
                {
                    "duration": 0.032738062500015985,
                    "durationTicks": 33,
                    "midi": 42,
                    "name": "F#2",
                    "ticks": 144120,
                    "time": 142.9760475,
                    "velocity": 0.6535433070866141
                },
                {
                    "duration": 0.032738062499987564,
                    "durationTicks": 33,
                    "midi": 46,
                    "name": "A#2",
                    "ticks": 144240,
                    "time": 143.09509500000001,
                    "velocity": 0.6535433070866141
                },
                {
                    "duration": 0.032738062500015985,
                    "durationTicks": 33,
                    "midi": 36,
                    "name": "C2",
                    "ticks": 144480,
                    "time": 143.33319,
                    "velocity": 0.937007874015748
                },
                {
                    "duration": 0.032738062500015985,
                    "durationTicks": 33,
                    "midi": 38,
                    "name": "D2",
                    "ticks": 144480,
                    "time": 143.33319,
                    "velocity": 0.889763779527559
                },
                {
                    "duration": 0.032738062500015985,
                    "durationTicks": 33,
                    "midi": 42,
                    "name": "F#2",
                    "ticks": 144480,
                    "time": 143.33319,
                    "velocity": 0.6535433070866141
                },
                {
                    "duration": 0.032738062500015985,
                    "durationTicks": 33,
                    "midi": 42,
                    "name": "F#2",
                    "ticks": 144600,
                    "time": 143.4522375,
                    "velocity": 0.6535433070866141
                },
                {
                    "duration": 0.032738062500015985,
                    "durationTicks": 33,
                    "midi": 46,
                    "name": "A#2",
                    "ticks": 144720,
                    "time": 143.571285,
                    "velocity": 0.6535433070866141
                },
                {
                    "duration": 0.032738062500015985,
                    "durationTicks": 33,
                    "midi": 36,
                    "name": "C2",
                    "ticks": 144960,
                    "time": 143.80938,
                    "velocity": 0.937007874015748
                },
                {
                    "duration": 0.032738062500015985,
                    "durationTicks": 33,
                    "midi": 42,
                    "name": "F#2",
                    "ticks": 144960,
                    "time": 143.80938,
                    "velocity": 0.6535433070866141
                },
                {
                    "duration": 0.032738062500015985,
                    "durationTicks": 33,
                    "midi": 42,
                    "name": "F#2",
                    "ticks": 145080,
                    "time": 143.9284275,
                    "velocity": 0.6535433070866141
                },
                {
                    "duration": 0.032738062500015985,
                    "durationTicks": 33,
                    "midi": 46,
                    "name": "A#2",
                    "ticks": 145200,
                    "time": 144.047475,
                    "velocity": 0.6535433070866141
                },
                {
                    "duration": 0.032738062500015985,
                    "durationTicks": 33,
                    "midi": 36,
                    "name": "C2",
                    "ticks": 145440,
                    "time": 144.28557,
                    "velocity": 0.937007874015748
                },
                {
                    "duration": 0.032738062500015985,
                    "durationTicks": 33,
                    "midi": 38,
                    "name": "D2",
                    "ticks": 145440,
                    "time": 144.28557,
                    "velocity": 0.889763779527559
                },
                {
                    "duration": 0.032738062500015985,
                    "durationTicks": 33,
                    "midi": 42,
                    "name": "F#2",
                    "ticks": 145440,
                    "time": 144.28557,
                    "velocity": 0.6535433070866141
                },
                {
                    "duration": 0.032738062500015985,
                    "durationTicks": 33,
                    "midi": 42,
                    "name": "F#2",
                    "ticks": 145560,
                    "time": 144.4046175,
                    "velocity": 0.6535433070866141
                },
                {
                    "duration": 0.032738062500015985,
                    "durationTicks": 33,
                    "midi": 46,
                    "name": "A#2",
                    "ticks": 145680,
                    "time": 144.523665,
                    "velocity": 0.6535433070866141
                },
                {
                    "duration": 0.032738062500015985,
                    "durationTicks": 33,
                    "midi": 36,
                    "name": "C2",
                    "ticks": 145920,
                    "time": 144.76176,
                    "velocity": 0.937007874015748
                },
                {
                    "duration": 0.032738062500015985,
                    "durationTicks": 33,
                    "midi": 42,
                    "name": "F#2",
                    "ticks": 145920,
                    "time": 144.76176,
                    "velocity": 0.6535433070866141
                },
                {
                    "duration": 0.032738062500015985,
                    "durationTicks": 33,
                    "midi": 57,
                    "name": "A3",
                    "ticks": 145920,
                    "time": 144.76176,
                    "velocity": 0.6850393700787402
                },
                {
                    "duration": 0.032738062500015985,
                    "durationTicks": 33,
                    "midi": 42,
                    "name": "F#2",
                    "ticks": 146040,
                    "time": 144.8808075,
                    "velocity": 0.6535433070866141
                },
                {
                    "duration": 0.032738062500015985,
                    "durationTicks": 33,
                    "midi": 46,
                    "name": "A#2",
                    "ticks": 146160,
                    "time": 144.999855,
                    "velocity": 0.6535433070866141
                },
                {
                    "duration": 0.032738062499987564,
                    "durationTicks": 33,
                    "midi": 36,
                    "name": "C2",
                    "ticks": 146400,
                    "time": 145.23795,
                    "velocity": 0.937007874015748
                },
                {
                    "duration": 0.032738062499987564,
                    "durationTicks": 33,
                    "midi": 38,
                    "name": "D2",
                    "ticks": 146400,
                    "time": 145.23795,
                    "velocity": 0.889763779527559
                },
                {
                    "duration": 0.032738062499987564,
                    "durationTicks": 33,
                    "midi": 42,
                    "name": "F#2",
                    "ticks": 146400,
                    "time": 145.23795,
                    "velocity": 0.6535433070866141
                },
                {
                    "duration": 0.032738062500015985,
                    "durationTicks": 33,
                    "midi": 42,
                    "name": "F#2",
                    "ticks": 146520,
                    "time": 145.3569975,
                    "velocity": 0.6535433070866141
                },
                {
                    "duration": 0.032738062500015985,
                    "durationTicks": 33,
                    "midi": 46,
                    "name": "A#2",
                    "ticks": 146640,
                    "time": 145.476045,
                    "velocity": 0.6535433070866141
                },
                {
                    "duration": 0.032738062499987564,
                    "durationTicks": 33,
                    "midi": 36,
                    "name": "C2",
                    "ticks": 146880,
                    "time": 145.71414000000001,
                    "velocity": 0.937007874015748
                },
                {
                    "duration": 0.032738062499987564,
                    "durationTicks": 33,
                    "midi": 42,
                    "name": "F#2",
                    "ticks": 146880,
                    "time": 145.71414000000001,
                    "velocity": 0.6535433070866141
                },
                {
                    "duration": 0.032738062500015985,
                    "durationTicks": 33,
                    "midi": 42,
                    "name": "F#2",
                    "ticks": 147000,
                    "time": 145.8331875,
                    "velocity": 0.6535433070866141
                },
                {
                    "duration": 0.032738062500015985,
                    "durationTicks": 33,
                    "midi": 46,
                    "name": "A#2",
                    "ticks": 147120,
                    "time": 145.952235,
                    "velocity": 0.6535433070866141
                },
                {
                    "duration": 0.032738062500015985,
                    "durationTicks": 33,
                    "midi": 36,
                    "name": "C2",
                    "ticks": 147360,
                    "time": 146.19033,
                    "velocity": 0.937007874015748
                },
                {
                    "duration": 0.032738062500015985,
                    "durationTicks": 33,
                    "midi": 38,
                    "name": "D2",
                    "ticks": 147360,
                    "time": 146.19033,
                    "velocity": 0.889763779527559
                },
                {
                    "duration": 0.032738062500015985,
                    "durationTicks": 33,
                    "midi": 42,
                    "name": "F#2",
                    "ticks": 147360,
                    "time": 146.19033,
                    "velocity": 0.6535433070866141
                },
                {
                    "duration": 0.032738062499987564,
                    "durationTicks": 33,
                    "midi": 42,
                    "name": "F#2",
                    "ticks": 147480,
                    "time": 146.3093775,
                    "velocity": 0.6535433070866141
                },
                {
                    "duration": 0.032738062500015985,
                    "durationTicks": 33,
                    "midi": 46,
                    "name": "A#2",
                    "ticks": 147600,
                    "time": 146.428425,
                    "velocity": 0.6535433070866141
                },
                {
                    "duration": 0.032738062500015985,
                    "durationTicks": 33,
                    "midi": 36,
                    "name": "C2",
                    "ticks": 147840,
                    "time": 146.66652,
                    "velocity": 0.937007874015748
                },
                {
                    "duration": 0.032738062500015985,
                    "durationTicks": 33,
                    "midi": 42,
                    "name": "F#2",
                    "ticks": 147840,
                    "time": 146.66652,
                    "velocity": 0.6535433070866141
                },
                {
                    "duration": 0.032738062499987564,
                    "durationTicks": 33,
                    "midi": 42,
                    "name": "F#2",
                    "ticks": 147960,
                    "time": 146.7855675,
                    "velocity": 0.6535433070866141
                },
                {
                    "duration": 0.032738062500015985,
                    "durationTicks": 33,
                    "midi": 46,
                    "name": "A#2",
                    "ticks": 148080,
                    "time": 146.904615,
                    "velocity": 0.6535433070866141
                },
                {
                    "duration": 0.032738062500015985,
                    "durationTicks": 33,
                    "midi": 36,
                    "name": "C2",
                    "ticks": 148320,
                    "time": 147.14271,
                    "velocity": 0.937007874015748
                },
                {
                    "duration": 0.032738062500015985,
                    "durationTicks": 33,
                    "midi": 38,
                    "name": "D2",
                    "ticks": 148320,
                    "time": 147.14271,
                    "velocity": 0.889763779527559
                },
                {
                    "duration": 0.032738062500015985,
                    "durationTicks": 33,
                    "midi": 42,
                    "name": "F#2",
                    "ticks": 148320,
                    "time": 147.14271,
                    "velocity": 0.6535433070866141
                },
                {
                    "duration": 0.032738062500015985,
                    "durationTicks": 33,
                    "midi": 42,
                    "name": "F#2",
                    "ticks": 148440,
                    "time": 147.2617575,
                    "velocity": 0.6535433070866141
                },
                {
                    "duration": 0.032738062500015985,
                    "durationTicks": 33,
                    "midi": 46,
                    "name": "A#2",
                    "ticks": 148560,
                    "time": 147.380805,
                    "velocity": 0.6535433070866141
                },
                {
                    "duration": 0.032738062500015985,
                    "durationTicks": 33,
                    "midi": 36,
                    "name": "C2",
                    "ticks": 148800,
                    "time": 147.6189,
                    "velocity": 0.937007874015748
                },
                {
                    "duration": 0.032738062500015985,
                    "durationTicks": 33,
                    "midi": 42,
                    "name": "F#2",
                    "ticks": 148800,
                    "time": 147.6189,
                    "velocity": 0.6535433070866141
                },
                {
                    "duration": 0.032738062500015985,
                    "durationTicks": 33,
                    "midi": 42,
                    "name": "F#2",
                    "ticks": 148920,
                    "time": 147.7379475,
                    "velocity": 0.6535433070866141
                },
                {
                    "duration": 0.032738062499987564,
                    "durationTicks": 33,
                    "midi": 46,
                    "name": "A#2",
                    "ticks": 149040,
                    "time": 147.856995,
                    "velocity": 0.6535433070866141
                },
                {
                    "duration": 0.032738062500015985,
                    "durationTicks": 33,
                    "midi": 36,
                    "name": "C2",
                    "ticks": 149280,
                    "time": 148.09509,
                    "velocity": 0.937007874015748
                },
                {
                    "duration": 0.032738062500015985,
                    "durationTicks": 33,
                    "midi": 38,
                    "name": "D2",
                    "ticks": 149280,
                    "time": 148.09509,
                    "velocity": 0.889763779527559
                },
                {
                    "duration": 0.032738062500015985,
                    "durationTicks": 33,
                    "midi": 42,
                    "name": "F#2",
                    "ticks": 149280,
                    "time": 148.09509,
                    "velocity": 0.6535433070866141
                },
                {
                    "duration": 0.032738062500015985,
                    "durationTicks": 33,
                    "midi": 42,
                    "name": "F#2",
                    "ticks": 149400,
                    "time": 148.2141375,
                    "velocity": 0.6535433070866141
                },
                {
                    "duration": 0.032738062499987564,
                    "durationTicks": 33,
                    "midi": 46,
                    "name": "A#2",
                    "ticks": 149520,
                    "time": 148.33318500000001,
                    "velocity": 0.6535433070866141
                },
                {
                    "duration": 0.032738062500015985,
                    "durationTicks": 33,
                    "midi": 36,
                    "name": "C2",
                    "ticks": 149760,
                    "time": 148.57128,
                    "velocity": 0.937007874015748
                },
                {
                    "duration": 0.032738062500015985,
                    "durationTicks": 33,
                    "midi": 42,
                    "name": "F#2",
                    "ticks": 149760,
                    "time": 148.57128,
                    "velocity": 0.6535433070866141
                },
                {
                    "duration": 0.032738062500015985,
                    "durationTicks": 33,
                    "midi": 42,
                    "name": "F#2",
                    "ticks": 149880,
                    "time": 148.6903275,
                    "velocity": 0.6535433070866141
                },
                {
                    "duration": 0.032738062500015985,
                    "durationTicks": 33,
                    "midi": 46,
                    "name": "A#2",
                    "ticks": 150000,
                    "time": 148.809375,
                    "velocity": 0.6535433070866141
                },
                {
                    "duration": 0.032738062500015985,
                    "durationTicks": 33,
                    "midi": 36,
                    "name": "C2",
                    "ticks": 150240,
                    "time": 149.04747,
                    "velocity": 0.937007874015748
                },
                {
                    "duration": 0.032738062500015985,
                    "durationTicks": 33,
                    "midi": 38,
                    "name": "D2",
                    "ticks": 150240,
                    "time": 149.04747,
                    "velocity": 0.889763779527559
                },
                {
                    "duration": 0.032738062500015985,
                    "durationTicks": 33,
                    "midi": 42,
                    "name": "F#2",
                    "ticks": 150240,
                    "time": 149.04747,
                    "velocity": 0.6535433070866141
                },
                {
                    "duration": 0.032738062500015985,
                    "durationTicks": 33,
                    "midi": 42,
                    "name": "F#2",
                    "ticks": 150360,
                    "time": 149.1665175,
                    "velocity": 0.6535433070866141
                },
                {
                    "duration": 0.032738062500015985,
                    "durationTicks": 33,
                    "midi": 46,
                    "name": "A#2",
                    "ticks": 150480,
                    "time": 149.285565,
                    "velocity": 0.6535433070866141
                },
                {
                    "duration": 0.032738062500015985,
                    "durationTicks": 33,
                    "midi": 36,
                    "name": "C2",
                    "ticks": 150720,
                    "time": 149.52366,
                    "velocity": 0.937007874015748
                },
                {
                    "duration": 0.032738062500015985,
                    "durationTicks": 33,
                    "midi": 42,
                    "name": "F#2",
                    "ticks": 150720,
                    "time": 149.52366,
                    "velocity": 0.6535433070866141
                },
                {
                    "duration": 0.032738062500015985,
                    "durationTicks": 33,
                    "midi": 42,
                    "name": "F#2",
                    "ticks": 150840,
                    "time": 149.6427075,
                    "velocity": 0.6535433070866141
                },
                {
                    "duration": 0.032738062500015985,
                    "durationTicks": 33,
                    "midi": 46,
                    "name": "A#2",
                    "ticks": 150960,
                    "time": 149.761755,
                    "velocity": 0.6535433070866141
                },
                {
                    "duration": 0.032738062500015985,
                    "durationTicks": 33,
                    "midi": 36,
                    "name": "C2",
                    "ticks": 151200,
                    "time": 149.99985,
                    "velocity": 0.937007874015748
                },
                {
                    "duration": 0.032738062500015985,
                    "durationTicks": 33,
                    "midi": 38,
                    "name": "D2",
                    "ticks": 151200,
                    "time": 149.99985,
                    "velocity": 0.889763779527559
                },
                {
                    "duration": 0.032738062500015985,
                    "durationTicks": 33,
                    "midi": 42,
                    "name": "F#2",
                    "ticks": 151200,
                    "time": 149.99985,
                    "velocity": 0.6535433070866141
                },
                {
                    "duration": 0.032738062500015985,
                    "durationTicks": 33,
                    "midi": 42,
                    "name": "F#2",
                    "ticks": 151320,
                    "time": 150.1188975,
                    "velocity": 0.6535433070866141
                },
                {
                    "duration": 0.032738062500015985,
                    "durationTicks": 33,
                    "midi": 46,
                    "name": "A#2",
                    "ticks": 151440,
                    "time": 150.237945,
                    "velocity": 0.6535433070866141
                },
                {
                    "duration": 0.032738062499987564,
                    "durationTicks": 33,
                    "midi": 36,
                    "name": "C2",
                    "ticks": 151680,
                    "time": 150.47604,
                    "velocity": 0.937007874015748
                },
                {
                    "duration": 0.032738062499987564,
                    "durationTicks": 33,
                    "midi": 42,
                    "name": "F#2",
                    "ticks": 151680,
                    "time": 150.47604,
                    "velocity": 0.6535433070866141
                },
                {
                    "duration": 0.032738062500015985,
                    "durationTicks": 33,
                    "midi": 42,
                    "name": "F#2",
                    "ticks": 151800,
                    "time": 150.5950875,
                    "velocity": 0.6535433070866141
                },
                {
                    "duration": 0.032738062500015985,
                    "durationTicks": 33,
                    "midi": 46,
                    "name": "A#2",
                    "ticks": 151920,
                    "time": 150.714135,
                    "velocity": 0.6535433070866141
                },
                {
                    "duration": 0.032738062499987564,
                    "durationTicks": 33,
                    "midi": 36,
                    "name": "C2",
                    "ticks": 152160,
                    "time": 150.95223000000001,
                    "velocity": 0.937007874015748
                },
                {
                    "duration": 0.032738062499987564,
                    "durationTicks": 33,
                    "midi": 38,
                    "name": "D2",
                    "ticks": 152160,
                    "time": 150.95223000000001,
                    "velocity": 0.889763779527559
                },
                {
                    "duration": 0.032738062499987564,
                    "durationTicks": 33,
                    "midi": 42,
                    "name": "F#2",
                    "ticks": 152160,
                    "time": 150.95223000000001,
                    "velocity": 0.6535433070866141
                },
                {
                    "duration": 0.032738062500015985,
                    "durationTicks": 33,
                    "midi": 42,
                    "name": "F#2",
                    "ticks": 152280,
                    "time": 151.0712775,
                    "velocity": 0.6535433070866141
                },
                {
                    "duration": 0.032738062500015985,
                    "durationTicks": 33,
                    "midi": 46,
                    "name": "A#2",
                    "ticks": 152400,
                    "time": 151.190325,
                    "velocity": 0.6535433070866141
                },
                {
                    "duration": 0.032738062500015985,
                    "durationTicks": 33,
                    "midi": 36,
                    "name": "C2",
                    "ticks": 152640,
                    "time": 151.42842,
                    "velocity": 0.937007874015748
                },
                {
                    "duration": 0.032738062500015985,
                    "durationTicks": 33,
                    "midi": 42,
                    "name": "F#2",
                    "ticks": 152640,
                    "time": 151.42842,
                    "velocity": 0.6535433070866141
                },
                {
                    "duration": 0.032738062499987564,
                    "durationTicks": 33,
                    "midi": 42,
                    "name": "F#2",
                    "ticks": 152760,
                    "time": 151.5474675,
                    "velocity": 0.6535433070866141
                },
                {
                    "duration": 0.032738062500015985,
                    "durationTicks": 33,
                    "midi": 46,
                    "name": "A#2",
                    "ticks": 152880,
                    "time": 151.666515,
                    "velocity": 0.6535433070866141
                },
                {
                    "duration": 0.032738062500015985,
                    "durationTicks": 33,
                    "midi": 36,
                    "name": "C2",
                    "ticks": 153120,
                    "time": 151.90461,
                    "velocity": 0.937007874015748
                },
                {
                    "duration": 0.032738062500015985,
                    "durationTicks": 33,
                    "midi": 38,
                    "name": "D2",
                    "ticks": 153120,
                    "time": 151.90461,
                    "velocity": 0.889763779527559
                },
                {
                    "duration": 0.032738062500015985,
                    "durationTicks": 33,
                    "midi": 42,
                    "name": "F#2",
                    "ticks": 153120,
                    "time": 151.90461,
                    "velocity": 0.6535433070866141
                },
                {
                    "duration": 0.032738062499987564,
                    "durationTicks": 33,
                    "midi": 42,
                    "name": "F#2",
                    "ticks": 153240,
                    "time": 152.0236575,
                    "velocity": 0.6535433070866141
                },
                {
                    "duration": 0.032738062500015985,
                    "durationTicks": 33,
                    "midi": 46,
                    "name": "A#2",
                    "ticks": 153360,
                    "time": 152.142705,
                    "velocity": 0.6535433070866141
                },
                {
                    "duration": 0.032738062500015985,
                    "durationTicks": 33,
                    "midi": 36,
                    "name": "C2",
                    "ticks": 153600,
                    "time": 152.3808,
                    "velocity": 0.937007874015748
                },
                {
                    "duration": 0.032738062500015985,
                    "durationTicks": 33,
                    "midi": 42,
                    "name": "F#2",
                    "ticks": 153600,
                    "time": 152.3808,
                    "velocity": 0.6535433070866141
                },
                {
                    "duration": 0.032738062500015985,
                    "durationTicks": 33,
                    "midi": 57,
                    "name": "A3",
                    "ticks": 153600,
                    "time": 152.3808,
                    "velocity": 0.6850393700787402
                },
                {
                    "duration": 0.032738062500015985,
                    "durationTicks": 33,
                    "midi": 42,
                    "name": "F#2",
                    "ticks": 153720,
                    "time": 152.4998475,
                    "velocity": 0.6535433070866141
                },
                {
                    "duration": 0.032738062500015985,
                    "durationTicks": 33,
                    "midi": 46,
                    "name": "A#2",
                    "ticks": 153840,
                    "time": 152.618895,
                    "velocity": 0.6535433070866141
                },
                {
                    "duration": 0.032738062500015985,
                    "durationTicks": 33,
                    "midi": 36,
                    "name": "C2",
                    "ticks": 154080,
                    "time": 152.85699,
                    "velocity": 0.937007874015748
                },
                {
                    "duration": 0.032738062500015985,
                    "durationTicks": 33,
                    "midi": 38,
                    "name": "D2",
                    "ticks": 154080,
                    "time": 152.85699,
                    "velocity": 0.889763779527559
                },
                {
                    "duration": 0.032738062500015985,
                    "durationTicks": 33,
                    "midi": 42,
                    "name": "F#2",
                    "ticks": 154080,
                    "time": 152.85699,
                    "velocity": 0.6535433070866141
                },
                {
                    "duration": 0.032738062500015985,
                    "durationTicks": 33,
                    "midi": 42,
                    "name": "F#2",
                    "ticks": 154200,
                    "time": 152.9760375,
                    "velocity": 0.6535433070866141
                },
                {
                    "duration": 0.032738062499987564,
                    "durationTicks": 33,
                    "midi": 46,
                    "name": "A#2",
                    "ticks": 154320,
                    "time": 153.095085,
                    "velocity": 0.6535433070866141
                },
                {
                    "duration": 0.032738062500015985,
                    "durationTicks": 33,
                    "midi": 36,
                    "name": "C2",
                    "ticks": 154560,
                    "time": 153.33318,
                    "velocity": 0.937007874015748
                },
                {
                    "duration": 0.032738062500015985,
                    "durationTicks": 33,
                    "midi": 42,
                    "name": "F#2",
                    "ticks": 154560,
                    "time": 153.33318,
                    "velocity": 0.6535433070866141
                },
                {
                    "duration": 0.032738062500015985,
                    "durationTicks": 33,
                    "midi": 42,
                    "name": "F#2",
                    "ticks": 154680,
                    "time": 153.4522275,
                    "velocity": 0.6535433070866141
                },
                {
                    "duration": 0.032738062499987564,
                    "durationTicks": 33,
                    "midi": 46,
                    "name": "A#2",
                    "ticks": 154800,
                    "time": 153.571275,
                    "velocity": 0.6535433070866141
                },
                {
                    "duration": 0.032738062500015985,
                    "durationTicks": 33,
                    "midi": 36,
                    "name": "C2",
                    "ticks": 155040,
                    "time": 153.80937,
                    "velocity": 0.937007874015748
                },
                {
                    "duration": 0.032738062500015985,
                    "durationTicks": 33,
                    "midi": 38,
                    "name": "D2",
                    "ticks": 155040,
                    "time": 153.80937,
                    "velocity": 0.889763779527559
                },
                {
                    "duration": 0.032738062500015985,
                    "durationTicks": 33,
                    "midi": 42,
                    "name": "F#2",
                    "ticks": 155040,
                    "time": 153.80937,
                    "velocity": 0.6535433070866141
                },
                {
                    "duration": 0.032738062500015985,
                    "durationTicks": 33,
                    "midi": 42,
                    "name": "F#2",
                    "ticks": 155160,
                    "time": 153.9284175,
                    "velocity": 0.6535433070866141
                },
                {
                    "duration": 0.032738062500015985,
                    "durationTicks": 33,
                    "midi": 46,
                    "name": "A#2",
                    "ticks": 155280,
                    "time": 154.047465,
                    "velocity": 0.6535433070866141
                },
                {
                    "duration": 0.032738062500015985,
                    "durationTicks": 33,
                    "midi": 36,
                    "name": "C2",
                    "ticks": 155520,
                    "time": 154.28556,
                    "velocity": 0.937007874015748
                },
                {
                    "duration": 0.032738062500015985,
                    "durationTicks": 33,
                    "midi": 42,
                    "name": "F#2",
                    "ticks": 155520,
                    "time": 154.28556,
                    "velocity": 0.6535433070866141
                },
                {
                    "duration": 0.032738062500015985,
                    "durationTicks": 33,
                    "midi": 42,
                    "name": "F#2",
                    "ticks": 155640,
                    "time": 154.4046075,
                    "velocity": 0.6535433070866141
                },
                {
                    "duration": 0.032738062500015985,
                    "durationTicks": 33,
                    "midi": 46,
                    "name": "A#2",
                    "ticks": 155760,
                    "time": 154.523655,
                    "velocity": 0.6535433070866141
                },
                {
                    "duration": 0.032738062500015985,
                    "durationTicks": 33,
                    "midi": 36,
                    "name": "C2",
                    "ticks": 156000,
                    "time": 154.76175,
                    "velocity": 0.937007874015748
                },
                {
                    "duration": 0.032738062500015985,
                    "durationTicks": 33,
                    "midi": 38,
                    "name": "D2",
                    "ticks": 156000,
                    "time": 154.76175,
                    "velocity": 0.889763779527559
                },
                {
                    "duration": 0.032738062500015985,
                    "durationTicks": 33,
                    "midi": 42,
                    "name": "F#2",
                    "ticks": 156000,
                    "time": 154.76175,
                    "velocity": 0.6535433070866141
                },
                {
                    "duration": 0.032738062500015985,
                    "durationTicks": 33,
                    "midi": 42,
                    "name": "F#2",
                    "ticks": 156120,
                    "time": 154.8807975,
                    "velocity": 0.6535433070866141
                },
                {
                    "duration": 0.032738062500015985,
                    "durationTicks": 33,
                    "midi": 46,
                    "name": "A#2",
                    "ticks": 156240,
                    "time": 154.999845,
                    "velocity": 0.6535433070866141
                },
                {
                    "duration": 0.032738062500015985,
                    "durationTicks": 33,
                    "midi": 36,
                    "name": "C2",
                    "ticks": 156480,
                    "time": 155.23794,
                    "velocity": 0.937007874015748
                },
                {
                    "duration": 0.032738062500015985,
                    "durationTicks": 33,
                    "midi": 42,
                    "name": "F#2",
                    "ticks": 156480,
                    "time": 155.23794,
                    "velocity": 0.6535433070866141
                },
                {
                    "duration": 0.032738062500015985,
                    "durationTicks": 33,
                    "midi": 42,
                    "name": "F#2",
                    "ticks": 156600,
                    "time": 155.3569875,
                    "velocity": 0.6535433070866141
                },
                {
                    "duration": 0.032738062500015985,
                    "durationTicks": 33,
                    "midi": 46,
                    "name": "A#2",
                    "ticks": 156720,
                    "time": 155.476035,
                    "velocity": 0.6535433070866141
                },
                {
                    "duration": 0.032738062499987564,
                    "durationTicks": 33,
                    "midi": 36,
                    "name": "C2",
                    "ticks": 156960,
                    "time": 155.71413,
                    "velocity": 0.937007874015748
                },
                {
                    "duration": 0.032738062499987564,
                    "durationTicks": 33,
                    "midi": 38,
                    "name": "D2",
                    "ticks": 156960,
                    "time": 155.71413,
                    "velocity": 0.889763779527559
                },
                {
                    "duration": 0.032738062499987564,
                    "durationTicks": 33,
                    "midi": 42,
                    "name": "F#2",
                    "ticks": 156960,
                    "time": 155.71413,
                    "velocity": 0.6535433070866141
                },
                {
                    "duration": 0.032738062500015985,
                    "durationTicks": 33,
                    "midi": 42,
                    "name": "F#2",
                    "ticks": 157080,
                    "time": 155.8331775,
                    "velocity": 0.6535433070866141
                },
                {
                    "duration": 0.032738062500015985,
                    "durationTicks": 33,
                    "midi": 46,
                    "name": "A#2",
                    "ticks": 157200,
                    "time": 155.952225,
                    "velocity": 0.6535433070866141
                },
                {
                    "duration": 0.032738062499987564,
                    "durationTicks": 33,
                    "midi": 36,
                    "name": "C2",
                    "ticks": 157440,
                    "time": 156.19032,
                    "velocity": 0.937007874015748
                },
                {
                    "duration": 0.032738062499987564,
                    "durationTicks": 33,
                    "midi": 42,
                    "name": "F#2",
                    "ticks": 157440,
                    "time": 156.19032,
                    "velocity": 0.6535433070866141
                },
                {
                    "duration": 0.032738062500015985,
                    "durationTicks": 33,
                    "midi": 42,
                    "name": "F#2",
                    "ticks": 157560,
                    "time": 156.3093675,
                    "velocity": 0.6535433070866141
                },
                {
                    "duration": 0.032738062500015985,
                    "durationTicks": 33,
                    "midi": 46,
                    "name": "A#2",
                    "ticks": 157680,
                    "time": 156.428415,
                    "velocity": 0.6535433070866141
                },
                {
                    "duration": 0.032738062500015985,
                    "durationTicks": 33,
                    "midi": 36,
                    "name": "C2",
                    "ticks": 157920,
                    "time": 156.66651,
                    "velocity": 0.937007874015748
                },
                {
                    "duration": 0.032738062500015985,
                    "durationTicks": 33,
                    "midi": 38,
                    "name": "D2",
                    "ticks": 157920,
                    "time": 156.66651,
                    "velocity": 0.889763779527559
                },
                {
                    "duration": 0.032738062500015985,
                    "durationTicks": 33,
                    "midi": 42,
                    "name": "F#2",
                    "ticks": 157920,
                    "time": 156.66651,
                    "velocity": 0.6535433070866141
                },
                {
                    "duration": 0.032738062499987564,
                    "durationTicks": 33,
                    "midi": 42,
                    "name": "F#2",
                    "ticks": 158040,
                    "time": 156.7855575,
                    "velocity": 0.6535433070866141
                },
                {
                    "duration": 0.032738062500015985,
                    "durationTicks": 33,
                    "midi": 46,
                    "name": "A#2",
                    "ticks": 158160,
                    "time": 156.904605,
                    "velocity": 0.6535433070866141
                },
                {
                    "duration": 0.032738062500015985,
                    "durationTicks": 33,
                    "midi": 36,
                    "name": "C2",
                    "ticks": 158400,
                    "time": 157.1427,
                    "velocity": 0.937007874015748
                },
                {
                    "duration": 0.032738062500015985,
                    "durationTicks": 33,
                    "midi": 42,
                    "name": "F#2",
                    "ticks": 158400,
                    "time": 157.1427,
                    "velocity": 0.6535433070866141
                },
                {
                    "duration": 0.032738062499987564,
                    "durationTicks": 33,
                    "midi": 42,
                    "name": "F#2",
                    "ticks": 158520,
                    "time": 157.2617475,
                    "velocity": 0.6535433070866141
                },
                {
                    "duration": 0.032738062500015985,
                    "durationTicks": 33,
                    "midi": 46,
                    "name": "A#2",
                    "ticks": 158640,
                    "time": 157.380795,
                    "velocity": 0.6535433070866141
                },
                {
                    "duration": 0.032738062500015985,
                    "durationTicks": 33,
                    "midi": 36,
                    "name": "C2",
                    "ticks": 158880,
                    "time": 157.61889,
                    "velocity": 0.937007874015748
                },
                {
                    "duration": 0.032738062500015985,
                    "durationTicks": 33,
                    "midi": 38,
                    "name": "D2",
                    "ticks": 158880,
                    "time": 157.61889,
                    "velocity": 0.889763779527559
                },
                {
                    "duration": 0.032738062500015985,
                    "durationTicks": 33,
                    "midi": 42,
                    "name": "F#2",
                    "ticks": 158880,
                    "time": 157.61889,
                    "velocity": 0.6535433070866141
                },
                {
                    "duration": 0.032738062500015985,
                    "durationTicks": 33,
                    "midi": 42,
                    "name": "F#2",
                    "ticks": 159000,
                    "time": 157.7379375,
                    "velocity": 0.6535433070866141
                },
                {
                    "duration": 0.032738062500015985,
                    "durationTicks": 33,
                    "midi": 46,
                    "name": "A#2",
                    "ticks": 159120,
                    "time": 157.856985,
                    "velocity": 0.6535433070866141
                },
                {
                    "duration": 0.032738062500015985,
                    "durationTicks": 33,
                    "midi": 36,
                    "name": "C2",
                    "ticks": 159360,
                    "time": 158.09508,
                    "velocity": 0.937007874015748
                },
                {
                    "duration": 0.032738062500015985,
                    "durationTicks": 33,
                    "midi": 42,
                    "name": "F#2",
                    "ticks": 159360,
                    "time": 158.09508,
                    "velocity": 0.6535433070866141
                },
                {
                    "duration": 0.032738062500015985,
                    "durationTicks": 33,
                    "midi": 42,
                    "name": "F#2",
                    "ticks": 159480,
                    "time": 158.2141275,
                    "velocity": 0.6535433070866141
                },
                {
                    "duration": 0.032738062499987564,
                    "durationTicks": 33,
                    "midi": 46,
                    "name": "A#2",
                    "ticks": 159600,
                    "time": 158.333175,
                    "velocity": 0.6535433070866141
                },
                {
                    "duration": 0.032738062500015985,
                    "durationTicks": 33,
                    "midi": 36,
                    "name": "C2",
                    "ticks": 159840,
                    "time": 158.57127,
                    "velocity": 0.937007874015748
                },
                {
                    "duration": 0.032738062500015985,
                    "durationTicks": 33,
                    "midi": 38,
                    "name": "D2",
                    "ticks": 159840,
                    "time": 158.57127,
                    "velocity": 0.889763779527559
                },
                {
                    "duration": 0.032738062500015985,
                    "durationTicks": 33,
                    "midi": 42,
                    "name": "F#2",
                    "ticks": 159840,
                    "time": 158.57127,
                    "velocity": 0.6535433070866141
                },
                {
                    "duration": 0.032738062500015985,
                    "durationTicks": 33,
                    "midi": 42,
                    "name": "F#2",
                    "ticks": 159960,
                    "time": 158.6903175,
                    "velocity": 0.6535433070866141
                },
                {
                    "duration": 0.032738062499987564,
                    "durationTicks": 33,
                    "midi": 46,
                    "name": "A#2",
                    "ticks": 160080,
                    "time": 158.809365,
                    "velocity": 0.6535433070866141
                },
                {
                    "duration": 0.032738062500015985,
                    "durationTicks": 33,
                    "midi": 36,
                    "name": "C2",
                    "ticks": 160320,
                    "time": 159.04746,
                    "velocity": 0.937007874015748
                },
                {
                    "duration": 0.032738062500015985,
                    "durationTicks": 33,
                    "midi": 42,
                    "name": "F#2",
                    "ticks": 160320,
                    "time": 159.04746,
                    "velocity": 0.6535433070866141
                },
                {
                    "duration": 0.032738062500015985,
                    "durationTicks": 33,
                    "midi": 42,
                    "name": "F#2",
                    "ticks": 160440,
                    "time": 159.1665075,
                    "velocity": 0.6535433070866141
                },
                {
                    "duration": 0.032738062500015985,
                    "durationTicks": 33,
                    "midi": 46,
                    "name": "A#2",
                    "ticks": 160560,
                    "time": 159.285555,
                    "velocity": 0.6535433070866141
                },
                {
                    "duration": 0.032738062500015985,
                    "durationTicks": 33,
                    "midi": 36,
                    "name": "C2",
                    "ticks": 160800,
                    "time": 159.52365,
                    "velocity": 0.937007874015748
                },
                {
                    "duration": 0.032738062500015985,
                    "durationTicks": 33,
                    "midi": 38,
                    "name": "D2",
                    "ticks": 160800,
                    "time": 159.52365,
                    "velocity": 0.889763779527559
                },
                {
                    "duration": 0.032738062500015985,
                    "durationTicks": 33,
                    "midi": 42,
                    "name": "F#2",
                    "ticks": 160800,
                    "time": 159.52365,
                    "velocity": 0.6535433070866141
                },
                {
                    "duration": 0.032738062500015985,
                    "durationTicks": 33,
                    "midi": 42,
                    "name": "F#2",
                    "ticks": 160920,
                    "time": 159.6426975,
                    "velocity": 0.6535433070866141
                },
                {
                    "duration": 0.032738062500015985,
                    "durationTicks": 33,
                    "midi": 46,
                    "name": "A#2",
                    "ticks": 161040,
                    "time": 159.761745,
                    "velocity": 0.6535433070866141
                },
                {
                    "duration": 0.11210306249998325,
                    "durationTicks": 113,
                    "midi": 39,
                    "name": "D#2",
                    "ticks": 161280,
                    "time": 159.99984,
                    "velocity": 0.937007874015748
                },
                {
                    "duration": 0.11904749999999353,
                    "durationTicks": 120,
                    "midi": 36,
                    "name": "C2",
                    "ticks": 161280,
                    "time": 159.99984,
                    "velocity": 0.937007874015748
                },
                {
                    "duration": 0.11904749999999353,
                    "durationTicks": 120,
                    "midi": 57,
                    "name": "A3",
                    "ticks": 161280,
                    "time": 159.99984,
                    "velocity": 0.937007874015748
                },
                {
                    "duration": 0.09027768749999154,
                    "durationTicks": 91,
                    "midi": 36,
                    "name": "C2",
                    "ticks": 161760,
                    "time": 160.47603,
                    "velocity": 0.937007874015748
                },
                {
                    "duration": 0.09027768749999154,
                    "durationTicks": 91,
                    "midi": 39,
                    "name": "D#2",
                    "ticks": 161760,
                    "time": 160.47603,
                    "velocity": 0.937007874015748
                },
                {
                    "duration": 0.09027768749999154,
                    "durationTicks": 91,
                    "midi": 36,
                    "name": "C2",
                    "ticks": 162240,
                    "time": 160.95222,
                    "velocity": 0.937007874015748
                },
                {
                    "duration": 0.09027768749999154,
                    "durationTicks": 91,
                    "midi": 39,
                    "name": "D#2",
                    "ticks": 162240,
                    "time": 160.95222,
                    "velocity": 0.937007874015748
                },
                {
                    "duration": 0.09027768749999154,
                    "durationTicks": 91,
                    "midi": 36,
                    "name": "C2",
                    "ticks": 162720,
                    "time": 161.42841,
                    "velocity": 0.937007874015748
                },
                {
                    "duration": 0.09027768749999154,
                    "durationTicks": 91,
                    "midi": 39,
                    "name": "D#2",
                    "ticks": 162720,
                    "time": 161.42841,
                    "velocity": 0.937007874015748
                },
                {
                    "duration": 0.09027768750001997,
                    "durationTicks": 91,
                    "midi": 36,
                    "name": "C2",
                    "ticks": 163200,
                    "time": 161.9046,
                    "velocity": 0.937007874015748
                },
                {
                    "duration": 0.09027768750001997,
                    "durationTicks": 91,
                    "midi": 39,
                    "name": "D#2",
                    "ticks": 163200,
                    "time": 161.9046,
                    "velocity": 0.937007874015748
                },
                {
                    "duration": 0.09027768750001997,
                    "durationTicks": 91,
                    "midi": 36,
                    "name": "C2",
                    "ticks": 163680,
                    "time": 162.38079,
                    "velocity": 0.937007874015748
                },
                {
                    "duration": 0.09027768750001997,
                    "durationTicks": 91,
                    "midi": 39,
                    "name": "D#2",
                    "ticks": 163680,
                    "time": 162.38079,
                    "velocity": 0.937007874015748
                },
                {
                    "duration": 0.09027768750001997,
                    "durationTicks": 91,
                    "midi": 36,
                    "name": "C2",
                    "ticks": 164160,
                    "time": 162.85698,
                    "velocity": 0.937007874015748
                },
                {
                    "duration": 0.09027768750001997,
                    "durationTicks": 91,
                    "midi": 39,
                    "name": "D#2",
                    "ticks": 164160,
                    "time": 162.85698,
                    "velocity": 0.937007874015748
                },
                {
                    "duration": 0.09027768750001997,
                    "durationTicks": 91,
                    "midi": 36,
                    "name": "C2",
                    "ticks": 164640,
                    "time": 163.33317,
                    "velocity": 0.937007874015748
                },
                {
                    "duration": 0.09027768750001997,
                    "durationTicks": 91,
                    "midi": 39,
                    "name": "D#2",
                    "ticks": 164640,
                    "time": 163.33317,
                    "velocity": 0.937007874015748
                },
                {
                    "duration": 0.09027768750001997,
                    "durationTicks": 91,
                    "midi": 36,
                    "name": "C2",
                    "ticks": 165120,
                    "time": 163.80936,
                    "velocity": 0.937007874015748
                },
                {
                    "duration": 0.09027768750001997,
                    "durationTicks": 91,
                    "midi": 39,
                    "name": "D#2",
                    "ticks": 165120,
                    "time": 163.80936,
                    "velocity": 0.937007874015748
                },
                {
                    "duration": 0.09027768750001997,
                    "durationTicks": 91,
                    "midi": 36,
                    "name": "C2",
                    "ticks": 165600,
                    "time": 164.28555,
                    "velocity": 0.937007874015748
                },
                {
                    "duration": 0.09027768750001997,
                    "durationTicks": 91,
                    "midi": 39,
                    "name": "D#2",
                    "ticks": 165600,
                    "time": 164.28555,
                    "velocity": 0.937007874015748
                },
                {
                    "duration": 0.09027768750001997,
                    "durationTicks": 91,
                    "midi": 36,
                    "name": "C2",
                    "ticks": 166080,
                    "time": 164.76174,
                    "velocity": 0.937007874015748
                },
                {
                    "duration": 0.09027768750001997,
                    "durationTicks": 91,
                    "midi": 39,
                    "name": "D#2",
                    "ticks": 166080,
                    "time": 164.76174,
                    "velocity": 0.937007874015748
                },
                {
                    "duration": 0.09027768750001997,
                    "durationTicks": 91,
                    "midi": 36,
                    "name": "C2",
                    "ticks": 166560,
                    "time": 165.23793,
                    "velocity": 0.937007874015748
                },
                {
                    "duration": 0.09027768750001997,
                    "durationTicks": 91,
                    "midi": 39,
                    "name": "D#2",
                    "ticks": 166560,
                    "time": 165.23793,
                    "velocity": 0.937007874015748
                },
                {
                    "duration": 0.09027768749999154,
                    "durationTicks": 91,
                    "midi": 36,
                    "name": "C2",
                    "ticks": 167040,
                    "time": 165.71412,
                    "velocity": 0.937007874015748
                },
                {
                    "duration": 0.09027768749999154,
                    "durationTicks": 91,
                    "midi": 39,
                    "name": "D#2",
                    "ticks": 167040,
                    "time": 165.71412,
                    "velocity": 0.937007874015748
                },
                {
                    "duration": 0.09027768749999154,
                    "durationTicks": 91,
                    "midi": 36,
                    "name": "C2",
                    "ticks": 167520,
                    "time": 166.19031,
                    "velocity": 0.937007874015748
                },
                {
                    "duration": 0.09027768749999154,
                    "durationTicks": 91,
                    "midi": 39,
                    "name": "D#2",
                    "ticks": 167520,
                    "time": 166.19031,
                    "velocity": 0.937007874015748
                },
                {
                    "duration": 0.09027768749999154,
                    "durationTicks": 91,
                    "midi": 36,
                    "name": "C2",
                    "ticks": 168000,
                    "time": 166.6665,
                    "velocity": 0.937007874015748
                },
                {
                    "duration": 0.09027768749999154,
                    "durationTicks": 91,
                    "midi": 39,
                    "name": "D#2",
                    "ticks": 168000,
                    "time": 166.6665,
                    "velocity": 0.937007874015748
                },
                {
                    "duration": 0.09027768750001997,
                    "durationTicks": 91,
                    "midi": 36,
                    "name": "C2",
                    "ticks": 168480,
                    "time": 167.14269,
                    "velocity": 0.937007874015748
                },
                {
                    "duration": 0.09027768750001997,
                    "durationTicks": 91,
                    "midi": 39,
                    "name": "D#2",
                    "ticks": 168480,
                    "time": 167.14269,
                    "velocity": 0.937007874015748
                },
                {
                    "duration": 0.032738062500015985,
                    "durationTicks": 33,
                    "midi": 36,
                    "name": "C2",
                    "ticks": 168960,
                    "time": 167.61888,
                    "velocity": 0.937007874015748
                },
                {
                    "duration": 0.032738062500015985,
                    "durationTicks": 33,
                    "midi": 57,
                    "name": "A3",
                    "ticks": 168960,
                    "time": 167.61888,
                    "velocity": 0.6850393700787402
                },
                {
                    "duration": 0.032738062500015985,
                    "durationTicks": 33,
                    "midi": 36,
                    "name": "C2",
                    "ticks": 169440,
                    "time": 168.09507,
                    "velocity": 0.937007874015748
                },
                {
                    "duration": 0.032738062500015985,
                    "durationTicks": 33,
                    "midi": 38,
                    "name": "D2",
                    "ticks": 169440,
                    "time": 168.09507,
                    "velocity": 0.889763779527559
                },
                {
                    "duration": 0.032738062500015985,
                    "durationTicks": 33,
                    "midi": 36,
                    "name": "C2",
                    "ticks": 169920,
                    "time": 168.57126,
                    "velocity": 0.937007874015748
                },
                {
                    "duration": 0.032738062500015985,
                    "durationTicks": 33,
                    "midi": 36,
                    "name": "C2",
                    "ticks": 170400,
                    "time": 169.04745,
                    "velocity": 0.937007874015748
                },
                {
                    "duration": 0.032738062500015985,
                    "durationTicks": 33,
                    "midi": 38,
                    "name": "D2",
                    "ticks": 170400,
                    "time": 169.04745,
                    "velocity": 0.889763779527559
                },
                {
                    "duration": 0.032738062500015985,
                    "durationTicks": 33,
                    "midi": 36,
                    "name": "C2",
                    "ticks": 170880,
                    "time": 169.52364,
                    "velocity": 0.937007874015748
                },
                {
                    "duration": 0.032738062500015985,
                    "durationTicks": 33,
                    "midi": 36,
                    "name": "C2",
                    "ticks": 171360,
                    "time": 169.99983,
                    "velocity": 0.937007874015748
                },
                {
                    "duration": 0.032738062500015985,
                    "durationTicks": 33,
                    "midi": 38,
                    "name": "D2",
                    "ticks": 171360,
                    "time": 169.99983,
                    "velocity": 0.889763779527559
                },
                {
                    "duration": 0.032738062500015985,
                    "durationTicks": 33,
                    "midi": 36,
                    "name": "C2",
                    "ticks": 171840,
                    "time": 170.47602,
                    "velocity": 0.937007874015748
                },
                {
                    "duration": 0.032738062500015985,
                    "durationTicks": 33,
                    "midi": 36,
                    "name": "C2",
                    "ticks": 172320,
                    "time": 170.95221,
                    "velocity": 0.937007874015748
                },
                {
                    "duration": 0.032738062500015985,
                    "durationTicks": 33,
                    "midi": 38,
                    "name": "D2",
                    "ticks": 172320,
                    "time": 170.95221,
                    "velocity": 0.889763779527559
                },
                {
                    "duration": 0.032738062499987564,
                    "durationTicks": 33,
                    "midi": 36,
                    "name": "C2",
                    "ticks": 172800,
                    "time": 171.4284,
                    "velocity": 0.937007874015748
                },
                {
                    "duration": 0.032738062499987564,
                    "durationTicks": 33,
                    "midi": 36,
                    "name": "C2",
                    "ticks": 173280,
                    "time": 171.90459,
                    "velocity": 0.937007874015748
                },
                {
                    "duration": 0.032738062499987564,
                    "durationTicks": 33,
                    "midi": 38,
                    "name": "D2",
                    "ticks": 173280,
                    "time": 171.90459,
                    "velocity": 0.889763779527559
                },
                {
                    "duration": 0.032738062500015985,
                    "durationTicks": 33,
                    "midi": 36,
                    "name": "C2",
                    "ticks": 173760,
                    "time": 172.38078,
                    "velocity": 0.937007874015748
                },
                {
                    "duration": 0.032738062500015985,
                    "durationTicks": 33,
                    "midi": 36,
                    "name": "C2",
                    "ticks": 174240,
                    "time": 172.85697,
                    "velocity": 0.937007874015748
                },
                {
                    "duration": 0.032738062500015985,
                    "durationTicks": 33,
                    "midi": 38,
                    "name": "D2",
                    "ticks": 174240,
                    "time": 172.85697,
                    "velocity": 0.889763779527559
                },
                {
                    "duration": 0.032738062500015985,
                    "durationTicks": 33,
                    "midi": 36,
                    "name": "C2",
                    "ticks": 174720,
                    "time": 173.33316,
                    "velocity": 0.937007874015748
                },
                {
                    "duration": 0.032738062500015985,
                    "durationTicks": 33,
                    "midi": 36,
                    "name": "C2",
                    "ticks": 175200,
                    "time": 173.80935,
                    "velocity": 0.937007874015748
                },
                {
                    "duration": 0.032738062500015985,
                    "durationTicks": 33,
                    "midi": 38,
                    "name": "D2",
                    "ticks": 175200,
                    "time": 173.80935,
                    "velocity": 0.889763779527559
                },
                {
                    "duration": 0.032738062500015985,
                    "durationTicks": 33,
                    "midi": 36,
                    "name": "C2",
                    "ticks": 176640,
                    "time": 175.23792,
                    "velocity": 0.937007874015748
                },
                {
                    "duration": 0.032738062500015985,
                    "durationTicks": 33,
                    "midi": 57,
                    "name": "A3",
                    "ticks": 176640,
                    "time": 175.23792,
                    "velocity": 0.6535433070866141
                },
                {
                    "duration": 0.032738062500015985,
                    "durationTicks": 33,
                    "midi": 42,
                    "name": "F#2",
                    "ticks": 176760,
                    "time": 175.3569675,
                    "velocity": 0.6535433070866141
                },
                {
                    "duration": 0.032738062500015985,
                    "durationTicks": 33,
                    "midi": 46,
                    "name": "A#2",
                    "ticks": 176880,
                    "time": 175.476015,
                    "velocity": 0.6535433070866141
                },
                {
                    "duration": 0.032738062500015985,
                    "durationTicks": 33,
                    "midi": 36,
                    "name": "C2",
                    "ticks": 177120,
                    "time": 175.71411,
                    "velocity": 0.937007874015748
                },
                {
                    "duration": 0.032738062500015985,
                    "durationTicks": 33,
                    "midi": 38,
                    "name": "D2",
                    "ticks": 177120,
                    "time": 175.71411,
                    "velocity": 0.889763779527559
                },
                {
                    "duration": 0.032738062500015985,
                    "durationTicks": 33,
                    "midi": 42,
                    "name": "F#2",
                    "ticks": 177120,
                    "time": 175.71411,
                    "velocity": 0.6535433070866141
                },
                {
                    "duration": 0.032738062500015985,
                    "durationTicks": 33,
                    "midi": 42,
                    "name": "F#2",
                    "ticks": 177240,
                    "time": 175.8331575,
                    "velocity": 0.6535433070866141
                },
                {
                    "duration": 0.032738062500015985,
                    "durationTicks": 33,
                    "midi": 46,
                    "name": "A#2",
                    "ticks": 177360,
                    "time": 175.952205,
                    "velocity": 0.6535433070866141
                },
                {
                    "duration": 0.032738062500015985,
                    "durationTicks": 33,
                    "midi": 36,
                    "name": "C2",
                    "ticks": 177600,
                    "time": 176.1903,
                    "velocity": 0.937007874015748
                },
                {
                    "duration": 0.032738062500015985,
                    "durationTicks": 33,
                    "midi": 42,
                    "name": "F#2",
                    "ticks": 177600,
                    "time": 176.1903,
                    "velocity": 0.6535433070866141
                },
                {
                    "duration": 0.032738062500015985,
                    "durationTicks": 33,
                    "midi": 42,
                    "name": "F#2",
                    "ticks": 177720,
                    "time": 176.3093475,
                    "velocity": 0.6535433070866141
                },
                {
                    "duration": 0.032738062500015985,
                    "durationTicks": 33,
                    "midi": 46,
                    "name": "A#2",
                    "ticks": 177840,
                    "time": 176.428395,
                    "velocity": 0.6535433070866141
                },
                {
                    "duration": 0.032738062499987564,
                    "durationTicks": 33,
                    "midi": 36,
                    "name": "C2",
                    "ticks": 178080,
                    "time": 176.66649,
                    "velocity": 0.937007874015748
                },
                {
                    "duration": 0.032738062499987564,
                    "durationTicks": 33,
                    "midi": 38,
                    "name": "D2",
                    "ticks": 178080,
                    "time": 176.66649,
                    "velocity": 0.889763779527559
                },
                {
                    "duration": 0.032738062499987564,
                    "durationTicks": 33,
                    "midi": 42,
                    "name": "F#2",
                    "ticks": 178080,
                    "time": 176.66649,
                    "velocity": 0.6535433070866141
                },
                {
                    "duration": 0.032738062500015985,
                    "durationTicks": 33,
                    "midi": 42,
                    "name": "F#2",
                    "ticks": 178200,
                    "time": 176.7855375,
                    "velocity": 0.6535433070866141
                },
                {
                    "duration": 0.032738062500015985,
                    "durationTicks": 33,
                    "midi": 46,
                    "name": "A#2",
                    "ticks": 178320,
                    "time": 176.904585,
                    "velocity": 0.6535433070866141
                },
                {
                    "duration": 0.032738062499987564,
                    "durationTicks": 33,
                    "midi": 36,
                    "name": "C2",
                    "ticks": 178560,
                    "time": 177.14268,
                    "velocity": 0.937007874015748
                },
                {
                    "duration": 0.032738062499987564,
                    "durationTicks": 33,
                    "midi": 42,
                    "name": "F#2",
                    "ticks": 178560,
                    "time": 177.14268,
                    "velocity": 0.6535433070866141
                },
                {
                    "duration": 0.032738062500015985,
                    "durationTicks": 33,
                    "midi": 42,
                    "name": "F#2",
                    "ticks": 178680,
                    "time": 177.2617275,
                    "velocity": 0.6535433070866141
                },
                {
                    "duration": 0.032738062500015985,
                    "durationTicks": 33,
                    "midi": 46,
                    "name": "A#2",
                    "ticks": 178800,
                    "time": 177.380775,
                    "velocity": 0.6535433070866141
                },
                {
                    "duration": 0.032738062500015985,
                    "durationTicks": 33,
                    "midi": 36,
                    "name": "C2",
                    "ticks": 179040,
                    "time": 177.61887,
                    "velocity": 0.937007874015748
                },
                {
                    "duration": 0.032738062500015985,
                    "durationTicks": 33,
                    "midi": 38,
                    "name": "D2",
                    "ticks": 179040,
                    "time": 177.61887,
                    "velocity": 0.889763779527559
                },
                {
                    "duration": 0.032738062500015985,
                    "durationTicks": 33,
                    "midi": 42,
                    "name": "F#2",
                    "ticks": 179040,
                    "time": 177.61887,
                    "velocity": 0.6535433070866141
                },
                {
                    "duration": 0.032738062500015985,
                    "durationTicks": 33,
                    "midi": 42,
                    "name": "F#2",
                    "ticks": 179160,
                    "time": 177.7379175,
                    "velocity": 0.6535433070866141
                },
                {
                    "duration": 0.032738062500015985,
                    "durationTicks": 33,
                    "midi": 46,
                    "name": "A#2",
                    "ticks": 179280,
                    "time": 177.856965,
                    "velocity": 0.6535433070866141
                },
                {
                    "duration": 0.032738062500015985,
                    "durationTicks": 33,
                    "midi": 36,
                    "name": "C2",
                    "ticks": 179520,
                    "time": 178.09506,
                    "velocity": 0.937007874015748
                },
                {
                    "duration": 0.032738062500015985,
                    "durationTicks": 33,
                    "midi": 42,
                    "name": "F#2",
                    "ticks": 179520,
                    "time": 178.09506,
                    "velocity": 0.6535433070866141
                },
                {
                    "duration": 0.032738062499987564,
                    "durationTicks": 33,
                    "midi": 42,
                    "name": "F#2",
                    "ticks": 179640,
                    "time": 178.2141075,
                    "velocity": 0.6535433070866141
                },
                {
                    "duration": 0.032738062500015985,
                    "durationTicks": 33,
                    "midi": 46,
                    "name": "A#2",
                    "ticks": 179760,
                    "time": 178.333155,
                    "velocity": 0.6535433070866141
                },
                {
                    "duration": 0.032738062500015985,
                    "durationTicks": 33,
                    "midi": 36,
                    "name": "C2",
                    "ticks": 180000,
                    "time": 178.57125,
                    "velocity": 0.937007874015748
                },
                {
                    "duration": 0.032738062500015985,
                    "durationTicks": 33,
                    "midi": 38,
                    "name": "D2",
                    "ticks": 180000,
                    "time": 178.57125,
                    "velocity": 0.889763779527559
                },
                {
                    "duration": 0.032738062500015985,
                    "durationTicks": 33,
                    "midi": 42,
                    "name": "F#2",
                    "ticks": 180000,
                    "time": 178.57125,
                    "velocity": 0.6535433070866141
                },
                {
                    "duration": 0.032738062499987564,
                    "durationTicks": 33,
                    "midi": 42,
                    "name": "F#2",
                    "ticks": 180120,
                    "time": 178.6902975,
                    "velocity": 0.6535433070866141
                },
                {
                    "duration": 0.032738062500015985,
                    "durationTicks": 33,
                    "midi": 46,
                    "name": "A#2",
                    "ticks": 180240,
                    "time": 178.809345,
                    "velocity": 0.6535433070866141
                },
                {
                    "duration": 0.032738062500015985,
                    "durationTicks": 33,
                    "midi": 36,
                    "name": "C2",
                    "ticks": 180480,
                    "time": 179.04744,
                    "velocity": 0.937007874015748
                },
                {
                    "duration": 0.032738062500015985,
                    "durationTicks": 33,
                    "midi": 42,
                    "name": "F#2",
                    "ticks": 180480,
                    "time": 179.04744,
                    "velocity": 0.6535433070866141
                },
                {
                    "duration": 0.032738062500015985,
                    "durationTicks": 33,
                    "midi": 42,
                    "name": "F#2",
                    "ticks": 180600,
                    "time": 179.1664875,
                    "velocity": 0.6535433070866141
                },
                {
                    "duration": 0.032738062499987564,
                    "durationTicks": 33,
                    "midi": 46,
                    "name": "A#2",
                    "ticks": 180720,
                    "time": 179.285535,
                    "velocity": 0.6535433070866141
                },
                {
                    "duration": 0.032738062500015985,
                    "durationTicks": 33,
                    "midi": 36,
                    "name": "C2",
                    "ticks": 180960,
                    "time": 179.52363,
                    "velocity": 0.937007874015748
                },
                {
                    "duration": 0.032738062500015985,
                    "durationTicks": 33,
                    "midi": 38,
                    "name": "D2",
                    "ticks": 180960,
                    "time": 179.52363,
                    "velocity": 0.889763779527559
                },
                {
                    "duration": 0.032738062500015985,
                    "durationTicks": 33,
                    "midi": 42,
                    "name": "F#2",
                    "ticks": 180960,
                    "time": 179.52363,
                    "velocity": 0.6535433070866141
                },
                {
                    "duration": 0.032738062500015985,
                    "durationTicks": 33,
                    "midi": 42,
                    "name": "F#2",
                    "ticks": 181080,
                    "time": 179.6426775,
                    "velocity": 0.6535433070866141
                },
                {
                    "duration": 0.032738062499987564,
                    "durationTicks": 33,
                    "midi": 46,
                    "name": "A#2",
                    "ticks": 181200,
                    "time": 179.761725,
                    "velocity": 0.6535433070866141
                },
                {
                    "duration": 0.032738062500015985,
                    "durationTicks": 33,
                    "midi": 36,
                    "name": "C2",
                    "ticks": 181440,
                    "time": 179.99982,
                    "velocity": 0.937007874015748
                },
                {
                    "duration": 0.032738062500015985,
                    "durationTicks": 33,
                    "midi": 42,
                    "name": "F#2",
                    "ticks": 181440,
                    "time": 179.99982,
                    "velocity": 0.6535433070866141
                },
                {
                    "duration": 0.032738062500015985,
                    "durationTicks": 33,
                    "midi": 42,
                    "name": "F#2",
                    "ticks": 181560,
                    "time": 180.1188675,
                    "velocity": 0.6535433070866141
                },
                {
                    "duration": 0.032738062500015985,
                    "durationTicks": 33,
                    "midi": 46,
                    "name": "A#2",
                    "ticks": 181680,
                    "time": 180.237915,
                    "velocity": 0.6535433070866141
                },
                {
                    "duration": 0.032738062500015985,
                    "durationTicks": 33,
                    "midi": 36,
                    "name": "C2",
                    "ticks": 181920,
                    "time": 180.47601,
                    "velocity": 0.937007874015748
                },
                {
                    "duration": 0.032738062500015985,
                    "durationTicks": 33,
                    "midi": 38,
                    "name": "D2",
                    "ticks": 181920,
                    "time": 180.47601,
                    "velocity": 0.889763779527559
                },
                {
                    "duration": 0.032738062500015985,
                    "durationTicks": 33,
                    "midi": 42,
                    "name": "F#2",
                    "ticks": 181920,
                    "time": 180.47601,
                    "velocity": 0.6535433070866141
                },
                {
                    "duration": 0.032738062500015985,
                    "durationTicks": 33,
                    "midi": 42,
                    "name": "F#2",
                    "ticks": 182040,
                    "time": 180.5950575,
                    "velocity": 0.6535433070866141
                },
                {
                    "duration": 0.032738062500015985,
                    "durationTicks": 33,
                    "midi": 46,
                    "name": "A#2",
                    "ticks": 182160,
                    "time": 180.714105,
                    "velocity": 0.6535433070866141
                },
                {
                    "duration": 0.23115056249997679,
                    "durationTicks": 233,
                    "midi": 57,
                    "name": "A3",
                    "ticks": 184320,
                    "time": 182.85696000000002,
                    "velocity": 0.5039370078740157
                },
                {
                    "duration": 0.09027768749999154,
                    "durationTicks": 91,
                    "midi": 36,
                    "name": "C2",
                    "ticks": 184320,
                    "time": 182.85696000000002,
                    "velocity": 0.6692913385826772
                },
                {
                    "duration": 0.09027768750001997,
                    "durationTicks": 91,
                    "midi": 36,
                    "name": "C2",
                    "ticks": 184800,
                    "time": 183.33315,
                    "velocity": 0.6692913385826772
                },
                {
                    "duration": 0.09027768750001997,
                    "durationTicks": 91,
                    "midi": 36,
                    "name": "C2",
                    "ticks": 185280,
                    "time": 183.80934,
                    "velocity": 0.6692913385826772
                },
                {
                    "duration": 0.09027768750001997,
                    "durationTicks": 91,
                    "midi": 36,
                    "name": "C2",
                    "ticks": 185760,
                    "time": 184.28553,
                    "velocity": 0.6692913385826772
                },
                {
                    "duration": 0.09027768750001997,
                    "durationTicks": 91,
                    "midi": 36,
                    "name": "C2",
                    "ticks": 186240,
                    "time": 184.76172,
                    "velocity": 0.6692913385826772
                },
                {
                    "duration": 0.09027768750001997,
                    "durationTicks": 91,
                    "midi": 36,
                    "name": "C2",
                    "ticks": 186720,
                    "time": 185.23791,
                    "velocity": 0.6692913385826772
                },
                {
                    "duration": 0.09027768750001997,
                    "durationTicks": 91,
                    "midi": 36,
                    "name": "C2",
                    "ticks": 187200,
                    "time": 185.7141,
                    "velocity": 0.6692913385826772
                },
                {
                    "duration": 0.09027768750001997,
                    "durationTicks": 91,
                    "midi": 36,
                    "name": "C2",
                    "ticks": 187680,
                    "time": 186.19029,
                    "velocity": 0.6692913385826772
                },
                {
                    "duration": 0.09027768750001997,
                    "durationTicks": 91,
                    "midi": 36,
                    "name": "C2",
                    "ticks": 188160,
                    "time": 186.66648,
                    "velocity": 0.6692913385826772
                },
                {
                    "duration": 0.09027768749999154,
                    "durationTicks": 91,
                    "midi": 36,
                    "name": "C2",
                    "ticks": 188640,
                    "time": 187.14267,
                    "velocity": 0.6692913385826772
                },
                {
                    "duration": 0.09027768749999154,
                    "durationTicks": 91,
                    "midi": 36,
                    "name": "C2",
                    "ticks": 189120,
                    "time": 187.61886,
                    "velocity": 0.6692913385826772
                },
                {
                    "duration": 0.09027768749999154,
                    "durationTicks": 91,
                    "midi": 36,
                    "name": "C2",
                    "ticks": 189600,
                    "time": 188.09505000000001,
                    "velocity": 0.6692913385826772
                },
                {
                    "duration": 0.09027768750001997,
                    "durationTicks": 91,
                    "midi": 36,
                    "name": "C2",
                    "ticks": 190080,
                    "time": 188.57124,
                    "velocity": 0.6692913385826772
                },
                {
                    "duration": 0.09027768750001997,
                    "durationTicks": 91,
                    "midi": 36,
                    "name": "C2",
                    "ticks": 190560,
                    "time": 189.04743,
                    "velocity": 0.6692913385826772
                },
                {
                    "duration": 0.09027768750001997,
                    "durationTicks": 91,
                    "midi": 36,
                    "name": "C2",
                    "ticks": 191040,
                    "time": 189.52362,
                    "velocity": 0.6692913385826772
                },
                {
                    "duration": 0.09027768750001997,
                    "durationTicks": 91,
                    "midi": 36,
                    "name": "C2",
                    "ticks": 191520,
                    "time": 189.99981,
                    "velocity": 0.6692913385826772
                },
                {
                    "duration": 0.09027768750001997,
                    "durationTicks": 91,
                    "midi": 36,
                    "name": "C2",
                    "ticks": 192000,
                    "time": 190.476,
                    "velocity": 0.6692913385826772
                },
                {
                    "duration": 0.09027768750001997,
                    "durationTicks": 91,
                    "midi": 36,
                    "name": "C2",
                    "ticks": 192480,
                    "time": 190.95219,
                    "velocity": 0.6692913385826772
                },
                {
                    "duration": 0.09027768750001997,
                    "durationTicks": 91,
                    "midi": 39,
                    "name": "D#2",
                    "ticks": 192480,
                    "time": 190.95219,
                    "velocity": 0.5905511811023622
                },
                {
                    "duration": 0.09027768750001997,
                    "durationTicks": 91,
                    "midi": 36,
                    "name": "C2",
                    "ticks": 192960,
                    "time": 191.42838,
                    "velocity": 0.6692913385826772
                },
                {
                    "duration": 0.09027768750001997,
                    "durationTicks": 91,
                    "midi": 36,
                    "name": "C2",
                    "ticks": 193440,
                    "time": 191.90457,
                    "velocity": 0.6692913385826772
                },
                {
                    "duration": 0.09027768750001997,
                    "durationTicks": 91,
                    "midi": 39,
                    "name": "D#2",
                    "ticks": 193440,
                    "time": 191.90457,
                    "velocity": 0.5905511811023622
                },
                {
                    "duration": 0.09027768749999154,
                    "durationTicks": 91,
                    "midi": 36,
                    "name": "C2",
                    "ticks": 193920,
                    "time": 192.38076,
                    "velocity": 0.6692913385826772
                },
                {
                    "duration": 0.09027768749999154,
                    "durationTicks": 91,
                    "midi": 36,
                    "name": "C2",
                    "ticks": 194400,
                    "time": 192.85695,
                    "velocity": 0.6692913385826772
                },
                {
                    "duration": 0.09027768749999154,
                    "durationTicks": 91,
                    "midi": 39,
                    "name": "D#2",
                    "ticks": 194400,
                    "time": 192.85695,
                    "velocity": 0.5905511811023622
                },
                {
                    "duration": 0.09027768749999154,
                    "durationTicks": 91,
                    "midi": 36,
                    "name": "C2",
                    "ticks": 194880,
                    "time": 193.33314000000001,
                    "velocity": 0.6692913385826772
                },
                {
                    "duration": 0.09027768750001997,
                    "durationTicks": 91,
                    "midi": 36,
                    "name": "C2",
                    "ticks": 195360,
                    "time": 193.80933,
                    "velocity": 0.6692913385826772
                },
                {
                    "duration": 0.09027768750001997,
                    "durationTicks": 91,
                    "midi": 39,
                    "name": "D#2",
                    "ticks": 195360,
                    "time": 193.80933,
                    "velocity": 0.5905511811023622
                },
                {
                    "duration": 0.09027768750001997,
                    "durationTicks": 91,
                    "midi": 36,
                    "name": "C2",
                    "ticks": 195840,
                    "time": 194.28552,
                    "velocity": 0.6692913385826772
                },
                {
                    "duration": 0.23115056249997679,
                    "durationTicks": 233,
                    "midi": 36,
                    "name": "C2",
                    "ticks": 196080,
                    "time": 194.523615,
                    "velocity": 0.6692913385826772
                },
                {
                    "duration": 0.09027768750001997,
                    "durationTicks": 91,
                    "midi": 36,
                    "name": "C2",
                    "ticks": 196320,
                    "time": 194.76171,
                    "velocity": 0.6692913385826772
                },
                {
                    "duration": 0.23115056249997679,
                    "durationTicks": 233,
                    "midi": 36,
                    "name": "C2",
                    "ticks": 196560,
                    "time": 194.999805,
                    "velocity": 0.6692913385826772
                },
                {
                    "duration": 0.09027768750001997,
                    "durationTicks": 91,
                    "midi": 36,
                    "name": "C2",
                    "ticks": 196800,
                    "time": 195.2379,
                    "velocity": 0.6692913385826772
                },
                {
                    "duration": 0.23115056249997679,
                    "durationTicks": 233,
                    "midi": 36,
                    "name": "C2",
                    "ticks": 197040,
                    "time": 195.475995,
                    "velocity": 0.6692913385826772
                },
                {
                    "duration": 0.09027768750001997,
                    "durationTicks": 91,
                    "midi": 36,
                    "name": "C2",
                    "ticks": 197280,
                    "time": 195.71409,
                    "velocity": 0.6692913385826772
                },
                {
                    "duration": 0.23115056249997679,
                    "durationTicks": 233,
                    "midi": 36,
                    "name": "C2",
                    "ticks": 197520,
                    "time": 195.95218500000001,
                    "velocity": 0.6692913385826772
                },
                {
                    "duration": 0.08928562500000226,
                    "durationTicks": 90,
                    "midi": 38,
                    "name": "D2",
                    "ticks": 198720,
                    "time": 197.14266,
                    "velocity": 0.937007874015748
                },
                {
                    "duration": 0.08928562500000226,
                    "durationTicks": 90,
                    "midi": 38,
                    "name": "D2",
                    "ticks": 198840,
                    "time": 197.2617075,
                    "velocity": 0.937007874015748
                },
                {
                    "duration": 0.08928562500000226,
                    "durationTicks": 90,
                    "midi": 38,
                    "name": "D2",
                    "ticks": 198960,
                    "time": 197.380755,
                    "velocity": 0.937007874015748
                },
                {
                    "duration": 0.08928562500000226,
                    "durationTicks": 90,
                    "midi": 38,
                    "name": "D2",
                    "ticks": 199080,
                    "time": 197.4998025,
                    "velocity": 0.937007874015748
                },
                {
                    "duration": 0.08928562500000226,
                    "durationTicks": 90,
                    "midi": 38,
                    "name": "D2",
                    "ticks": 199200,
                    "time": 197.61885,
                    "velocity": 0.937007874015748
                },
                {
                    "duration": 0.08928562500000226,
                    "durationTicks": 90,
                    "midi": 38,
                    "name": "D2",
                    "ticks": 199320,
                    "time": 197.7378975,
                    "velocity": 0.937007874015748
                },
                {
                    "duration": 0.08928562500000226,
                    "durationTicks": 90,
                    "midi": 38,
                    "name": "D2",
                    "ticks": 199440,
                    "time": 197.856945,
                    "velocity": 0.937007874015748
                },
                {
                    "duration": 0.08928562500000226,
                    "durationTicks": 90,
                    "midi": 38,
                    "name": "D2",
                    "ticks": 199560,
                    "time": 197.9759925,
                    "velocity": 0.937007874015748
                },
                {
                    "duration": 0.032738062499987564,
                    "durationTicks": 33,
                    "midi": 36,
                    "name": "C2",
                    "ticks": 199680,
                    "time": 198.09504,
                    "velocity": 0.937007874015748
                },
                {
                    "duration": 0.032738062499987564,
                    "durationTicks": 33,
                    "midi": 42,
                    "name": "F#2",
                    "ticks": 199680,
                    "time": 198.09504,
                    "velocity": 0.6535433070866141
                },
                {
                    "duration": 0.032738062499987564,
                    "durationTicks": 33,
                    "midi": 57,
                    "name": "A3",
                    "ticks": 199680,
                    "time": 198.09504,
                    "velocity": 0.6850393700787402
                },
                {
                    "duration": 0.032738062500015985,
                    "durationTicks": 33,
                    "midi": 42,
                    "name": "F#2",
                    "ticks": 199800,
                    "time": 198.2140875,
                    "velocity": 0.6535433070866141
                },
                {
                    "duration": 0.032738062500015985,
                    "durationTicks": 33,
                    "midi": 46,
                    "name": "A#2",
                    "ticks": 199920,
                    "time": 198.333135,
                    "velocity": 0.6535433070866141
                },
                {
                    "duration": 0.032738062499987564,
                    "durationTicks": 33,
                    "midi": 36,
                    "name": "C2",
                    "ticks": 200160,
                    "time": 198.57123,
                    "velocity": 0.937007874015748
                },
                {
                    "duration": 0.032738062499987564,
                    "durationTicks": 33,
                    "midi": 38,
                    "name": "D2",
                    "ticks": 200160,
                    "time": 198.57123,
                    "velocity": 0.889763779527559
                },
                {
                    "duration": 0.032738062499987564,
                    "durationTicks": 33,
                    "midi": 42,
                    "name": "F#2",
                    "ticks": 200160,
                    "time": 198.57123,
                    "velocity": 0.6535433070866141
                },
                {
                    "duration": 0.032738062500015985,
                    "durationTicks": 33,
                    "midi": 42,
                    "name": "F#2",
                    "ticks": 200280,
                    "time": 198.6902775,
                    "velocity": 0.6535433070866141
                },
                {
                    "duration": 0.032738062500015985,
                    "durationTicks": 33,
                    "midi": 46,
                    "name": "A#2",
                    "ticks": 200400,
                    "time": 198.809325,
                    "velocity": 0.6535433070866141
                },
                {
                    "duration": 0.032738062500015985,
                    "durationTicks": 33,
                    "midi": 36,
                    "name": "C2",
                    "ticks": 200640,
                    "time": 199.04742,
                    "velocity": 0.937007874015748
                },
                {
                    "duration": 0.032738062500015985,
                    "durationTicks": 33,
                    "midi": 42,
                    "name": "F#2",
                    "ticks": 200640,
                    "time": 199.04742,
                    "velocity": 0.6535433070866141
                },
                {
                    "duration": 0.032738062499987564,
                    "durationTicks": 33,
                    "midi": 42,
                    "name": "F#2",
                    "ticks": 200760,
                    "time": 199.1664675,
                    "velocity": 0.6535433070866141
                },
                {
                    "duration": 0.032738062500015985,
                    "durationTicks": 33,
                    "midi": 46,
                    "name": "A#2",
                    "ticks": 200880,
                    "time": 199.285515,
                    "velocity": 0.6535433070866141
                },
                {
                    "duration": 0.032738062500015985,
                    "durationTicks": 33,
                    "midi": 36,
                    "name": "C2",
                    "ticks": 201120,
                    "time": 199.52361,
                    "velocity": 0.937007874015748
                },
                {
                    "duration": 0.032738062500015985,
                    "durationTicks": 33,
                    "midi": 38,
                    "name": "D2",
                    "ticks": 201120,
                    "time": 199.52361,
                    "velocity": 0.889763779527559
                },
                {
                    "duration": 0.032738062500015985,
                    "durationTicks": 33,
                    "midi": 42,
                    "name": "F#2",
                    "ticks": 201120,
                    "time": 199.52361,
                    "velocity": 0.6535433070866141
                },
                {
                    "duration": 0.032738062499987564,
                    "durationTicks": 33,
                    "midi": 42,
                    "name": "F#2",
                    "ticks": 201240,
                    "time": 199.6426575,
                    "velocity": 0.6535433070866141
                },
                {
                    "duration": 0.032738062500015985,
                    "durationTicks": 33,
                    "midi": 46,
                    "name": "A#2",
                    "ticks": 201360,
                    "time": 199.761705,
                    "velocity": 0.6535433070866141
                },
                {
                    "duration": 0.032738062500015985,
                    "durationTicks": 33,
                    "midi": 36,
                    "name": "C2",
                    "ticks": 201600,
                    "time": 199.9998,
                    "velocity": 0.937007874015748
                },
                {
                    "duration": 0.032738062500015985,
                    "durationTicks": 33,
                    "midi": 42,
                    "name": "F#2",
                    "ticks": 201600,
                    "time": 199.9998,
                    "velocity": 0.6535433070866141
                },
                {
                    "duration": 0.032738062500015985,
                    "durationTicks": 33,
                    "midi": 42,
                    "name": "F#2",
                    "ticks": 201720,
                    "time": 200.1188475,
                    "velocity": 0.6535433070866141
                },
                {
                    "duration": 0.032738062500015985,
                    "durationTicks": 33,
                    "midi": 46,
                    "name": "A#2",
                    "ticks": 201840,
                    "time": 200.237895,
                    "velocity": 0.6535433070866141
                },
                {
                    "duration": 0.032738062500015985,
                    "durationTicks": 33,
                    "midi": 36,
                    "name": "C2",
                    "ticks": 202080,
                    "time": 200.47599,
                    "velocity": 0.937007874015748
                },
                {
                    "duration": 0.032738062500015985,
                    "durationTicks": 33,
                    "midi": 38,
                    "name": "D2",
                    "ticks": 202080,
                    "time": 200.47599,
                    "velocity": 0.889763779527559
                },
                {
                    "duration": 0.032738062500015985,
                    "durationTicks": 33,
                    "midi": 42,
                    "name": "F#2",
                    "ticks": 202080,
                    "time": 200.47599,
                    "velocity": 0.6535433070866141
                },
                {
                    "duration": 0.032738062500015985,
                    "durationTicks": 33,
                    "midi": 42,
                    "name": "F#2",
                    "ticks": 202200,
                    "time": 200.5950375,
                    "velocity": 0.6535433070866141
                },
                {
                    "duration": 0.032738062499987564,
                    "durationTicks": 33,
                    "midi": 46,
                    "name": "A#2",
                    "ticks": 202320,
                    "time": 200.714085,
                    "velocity": 0.6535433070866141
                },
                {
                    "duration": 0.032738062500015985,
                    "durationTicks": 33,
                    "midi": 36,
                    "name": "C2",
                    "ticks": 202560,
                    "time": 200.95218,
                    "velocity": 0.937007874015748
                },
                {
                    "duration": 0.032738062500015985,
                    "durationTicks": 33,
                    "midi": 42,
                    "name": "F#2",
                    "ticks": 202560,
                    "time": 200.95218,
                    "velocity": 0.6535433070866141
                },
                {
                    "duration": 0.032738062500015985,
                    "durationTicks": 33,
                    "midi": 42,
                    "name": "F#2",
                    "ticks": 202680,
                    "time": 201.0712275,
                    "velocity": 0.6535433070866141
                },
                {
                    "duration": 0.032738062499987564,
                    "durationTicks": 33,
                    "midi": 46,
                    "name": "A#2",
                    "ticks": 202800,
                    "time": 201.190275,
                    "velocity": 0.6535433070866141
                },
                {
                    "duration": 0.032738062500015985,
                    "durationTicks": 33,
                    "midi": 36,
                    "name": "C2",
                    "ticks": 203040,
                    "time": 201.42837,
                    "velocity": 0.937007874015748
                },
                {
                    "duration": 0.032738062500015985,
                    "durationTicks": 33,
                    "midi": 38,
                    "name": "D2",
                    "ticks": 203040,
                    "time": 201.42837,
                    "velocity": 0.889763779527559
                },
                {
                    "duration": 0.032738062500015985,
                    "durationTicks": 33,
                    "midi": 42,
                    "name": "F#2",
                    "ticks": 203040,
                    "time": 201.42837,
                    "velocity": 0.6535433070866141
                },
                {
                    "duration": 0.032738062500015985,
                    "durationTicks": 33,
                    "midi": 42,
                    "name": "F#2",
                    "ticks": 203160,
                    "time": 201.5474175,
                    "velocity": 0.6535433070866141
                },
                {
                    "duration": 0.032738062500015985,
                    "durationTicks": 33,
                    "midi": 46,
                    "name": "A#2",
                    "ticks": 203280,
                    "time": 201.666465,
                    "velocity": 0.6535433070866141
                },
                {
                    "duration": 0.032738062500015985,
                    "durationTicks": 33,
                    "midi": 36,
                    "name": "C2",
                    "ticks": 203520,
                    "time": 201.90456,
                    "velocity": 0.937007874015748
                },
                {
                    "duration": 0.032738062500015985,
                    "durationTicks": 33,
                    "midi": 42,
                    "name": "F#2",
                    "ticks": 203520,
                    "time": 201.90456,
                    "velocity": 0.6535433070866141
                },
                {
                    "duration": 0.032738062500015985,
                    "durationTicks": 33,
                    "midi": 42,
                    "name": "F#2",
                    "ticks": 203640,
                    "time": 202.0236075,
                    "velocity": 0.6535433070866141
                },
                {
                    "duration": 0.032738062500015985,
                    "durationTicks": 33,
                    "midi": 46,
                    "name": "A#2",
                    "ticks": 203760,
                    "time": 202.142655,
                    "velocity": 0.6535433070866141
                },
                {
                    "duration": 0.032738062500015985,
                    "durationTicks": 33,
                    "midi": 36,
                    "name": "C2",
                    "ticks": 204000,
                    "time": 202.38075,
                    "velocity": 0.937007874015748
                },
                {
                    "duration": 0.032738062500015985,
                    "durationTicks": 33,
                    "midi": 38,
                    "name": "D2",
                    "ticks": 204000,
                    "time": 202.38075,
                    "velocity": 0.889763779527559
                },
                {
                    "duration": 0.032738062500015985,
                    "durationTicks": 33,
                    "midi": 42,
                    "name": "F#2",
                    "ticks": 204000,
                    "time": 202.38075,
                    "velocity": 0.6535433070866141
                },
                {
                    "duration": 0.032738062500015985,
                    "durationTicks": 33,
                    "midi": 42,
                    "name": "F#2",
                    "ticks": 204120,
                    "time": 202.4997975,
                    "velocity": 0.6535433070866141
                },
                {
                    "duration": 0.032738062500015985,
                    "durationTicks": 33,
                    "midi": 46,
                    "name": "A#2",
                    "ticks": 204240,
                    "time": 202.618845,
                    "velocity": 0.6535433070866141
                },
                {
                    "duration": 0.032738062500015985,
                    "durationTicks": 33,
                    "midi": 36,
                    "name": "C2",
                    "ticks": 204480,
                    "time": 202.85694,
                    "velocity": 0.937007874015748
                },
                {
                    "duration": 0.032738062500015985,
                    "durationTicks": 33,
                    "midi": 42,
                    "name": "F#2",
                    "ticks": 204480,
                    "time": 202.85694,
                    "velocity": 0.6535433070866141
                },
                {
                    "duration": 0.032738062500015985,
                    "durationTicks": 33,
                    "midi": 42,
                    "name": "F#2",
                    "ticks": 204600,
                    "time": 202.9759875,
                    "velocity": 0.6535433070866141
                },
                {
                    "duration": 0.032738062500015985,
                    "durationTicks": 33,
                    "midi": 46,
                    "name": "A#2",
                    "ticks": 204720,
                    "time": 203.095035,
                    "velocity": 0.6535433070866141
                },
                {
                    "duration": 0.032738062499987564,
                    "durationTicks": 33,
                    "midi": 36,
                    "name": "C2",
                    "ticks": 204960,
                    "time": 203.33313,
                    "velocity": 0.937007874015748
                },
                {
                    "duration": 0.032738062499987564,
                    "durationTicks": 33,
                    "midi": 38,
                    "name": "D2",
                    "ticks": 204960,
                    "time": 203.33313,
                    "velocity": 0.889763779527559
                },
                {
                    "duration": 0.032738062499987564,
                    "durationTicks": 33,
                    "midi": 42,
                    "name": "F#2",
                    "ticks": 204960,
                    "time": 203.33313,
                    "velocity": 0.6535433070866141
                },
                {
                    "duration": 0.032738062500015985,
                    "durationTicks": 33,
                    "midi": 42,
                    "name": "F#2",
                    "ticks": 205080,
                    "time": 203.4521775,
                    "velocity": 0.6535433070866141
                },
                {
                    "duration": 0.032738062500015985,
                    "durationTicks": 33,
                    "midi": 46,
                    "name": "A#2",
                    "ticks": 205200,
                    "time": 203.571225,
                    "velocity": 0.6535433070866141
                },
                {
                    "duration": 0.032738062499987564,
                    "durationTicks": 33,
                    "midi": 36,
                    "name": "C2",
                    "ticks": 205440,
                    "time": 203.80932,
                    "velocity": 0.937007874015748
                },
                {
                    "duration": 0.032738062499987564,
                    "durationTicks": 33,
                    "midi": 42,
                    "name": "F#2",
                    "ticks": 205440,
                    "time": 203.80932,
                    "velocity": 0.6535433070866141
                },
                {
                    "duration": 0.032738062500015985,
                    "durationTicks": 33,
                    "midi": 42,
                    "name": "F#2",
                    "ticks": 205560,
                    "time": 203.9283675,
                    "velocity": 0.6535433070866141
                },
                {
                    "duration": 0.032738062500015985,
                    "durationTicks": 33,
                    "midi": 46,
                    "name": "A#2",
                    "ticks": 205680,
                    "time": 204.047415,
                    "velocity": 0.6535433070866141
                },
                {
                    "duration": 0.032738062500015985,
                    "durationTicks": 33,
                    "midi": 36,
                    "name": "C2",
                    "ticks": 205920,
                    "time": 204.28551,
                    "velocity": 0.937007874015748
                },
                {
                    "duration": 0.032738062500015985,
                    "durationTicks": 33,
                    "midi": 38,
                    "name": "D2",
                    "ticks": 205920,
                    "time": 204.28551,
                    "velocity": 0.889763779527559
                },
                {
                    "duration": 0.032738062500015985,
                    "durationTicks": 33,
                    "midi": 42,
                    "name": "F#2",
                    "ticks": 205920,
                    "time": 204.28551,
                    "velocity": 0.6535433070866141
                },
                {
                    "duration": 0.032738062500015985,
                    "durationTicks": 33,
                    "midi": 42,
                    "name": "F#2",
                    "ticks": 206040,
                    "time": 204.4045575,
                    "velocity": 0.6535433070866141
                },
                {
                    "duration": 0.032738062500015985,
                    "durationTicks": 33,
                    "midi": 46,
                    "name": "A#2",
                    "ticks": 206160,
                    "time": 204.523605,
                    "velocity": 0.6535433070866141
                },
                {
                    "duration": 0.032738062500015985,
                    "durationTicks": 33,
                    "midi": 36,
                    "name": "C2",
                    "ticks": 206400,
                    "time": 204.7617,
                    "velocity": 0.937007874015748
                },
                {
                    "duration": 0.032738062500015985,
                    "durationTicks": 33,
                    "midi": 42,
                    "name": "F#2",
                    "ticks": 206400,
                    "time": 204.7617,
                    "velocity": 0.6535433070866141
                },
                {
                    "duration": 0.032738062499987564,
                    "durationTicks": 33,
                    "midi": 42,
                    "name": "F#2",
                    "ticks": 206520,
                    "time": 204.8807475,
                    "velocity": 0.6535433070866141
                },
                {
                    "duration": 0.032738062500015985,
                    "durationTicks": 33,
                    "midi": 46,
                    "name": "A#2",
                    "ticks": 206640,
                    "time": 204.999795,
                    "velocity": 0.6535433070866141
                },
                {
                    "duration": 0.032738062500015985,
                    "durationTicks": 33,
                    "midi": 36,
                    "name": "C2",
                    "ticks": 206880,
                    "time": 205.23789,
                    "velocity": 0.937007874015748
                },
                {
                    "duration": 0.032738062500015985,
                    "durationTicks": 33,
                    "midi": 38,
                    "name": "D2",
                    "ticks": 206880,
                    "time": 205.23789,
                    "velocity": 0.889763779527559
                },
                {
                    "duration": 0.032738062500015985,
                    "durationTicks": 33,
                    "midi": 42,
                    "name": "F#2",
                    "ticks": 206880,
                    "time": 205.23789,
                    "velocity": 0.6535433070866141
                },
                {
                    "duration": 0.032738062499987564,
                    "durationTicks": 33,
                    "midi": 42,
                    "name": "F#2",
                    "ticks": 207000,
                    "time": 205.35693750000002,
                    "velocity": 0.6535433070866141
                },
                {
                    "duration": 0.032738062500015985,
                    "durationTicks": 33,
                    "midi": 46,
                    "name": "A#2",
                    "ticks": 207120,
                    "time": 205.475985,
                    "velocity": 0.6535433070866141
                },
                {
                    "duration": 0.032738062500015985,
                    "durationTicks": 33,
                    "midi": 36,
                    "name": "C2",
                    "ticks": 207360,
                    "time": 205.71408,
                    "velocity": 0.937007874015748
                },
                {
                    "duration": 0.032738062500015985,
                    "durationTicks": 33,
                    "midi": 42,
                    "name": "F#2",
                    "ticks": 207360,
                    "time": 205.71408,
                    "velocity": 0.6535433070866141
                },
                {
                    "duration": 0.032738062500015985,
                    "durationTicks": 33,
                    "midi": 57,
                    "name": "A3",
                    "ticks": 207360,
                    "time": 205.71408,
                    "velocity": 0.6850393700787402
                },
                {
                    "duration": 0.032738062500015985,
                    "durationTicks": 33,
                    "midi": 42,
                    "name": "F#2",
                    "ticks": 207480,
                    "time": 205.8331275,
                    "velocity": 0.6535433070866141
                },
                {
                    "duration": 0.032738062499987564,
                    "durationTicks": 33,
                    "midi": 46,
                    "name": "A#2",
                    "ticks": 207600,
                    "time": 205.952175,
                    "velocity": 0.6535433070866141
                },
                {
                    "duration": 0.032738062500015985,
                    "durationTicks": 33,
                    "midi": 36,
                    "name": "C2",
                    "ticks": 207840,
                    "time": 206.19027,
                    "velocity": 0.937007874015748
                },
                {
                    "duration": 0.032738062500015985,
                    "durationTicks": 33,
                    "midi": 38,
                    "name": "D2",
                    "ticks": 207840,
                    "time": 206.19027,
                    "velocity": 0.889763779527559
                },
                {
                    "duration": 0.032738062500015985,
                    "durationTicks": 33,
                    "midi": 42,
                    "name": "F#2",
                    "ticks": 207840,
                    "time": 206.19027,
                    "velocity": 0.6535433070866141
                },
                {
                    "duration": 0.032738062500015985,
                    "durationTicks": 33,
                    "midi": 42,
                    "name": "F#2",
                    "ticks": 207960,
                    "time": 206.3093175,
                    "velocity": 0.6535433070866141
                },
                {
                    "duration": 0.032738062499987564,
                    "durationTicks": 33,
                    "midi": 46,
                    "name": "A#2",
                    "ticks": 208080,
                    "time": 206.428365,
                    "velocity": 0.6535433070866141
                },
                {
                    "duration": 0.032738062500015985,
                    "durationTicks": 33,
                    "midi": 36,
                    "name": "C2",
                    "ticks": 208320,
                    "time": 206.66646,
                    "velocity": 0.937007874015748
                },
                {
                    "duration": 0.032738062500015985,
                    "durationTicks": 33,
                    "midi": 42,
                    "name": "F#2",
                    "ticks": 208320,
                    "time": 206.66646,
                    "velocity": 0.6535433070866141
                },
                {
                    "duration": 0.032738062500015985,
                    "durationTicks": 33,
                    "midi": 42,
                    "name": "F#2",
                    "ticks": 208440,
                    "time": 206.7855075,
                    "velocity": 0.6535433070866141
                },
                {
                    "duration": 0.032738062500015985,
                    "durationTicks": 33,
                    "midi": 46,
                    "name": "A#2",
                    "ticks": 208560,
                    "time": 206.904555,
                    "velocity": 0.6535433070866141
                },
                {
                    "duration": 0.032738062500015985,
                    "durationTicks": 33,
                    "midi": 36,
                    "name": "C2",
                    "ticks": 208800,
                    "time": 207.14265,
                    "velocity": 0.937007874015748
                },
                {
                    "duration": 0.032738062500015985,
                    "durationTicks": 33,
                    "midi": 38,
                    "name": "D2",
                    "ticks": 208800,
                    "time": 207.14265,
                    "velocity": 0.889763779527559
                },
                {
                    "duration": 0.032738062500015985,
                    "durationTicks": 33,
                    "midi": 42,
                    "name": "F#2",
                    "ticks": 208800,
                    "time": 207.14265,
                    "velocity": 0.6535433070866141
                },
                {
                    "duration": 0.032738062500015985,
                    "durationTicks": 33,
                    "midi": 42,
                    "name": "F#2",
                    "ticks": 208920,
                    "time": 207.2616975,
                    "velocity": 0.6535433070866141
                },
                {
                    "duration": 0.032738062500015985,
                    "durationTicks": 33,
                    "midi": 46,
                    "name": "A#2",
                    "ticks": 209040,
                    "time": 207.380745,
                    "velocity": 0.6535433070866141
                },
                {
                    "duration": 0.032738062500015985,
                    "durationTicks": 33,
                    "midi": 36,
                    "name": "C2",
                    "ticks": 209280,
                    "time": 207.61884,
                    "velocity": 0.937007874015748
                },
                {
                    "duration": 0.032738062500015985,
                    "durationTicks": 33,
                    "midi": 42,
                    "name": "F#2",
                    "ticks": 209280,
                    "time": 207.61884,
                    "velocity": 0.6535433070866141
                },
                {
                    "duration": 0.032738062500015985,
                    "durationTicks": 33,
                    "midi": 42,
                    "name": "F#2",
                    "ticks": 209400,
                    "time": 207.7378875,
                    "velocity": 0.6535433070866141
                },
                {
                    "duration": 0.032738062500015985,
                    "durationTicks": 33,
                    "midi": 46,
                    "name": "A#2",
                    "ticks": 209520,
                    "time": 207.856935,
                    "velocity": 0.6535433070866141
                },
                {
                    "duration": 0.032738062500015985,
                    "durationTicks": 33,
                    "midi": 36,
                    "name": "C2",
                    "ticks": 209760,
                    "time": 208.09503,
                    "velocity": 0.937007874015748
                },
                {
                    "duration": 0.032738062500015985,
                    "durationTicks": 33,
                    "midi": 38,
                    "name": "D2",
                    "ticks": 209760,
                    "time": 208.09503,
                    "velocity": 0.889763779527559
                },
                {
                    "duration": 0.032738062500015985,
                    "durationTicks": 33,
                    "midi": 42,
                    "name": "F#2",
                    "ticks": 209760,
                    "time": 208.09503,
                    "velocity": 0.6535433070866141
                },
                {
                    "duration": 0.032738062500015985,
                    "durationTicks": 33,
                    "midi": 42,
                    "name": "F#2",
                    "ticks": 209880,
                    "time": 208.2140775,
                    "velocity": 0.6535433070866141
                },
                {
                    "duration": 0.032738062500015985,
                    "durationTicks": 33,
                    "midi": 46,
                    "name": "A#2",
                    "ticks": 210000,
                    "time": 208.333125,
                    "velocity": 0.6535433070866141
                },
                {
                    "duration": 0.032738062499987564,
                    "durationTicks": 33,
                    "midi": 36,
                    "name": "C2",
                    "ticks": 210240,
                    "time": 208.57122,
                    "velocity": 0.937007874015748
                },
                {
                    "duration": 0.032738062499987564,
                    "durationTicks": 33,
                    "midi": 42,
                    "name": "F#2",
                    "ticks": 210240,
                    "time": 208.57122,
                    "velocity": 0.6535433070866141
                },
                {
                    "duration": 0.032738062500015985,
                    "durationTicks": 33,
                    "midi": 42,
                    "name": "F#2",
                    "ticks": 210360,
                    "time": 208.6902675,
                    "velocity": 0.6535433070866141
                },
                {
                    "duration": 0.032738062500015985,
                    "durationTicks": 33,
                    "midi": 46,
                    "name": "A#2",
                    "ticks": 210480,
                    "time": 208.809315,
                    "velocity": 0.6535433070866141
                },
                {
                    "duration": 0.032738062499987564,
                    "durationTicks": 33,
                    "midi": 36,
                    "name": "C2",
                    "ticks": 210720,
                    "time": 209.04741,
                    "velocity": 0.937007874015748
                },
                {
                    "duration": 0.032738062499987564,
                    "durationTicks": 33,
                    "midi": 38,
                    "name": "D2",
                    "ticks": 210720,
                    "time": 209.04741,
                    "velocity": 0.889763779527559
                },
                {
                    "duration": 0.032738062499987564,
                    "durationTicks": 33,
                    "midi": 42,
                    "name": "F#2",
                    "ticks": 210720,
                    "time": 209.04741,
                    "velocity": 0.6535433070866141
                },
                {
                    "duration": 0.032738062500015985,
                    "durationTicks": 33,
                    "midi": 42,
                    "name": "F#2",
                    "ticks": 210840,
                    "time": 209.1664575,
                    "velocity": 0.6535433070866141
                },
                {
                    "duration": 0.032738062500015985,
                    "durationTicks": 33,
                    "midi": 46,
                    "name": "A#2",
                    "ticks": 210960,
                    "time": 209.285505,
                    "velocity": 0.6535433070866141
                },
                {
                    "duration": 0.032738062500015985,
                    "durationTicks": 33,
                    "midi": 36,
                    "name": "C2",
                    "ticks": 211200,
                    "time": 209.5236,
                    "velocity": 0.937007874015748
                },
                {
                    "duration": 0.032738062500015985,
                    "durationTicks": 33,
                    "midi": 42,
                    "name": "F#2",
                    "ticks": 211200,
                    "time": 209.5236,
                    "velocity": 0.6535433070866141
                },
                {
                    "duration": 0.032738062500015985,
                    "durationTicks": 33,
                    "midi": 42,
                    "name": "F#2",
                    "ticks": 211320,
                    "time": 209.6426475,
                    "velocity": 0.6535433070866141
                },
                {
                    "duration": 0.032738062500015985,
                    "durationTicks": 33,
                    "midi": 46,
                    "name": "A#2",
                    "ticks": 211440,
                    "time": 209.761695,
                    "velocity": 0.6535433070866141
                },
                {
                    "duration": 0.032738062500015985,
                    "durationTicks": 33,
                    "midi": 36,
                    "name": "C2",
                    "ticks": 211680,
                    "time": 209.99979,
                    "velocity": 0.937007874015748
                },
                {
                    "duration": 0.032738062500015985,
                    "durationTicks": 33,
                    "midi": 38,
                    "name": "D2",
                    "ticks": 211680,
                    "time": 209.99979,
                    "velocity": 0.889763779527559
                },
                {
                    "duration": 0.032738062500015985,
                    "durationTicks": 33,
                    "midi": 42,
                    "name": "F#2",
                    "ticks": 211680,
                    "time": 209.99979,
                    "velocity": 0.6535433070866141
                },
                {
                    "duration": 0.032738062499987564,
                    "durationTicks": 33,
                    "midi": 42,
                    "name": "F#2",
                    "ticks": 211800,
                    "time": 210.1188375,
                    "velocity": 0.6535433070866141
                },
                {
                    "duration": 0.032738062500015985,
                    "durationTicks": 33,
                    "midi": 46,
                    "name": "A#2",
                    "ticks": 211920,
                    "time": 210.237885,
                    "velocity": 0.6535433070866141
                },
                {
                    "duration": 0.032738062500015985,
                    "durationTicks": 33,
                    "midi": 36,
                    "name": "C2",
                    "ticks": 212160,
                    "time": 210.47598,
                    "velocity": 0.937007874015748
                },
                {
                    "duration": 0.032738062500015985,
                    "durationTicks": 33,
                    "midi": 42,
                    "name": "F#2",
                    "ticks": 212160,
                    "time": 210.47598,
                    "velocity": 0.6535433070866141
                },
                {
                    "duration": 0.032738062499987564,
                    "durationTicks": 33,
                    "midi": 42,
                    "name": "F#2",
                    "ticks": 212280,
                    "time": 210.59502750000001,
                    "velocity": 0.6535433070866141
                },
                {
                    "duration": 0.032738062500015985,
                    "durationTicks": 33,
                    "midi": 46,
                    "name": "A#2",
                    "ticks": 212400,
                    "time": 210.714075,
                    "velocity": 0.6535433070866141
                },
                {
                    "duration": 0.032738062500015985,
                    "durationTicks": 33,
                    "midi": 36,
                    "name": "C2",
                    "ticks": 212640,
                    "time": 210.95217,
                    "velocity": 0.937007874015748
                },
                {
                    "duration": 0.032738062500015985,
                    "durationTicks": 33,
                    "midi": 38,
                    "name": "D2",
                    "ticks": 212640,
                    "time": 210.95217,
                    "velocity": 0.889763779527559
                },
                {
                    "duration": 0.032738062500015985,
                    "durationTicks": 33,
                    "midi": 42,
                    "name": "F#2",
                    "ticks": 212640,
                    "time": 210.95217,
                    "velocity": 0.6535433070866141
                },
                {
                    "duration": 0.032738062500015985,
                    "durationTicks": 33,
                    "midi": 42,
                    "name": "F#2",
                    "ticks": 212760,
                    "time": 211.0712175,
                    "velocity": 0.6535433070866141
                },
                {
                    "duration": 0.032738062499987564,
                    "durationTicks": 33,
                    "midi": 46,
                    "name": "A#2",
                    "ticks": 212880,
                    "time": 211.190265,
                    "velocity": 0.6535433070866141
                },
                {
                    "duration": 0.032738062500015985,
                    "durationTicks": 33,
                    "midi": 36,
                    "name": "C2",
                    "ticks": 213120,
                    "time": 211.42836,
                    "velocity": 0.937007874015748
                },
                {
                    "duration": 0.032738062500015985,
                    "durationTicks": 33,
                    "midi": 42,
                    "name": "F#2",
                    "ticks": 213120,
                    "time": 211.42836,
                    "velocity": 0.6535433070866141
                },
                {
                    "duration": 0.032738062500015985,
                    "durationTicks": 33,
                    "midi": 42,
                    "name": "F#2",
                    "ticks": 213240,
                    "time": 211.5474075,
                    "velocity": 0.6535433070866141
                },
                {
                    "duration": 0.032738062499987564,
                    "durationTicks": 33,
                    "midi": 46,
                    "name": "A#2",
                    "ticks": 213360,
                    "time": 211.666455,
                    "velocity": 0.6535433070866141
                },
                {
                    "duration": 0.032738062500015985,
                    "durationTicks": 33,
                    "midi": 36,
                    "name": "C2",
                    "ticks": 213600,
                    "time": 211.90455,
                    "velocity": 0.937007874015748
                },
                {
                    "duration": 0.032738062500015985,
                    "durationTicks": 33,
                    "midi": 38,
                    "name": "D2",
                    "ticks": 213600,
                    "time": 211.90455,
                    "velocity": 0.889763779527559
                },
                {
                    "duration": 0.032738062500015985,
                    "durationTicks": 33,
                    "midi": 42,
                    "name": "F#2",
                    "ticks": 213600,
                    "time": 211.90455,
                    "velocity": 0.6535433070866141
                },
                {
                    "duration": 0.032738062500015985,
                    "durationTicks": 33,
                    "midi": 42,
                    "name": "F#2",
                    "ticks": 213720,
                    "time": 212.0235975,
                    "velocity": 0.6535433070866141
                },
                {
                    "duration": 0.032738062500015985,
                    "durationTicks": 33,
                    "midi": 46,
                    "name": "A#2",
                    "ticks": 213840,
                    "time": 212.142645,
                    "velocity": 0.6535433070866141
                },
                {
                    "duration": 0.032738062500015985,
                    "durationTicks": 33,
                    "midi": 36,
                    "name": "C2",
                    "ticks": 214080,
                    "time": 212.38074,
                    "velocity": 0.937007874015748
                },
                {
                    "duration": 0.032738062500015985,
                    "durationTicks": 33,
                    "midi": 42,
                    "name": "F#2",
                    "ticks": 214080,
                    "time": 212.38074,
                    "velocity": 0.6535433070866141
                },
                {
                    "duration": 0.032738062500015985,
                    "durationTicks": 33,
                    "midi": 42,
                    "name": "F#2",
                    "ticks": 214200,
                    "time": 212.4997875,
                    "velocity": 0.6535433070866141
                },
                {
                    "duration": 0.032738062500015985,
                    "durationTicks": 33,
                    "midi": 46,
                    "name": "A#2",
                    "ticks": 214320,
                    "time": 212.618835,
                    "velocity": 0.6535433070866141
                },
                {
                    "duration": 0.032738062500015985,
                    "durationTicks": 33,
                    "midi": 36,
                    "name": "C2",
                    "ticks": 214560,
                    "time": 212.85693,
                    "velocity": 0.937007874015748
                },
                {
                    "duration": 0.032738062500015985,
                    "durationTicks": 33,
                    "midi": 38,
                    "name": "D2",
                    "ticks": 214560,
                    "time": 212.85693,
                    "velocity": 0.889763779527559
                },
                {
                    "duration": 0.032738062500015985,
                    "durationTicks": 33,
                    "midi": 42,
                    "name": "F#2",
                    "ticks": 214560,
                    "time": 212.85693,
                    "velocity": 0.6535433070866141
                },
                {
                    "duration": 0.032738062500015985,
                    "durationTicks": 33,
                    "midi": 42,
                    "name": "F#2",
                    "ticks": 214680,
                    "time": 212.9759775,
                    "velocity": 0.6535433070866141
                },
                {
                    "duration": 0.032738062500015985,
                    "durationTicks": 33,
                    "midi": 46,
                    "name": "A#2",
                    "ticks": 214800,
                    "time": 213.095025,
                    "velocity": 0.6535433070866141
                },
                {
                    "duration": 0.032738062500015985,
                    "durationTicks": 33,
                    "midi": 36,
                    "name": "C2",
                    "ticks": 215040,
                    "time": 213.33312,
                    "velocity": 0.937007874015748
                },
                {
                    "duration": 0.032738062500015985,
                    "durationTicks": 33,
                    "midi": 42,
                    "name": "F#2",
                    "ticks": 215040,
                    "time": 213.33312,
                    "velocity": 0.6535433070866141
                },
                {
                    "duration": 0.032738062500015985,
                    "durationTicks": 33,
                    "midi": 57,
                    "name": "A3",
                    "ticks": 215040,
                    "time": 213.33312,
                    "velocity": 0.6850393700787402
                },
                {
                    "duration": 0.032738062500015985,
                    "durationTicks": 33,
                    "midi": 42,
                    "name": "F#2",
                    "ticks": 215160,
                    "time": 213.4521675,
                    "velocity": 0.6535433070866141
                },
                {
                    "duration": 0.032738062500015985,
                    "durationTicks": 33,
                    "midi": 46,
                    "name": "A#2",
                    "ticks": 215280,
                    "time": 213.571215,
                    "velocity": 0.6535433070866141
                },
                {
                    "duration": 0.032738062499987564,
                    "durationTicks": 33,
                    "midi": 36,
                    "name": "C2",
                    "ticks": 215520,
                    "time": 213.80931,
                    "velocity": 0.937007874015748
                },
                {
                    "duration": 0.032738062499987564,
                    "durationTicks": 33,
                    "midi": 38,
                    "name": "D2",
                    "ticks": 215520,
                    "time": 213.80931,
                    "velocity": 0.889763779527559
                },
                {
                    "duration": 0.032738062499987564,
                    "durationTicks": 33,
                    "midi": 42,
                    "name": "F#2",
                    "ticks": 215520,
                    "time": 213.80931,
                    "velocity": 0.6535433070866141
                },
                {
                    "duration": 0.032738062500015985,
                    "durationTicks": 33,
                    "midi": 42,
                    "name": "F#2",
                    "ticks": 215640,
                    "time": 213.9283575,
                    "velocity": 0.6535433070866141
                },
                {
                    "duration": 0.032738062500015985,
                    "durationTicks": 33,
                    "midi": 46,
                    "name": "A#2",
                    "ticks": 215760,
                    "time": 214.047405,
                    "velocity": 0.6535433070866141
                },
                {
                    "duration": 0.032738062499987564,
                    "durationTicks": 33,
                    "midi": 36,
                    "name": "C2",
                    "ticks": 216000,
                    "time": 214.2855,
                    "velocity": 0.937007874015748
                },
                {
                    "duration": 0.032738062499987564,
                    "durationTicks": 33,
                    "midi": 42,
                    "name": "F#2",
                    "ticks": 216000,
                    "time": 214.2855,
                    "velocity": 0.6535433070866141
                },
                {
                    "duration": 0.032738062500015985,
                    "durationTicks": 33,
                    "midi": 42,
                    "name": "F#2",
                    "ticks": 216120,
                    "time": 214.4045475,
                    "velocity": 0.6535433070866141
                },
                {
                    "duration": 0.032738062500015985,
                    "durationTicks": 33,
                    "midi": 46,
                    "name": "A#2",
                    "ticks": 216240,
                    "time": 214.523595,
                    "velocity": 0.6535433070866141
                },
                {
                    "duration": 0.032738062500015985,
                    "durationTicks": 33,
                    "midi": 36,
                    "name": "C2",
                    "ticks": 216480,
                    "time": 214.76169,
                    "velocity": 0.937007874015748
                },
                {
                    "duration": 0.032738062500015985,
                    "durationTicks": 33,
                    "midi": 38,
                    "name": "D2",
                    "ticks": 216480,
                    "time": 214.76169,
                    "velocity": 0.889763779527559
                },
                {
                    "duration": 0.032738062500015985,
                    "durationTicks": 33,
                    "midi": 42,
                    "name": "F#2",
                    "ticks": 216480,
                    "time": 214.76169,
                    "velocity": 0.6535433070866141
                },
                {
                    "duration": 0.032738062500015985,
                    "durationTicks": 33,
                    "midi": 42,
                    "name": "F#2",
                    "ticks": 216600,
                    "time": 214.8807375,
                    "velocity": 0.6535433070866141
                },
                {
                    "duration": 0.032738062500015985,
                    "durationTicks": 33,
                    "midi": 46,
                    "name": "A#2",
                    "ticks": 216720,
                    "time": 214.999785,
                    "velocity": 0.6535433070866141
                },
                {
                    "duration": 0.032738062500015985,
                    "durationTicks": 33,
                    "midi": 36,
                    "name": "C2",
                    "ticks": 216960,
                    "time": 215.23788,
                    "velocity": 0.937007874015748
                },
                {
                    "duration": 0.032738062500015985,
                    "durationTicks": 33,
                    "midi": 42,
                    "name": "F#2",
                    "ticks": 216960,
                    "time": 215.23788,
                    "velocity": 0.6535433070866141
                },
                {
                    "duration": 0.032738062499987564,
                    "durationTicks": 33,
                    "midi": 42,
                    "name": "F#2",
                    "ticks": 217080,
                    "time": 215.3569275,
                    "velocity": 0.6535433070866141
                },
                {
                    "duration": 0.032738062500015985,
                    "durationTicks": 33,
                    "midi": 46,
                    "name": "A#2",
                    "ticks": 217200,
                    "time": 215.475975,
                    "velocity": 0.6535433070866141
                },
                {
                    "duration": 0.032738062500015985,
                    "durationTicks": 33,
                    "midi": 36,
                    "name": "C2",
                    "ticks": 217440,
                    "time": 215.71407,
                    "velocity": 0.937007874015748
                },
                {
                    "duration": 0.032738062500015985,
                    "durationTicks": 33,
                    "midi": 38,
                    "name": "D2",
                    "ticks": 217440,
                    "time": 215.71407,
                    "velocity": 0.889763779527559
                },
                {
                    "duration": 0.032738062500015985,
                    "durationTicks": 33,
                    "midi": 42,
                    "name": "F#2",
                    "ticks": 217440,
                    "time": 215.71407,
                    "velocity": 0.6535433070866141
                },
                {
                    "duration": 0.032738062499987564,
                    "durationTicks": 33,
                    "midi": 42,
                    "name": "F#2",
                    "ticks": 217560,
                    "time": 215.83311750000001,
                    "velocity": 0.6535433070866141
                },
                {
                    "duration": 0.032738062500015985,
                    "durationTicks": 33,
                    "midi": 46,
                    "name": "A#2",
                    "ticks": 217680,
                    "time": 215.952165,
                    "velocity": 0.6535433070866141
                },
                {
                    "duration": 0.032738062500015985,
                    "durationTicks": 33,
                    "midi": 36,
                    "name": "C2",
                    "ticks": 217920,
                    "time": 216.19026,
                    "velocity": 0.937007874015748
                },
                {
                    "duration": 0.032738062500015985,
                    "durationTicks": 33,
                    "midi": 42,
                    "name": "F#2",
                    "ticks": 217920,
                    "time": 216.19026,
                    "velocity": 0.6535433070866141
                },
                {
                    "duration": 0.032738062500015985,
                    "durationTicks": 33,
                    "midi": 42,
                    "name": "F#2",
                    "ticks": 218040,
                    "time": 216.3093075,
                    "velocity": 0.6535433070866141
                },
                {
                    "duration": 0.032738062499987564,
                    "durationTicks": 33,
                    "midi": 46,
                    "name": "A#2",
                    "ticks": 218160,
                    "time": 216.428355,
                    "velocity": 0.6535433070866141
                },
                {
                    "duration": 0.032738062500015985,
                    "durationTicks": 33,
                    "midi": 36,
                    "name": "C2",
                    "ticks": 218400,
                    "time": 216.66645,
                    "velocity": 0.937007874015748
                },
                {
                    "duration": 0.032738062500015985,
                    "durationTicks": 33,
                    "midi": 38,
                    "name": "D2",
                    "ticks": 218400,
                    "time": 216.66645,
                    "velocity": 0.889763779527559
                },
                {
                    "duration": 0.032738062500015985,
                    "durationTicks": 33,
                    "midi": 42,
                    "name": "F#2",
                    "ticks": 218400,
                    "time": 216.66645,
                    "velocity": 0.6535433070866141
                },
                {
                    "duration": 0.032738062500015985,
                    "durationTicks": 33,
                    "midi": 42,
                    "name": "F#2",
                    "ticks": 218520,
                    "time": 216.7854975,
                    "velocity": 0.6535433070866141
                },
                {
                    "duration": 0.032738062499987564,
                    "durationTicks": 33,
                    "midi": 46,
                    "name": "A#2",
                    "ticks": 218640,
                    "time": 216.904545,
                    "velocity": 0.6535433070866141
                },
                {
                    "duration": 0.032738062500015985,
                    "durationTicks": 33,
                    "midi": 36,
                    "name": "C2",
                    "ticks": 218880,
                    "time": 217.14264,
                    "velocity": 0.937007874015748
                },
                {
                    "duration": 0.032738062500015985,
                    "durationTicks": 33,
                    "midi": 42,
                    "name": "F#2",
                    "ticks": 218880,
                    "time": 217.14264,
                    "velocity": 0.6535433070866141
                },
                {
                    "duration": 0.032738062500015985,
                    "durationTicks": 33,
                    "midi": 42,
                    "name": "F#2",
                    "ticks": 219000,
                    "time": 217.2616875,
                    "velocity": 0.6535433070866141
                },
                {
                    "duration": 0.032738062500015985,
                    "durationTicks": 33,
                    "midi": 46,
                    "name": "A#2",
                    "ticks": 219120,
                    "time": 217.380735,
                    "velocity": 0.6535433070866141
                },
                {
                    "duration": 0.032738062500015985,
                    "durationTicks": 33,
                    "midi": 36,
                    "name": "C2",
                    "ticks": 219360,
                    "time": 217.61883,
                    "velocity": 0.937007874015748
                },
                {
                    "duration": 0.032738062500015985,
                    "durationTicks": 33,
                    "midi": 38,
                    "name": "D2",
                    "ticks": 219360,
                    "time": 217.61883,
                    "velocity": 0.889763779527559
                },
                {
                    "duration": 0.032738062500015985,
                    "durationTicks": 33,
                    "midi": 42,
                    "name": "F#2",
                    "ticks": 219360,
                    "time": 217.61883,
                    "velocity": 0.6535433070866141
                },
                {
                    "duration": 0.032738062500015985,
                    "durationTicks": 33,
                    "midi": 42,
                    "name": "F#2",
                    "ticks": 219480,
                    "time": 217.7378775,
                    "velocity": 0.6535433070866141
                },
                {
                    "duration": 0.032738062500015985,
                    "durationTicks": 33,
                    "midi": 46,
                    "name": "A#2",
                    "ticks": 219600,
                    "time": 217.856925,
                    "velocity": 0.6535433070866141
                },
                {
                    "duration": 0.032738062500015985,
                    "durationTicks": 33,
                    "midi": 36,
                    "name": "C2",
                    "ticks": 219840,
                    "time": 218.09502,
                    "velocity": 0.937007874015748
                },
                {
                    "duration": 0.032738062500015985,
                    "durationTicks": 33,
                    "midi": 42,
                    "name": "F#2",
                    "ticks": 219840,
                    "time": 218.09502,
                    "velocity": 0.6535433070866141
                },
                {
                    "duration": 0.032738062500015985,
                    "durationTicks": 33,
                    "midi": 42,
                    "name": "F#2",
                    "ticks": 219960,
                    "time": 218.2140675,
                    "velocity": 0.6535433070866141
                },
                {
                    "duration": 0.032738062500015985,
                    "durationTicks": 33,
                    "midi": 46,
                    "name": "A#2",
                    "ticks": 220080,
                    "time": 218.333115,
                    "velocity": 0.6535433070866141
                },
                {
                    "duration": 0.032738062500015985,
                    "durationTicks": 33,
                    "midi": 36,
                    "name": "C2",
                    "ticks": 220320,
                    "time": 218.57121,
                    "velocity": 0.937007874015748
                },
                {
                    "duration": 0.032738062500015985,
                    "durationTicks": 33,
                    "midi": 38,
                    "name": "D2",
                    "ticks": 220320,
                    "time": 218.57121,
                    "velocity": 0.889763779527559
                },
                {
                    "duration": 0.032738062500015985,
                    "durationTicks": 33,
                    "midi": 42,
                    "name": "F#2",
                    "ticks": 220320,
                    "time": 218.57121,
                    "velocity": 0.6535433070866141
                },
                {
                    "duration": 0.032738062500015985,
                    "durationTicks": 33,
                    "midi": 42,
                    "name": "F#2",
                    "ticks": 220440,
                    "time": 218.6902575,
                    "velocity": 0.6535433070866141
                },
                {
                    "duration": 0.032738062500015985,
                    "durationTicks": 33,
                    "midi": 46,
                    "name": "A#2",
                    "ticks": 220560,
                    "time": 218.809305,
                    "velocity": 0.6535433070866141
                },
                {
                    "duration": 0.032738062499987564,
                    "durationTicks": 33,
                    "midi": 36,
                    "name": "C2",
                    "ticks": 220800,
                    "time": 219.0474,
                    "velocity": 0.937007874015748
                },
                {
                    "duration": 0.032738062499987564,
                    "durationTicks": 33,
                    "midi": 42,
                    "name": "F#2",
                    "ticks": 220800,
                    "time": 219.0474,
                    "velocity": 0.6535433070866141
                },
                {
                    "duration": 0.032738062500015985,
                    "durationTicks": 33,
                    "midi": 42,
                    "name": "F#2",
                    "ticks": 220920,
                    "time": 219.1664475,
                    "velocity": 0.6535433070866141
                },
                {
                    "duration": 0.032738062500015985,
                    "durationTicks": 33,
                    "midi": 46,
                    "name": "A#2",
                    "ticks": 221040,
                    "time": 219.285495,
                    "velocity": 0.6535433070866141
                },
                {
                    "duration": 0.032738062499987564,
                    "durationTicks": 33,
                    "midi": 36,
                    "name": "C2",
                    "ticks": 221280,
                    "time": 219.52359,
                    "velocity": 0.937007874015748
                },
                {
                    "duration": 0.032738062499987564,
                    "durationTicks": 33,
                    "midi": 38,
                    "name": "D2",
                    "ticks": 221280,
                    "time": 219.52359,
                    "velocity": 0.889763779527559
                },
                {
                    "duration": 0.032738062499987564,
                    "durationTicks": 33,
                    "midi": 42,
                    "name": "F#2",
                    "ticks": 221280,
                    "time": 219.52359,
                    "velocity": 0.6535433070866141
                },
                {
                    "duration": 0.032738062500015985,
                    "durationTicks": 33,
                    "midi": 42,
                    "name": "F#2",
                    "ticks": 221400,
                    "time": 219.6426375,
                    "velocity": 0.6535433070866141
                },
                {
                    "duration": 0.032738062500015985,
                    "durationTicks": 33,
                    "midi": 46,
                    "name": "A#2",
                    "ticks": 221520,
                    "time": 219.761685,
                    "velocity": 0.6535433070866141
                },
                {
                    "duration": 0.032738062500015985,
                    "durationTicks": 33,
                    "midi": 36,
                    "name": "C2",
                    "ticks": 221760,
                    "time": 219.99978,
                    "velocity": 0.937007874015748
                },
                {
                    "duration": 0.032738062500015985,
                    "durationTicks": 33,
                    "midi": 42,
                    "name": "F#2",
                    "ticks": 221760,
                    "time": 219.99978,
                    "velocity": 0.6535433070866141
                },
                {
                    "duration": 0.032738062500015985,
                    "durationTicks": 33,
                    "midi": 42,
                    "name": "F#2",
                    "ticks": 221880,
                    "time": 220.1188275,
                    "velocity": 0.6535433070866141
                },
                {
                    "duration": 0.032738062500015985,
                    "durationTicks": 33,
                    "midi": 46,
                    "name": "A#2",
                    "ticks": 222000,
                    "time": 220.237875,
                    "velocity": 0.6535433070866141
                },
                {
                    "duration": 0.032738062500015985,
                    "durationTicks": 33,
                    "midi": 36,
                    "name": "C2",
                    "ticks": 222240,
                    "time": 220.47597,
                    "velocity": 0.937007874015748
                },
                {
                    "duration": 0.032738062500015985,
                    "durationTicks": 33,
                    "midi": 38,
                    "name": "D2",
                    "ticks": 222240,
                    "time": 220.47597,
                    "velocity": 0.889763779527559
                },
                {
                    "duration": 0.032738062500015985,
                    "durationTicks": 33,
                    "midi": 42,
                    "name": "F#2",
                    "ticks": 222240,
                    "time": 220.47597,
                    "velocity": 0.6535433070866141
                },
                {
                    "duration": 0.032738062499987564,
                    "durationTicks": 33,
                    "midi": 42,
                    "name": "F#2",
                    "ticks": 222360,
                    "time": 220.5950175,
                    "velocity": 0.6535433070866141
                },
                {
                    "duration": 0.032738062500015985,
                    "durationTicks": 33,
                    "midi": 46,
                    "name": "A#2",
                    "ticks": 222480,
                    "time": 220.714065,
                    "velocity": 0.6535433070866141
                },
                {
                    "duration": 0.032738062500015985,
                    "durationTicks": 33,
                    "midi": 36,
                    "name": "C2",
                    "ticks": 222720,
                    "time": 220.95216,
                    "velocity": 0.937007874015748
                },
                {
                    "duration": 0.032738062500015985,
                    "durationTicks": 33,
                    "midi": 42,
                    "name": "F#2",
                    "ticks": 222720,
                    "time": 220.95216,
                    "velocity": 0.6535433070866141
                },
                {
                    "duration": 0.032738062500015985,
                    "durationTicks": 33,
                    "midi": 57,
                    "name": "A3",
                    "ticks": 222720,
                    "time": 220.95216,
                    "velocity": 0.6850393700787402
                },
                {
                    "duration": 0.032738062499987564,
                    "durationTicks": 33,
                    "midi": 42,
                    "name": "F#2",
                    "ticks": 222840,
                    "time": 221.0712075,
                    "velocity": 0.6535433070866141
                },
                {
                    "duration": 0.032738062500015985,
                    "durationTicks": 33,
                    "midi": 46,
                    "name": "A#2",
                    "ticks": 222960,
                    "time": 221.190255,
                    "velocity": 0.6535433070866141
                },
                {
                    "duration": 0.032738062500015985,
                    "durationTicks": 33,
                    "midi": 36,
                    "name": "C2",
                    "ticks": 223200,
                    "time": 221.42835,
                    "velocity": 0.937007874015748
                },
                {
                    "duration": 0.032738062500015985,
                    "durationTicks": 33,
                    "midi": 38,
                    "name": "D2",
                    "ticks": 223200,
                    "time": 221.42835,
                    "velocity": 0.889763779527559
                },
                {
                    "duration": 0.032738062500015985,
                    "durationTicks": 33,
                    "midi": 42,
                    "name": "F#2",
                    "ticks": 223200,
                    "time": 221.42835,
                    "velocity": 0.6535433070866141
                },
                {
                    "duration": 0.032738062500015985,
                    "durationTicks": 33,
                    "midi": 42,
                    "name": "F#2",
                    "ticks": 223320,
                    "time": 221.5473975,
                    "velocity": 0.6535433070866141
                },
                {
                    "duration": 0.032738062499987564,
                    "durationTicks": 33,
                    "midi": 46,
                    "name": "A#2",
                    "ticks": 223440,
                    "time": 221.666445,
                    "velocity": 0.6535433070866141
                },
                {
                    "duration": 0.032738062500015985,
                    "durationTicks": 33,
                    "midi": 36,
                    "name": "C2",
                    "ticks": 223680,
                    "time": 221.90454,
                    "velocity": 0.937007874015748
                },
                {
                    "duration": 0.032738062500015985,
                    "durationTicks": 33,
                    "midi": 42,
                    "name": "F#2",
                    "ticks": 223680,
                    "time": 221.90454,
                    "velocity": 0.6535433070866141
                },
                {
                    "duration": 0.032738062500015985,
                    "durationTicks": 33,
                    "midi": 42,
                    "name": "F#2",
                    "ticks": 223800,
                    "time": 222.0235875,
                    "velocity": 0.6535433070866141
                },
                {
                    "duration": 0.032738062499987564,
                    "durationTicks": 33,
                    "midi": 46,
                    "name": "A#2",
                    "ticks": 223920,
                    "time": 222.142635,
                    "velocity": 0.6535433070866141
                },
                {
                    "duration": 0.032738062500015985,
                    "durationTicks": 33,
                    "midi": 36,
                    "name": "C2",
                    "ticks": 224160,
                    "time": 222.38073,
                    "velocity": 0.937007874015748
                },
                {
                    "duration": 0.032738062500015985,
                    "durationTicks": 33,
                    "midi": 38,
                    "name": "D2",
                    "ticks": 224160,
                    "time": 222.38073,
                    "velocity": 0.889763779527559
                },
                {
                    "duration": 0.032738062500015985,
                    "durationTicks": 33,
                    "midi": 42,
                    "name": "F#2",
                    "ticks": 224160,
                    "time": 222.38073,
                    "velocity": 0.6535433070866141
                },
                {
                    "duration": 0.032738062500015985,
                    "durationTicks": 33,
                    "midi": 42,
                    "name": "F#2",
                    "ticks": 224280,
                    "time": 222.4997775,
                    "velocity": 0.6535433070866141
                },
                {
                    "duration": 0.032738062500015985,
                    "durationTicks": 33,
                    "midi": 46,
                    "name": "A#2",
                    "ticks": 224400,
                    "time": 222.618825,
                    "velocity": 0.6535433070866141
                },
                {
                    "duration": 0.032738062500015985,
                    "durationTicks": 33,
                    "midi": 36,
                    "name": "C2",
                    "ticks": 224640,
                    "time": 222.85692,
                    "velocity": 0.937007874015748
                },
                {
                    "duration": 0.032738062500015985,
                    "durationTicks": 33,
                    "midi": 42,
                    "name": "F#2",
                    "ticks": 224640,
                    "time": 222.85692,
                    "velocity": 0.6535433070866141
                },
                {
                    "duration": 0.032738062500015985,
                    "durationTicks": 33,
                    "midi": 42,
                    "name": "F#2",
                    "ticks": 224760,
                    "time": 222.9759675,
                    "velocity": 0.6535433070866141
                },
                {
                    "duration": 0.032738062500015985,
                    "durationTicks": 33,
                    "midi": 46,
                    "name": "A#2",
                    "ticks": 224880,
                    "time": 223.095015,
                    "velocity": 0.6535433070866141
                },
                {
                    "duration": 0.032738062500015985,
                    "durationTicks": 33,
                    "midi": 36,
                    "name": "C2",
                    "ticks": 225120,
                    "time": 223.33311,
                    "velocity": 0.937007874015748
                },
                {
                    "duration": 0.032738062500015985,
                    "durationTicks": 33,
                    "midi": 38,
                    "name": "D2",
                    "ticks": 225120,
                    "time": 223.33311,
                    "velocity": 0.889763779527559
                },
                {
                    "duration": 0.032738062500015985,
                    "durationTicks": 33,
                    "midi": 42,
                    "name": "F#2",
                    "ticks": 225120,
                    "time": 223.33311,
                    "velocity": 0.6535433070866141
                },
                {
                    "duration": 0.032738062500015985,
                    "durationTicks": 33,
                    "midi": 42,
                    "name": "F#2",
                    "ticks": 225240,
                    "time": 223.4521575,
                    "velocity": 0.6535433070866141
                },
                {
                    "duration": 0.032738062500015985,
                    "durationTicks": 33,
                    "midi": 46,
                    "name": "A#2",
                    "ticks": 225360,
                    "time": 223.571205,
                    "velocity": 0.6535433070866141
                },
                {
                    "duration": 0.032738062500015985,
                    "durationTicks": 33,
                    "midi": 36,
                    "name": "C2",
                    "ticks": 225600,
                    "time": 223.8093,
                    "velocity": 0.937007874015748
                },
                {
                    "duration": 0.032738062500015985,
                    "durationTicks": 33,
                    "midi": 42,
                    "name": "F#2",
                    "ticks": 225600,
                    "time": 223.8093,
                    "velocity": 0.6535433070866141
                },
                {
                    "duration": 0.032738062500015985,
                    "durationTicks": 33,
                    "midi": 42,
                    "name": "F#2",
                    "ticks": 225720,
                    "time": 223.9283475,
                    "velocity": 0.6535433070866141
                },
                {
                    "duration": 0.032738062500015985,
                    "durationTicks": 33,
                    "midi": 46,
                    "name": "A#2",
                    "ticks": 225840,
                    "time": 224.047395,
                    "velocity": 0.6535433070866141
                },
                {
                    "duration": 0.032738062500015985,
                    "durationTicks": 33,
                    "midi": 36,
                    "name": "C2",
                    "ticks": 226080,
                    "time": 224.28549,
                    "velocity": 0.937007874015748
                },
                {
                    "duration": 0.032738062500015985,
                    "durationTicks": 33,
                    "midi": 38,
                    "name": "D2",
                    "ticks": 226080,
                    "time": 224.28549,
                    "velocity": 0.889763779527559
                },
                {
                    "duration": 0.032738062500015985,
                    "durationTicks": 33,
                    "midi": 42,
                    "name": "F#2",
                    "ticks": 226080,
                    "time": 224.28549,
                    "velocity": 0.6535433070866141
                },
                {
                    "duration": 0.032738062500015985,
                    "durationTicks": 33,
                    "midi": 42,
                    "name": "F#2",
                    "ticks": 226200,
                    "time": 224.4045375,
                    "velocity": 0.6535433070866141
                },
                {
                    "duration": 0.032738062500015985,
                    "durationTicks": 33,
                    "midi": 46,
                    "name": "A#2",
                    "ticks": 226320,
                    "time": 224.523585,
                    "velocity": 0.6535433070866141
                },
                {
                    "duration": 0.032738062499987564,
                    "durationTicks": 33,
                    "midi": 36,
                    "name": "C2",
                    "ticks": 226560,
                    "time": 224.76168,
                    "velocity": 0.937007874015748
                },
                {
                    "duration": 0.032738062499987564,
                    "durationTicks": 33,
                    "midi": 42,
                    "name": "F#2",
                    "ticks": 226560,
                    "time": 224.76168,
                    "velocity": 0.6535433070866141
                },
                {
                    "duration": 0.032738062500015985,
                    "durationTicks": 33,
                    "midi": 42,
                    "name": "F#2",
                    "ticks": 226680,
                    "time": 224.8807275,
                    "velocity": 0.6535433070866141
                },
                {
                    "duration": 0.032738062500015985,
                    "durationTicks": 33,
                    "midi": 46,
                    "name": "A#2",
                    "ticks": 226800,
                    "time": 224.999775,
                    "velocity": 0.6535433070866141
                },
                {
                    "duration": 0.032738062499987564,
                    "durationTicks": 33,
                    "midi": 36,
                    "name": "C2",
                    "ticks": 227040,
                    "time": 225.23787000000002,
                    "velocity": 0.937007874015748
                },
                {
                    "duration": 0.032738062499987564,
                    "durationTicks": 33,
                    "midi": 38,
                    "name": "D2",
                    "ticks": 227040,
                    "time": 225.23787000000002,
                    "velocity": 0.889763779527559
                },
                {
                    "duration": 0.032738062499987564,
                    "durationTicks": 33,
                    "midi": 42,
                    "name": "F#2",
                    "ticks": 227040,
                    "time": 225.23787000000002,
                    "velocity": 0.6535433070866141
                },
                {
                    "duration": 0.032738062500015985,
                    "durationTicks": 33,
                    "midi": 42,
                    "name": "F#2",
                    "ticks": 227160,
                    "time": 225.3569175,
                    "velocity": 0.6535433070866141
                },
                {
                    "duration": 0.032738062500015985,
                    "durationTicks": 33,
                    "midi": 46,
                    "name": "A#2",
                    "ticks": 227280,
                    "time": 225.475965,
                    "velocity": 0.6535433070866141
                },
                {
                    "duration": 0.032738062500015985,
                    "durationTicks": 33,
                    "midi": 36,
                    "name": "C2",
                    "ticks": 227520,
                    "time": 225.71406,
                    "velocity": 0.937007874015748
                },
                {
                    "duration": 0.032738062500015985,
                    "durationTicks": 33,
                    "midi": 42,
                    "name": "F#2",
                    "ticks": 227520,
                    "time": 225.71406,
                    "velocity": 0.6535433070866141
                },
                {
                    "duration": 0.032738062499987564,
                    "durationTicks": 33,
                    "midi": 42,
                    "name": "F#2",
                    "ticks": 227640,
                    "time": 225.8331075,
                    "velocity": 0.6535433070866141
                },
                {
                    "duration": 0.032738062500015985,
                    "durationTicks": 33,
                    "midi": 46,
                    "name": "A#2",
                    "ticks": 227760,
                    "time": 225.952155,
                    "velocity": 0.6535433070866141
                },
                {
                    "duration": 0.032738062500015985,
                    "durationTicks": 33,
                    "midi": 36,
                    "name": "C2",
                    "ticks": 228000,
                    "time": 226.19025,
                    "velocity": 0.937007874015748
                },
                {
                    "duration": 0.032738062500015985,
                    "durationTicks": 33,
                    "midi": 38,
                    "name": "D2",
                    "ticks": 228000,
                    "time": 226.19025,
                    "velocity": 0.889763779527559
                },
                {
                    "duration": 0.032738062500015985,
                    "durationTicks": 33,
                    "midi": 42,
                    "name": "F#2",
                    "ticks": 228000,
                    "time": 226.19025,
                    "velocity": 0.6535433070866141
                },
                {
                    "duration": 0.032738062499987564,
                    "durationTicks": 33,
                    "midi": 42,
                    "name": "F#2",
                    "ticks": 228120,
                    "time": 226.3092975,
                    "velocity": 0.6535433070866141
                },
                {
                    "duration": 0.032738062500015985,
                    "durationTicks": 33,
                    "midi": 46,
                    "name": "A#2",
                    "ticks": 228240,
                    "time": 226.428345,
                    "velocity": 0.6535433070866141
                },
                {
                    "duration": 0.032738062500015985,
                    "durationTicks": 33,
                    "midi": 36,
                    "name": "C2",
                    "ticks": 228480,
                    "time": 226.66644,
                    "velocity": 0.937007874015748
                },
                {
                    "duration": 0.032738062500015985,
                    "durationTicks": 33,
                    "midi": 42,
                    "name": "F#2",
                    "ticks": 228480,
                    "time": 226.66644,
                    "velocity": 0.6535433070866141
                },
                {
                    "duration": 0.032738062500015985,
                    "durationTicks": 33,
                    "midi": 42,
                    "name": "F#2",
                    "ticks": 228600,
                    "time": 226.7854875,
                    "velocity": 0.6535433070866141
                },
                {
                    "duration": 0.032738062500015985,
                    "durationTicks": 33,
                    "midi": 46,
                    "name": "A#2",
                    "ticks": 228720,
                    "time": 226.904535,
                    "velocity": 0.6535433070866141
                },
                {
                    "duration": 0.032738062500015985,
                    "durationTicks": 33,
                    "midi": 36,
                    "name": "C2",
                    "ticks": 228960,
                    "time": 227.14263,
                    "velocity": 0.937007874015748
                },
                {
                    "duration": 0.032738062500015985,
                    "durationTicks": 33,
                    "midi": 38,
                    "name": "D2",
                    "ticks": 228960,
                    "time": 227.14263,
                    "velocity": 0.889763779527559
                },
                {
                    "duration": 0.032738062500015985,
                    "durationTicks": 33,
                    "midi": 42,
                    "name": "F#2",
                    "ticks": 228960,
                    "time": 227.14263,
                    "velocity": 0.6535433070866141
                },
                {
                    "duration": 0.032738062500015985,
                    "durationTicks": 33,
                    "midi": 42,
                    "name": "F#2",
                    "ticks": 229080,
                    "time": 227.2616775,
                    "velocity": 0.6535433070866141
                },
                {
                    "duration": 0.032738062499987564,
                    "durationTicks": 33,
                    "midi": 46,
                    "name": "A#2",
                    "ticks": 229200,
                    "time": 227.380725,
                    "velocity": 0.6535433070866141
                },
                {
                    "duration": 0.032738062500015985,
                    "durationTicks": 33,
                    "midi": 36,
                    "name": "C2",
                    "ticks": 229440,
                    "time": 227.61882,
                    "velocity": 0.937007874015748
                },
                {
                    "duration": 0.032738062500015985,
                    "durationTicks": 33,
                    "midi": 42,
                    "name": "F#2",
                    "ticks": 229440,
                    "time": 227.61882,
                    "velocity": 0.6535433070866141
                },
                {
                    "duration": 0.032738062500015985,
                    "durationTicks": 33,
                    "midi": 42,
                    "name": "F#2",
                    "ticks": 229560,
                    "time": 227.7378675,
                    "velocity": 0.6535433070866141
                },
                {
                    "duration": 0.032738062499987564,
                    "durationTicks": 33,
                    "midi": 46,
                    "name": "A#2",
                    "ticks": 229680,
                    "time": 227.85691500000001,
                    "velocity": 0.6535433070866141
                },
                {
                    "duration": 0.032738062500015985,
                    "durationTicks": 33,
                    "midi": 36,
                    "name": "C2",
                    "ticks": 229920,
                    "time": 228.09501,
                    "velocity": 0.937007874015748
                },
                {
                    "duration": 0.032738062500015985,
                    "durationTicks": 33,
                    "midi": 38,
                    "name": "D2",
                    "ticks": 229920,
                    "time": 228.09501,
                    "velocity": 0.889763779527559
                },
                {
                    "duration": 0.032738062500015985,
                    "durationTicks": 33,
                    "midi": 42,
                    "name": "F#2",
                    "ticks": 229920,
                    "time": 228.09501,
                    "velocity": 0.6535433070866141
                },
                {
                    "duration": 0.032738062500015985,
                    "durationTicks": 33,
                    "midi": 42,
                    "name": "F#2",
                    "ticks": 230040,
                    "time": 228.2140575,
                    "velocity": 0.6535433070866141
                },
                {
                    "duration": 0.032738062500015985,
                    "durationTicks": 33,
                    "midi": 46,
                    "name": "A#2",
                    "ticks": 230160,
                    "time": 228.333105,
                    "velocity": 0.6535433070866141
                },
                {
                    "duration": 0.23115056249997679,
                    "durationTicks": 233,
                    "midi": 57,
                    "name": "A3",
                    "ticks": 230400,
                    "time": 228.5712,
                    "velocity": 0.937007874015748
                },
                {
                    "duration": 0.3422615624999992,
                    "durationTicks": 345,
                    "midi": 60,
                    "name": "C4",
                    "ticks": 230760,
                    "time": 228.9283425,
                    "velocity": 0.937007874015748
                },
                {
                    "duration": 0.23115056249997679,
                    "durationTicks": 233,
                    "midi": 39,
                    "name": "D#2",
                    "ticks": 230880,
                    "time": 229.04739,
                    "velocity": 0.937007874015748
                },
                {
                    "duration": 0.2311505625000052,
                    "durationTicks": 233,
                    "midi": 60,
                    "name": "C4",
                    "ticks": 231120,
                    "time": 229.285485,
                    "velocity": 0.937007874015748
                },
                {
                    "duration": 0.23115056249997679,
                    "durationTicks": 233,
                    "midi": 60,
                    "name": "C4",
                    "ticks": 231360,
                    "time": 229.52358,
                    "velocity": 0.937007874015748
                },
                {
                    "duration": 0.3422615624999992,
                    "durationTicks": 345,
                    "midi": 60,
                    "name": "C4",
                    "ticks": 231720,
                    "time": 229.8807225,
                    "velocity": 0.937007874015748
                },
                {
                    "duration": 0.23115056249997679,
                    "durationTicks": 233,
                    "midi": 39,
                    "name": "D#2",
                    "ticks": 231840,
                    "time": 229.99977,
                    "velocity": 0.937007874015748
                },
                {
                    "duration": 0.2311505625000052,
                    "durationTicks": 233,
                    "midi": 60,
                    "name": "C4",
                    "ticks": 232080,
                    "time": 230.237865,
                    "velocity": 0.937007874015748
                },
                {
                    "duration": 0.23115056249997679,
                    "durationTicks": 233,
                    "midi": 60,
                    "name": "C4",
                    "ticks": 232320,
                    "time": 230.47596000000001,
                    "velocity": 0.937007874015748
                },
                {
                    "duration": 0.3422615624999992,
                    "durationTicks": 345,
                    "midi": 60,
                    "name": "C4",
                    "ticks": 232680,
                    "time": 230.8331025,
                    "velocity": 0.937007874015748
                },
                {
                    "duration": 0.2311505625000052,
                    "durationTicks": 233,
                    "midi": 39,
                    "name": "D#2",
                    "ticks": 232800,
                    "time": 230.95215,
                    "velocity": 0.937007874015748
                },
                {
                    "duration": 0.23115056249997679,
                    "durationTicks": 233,
                    "midi": 60,
                    "name": "C4",
                    "ticks": 233040,
                    "time": 231.190245,
                    "velocity": 0.937007874015748
                },
                {
                    "duration": 0.2311505625000052,
                    "durationTicks": 233,
                    "midi": 60,
                    "name": "C4",
                    "ticks": 233280,
                    "time": 231.42834,
                    "velocity": 0.937007874015748
                },
                {
                    "duration": 0.3422615624999992,
                    "durationTicks": 345,
                    "midi": 60,
                    "name": "C4",
                    "ticks": 233640,
                    "time": 231.7854825,
                    "velocity": 0.937007874015748
                },
                {
                    "duration": 0.2311505625000052,
                    "durationTicks": 233,
                    "midi": 39,
                    "name": "D#2",
                    "ticks": 233760,
                    "time": 231.90453,
                    "velocity": 0.937007874015748
                },
                {
                    "duration": 0.23115056249997679,
                    "durationTicks": 233,
                    "midi": 60,
                    "name": "C4",
                    "ticks": 234000,
                    "time": 232.142625,
                    "velocity": 0.937007874015748
                },
                {
                    "duration": 0.2311505625000052,
                    "durationTicks": 233,
                    "midi": 60,
                    "name": "C4",
                    "ticks": 234240,
                    "time": 232.38072,
                    "velocity": 0.937007874015748
                },
                {
                    "duration": 0.3422615624999992,
                    "durationTicks": 345,
                    "midi": 60,
                    "name": "C4",
                    "ticks": 234600,
                    "time": 232.7378625,
                    "velocity": 0.937007874015748
                },
                {
                    "duration": 0.2311505625000052,
                    "durationTicks": 233,
                    "midi": 39,
                    "name": "D#2",
                    "ticks": 234720,
                    "time": 232.85691,
                    "velocity": 0.937007874015748
                },
                {
                    "duration": 0.23115056249997679,
                    "durationTicks": 233,
                    "midi": 60,
                    "name": "C4",
                    "ticks": 234960,
                    "time": 233.09500500000001,
                    "velocity": 0.937007874015748
                },
                {
                    "duration": 0.2311505625000052,
                    "durationTicks": 233,
                    "midi": 60,
                    "name": "C4",
                    "ticks": 235200,
                    "time": 233.3331,
                    "velocity": 0.937007874015748
                },
                {
                    "duration": 0.3422615624999992,
                    "durationTicks": 345,
                    "midi": 60,
                    "name": "C4",
                    "ticks": 235560,
                    "time": 233.6902425,
                    "velocity": 0.937007874015748
                },
                {
                    "duration": 0.23115056249997679,
                    "durationTicks": 233,
                    "midi": 39,
                    "name": "D#2",
                    "ticks": 235680,
                    "time": 233.80929,
                    "velocity": 0.937007874015748
                },
                {
                    "duration": 0.2311505625000052,
                    "durationTicks": 233,
                    "midi": 60,
                    "name": "C4",
                    "ticks": 235920,
                    "time": 234.047385,
                    "velocity": 0.937007874015748
                },
                {
                    "duration": 0.23115056249997679,
                    "durationTicks": 233,
                    "midi": 60,
                    "name": "C4",
                    "ticks": 236160,
                    "time": 234.28548,
                    "velocity": 0.937007874015748
                },
                {
                    "duration": 0.3422615625000276,
                    "durationTicks": 345,
                    "midi": 60,
                    "name": "C4",
                    "ticks": 236520,
                    "time": 234.6426225,
                    "velocity": 0.937007874015748
                },
                {
                    "duration": 0.23115056249997679,
                    "durationTicks": 233,
                    "midi": 39,
                    "name": "D#2",
                    "ticks": 236640,
                    "time": 234.76167,
                    "velocity": 0.937007874015748
                },
                {
                    "duration": 0.2311505625000052,
                    "durationTicks": 233,
                    "midi": 60,
                    "name": "C4",
                    "ticks": 236880,
                    "time": 234.999765,
                    "velocity": 0.937007874015748
                },
                {
                    "duration": 0.23115056249997679,
                    "durationTicks": 233,
                    "midi": 60,
                    "name": "C4",
                    "ticks": 237120,
                    "time": 235.23786,
                    "velocity": 0.937007874015748
                },
                {
                    "duration": 0.3422615624999992,
                    "durationTicks": 345,
                    "midi": 60,
                    "name": "C4",
                    "ticks": 237480,
                    "time": 235.5950025,
                    "velocity": 0.937007874015748
                },
                {
                    "duration": 0.23115056249997679,
                    "durationTicks": 233,
                    "midi": 39,
                    "name": "D#2",
                    "ticks": 237600,
                    "time": 235.71405000000001,
                    "velocity": 0.937007874015748
                },
                {
                    "duration": 0.2311505625000052,
                    "durationTicks": 233,
                    "midi": 60,
                    "name": "C4",
                    "ticks": 237840,
                    "time": 235.952145,
                    "velocity": 0.937007874015748
                },
                {
                    "duration": 0.2311505625000052,
                    "durationTicks": 233,
                    "midi": 39,
                    "name": "D#2",
                    "ticks": 238560,
                    "time": 236.66643,
                    "velocity": 0.937007874015748
                },
                {
                    "duration": 0.2311505625000052,
                    "durationTicks": 233,
                    "midi": 39,
                    "name": "D#2",
                    "ticks": 239520,
                    "time": 237.61881,
                    "velocity": 0.937007874015748
                },
                {
                    "duration": 0.2311505625000052,
                    "durationTicks": 233,
                    "midi": 39,
                    "name": "D#2",
                    "ticks": 240480,
                    "time": 238.57119,
                    "velocity": 0.937007874015748
                },
                {
                    "duration": 0.23115056249997679,
                    "durationTicks": 233,
                    "midi": 39,
                    "name": "D#2",
                    "ticks": 241440,
                    "time": 239.52357,
                    "velocity": 0.937007874015748
                },
                {
                    "duration": 0.23115056249997679,
                    "durationTicks": 233,
                    "midi": 39,
                    "name": "D#2",
                    "ticks": 242400,
                    "time": 240.47595,
                    "velocity": 0.937007874015748
                },
                {
                    "duration": 0.2311505625000052,
                    "durationTicks": 233,
                    "midi": 39,
                    "name": "D#2",
                    "ticks": 243360,
                    "time": 241.42833,
                    "velocity": 0.937007874015748
                },
                {
                    "duration": 0.2311505625000052,
                    "durationTicks": 233,
                    "midi": 39,
                    "name": "D#2",
                    "ticks": 244320,
                    "time": 242.38071,
                    "velocity": 0.937007874015748
                }
            ]
        },
        {
            "channel": 9,
            "controlChanges": {},
            "pitchBends": [],
            "instrument": {
                "family": "drums",
                "name": "tr-808 kit",
                "number": 25
            },
            "name": "",
            "notes": [
                {
                    "duration": 0.09027768749999865,
                    "durationTicks": 91,
                    "midi": 35,
                    "name": "B1",
                    "ticks": 38400,
                    "time": 38.0952,
                    "velocity": 0.6692913385826772
                },
                {
                    "duration": 0.09027768749999865,
                    "durationTicks": 91,
                    "midi": 38,
                    "name": "D2",
                    "ticks": 38520,
                    "time": 38.2142475,
                    "velocity": 0.5433070866141733
                },
                {
                    "duration": 0.09027768749999865,
                    "durationTicks": 91,
                    "midi": 38,
                    "name": "D2",
                    "ticks": 38640,
                    "time": 38.333295,
                    "velocity": 0.5433070866141733
                },
                {
                    "duration": 0.09027768749999865,
                    "durationTicks": 91,
                    "midi": 38,
                    "name": "D2",
                    "ticks": 38760,
                    "time": 38.4523425,
                    "velocity": 0.5433070866141733
                },
                {
                    "duration": 0.09027768749999865,
                    "durationTicks": 91,
                    "midi": 35,
                    "name": "B1",
                    "ticks": 38880,
                    "time": 38.57139,
                    "velocity": 0.6692913385826772
                },
                {
                    "duration": 0.09027768749999865,
                    "durationTicks": 91,
                    "midi": 39,
                    "name": "D#2",
                    "ticks": 38880,
                    "time": 38.57139,
                    "velocity": 0.5905511811023622
                },
                {
                    "duration": 0.09027768749999865,
                    "durationTicks": 91,
                    "midi": 38,
                    "name": "D2",
                    "ticks": 39120,
                    "time": 38.809485,
                    "velocity": 0.5433070866141733
                },
                {
                    "duration": 0.09027768749999865,
                    "durationTicks": 91,
                    "midi": 38,
                    "name": "D2",
                    "ticks": 39240,
                    "time": 38.9285325,
                    "velocity": 0.5433070866141733
                },
                {
                    "duration": 0.09027768749999865,
                    "durationTicks": 91,
                    "midi": 35,
                    "name": "B1",
                    "ticks": 39360,
                    "time": 39.04758,
                    "velocity": 0.6692913385826772
                },
                {
                    "duration": 0.09027768750000575,
                    "durationTicks": 91,
                    "midi": 38,
                    "name": "D2",
                    "ticks": 39480,
                    "time": 39.1666275,
                    "velocity": 0.5433070866141733
                },
                {
                    "duration": 0.09027768749999865,
                    "durationTicks": 91,
                    "midi": 38,
                    "name": "D2",
                    "ticks": 39600,
                    "time": 39.285675,
                    "velocity": 0.5433070866141733
                },
                {
                    "duration": 0.09027768749999865,
                    "durationTicks": 91,
                    "midi": 35,
                    "name": "B1",
                    "ticks": 39840,
                    "time": 39.52377,
                    "velocity": 0.6692913385826772
                },
                {
                    "duration": 0.09027768749999865,
                    "durationTicks": 91,
                    "midi": 38,
                    "name": "D2",
                    "ticks": 39840,
                    "time": 39.52377,
                    "velocity": 0.5433070866141733
                },
                {
                    "duration": 0.09027768749999865,
                    "durationTicks": 91,
                    "midi": 39,
                    "name": "D#2",
                    "ticks": 39840,
                    "time": 39.52377,
                    "velocity": 0.5905511811023622
                },
                {
                    "duration": 0.09027768749999865,
                    "durationTicks": 91,
                    "midi": 38,
                    "name": "D2",
                    "ticks": 40080,
                    "time": 39.761865,
                    "velocity": 0.5433070866141733
                },
                {
                    "duration": 0.09027768749999865,
                    "durationTicks": 91,
                    "midi": 35,
                    "name": "B1",
                    "ticks": 40320,
                    "time": 39.99996,
                    "velocity": 0.6692913385826772
                },
                {
                    "duration": 0.09027768749999865,
                    "durationTicks": 91,
                    "midi": 38,
                    "name": "D2",
                    "ticks": 40440,
                    "time": 40.1190075,
                    "velocity": 0.5433070866141733
                },
                {
                    "duration": 0.09027768749999865,
                    "durationTicks": 91,
                    "midi": 38,
                    "name": "D2",
                    "ticks": 40560,
                    "time": 40.238055,
                    "velocity": 0.5433070866141733
                },
                {
                    "duration": 0.09027768749999865,
                    "durationTicks": 91,
                    "midi": 38,
                    "name": "D2",
                    "ticks": 40680,
                    "time": 40.3571025,
                    "velocity": 0.5433070866141733
                },
                {
                    "duration": 0.09027768750000575,
                    "durationTicks": 91,
                    "midi": 35,
                    "name": "B1",
                    "ticks": 40800,
                    "time": 40.47615,
                    "velocity": 0.6692913385826772
                },
                {
                    "duration": 0.09027768750000575,
                    "durationTicks": 91,
                    "midi": 39,
                    "name": "D#2",
                    "ticks": 40800,
                    "time": 40.47615,
                    "velocity": 0.5905511811023622
                },
                {
                    "duration": 0.09027768749999865,
                    "durationTicks": 91,
                    "midi": 38,
                    "name": "D2",
                    "ticks": 41040,
                    "time": 40.714245,
                    "velocity": 0.5433070866141733
                },
                {
                    "duration": 0.09027768749999865,
                    "durationTicks": 91,
                    "midi": 38,
                    "name": "D2",
                    "ticks": 41160,
                    "time": 40.8332925,
                    "velocity": 0.5433070866141733
                },
                {
                    "duration": 0.09027768749999865,
                    "durationTicks": 91,
                    "midi": 35,
                    "name": "B1",
                    "ticks": 41280,
                    "time": 40.95234,
                    "velocity": 0.6692913385826772
                },
                {
                    "duration": 0.09027768749999865,
                    "durationTicks": 91,
                    "midi": 38,
                    "name": "D2",
                    "ticks": 41400,
                    "time": 41.0713875,
                    "velocity": 0.5433070866141733
                },
                {
                    "duration": 0.09027768749999865,
                    "durationTicks": 91,
                    "midi": 38,
                    "name": "D2",
                    "ticks": 41520,
                    "time": 41.190435,
                    "velocity": 0.5433070866141733
                },
                {
                    "duration": 0.09027768749999865,
                    "durationTicks": 91,
                    "midi": 35,
                    "name": "B1",
                    "ticks": 41760,
                    "time": 41.42853,
                    "velocity": 0.6692913385826772
                },
                {
                    "duration": 0.09027768749999865,
                    "durationTicks": 91,
                    "midi": 38,
                    "name": "D2",
                    "ticks": 41760,
                    "time": 41.42853,
                    "velocity": 0.5433070866141733
                },
                {
                    "duration": 0.09027768749999865,
                    "durationTicks": 91,
                    "midi": 39,
                    "name": "D#2",
                    "ticks": 41760,
                    "time": 41.42853,
                    "velocity": 0.5905511811023622
                },
                {
                    "duration": 0.09027768749999865,
                    "durationTicks": 91,
                    "midi": 38,
                    "name": "D2",
                    "ticks": 42000,
                    "time": 41.666625,
                    "velocity": 0.5433070866141733
                },
                {
                    "duration": 0.09027768749999865,
                    "durationTicks": 91,
                    "midi": 35,
                    "name": "B1",
                    "ticks": 42240,
                    "time": 41.90472,
                    "velocity": 0.6692913385826772
                },
                {
                    "duration": 0.09027768749999865,
                    "durationTicks": 91,
                    "midi": 38,
                    "name": "D2",
                    "ticks": 42360,
                    "time": 42.0237675,
                    "velocity": 0.5433070866141733
                },
                {
                    "duration": 0.09027768749999865,
                    "durationTicks": 91,
                    "midi": 38,
                    "name": "D2",
                    "ticks": 42480,
                    "time": 42.142815,
                    "velocity": 0.5433070866141733
                },
                {
                    "duration": 0.09027768749999865,
                    "durationTicks": 91,
                    "midi": 38,
                    "name": "D2",
                    "ticks": 42600,
                    "time": 42.2618625,
                    "velocity": 0.5433070866141733
                },
                {
                    "duration": 0.09027768749999865,
                    "durationTicks": 91,
                    "midi": 35,
                    "name": "B1",
                    "ticks": 42720,
                    "time": 42.38091,
                    "velocity": 0.6692913385826772
                },
                {
                    "duration": 0.09027768749999865,
                    "durationTicks": 91,
                    "midi": 39,
                    "name": "D#2",
                    "ticks": 42720,
                    "time": 42.38091,
                    "velocity": 0.5905511811023622
                },
                {
                    "duration": 0.09027768749999865,
                    "durationTicks": 91,
                    "midi": 38,
                    "name": "D2",
                    "ticks": 42960,
                    "time": 42.619005,
                    "velocity": 0.5433070866141733
                },
                {
                    "duration": 0.09027768749999865,
                    "durationTicks": 91,
                    "midi": 38,
                    "name": "D2",
                    "ticks": 43080,
                    "time": 42.7380525,
                    "velocity": 0.5433070866141733
                },
                {
                    "duration": 0.09027768749999865,
                    "durationTicks": 91,
                    "midi": 35,
                    "name": "B1",
                    "ticks": 43200,
                    "time": 42.8571,
                    "velocity": 0.6692913385826772
                },
                {
                    "duration": 0.09027768749999865,
                    "durationTicks": 91,
                    "midi": 38,
                    "name": "D2",
                    "ticks": 43320,
                    "time": 42.9761475,
                    "velocity": 0.5433070866141733
                },
                {
                    "duration": 0.09027768750000575,
                    "durationTicks": 91,
                    "midi": 38,
                    "name": "D2",
                    "ticks": 43440,
                    "time": 43.095195,
                    "velocity": 0.5433070866141733
                },
                {
                    "duration": 0.09027768749999865,
                    "durationTicks": 91,
                    "midi": 35,
                    "name": "B1",
                    "ticks": 43680,
                    "time": 43.33329,
                    "velocity": 0.6692913385826772
                },
                {
                    "duration": 0.09027768749999865,
                    "durationTicks": 91,
                    "midi": 38,
                    "name": "D2",
                    "ticks": 43680,
                    "time": 43.33329,
                    "velocity": 0.5433070866141733
                },
                {
                    "duration": 0.09027768749999865,
                    "durationTicks": 91,
                    "midi": 39,
                    "name": "D#2",
                    "ticks": 43680,
                    "time": 43.33329,
                    "velocity": 0.5905511811023622
                },
                {
                    "duration": 0.09027768749999865,
                    "durationTicks": 91,
                    "midi": 38,
                    "name": "D2",
                    "ticks": 43920,
                    "time": 43.571385,
                    "velocity": 0.5433070866141733
                },
                {
                    "duration": 0.09027768749999865,
                    "durationTicks": 91,
                    "midi": 35,
                    "name": "B1",
                    "ticks": 44160,
                    "time": 43.80948,
                    "velocity": 0.6692913385826772
                },
                {
                    "duration": 0.09027768749999865,
                    "durationTicks": 91,
                    "midi": 38,
                    "name": "D2",
                    "ticks": 44280,
                    "time": 43.9285275,
                    "velocity": 0.5433070866141733
                },
                {
                    "duration": 0.09027768749999865,
                    "durationTicks": 91,
                    "midi": 38,
                    "name": "D2",
                    "ticks": 44400,
                    "time": 44.047575,
                    "velocity": 0.5433070866141733
                },
                {
                    "duration": 0.09027768749999865,
                    "durationTicks": 91,
                    "midi": 38,
                    "name": "D2",
                    "ticks": 44520,
                    "time": 44.1666225,
                    "velocity": 0.5433070866141733
                },
                {
                    "duration": 0.09027768749999865,
                    "durationTicks": 91,
                    "midi": 35,
                    "name": "B1",
                    "ticks": 44640,
                    "time": 44.28567,
                    "velocity": 0.6692913385826772
                },
                {
                    "duration": 0.09027768749999865,
                    "durationTicks": 91,
                    "midi": 39,
                    "name": "D#2",
                    "ticks": 44640,
                    "time": 44.28567,
                    "velocity": 0.5905511811023622
                },
                {
                    "duration": 0.09027768749999865,
                    "durationTicks": 91,
                    "midi": 38,
                    "name": "D2",
                    "ticks": 44880,
                    "time": 44.523765,
                    "velocity": 0.5433070866141733
                },
                {
                    "duration": 0.09027768749999865,
                    "durationTicks": 91,
                    "midi": 38,
                    "name": "D2",
                    "ticks": 45000,
                    "time": 44.6428125,
                    "velocity": 0.5433070866141733
                },
                {
                    "duration": 0.09027768749999865,
                    "durationTicks": 91,
                    "midi": 35,
                    "name": "B1",
                    "ticks": 45120,
                    "time": 44.76186,
                    "velocity": 0.6692913385826772
                },
                {
                    "duration": 0.09027768749999865,
                    "durationTicks": 91,
                    "midi": 38,
                    "name": "D2",
                    "ticks": 45240,
                    "time": 44.8809075,
                    "velocity": 0.5433070866141733
                },
                {
                    "duration": 0.09027768749999865,
                    "durationTicks": 91,
                    "midi": 38,
                    "name": "D2",
                    "ticks": 45360,
                    "time": 44.999955,
                    "velocity": 0.5433070866141733
                },
                {
                    "duration": 0.09027768749999865,
                    "durationTicks": 91,
                    "midi": 35,
                    "name": "B1",
                    "ticks": 45600,
                    "time": 45.23805,
                    "velocity": 0.6692913385826772
                },
                {
                    "duration": 0.09027768749999865,
                    "durationTicks": 91,
                    "midi": 38,
                    "name": "D2",
                    "ticks": 45600,
                    "time": 45.23805,
                    "velocity": 0.5433070866141733
                },
                {
                    "duration": 0.09027768749999865,
                    "durationTicks": 91,
                    "midi": 39,
                    "name": "D#2",
                    "ticks": 45600,
                    "time": 45.23805,
                    "velocity": 0.5905511811023622
                },
                {
                    "duration": 0.09027768749999865,
                    "durationTicks": 91,
                    "midi": 38,
                    "name": "D2",
                    "ticks": 45840,
                    "time": 45.476145,
                    "velocity": 0.5433070866141733
                }
            ]
        }
    ]
}