<svg xmlns="http://www.w3.org/2000/svg" width="24" height="28" viewBox="0 0 24 28">
  <path fill="#FFF" d="M472.283765,989.472518 L472.283765,989.527738 C472.286975,989.934502 471.95983,990.266784 471.553066,990.269994 C471.551139,990.269994 471.549213,990.269994 471.547287,990.269994 C471.143412,990.269994 470.814019,989.943812 470.81113,989.539295 L470.81113,989.486965 C470.81113,989.0802 471.140843,988.743424 471.547608,988.743424 C471.954051,988.743103 472.283765,989.066074 472.283765,989.472518 Z M482.786444,985.14001 C482.929951,985.283839 483.118726,985.355753 483.307179,985.355753 C483.495633,985.355753 483.684087,985.283839 483.827915,985.14001 C484.115572,984.852354 484.115572,984.386196 483.827915,984.098539 L483.778153,984.049419 C483.486644,983.765294 483.020486,983.771073 482.736682,984.062582 C482.452878,984.354091 482.458656,984.820249 482.749845,985.104053 L482.786444,985.14001 Z M478.474162,995.637552 L478.413163,995.637552 C478.006399,995.637552 477.68728,995.966945 477.68728,996.37403 C477.68728,996.780795 478.027909,997.110508 478.434352,997.110508 L478.474162,997.110508 C478.880927,997.110508 479.21064,996.780795 479.21064,996.37403 C479.21064,995.966945 478.880927,995.637552 478.474162,995.637552 Z M482.806991,993.81273 L482.766539,993.853503 C482.478882,994.14116 482.478882,994.607639 482.766539,994.894974 C482.910367,995.038803 483.098821,995.110717 483.287275,995.110717 C483.475728,995.110717 483.664182,995.038803 483.80801,994.894974 L483.853278,994.849707 C484.13965,994.561087 484.137724,994.094608 483.848783,993.808236 C483.559842,993.521863 483.093363,993.523789 482.806991,993.81273 Z M473.5291,985.38882 C473.720764,985.38882 473.912107,985.314659 474.056578,985.166657 L474.090608,985.132305 C474.379549,984.845933 474.381476,984.379454 474.095103,984.090834 C473.80841,983.801893 473.342252,983.799967 473.053632,984.086339 L473.001943,984.138349 C472.718139,984.429537 472.723918,984.896016 473.015106,985.17982 C473.157972,985.319475 473.343536,985.38882 473.5291,985.38882 Z M474.074877,993.825893 C473.788184,993.536952 473.322026,993.535026 473.033406,993.821399 C472.744786,994.107771 472.742539,994.57425 473.028911,994.86287 L473.078673,994.912311 C473.222181,995.053571 473.408708,995.12388 473.594914,995.12388 C473.785294,995.12388 473.975995,995.05036 474.120145,994.903643 C474.405233,994.613739 474.40138,994.14726 474.111476,993.862171 L474.074877,993.825893 Z M485.32206,990.251374 C485.728825,990.251374 486.058538,989.92166 486.058538,989.514896 L486.058538,989.421471 C486.05597,989.014707 485.720799,988.682746 485.317566,988.689488 C484.910801,988.692056 484.583014,989.023696 484.585582,989.430461 L484.585582,989.514896 C484.585582,989.921981 484.915296,990.251374 485.32206,990.251374 Z M475.712851,976.941153 L481.156175,976.941153 C481.529551,976.941153 481.831976,976.638728 481.831976,976.265353 L481.831976,973.675801 C481.831976,973.302425 481.529551,973 481.156175,973 L475.712851,973 C475.339475,973 475.03705,973.302425 475.03705,973.675801 L475.03705,976.265032 C475.03705,976.638407 475.339796,976.941153 475.712851,976.941153 Z M490.517859,979.804236 L488.092361,977.378738 C487.926059,977.212437 487.656381,977.212437 487.49008,977.378738 L486.336243,978.532896 C486.169941,978.699198 486.169941,978.968555 486.336243,979.135177 L488.762061,981.560675 C488.928363,981.727298 489.198041,981.727298 489.364343,981.560675 L490.51818,980.406838 C490.68416,980.240216 490.68416,979.970537 490.517859,979.804236 Z M487.538236,982.578068 C488.999635,984.498562 489.869347,986.892597 489.869347,989.486965 C489.869347,995.791975 484.739684,1000.92164 478.434674,1000.92164 C472.129663,1000.92164 467,995.791975 467,989.486965 C467,984.037219 470.833282,979.468743 475.944324,978.328711 L475.944324,977.390296 L480.925023,977.390296 L480.925023,978.32839 C482.543733,978.689566 484.034989,979.392656 485.31596,980.36125 L486.117611,979.559278 L488.337318,981.778986 L487.538236,982.578068 Z M486.923435,989.486644 C486.923435,984.805802 483.115515,980.997883 478.434674,980.997883 C473.753832,980.997883 469.945912,984.805802 469.945912,989.486644 C469.945912,994.167485 473.753832,997.975726 478.434352,997.975726 C483.115194,997.975726 486.923435,994.167485 486.923435,989.486644 Z M479.268749,982.985475 C479.268428,982.525096 478.895053,982.15172 478.434674,982.15172 C477.973973,982.15172 477.600919,982.525096 477.600598,982.985475 L476.944381,988.996086 C476.911313,989.121294 476.892371,989.252281 476.892371,989.387762 C476.892371,990.239816 477.582619,990.930064 478.434674,990.930064 C479.286728,990.930064 479.976976,990.239816 479.976976,989.387762 C479.976976,989.252281 479.957713,989.121294 479.924966,988.996086 L479.268749,982.985475 Z" transform="translate(-467 -973)"/>
</svg>
