<svg xmlns="http://www.w3.org/2000/svg" xmlns:xlink="http://www.w3.org/1999/xlink" width="70" height="49" viewBox="0 0 70 49">
  <defs>
    <path id="gaucheon-b" d="M0.71022259,24.9023122 C0.706813093,24.8939882 0.703405563,24.8856616 0.7,24.8773327 L0.70634249,24.7851377 C0.702120529,24.6404235 0.7,24.4953735 0.7,24.35 C0.7,23.5150594 0.769949562,22.6907883 0.906230373,21.8795496 L0.985777955,20.7232389 L1.15333684,20.699 C3.82279248,10.0643896 17.9603705,1.95 35,1.95 C53.9433669,1.95 69.3,11.9788216 69.3,24.35 C69.3,36.7211784 53.9433669,46.75 35,46.75 C16.3393544,46.75 1.15918075,37.018296 0.71022259,24.9023122 Z"/>
    <filter id="gaucheon-a" width="102.9%" height="108.9%" x="-1.5%" y="-2.2%" filterUnits="objectBoundingBox">
      <feOffset dy="2" in="SourceAlpha" result="shadowOffsetOuter1"/>
      <feColorMatrix in="shadowOffsetOuter1" values="0 0 0 0 0   0 0 0 0 0   0 0 0 0 0  0 0 0 0.0823709239 0"/>
    </filter>
  </defs>
  <g fill="none" fill-rule="evenodd">
    <use fill="#000" filter="url(#gaucheon-a)" xlink:href="#gaucheon-b"/>
    <use fill="#189DAD" xlink:href="#gaucheon-b"/>
    <ellipse cx="35" cy="22.4" fill="#2BD5E9" rx="34.3" ry="22.4"/>
    <ellipse cx="35" cy="22.4" stroke="#8DF3FF" stroke-width="2" rx="33.3" ry="21.4"/>
    <path stroke="#FFF" stroke-dasharray="2 5" stroke-linecap="round" stroke-linejoin="round" stroke-width="2" d="M35,40 C50.9058008,40 63.8,32.1202116 63.8,22.4 C63.8,12.6797884 50.9058008,4.8 35,4.8 C19.0941992,4.8 6.2,12.6797884 6.2,22.4 C6.2,32.1202116 19.0941992,40 35,40 Z"/>
    <path fill="#2BD5E9" stroke="#FFF" stroke-width="2" d="M37.1399264,8.25318819 C38.2444959,8.25318819 39.1399264,9.14861869 39.1399264,10.2531882 L39.1399264,17.9051108 L42.9423844,17.9051108 C43.2108254,17.9051108 43.4765193,17.9591508 43.7236327,18.0640103 C44.7404444,18.4954818 45.2149564,19.6695474 44.7834849,20.6863591 L37.9006109,36.9066349 C37.6980546,37.3839819 37.3180181,37.7639981 36.8406602,37.9665289 C35.8238254,38.397946 34.6497852,37.9233712 34.2183681,36.9065364 L27.336518,20.6862606 C27.2316858,20.4391748 27.1776603,20.1735157 27.1776603,19.9051108 C27.1776603,18.8005413 28.0730908,17.9051108 29.1776603,17.9051108 L32.9814676,17.9051108 L32.9814676,10.2531882 C32.9814676,9.14861869 33.8768981,8.25318819 34.9814676,8.25318819 L37.1399264,8.25318819 Z" transform="rotate(90 36.06 22.41)"/>
  </g>
</svg>
