<svg xmlns="http://www.w3.org/2000/svg" xmlns:xlink="http://www.w3.org/1999/xlink" width="70" height="63" viewBox="0 0 70 63">
  <defs>
    <path id="gaucheoff-b" d="M0.71022259,35.9023122 C0.706813093,35.8939882 0.703405563,35.8856616 0.7,35.8773327 L0.7,22.4 L7.0095878,22.4 C13.2243023,16.6815104 23.4448776,12.95 35,12.95 C46.5551224,12.95 56.7756977,16.6815104 62.9904122,22.4 L69.3000004,22.4 L69.3,29.4960285 C69.2999999,30.6190336 69.2274779,31.7326464 69.0855248,32.8309585 C69.2272284,33.6578675 69.3,34.4983838 69.3,35.35 C69.3,47.7211784 53.9433669,57.75 35,57.75 C16.3393544,57.75 1.15918075,48.018296 0.71022259,35.9023122 Z"/>
    <filter id="gaucheoff-a" width="107.3%" height="122.3%" x="-3.6%" y="-5.6%" filterUnits="objectBoundingBox">
      <feOffset dy="5" in="SourceAlpha" result="shadowOffsetOuter1"/>
      <feColorMatrix in="shadowOffsetOuter1" values="0 0 0 0 0   0 0 0 0 0   0 0 0 0 0  0 0 0 0.0823709239 0"/>
    </filter>
  </defs>
  <g fill="none" fill-rule="evenodd">
    <use fill="#000" filter="url(#gaucheoff-a)" xlink:href="#gaucheoff-b"/>
    <use fill="#189DAD" xlink:href="#gaucheoff-b"/>
    <ellipse cx="35" cy="22.4" fill="#2BD5E9" rx="34.3" ry="22.4"/>
    <ellipse cx="35" cy="22.4" stroke="#8DF3FF" stroke-width="2" rx="33.3" ry="21.4"/>
    <path stroke="#FFF" stroke-dasharray="2 5" stroke-linecap="round" stroke-linejoin="round" stroke-width="2" d="M35,40 C50.9058008,40 63.8,32.1202116 63.8,22.4 C63.8,12.6797884 50.9058008,4.8 35,4.8 C19.0941992,4.8 6.2,12.6797884 6.2,22.4 C6.2,32.1202116 19.0941992,40 35,40 Z"/>
    <path fill="#2BD5E9" stroke="#FFF" stroke-width="2" d="M37.1399264,8.25318819 C38.2444959,8.25318819 39.1399264,9.14861869 39.1399264,10.2531882 L39.1399264,17.9051108 L42.9423844,17.9051108 C43.2108254,17.9051108 43.4765193,17.9591508 43.7236327,18.0640103 C44.7404444,18.4954818 45.2149564,19.6695474 44.7834849,20.6863591 L37.9006109,36.9066349 C37.6980546,37.3839819 37.3180181,37.7639981 36.8406602,37.9665289 C35.8238254,38.397946 34.6497852,37.9233712 34.2183681,36.9065364 L27.336518,20.6862606 C27.2316858,20.4391748 27.1776603,20.1735157 27.1776603,19.9051108 C27.1776603,18.8005413 28.0730908,17.9051108 29.1776603,17.9051108 L32.9814676,17.9051108 L32.9814676,10.2531882 C32.9814676,9.14861869 33.8768981,8.25318819 34.9814676,8.25318819 L37.1399264,8.25318819 Z" transform="rotate(90 36.06 22.41)"/>
  </g>
</svg>
