{
  "header": {
    "keySignatures": [],
    "meta": [
      {
        "text": "creator: ",
        "ticks": 0,
        "type": "text"
      },
      {
        "text": "GNU LilyPond 2.18.2           ",
        "ticks": 0,
        "type": "text"
      }
    ],
    "name": "control track",
    "ppq": 384,
    "tempos": [
      {
        "bpm": 200,
        "ticks": 0
      }
    ],
    "timeSignatures": [
      {
        "ticks": 0,
        "timeSignature": [6, 4],
        "measures": 0
      }
    ]
  },
  "tracks": [
    {
      "channel": 0,
      "controlChanges": {
        "7": [
          {
            "number": 7,
            "ticks": 0,
            "time": 0,
            "value": 0.7874015748031497
          }
        ]
      },
      "pitchBends": [],
      "instrument": {
        "family": "guitar",
        "name": "acoustic guitar (nylon)",
        "number": 24
      },
      "name": "",
      "notes": [
        {
          "duration": 0.3,
          "durationTicks": 384,
          "midi": 64,
          "name": "E4",
          "ticks": 0,
          "time": 0,
          "velocity": 0.8346456692913385
        },
        {
          "duration": 0.3,
          "durationTicks": 384,
          "midi": 57,
          "name": "A3",
          "ticks": 384,
          "time": 0.3,
          "velocity": 0.8346456692913385
        },
        {
          "duration": 0.15000000000000002,
          "durationTicks": 192,
          "midi": 60,
          "name": "C4",
          "ticks": 768,
          "time": 0.6,
          "velocity": 0.8346456692913385
        },
        {
          "duration": 0.1499999999999999,
          "durationTicks": 192,
          "midi": 62,
          "name": "D4",
          "ticks": 960,
          "time": 0.75,
          "velocity": 0.8346456692913385
        },
        {
          "duration": 0.30000000000000004,
          "durationTicks": 384,
          "midi": 64,
          "name": "E4",
          "ticks": 1152,
          "time": 0.8999999999999999,
          "velocity": 0.8346456692913385
        },
        {
          "duration": 0.30000000000000004,
          "durationTicks": 384,
          "midi": 57,
          "name": "A3",
          "ticks": 1536,
          "time": 1.2,
          "velocity": 0.8346456692913385
        },
        {
          "duration": 0.1499999999999999,
          "durationTicks": 192,
          "midi": 60,
          "name": "C4",
          "ticks": 1920,
          "time": 1.5,
          "velocity": 0.8346456692913385
        },
        {
          "duration": 0.1499999999999999,
          "durationTicks": 192,
          "midi": 62,
          "name": "D4",
          "ticks": 2112,
          "time": 1.65,
          "velocity": 0.8346456692913385
        },
        {
          "duration": 0.30000000000000027,
          "durationTicks": 384,
          "midi": 64,
          "name": "E4",
          "ticks": 2304,
          "time": 1.7999999999999998,
          "velocity": 0.8346456692913385
        },
        {
          "duration": 0.2999999999999998,
          "durationTicks": 384,
          "midi": 57,
          "name": "A3",
          "ticks": 2688,
          "time": 2.1,
          "velocity": 0.8346456692913385
        },
        {
          "duration": 0.1499999999999999,
          "durationTicks": 192,
          "midi": 60,
          "name": "C4",
          "ticks": 3072,
          "time": 2.4,
          "velocity": 0.8346456692913385
        },
        {
          "duration": 0.1499999999999999,
          "durationTicks": 192,
          "midi": 62,
          "name": "D4",
          "ticks": 3264,
          "time": 2.55,
          "velocity": 0.8346456692913385
        },
        {
          "duration": 0.30000000000000027,
          "durationTicks": 384,
          "midi": 64,
          "name": "E4",
          "ticks": 3456,
          "time": 2.6999999999999997,
          "velocity": 0.8346456692913385
        },
        {
          "duration": 0.2999999999999998,
          "durationTicks": 384,
          "midi": 57,
          "name": "A3",
          "ticks": 3840,
          "time": 3,
          "velocity": 0.8346456692913385
        },
        {
          "duration": 0.1499999999999999,
          "durationTicks": 192,
          "midi": 60,
          "name": "C4",
          "ticks": 4224,
          "time": 3.3,
          "velocity": 0.8346456692913385
        },
        {
          "duration": 0.1499999999999999,
          "durationTicks": 192,
          "midi": 62,
          "name": "D4",
          "ticks": 4416,
          "time": 3.4499999999999997,
          "velocity": 0.8346456692913385
        },
        {
          "duration": 0.30000000000000027,
          "durationTicks": 384,
          "midi": 64,
          "name": "E4",
          "ticks": 4608,
          "time": 3.5999999999999996,
          "velocity": 0.8346456692913385
        },
        {
          "duration": 0.30000000000000027,
          "durationTicks": 384,
          "midi": 57,
          "name": "A3",
          "ticks": 4992,
          "time": 3.9,
          "velocity": 0.8346456692913385
        },
        {
          "duration": 0.14999999999999947,
          "durationTicks": 192,
          "midi": 61,
          "name": "C#4",
          "ticks": 5376,
          "time": 4.2,
          "velocity": 0.8346456692913385
        },
        {
          "duration": 0.15000000000000036,
          "durationTicks": 192,
          "midi": 62,
          "name": "D4",
          "ticks": 5568,
          "time": 4.35,
          "velocity": 0.8346456692913385
        },
        {
          "duration": 0.2999999999999998,
          "durationTicks": 384,
          "midi": 64,
          "name": "E4",
          "ticks": 5760,
          "time": 4.5,
          "velocity": 0.8346456692913385
        },
        {
          "duration": 0.2999999999999998,
          "durationTicks": 384,
          "midi": 57,
          "name": "A3",
          "ticks": 6144,
          "time": 4.8,
          "velocity": 0.8346456692913385
        },
        {
          "duration": 0.15000000000000036,
          "durationTicks": 192,
          "midi": 61,
          "name": "C#4",
          "ticks": 6528,
          "time": 5.1,
          "velocity": 0.8346456692913385
        },
        {
          "duration": 0.14999999999999947,
          "durationTicks": 192,
          "midi": 62,
          "name": "D4",
          "ticks": 6720,
          "time": 5.25,
          "velocity": 0.8346456692913385
        },
        {
          "duration": 0.3000000000000007,
          "durationTicks": 384,
          "midi": 64,
          "name": "E4",
          "ticks": 6912,
          "time": 5.3999999999999995,
          "velocity": 0.8346456692913385
        },
        {
          "duration": 0.2999999999999998,
          "durationTicks": 384,
          "midi": 57,
          "name": "A3",
          "ticks": 7296,
          "time": 5.7,
          "velocity": 0.8346456692913385
        },
        {
          "duration": 0.14999999999999947,
          "durationTicks": 192,
          "midi": 61,
          "name": "C#4",
          "ticks": 7680,
          "time": 6,
          "velocity": 0.8346456692913385
        },
        {
          "duration": 0.15000000000000036,
          "durationTicks": 192,
          "midi": 62,
          "name": "D4",
          "ticks": 7872,
          "time": 6.1499999999999995,
          "velocity": 0.8346456692913385
        },
        {
          "duration": 0.2999999999999998,
          "durationTicks": 384,
          "midi": 64,
          "name": "E4",
          "ticks": 8064,
          "time": 6.3,
          "velocity": 0.8346456692913385
        },
        {
          "duration": 0.2999999999999998,
          "durationTicks": 384,
          "midi": 57,
          "name": "A3",
          "ticks": 8448,
          "time": 6.6,
          "velocity": 0.8346456692913385
        },
        {
          "duration": 0.15000000000000036,
          "durationTicks": 192,
          "midi": 61,
          "name": "C#4",
          "ticks": 8832,
          "time": 6.8999999999999995,
          "velocity": 0.8346456692913385
        },
        {
          "duration": 0.14999999999999947,
          "durationTicks": 192,
          "midi": 62,
          "name": "D4",
          "ticks": 9024,
          "time": 7.05,
          "velocity": 0.8346456692913385
        },
        {
          "duration": 0.9000000000000004,
          "durationTicks": 1152,
          "midi": 64,
          "name": "E4",
          "ticks": 9216,
          "time": 7.199999999999999,
          "velocity": 0.8346456692913385
        },
        {
          "duration": 0.9000000000000004,
          "durationTicks": 1152,
          "midi": 57,
          "name": "A3",
          "ticks": 10368,
          "time": 8.1,
          "velocity": 0.8346456692913385
        },
        {
          "duration": 0.15000000000000036,
          "durationTicks": 192,
          "midi": 60,
          "name": "C4",
          "ticks": 11520,
          "time": 9,
          "velocity": 0.8346456692913385
        },
        {
          "duration": 0.14999999999999858,
          "durationTicks": 192,
          "midi": 62,
          "name": "D4",
          "ticks": 11712,
          "time": 9.15,
          "velocity": 0.8346456692913385
        },
        {
          "duration": 0.6000000000000014,
          "durationTicks": 768,
          "midi": 64,
          "name": "E4",
          "ticks": 11904,
          "time": 9.299999999999999,
          "velocity": 0.8346456692913385
        },
        {
          "duration": 0.5999999999999996,
          "durationTicks": 768,
          "midi": 57,
          "name": "A3",
          "ticks": 12672,
          "time": 9.9,
          "velocity": 0.8346456692913385
        },
        {
          "duration": 0.15000000000000036,
          "durationTicks": 192,
          "midi": 60,
          "name": "C4",
          "ticks": 13440,
          "time": 10.5,
          "velocity": 0.8346456692913385
        },
        {
          "duration": 0.14999999999999858,
          "durationTicks": 192,
          "midi": 62,
          "name": "D4",
          "ticks": 13632,
          "time": 10.65,
          "velocity": 0.8346456692913385
        },
        {
          "duration": 0.3000000000000007,
          "durationTicks": 384,
          "midi": 59,
          "name": "B3",
          "ticks": 13824,
          "time": 10.799999999999999,
          "velocity": 0.8346456692913385
        },
        {
          "duration": 0.3000000000000007,
          "durationTicks": 384,
          "midi": 52,
          "name": "E3",
          "ticks": 14208,
          "time": 11.1,
          "velocity": 0.8346456692913385
        },
        {
          "duration": 0.14999999999999858,
          "durationTicks": 192,
          "midi": 55,
          "name": "G3",
          "ticks": 14592,
          "time": 11.4,
          "velocity": 0.8346456692913385
        },
        {
          "duration": 0.15000000000000036,
          "durationTicks": 192,
          "midi": 57,
          "name": "A3",
          "ticks": 14784,
          "time": 11.549999999999999,
          "velocity": 0.8346456692913385
        },
        {
          "duration": 0.3000000000000007,
          "durationTicks": 384,
          "midi": 59,
          "name": "B3",
          "ticks": 14976,
          "time": 11.7,
          "velocity": 0.8346456692913385
        },
        {
          "duration": 0.29999999999999893,
          "durationTicks": 384,
          "midi": 52,
          "name": "E3",
          "ticks": 15360,
          "time": 12,
          "velocity": 0.8346456692913385
        },
        {
          "duration": 0.15000000000000036,
          "durationTicks": 192,
          "midi": 55,
          "name": "G3",
          "ticks": 15744,
          "time": 12.299999999999999,
          "velocity": 0.8346456692913385
        },
        {
          "duration": 0.15000000000000036,
          "durationTicks": 192,
          "midi": 57,
          "name": "A3",
          "ticks": 15936,
          "time": 12.45,
          "velocity": 0.8346456692913385
        },
        {
          "duration": 0.3000000000000007,
          "durationTicks": 384,
          "midi": 59,
          "name": "B3",
          "ticks": 16128,
          "time": 12.6,
          "velocity": 0.8346456692913385
        },
        {
          "duration": 0.29999999999999893,
          "durationTicks": 384,
          "midi": 52,
          "name": "E3",
          "ticks": 16512,
          "time": 12.9,
          "velocity": 0.8346456692913385
        },
        {
          "duration": 0.15000000000000036,
          "durationTicks": 192,
          "midi": 55,
          "name": "G3",
          "ticks": 16896,
          "time": 13.2,
          "velocity": 0.8346456692913385
        },
        {
          "duration": 0.15000000000000036,
          "durationTicks": 192,
          "midi": 57,
          "name": "A3",
          "ticks": 17088,
          "time": 13.35,
          "velocity": 0.8346456692913385
        },
        {
          "duration": 0.29999999999999893,
          "durationTicks": 384,
          "midi": 59,
          "name": "B3",
          "ticks": 17280,
          "time": 13.5,
          "velocity": 0.8346456692913385
        },
        {
          "duration": 0.3000000000000007,
          "durationTicks": 384,
          "midi": 52,
          "name": "E3",
          "ticks": 17664,
          "time": 13.799999999999999,
          "velocity": 0.8346456692913385
        },
        {
          "duration": 0.15000000000000036,
          "durationTicks": 192,
          "midi": 55,
          "name": "G3",
          "ticks": 18048,
          "time": 14.1,
          "velocity": 0.8346456692913385
        },
        {
          "duration": 0.14999999999999858,
          "durationTicks": 192,
          "midi": 57,
          "name": "A3",
          "ticks": 18240,
          "time": 14.25,
          "velocity": 0.8346456692913385
        },
        {
          "duration": 0.9000000000000004,
          "durationTicks": 1152,
          "midi": 62,
          "name": "D4",
          "ticks": 18432,
          "time": 14.399999999999999,
          "velocity": 0.8346456692913385
        },
        {
          "duration": 0.9000000000000004,
          "durationTicks": 1152,
          "midi": 55,
          "name": "G3",
          "ticks": 19584,
          "time": 15.299999999999999,
          "velocity": 0.8346456692913385
        },
        {
          "duration": 0.14999999999999858,
          "durationTicks": 192,
          "midi": 60,
          "name": "C4",
          "ticks": 20736,
          "time": 16.2,
          "velocity": 0.8346456692913385
        },
        {
          "duration": 0.15000000000000213,
          "durationTicks": 192,
          "midi": 59,
          "name": "B3",
          "ticks": 20928,
          "time": 16.349999999999998,
          "velocity": 0.8346456692913385
        },
        {
          "duration": 0.5999999999999979,
          "durationTicks": 768,
          "midi": 62,
          "name": "D4",
          "ticks": 21120,
          "time": 16.5,
          "velocity": 0.8346456692913385
        },
        {
          "duration": 0.6000000000000014,
          "durationTicks": 768,
          "midi": 55,
          "name": "G3",
          "ticks": 21888,
          "time": 17.099999999999998,
          "velocity": 0.8346456692913385
        },
        {
          "duration": 0.14999999999999858,
          "durationTicks": 192,
          "midi": 60,
          "name": "C4",
          "ticks": 22656,
          "time": 17.7,
          "velocity": 0.8346456692913385
        },
        {
          "duration": 0.15000000000000213,
          "durationTicks": 192,
          "midi": 59,
          "name": "B3",
          "ticks": 22848,
          "time": 17.849999999999998,
          "velocity": 0.8346456692913385
        },
        {
          "duration": 0.3000000000000007,
          "durationTicks": 384,
          "midi": 57,
          "name": "A3",
          "ticks": 23040,
          "time": 18,
          "velocity": 0.8346456692913385
        },
        {
          "duration": 0.29999999999999716,
          "durationTicks": 384,
          "midi": 50,
          "name": "D3",
          "ticks": 23424,
          "time": 18.3,
          "velocity": 0.8346456692913385
        },
        {
          "duration": 0.15000000000000213,
          "durationTicks": 192,
          "midi": 53,
          "name": "F3",
          "ticks": 23808,
          "time": 18.599999999999998,
          "velocity": 0.8346456692913385
        },
        {
          "duration": 0.14999999999999858,
          "durationTicks": 192,
          "midi": 55,
          "name": "G3",
          "ticks": 24000,
          "time": 18.75,
          "velocity": 0.8346456692913385
        },
        {
          "duration": 0.3000000000000007,
          "durationTicks": 384,
          "midi": 57,
          "name": "A3",
          "ticks": 24192,
          "time": 18.9,
          "velocity": 0.8346456692913385
        },
        {
          "duration": 0.3000000000000007,
          "durationTicks": 384,
          "midi": 50,
          "name": "D3",
          "ticks": 24576,
          "time": 19.2,
          "velocity": 0.8346456692913385
        },
        {
          "duration": 0.14999999999999858,
          "durationTicks": 192,
          "midi": 53,
          "name": "F3",
          "ticks": 24960,
          "time": 19.5,
          "velocity": 0.8346456692913385
        },
        {
          "duration": 0.15000000000000213,
          "durationTicks": 192,
          "midi": 55,
          "name": "G3",
          "ticks": 25152,
          "time": 19.65,
          "velocity": 0.8346456692913385
        },
        {
          "duration": 0.29999999999999716,
          "durationTicks": 384,
          "midi": 57,
          "name": "A3",
          "ticks": 25344,
          "time": 19.8,
          "velocity": 0.8346456692913385
        },
        {
          "duration": 0.3000000000000007,
          "durationTicks": 384,
          "midi": 50,
          "name": "D3",
          "ticks": 25728,
          "time": 20.099999999999998,
          "velocity": 0.8346456692913385
        },
        {
          "duration": 0.15000000000000213,
          "durationTicks": 192,
          "midi": 53,
          "name": "F3",
          "ticks": 26112,
          "time": 20.4,
          "velocity": 0.8346456692913385
        },
        {
          "duration": 0.14999999999999858,
          "durationTicks": 192,
          "midi": 55,
          "name": "G3",
          "ticks": 26304,
          "time": 20.55,
          "velocity": 0.8346456692913385
        },
        {
          "duration": 0.3000000000000007,
          "durationTicks": 384,
          "midi": 57,
          "name": "A3",
          "ticks": 26496,
          "time": 20.7,
          "velocity": 0.8346456692913385
        },
        {
          "duration": 0.3000000000000007,
          "durationTicks": 384,
          "midi": 50,
          "name": "D3",
          "ticks": 26880,
          "time": 21,
          "velocity": 0.8346456692913385
        },
        {
          "duration": 0.14999999999999858,
          "durationTicks": 192,
          "midi": 53,
          "name": "F3",
          "ticks": 27264,
          "time": 21.3,
          "velocity": 0.8346456692913385
        },
        {
          "duration": 0.14999999999999858,
          "durationTicks": 192,
          "midi": 55,
          "name": "G3",
          "ticks": 27456,
          "time": 21.45,
          "velocity": 0.8346456692913385
        },
        {
          "duration": 0.9000000000000021,
          "durationTicks": 1152,
          "midi": 64,
          "name": "E4",
          "ticks": 27648,
          "time": 21.599999999999998,
          "velocity": 0.8346456692913385
        },
        {
          "duration": 0.8999999999999986,
          "durationTicks": 1152,
          "midi": 57,
          "name": "A3",
          "ticks": 28800,
          "time": 22.5,
          "velocity": 0.8346456692913385
        },
        {
          "duration": 0.15000000000000213,
          "durationTicks": 192,
          "midi": 60,
          "name": "C4",
          "ticks": 29952,
          "time": 23.4,
          "velocity": 0.8346456692913385
        },
        {
          "duration": 0.14999999999999858,
          "durationTicks": 192,
          "midi": 62,
          "name": "D4",
          "ticks": 30144,
          "time": 23.55,
          "velocity": 0.8346456692913385
        },
        {
          "duration": 0.6000000000000014,
          "durationTicks": 768,
          "midi": 64,
          "name": "E4",
          "ticks": 30336,
          "time": 23.7,
          "velocity": 0.8346456692913385
        },
        {
          "duration": 0.5999999999999979,
          "durationTicks": 768,
          "midi": 57,
          "name": "A3",
          "ticks": 31104,
          "time": 24.3,
          "velocity": 0.8346456692913385
        },
        {
          "duration": 0.15000000000000213,
          "durationTicks": 192,
          "midi": 60,
          "name": "C4",
          "ticks": 31872,
          "time": 24.9,
          "velocity": 0.8346456692913385
        },
        {
          "duration": 0.14999999999999858,
          "durationTicks": 192,
          "midi": 62,
          "name": "D4",
          "ticks": 32064,
          "time": 25.05,
          "velocity": 0.8346456692913385
        },
        {
          "duration": 0.3000000000000007,
          "durationTicks": 384,
          "midi": 59,
          "name": "B3",
          "ticks": 32256,
          "time": 25.2,
          "velocity": 0.8346456692913385
        },
        {
          "duration": 0.3000000000000007,
          "durationTicks": 384,
          "midi": 52,
          "name": "E3",
          "ticks": 32640,
          "time": 25.5,
          "velocity": 0.8346456692913385
        },
        {
          "duration": 0.14999999999999858,
          "durationTicks": 192,
          "midi": 55,
          "name": "G3",
          "ticks": 33024,
          "time": 25.8,
          "velocity": 0.8346456692913385
        },
        {
          "duration": 0.14999999999999858,
          "durationTicks": 192,
          "midi": 57,
          "name": "A3",
          "ticks": 33216,
          "time": 25.95,
          "velocity": 0.8346456692913385
        },
        {
          "duration": 0.3000000000000007,
          "durationTicks": 384,
          "midi": 59,
          "name": "B3",
          "ticks": 33408,
          "time": 26.099999999999998,
          "velocity": 0.8346456692913385
        },
        {
          "duration": 0.3000000000000007,
          "durationTicks": 384,
          "midi": 52,
          "name": "E3",
          "ticks": 33792,
          "time": 26.4,
          "velocity": 0.8346456692913385
        },
        {
          "duration": 0.14999999999999858,
          "durationTicks": 192,
          "midi": 55,
          "name": "G3",
          "ticks": 34176,
          "time": 26.7,
          "velocity": 0.8346456692913385
        },
        {
          "duration": 0.15000000000000213,
          "durationTicks": 192,
          "midi": 57,
          "name": "A3",
          "ticks": 34368,
          "time": 26.849999999999998,
          "velocity": 0.8346456692913385
        },
        {
          "duration": 0.3000000000000007,
          "durationTicks": 384,
          "midi": 59,
          "name": "B3",
          "ticks": 34560,
          "time": 27,
          "velocity": 0.8346456692913385
        },
        {
          "duration": 0.29999999999999716,
          "durationTicks": 384,
          "midi": 52,
          "name": "E3",
          "ticks": 34944,
          "time": 27.3,
          "velocity": 0.8346456692913385
        },
        {
          "duration": 0.15000000000000213,
          "durationTicks": 192,
          "midi": 55,
          "name": "G3",
          "ticks": 35328,
          "time": 27.599999999999998,
          "velocity": 0.8346456692913385
        },
        {
          "duration": 0.14999999999999858,
          "durationTicks": 192,
          "midi": 57,
          "name": "A3",
          "ticks": 35520,
          "time": 27.75,
          "velocity": 0.8346456692913385
        },
        {
          "duration": 0.3000000000000007,
          "durationTicks": 384,
          "midi": 59,
          "name": "B3",
          "ticks": 35712,
          "time": 27.9,
          "velocity": 0.8346456692913385
        },
        {
          "duration": 0.3000000000000007,
          "durationTicks": 384,
          "midi": 52,
          "name": "E3",
          "ticks": 36096,
          "time": 28.2,
          "velocity": 0.8346456692913385
        },
        {
          "duration": 0.14999999999999858,
          "durationTicks": 192,
          "midi": 55,
          "name": "G3",
          "ticks": 36480,
          "time": 28.5,
          "velocity": 0.8346456692913385
        },
        {
          "duration": 0.14999999999999858,
          "durationTicks": 192,
          "midi": 57,
          "name": "A3",
          "ticks": 36672,
          "time": 28.65,
          "velocity": 0.8346456692913385
        },
        {
          "duration": 0.9000000000000021,
          "durationTicks": 1152,
          "midi": 62,
          "name": "D4",
          "ticks": 36864,
          "time": 28.799999999999997,
          "velocity": 0.8346456692913385
        },
        {
          "duration": 0.8999999999999986,
          "durationTicks": 1152,
          "midi": 55,
          "name": "G3",
          "ticks": 38016,
          "time": 29.7,
          "velocity": 0.8346456692913385
        },
        {
          "duration": 0.15000000000000213,
          "durationTicks": 192,
          "midi": 60,
          "name": "C4",
          "ticks": 39168,
          "time": 30.599999999999998,
          "velocity": 0.8346456692913385
        },
        {
          "duration": 0.14999999999999858,
          "durationTicks": 192,
          "midi": 59,
          "name": "B3",
          "ticks": 39360,
          "time": 30.75,
          "velocity": 0.8346456692913385
        },
        {
          "duration": 0.6000000000000014,
          "durationTicks": 768,
          "midi": 62,
          "name": "D4",
          "ticks": 39552,
          "time": 30.9,
          "velocity": 0.8346456692913385
        },
        {
          "duration": 0.6000000000000014,
          "durationTicks": 768,
          "midi": 55,
          "name": "G3",
          "ticks": 40320,
          "time": 31.5,
          "velocity": 0.8346456692913385
        },
        {
          "duration": 0.14999999999999858,
          "durationTicks": 192,
          "midi": 60,
          "name": "C4",
          "ticks": 41088,
          "time": 32.1,
          "velocity": 0.8346456692913385
        },
        {
          "duration": 0.14999999999999858,
          "durationTicks": 192,
          "midi": 59,
          "name": "B3",
          "ticks": 41280,
          "time": 32.25,
          "velocity": 0.8346456692913385
        },
        {
          "duration": 0.29999999999999716,
          "durationTicks": 384,
          "midi": 57,
          "name": "A3",
          "ticks": 41472,
          "time": 32.4,
          "velocity": 0.8346456692913385
        },
        {
          "duration": 0.30000000000000426,
          "durationTicks": 384,
          "midi": 52,
          "name": "E3",
          "ticks": 41856,
          "time": 32.699999999999996,
          "velocity": 0.8346456692913385
        },
        {
          "duration": 0.14999999999999858,
          "durationTicks": 192,
          "midi": 53,
          "name": "F3",
          "ticks": 42240,
          "time": 33,
          "velocity": 0.8346456692913385
        },
        {
          "duration": 0.14999999999999858,
          "durationTicks": 192,
          "midi": 55,
          "name": "G3",
          "ticks": 42432,
          "time": 33.15,
          "velocity": 0.8346456692913385
        },
        {
          "duration": 0.30000000000000426,
          "durationTicks": 384,
          "midi": 57,
          "name": "A3",
          "ticks": 42624,
          "time": 33.3,
          "velocity": 0.8346456692913385
        },
        {
          "duration": 0.29999999999999716,
          "durationTicks": 384,
          "midi": 52,
          "name": "E3",
          "ticks": 43008,
          "time": 33.6,
          "velocity": 0.8346456692913385
        },
        {
          "duration": 0.14999999999999858,
          "durationTicks": 192,
          "midi": 53,
          "name": "F3",
          "ticks": 43392,
          "time": 33.9,
          "velocity": 0.8346456692913385
        },
        {
          "duration": 0.14999999999999858,
          "durationTicks": 192,
          "midi": 55,
          "name": "G3",
          "ticks": 43584,
          "time": 34.05,
          "velocity": 0.8346456692913385
        },
        {
          "duration": 0.30000000000000426,
          "durationTicks": 384,
          "midi": 57,
          "name": "A3",
          "ticks": 43776,
          "time": 34.199999999999996,
          "velocity": 0.8346456692913385
        },
        {
          "duration": 0.29999999999999716,
          "durationTicks": 384,
          "midi": 52,
          "name": "E3",
          "ticks": 44160,
          "time": 34.5,
          "velocity": 0.8346456692913385
        },
        {
          "duration": 0.14999999999999858,
          "durationTicks": 192,
          "midi": 53,
          "name": "F3",
          "ticks": 44544,
          "time": 34.8,
          "velocity": 0.8346456692913385
        },
        {
          "duration": 0.15000000000000568,
          "durationTicks": 192,
          "midi": 55,
          "name": "G3",
          "ticks": 44736,
          "time": 34.949999999999996,
          "velocity": 0.8346456692913385
        },
        {
          "duration": 0.29999999999999716,
          "durationTicks": 384,
          "midi": 57,
          "name": "A3",
          "ticks": 44928,
          "time": 35.1,
          "velocity": 0.8346456692913385
        },
        {
          "duration": 0.29999999999999716,
          "durationTicks": 384,
          "midi": 52,
          "name": "E3",
          "ticks": 45312,
          "time": 35.4,
          "velocity": 0.8346456692913385
        },
        {
          "duration": 0.15000000000000568,
          "durationTicks": 192,
          "midi": 53,
          "name": "F3",
          "ticks": 45696,
          "time": 35.699999999999996,
          "velocity": 0.8346456692913385
        },
        {
          "duration": 0.14999999999999858,
          "durationTicks": 192,
          "midi": 55,
          "name": "G3",
          "ticks": 45888,
          "time": 35.85,
          "velocity": 0.8346456692913385
        },
        {
          "duration": 0.8999999999999986,
          "durationTicks": 1152,
          "midi": 64,
          "name": "E4",
          "ticks": 46080,
          "time": 36,
          "velocity": 0.8346456692913385
        },
        {
          "duration": 0.8999999999999986,
          "durationTicks": 1152,
          "midi": 57,
          "name": "A3",
          "ticks": 47232,
          "time": 36.9,
          "velocity": 0.8346456692913385
        },
        {
          "duration": 0.14999999999999858,
          "durationTicks": 192,
          "midi": 60,
          "name": "C4",
          "ticks": 48384,
          "time": 37.8,
          "velocity": 0.8346456692913385
        },
        {
          "duration": 0.15000000000000568,
          "durationTicks": 192,
          "midi": 62,
          "name": "D4",
          "ticks": 48576,
          "time": 37.949999999999996,
          "velocity": 0.8346456692913385
        },
        {
          "duration": 0.5999999999999943,
          "durationTicks": 768,
          "midi": 64,
          "name": "E4",
          "ticks": 48768,
          "time": 38.1,
          "velocity": 0.8346456692913385
        },
        {
          "duration": 0.6000000000000014,
          "durationTicks": 768,
          "midi": 57,
          "name": "A3",
          "ticks": 49536,
          "time": 38.699999999999996,
          "velocity": 0.8346456692913385
        },
        {
          "duration": 0.14999999999999858,
          "durationTicks": 192,
          "midi": 60,
          "name": "C4",
          "ticks": 50304,
          "time": 39.3,
          "velocity": 0.8346456692913385
        },
        {
          "duration": 0.15000000000000568,
          "durationTicks": 192,
          "midi": 62,
          "name": "D4",
          "ticks": 50496,
          "time": 39.449999999999996,
          "velocity": 0.8346456692913385
        },
        {
          "duration": 0.5999999999999943,
          "durationTicks": 768,
          "midi": 59,
          "name": "B3",
          "ticks": 50688,
          "time": 39.6,
          "velocity": 0.8346456692913385
        },
        {
          "duration": 0.15000000000000568,
          "durationTicks": 192,
          "midi": 55,
          "name": "G3",
          "ticks": 51456,
          "time": 40.199999999999996,
          "velocity": 0.8346456692913385
        },
        {
          "duration": 0.14999999999999858,
          "durationTicks": 192,
          "midi": 57,
          "name": "A3",
          "ticks": 51648,
          "time": 40.35,
          "velocity": 0.8346456692913385
        },
        {
          "duration": 0.6000000000000014,
          "durationTicks": 768,
          "midi": 59,
          "name": "B3",
          "ticks": 51840,
          "time": 40.5,
          "velocity": 0.8346456692913385
        },
        {
          "duration": 0.14999999999999858,
          "durationTicks": 192,
          "midi": 55,
          "name": "G3",
          "ticks": 52608,
          "time": 41.1,
          "velocity": 0.8346456692913385
        },
        {
          "duration": 0.14999999999999858,
          "durationTicks": 192,
          "midi": 57,
          "name": "A3",
          "ticks": 52800,
          "time": 41.25,
          "velocity": 0.8346456692913385
        },
        {
          "duration": 0.6000000000000014,
          "durationTicks": 768,
          "midi": 59,
          "name": "B3",
          "ticks": 52992,
          "time": 41.4,
          "velocity": 0.8346456692913385
        },
        {
          "duration": 0.14999999999999858,
          "durationTicks": 192,
          "midi": 55,
          "name": "G3",
          "ticks": 53760,
          "time": 42,
          "velocity": 0.8346456692913385
        },
        {
          "duration": 0.14999999999999858,
          "durationTicks": 192,
          "midi": 57,
          "name": "A3",
          "ticks": 53952,
          "time": 42.15,
          "velocity": 0.8346456692913385
        },
        {
          "duration": 0.6000000000000014,
          "durationTicks": 768,
          "midi": 59,
          "name": "B3",
          "ticks": 54144,
          "time": 42.3,
          "velocity": 0.8346456692913385
        },
        {
          "duration": 0.14999999999999858,
          "durationTicks": 192,
          "midi": 55,
          "name": "G3",
          "ticks": 54912,
          "time": 42.9,
          "velocity": 0.8346456692913385
        },
        {
          "duration": 0.14999999999999858,
          "durationTicks": 192,
          "midi": 57,
          "name": "A3",
          "ticks": 55104,
          "time": 43.05,
          "velocity": 0.8346456692913385
        },
        {
          "duration": 0.9000000000000057,
          "durationTicks": 1152,
          "midi": 62,
          "name": "D4",
          "ticks": 55296,
          "time": 43.199999999999996,
          "velocity": 0.8346456692913385
        },
        {
          "duration": 0.8999999999999986,
          "durationTicks": 1152,
          "midi": 55,
          "name": "G3",
          "ticks": 56448,
          "time": 44.1,
          "velocity": 0.8346456692913385
        },
        {
          "duration": 0.44999999999999574,
          "durationTicks": 576,
          "midi": 59,
          "name": "B3",
          "ticks": 57600,
          "time": 45,
          "velocity": 0.8346456692913385
        },
        {
          "duration": 0.45000000000000284,
          "durationTicks": 576,
          "midi": 60,
          "name": "C4",
          "ticks": 58176,
          "time": 45.449999999999996,
          "velocity": 0.8346456692913385
        },
        {
          "duration": 0.45000000000000284,
          "durationTicks": 576,
          "midi": 59,
          "name": "B3",
          "ticks": 58752,
          "time": 45.9,
          "velocity": 0.8346456692913385
        },
        {
          "duration": 0.44999999999999574,
          "durationTicks": 576,
          "midi": 55,
          "name": "G3",
          "ticks": 59328,
          "time": 46.35,
          "velocity": 0.8346456692913385
        },
        {
          "duration": 0.30000000000000426,
          "durationTicks": 384,
          "midi": 57,
          "name": "A3",
          "ticks": 59904,
          "time": 46.8,
          "velocity": 0.8346456692913385
        },
        {
          "duration": 0.29999999999999716,
          "durationTicks": 384,
          "midi": 52,
          "name": "E3",
          "ticks": 60288,
          "time": 47.1,
          "velocity": 0.8346456692913385
        },
        {
          "duration": 0.14999999999999858,
          "durationTicks": 192,
          "midi": 53,
          "name": "F3",
          "ticks": 60672,
          "time": 47.4,
          "velocity": 0.8346456692913385
        },
        {
          "duration": 0.14999999999999858,
          "durationTicks": 192,
          "midi": 55,
          "name": "G3",
          "ticks": 60864,
          "time": 47.55,
          "velocity": 0.8346456692913385
        },
        {
          "duration": 0.30000000000000426,
          "durationTicks": 384,
          "midi": 57,
          "name": "A3",
          "ticks": 61056,
          "time": 47.699999999999996,
          "velocity": 0.8346456692913385
        },
        {
          "duration": 0.29999999999999716,
          "durationTicks": 384,
          "midi": 52,
          "name": "E3",
          "ticks": 61440,
          "time": 48,
          "velocity": 0.8346456692913385
        },
        {
          "duration": 0.14999999999999858,
          "durationTicks": 192,
          "midi": 53,
          "name": "F3",
          "ticks": 61824,
          "time": 48.3,
          "velocity": 0.8346456692913385
        },
        {
          "duration": 0.15000000000000568,
          "durationTicks": 192,
          "midi": 55,
          "name": "G3",
          "ticks": 62016,
          "time": 48.449999999999996,
          "velocity": 0.8346456692913385
        },
        {
          "duration": 0.29999999999999716,
          "durationTicks": 384,
          "midi": 57,
          "name": "A3",
          "ticks": 62208,
          "time": 48.6,
          "velocity": 0.8346456692913385
        },
        {
          "duration": 0.29999999999999716,
          "durationTicks": 384,
          "midi": 52,
          "name": "E3",
          "ticks": 62592,
          "time": 48.9,
          "velocity": 0.8346456692913385
        },
        {
          "duration": 0.15000000000000568,
          "durationTicks": 192,
          "midi": 53,
          "name": "F3",
          "ticks": 62976,
          "time": 49.199999999999996,
          "velocity": 0.8346456692913385
        },
        {
          "duration": 0.14999999999999858,
          "durationTicks": 192,
          "midi": 55,
          "name": "G3",
          "ticks": 63168,
          "time": 49.35,
          "velocity": 0.8346456692913385
        },
        {
          "duration": 0.29999999999999716,
          "durationTicks": 384,
          "midi": 57,
          "name": "A3",
          "ticks": 63360,
          "time": 49.5,
          "velocity": 0.8346456692913385
        },
        {
          "duration": 0.30000000000000426,
          "durationTicks": 384,
          "midi": 52,
          "name": "E3",
          "ticks": 63744,
          "time": 49.8,
          "velocity": 0.8346456692913385
        },
        {
          "duration": 0.14999999999999858,
          "durationTicks": 192,
          "midi": 53,
          "name": "F3",
          "ticks": 64128,
          "time": 50.1,
          "velocity": 0.8346456692913385
        },
        {
          "duration": 0.14999999999999858,
          "durationTicks": 192,
          "midi": 55,
          "name": "G3",
          "ticks": 64320,
          "time": 50.25,
          "velocity": 0.8346456692913385
        },
        {
          "duration": 0.29999999999999716,
          "durationTicks": 384,
          "midi": 57,
          "name": "A3",
          "ticks": 64512,
          "time": 50.4,
          "velocity": 0.8346456692913385
        },
        {
          "duration": 0.30000000000000426,
          "durationTicks": 384,
          "midi": 48,
          "name": "C3",
          "ticks": 64896,
          "time": 50.699999999999996,
          "velocity": 0.8346456692913385
        },
        {
          "duration": 0.14999999999999858,
          "durationTicks": 192,
          "midi": 53,
          "name": "F3",
          "ticks": 65280,
          "time": 51,
          "velocity": 0.8346456692913385
        },
        {
          "duration": 0.14999999999999858,
          "durationTicks": 192,
          "midi": 55,
          "name": "G3",
          "ticks": 65472,
          "time": 51.15,
          "velocity": 0.8346456692913385
        },
        {
          "duration": 0.30000000000000426,
          "durationTicks": 384,
          "midi": 57,
          "name": "A3",
          "ticks": 65664,
          "time": 51.3,
          "velocity": 0.8346456692913385
        },
        {
          "duration": 0.29999999999999716,
          "durationTicks": 384,
          "midi": 48,
          "name": "C3",
          "ticks": 66048,
          "time": 51.6,
          "velocity": 0.8346456692913385
        },
        {
          "duration": 0.14999999999999858,
          "durationTicks": 192,
          "midi": 53,
          "name": "F3",
          "ticks": 66432,
          "time": 51.9,
          "velocity": 0.8346456692913385
        },
        {
          "duration": 0.14999999999999858,
          "durationTicks": 192,
          "midi": 57,
          "name": "A3",
          "ticks": 66624,
          "time": 52.05,
          "velocity": 0.8346456692913385
        },
        {
          "duration": 0.30000000000000426,
          "durationTicks": 384,
          "midi": 55,
          "name": "G3",
          "ticks": 66816,
          "time": 52.199999999999996,
          "velocity": 0.8346456692913385
        },
        {
          "duration": 0.29999999999999716,
          "durationTicks": 384,
          "midi": 48,
          "name": "C3",
          "ticks": 67200,
          "time": 52.5,
          "velocity": 0.8346456692913385
        },
        {
          "duration": 0.14999999999999858,
          "durationTicks": 192,
          "midi": 52,
          "name": "E3",
          "ticks": 67584,
          "time": 52.8,
          "velocity": 0.8346456692913385
        },
        {
          "duration": 0.15000000000000568,
          "durationTicks": 192,
          "midi": 53,
          "name": "F3",
          "ticks": 67776,
          "time": 52.949999999999996,
          "velocity": 0.8346456692913385
        },
        {
          "duration": 0.29999999999999716,
          "durationTicks": 384,
          "midi": 55,
          "name": "G3",
          "ticks": 67968,
          "time": 53.1,
          "velocity": 0.8346456692913385
        },
        {
          "duration": 0.29999999999999716,
          "durationTicks": 384,
          "midi": 48,
          "name": "C3",
          "ticks": 68352,
          "time": 53.4,
          "velocity": 0.8346456692913385
        },
        {
          "duration": 0.15000000000000568,
          "durationTicks": 192,
          "midi": 52,
          "name": "E3",
          "ticks": 68736,
          "time": 53.699999999999996,
          "velocity": 0.8346456692913385
        },
        {
          "duration": 0.14999999999999858,
          "durationTicks": 192,
          "midi": 55,
          "name": "G3",
          "ticks": 68928,
          "time": 53.85,
          "velocity": 0.8346456692913385
        },
        {
          "duration": 0.29999999999999716,
          "durationTicks": 384,
          "midi": 53,
          "name": "F3",
          "ticks": 69120,
          "time": 54,
          "velocity": 0.8346456692913385
        },
        {
          "duration": 0.30000000000000426,
          "durationTicks": 384,
          "midi": 45,
          "name": "A2",
          "ticks": 69504,
          "time": 54.3,
          "velocity": 0.8346456692913385
        },
        {
          "duration": 0.14999999999999858,
          "durationTicks": 192,
          "midi": 50,
          "name": "D3",
          "ticks": 69888,
          "time": 54.6,
          "velocity": 0.8346456692913385
        },
        {
          "duration": 0.14999999999999858,
          "durationTicks": 192,
          "midi": 52,
          "name": "E3",
          "ticks": 70080,
          "time": 54.75,
          "velocity": 0.8346456692913385
        },
        {
          "duration": 0.29999999999999716,
          "durationTicks": 384,
          "midi": 53,
          "name": "F3",
          "ticks": 70272,
          "time": 54.9,
          "velocity": 0.8346456692913385
        },
        {
          "duration": 0.30000000000000426,
          "durationTicks": 384,
          "midi": 45,
          "name": "A2",
          "ticks": 70656,
          "time": 55.199999999999996,
          "velocity": 0.8346456692913385
        },
        {
          "duration": 0.14999999999999858,
          "durationTicks": 192,
          "midi": 50,
          "name": "D3",
          "ticks": 71040,
          "time": 55.5,
          "velocity": 0.8346456692913385
        },
        {
          "duration": 0.14999999999999858,
          "durationTicks": 192,
          "midi": 53,
          "name": "F3",
          "ticks": 71232,
          "time": 55.65,
          "velocity": 0.8346456692913385
        },
        {
          "duration": 0.30000000000000426,
          "durationTicks": 384,
          "midi": 52,
          "name": "E3",
          "ticks": 71424,
          "time": 55.8,
          "velocity": 0.8346456692913385
        },
        {
          "duration": 0.29999999999999716,
          "durationTicks": 384,
          "midi": 45,
          "name": "A2",
          "ticks": 71808,
          "time": 56.1,
          "velocity": 0.8346456692913385
        },
        {
          "duration": 0.14999999999999858,
          "durationTicks": 192,
          "midi": 48,
          "name": "C3",
          "ticks": 72192,
          "time": 56.4,
          "velocity": 0.8346456692913385
        },
        {
          "duration": 0.14999999999999858,
          "durationTicks": 192,
          "midi": 50,
          "name": "D3",
          "ticks": 72384,
          "time": 56.55,
          "velocity": 0.8346456692913385
        },
        {
          "duration": 0.30000000000000426,
          "durationTicks": 384,
          "midi": 52,
          "name": "E3",
          "ticks": 72576,
          "time": 56.699999999999996,
          "velocity": 0.8346456692913385
        },
        {
          "duration": 0.29999999999999716,
          "durationTicks": 384,
          "midi": 45,
          "name": "A2",
          "ticks": 72960,
          "time": 57,
          "velocity": 0.8346456692913385
        },
        {
          "duration": 0.14999999999999858,
          "durationTicks": 192,
          "midi": 48,
          "name": "C3",
          "ticks": 73344,
          "time": 57.3,
          "velocity": 0.8346456692913385
        },
        {
          "duration": 0.14999999999999858,
          "durationTicks": 192,
          "midi": 50,
          "name": "D3",
          "ticks": 73536,
          "time": 57.449999999999996,
          "velocity": 0.8346456692913385
        },
        {
          "duration": 0.30000000000000426,
          "durationTicks": 384,
          "midi": 48,
          "name": "C3",
          "ticks": 73728,
          "time": 57.599999999999994,
          "velocity": 0.8346456692913385
        },
        {
          "duration": 0.29999999999999716,
          "durationTicks": 384,
          "midi": 41,
          "name": "F2",
          "ticks": 74112,
          "time": 57.9,
          "velocity": 0.8346456692913385
        },
        {
          "duration": 0.14999999999999858,
          "durationTicks": 192,
          "midi": 45,
          "name": "A2",
          "ticks": 74496,
          "time": 58.199999999999996,
          "velocity": 0.8346456692913385
        },
        {
          "duration": 0.15000000000000568,
          "durationTicks": 192,
          "midi": 47,
          "name": "B2",
          "ticks": 74688,
          "time": 58.349999999999994,
          "velocity": 0.8346456692913385
        },
        {
          "duration": 0.29999999999999716,
          "durationTicks": 384,
          "midi": 48,
          "name": "C3",
          "ticks": 74880,
          "time": 58.5,
          "velocity": 0.8346456692913385
        },
        {
          "duration": 0.29999999999999716,
          "durationTicks": 384,
          "midi": 41,
          "name": "F2",
          "ticks": 75264,
          "time": 58.8,
          "velocity": 0.8346456692913385
        },
        {
          "duration": 0.15000000000000568,
          "durationTicks": 192,
          "midi": 45,
          "name": "A2",
          "ticks": 75648,
          "time": 59.099999999999994,
          "velocity": 0.8346456692913385
        },
        {
          "duration": 0.14999999999999858,
          "durationTicks": 192,
          "midi": 47,
          "name": "B2",
          "ticks": 75840,
          "time": 59.25,
          "velocity": 0.8346456692913385
        },
        {
          "duration": 0.29999999999999716,
          "durationTicks": 384,
          "midi": 48,
          "name": "C3",
          "ticks": 76032,
          "time": 59.4,
          "velocity": 0.8346456692913385
        },
        {
          "duration": 0.30000000000000426,
          "durationTicks": 384,
          "midi": 45,
          "name": "A2",
          "ticks": 76416,
          "time": 59.699999999999996,
          "velocity": 0.8346456692913385
        },
        {
          "duration": 0.29999999999999716,
          "durationTicks": 384,
          "midi": 48,
          "name": "C3",
          "ticks": 76800,
          "time": 60,
          "velocity": 0.8346456692913385
        },
        {
          "duration": 0.29999999999999716,
          "durationTicks": 384,
          "midi": 50,
          "name": "D3",
          "ticks": 77184,
          "time": 60.3,
          "velocity": 0.8346456692913385
        },
        {
          "duration": 0.30000000000000426,
          "durationTicks": 384,
          "midi": 47,
          "name": "B2",
          "ticks": 77568,
          "time": 60.599999999999994,
          "velocity": 0.8346456692913385
        },
        {
          "duration": 0.29999999999999716,
          "durationTicks": 384,
          "midi": 50,
          "name": "D3",
          "ticks": 77952,
          "time": 60.9,
          "velocity": 0.8346456692913385
        },
        {
          "duration": 0.30000000000000426,
          "durationTicks": 384,
          "midi": 45,
          "name": "A2",
          "ticks": 78336,
          "time": 61.199999999999996,
          "velocity": 0.8346456692913385
        },
        {
          "duration": 0.29999999999999716,
          "durationTicks": 384,
          "midi": 40,
          "name": "E2",
          "ticks": 78720,
          "time": 61.5,
          "velocity": 0.8346456692913385
        },
        {
          "duration": 0.14999999999999858,
          "durationTicks": 192,
          "midi": 41,
          "name": "F2",
          "ticks": 79104,
          "time": 61.8,
          "velocity": 0.8346456692913385
        },
        {
          "duration": 0.14999999999999858,
          "durationTicks": 192,
          "midi": 43,
          "name": "G2",
          "ticks": 79296,
          "time": 61.949999999999996,
          "velocity": 0.8346456692913385
        },
        {
          "duration": 0.30000000000000426,
          "durationTicks": 384,
          "midi": 45,
          "name": "A2",
          "ticks": 79488,
          "time": 62.099999999999994,
          "velocity": 0.8346456692913385
        },
        {
          "duration": 0.29999999999999716,
          "durationTicks": 384,
          "midi": 40,
          "name": "E2",
          "ticks": 79872,
          "time": 62.4,
          "velocity": 0.8346456692913385
        },
        {
          "duration": 0.14999999999999858,
          "durationTicks": 192,
          "midi": 41,
          "name": "F2",
          "ticks": 80256,
          "time": 62.699999999999996,
          "velocity": 0.8346456692913385
        },
        {
          "duration": 0.15000000000000568,
          "durationTicks": 192,
          "midi": 43,
          "name": "G2",
          "ticks": 80448,
          "time": 62.849999999999994,
          "velocity": 0.8346456692913385
        },
        {
          "duration": 0.29999999999999716,
          "durationTicks": 384,
          "midi": 45,
          "name": "A2",
          "ticks": 80640,
          "time": 63,
          "velocity": 0.8346456692913385
        },
        {
          "duration": 0.29999999999999716,
          "durationTicks": 384,
          "midi": 40,
          "name": "E2",
          "ticks": 81024,
          "time": 63.3,
          "velocity": 0.8346456692913385
        },
        {
          "duration": 0.15000000000000568,
          "durationTicks": 192,
          "midi": 41,
          "name": "F2",
          "ticks": 81408,
          "time": 63.599999999999994,
          "velocity": 0.8346456692913385
        },
        {
          "duration": 0.14999999999999858,
          "durationTicks": 192,
          "midi": 43,
          "name": "G2",
          "ticks": 81600,
          "time": 63.75,
          "velocity": 0.8346456692913385
        },
        {
          "duration": 0.30000000000000426,
          "durationTicks": 384,
          "midi": 45,
          "name": "A2",
          "ticks": 81792,
          "time": 63.9,
          "velocity": 0.8346456692913385
        },
        {
          "duration": 0.29999999999999716,
          "durationTicks": 384,
          "midi": 40,
          "name": "E2",
          "ticks": 82176,
          "time": 64.2,
          "velocity": 0.8346456692913385
        },
        {
          "duration": 0.14999999999999147,
          "durationTicks": 192,
          "midi": 41,
          "name": "F2",
          "ticks": 82560,
          "time": 64.5,
          "velocity": 0.8346456692913385
        },
        {
          "duration": 0.15000000000000568,
          "durationTicks": 192,
          "midi": 43,
          "name": "G2",
          "ticks": 82752,
          "time": 64.64999999999999,
          "velocity": 0.8346456692913385
        },
        {
          "duration": 0.29999999999999716,
          "durationTicks": 384,
          "midi": 57,
          "name": "A3",
          "ticks": 82944,
          "time": 64.8,
          "velocity": 0.8346456692913385
        },
        {
          "duration": 0.29999999999999716,
          "durationTicks": 384,
          "midi": 48,
          "name": "C3",
          "ticks": 83328,
          "time": 65.1,
          "velocity": 0.8346456692913385
        },
        {
          "duration": 0.15000000000000568,
          "durationTicks": 192,
          "midi": 53,
          "name": "F3",
          "ticks": 83712,
          "time": 65.39999999999999,
          "velocity": 0.8346456692913385
        },
        {
          "duration": 0.15000000000000568,
          "durationTicks": 192,
          "midi": 55,
          "name": "G3",
          "ticks": 83904,
          "time": 65.55,
          "velocity": 0.8346456692913385
        },
        {
          "duration": 0.29999999999999716,
          "durationTicks": 384,
          "midi": 57,
          "name": "A3",
          "ticks": 84096,
          "time": 65.7,
          "velocity": 0.8346456692913385
        },
        {
          "duration": 0.29999999999999716,
          "durationTicks": 384,
          "midi": 48,
          "name": "C3",
          "ticks": 84480,
          "time": 66,
          "velocity": 0.8346456692913385
        },
        {
          "duration": 0.15000000000000568,
          "durationTicks": 192,
          "midi": 53,
          "name": "F3",
          "ticks": 84864,
          "time": 66.3,
          "velocity": 0.8346456692913385
        },
        {
          "duration": 0.14999999999999147,
          "durationTicks": 192,
          "midi": 57,
          "name": "A3",
          "ticks": 85056,
          "time": 66.45,
          "velocity": 0.8346456692913385
        },
        {
          "duration": 0.29999999999999716,
          "durationTicks": 384,
          "midi": 55,
          "name": "G3",
          "ticks": 85248,
          "time": 66.6,
          "velocity": 0.8346456692913385
        },
        {
          "duration": 0.30000000000001137,
          "durationTicks": 384,
          "midi": 48,
          "name": "C3",
          "ticks": 85632,
          "time": 66.89999999999999,
          "velocity": 0.8346456692913385
        },
        {
          "duration": 0.14999999999999147,
          "durationTicks": 192,
          "midi": 52,
          "name": "E3",
          "ticks": 86016,
          "time": 67.2,
          "velocity": 0.8346456692913385
        },
        {
          "duration": 0.15000000000000568,
          "durationTicks": 192,
          "midi": 53,
          "name": "F3",
          "ticks": 86208,
          "time": 67.35,
          "velocity": 0.8346456692913385
        },
        {
          "duration": 0.29999999999999716,
          "durationTicks": 384,
          "midi": 55,
          "name": "G3",
          "ticks": 86400,
          "time": 67.5,
          "velocity": 0.8346456692913385
        },
        {
          "duration": 0.29999999999999716,
          "durationTicks": 384,
          "midi": 48,
          "name": "C3",
          "ticks": 86784,
          "time": 67.8,
          "velocity": 0.8346456692913385
        },
        {
          "duration": 0.15000000000000568,
          "durationTicks": 192,
          "midi": 52,
          "name": "E3",
          "ticks": 87168,
          "time": 68.1,
          "velocity": 0.8346456692913385
        },
        {
          "duration": 0.14999999999999147,
          "durationTicks": 192,
          "midi": 55,
          "name": "G3",
          "ticks": 87360,
          "time": 68.25,
          "velocity": 0.8346456692913385
        },
        {
          "duration": 0.30000000000001137,
          "durationTicks": 384,
          "midi": 53,
          "name": "F3",
          "ticks": 87552,
          "time": 68.39999999999999,
          "velocity": 0.8346456692913385
        },
        {
          "duration": 0.29999999999999716,
          "durationTicks": 384,
          "midi": 45,
          "name": "A2",
          "ticks": 87936,
          "time": 68.7,
          "velocity": 0.8346456692913385
        },
        {
          "duration": 0.14999999999999147,
          "durationTicks": 192,
          "midi": 50,
          "name": "D3",
          "ticks": 88320,
          "time": 69,
          "velocity": 0.8346456692913385
        },
        {
          "duration": 0.15000000000000568,
          "durationTicks": 192,
          "midi": 52,
          "name": "E3",
          "ticks": 88512,
          "time": 69.14999999999999,
          "velocity": 0.8346456692913385
        },
        {
          "duration": 0.29999999999999716,
          "durationTicks": 384,
          "midi": 53,
          "name": "F3",
          "ticks": 88704,
          "time": 69.3,
          "velocity": 0.8346456692913385
        },
        {
          "duration": 0.29999999999999716,
          "durationTicks": 384,
          "midi": 45,
          "name": "A2",
          "ticks": 89088,
          "time": 69.6,
          "velocity": 0.8346456692913385
        },
        {
          "duration": 0.15000000000000568,
          "durationTicks": 192,
          "midi": 50,
          "name": "D3",
          "ticks": 89472,
          "time": 69.89999999999999,
          "velocity": 0.8346456692913385
        },
        {
          "duration": 0.15000000000000568,
          "durationTicks": 192,
          "midi": 53,
          "name": "F3",
          "ticks": 89664,
          "time": 70.05,
          "velocity": 0.8346456692913385
        },
        {
          "duration": 0.29999999999999716,
          "durationTicks": 384,
          "midi": 52,
          "name": "E3",
          "ticks": 89856,
          "time": 70.2,
          "velocity": 0.8346456692913385
        },
        {
          "duration": 0.29999999999999716,
          "durationTicks": 384,
          "midi": 45,
          "name": "A2",
          "ticks": 90240,
          "time": 70.5,
          "velocity": 0.8346456692913385
        },
        {
          "duration": 0.15000000000000568,
          "durationTicks": 192,
          "midi": 48,
          "name": "C3",
          "ticks": 90624,
          "time": 70.8,
          "velocity": 0.8346456692913385
        },
        {
          "duration": 0.14999999999999147,
          "durationTicks": 192,
          "midi": 50,
          "name": "D3",
          "ticks": 90816,
          "time": 70.95,
          "velocity": 0.8346456692913385
        },
        {
          "duration": 0.29999999999999716,
          "durationTicks": 384,
          "midi": 52,
          "name": "E3",
          "ticks": 91008,
          "time": 71.1,
          "velocity": 0.8346456692913385
        },
        {
          "duration": 0.30000000000001137,
          "durationTicks": 384,
          "midi": 45,
          "name": "A2",
          "ticks": 91392,
          "time": 71.39999999999999,
          "velocity": 0.8346456692913385
        },
        {
          "duration": 0.14999999999999147,
          "durationTicks": 192,
          "midi": 48,
          "name": "C3",
          "ticks": 91776,
          "time": 71.7,
          "velocity": 0.8346456692913385
        },
        {
          "duration": 0.15000000000000568,
          "durationTicks": 192,
          "midi": 50,
          "name": "D3",
          "ticks": 91968,
          "time": 71.85,
          "velocity": 0.8346456692913385
        },
        {
          "duration": 0.29999999999999716,
          "durationTicks": 384,
          "midi": 48,
          "name": "C3",
          "ticks": 92160,
          "time": 72,
          "velocity": 0.8346456692913385
        },
        {
          "duration": 0.29999999999999716,
          "durationTicks": 384,
          "midi": 41,
          "name": "F2",
          "ticks": 92544,
          "time": 72.3,
          "velocity": 0.8346456692913385
        },
        {
          "duration": 0.15000000000000568,
          "durationTicks": 192,
          "midi": 45,
          "name": "A2",
          "ticks": 92928,
          "time": 72.6,
          "velocity": 0.8346456692913385
        },
        {
          "duration": 0.14999999999999147,
          "durationTicks": 192,
          "midi": 47,
          "name": "B2",
          "ticks": 93120,
          "time": 72.75,
          "velocity": 0.8346456692913385
        },
        {
          "duration": 0.30000000000001137,
          "durationTicks": 384,
          "midi": 48,
          "name": "C3",
          "ticks": 93312,
          "time": 72.89999999999999,
          "velocity": 0.8346456692913385
        },
        {
          "duration": 0.29999999999999716,
          "durationTicks": 384,
          "midi": 41,
          "name": "F2",
          "ticks": 93696,
          "time": 73.2,
          "velocity": 0.8346456692913385
        },
        {
          "duration": 0.14999999999999147,
          "durationTicks": 192,
          "midi": 45,
          "name": "A2",
          "ticks": 94080,
          "time": 73.5,
          "velocity": 0.8346456692913385
        },
        {
          "duration": 0.15000000000000568,
          "durationTicks": 192,
          "midi": 47,
          "name": "B2",
          "ticks": 94272,
          "time": 73.64999999999999,
          "velocity": 0.8346456692913385
        },
        {
          "duration": 0.29999999999999716,
          "durationTicks": 384,
          "midi": 48,
          "name": "C3",
          "ticks": 94464,
          "time": 73.8,
          "velocity": 0.8346456692913385
        },
        {
          "duration": 0.29999999999999716,
          "durationTicks": 384,
          "midi": 45,
          "name": "A2",
          "ticks": 94848,
          "time": 74.1,
          "velocity": 0.8346456692913385
        },
        {
          "duration": 0.30000000000001137,
          "durationTicks": 384,
          "midi": 48,
          "name": "C3",
          "ticks": 95232,
          "time": 74.39999999999999,
          "velocity": 0.8346456692913385
        },
        {
          "duration": 0.29999999999999716,
          "durationTicks": 384,
          "midi": 47,
          "name": "B2",
          "ticks": 95616,
          "time": 74.7,
          "velocity": 0.8346456692913385
        },
        {
          "duration": 0.29999999999999716,
          "durationTicks": 384,
          "midi": 43,
          "name": "G2",
          "ticks": 96000,
          "time": 75,
          "velocity": 0.8346456692913385
        },
        {
          "duration": 0.29999999999999716,
          "durationTicks": 384,
          "midi": 47,
          "name": "B2",
          "ticks": 96384,
          "time": 75.3,
          "velocity": 0.8346456692913385
        },
        {
          "duration": 0.29999999999999716,
          "durationTicks": 384,
          "midi": 45,
          "name": "A2",
          "ticks": 96768,
          "time": 75.6,
          "velocity": 0.8346456692913385
        },
        {
          "duration": 0.30000000000001137,
          "durationTicks": 384,
          "midi": 40,
          "name": "E2",
          "ticks": 97152,
          "time": 75.89999999999999,
          "velocity": 0.8346456692913385
        },
        {
          "duration": 0.14999999999999147,
          "durationTicks": 192,
          "midi": 41,
          "name": "F2",
          "ticks": 97536,
          "time": 76.2,
          "velocity": 0.8346456692913385
        },
        {
          "duration": 0.15000000000000568,
          "durationTicks": 192,
          "midi": 43,
          "name": "G2",
          "ticks": 97728,
          "time": 76.35,
          "velocity": 0.8346456692913385
        },
        {
          "duration": 0.29999999999999716,
          "durationTicks": 384,
          "midi": 45,
          "name": "A2",
          "ticks": 97920,
          "time": 76.5,
          "velocity": 0.8346456692913385
        },
        {
          "duration": 0.29999999999999716,
          "durationTicks": 384,
          "midi": 40,
          "name": "E2",
          "ticks": 98304,
          "time": 76.8,
          "velocity": 0.8346456692913385
        },
        {
          "duration": 0.15000000000000568,
          "durationTicks": 192,
          "midi": 41,
          "name": "F2",
          "ticks": 98688,
          "time": 77.1,
          "velocity": 0.8346456692913385
        },
        {
          "duration": 0.14999999999999147,
          "durationTicks": 192,
          "midi": 43,
          "name": "G2",
          "ticks": 98880,
          "time": 77.25,
          "velocity": 0.8346456692913385
        },
        {
          "duration": 0.30000000000001137,
          "durationTicks": 384,
          "midi": 57,
          "name": "A3",
          "ticks": 99072,
          "time": 77.39999999999999,
          "velocity": 0.8346456692913385
        },
        {
          "duration": 0.29999999999999716,
          "durationTicks": 384,
          "midi": 52,
          "name": "E3",
          "ticks": 99456,
          "time": 77.7,
          "velocity": 0.8346456692913385
        },
        {
          "duration": 0.14999999999999147,
          "durationTicks": 192,
          "midi": 53,
          "name": "F3",
          "ticks": 99840,
          "time": 78,
          "velocity": 0.8346456692913385
        },
        {
          "duration": 0.15000000000000568,
          "durationTicks": 192,
          "midi": 55,
          "name": "G3",
          "ticks": 100032,
          "time": 78.14999999999999,
          "velocity": 0.8346456692913385
        },
        {
          "duration": 0.29999999999999716,
          "durationTicks": 384,
          "midi": 57,
          "name": "A3",
          "ticks": 100224,
          "time": 78.3,
          "velocity": 0.8346456692913385
        },
        {
          "duration": 0.29999999999999716,
          "durationTicks": 384,
          "midi": 52,
          "name": "E3",
          "ticks": 100608,
          "time": 78.6,
          "velocity": 0.8346456692913385
        },
        {
          "duration": 0.15000000000000568,
          "durationTicks": 192,
          "midi": 53,
          "name": "F3",
          "ticks": 100992,
          "time": 78.89999999999999,
          "velocity": 0.8346456692913385
        },
        {
          "duration": 0.15000000000000568,
          "durationTicks": 192,
          "midi": 55,
          "name": "G3",
          "ticks": 101184,
          "time": 79.05,
          "velocity": 0.8346456692913385
        },
        {
          "duration": 0.29999999999999716,
          "durationTicks": 384,
          "midi": 57,
          "name": "A3",
          "ticks": 101376,
          "time": 79.2,
          "velocity": 0.8346456692913385
        },
        {
          "duration": 0.29999999999999716,
          "durationTicks": 384,
          "midi": 64,
          "name": "E4",
          "ticks": 101760,
          "time": 79.5,
          "velocity": 0.8346456692913385
        },
        {
          "duration": 0.15000000000000568,
          "durationTicks": 192,
          "midi": 65,
          "name": "F4",
          "ticks": 102144,
          "time": 79.8,
          "velocity": 0.8346456692913385
        },
        {
          "duration": 0.14999999999999147,
          "durationTicks": 192,
          "midi": 67,
          "name": "G4",
          "ticks": 102336,
          "time": 79.95,
          "velocity": 0.8346456692913385
        },
        {
          "duration": 0.29999999999999716,
          "durationTicks": 384,
          "midi": 69,
          "name": "A4",
          "ticks": 102528,
          "time": 80.1,
          "velocity": 0.8346456692913385
        },
        {
          "duration": 0.30000000000001137,
          "durationTicks": 384,
          "midi": 64,
          "name": "E4",
          "ticks": 102912,
          "time": 80.39999999999999,
          "velocity": 0.8346456692913385
        },
        {
          "duration": 0.14999999999999147,
          "durationTicks": 192,
          "midi": 65,
          "name": "F4",
          "ticks": 103296,
          "time": 80.7,
          "velocity": 0.8346456692913385
        },
        {
          "duration": 0.15000000000000568,
          "durationTicks": 192,
          "midi": 67,
          "name": "G4",
          "ticks": 103488,
          "time": 80.85,
          "velocity": 0.8346456692913385
        },
        {
          "duration": 0.29999999999999716,
          "durationTicks": 384,
          "midi": 69,
          "name": "A4",
          "ticks": 103680,
          "time": 81,
          "velocity": 0.8346456692913385
        },
        {
          "duration": 0.29999999999999716,
          "durationTicks": 384,
          "midi": 64,
          "name": "E4",
          "ticks": 104064,
          "time": 81.3,
          "velocity": 0.8346456692913385
        },
        {
          "duration": 0.15000000000000568,
          "durationTicks": 192,
          "midi": 65,
          "name": "F4",
          "ticks": 104448,
          "time": 81.6,
          "velocity": 0.8346456692913385
        },
        {
          "duration": 0.14999999999999147,
          "durationTicks": 192,
          "midi": 67,
          "name": "G4",
          "ticks": 104640,
          "time": 81.75,
          "velocity": 0.8346456692913385
        },
        {
          "duration": 0.9000000000000057,
          "durationTicks": 1152,
          "midi": 69,
          "name": "A4",
          "ticks": 104832,
          "time": 81.89999999999999,
          "velocity": 0.8346456692913385
        }
      ]
    },
    {
      "channel": 1,
      "controlChanges": {
        "7": [
          {
            "number": 7,
            "ticks": 0,
            "time": 0,
            "value": 0.7874015748031497
          }
        ]
      },
      "pitchBends": [],
      "instrument": {
        "family": "guitar",
        "name": "acoustic guitar (nylon)",
        "number": 24
      },
      "name": "",
      "notes": [
        {
          "duration": 0.3,
          "durationTicks": 384,
          "midi": 64,
          "name": "E4",
          "ticks": 0,
          "time": 0,
          "velocity": 0.8346456692913385
        },
        {
          "duration": 0.3,
          "durationTicks": 384,
          "midi": 57,
          "name": "A3",
          "ticks": 384,
          "time": 0.3,
          "velocity": 0.8346456692913385
        },
        {
          "duration": 0.15000000000000002,
          "durationTicks": 192,
          "midi": 60,
          "name": "C4",
          "ticks": 768,
          "time": 0.6,
          "velocity": 0.8346456692913385
        },
        {
          "duration": 0.1499999999999999,
          "durationTicks": 192,
          "midi": 62,
          "name": "D4",
          "ticks": 960,
          "time": 0.75,
          "velocity": 0.8346456692913385
        },
        {
          "duration": 0.30000000000000004,
          "durationTicks": 384,
          "midi": 64,
          "name": "E4",
          "ticks": 1152,
          "time": 0.8999999999999999,
          "velocity": 0.8346456692913385
        },
        {
          "duration": 0.30000000000000004,
          "durationTicks": 384,
          "midi": 57,
          "name": "A3",
          "ticks": 1536,
          "time": 1.2,
          "velocity": 0.8346456692913385
        },
        {
          "duration": 0.1499999999999999,
          "durationTicks": 192,
          "midi": 60,
          "name": "C4",
          "ticks": 1920,
          "time": 1.5,
          "velocity": 0.8346456692913385
        },
        {
          "duration": 0.1499999999999999,
          "durationTicks": 192,
          "midi": 62,
          "name": "D4",
          "ticks": 2112,
          "time": 1.65,
          "velocity": 0.8346456692913385
        },
        {
          "duration": 0.30000000000000027,
          "durationTicks": 384,
          "midi": 64,
          "name": "E4",
          "ticks": 2304,
          "time": 1.7999999999999998,
          "velocity": 0.8346456692913385
        },
        {
          "duration": 0.2999999999999998,
          "durationTicks": 384,
          "midi": 57,
          "name": "A3",
          "ticks": 2688,
          "time": 2.1,
          "velocity": 0.8346456692913385
        },
        {
          "duration": 0.1499999999999999,
          "durationTicks": 192,
          "midi": 60,
          "name": "C4",
          "ticks": 3072,
          "time": 2.4,
          "velocity": 0.8346456692913385
        },
        {
          "duration": 0.1499999999999999,
          "durationTicks": 192,
          "midi": 62,
          "name": "D4",
          "ticks": 3264,
          "time": 2.55,
          "velocity": 0.8346456692913385
        },
        {
          "duration": 0.30000000000000027,
          "durationTicks": 384,
          "midi": 64,
          "name": "E4",
          "ticks": 3456,
          "time": 2.6999999999999997,
          "velocity": 0.8346456692913385
        },
        {
          "duration": 0.2999999999999998,
          "durationTicks": 384,
          "midi": 57,
          "name": "A3",
          "ticks": 3840,
          "time": 3,
          "velocity": 0.8346456692913385
        },
        {
          "duration": 0.1499999999999999,
          "durationTicks": 192,
          "midi": 60,
          "name": "C4",
          "ticks": 4224,
          "time": 3.3,
          "velocity": 0.8346456692913385
        },
        {
          "duration": 0.1499999999999999,
          "durationTicks": 192,
          "midi": 62,
          "name": "D4",
          "ticks": 4416,
          "time": 3.4499999999999997,
          "velocity": 0.8346456692913385
        },
        {
          "duration": 0.30000000000000027,
          "durationTicks": 384,
          "midi": 64,
          "name": "E4",
          "ticks": 4608,
          "time": 3.5999999999999996,
          "velocity": 0.8346456692913385
        },
        {
          "duration": 0.30000000000000027,
          "durationTicks": 384,
          "midi": 57,
          "name": "A3",
          "ticks": 4992,
          "time": 3.9,
          "velocity": 0.8346456692913385
        },
        {
          "duration": 0.14999999999999947,
          "durationTicks": 192,
          "midi": 61,
          "name": "C#4",
          "ticks": 5376,
          "time": 4.2,
          "velocity": 0.8346456692913385
        },
        {
          "duration": 0.15000000000000036,
          "durationTicks": 192,
          "midi": 62,
          "name": "D4",
          "ticks": 5568,
          "time": 4.35,
          "velocity": 0.8346456692913385
        },
        {
          "duration": 0.2999999999999998,
          "durationTicks": 384,
          "midi": 64,
          "name": "E4",
          "ticks": 5760,
          "time": 4.5,
          "velocity": 0.8346456692913385
        },
        {
          "duration": 0.2999999999999998,
          "durationTicks": 384,
          "midi": 57,
          "name": "A3",
          "ticks": 6144,
          "time": 4.8,
          "velocity": 0.8346456692913385
        },
        {
          "duration": 0.15000000000000036,
          "durationTicks": 192,
          "midi": 61,
          "name": "C#4",
          "ticks": 6528,
          "time": 5.1,
          "velocity": 0.8346456692913385
        },
        {
          "duration": 0.14999999999999947,
          "durationTicks": 192,
          "midi": 62,
          "name": "D4",
          "ticks": 6720,
          "time": 5.25,
          "velocity": 0.8346456692913385
        },
        {
          "duration": 0.3000000000000007,
          "durationTicks": 384,
          "midi": 64,
          "name": "E4",
          "ticks": 6912,
          "time": 5.3999999999999995,
          "velocity": 0.8346456692913385
        },
        {
          "duration": 0.2999999999999998,
          "durationTicks": 384,
          "midi": 57,
          "name": "A3",
          "ticks": 7296,
          "time": 5.7,
          "velocity": 0.8346456692913385
        },
        {
          "duration": 0.14999999999999947,
          "durationTicks": 192,
          "midi": 61,
          "name": "C#4",
          "ticks": 7680,
          "time": 6,
          "velocity": 0.8346456692913385
        },
        {
          "duration": 0.15000000000000036,
          "durationTicks": 192,
          "midi": 62,
          "name": "D4",
          "ticks": 7872,
          "time": 6.1499999999999995,
          "velocity": 0.8346456692913385
        },
        {
          "duration": 0.2999999999999998,
          "durationTicks": 384,
          "midi": 64,
          "name": "E4",
          "ticks": 8064,
          "time": 6.3,
          "velocity": 0.8346456692913385
        },
        {
          "duration": 0.2999999999999998,
          "durationTicks": 384,
          "midi": 57,
          "name": "A3",
          "ticks": 8448,
          "time": 6.6,
          "velocity": 0.8346456692913385
        },
        {
          "duration": 0.15000000000000036,
          "durationTicks": 192,
          "midi": 61,
          "name": "C#4",
          "ticks": 8832,
          "time": 6.8999999999999995,
          "velocity": 0.8346456692913385
        },
        {
          "duration": 0.14999999999999947,
          "durationTicks": 192,
          "midi": 62,
          "name": "D4",
          "ticks": 9024,
          "time": 7.05,
          "velocity": 0.8346456692913385
        },
        {
          "duration": 0.9000000000000004,
          "durationTicks": 1152,
          "midi": 64,
          "name": "E4",
          "ticks": 9216,
          "time": 7.199999999999999,
          "velocity": 0.8346456692913385
        },
        {
          "duration": 0.9000000000000004,
          "durationTicks": 1152,
          "midi": 57,
          "name": "A3",
          "ticks": 10368,
          "time": 8.1,
          "velocity": 0.8346456692913385
        },
        {
          "duration": 0.15000000000000036,
          "durationTicks": 192,
          "midi": 60,
          "name": "C4",
          "ticks": 11520,
          "time": 9,
          "velocity": 0.8346456692913385
        },
        {
          "duration": 0.14999999999999858,
          "durationTicks": 192,
          "midi": 62,
          "name": "D4",
          "ticks": 11712,
          "time": 9.15,
          "velocity": 0.8346456692913385
        },
        {
          "duration": 0.6000000000000014,
          "durationTicks": 768,
          "midi": 64,
          "name": "E4",
          "ticks": 11904,
          "time": 9.299999999999999,
          "velocity": 0.8346456692913385
        },
        {
          "duration": 0.5999999999999996,
          "durationTicks": 768,
          "midi": 57,
          "name": "A3",
          "ticks": 12672,
          "time": 9.9,
          "velocity": 0.8346456692913385
        },
        {
          "duration": 0.15000000000000036,
          "durationTicks": 192,
          "midi": 60,
          "name": "C4",
          "ticks": 13440,
          "time": 10.5,
          "velocity": 0.8346456692913385
        },
        {
          "duration": 0.14999999999999858,
          "durationTicks": 192,
          "midi": 62,
          "name": "D4",
          "ticks": 13632,
          "time": 10.65,
          "velocity": 0.8346456692913385
        },
        {
          "duration": 0.3000000000000007,
          "durationTicks": 384,
          "midi": 59,
          "name": "B3",
          "ticks": 13824,
          "time": 10.799999999999999,
          "velocity": 0.8346456692913385
        },
        {
          "duration": 0.3000000000000007,
          "durationTicks": 384,
          "midi": 52,
          "name": "E3",
          "ticks": 14208,
          "time": 11.1,
          "velocity": 0.8346456692913385
        },
        {
          "duration": 0.14999999999999858,
          "durationTicks": 192,
          "midi": 55,
          "name": "G3",
          "ticks": 14592,
          "time": 11.4,
          "velocity": 0.8346456692913385
        },
        {
          "duration": 0.15000000000000036,
          "durationTicks": 192,
          "midi": 57,
          "name": "A3",
          "ticks": 14784,
          "time": 11.549999999999999,
          "velocity": 0.8346456692913385
        },
        {
          "duration": 0.3000000000000007,
          "durationTicks": 384,
          "midi": 59,
          "name": "B3",
          "ticks": 14976,
          "time": 11.7,
          "velocity": 0.8346456692913385
        },
        {
          "duration": 0.29999999999999893,
          "durationTicks": 384,
          "midi": 52,
          "name": "E3",
          "ticks": 15360,
          "time": 12,
          "velocity": 0.8346456692913385
        },
        {
          "duration": 0.15000000000000036,
          "durationTicks": 192,
          "midi": 55,
          "name": "G3",
          "ticks": 15744,
          "time": 12.299999999999999,
          "velocity": 0.8346456692913385
        },
        {
          "duration": 0.15000000000000036,
          "durationTicks": 192,
          "midi": 57,
          "name": "A3",
          "ticks": 15936,
          "time": 12.45,
          "velocity": 0.8346456692913385
        },
        {
          "duration": 0.3000000000000007,
          "durationTicks": 384,
          "midi": 59,
          "name": "B3",
          "ticks": 16128,
          "time": 12.6,
          "velocity": 0.8346456692913385
        },
        {
          "duration": 0.29999999999999893,
          "durationTicks": 384,
          "midi": 52,
          "name": "E3",
          "ticks": 16512,
          "time": 12.9,
          "velocity": 0.8346456692913385
        },
        {
          "duration": 0.15000000000000036,
          "durationTicks": 192,
          "midi": 55,
          "name": "G3",
          "ticks": 16896,
          "time": 13.2,
          "velocity": 0.8346456692913385
        },
        {
          "duration": 0.15000000000000036,
          "durationTicks": 192,
          "midi": 57,
          "name": "A3",
          "ticks": 17088,
          "time": 13.35,
          "velocity": 0.8346456692913385
        },
        {
          "duration": 0.29999999999999893,
          "durationTicks": 384,
          "midi": 59,
          "name": "B3",
          "ticks": 17280,
          "time": 13.5,
          "velocity": 0.8346456692913385
        },
        {
          "duration": 0.3000000000000007,
          "durationTicks": 384,
          "midi": 52,
          "name": "E3",
          "ticks": 17664,
          "time": 13.799999999999999,
          "velocity": 0.8346456692913385
        },
        {
          "duration": 0.15000000000000036,
          "durationTicks": 192,
          "midi": 55,
          "name": "G3",
          "ticks": 18048,
          "time": 14.1,
          "velocity": 0.8346456692913385
        },
        {
          "duration": 0.14999999999999858,
          "durationTicks": 192,
          "midi": 57,
          "name": "A3",
          "ticks": 18240,
          "time": 14.25,
          "velocity": 0.8346456692913385
        },
        {
          "duration": 0.9000000000000004,
          "durationTicks": 1152,
          "midi": 62,
          "name": "D4",
          "ticks": 18432,
          "time": 14.399999999999999,
          "velocity": 0.8346456692913385
        },
        {
          "duration": 0.9000000000000004,
          "durationTicks": 1152,
          "midi": 55,
          "name": "G3",
          "ticks": 19584,
          "time": 15.299999999999999,
          "velocity": 0.8346456692913385
        },
        {
          "duration": 0.14999999999999858,
          "durationTicks": 192,
          "midi": 60,
          "name": "C4",
          "ticks": 20736,
          "time": 16.2,
          "velocity": 0.8346456692913385
        },
        {
          "duration": 0.15000000000000213,
          "durationTicks": 192,
          "midi": 59,
          "name": "B3",
          "ticks": 20928,
          "time": 16.349999999999998,
          "velocity": 0.8346456692913385
        },
        {
          "duration": 0.5999999999999979,
          "durationTicks": 768,
          "midi": 62,
          "name": "D4",
          "ticks": 21120,
          "time": 16.5,
          "velocity": 0.8346456692913385
        },
        {
          "duration": 0.6000000000000014,
          "durationTicks": 768,
          "midi": 55,
          "name": "G3",
          "ticks": 21888,
          "time": 17.099999999999998,
          "velocity": 0.8346456692913385
        },
        {
          "duration": 0.14999999999999858,
          "durationTicks": 192,
          "midi": 60,
          "name": "C4",
          "ticks": 22656,
          "time": 17.7,
          "velocity": 0.8346456692913385
        },
        {
          "duration": 0.15000000000000213,
          "durationTicks": 192,
          "midi": 59,
          "name": "B3",
          "ticks": 22848,
          "time": 17.849999999999998,
          "velocity": 0.8346456692913385
        },
        {
          "duration": 0.3000000000000007,
          "durationTicks": 384,
          "midi": 57,
          "name": "A3",
          "ticks": 23040,
          "time": 18,
          "velocity": 0.8346456692913385
        },
        {
          "duration": 0.29999999999999716,
          "durationTicks": 384,
          "midi": 50,
          "name": "D3",
          "ticks": 23424,
          "time": 18.3,
          "velocity": 0.8346456692913385
        },
        {
          "duration": 0.15000000000000213,
          "durationTicks": 192,
          "midi": 53,
          "name": "F3",
          "ticks": 23808,
          "time": 18.599999999999998,
          "velocity": 0.8346456692913385
        },
        {
          "duration": 0.14999999999999858,
          "durationTicks": 192,
          "midi": 55,
          "name": "G3",
          "ticks": 24000,
          "time": 18.75,
          "velocity": 0.8346456692913385
        },
        {
          "duration": 0.3000000000000007,
          "durationTicks": 384,
          "midi": 57,
          "name": "A3",
          "ticks": 24192,
          "time": 18.9,
          "velocity": 0.8346456692913385
        },
        {
          "duration": 0.3000000000000007,
          "durationTicks": 384,
          "midi": 50,
          "name": "D3",
          "ticks": 24576,
          "time": 19.2,
          "velocity": 0.8346456692913385
        },
        {
          "duration": 0.14999999999999858,
          "durationTicks": 192,
          "midi": 53,
          "name": "F3",
          "ticks": 24960,
          "time": 19.5,
          "velocity": 0.8346456692913385
        },
        {
          "duration": 0.15000000000000213,
          "durationTicks": 192,
          "midi": 55,
          "name": "G3",
          "ticks": 25152,
          "time": 19.65,
          "velocity": 0.8346456692913385
        },
        {
          "duration": 0.29999999999999716,
          "durationTicks": 384,
          "midi": 57,
          "name": "A3",
          "ticks": 25344,
          "time": 19.8,
          "velocity": 0.8346456692913385
        },
        {
          "duration": 0.3000000000000007,
          "durationTicks": 384,
          "midi": 50,
          "name": "D3",
          "ticks": 25728,
          "time": 20.099999999999998,
          "velocity": 0.8346456692913385
        },
        {
          "duration": 0.15000000000000213,
          "durationTicks": 192,
          "midi": 53,
          "name": "F3",
          "ticks": 26112,
          "time": 20.4,
          "velocity": 0.8346456692913385
        },
        {
          "duration": 0.14999999999999858,
          "durationTicks": 192,
          "midi": 55,
          "name": "G3",
          "ticks": 26304,
          "time": 20.55,
          "velocity": 0.8346456692913385
        },
        {
          "duration": 0.3000000000000007,
          "durationTicks": 384,
          "midi": 57,
          "name": "A3",
          "ticks": 26496,
          "time": 20.7,
          "velocity": 0.8346456692913385
        },
        {
          "duration": 0.3000000000000007,
          "durationTicks": 384,
          "midi": 50,
          "name": "D3",
          "ticks": 26880,
          "time": 21,
          "velocity": 0.8346456692913385
        },
        {
          "duration": 0.14999999999999858,
          "durationTicks": 192,
          "midi": 53,
          "name": "F3",
          "ticks": 27264,
          "time": 21.3,
          "velocity": 0.8346456692913385
        },
        {
          "duration": 0.14999999999999858,
          "durationTicks": 192,
          "midi": 55,
          "name": "G3",
          "ticks": 27456,
          "time": 21.45,
          "velocity": 0.8346456692913385
        },
        {
          "duration": 0.9000000000000021,
          "durationTicks": 1152,
          "midi": 64,
          "name": "E4",
          "ticks": 27648,
          "time": 21.599999999999998,
          "velocity": 0.8346456692913385
        },
        {
          "duration": 0.8999999999999986,
          "durationTicks": 1152,
          "midi": 57,
          "name": "A3",
          "ticks": 28800,
          "time": 22.5,
          "velocity": 0.8346456692913385
        },
        {
          "duration": 0.15000000000000213,
          "durationTicks": 192,
          "midi": 60,
          "name": "C4",
          "ticks": 29952,
          "time": 23.4,
          "velocity": 0.8346456692913385
        },
        {
          "duration": 0.14999999999999858,
          "durationTicks": 192,
          "midi": 62,
          "name": "D4",
          "ticks": 30144,
          "time": 23.55,
          "velocity": 0.8346456692913385
        },
        {
          "duration": 0.6000000000000014,
          "durationTicks": 768,
          "midi": 64,
          "name": "E4",
          "ticks": 30336,
          "time": 23.7,
          "velocity": 0.8346456692913385
        },
        {
          "duration": 0.5999999999999979,
          "durationTicks": 768,
          "midi": 57,
          "name": "A3",
          "ticks": 31104,
          "time": 24.3,
          "velocity": 0.8346456692913385
        },
        {
          "duration": 0.15000000000000213,
          "durationTicks": 192,
          "midi": 60,
          "name": "C4",
          "ticks": 31872,
          "time": 24.9,
          "velocity": 0.8346456692913385
        },
        {
          "duration": 0.14999999999999858,
          "durationTicks": 192,
          "midi": 62,
          "name": "D4",
          "ticks": 32064,
          "time": 25.05,
          "velocity": 0.8346456692913385
        },
        {
          "duration": 0.3000000000000007,
          "durationTicks": 384,
          "midi": 59,
          "name": "B3",
          "ticks": 32256,
          "time": 25.2,
          "velocity": 0.8346456692913385
        },
        {
          "duration": 0.3000000000000007,
          "durationTicks": 384,
          "midi": 52,
          "name": "E3",
          "ticks": 32640,
          "time": 25.5,
          "velocity": 0.8346456692913385
        },
        {
          "duration": 0.14999999999999858,
          "durationTicks": 192,
          "midi": 55,
          "name": "G3",
          "ticks": 33024,
          "time": 25.8,
          "velocity": 0.8346456692913385
        },
        {
          "duration": 0.14999999999999858,
          "durationTicks": 192,
          "midi": 57,
          "name": "A3",
          "ticks": 33216,
          "time": 25.95,
          "velocity": 0.8346456692913385
        },
        {
          "duration": 0.3000000000000007,
          "durationTicks": 384,
          "midi": 59,
          "name": "B3",
          "ticks": 33408,
          "time": 26.099999999999998,
          "velocity": 0.8346456692913385
        },
        {
          "duration": 0.3000000000000007,
          "durationTicks": 384,
          "midi": 52,
          "name": "E3",
          "ticks": 33792,
          "time": 26.4,
          "velocity": 0.8346456692913385
        },
        {
          "duration": 0.14999999999999858,
          "durationTicks": 192,
          "midi": 55,
          "name": "G3",
          "ticks": 34176,
          "time": 26.7,
          "velocity": 0.8346456692913385
        },
        {
          "duration": 0.15000000000000213,
          "durationTicks": 192,
          "midi": 57,
          "name": "A3",
          "ticks": 34368,
          "time": 26.849999999999998,
          "velocity": 0.8346456692913385
        },
        {
          "duration": 0.3000000000000007,
          "durationTicks": 384,
          "midi": 59,
          "name": "B3",
          "ticks": 34560,
          "time": 27,
          "velocity": 0.8346456692913385
        },
        {
          "duration": 0.29999999999999716,
          "durationTicks": 384,
          "midi": 52,
          "name": "E3",
          "ticks": 34944,
          "time": 27.3,
          "velocity": 0.8346456692913385
        },
        {
          "duration": 0.15000000000000213,
          "durationTicks": 192,
          "midi": 55,
          "name": "G3",
          "ticks": 35328,
          "time": 27.599999999999998,
          "velocity": 0.8346456692913385
        },
        {
          "duration": 0.14999999999999858,
          "durationTicks": 192,
          "midi": 57,
          "name": "A3",
          "ticks": 35520,
          "time": 27.75,
          "velocity": 0.8346456692913385
        },
        {
          "duration": 0.3000000000000007,
          "durationTicks": 384,
          "midi": 59,
          "name": "B3",
          "ticks": 35712,
          "time": 27.9,
          "velocity": 0.8346456692913385
        },
        {
          "duration": 0.3000000000000007,
          "durationTicks": 384,
          "midi": 52,
          "name": "E3",
          "ticks": 36096,
          "time": 28.2,
          "velocity": 0.8346456692913385
        },
        {
          "duration": 0.14999999999999858,
          "durationTicks": 192,
          "midi": 55,
          "name": "G3",
          "ticks": 36480,
          "time": 28.5,
          "velocity": 0.8346456692913385
        },
        {
          "duration": 0.14999999999999858,
          "durationTicks": 192,
          "midi": 57,
          "name": "A3",
          "ticks": 36672,
          "time": 28.65,
          "velocity": 0.8346456692913385
        },
        {
          "duration": 0.9000000000000021,
          "durationTicks": 1152,
          "midi": 62,
          "name": "D4",
          "ticks": 36864,
          "time": 28.799999999999997,
          "velocity": 0.8346456692913385
        },
        {
          "duration": 0.8999999999999986,
          "durationTicks": 1152,
          "midi": 55,
          "name": "G3",
          "ticks": 38016,
          "time": 29.7,
          "velocity": 0.8346456692913385
        },
        {
          "duration": 0.15000000000000213,
          "durationTicks": 192,
          "midi": 60,
          "name": "C4",
          "ticks": 39168,
          "time": 30.599999999999998,
          "velocity": 0.8346456692913385
        },
        {
          "duration": 0.14999999999999858,
          "durationTicks": 192,
          "midi": 59,
          "name": "B3",
          "ticks": 39360,
          "time": 30.75,
          "velocity": 0.8346456692913385
        },
        {
          "duration": 0.6000000000000014,
          "durationTicks": 768,
          "midi": 62,
          "name": "D4",
          "ticks": 39552,
          "time": 30.9,
          "velocity": 0.8346456692913385
        },
        {
          "duration": 0.6000000000000014,
          "durationTicks": 768,
          "midi": 55,
          "name": "G3",
          "ticks": 40320,
          "time": 31.5,
          "velocity": 0.8346456692913385
        },
        {
          "duration": 0.14999999999999858,
          "durationTicks": 192,
          "midi": 60,
          "name": "C4",
          "ticks": 41088,
          "time": 32.1,
          "velocity": 0.8346456692913385
        },
        {
          "duration": 0.14999999999999858,
          "durationTicks": 192,
          "midi": 59,
          "name": "B3",
          "ticks": 41280,
          "time": 32.25,
          "velocity": 0.8346456692913385
        },
        {
          "duration": 0.29999999999999716,
          "durationTicks": 384,
          "midi": 57,
          "name": "A3",
          "ticks": 41472,
          "time": 32.4,
          "velocity": 0.8346456692913385
        },
        {
          "duration": 0.30000000000000426,
          "durationTicks": 384,
          "midi": 52,
          "name": "E3",
          "ticks": 41856,
          "time": 32.699999999999996,
          "velocity": 0.8346456692913385
        },
        {
          "duration": 0.14999999999999858,
          "durationTicks": 192,
          "midi": 53,
          "name": "F3",
          "ticks": 42240,
          "time": 33,
          "velocity": 0.8346456692913385
        },
        {
          "duration": 0.14999999999999858,
          "durationTicks": 192,
          "midi": 55,
          "name": "G3",
          "ticks": 42432,
          "time": 33.15,
          "velocity": 0.8346456692913385
        },
        {
          "duration": 0.30000000000000426,
          "durationTicks": 384,
          "midi": 57,
          "name": "A3",
          "ticks": 42624,
          "time": 33.3,
          "velocity": 0.8346456692913385
        },
        {
          "duration": 0.29999999999999716,
          "durationTicks": 384,
          "midi": 52,
          "name": "E3",
          "ticks": 43008,
          "time": 33.6,
          "velocity": 0.8346456692913385
        },
        {
          "duration": 0.14999999999999858,
          "durationTicks": 192,
          "midi": 53,
          "name": "F3",
          "ticks": 43392,
          "time": 33.9,
          "velocity": 0.8346456692913385
        },
        {
          "duration": 0.14999999999999858,
          "durationTicks": 192,
          "midi": 55,
          "name": "G3",
          "ticks": 43584,
          "time": 34.05,
          "velocity": 0.8346456692913385
        },
        {
          "duration": 0.30000000000000426,
          "durationTicks": 384,
          "midi": 57,
          "name": "A3",
          "ticks": 43776,
          "time": 34.199999999999996,
          "velocity": 0.8346456692913385
        },
        {
          "duration": 0.29999999999999716,
          "durationTicks": 384,
          "midi": 52,
          "name": "E3",
          "ticks": 44160,
          "time": 34.5,
          "velocity": 0.8346456692913385
        },
        {
          "duration": 0.14999999999999858,
          "durationTicks": 192,
          "midi": 53,
          "name": "F3",
          "ticks": 44544,
          "time": 34.8,
          "velocity": 0.8346456692913385
        },
        {
          "duration": 0.15000000000000568,
          "durationTicks": 192,
          "midi": 55,
          "name": "G3",
          "ticks": 44736,
          "time": 34.949999999999996,
          "velocity": 0.8346456692913385
        },
        {
          "duration": 0.29999999999999716,
          "durationTicks": 384,
          "midi": 57,
          "name": "A3",
          "ticks": 44928,
          "time": 35.1,
          "velocity": 0.8346456692913385
        },
        {
          "duration": 0.29999999999999716,
          "durationTicks": 384,
          "midi": 52,
          "name": "E3",
          "ticks": 45312,
          "time": 35.4,
          "velocity": 0.8346456692913385
        },
        {
          "duration": 0.15000000000000568,
          "durationTicks": 192,
          "midi": 53,
          "name": "F3",
          "ticks": 45696,
          "time": 35.699999999999996,
          "velocity": 0.8346456692913385
        },
        {
          "duration": 0.14999999999999858,
          "durationTicks": 192,
          "midi": 55,
          "name": "G3",
          "ticks": 45888,
          "time": 35.85,
          "velocity": 0.8346456692913385
        },
        {
          "duration": 0.8999999999999986,
          "durationTicks": 1152,
          "midi": 64,
          "name": "E4",
          "ticks": 46080,
          "time": 36,
          "velocity": 0.8346456692913385
        },
        {
          "duration": 0.8999999999999986,
          "durationTicks": 1152,
          "midi": 57,
          "name": "A3",
          "ticks": 47232,
          "time": 36.9,
          "velocity": 0.8346456692913385
        },
        {
          "duration": 0.14999999999999858,
          "durationTicks": 192,
          "midi": 60,
          "name": "C4",
          "ticks": 48384,
          "time": 37.8,
          "velocity": 0.8346456692913385
        },
        {
          "duration": 0.15000000000000568,
          "durationTicks": 192,
          "midi": 62,
          "name": "D4",
          "ticks": 48576,
          "time": 37.949999999999996,
          "velocity": 0.8346456692913385
        },
        {
          "duration": 0.5999999999999943,
          "durationTicks": 768,
          "midi": 64,
          "name": "E4",
          "ticks": 48768,
          "time": 38.1,
          "velocity": 0.8346456692913385
        },
        {
          "duration": 0.6000000000000014,
          "durationTicks": 768,
          "midi": 57,
          "name": "A3",
          "ticks": 49536,
          "time": 38.699999999999996,
          "velocity": 0.8346456692913385
        },
        {
          "duration": 0.14999999999999858,
          "durationTicks": 192,
          "midi": 60,
          "name": "C4",
          "ticks": 50304,
          "time": 39.3,
          "velocity": 0.8346456692913385
        },
        {
          "duration": 0.15000000000000568,
          "durationTicks": 192,
          "midi": 62,
          "name": "D4",
          "ticks": 50496,
          "time": 39.449999999999996,
          "velocity": 0.8346456692913385
        },
        {
          "duration": 0.5999999999999943,
          "durationTicks": 768,
          "midi": 59,
          "name": "B3",
          "ticks": 50688,
          "time": 39.6,
          "velocity": 0.8346456692913385
        },
        {
          "duration": 0.15000000000000568,
          "durationTicks": 192,
          "midi": 55,
          "name": "G3",
          "ticks": 51456,
          "time": 40.199999999999996,
          "velocity": 0.8346456692913385
        },
        {
          "duration": 0.14999999999999858,
          "durationTicks": 192,
          "midi": 57,
          "name": "A3",
          "ticks": 51648,
          "time": 40.35,
          "velocity": 0.8346456692913385
        },
        {
          "duration": 0.6000000000000014,
          "durationTicks": 768,
          "midi": 59,
          "name": "B3",
          "ticks": 51840,
          "time": 40.5,
          "velocity": 0.8346456692913385
        },
        {
          "duration": 0.14999999999999858,
          "durationTicks": 192,
          "midi": 55,
          "name": "G3",
          "ticks": 52608,
          "time": 41.1,
          "velocity": 0.8346456692913385
        },
        {
          "duration": 0.14999999999999858,
          "durationTicks": 192,
          "midi": 57,
          "name": "A3",
          "ticks": 52800,
          "time": 41.25,
          "velocity": 0.8346456692913385
        },
        {
          "duration": 0.6000000000000014,
          "durationTicks": 768,
          "midi": 59,
          "name": "B3",
          "ticks": 52992,
          "time": 41.4,
          "velocity": 0.8346456692913385
        },
        {
          "duration": 0.14999999999999858,
          "durationTicks": 192,
          "midi": 55,
          "name": "G3",
          "ticks": 53760,
          "time": 42,
          "velocity": 0.8346456692913385
        },
        {
          "duration": 0.14999999999999858,
          "durationTicks": 192,
          "midi": 57,
          "name": "A3",
          "ticks": 53952,
          "time": 42.15,
          "velocity": 0.8346456692913385
        },
        {
          "duration": 0.6000000000000014,
          "durationTicks": 768,
          "midi": 59,
          "name": "B3",
          "ticks": 54144,
          "time": 42.3,
          "velocity": 0.8346456692913385
        },
        {
          "duration": 0.14999999999999858,
          "durationTicks": 192,
          "midi": 55,
          "name": "G3",
          "ticks": 54912,
          "time": 42.9,
          "velocity": 0.8346456692913385
        },
        {
          "duration": 0.14999999999999858,
          "durationTicks": 192,
          "midi": 57,
          "name": "A3",
          "ticks": 55104,
          "time": 43.05,
          "velocity": 0.8346456692913385
        },
        {
          "duration": 0.9000000000000057,
          "durationTicks": 1152,
          "midi": 62,
          "name": "D4",
          "ticks": 55296,
          "time": 43.199999999999996,
          "velocity": 0.8346456692913385
        },
        {
          "duration": 0.8999999999999986,
          "durationTicks": 1152,
          "midi": 55,
          "name": "G3",
          "ticks": 56448,
          "time": 44.1,
          "velocity": 0.8346456692913385
        },
        {
          "duration": 0.44999999999999574,
          "durationTicks": 576,
          "midi": 59,
          "name": "B3",
          "ticks": 57600,
          "time": 45,
          "velocity": 0.8346456692913385
        },
        {
          "duration": 0.45000000000000284,
          "durationTicks": 576,
          "midi": 60,
          "name": "C4",
          "ticks": 58176,
          "time": 45.449999999999996,
          "velocity": 0.8346456692913385
        },
        {
          "duration": 0.45000000000000284,
          "durationTicks": 576,
          "midi": 59,
          "name": "B3",
          "ticks": 58752,
          "time": 45.9,
          "velocity": 0.8346456692913385
        },
        {
          "duration": 0.44999999999999574,
          "durationTicks": 576,
          "midi": 55,
          "name": "G3",
          "ticks": 59328,
          "time": 46.35,
          "velocity": 0.8346456692913385
        },
        {
          "duration": 0.30000000000000426,
          "durationTicks": 384,
          "midi": 57,
          "name": "A3",
          "ticks": 59904,
          "time": 46.8,
          "velocity": 0.8346456692913385
        },
        {
          "duration": 0.29999999999999716,
          "durationTicks": 384,
          "midi": 52,
          "name": "E3",
          "ticks": 60288,
          "time": 47.1,
          "velocity": 0.8346456692913385
        },
        {
          "duration": 0.14999999999999858,
          "durationTicks": 192,
          "midi": 53,
          "name": "F3",
          "ticks": 60672,
          "time": 47.4,
          "velocity": 0.8346456692913385
        },
        {
          "duration": 0.14999999999999858,
          "durationTicks": 192,
          "midi": 55,
          "name": "G3",
          "ticks": 60864,
          "time": 47.55,
          "velocity": 0.8346456692913385
        },
        {
          "duration": 0.30000000000000426,
          "durationTicks": 384,
          "midi": 57,
          "name": "A3",
          "ticks": 61056,
          "time": 47.699999999999996,
          "velocity": 0.8346456692913385
        },
        {
          "duration": 0.29999999999999716,
          "durationTicks": 384,
          "midi": 52,
          "name": "E3",
          "ticks": 61440,
          "time": 48,
          "velocity": 0.8346456692913385
        },
        {
          "duration": 0.14999999999999858,
          "durationTicks": 192,
          "midi": 53,
          "name": "F3",
          "ticks": 61824,
          "time": 48.3,
          "velocity": 0.8346456692913385
        },
        {
          "duration": 0.15000000000000568,
          "durationTicks": 192,
          "midi": 55,
          "name": "G3",
          "ticks": 62016,
          "time": 48.449999999999996,
          "velocity": 0.8346456692913385
        },
        {
          "duration": 0.29999999999999716,
          "durationTicks": 384,
          "midi": 57,
          "name": "A3",
          "ticks": 62208,
          "time": 48.6,
          "velocity": 0.8346456692913385
        },
        {
          "duration": 0.29999999999999716,
          "durationTicks": 384,
          "midi": 52,
          "name": "E3",
          "ticks": 62592,
          "time": 48.9,
          "velocity": 0.8346456692913385
        },
        {
          "duration": 0.15000000000000568,
          "durationTicks": 192,
          "midi": 53,
          "name": "F3",
          "ticks": 62976,
          "time": 49.199999999999996,
          "velocity": 0.8346456692913385
        },
        {
          "duration": 0.14999999999999858,
          "durationTicks": 192,
          "midi": 55,
          "name": "G3",
          "ticks": 63168,
          "time": 49.35,
          "velocity": 0.8346456692913385
        },
        {
          "duration": 0.29999999999999716,
          "durationTicks": 384,
          "midi": 57,
          "name": "A3",
          "ticks": 63360,
          "time": 49.5,
          "velocity": 0.8346456692913385
        },
        {
          "duration": 0.30000000000000426,
          "durationTicks": 384,
          "midi": 52,
          "name": "E3",
          "ticks": 63744,
          "time": 49.8,
          "velocity": 0.8346456692913385
        },
        {
          "duration": 0.14999999999999858,
          "durationTicks": 192,
          "midi": 53,
          "name": "F3",
          "ticks": 64128,
          "time": 50.1,
          "velocity": 0.8346456692913385
        },
        {
          "duration": 0.14999999999999858,
          "durationTicks": 192,
          "midi": 55,
          "name": "G3",
          "ticks": 64320,
          "time": 50.25,
          "velocity": 0.8346456692913385
        },
        {
          "duration": 0.29999999999999716,
          "durationTicks": 384,
          "midi": 57,
          "name": "A3",
          "ticks": 64512,
          "time": 50.4,
          "velocity": 0.8346456692913385
        },
        {
          "duration": 0.30000000000000426,
          "durationTicks": 384,
          "midi": 48,
          "name": "C3",
          "ticks": 64896,
          "time": 50.699999999999996,
          "velocity": 0.8346456692913385
        },
        {
          "duration": 0.14999999999999858,
          "durationTicks": 192,
          "midi": 53,
          "name": "F3",
          "ticks": 65280,
          "time": 51,
          "velocity": 0.8346456692913385
        },
        {
          "duration": 0.14999999999999858,
          "durationTicks": 192,
          "midi": 55,
          "name": "G3",
          "ticks": 65472,
          "time": 51.15,
          "velocity": 0.8346456692913385
        },
        {
          "duration": 0.30000000000000426,
          "durationTicks": 384,
          "midi": 57,
          "name": "A3",
          "ticks": 65664,
          "time": 51.3,
          "velocity": 0.8346456692913385
        },
        {
          "duration": 0.29999999999999716,
          "durationTicks": 384,
          "midi": 48,
          "name": "C3",
          "ticks": 66048,
          "time": 51.6,
          "velocity": 0.8346456692913385
        },
        {
          "duration": 0.14999999999999858,
          "durationTicks": 192,
          "midi": 53,
          "name": "F3",
          "ticks": 66432,
          "time": 51.9,
          "velocity": 0.8346456692913385
        },
        {
          "duration": 0.14999999999999858,
          "durationTicks": 192,
          "midi": 57,
          "name": "A3",
          "ticks": 66624,
          "time": 52.05,
          "velocity": 0.8346456692913385
        },
        {
          "duration": 0.30000000000000426,
          "durationTicks": 384,
          "midi": 55,
          "name": "G3",
          "ticks": 66816,
          "time": 52.199999999999996,
          "velocity": 0.8346456692913385
        },
        {
          "duration": 0.29999999999999716,
          "durationTicks": 384,
          "midi": 48,
          "name": "C3",
          "ticks": 67200,
          "time": 52.5,
          "velocity": 0.8346456692913385
        },
        {
          "duration": 0.14999999999999858,
          "durationTicks": 192,
          "midi": 52,
          "name": "E3",
          "ticks": 67584,
          "time": 52.8,
          "velocity": 0.8346456692913385
        },
        {
          "duration": 0.15000000000000568,
          "durationTicks": 192,
          "midi": 53,
          "name": "F3",
          "ticks": 67776,
          "time": 52.949999999999996,
          "velocity": 0.8346456692913385
        },
        {
          "duration": 0.29999999999999716,
          "durationTicks": 384,
          "midi": 55,
          "name": "G3",
          "ticks": 67968,
          "time": 53.1,
          "velocity": 0.8346456692913385
        },
        {
          "duration": 0.29999999999999716,
          "durationTicks": 384,
          "midi": 48,
          "name": "C3",
          "ticks": 68352,
          "time": 53.4,
          "velocity": 0.8346456692913385
        },
        {
          "duration": 0.15000000000000568,
          "durationTicks": 192,
          "midi": 52,
          "name": "E3",
          "ticks": 68736,
          "time": 53.699999999999996,
          "velocity": 0.8346456692913385
        },
        {
          "duration": 0.14999999999999858,
          "durationTicks": 192,
          "midi": 55,
          "name": "G3",
          "ticks": 68928,
          "time": 53.85,
          "velocity": 0.8346456692913385
        },
        {
          "duration": 0.29999999999999716,
          "durationTicks": 384,
          "midi": 53,
          "name": "F3",
          "ticks": 69120,
          "time": 54,
          "velocity": 0.8346456692913385
        },
        {
          "duration": 0.30000000000000426,
          "durationTicks": 384,
          "midi": 45,
          "name": "A2",
          "ticks": 69504,
          "time": 54.3,
          "velocity": 0.8346456692913385
        },
        {
          "duration": 0.14999999999999858,
          "durationTicks": 192,
          "midi": 50,
          "name": "D3",
          "ticks": 69888,
          "time": 54.6,
          "velocity": 0.8346456692913385
        },
        {
          "duration": 0.14999999999999858,
          "durationTicks": 192,
          "midi": 52,
          "name": "E3",
          "ticks": 70080,
          "time": 54.75,
          "velocity": 0.8346456692913385
        },
        {
          "duration": 0.29999999999999716,
          "durationTicks": 384,
          "midi": 53,
          "name": "F3",
          "ticks": 70272,
          "time": 54.9,
          "velocity": 0.8346456692913385
        },
        {
          "duration": 0.30000000000000426,
          "durationTicks": 384,
          "midi": 45,
          "name": "A2",
          "ticks": 70656,
          "time": 55.199999999999996,
          "velocity": 0.8346456692913385
        },
        {
          "duration": 0.14999999999999858,
          "durationTicks": 192,
          "midi": 50,
          "name": "D3",
          "ticks": 71040,
          "time": 55.5,
          "velocity": 0.8346456692913385
        },
        {
          "duration": 0.14999999999999858,
          "durationTicks": 192,
          "midi": 53,
          "name": "F3",
          "ticks": 71232,
          "time": 55.65,
          "velocity": 0.8346456692913385
        },
        {
          "duration": 0.30000000000000426,
          "durationTicks": 384,
          "midi": 52,
          "name": "E3",
          "ticks": 71424,
          "time": 55.8,
          "velocity": 0.8346456692913385
        },
        {
          "duration": 0.29999999999999716,
          "durationTicks": 384,
          "midi": 45,
          "name": "A2",
          "ticks": 71808,
          "time": 56.1,
          "velocity": 0.8346456692913385
        },
        {
          "duration": 0.14999999999999858,
          "durationTicks": 192,
          "midi": 48,
          "name": "C3",
          "ticks": 72192,
          "time": 56.4,
          "velocity": 0.8346456692913385
        },
        {
          "duration": 0.14999999999999858,
          "durationTicks": 192,
          "midi": 50,
          "name": "D3",
          "ticks": 72384,
          "time": 56.55,
          "velocity": 0.8346456692913385
        },
        {
          "duration": 0.30000000000000426,
          "durationTicks": 384,
          "midi": 52,
          "name": "E3",
          "ticks": 72576,
          "time": 56.699999999999996,
          "velocity": 0.8346456692913385
        },
        {
          "duration": 0.29999999999999716,
          "durationTicks": 384,
          "midi": 45,
          "name": "A2",
          "ticks": 72960,
          "time": 57,
          "velocity": 0.8346456692913385
        },
        {
          "duration": 0.14999999999999858,
          "durationTicks": 192,
          "midi": 48,
          "name": "C3",
          "ticks": 73344,
          "time": 57.3,
          "velocity": 0.8346456692913385
        },
        {
          "duration": 0.14999999999999858,
          "durationTicks": 192,
          "midi": 50,
          "name": "D3",
          "ticks": 73536,
          "time": 57.449999999999996,
          "velocity": 0.8346456692913385
        },
        {
          "duration": 0.30000000000000426,
          "durationTicks": 384,
          "midi": 48,
          "name": "C3",
          "ticks": 73728,
          "time": 57.599999999999994,
          "velocity": 0.8346456692913385
        },
        {
          "duration": 0.29999999999999716,
          "durationTicks": 384,
          "midi": 41,
          "name": "F2",
          "ticks": 74112,
          "time": 57.9,
          "velocity": 0.8346456692913385
        },
        {
          "duration": 0.14999999999999858,
          "durationTicks": 192,
          "midi": 45,
          "name": "A2",
          "ticks": 74496,
          "time": 58.199999999999996,
          "velocity": 0.8346456692913385
        },
        {
          "duration": 0.15000000000000568,
          "durationTicks": 192,
          "midi": 47,
          "name": "B2",
          "ticks": 74688,
          "time": 58.349999999999994,
          "velocity": 0.8346456692913385
        },
        {
          "duration": 0.29999999999999716,
          "durationTicks": 384,
          "midi": 48,
          "name": "C3",
          "ticks": 74880,
          "time": 58.5,
          "velocity": 0.8346456692913385
        },
        {
          "duration": 0.29999999999999716,
          "durationTicks": 384,
          "midi": 41,
          "name": "F2",
          "ticks": 75264,
          "time": 58.8,
          "velocity": 0.8346456692913385
        },
        {
          "duration": 0.15000000000000568,
          "durationTicks": 192,
          "midi": 45,
          "name": "A2",
          "ticks": 75648,
          "time": 59.099999999999994,
          "velocity": 0.8346456692913385
        },
        {
          "duration": 0.14999999999999858,
          "durationTicks": 192,
          "midi": 47,
          "name": "B2",
          "ticks": 75840,
          "time": 59.25,
          "velocity": 0.8346456692913385
        },
        {
          "duration": 0.29999999999999716,
          "durationTicks": 384,
          "midi": 48,
          "name": "C3",
          "ticks": 76032,
          "time": 59.4,
          "velocity": 0.8346456692913385
        },
        {
          "duration": 0.30000000000000426,
          "durationTicks": 384,
          "midi": 45,
          "name": "A2",
          "ticks": 76416,
          "time": 59.699999999999996,
          "velocity": 0.8346456692913385
        },
        {
          "duration": 0.29999999999999716,
          "durationTicks": 384,
          "midi": 48,
          "name": "C3",
          "ticks": 76800,
          "time": 60,
          "velocity": 0.8346456692913385
        },
        {
          "duration": 0.29999999999999716,
          "durationTicks": 384,
          "midi": 50,
          "name": "D3",
          "ticks": 77184,
          "time": 60.3,
          "velocity": 0.8346456692913385
        },
        {
          "duration": 0.30000000000000426,
          "durationTicks": 384,
          "midi": 47,
          "name": "B2",
          "ticks": 77568,
          "time": 60.599999999999994,
          "velocity": 0.8346456692913385
        },
        {
          "duration": 0.29999999999999716,
          "durationTicks": 384,
          "midi": 50,
          "name": "D3",
          "ticks": 77952,
          "time": 60.9,
          "velocity": 0.8346456692913385
        },
        {
          "duration": 0.30000000000000426,
          "durationTicks": 384,
          "midi": 45,
          "name": "A2",
          "ticks": 78336,
          "time": 61.199999999999996,
          "velocity": 0.8346456692913385
        },
        {
          "duration": 0.29999999999999716,
          "durationTicks": 384,
          "midi": 40,
          "name": "E2",
          "ticks": 78720,
          "time": 61.5,
          "velocity": 0.8346456692913385
        },
        {
          "duration": 0.14999999999999858,
          "durationTicks": 192,
          "midi": 41,
          "name": "F2",
          "ticks": 79104,
          "time": 61.8,
          "velocity": 0.8346456692913385
        },
        {
          "duration": 0.14999999999999858,
          "durationTicks": 192,
          "midi": 43,
          "name": "G2",
          "ticks": 79296,
          "time": 61.949999999999996,
          "velocity": 0.8346456692913385
        },
        {
          "duration": 0.30000000000000426,
          "durationTicks": 384,
          "midi": 45,
          "name": "A2",
          "ticks": 79488,
          "time": 62.099999999999994,
          "velocity": 0.8346456692913385
        },
        {
          "duration": 0.29999999999999716,
          "durationTicks": 384,
          "midi": 40,
          "name": "E2",
          "ticks": 79872,
          "time": 62.4,
          "velocity": 0.8346456692913385
        },
        {
          "duration": 0.14999999999999858,
          "durationTicks": 192,
          "midi": 41,
          "name": "F2",
          "ticks": 80256,
          "time": 62.699999999999996,
          "velocity": 0.8346456692913385
        },
        {
          "duration": 0.15000000000000568,
          "durationTicks": 192,
          "midi": 43,
          "name": "G2",
          "ticks": 80448,
          "time": 62.849999999999994,
          "velocity": 0.8346456692913385
        },
        {
          "duration": 0.29999999999999716,
          "durationTicks": 384,
          "midi": 45,
          "name": "A2",
          "ticks": 80640,
          "time": 63,
          "velocity": 0.8346456692913385
        },
        {
          "duration": 0.29999999999999716,
          "durationTicks": 384,
          "midi": 40,
          "name": "E2",
          "ticks": 81024,
          "time": 63.3,
          "velocity": 0.8346456692913385
        },
        {
          "duration": 0.15000000000000568,
          "durationTicks": 192,
          "midi": 41,
          "name": "F2",
          "ticks": 81408,
          "time": 63.599999999999994,
          "velocity": 0.8346456692913385
        },
        {
          "duration": 0.14999999999999858,
          "durationTicks": 192,
          "midi": 43,
          "name": "G2",
          "ticks": 81600,
          "time": 63.75,
          "velocity": 0.8346456692913385
        },
        {
          "duration": 0.30000000000000426,
          "durationTicks": 384,
          "midi": 45,
          "name": "A2",
          "ticks": 81792,
          "time": 63.9,
          "velocity": 0.8346456692913385
        },
        {
          "duration": 0.29999999999999716,
          "durationTicks": 384,
          "midi": 40,
          "name": "E2",
          "ticks": 82176,
          "time": 64.2,
          "velocity": 0.8346456692913385
        },
        {
          "duration": 0.14999999999999147,
          "durationTicks": 192,
          "midi": 41,
          "name": "F2",
          "ticks": 82560,
          "time": 64.5,
          "velocity": 0.8346456692913385
        },
        {
          "duration": 0.15000000000000568,
          "durationTicks": 192,
          "midi": 43,
          "name": "G2",
          "ticks": 82752,
          "time": 64.64999999999999,
          "velocity": 0.8346456692913385
        },
        {
          "duration": 0.29999999999999716,
          "durationTicks": 384,
          "midi": 57,
          "name": "A3",
          "ticks": 82944,
          "time": 64.8,
          "velocity": 0.8346456692913385
        },
        {
          "duration": 0.29999999999999716,
          "durationTicks": 384,
          "midi": 48,
          "name": "C3",
          "ticks": 83328,
          "time": 65.1,
          "velocity": 0.8346456692913385
        },
        {
          "duration": 0.15000000000000568,
          "durationTicks": 192,
          "midi": 53,
          "name": "F3",
          "ticks": 83712,
          "time": 65.39999999999999,
          "velocity": 0.8346456692913385
        },
        {
          "duration": 0.15000000000000568,
          "durationTicks": 192,
          "midi": 55,
          "name": "G3",
          "ticks": 83904,
          "time": 65.55,
          "velocity": 0.8346456692913385
        },
        {
          "duration": 0.29999999999999716,
          "durationTicks": 384,
          "midi": 57,
          "name": "A3",
          "ticks": 84096,
          "time": 65.7,
          "velocity": 0.8346456692913385
        },
        {
          "duration": 0.29999999999999716,
          "durationTicks": 384,
          "midi": 48,
          "name": "C3",
          "ticks": 84480,
          "time": 66,
          "velocity": 0.8346456692913385
        },
        {
          "duration": 0.15000000000000568,
          "durationTicks": 192,
          "midi": 53,
          "name": "F3",
          "ticks": 84864,
          "time": 66.3,
          "velocity": 0.8346456692913385
        },
        {
          "duration": 0.14999999999999147,
          "durationTicks": 192,
          "midi": 57,
          "name": "A3",
          "ticks": 85056,
          "time": 66.45,
          "velocity": 0.8346456692913385
        },
        {
          "duration": 0.29999999999999716,
          "durationTicks": 384,
          "midi": 55,
          "name": "G3",
          "ticks": 85248,
          "time": 66.6,
          "velocity": 0.8346456692913385
        },
        {
          "duration": 0.30000000000001137,
          "durationTicks": 384,
          "midi": 48,
          "name": "C3",
          "ticks": 85632,
          "time": 66.89999999999999,
          "velocity": 0.8346456692913385
        },
        {
          "duration": 0.14999999999999147,
          "durationTicks": 192,
          "midi": 52,
          "name": "E3",
          "ticks": 86016,
          "time": 67.2,
          "velocity": 0.8346456692913385
        },
        {
          "duration": 0.15000000000000568,
          "durationTicks": 192,
          "midi": 53,
          "name": "F3",
          "ticks": 86208,
          "time": 67.35,
          "velocity": 0.8346456692913385
        },
        {
          "duration": 0.29999999999999716,
          "durationTicks": 384,
          "midi": 55,
          "name": "G3",
          "ticks": 86400,
          "time": 67.5,
          "velocity": 0.8346456692913385
        },
        {
          "duration": 0.29999999999999716,
          "durationTicks": 384,
          "midi": 48,
          "name": "C3",
          "ticks": 86784,
          "time": 67.8,
          "velocity": 0.8346456692913385
        },
        {
          "duration": 0.15000000000000568,
          "durationTicks": 192,
          "midi": 52,
          "name": "E3",
          "ticks": 87168,
          "time": 68.1,
          "velocity": 0.8346456692913385
        },
        {
          "duration": 0.14999999999999147,
          "durationTicks": 192,
          "midi": 55,
          "name": "G3",
          "ticks": 87360,
          "time": 68.25,
          "velocity": 0.8346456692913385
        },
        {
          "duration": 0.30000000000001137,
          "durationTicks": 384,
          "midi": 53,
          "name": "F3",
          "ticks": 87552,
          "time": 68.39999999999999,
          "velocity": 0.8346456692913385
        },
        {
          "duration": 0.29999999999999716,
          "durationTicks": 384,
          "midi": 45,
          "name": "A2",
          "ticks": 87936,
          "time": 68.7,
          "velocity": 0.8346456692913385
        },
        {
          "duration": 0.14999999999999147,
          "durationTicks": 192,
          "midi": 50,
          "name": "D3",
          "ticks": 88320,
          "time": 69,
          "velocity": 0.8346456692913385
        },
        {
          "duration": 0.15000000000000568,
          "durationTicks": 192,
          "midi": 52,
          "name": "E3",
          "ticks": 88512,
          "time": 69.14999999999999,
          "velocity": 0.8346456692913385
        },
        {
          "duration": 0.29999999999999716,
          "durationTicks": 384,
          "midi": 53,
          "name": "F3",
          "ticks": 88704,
          "time": 69.3,
          "velocity": 0.8346456692913385
        },
        {
          "duration": 0.29999999999999716,
          "durationTicks": 384,
          "midi": 45,
          "name": "A2",
          "ticks": 89088,
          "time": 69.6,
          "velocity": 0.8346456692913385
        },
        {
          "duration": 0.15000000000000568,
          "durationTicks": 192,
          "midi": 50,
          "name": "D3",
          "ticks": 89472,
          "time": 69.89999999999999,
          "velocity": 0.8346456692913385
        },
        {
          "duration": 0.15000000000000568,
          "durationTicks": 192,
          "midi": 53,
          "name": "F3",
          "ticks": 89664,
          "time": 70.05,
          "velocity": 0.8346456692913385
        },
        {
          "duration": 0.29999999999999716,
          "durationTicks": 384,
          "midi": 52,
          "name": "E3",
          "ticks": 89856,
          "time": 70.2,
          "velocity": 0.8346456692913385
        },
        {
          "duration": 0.29999999999999716,
          "durationTicks": 384,
          "midi": 45,
          "name": "A2",
          "ticks": 90240,
          "time": 70.5,
          "velocity": 0.8346456692913385
        },
        {
          "duration": 0.15000000000000568,
          "durationTicks": 192,
          "midi": 48,
          "name": "C3",
          "ticks": 90624,
          "time": 70.8,
          "velocity": 0.8346456692913385
        },
        {
          "duration": 0.14999999999999147,
          "durationTicks": 192,
          "midi": 50,
          "name": "D3",
          "ticks": 90816,
          "time": 70.95,
          "velocity": 0.8346456692913385
        },
        {
          "duration": 0.29999999999999716,
          "durationTicks": 384,
          "midi": 52,
          "name": "E3",
          "ticks": 91008,
          "time": 71.1,
          "velocity": 0.8346456692913385
        },
        {
          "duration": 0.30000000000001137,
          "durationTicks": 384,
          "midi": 45,
          "name": "A2",
          "ticks": 91392,
          "time": 71.39999999999999,
          "velocity": 0.8346456692913385
        },
        {
          "duration": 0.14999999999999147,
          "durationTicks": 192,
          "midi": 48,
          "name": "C3",
          "ticks": 91776,
          "time": 71.7,
          "velocity": 0.8346456692913385
        },
        {
          "duration": 0.15000000000000568,
          "durationTicks": 192,
          "midi": 50,
          "name": "D3",
          "ticks": 91968,
          "time": 71.85,
          "velocity": 0.8346456692913385
        },
        {
          "duration": 0.29999999999999716,
          "durationTicks": 384,
          "midi": 48,
          "name": "C3",
          "ticks": 92160,
          "time": 72,
          "velocity": 0.8346456692913385
        },
        {
          "duration": 0.29999999999999716,
          "durationTicks": 384,
          "midi": 41,
          "name": "F2",
          "ticks": 92544,
          "time": 72.3,
          "velocity": 0.8346456692913385
        },
        {
          "duration": 0.15000000000000568,
          "durationTicks": 192,
          "midi": 45,
          "name": "A2",
          "ticks": 92928,
          "time": 72.6,
          "velocity": 0.8346456692913385
        },
        {
          "duration": 0.14999999999999147,
          "durationTicks": 192,
          "midi": 47,
          "name": "B2",
          "ticks": 93120,
          "time": 72.75,
          "velocity": 0.8346456692913385
        },
        {
          "duration": 0.30000000000001137,
          "durationTicks": 384,
          "midi": 48,
          "name": "C3",
          "ticks": 93312,
          "time": 72.89999999999999,
          "velocity": 0.8346456692913385
        },
        {
          "duration": 0.29999999999999716,
          "durationTicks": 384,
          "midi": 41,
          "name": "F2",
          "ticks": 93696,
          "time": 73.2,
          "velocity": 0.8346456692913385
        },
        {
          "duration": 0.14999999999999147,
          "durationTicks": 192,
          "midi": 45,
          "name": "A2",
          "ticks": 94080,
          "time": 73.5,
          "velocity": 0.8346456692913385
        },
        {
          "duration": 0.15000000000000568,
          "durationTicks": 192,
          "midi": 47,
          "name": "B2",
          "ticks": 94272,
          "time": 73.64999999999999,
          "velocity": 0.8346456692913385
        },
        {
          "duration": 0.29999999999999716,
          "durationTicks": 384,
          "midi": 48,
          "name": "C3",
          "ticks": 94464,
          "time": 73.8,
          "velocity": 0.8346456692913385
        },
        {
          "duration": 0.29999999999999716,
          "durationTicks": 384,
          "midi": 45,
          "name": "A2",
          "ticks": 94848,
          "time": 74.1,
          "velocity": 0.8346456692913385
        },
        {
          "duration": 0.30000000000001137,
          "durationTicks": 384,
          "midi": 48,
          "name": "C3",
          "ticks": 95232,
          "time": 74.39999999999999,
          "velocity": 0.8346456692913385
        },
        {
          "duration": 0.29999999999999716,
          "durationTicks": 384,
          "midi": 47,
          "name": "B2",
          "ticks": 95616,
          "time": 74.7,
          "velocity": 0.8346456692913385
        },
        {
          "duration": 0.29999999999999716,
          "durationTicks": 384,
          "midi": 43,
          "name": "G2",
          "ticks": 96000,
          "time": 75,
          "velocity": 0.8346456692913385
        },
        {
          "duration": 0.29999999999999716,
          "durationTicks": 384,
          "midi": 47,
          "name": "B2",
          "ticks": 96384,
          "time": 75.3,
          "velocity": 0.8346456692913385
        },
        {
          "duration": 0.29999999999999716,
          "durationTicks": 384,
          "midi": 45,
          "name": "A2",
          "ticks": 96768,
          "time": 75.6,
          "velocity": 0.8346456692913385
        },
        {
          "duration": 0.30000000000001137,
          "durationTicks": 384,
          "midi": 40,
          "name": "E2",
          "ticks": 97152,
          "time": 75.89999999999999,
          "velocity": 0.8346456692913385
        },
        {
          "duration": 0.14999999999999147,
          "durationTicks": 192,
          "midi": 41,
          "name": "F2",
          "ticks": 97536,
          "time": 76.2,
          "velocity": 0.8346456692913385
        },
        {
          "duration": 0.15000000000000568,
          "durationTicks": 192,
          "midi": 43,
          "name": "G2",
          "ticks": 97728,
          "time": 76.35,
          "velocity": 0.8346456692913385
        },
        {
          "duration": 0.29999999999999716,
          "durationTicks": 384,
          "midi": 45,
          "name": "A2",
          "ticks": 97920,
          "time": 76.5,
          "velocity": 0.8346456692913385
        },
        {
          "duration": 0.29999999999999716,
          "durationTicks": 384,
          "midi": 40,
          "name": "E2",
          "ticks": 98304,
          "time": 76.8,
          "velocity": 0.8346456692913385
        },
        {
          "duration": 0.15000000000000568,
          "durationTicks": 192,
          "midi": 41,
          "name": "F2",
          "ticks": 98688,
          "time": 77.1,
          "velocity": 0.8346456692913385
        },
        {
          "duration": 0.14999999999999147,
          "durationTicks": 192,
          "midi": 43,
          "name": "G2",
          "ticks": 98880,
          "time": 77.25,
          "velocity": 0.8346456692913385
        },
        {
          "duration": 0.30000000000001137,
          "durationTicks": 384,
          "midi": 57,
          "name": "A3",
          "ticks": 99072,
          "time": 77.39999999999999,
          "velocity": 0.8346456692913385
        },
        {
          "duration": 0.29999999999999716,
          "durationTicks": 384,
          "midi": 52,
          "name": "E3",
          "ticks": 99456,
          "time": 77.7,
          "velocity": 0.8346456692913385
        },
        {
          "duration": 0.14999999999999147,
          "durationTicks": 192,
          "midi": 53,
          "name": "F3",
          "ticks": 99840,
          "time": 78,
          "velocity": 0.8346456692913385
        },
        {
          "duration": 0.15000000000000568,
          "durationTicks": 192,
          "midi": 55,
          "name": "G3",
          "ticks": 100032,
          "time": 78.14999999999999,
          "velocity": 0.8346456692913385
        },
        {
          "duration": 0.29999999999999716,
          "durationTicks": 384,
          "midi": 57,
          "name": "A3",
          "ticks": 100224,
          "time": 78.3,
          "velocity": 0.8346456692913385
        },
        {
          "duration": 0.29999999999999716,
          "durationTicks": 384,
          "midi": 52,
          "name": "E3",
          "ticks": 100608,
          "time": 78.6,
          "velocity": 0.8346456692913385
        },
        {
          "duration": 0.15000000000000568,
          "durationTicks": 192,
          "midi": 53,
          "name": "F3",
          "ticks": 100992,
          "time": 78.89999999999999,
          "velocity": 0.8346456692913385
        },
        {
          "duration": 0.15000000000000568,
          "durationTicks": 192,
          "midi": 55,
          "name": "G3",
          "ticks": 101184,
          "time": 79.05,
          "velocity": 0.8346456692913385
        },
        {
          "duration": 0.29999999999999716,
          "durationTicks": 384,
          "midi": 57,
          "name": "A3",
          "ticks": 101376,
          "time": 79.2,
          "velocity": 0.8346456692913385
        },
        {
          "duration": 0.29999999999999716,
          "durationTicks": 384,
          "midi": 64,
          "name": "E4",
          "ticks": 101760,
          "time": 79.5,
          "velocity": 0.8346456692913385
        },
        {
          "duration": 0.15000000000000568,
          "durationTicks": 192,
          "midi": 65,
          "name": "F4",
          "ticks": 102144,
          "time": 79.8,
          "velocity": 0.8346456692913385
        },
        {
          "duration": 0.14999999999999147,
          "durationTicks": 192,
          "midi": 67,
          "name": "G4",
          "ticks": 102336,
          "time": 79.95,
          "velocity": 0.8346456692913385
        },
        {
          "duration": 0.29999999999999716,
          "durationTicks": 384,
          "midi": 69,
          "name": "A4",
          "ticks": 102528,
          "time": 80.1,
          "velocity": 0.8346456692913385
        },
        {
          "duration": 0.30000000000001137,
          "durationTicks": 384,
          "midi": 64,
          "name": "E4",
          "ticks": 102912,
          "time": 80.39999999999999,
          "velocity": 0.8346456692913385
        },
        {
          "duration": 0.14999999999999147,
          "durationTicks": 192,
          "midi": 65,
          "name": "F4",
          "ticks": 103296,
          "time": 80.7,
          "velocity": 0.8346456692913385
        },
        {
          "duration": 0.15000000000000568,
          "durationTicks": 192,
          "midi": 67,
          "name": "G4",
          "ticks": 103488,
          "time": 80.85,
          "velocity": 0.8346456692913385
        },
        {
          "duration": 0.29999999999999716,
          "durationTicks": 384,
          "midi": 69,
          "name": "A4",
          "ticks": 103680,
          "time": 81,
          "velocity": 0.8346456692913385
        },
        {
          "duration": 0.29999999999999716,
          "durationTicks": 384,
          "midi": 64,
          "name": "E4",
          "ticks": 104064,
          "time": 81.3,
          "velocity": 0.8346456692913385
        },
        {
          "duration": 0.15000000000000568,
          "durationTicks": 192,
          "midi": 65,
          "name": "F4",
          "ticks": 104448,
          "time": 81.6,
          "velocity": 0.8346456692913385
        },
        {
          "duration": 0.14999999999999147,
          "durationTicks": 192,
          "midi": 67,
          "name": "G4",
          "ticks": 104640,
          "time": 81.75,
          "velocity": 0.8346456692913385
        },
        {
          "duration": 0.9000000000000057,
          "durationTicks": 1152,
          "midi": 69,
          "name": "A4",
          "ticks": 104832,
          "time": 81.89999999999999,
          "velocity": 0.8346456692913385
        }
      ]
    },
    {
      "channel": 2,
      "controlChanges": {
        "7": [
          {
            "number": 7,
            "ticks": 0,
            "time": 0,
            "value": 0.7874015748031497
          }
        ]
      },
      "pitchBends": [],
      "instrument": {
        "family": "guitar",
        "name": "acoustic guitar (nylon)",
        "number": 24
      },
      "name": "",
      "notes": [
        {
          "duration": 1.7999999999999998,
          "durationTicks": 2304,
          "midi": 45,
          "name": "A2",
          "ticks": 0,
          "time": 0,
          "velocity": 0.5118110236220472
        },
        {
          "duration": 1.7999999999999998,
          "durationTicks": 2304,
          "midi": 52,
          "name": "E3",
          "ticks": 0,
          "time": 0,
          "velocity": 0.5118110236220472
        },
        {
          "duration": 1.7999999999999998,
          "durationTicks": 2304,
          "midi": 57,
          "name": "A3",
          "ticks": 0,
          "time": 0,
          "velocity": 0.5118110236220472
        },
        {
          "duration": 1.7999999999999998,
          "durationTicks": 2304,
          "midi": 60,
          "name": "C4",
          "ticks": 0,
          "time": 0,
          "velocity": 0.5118110236220472
        },
        {
          "duration": 1.7999999999999998,
          "durationTicks": 2304,
          "midi": 64,
          "name": "E4",
          "ticks": 0,
          "time": 0,
          "velocity": 0.5118110236220472
        },
        {
          "duration": 0.4500000000000002,
          "durationTicks": 576,
          "midi": 64,
          "name": "E4",
          "ticks": 2304,
          "time": 1.7999999999999998,
          "velocity": 0.5118110236220472
        },
        {
          "duration": 0.4500000000000002,
          "durationTicks": 576,
          "midi": 60,
          "name": "C4",
          "ticks": 2304,
          "time": 1.7999999999999998,
          "velocity": 0.5118110236220472
        },
        {
          "duration": 0.4500000000000002,
          "durationTicks": 576,
          "midi": 57,
          "name": "A3",
          "ticks": 2304,
          "time": 1.7999999999999998,
          "velocity": 0.5118110236220472
        },
        {
          "duration": 0.4500000000000002,
          "durationTicks": 576,
          "midi": 52,
          "name": "E3",
          "ticks": 2304,
          "time": 1.7999999999999998,
          "velocity": 0.5118110236220472
        },
        {
          "duration": 0.4500000000000002,
          "durationTicks": 576,
          "midi": 45,
          "name": "A2",
          "ticks": 2304,
          "time": 1.7999999999999998,
          "velocity": 0.5118110236220472
        },
        {
          "duration": 0.44999999999999973,
          "durationTicks": 576,
          "midi": 45,
          "name": "A2",
          "ticks": 2880,
          "time": 2.25,
          "velocity": 0.5118110236220472
        },
        {
          "duration": 0.44999999999999973,
          "durationTicks": 576,
          "midi": 52,
          "name": "E3",
          "ticks": 2880,
          "time": 2.25,
          "velocity": 0.5118110236220472
        },
        {
          "duration": 0.44999999999999973,
          "durationTicks": 576,
          "midi": 57,
          "name": "A3",
          "ticks": 2880,
          "time": 2.25,
          "velocity": 0.5118110236220472
        },
        {
          "duration": 0.44999999999999973,
          "durationTicks": 576,
          "midi": 60,
          "name": "C4",
          "ticks": 2880,
          "time": 2.25,
          "velocity": 0.5118110236220472
        },
        {
          "duration": 0.44999999999999973,
          "durationTicks": 576,
          "midi": 64,
          "name": "E4",
          "ticks": 2880,
          "time": 2.25,
          "velocity": 0.5118110236220472
        },
        {
          "duration": 0.4500000000000002,
          "durationTicks": 576,
          "midi": 45,
          "name": "A2",
          "ticks": 3456,
          "time": 2.6999999999999997,
          "velocity": 0.5118110236220472
        },
        {
          "duration": 0.4500000000000002,
          "durationTicks": 576,
          "midi": 52,
          "name": "E3",
          "ticks": 3456,
          "time": 2.6999999999999997,
          "velocity": 0.5118110236220472
        },
        {
          "duration": 0.4500000000000002,
          "durationTicks": 576,
          "midi": 57,
          "name": "A3",
          "ticks": 3456,
          "time": 2.6999999999999997,
          "velocity": 0.5118110236220472
        },
        {
          "duration": 0.4500000000000002,
          "durationTicks": 576,
          "midi": 60,
          "name": "C4",
          "ticks": 3456,
          "time": 2.6999999999999997,
          "velocity": 0.5118110236220472
        },
        {
          "duration": 0.4500000000000002,
          "durationTicks": 576,
          "midi": 64,
          "name": "E4",
          "ticks": 3456,
          "time": 2.6999999999999997,
          "velocity": 0.5118110236220472
        },
        {
          "duration": 0.44999999999999973,
          "durationTicks": 576,
          "midi": 64,
          "name": "E4",
          "ticks": 4032,
          "time": 3.15,
          "velocity": 0.5118110236220472
        },
        {
          "duration": 0.44999999999999973,
          "durationTicks": 576,
          "midi": 60,
          "name": "C4",
          "ticks": 4032,
          "time": 3.15,
          "velocity": 0.5118110236220472
        },
        {
          "duration": 0.44999999999999973,
          "durationTicks": 576,
          "midi": 57,
          "name": "A3",
          "ticks": 4032,
          "time": 3.15,
          "velocity": 0.5118110236220472
        },
        {
          "duration": 0.44999999999999973,
          "durationTicks": 576,
          "midi": 52,
          "name": "E3",
          "ticks": 4032,
          "time": 3.15,
          "velocity": 0.5118110236220472
        },
        {
          "duration": 0.44999999999999973,
          "durationTicks": 576,
          "midi": 45,
          "name": "A2",
          "ticks": 4032,
          "time": 3.15,
          "velocity": 0.5118110236220472
        },
        {
          "duration": 1.7999999999999998,
          "durationTicks": 2304,
          "midi": 45,
          "name": "A2",
          "ticks": 4608,
          "time": 3.5999999999999996,
          "velocity": 0.5118110236220472
        },
        {
          "duration": 1.7999999999999998,
          "durationTicks": 2304,
          "midi": 52,
          "name": "E3",
          "ticks": 4608,
          "time": 3.5999999999999996,
          "velocity": 0.5118110236220472
        },
        {
          "duration": 1.7999999999999998,
          "durationTicks": 2304,
          "midi": 57,
          "name": "A3",
          "ticks": 4608,
          "time": 3.5999999999999996,
          "velocity": 0.5118110236220472
        },
        {
          "duration": 1.7999999999999998,
          "durationTicks": 2304,
          "midi": 60,
          "name": "C4",
          "ticks": 4608,
          "time": 3.5999999999999996,
          "velocity": 0.5118110236220472
        },
        {
          "duration": 1.7999999999999998,
          "durationTicks": 2304,
          "midi": 64,
          "name": "E4",
          "ticks": 4608,
          "time": 3.5999999999999996,
          "velocity": 0.5118110236220472
        },
        {
          "duration": 1.7999999999999998,
          "durationTicks": 2304,
          "midi": 45,
          "name": "A2",
          "ticks": 6912,
          "time": 5.3999999999999995,
          "velocity": 0.5118110236220472
        },
        {
          "duration": 1.7999999999999998,
          "durationTicks": 2304,
          "midi": 52,
          "name": "E3",
          "ticks": 6912,
          "time": 5.3999999999999995,
          "velocity": 0.5118110236220472
        },
        {
          "duration": 1.7999999999999998,
          "durationTicks": 2304,
          "midi": 57,
          "name": "A3",
          "ticks": 6912,
          "time": 5.3999999999999995,
          "velocity": 0.5118110236220472
        },
        {
          "duration": 1.7999999999999998,
          "durationTicks": 2304,
          "midi": 60,
          "name": "C4",
          "ticks": 6912,
          "time": 5.3999999999999995,
          "velocity": 0.5118110236220472
        },
        {
          "duration": 1.7999999999999998,
          "durationTicks": 2304,
          "midi": 64,
          "name": "E4",
          "ticks": 6912,
          "time": 5.3999999999999995,
          "velocity": 0.5118110236220472
        },
        {
          "duration": 0.4500000000000002,
          "durationTicks": 576,
          "midi": 64,
          "name": "E4",
          "ticks": 9216,
          "time": 7.199999999999999,
          "velocity": 0.5118110236220472
        },
        {
          "duration": 0.4500000000000002,
          "durationTicks": 576,
          "midi": 60,
          "name": "C4",
          "ticks": 9216,
          "time": 7.199999999999999,
          "velocity": 0.5118110236220472
        },
        {
          "duration": 0.4500000000000002,
          "durationTicks": 576,
          "midi": 57,
          "name": "A3",
          "ticks": 9216,
          "time": 7.199999999999999,
          "velocity": 0.5118110236220472
        },
        {
          "duration": 0.4500000000000002,
          "durationTicks": 576,
          "midi": 52,
          "name": "E3",
          "ticks": 9216,
          "time": 7.199999999999999,
          "velocity": 0.5118110236220472
        },
        {
          "duration": 0.4500000000000002,
          "durationTicks": 576,
          "midi": 45,
          "name": "A2",
          "ticks": 9216,
          "time": 7.199999999999999,
          "velocity": 0.5118110236220472
        },
        {
          "duration": 0.4500000000000002,
          "durationTicks": 576,
          "midi": 45,
          "name": "A2",
          "ticks": 9792,
          "time": 7.6499999999999995,
          "velocity": 0.5118110236220472
        },
        {
          "duration": 0.4500000000000002,
          "durationTicks": 576,
          "midi": 52,
          "name": "E3",
          "ticks": 9792,
          "time": 7.6499999999999995,
          "velocity": 0.5118110236220472
        },
        {
          "duration": 0.4500000000000002,
          "durationTicks": 576,
          "midi": 57,
          "name": "A3",
          "ticks": 9792,
          "time": 7.6499999999999995,
          "velocity": 0.5118110236220472
        },
        {
          "duration": 0.4500000000000002,
          "durationTicks": 576,
          "midi": 60,
          "name": "C4",
          "ticks": 9792,
          "time": 7.6499999999999995,
          "velocity": 0.5118110236220472
        },
        {
          "duration": 0.4500000000000002,
          "durationTicks": 576,
          "midi": 64,
          "name": "E4",
          "ticks": 9792,
          "time": 7.6499999999999995,
          "velocity": 0.5118110236220472
        },
        {
          "duration": 0.4499999999999993,
          "durationTicks": 576,
          "midi": 45,
          "name": "A2",
          "ticks": 10368,
          "time": 8.1,
          "velocity": 0.5118110236220472
        },
        {
          "duration": 0.4499999999999993,
          "durationTicks": 576,
          "midi": 52,
          "name": "E3",
          "ticks": 10368,
          "time": 8.1,
          "velocity": 0.5118110236220472
        },
        {
          "duration": 0.4499999999999993,
          "durationTicks": 576,
          "midi": 57,
          "name": "A3",
          "ticks": 10368,
          "time": 8.1,
          "velocity": 0.5118110236220472
        },
        {
          "duration": 0.4499999999999993,
          "durationTicks": 576,
          "midi": 60,
          "name": "C4",
          "ticks": 10368,
          "time": 8.1,
          "velocity": 0.5118110236220472
        },
        {
          "duration": 0.4499999999999993,
          "durationTicks": 576,
          "midi": 64,
          "name": "E4",
          "ticks": 10368,
          "time": 8.1,
          "velocity": 0.5118110236220472
        },
        {
          "duration": 0.45000000000000107,
          "durationTicks": 576,
          "midi": 64,
          "name": "E4",
          "ticks": 10944,
          "time": 8.549999999999999,
          "velocity": 0.5118110236220472
        },
        {
          "duration": 0.45000000000000107,
          "durationTicks": 576,
          "midi": 60,
          "name": "C4",
          "ticks": 10944,
          "time": 8.549999999999999,
          "velocity": 0.5118110236220472
        },
        {
          "duration": 0.45000000000000107,
          "durationTicks": 576,
          "midi": 57,
          "name": "A3",
          "ticks": 10944,
          "time": 8.549999999999999,
          "velocity": 0.5118110236220472
        },
        {
          "duration": 0.45000000000000107,
          "durationTicks": 576,
          "midi": 52,
          "name": "E3",
          "ticks": 10944,
          "time": 8.549999999999999,
          "velocity": 0.5118110236220472
        },
        {
          "duration": 0.45000000000000107,
          "durationTicks": 576,
          "midi": 45,
          "name": "A2",
          "ticks": 10944,
          "time": 8.549999999999999,
          "velocity": 0.5118110236220472
        },
        {
          "duration": 0.4499999999999993,
          "durationTicks": 576,
          "midi": 45,
          "name": "A2",
          "ticks": 11520,
          "time": 9,
          "velocity": 0.5118110236220472
        },
        {
          "duration": 0.4499999999999993,
          "durationTicks": 576,
          "midi": 52,
          "name": "E3",
          "ticks": 11520,
          "time": 9,
          "velocity": 0.5118110236220472
        },
        {
          "duration": 0.4499999999999993,
          "durationTicks": 576,
          "midi": 57,
          "name": "A3",
          "ticks": 11520,
          "time": 9,
          "velocity": 0.5118110236220472
        },
        {
          "duration": 0.4499999999999993,
          "durationTicks": 576,
          "midi": 60,
          "name": "C4",
          "ticks": 11520,
          "time": 9,
          "velocity": 0.5118110236220472
        },
        {
          "duration": 0.4499999999999993,
          "durationTicks": 576,
          "midi": 64,
          "name": "E4",
          "ticks": 11520,
          "time": 9,
          "velocity": 0.5118110236220472
        },
        {
          "duration": 0.45000000000000107,
          "durationTicks": 576,
          "midi": 45,
          "name": "A2",
          "ticks": 12096,
          "time": 9.45,
          "velocity": 0.5118110236220472
        },
        {
          "duration": 0.45000000000000107,
          "durationTicks": 576,
          "midi": 52,
          "name": "E3",
          "ticks": 12096,
          "time": 9.45,
          "velocity": 0.5118110236220472
        },
        {
          "duration": 0.45000000000000107,
          "durationTicks": 576,
          "midi": 57,
          "name": "A3",
          "ticks": 12096,
          "time": 9.45,
          "velocity": 0.5118110236220472
        },
        {
          "duration": 0.45000000000000107,
          "durationTicks": 576,
          "midi": 60,
          "name": "C4",
          "ticks": 12096,
          "time": 9.45,
          "velocity": 0.5118110236220472
        },
        {
          "duration": 0.45000000000000107,
          "durationTicks": 576,
          "midi": 64,
          "name": "E4",
          "ticks": 12096,
          "time": 9.45,
          "velocity": 0.5118110236220472
        },
        {
          "duration": 0.4499999999999993,
          "durationTicks": 576,
          "midi": 64,
          "name": "E4",
          "ticks": 12672,
          "time": 9.9,
          "velocity": 0.5118110236220472
        },
        {
          "duration": 0.4499999999999993,
          "durationTicks": 576,
          "midi": 60,
          "name": "C4",
          "ticks": 12672,
          "time": 9.9,
          "velocity": 0.5118110236220472
        },
        {
          "duration": 0.4499999999999993,
          "durationTicks": 576,
          "midi": 57,
          "name": "A3",
          "ticks": 12672,
          "time": 9.9,
          "velocity": 0.5118110236220472
        },
        {
          "duration": 0.4499999999999993,
          "durationTicks": 576,
          "midi": 52,
          "name": "E3",
          "ticks": 12672,
          "time": 9.9,
          "velocity": 0.5118110236220472
        },
        {
          "duration": 0.4499999999999993,
          "durationTicks": 576,
          "midi": 45,
          "name": "A2",
          "ticks": 12672,
          "time": 9.9,
          "velocity": 0.5118110236220472
        },
        {
          "duration": 0.4499999999999993,
          "durationTicks": 576,
          "midi": 45,
          "name": "A2",
          "ticks": 13248,
          "time": 10.35,
          "velocity": 0.5118110236220472
        },
        {
          "duration": 0.4499999999999993,
          "durationTicks": 576,
          "midi": 52,
          "name": "E3",
          "ticks": 13248,
          "time": 10.35,
          "velocity": 0.5118110236220472
        },
        {
          "duration": 0.4499999999999993,
          "durationTicks": 576,
          "midi": 57,
          "name": "A3",
          "ticks": 13248,
          "time": 10.35,
          "velocity": 0.5118110236220472
        },
        {
          "duration": 0.4499999999999993,
          "durationTicks": 576,
          "midi": 60,
          "name": "C4",
          "ticks": 13248,
          "time": 10.35,
          "velocity": 0.5118110236220472
        },
        {
          "duration": 0.4499999999999993,
          "durationTicks": 576,
          "midi": 64,
          "name": "E4",
          "ticks": 13248,
          "time": 10.35,
          "velocity": 0.5118110236220472
        },
        {
          "duration": 0.45000000000000107,
          "durationTicks": 576,
          "midi": 52,
          "name": "E3",
          "ticks": 13824,
          "time": 10.799999999999999,
          "velocity": 0.5118110236220472
        },
        {
          "duration": 0.45000000000000107,
          "durationTicks": 576,
          "midi": 59,
          "name": "B3",
          "ticks": 13824,
          "time": 10.799999999999999,
          "velocity": 0.5118110236220472
        },
        {
          "duration": 0.45000000000000107,
          "durationTicks": 576,
          "midi": 56,
          "name": "G#3",
          "ticks": 13824,
          "time": 10.799999999999999,
          "velocity": 0.5118110236220472
        },
        {
          "duration": 0.45000000000000107,
          "durationTicks": 576,
          "midi": 64,
          "name": "E4",
          "ticks": 13824,
          "time": 10.799999999999999,
          "velocity": 0.5118110236220472
        },
        {
          "duration": 0.45000000000000107,
          "durationTicks": 576,
          "midi": 47,
          "name": "B2",
          "ticks": 13824,
          "time": 10.799999999999999,
          "velocity": 0.5118110236220472
        },
        {
          "duration": 0.45000000000000107,
          "durationTicks": 576,
          "midi": 40,
          "name": "E2",
          "ticks": 13824,
          "time": 10.799999999999999,
          "velocity": 0.5118110236220472
        },
        {
          "duration": 0.4499999999999993,
          "durationTicks": 576,
          "midi": 40,
          "name": "E2",
          "ticks": 14400,
          "time": 11.25,
          "velocity": 0.5118110236220472
        },
        {
          "duration": 0.4499999999999993,
          "durationTicks": 576,
          "midi": 47,
          "name": "B2",
          "ticks": 14400,
          "time": 11.25,
          "velocity": 0.5118110236220472
        },
        {
          "duration": 0.4499999999999993,
          "durationTicks": 576,
          "midi": 64,
          "name": "E4",
          "ticks": 14400,
          "time": 11.25,
          "velocity": 0.5118110236220472
        },
        {
          "duration": 0.4499999999999993,
          "durationTicks": 576,
          "midi": 56,
          "name": "G#3",
          "ticks": 14400,
          "time": 11.25,
          "velocity": 0.5118110236220472
        },
        {
          "duration": 0.4499999999999993,
          "durationTicks": 576,
          "midi": 59,
          "name": "B3",
          "ticks": 14400,
          "time": 11.25,
          "velocity": 0.5118110236220472
        },
        {
          "duration": 0.4499999999999993,
          "durationTicks": 576,
          "midi": 52,
          "name": "E3",
          "ticks": 14400,
          "time": 11.25,
          "velocity": 0.5118110236220472
        },
        {
          "duration": 0.45000000000000107,
          "durationTicks": 576,
          "midi": 52,
          "name": "E3",
          "ticks": 14976,
          "time": 11.7,
          "velocity": 0.5118110236220472
        },
        {
          "duration": 0.45000000000000107,
          "durationTicks": 576,
          "midi": 59,
          "name": "B3",
          "ticks": 14976,
          "time": 11.7,
          "velocity": 0.5118110236220472
        },
        {
          "duration": 0.45000000000000107,
          "durationTicks": 576,
          "midi": 56,
          "name": "G#3",
          "ticks": 14976,
          "time": 11.7,
          "velocity": 0.5118110236220472
        },
        {
          "duration": 0.45000000000000107,
          "durationTicks": 576,
          "midi": 64,
          "name": "E4",
          "ticks": 14976,
          "time": 11.7,
          "velocity": 0.5118110236220472
        },
        {
          "duration": 0.45000000000000107,
          "durationTicks": 576,
          "midi": 47,
          "name": "B2",
          "ticks": 14976,
          "time": 11.7,
          "velocity": 0.5118110236220472
        },
        {
          "duration": 0.45000000000000107,
          "durationTicks": 576,
          "midi": 40,
          "name": "E2",
          "ticks": 14976,
          "time": 11.7,
          "velocity": 0.5118110236220472
        },
        {
          "duration": 0.4499999999999993,
          "durationTicks": 576,
          "midi": 52,
          "name": "E3",
          "ticks": 15552,
          "time": 12.15,
          "velocity": 0.5118110236220472
        },
        {
          "duration": 0.4499999999999993,
          "durationTicks": 576,
          "midi": 59,
          "name": "B3",
          "ticks": 15552,
          "time": 12.15,
          "velocity": 0.5118110236220472
        },
        {
          "duration": 0.4499999999999993,
          "durationTicks": 576,
          "midi": 56,
          "name": "G#3",
          "ticks": 15552,
          "time": 12.15,
          "velocity": 0.5118110236220472
        },
        {
          "duration": 0.4499999999999993,
          "durationTicks": 576,
          "midi": 64,
          "name": "E4",
          "ticks": 15552,
          "time": 12.15,
          "velocity": 0.5118110236220472
        },
        {
          "duration": 0.4499999999999993,
          "durationTicks": 576,
          "midi": 47,
          "name": "B2",
          "ticks": 15552,
          "time": 12.15,
          "velocity": 0.5118110236220472
        },
        {
          "duration": 0.4499999999999993,
          "durationTicks": 576,
          "midi": 40,
          "name": "E2",
          "ticks": 15552,
          "time": 12.15,
          "velocity": 0.5118110236220472
        },
        {
          "duration": 0.4499999999999993,
          "durationTicks": 576,
          "midi": 40,
          "name": "E2",
          "ticks": 16128,
          "time": 12.6,
          "velocity": 0.5118110236220472
        },
        {
          "duration": 0.4499999999999993,
          "durationTicks": 576,
          "midi": 47,
          "name": "B2",
          "ticks": 16128,
          "time": 12.6,
          "velocity": 0.5118110236220472
        },
        {
          "duration": 0.4499999999999993,
          "durationTicks": 576,
          "midi": 64,
          "name": "E4",
          "ticks": 16128,
          "time": 12.6,
          "velocity": 0.5118110236220472
        },
        {
          "duration": 0.4499999999999993,
          "durationTicks": 576,
          "midi": 56,
          "name": "G#3",
          "ticks": 16128,
          "time": 12.6,
          "velocity": 0.5118110236220472
        },
        {
          "duration": 0.4499999999999993,
          "durationTicks": 576,
          "midi": 59,
          "name": "B3",
          "ticks": 16128,
          "time": 12.6,
          "velocity": 0.5118110236220472
        },
        {
          "duration": 0.4499999999999993,
          "durationTicks": 576,
          "midi": 52,
          "name": "E3",
          "ticks": 16128,
          "time": 12.6,
          "velocity": 0.5118110236220472
        },
        {
          "duration": 0.45000000000000107,
          "durationTicks": 576,
          "midi": 52,
          "name": "E3",
          "ticks": 16704,
          "time": 13.049999999999999,
          "velocity": 0.5118110236220472
        },
        {
          "duration": 0.45000000000000107,
          "durationTicks": 576,
          "midi": 59,
          "name": "B3",
          "ticks": 16704,
          "time": 13.049999999999999,
          "velocity": 0.5118110236220472
        },
        {
          "duration": 0.45000000000000107,
          "durationTicks": 576,
          "midi": 56,
          "name": "G#3",
          "ticks": 16704,
          "time": 13.049999999999999,
          "velocity": 0.5118110236220472
        },
        {
          "duration": 0.45000000000000107,
          "durationTicks": 576,
          "midi": 64,
          "name": "E4",
          "ticks": 16704,
          "time": 13.049999999999999,
          "velocity": 0.5118110236220472
        },
        {
          "duration": 0.45000000000000107,
          "durationTicks": 576,
          "midi": 47,
          "name": "B2",
          "ticks": 16704,
          "time": 13.049999999999999,
          "velocity": 0.5118110236220472
        },
        {
          "duration": 0.45000000000000107,
          "durationTicks": 576,
          "midi": 40,
          "name": "E2",
          "ticks": 16704,
          "time": 13.049999999999999,
          "velocity": 0.5118110236220472
        },
        {
          "duration": 0.4499999999999993,
          "durationTicks": 576,
          "midi": 40,
          "name": "E2",
          "ticks": 17280,
          "time": 13.5,
          "velocity": 0.5118110236220472
        },
        {
          "duration": 0.4499999999999993,
          "durationTicks": 576,
          "midi": 47,
          "name": "B2",
          "ticks": 17280,
          "time": 13.5,
          "velocity": 0.5118110236220472
        },
        {
          "duration": 0.4499999999999993,
          "durationTicks": 576,
          "midi": 64,
          "name": "E4",
          "ticks": 17280,
          "time": 13.5,
          "velocity": 0.5118110236220472
        },
        {
          "duration": 0.4499999999999993,
          "durationTicks": 576,
          "midi": 56,
          "name": "G#3",
          "ticks": 17280,
          "time": 13.5,
          "velocity": 0.5118110236220472
        },
        {
          "duration": 0.4499999999999993,
          "durationTicks": 576,
          "midi": 59,
          "name": "B3",
          "ticks": 17280,
          "time": 13.5,
          "velocity": 0.5118110236220472
        },
        {
          "duration": 0.4499999999999993,
          "durationTicks": 576,
          "midi": 52,
          "name": "E3",
          "ticks": 17280,
          "time": 13.5,
          "velocity": 0.5118110236220472
        },
        {
          "duration": 0.4499999999999993,
          "durationTicks": 576,
          "midi": 52,
          "name": "E3",
          "ticks": 17856,
          "time": 13.95,
          "velocity": 0.5118110236220472
        },
        {
          "duration": 0.4499999999999993,
          "durationTicks": 576,
          "midi": 59,
          "name": "B3",
          "ticks": 17856,
          "time": 13.95,
          "velocity": 0.5118110236220472
        },
        {
          "duration": 0.4499999999999993,
          "durationTicks": 576,
          "midi": 56,
          "name": "G#3",
          "ticks": 17856,
          "time": 13.95,
          "velocity": 0.5118110236220472
        },
        {
          "duration": 0.4499999999999993,
          "durationTicks": 576,
          "midi": 64,
          "name": "E4",
          "ticks": 17856,
          "time": 13.95,
          "velocity": 0.5118110236220472
        },
        {
          "duration": 0.4499999999999993,
          "durationTicks": 576,
          "midi": 47,
          "name": "B2",
          "ticks": 17856,
          "time": 13.95,
          "velocity": 0.5118110236220472
        },
        {
          "duration": 0.4499999999999993,
          "durationTicks": 576,
          "midi": 40,
          "name": "E2",
          "ticks": 17856,
          "time": 13.95,
          "velocity": 0.5118110236220472
        },
        {
          "duration": 0.45000000000000107,
          "durationTicks": 576,
          "midi": 67,
          "name": "G4",
          "ticks": 18432,
          "time": 14.399999999999999,
          "velocity": 0.5118110236220472
        },
        {
          "duration": 0.45000000000000107,
          "durationTicks": 576,
          "midi": 59,
          "name": "B3",
          "ticks": 18432,
          "time": 14.399999999999999,
          "velocity": 0.5118110236220472
        },
        {
          "duration": 0.45000000000000107,
          "durationTicks": 576,
          "midi": 55,
          "name": "G3",
          "ticks": 18432,
          "time": 14.399999999999999,
          "velocity": 0.5118110236220472
        },
        {
          "duration": 0.45000000000000107,
          "durationTicks": 576,
          "midi": 50,
          "name": "D3",
          "ticks": 18432,
          "time": 14.399999999999999,
          "velocity": 0.5118110236220472
        },
        {
          "duration": 0.45000000000000107,
          "durationTicks": 576,
          "midi": 47,
          "name": "B2",
          "ticks": 18432,
          "time": 14.399999999999999,
          "velocity": 0.5118110236220472
        },
        {
          "duration": 0.45000000000000107,
          "durationTicks": 576,
          "midi": 43,
          "name": "G2",
          "ticks": 18432,
          "time": 14.399999999999999,
          "velocity": 0.5118110236220472
        },
        {
          "duration": 0.4499999999999993,
          "durationTicks": 576,
          "midi": 43,
          "name": "G2",
          "ticks": 19008,
          "time": 14.85,
          "velocity": 0.5118110236220472
        },
        {
          "duration": 0.4499999999999993,
          "durationTicks": 576,
          "midi": 47,
          "name": "B2",
          "ticks": 19008,
          "time": 14.85,
          "velocity": 0.5118110236220472
        },
        {
          "duration": 0.4499999999999993,
          "durationTicks": 576,
          "midi": 50,
          "name": "D3",
          "ticks": 19008,
          "time": 14.85,
          "velocity": 0.5118110236220472
        },
        {
          "duration": 0.4499999999999993,
          "durationTicks": 576,
          "midi": 55,
          "name": "G3",
          "ticks": 19008,
          "time": 14.85,
          "velocity": 0.5118110236220472
        },
        {
          "duration": 0.4499999999999993,
          "durationTicks": 576,
          "midi": 59,
          "name": "B3",
          "ticks": 19008,
          "time": 14.85,
          "velocity": 0.5118110236220472
        },
        {
          "duration": 0.4499999999999993,
          "durationTicks": 576,
          "midi": 67,
          "name": "G4",
          "ticks": 19008,
          "time": 14.85,
          "velocity": 0.5118110236220472
        },
        {
          "duration": 0.45000000000000107,
          "durationTicks": 576,
          "midi": 67,
          "name": "G4",
          "ticks": 19584,
          "time": 15.299999999999999,
          "velocity": 0.5118110236220472
        },
        {
          "duration": 0.45000000000000107,
          "durationTicks": 576,
          "midi": 59,
          "name": "B3",
          "ticks": 19584,
          "time": 15.299999999999999,
          "velocity": 0.5118110236220472
        },
        {
          "duration": 0.45000000000000107,
          "durationTicks": 576,
          "midi": 55,
          "name": "G3",
          "ticks": 19584,
          "time": 15.299999999999999,
          "velocity": 0.5118110236220472
        },
        {
          "duration": 0.45000000000000107,
          "durationTicks": 576,
          "midi": 50,
          "name": "D3",
          "ticks": 19584,
          "time": 15.299999999999999,
          "velocity": 0.5118110236220472
        },
        {
          "duration": 0.45000000000000107,
          "durationTicks": 576,
          "midi": 47,
          "name": "B2",
          "ticks": 19584,
          "time": 15.299999999999999,
          "velocity": 0.5118110236220472
        },
        {
          "duration": 0.45000000000000107,
          "durationTicks": 576,
          "midi": 43,
          "name": "G2",
          "ticks": 19584,
          "time": 15.299999999999999,
          "velocity": 0.5118110236220472
        },
        {
          "duration": 0.4499999999999993,
          "durationTicks": 576,
          "midi": 43,
          "name": "G2",
          "ticks": 20160,
          "time": 15.75,
          "velocity": 0.5118110236220472
        },
        {
          "duration": 0.4499999999999993,
          "durationTicks": 576,
          "midi": 47,
          "name": "B2",
          "ticks": 20160,
          "time": 15.75,
          "velocity": 0.5118110236220472
        },
        {
          "duration": 0.4499999999999993,
          "durationTicks": 576,
          "midi": 50,
          "name": "D3",
          "ticks": 20160,
          "time": 15.75,
          "velocity": 0.5118110236220472
        },
        {
          "duration": 0.4499999999999993,
          "durationTicks": 576,
          "midi": 55,
          "name": "G3",
          "ticks": 20160,
          "time": 15.75,
          "velocity": 0.5118110236220472
        },
        {
          "duration": 0.4499999999999993,
          "durationTicks": 576,
          "midi": 59,
          "name": "B3",
          "ticks": 20160,
          "time": 15.75,
          "velocity": 0.5118110236220472
        },
        {
          "duration": 0.4499999999999993,
          "durationTicks": 576,
          "midi": 67,
          "name": "G4",
          "ticks": 20160,
          "time": 15.75,
          "velocity": 0.5118110236220472
        },
        {
          "duration": 0.4499999999999993,
          "durationTicks": 576,
          "midi": 67,
          "name": "G4",
          "ticks": 20736,
          "time": 16.2,
          "velocity": 0.5118110236220472
        },
        {
          "duration": 0.4499999999999993,
          "durationTicks": 576,
          "midi": 59,
          "name": "B3",
          "ticks": 20736,
          "time": 16.2,
          "velocity": 0.5118110236220472
        },
        {
          "duration": 0.4499999999999993,
          "durationTicks": 576,
          "midi": 55,
          "name": "G3",
          "ticks": 20736,
          "time": 16.2,
          "velocity": 0.5118110236220472
        },
        {
          "duration": 0.4499999999999993,
          "durationTicks": 576,
          "midi": 50,
          "name": "D3",
          "ticks": 20736,
          "time": 16.2,
          "velocity": 0.5118110236220472
        },
        {
          "duration": 0.4499999999999993,
          "durationTicks": 576,
          "midi": 47,
          "name": "B2",
          "ticks": 20736,
          "time": 16.2,
          "velocity": 0.5118110236220472
        },
        {
          "duration": 0.4499999999999993,
          "durationTicks": 576,
          "midi": 43,
          "name": "G2",
          "ticks": 20736,
          "time": 16.2,
          "velocity": 0.5118110236220472
        },
        {
          "duration": 0.4499999999999993,
          "durationTicks": 576,
          "midi": 43,
          "name": "G2",
          "ticks": 21312,
          "time": 16.65,
          "velocity": 0.5118110236220472
        },
        {
          "duration": 0.4499999999999993,
          "durationTicks": 576,
          "midi": 47,
          "name": "B2",
          "ticks": 21312,
          "time": 16.65,
          "velocity": 0.5118110236220472
        },
        {
          "duration": 0.4499999999999993,
          "durationTicks": 576,
          "midi": 50,
          "name": "D3",
          "ticks": 21312,
          "time": 16.65,
          "velocity": 0.5118110236220472
        },
        {
          "duration": 0.4499999999999993,
          "durationTicks": 576,
          "midi": 55,
          "name": "G3",
          "ticks": 21312,
          "time": 16.65,
          "velocity": 0.5118110236220472
        },
        {
          "duration": 0.4499999999999993,
          "durationTicks": 576,
          "midi": 59,
          "name": "B3",
          "ticks": 21312,
          "time": 16.65,
          "velocity": 0.5118110236220472
        },
        {
          "duration": 0.4499999999999993,
          "durationTicks": 576,
          "midi": 67,
          "name": "G4",
          "ticks": 21312,
          "time": 16.65,
          "velocity": 0.5118110236220472
        },
        {
          "duration": 0.45000000000000284,
          "durationTicks": 576,
          "midi": 67,
          "name": "G4",
          "ticks": 21888,
          "time": 17.099999999999998,
          "velocity": 0.5118110236220472
        },
        {
          "duration": 0.45000000000000284,
          "durationTicks": 576,
          "midi": 59,
          "name": "B3",
          "ticks": 21888,
          "time": 17.099999999999998,
          "velocity": 0.5118110236220472
        },
        {
          "duration": 0.45000000000000284,
          "durationTicks": 576,
          "midi": 55,
          "name": "G3",
          "ticks": 21888,
          "time": 17.099999999999998,
          "velocity": 0.5118110236220472
        },
        {
          "duration": 0.45000000000000284,
          "durationTicks": 576,
          "midi": 50,
          "name": "D3",
          "ticks": 21888,
          "time": 17.099999999999998,
          "velocity": 0.5118110236220472
        },
        {
          "duration": 0.45000000000000284,
          "durationTicks": 576,
          "midi": 47,
          "name": "B2",
          "ticks": 21888,
          "time": 17.099999999999998,
          "velocity": 0.5118110236220472
        },
        {
          "duration": 0.45000000000000284,
          "durationTicks": 576,
          "midi": 43,
          "name": "G2",
          "ticks": 21888,
          "time": 17.099999999999998,
          "velocity": 0.5118110236220472
        },
        {
          "duration": 0.4499999999999993,
          "durationTicks": 576,
          "midi": 43,
          "name": "G2",
          "ticks": 22464,
          "time": 17.55,
          "velocity": 0.5118110236220472
        },
        {
          "duration": 0.4499999999999993,
          "durationTicks": 576,
          "midi": 47,
          "name": "B2",
          "ticks": 22464,
          "time": 17.55,
          "velocity": 0.5118110236220472
        },
        {
          "duration": 0.4499999999999993,
          "durationTicks": 576,
          "midi": 50,
          "name": "D3",
          "ticks": 22464,
          "time": 17.55,
          "velocity": 0.5118110236220472
        },
        {
          "duration": 0.4499999999999993,
          "durationTicks": 576,
          "midi": 55,
          "name": "G3",
          "ticks": 22464,
          "time": 17.55,
          "velocity": 0.5118110236220472
        },
        {
          "duration": 0.4499999999999993,
          "durationTicks": 576,
          "midi": 59,
          "name": "B3",
          "ticks": 22464,
          "time": 17.55,
          "velocity": 0.5118110236220472
        },
        {
          "duration": 0.4499999999999993,
          "durationTicks": 576,
          "midi": 67,
          "name": "G4",
          "ticks": 22464,
          "time": 17.55,
          "velocity": 0.5118110236220472
        },
        {
          "duration": 0.4499999999999993,
          "durationTicks": 576,
          "midi": 50,
          "name": "D3",
          "ticks": 23040,
          "time": 18,
          "velocity": 0.5118110236220472
        },
        {
          "duration": 0.4499999999999993,
          "durationTicks": 576,
          "midi": 57,
          "name": "A3",
          "ticks": 23040,
          "time": 18,
          "velocity": 0.5118110236220472
        },
        {
          "duration": 0.4499999999999993,
          "durationTicks": 576,
          "midi": 62,
          "name": "D4",
          "ticks": 23040,
          "time": 18,
          "velocity": 0.5118110236220472
        },
        {
          "duration": 0.4499999999999993,
          "durationTicks": 576,
          "midi": 65,
          "name": "F4",
          "ticks": 23040,
          "time": 18,
          "velocity": 0.5118110236220472
        },
        {
          "duration": 0.4499999999999993,
          "durationTicks": 576,
          "midi": 65,
          "name": "F4",
          "ticks": 23616,
          "time": 18.45,
          "velocity": 0.5118110236220472
        },
        {
          "duration": 0.4499999999999993,
          "durationTicks": 576,
          "midi": 62,
          "name": "D4",
          "ticks": 23616,
          "time": 18.45,
          "velocity": 0.5118110236220472
        },
        {
          "duration": 0.4499999999999993,
          "durationTicks": 576,
          "midi": 57,
          "name": "A3",
          "ticks": 23616,
          "time": 18.45,
          "velocity": 0.5118110236220472
        },
        {
          "duration": 0.4499999999999993,
          "durationTicks": 576,
          "midi": 50,
          "name": "D3",
          "ticks": 23616,
          "time": 18.45,
          "velocity": 0.5118110236220472
        },
        {
          "duration": 0.4499999999999993,
          "durationTicks": 576,
          "midi": 50,
          "name": "D3",
          "ticks": 24192,
          "time": 18.9,
          "velocity": 0.5118110236220472
        },
        {
          "duration": 0.4499999999999993,
          "durationTicks": 576,
          "midi": 57,
          "name": "A3",
          "ticks": 24192,
          "time": 18.9,
          "velocity": 0.5118110236220472
        },
        {
          "duration": 0.4499999999999993,
          "durationTicks": 576,
          "midi": 62,
          "name": "D4",
          "ticks": 24192,
          "time": 18.9,
          "velocity": 0.5118110236220472
        },
        {
          "duration": 0.4499999999999993,
          "durationTicks": 576,
          "midi": 65,
          "name": "F4",
          "ticks": 24192,
          "time": 18.9,
          "velocity": 0.5118110236220472
        },
        {
          "duration": 0.45000000000000284,
          "durationTicks": 576,
          "midi": 50,
          "name": "D3",
          "ticks": 24768,
          "time": 19.349999999999998,
          "velocity": 0.5118110236220472
        },
        {
          "duration": 0.45000000000000284,
          "durationTicks": 576,
          "midi": 57,
          "name": "A3",
          "ticks": 24768,
          "time": 19.349999999999998,
          "velocity": 0.5118110236220472
        },
        {
          "duration": 0.45000000000000284,
          "durationTicks": 576,
          "midi": 62,
          "name": "D4",
          "ticks": 24768,
          "time": 19.349999999999998,
          "velocity": 0.5118110236220472
        },
        {
          "duration": 0.45000000000000284,
          "durationTicks": 576,
          "midi": 65,
          "name": "F4",
          "ticks": 24768,
          "time": 19.349999999999998,
          "velocity": 0.5118110236220472
        },
        {
          "duration": 0.4499999999999993,
          "durationTicks": 576,
          "midi": 50,
          "name": "D3",
          "ticks": 25344,
          "time": 19.8,
          "velocity": 0.5118110236220472
        },
        {
          "duration": 0.4499999999999993,
          "durationTicks": 576,
          "midi": 57,
          "name": "A3",
          "ticks": 25344,
          "time": 19.8,
          "velocity": 0.5118110236220472
        },
        {
          "duration": 0.4499999999999993,
          "durationTicks": 576,
          "midi": 62,
          "name": "D4",
          "ticks": 25344,
          "time": 19.8,
          "velocity": 0.5118110236220472
        },
        {
          "duration": 0.4499999999999993,
          "durationTicks": 576,
          "midi": 65,
          "name": "F4",
          "ticks": 25344,
          "time": 19.8,
          "velocity": 0.5118110236220472
        },
        {
          "duration": 0.4499999999999993,
          "durationTicks": 576,
          "midi": 65,
          "name": "F4",
          "ticks": 25920,
          "time": 20.25,
          "velocity": 0.5118110236220472
        },
        {
          "duration": 0.4499999999999993,
          "durationTicks": 576,
          "midi": 62,
          "name": "D4",
          "ticks": 25920,
          "time": 20.25,
          "velocity": 0.5118110236220472
        },
        {
          "duration": 0.4499999999999993,
          "durationTicks": 576,
          "midi": 57,
          "name": "A3",
          "ticks": 25920,
          "time": 20.25,
          "velocity": 0.5118110236220472
        },
        {
          "duration": 0.4499999999999993,
          "durationTicks": 576,
          "midi": 50,
          "name": "D3",
          "ticks": 25920,
          "time": 20.25,
          "velocity": 0.5118110236220472
        },
        {
          "duration": 0.4499999999999993,
          "durationTicks": 576,
          "midi": 50,
          "name": "D3",
          "ticks": 26496,
          "time": 20.7,
          "velocity": 0.5118110236220472
        },
        {
          "duration": 0.4499999999999993,
          "durationTicks": 576,
          "midi": 57,
          "name": "A3",
          "ticks": 26496,
          "time": 20.7,
          "velocity": 0.5118110236220472
        },
        {
          "duration": 0.4499999999999993,
          "durationTicks": 576,
          "midi": 62,
          "name": "D4",
          "ticks": 26496,
          "time": 20.7,
          "velocity": 0.5118110236220472
        },
        {
          "duration": 0.4499999999999993,
          "durationTicks": 576,
          "midi": 65,
          "name": "F4",
          "ticks": 26496,
          "time": 20.7,
          "velocity": 0.5118110236220472
        },
        {
          "duration": 0.4499999999999993,
          "durationTicks": 576,
          "midi": 50,
          "name": "D3",
          "ticks": 27072,
          "time": 21.15,
          "velocity": 0.5118110236220472
        },
        {
          "duration": 0.4499999999999993,
          "durationTicks": 576,
          "midi": 57,
          "name": "A3",
          "ticks": 27072,
          "time": 21.15,
          "velocity": 0.5118110236220472
        },
        {
          "duration": 0.4499999999999993,
          "durationTicks": 576,
          "midi": 62,
          "name": "D4",
          "ticks": 27072,
          "time": 21.15,
          "velocity": 0.5118110236220472
        },
        {
          "duration": 0.4499999999999993,
          "durationTicks": 576,
          "midi": 65,
          "name": "F4",
          "ticks": 27072,
          "time": 21.15,
          "velocity": 0.5118110236220472
        },
        {
          "duration": 0.45000000000000284,
          "durationTicks": 576,
          "midi": 64,
          "name": "E4",
          "ticks": 27648,
          "time": 21.599999999999998,
          "velocity": 0.5118110236220472
        },
        {
          "duration": 0.45000000000000284,
          "durationTicks": 576,
          "midi": 60,
          "name": "C4",
          "ticks": 27648,
          "time": 21.599999999999998,
          "velocity": 0.5118110236220472
        },
        {
          "duration": 0.45000000000000284,
          "durationTicks": 576,
          "midi": 57,
          "name": "A3",
          "ticks": 27648,
          "time": 21.599999999999998,
          "velocity": 0.5118110236220472
        },
        {
          "duration": 0.45000000000000284,
          "durationTicks": 576,
          "midi": 52,
          "name": "E3",
          "ticks": 27648,
          "time": 21.599999999999998,
          "velocity": 0.5118110236220472
        },
        {
          "duration": 0.45000000000000284,
          "durationTicks": 576,
          "midi": 45,
          "name": "A2",
          "ticks": 27648,
          "time": 21.599999999999998,
          "velocity": 0.5118110236220472
        },
        {
          "duration": 0.4499999999999993,
          "durationTicks": 576,
          "midi": 45,
          "name": "A2",
          "ticks": 28224,
          "time": 22.05,
          "velocity": 0.5118110236220472
        },
        {
          "duration": 0.4499999999999993,
          "durationTicks": 576,
          "midi": 52,
          "name": "E3",
          "ticks": 28224,
          "time": 22.05,
          "velocity": 0.5118110236220472
        },
        {
          "duration": 0.4499999999999993,
          "durationTicks": 576,
          "midi": 57,
          "name": "A3",
          "ticks": 28224,
          "time": 22.05,
          "velocity": 0.5118110236220472
        },
        {
          "duration": 0.4499999999999993,
          "durationTicks": 576,
          "midi": 60,
          "name": "C4",
          "ticks": 28224,
          "time": 22.05,
          "velocity": 0.5118110236220472
        },
        {
          "duration": 0.4499999999999993,
          "durationTicks": 576,
          "midi": 64,
          "name": "E4",
          "ticks": 28224,
          "time": 22.05,
          "velocity": 0.5118110236220472
        },
        {
          "duration": 0.4499999999999993,
          "durationTicks": 576,
          "midi": 45,
          "name": "A2",
          "ticks": 28800,
          "time": 22.5,
          "velocity": 0.5118110236220472
        },
        {
          "duration": 0.4499999999999993,
          "durationTicks": 576,
          "midi": 52,
          "name": "E3",
          "ticks": 28800,
          "time": 22.5,
          "velocity": 0.5118110236220472
        },
        {
          "duration": 0.4499999999999993,
          "durationTicks": 576,
          "midi": 57,
          "name": "A3",
          "ticks": 28800,
          "time": 22.5,
          "velocity": 0.5118110236220472
        },
        {
          "duration": 0.4499999999999993,
          "durationTicks": 576,
          "midi": 60,
          "name": "C4",
          "ticks": 28800,
          "time": 22.5,
          "velocity": 0.5118110236220472
        },
        {
          "duration": 0.4499999999999993,
          "durationTicks": 576,
          "midi": 64,
          "name": "E4",
          "ticks": 28800,
          "time": 22.5,
          "velocity": 0.5118110236220472
        },
        {
          "duration": 0.4499999999999993,
          "durationTicks": 576,
          "midi": 64,
          "name": "E4",
          "ticks": 29376,
          "time": 22.95,
          "velocity": 0.5118110236220472
        },
        {
          "duration": 0.4499999999999993,
          "durationTicks": 576,
          "midi": 60,
          "name": "C4",
          "ticks": 29376,
          "time": 22.95,
          "velocity": 0.5118110236220472
        },
        {
          "duration": 0.4499999999999993,
          "durationTicks": 576,
          "midi": 57,
          "name": "A3",
          "ticks": 29376,
          "time": 22.95,
          "velocity": 0.5118110236220472
        },
        {
          "duration": 0.4499999999999993,
          "durationTicks": 576,
          "midi": 52,
          "name": "E3",
          "ticks": 29376,
          "time": 22.95,
          "velocity": 0.5118110236220472
        },
        {
          "duration": 0.4499999999999993,
          "durationTicks": 576,
          "midi": 45,
          "name": "A2",
          "ticks": 29376,
          "time": 22.95,
          "velocity": 0.5118110236220472
        },
        {
          "duration": 0.4499999999999993,
          "durationTicks": 576,
          "midi": 45,
          "name": "A2",
          "ticks": 29952,
          "time": 23.4,
          "velocity": 0.5118110236220472
        },
        {
          "duration": 0.4499999999999993,
          "durationTicks": 576,
          "midi": 52,
          "name": "E3",
          "ticks": 29952,
          "time": 23.4,
          "velocity": 0.5118110236220472
        },
        {
          "duration": 0.4499999999999993,
          "durationTicks": 576,
          "midi": 57,
          "name": "A3",
          "ticks": 29952,
          "time": 23.4,
          "velocity": 0.5118110236220472
        },
        {
          "duration": 0.4499999999999993,
          "durationTicks": 576,
          "midi": 60,
          "name": "C4",
          "ticks": 29952,
          "time": 23.4,
          "velocity": 0.5118110236220472
        },
        {
          "duration": 0.4499999999999993,
          "durationTicks": 576,
          "midi": 64,
          "name": "E4",
          "ticks": 29952,
          "time": 23.4,
          "velocity": 0.5118110236220472
        },
        {
          "duration": 0.45000000000000284,
          "durationTicks": 576,
          "midi": 45,
          "name": "A2",
          "ticks": 30528,
          "time": 23.849999999999998,
          "velocity": 0.5118110236220472
        },
        {
          "duration": 0.45000000000000284,
          "durationTicks": 576,
          "midi": 52,
          "name": "E3",
          "ticks": 30528,
          "time": 23.849999999999998,
          "velocity": 0.5118110236220472
        },
        {
          "duration": 0.45000000000000284,
          "durationTicks": 576,
          "midi": 57,
          "name": "A3",
          "ticks": 30528,
          "time": 23.849999999999998,
          "velocity": 0.5118110236220472
        },
        {
          "duration": 0.45000000000000284,
          "durationTicks": 576,
          "midi": 60,
          "name": "C4",
          "ticks": 30528,
          "time": 23.849999999999998,
          "velocity": 0.5118110236220472
        },
        {
          "duration": 0.45000000000000284,
          "durationTicks": 576,
          "midi": 64,
          "name": "E4",
          "ticks": 30528,
          "time": 23.849999999999998,
          "velocity": 0.5118110236220472
        },
        {
          "duration": 0.4499999999999993,
          "durationTicks": 576,
          "midi": 64,
          "name": "E4",
          "ticks": 31104,
          "time": 24.3,
          "velocity": 0.5118110236220472
        },
        {
          "duration": 0.4499999999999993,
          "durationTicks": 576,
          "midi": 60,
          "name": "C4",
          "ticks": 31104,
          "time": 24.3,
          "velocity": 0.5118110236220472
        },
        {
          "duration": 0.4499999999999993,
          "durationTicks": 576,
          "midi": 57,
          "name": "A3",
          "ticks": 31104,
          "time": 24.3,
          "velocity": 0.5118110236220472
        },
        {
          "duration": 0.4499999999999993,
          "durationTicks": 576,
          "midi": 52,
          "name": "E3",
          "ticks": 31104,
          "time": 24.3,
          "velocity": 0.5118110236220472
        },
        {
          "duration": 0.4499999999999993,
          "durationTicks": 576,
          "midi": 45,
          "name": "A2",
          "ticks": 31104,
          "time": 24.3,
          "velocity": 0.5118110236220472
        },
        {
          "duration": 0.4499999999999993,
          "durationTicks": 576,
          "midi": 45,
          "name": "A2",
          "ticks": 31680,
          "time": 24.75,
          "velocity": 0.5118110236220472
        },
        {
          "duration": 0.4499999999999993,
          "durationTicks": 576,
          "midi": 52,
          "name": "E3",
          "ticks": 31680,
          "time": 24.75,
          "velocity": 0.5118110236220472
        },
        {
          "duration": 0.4499999999999993,
          "durationTicks": 576,
          "midi": 57,
          "name": "A3",
          "ticks": 31680,
          "time": 24.75,
          "velocity": 0.5118110236220472
        },
        {
          "duration": 0.4499999999999993,
          "durationTicks": 576,
          "midi": 60,
          "name": "C4",
          "ticks": 31680,
          "time": 24.75,
          "velocity": 0.5118110236220472
        },
        {
          "duration": 0.4499999999999993,
          "durationTicks": 576,
          "midi": 64,
          "name": "E4",
          "ticks": 31680,
          "time": 24.75,
          "velocity": 0.5118110236220472
        },
        {
          "duration": 0.4499999999999993,
          "durationTicks": 576,
          "midi": 52,
          "name": "E3",
          "ticks": 32256,
          "time": 25.2,
          "velocity": 0.5118110236220472
        },
        {
          "duration": 0.4499999999999993,
          "durationTicks": 576,
          "midi": 59,
          "name": "B3",
          "ticks": 32256,
          "time": 25.2,
          "velocity": 0.5118110236220472
        },
        {
          "duration": 0.4499999999999993,
          "durationTicks": 576,
          "midi": 56,
          "name": "G#3",
          "ticks": 32256,
          "time": 25.2,
          "velocity": 0.5118110236220472
        },
        {
          "duration": 0.4499999999999993,
          "durationTicks": 576,
          "midi": 64,
          "name": "E4",
          "ticks": 32256,
          "time": 25.2,
          "velocity": 0.5118110236220472
        },
        {
          "duration": 0.4499999999999993,
          "durationTicks": 576,
          "midi": 47,
          "name": "B2",
          "ticks": 32256,
          "time": 25.2,
          "velocity": 0.5118110236220472
        },
        {
          "duration": 0.4499999999999993,
          "durationTicks": 576,
          "midi": 40,
          "name": "E2",
          "ticks": 32256,
          "time": 25.2,
          "velocity": 0.5118110236220472
        },
        {
          "duration": 0.4499999999999993,
          "durationTicks": 576,
          "midi": 40,
          "name": "E2",
          "ticks": 32832,
          "time": 25.65,
          "velocity": 0.5118110236220472
        },
        {
          "duration": 0.4499999999999993,
          "durationTicks": 576,
          "midi": 47,
          "name": "B2",
          "ticks": 32832,
          "time": 25.65,
          "velocity": 0.5118110236220472
        },
        {
          "duration": 0.4499999999999993,
          "durationTicks": 576,
          "midi": 64,
          "name": "E4",
          "ticks": 32832,
          "time": 25.65,
          "velocity": 0.5118110236220472
        },
        {
          "duration": 0.4499999999999993,
          "durationTicks": 576,
          "midi": 56,
          "name": "G#3",
          "ticks": 32832,
          "time": 25.65,
          "velocity": 0.5118110236220472
        },
        {
          "duration": 0.4499999999999993,
          "durationTicks": 576,
          "midi": 59,
          "name": "B3",
          "ticks": 32832,
          "time": 25.65,
          "velocity": 0.5118110236220472
        },
        {
          "duration": 0.4499999999999993,
          "durationTicks": 576,
          "midi": 52,
          "name": "E3",
          "ticks": 32832,
          "time": 25.65,
          "velocity": 0.5118110236220472
        },
        {
          "duration": 0.45000000000000284,
          "durationTicks": 576,
          "midi": 52,
          "name": "E3",
          "ticks": 33408,
          "time": 26.099999999999998,
          "velocity": 0.5118110236220472
        },
        {
          "duration": 0.45000000000000284,
          "durationTicks": 576,
          "midi": 59,
          "name": "B3",
          "ticks": 33408,
          "time": 26.099999999999998,
          "velocity": 0.5118110236220472
        },
        {
          "duration": 0.45000000000000284,
          "durationTicks": 576,
          "midi": 56,
          "name": "G#3",
          "ticks": 33408,
          "time": 26.099999999999998,
          "velocity": 0.5118110236220472
        },
        {
          "duration": 0.45000000000000284,
          "durationTicks": 576,
          "midi": 64,
          "name": "E4",
          "ticks": 33408,
          "time": 26.099999999999998,
          "velocity": 0.5118110236220472
        },
        {
          "duration": 0.45000000000000284,
          "durationTicks": 576,
          "midi": 47,
          "name": "B2",
          "ticks": 33408,
          "time": 26.099999999999998,
          "velocity": 0.5118110236220472
        },
        {
          "duration": 0.45000000000000284,
          "durationTicks": 576,
          "midi": 40,
          "name": "E2",
          "ticks": 33408,
          "time": 26.099999999999998,
          "velocity": 0.5118110236220472
        },
        {
          "duration": 0.4499999999999993,
          "durationTicks": 576,
          "midi": 52,
          "name": "E3",
          "ticks": 33984,
          "time": 26.55,
          "velocity": 0.5118110236220472
        },
        {
          "duration": 0.4499999999999993,
          "durationTicks": 576,
          "midi": 59,
          "name": "B3",
          "ticks": 33984,
          "time": 26.55,
          "velocity": 0.5118110236220472
        },
        {
          "duration": 0.4499999999999993,
          "durationTicks": 576,
          "midi": 56,
          "name": "G#3",
          "ticks": 33984,
          "time": 26.55,
          "velocity": 0.5118110236220472
        },
        {
          "duration": 0.4499999999999993,
          "durationTicks": 576,
          "midi": 64,
          "name": "E4",
          "ticks": 33984,
          "time": 26.55,
          "velocity": 0.5118110236220472
        },
        {
          "duration": 0.4499999999999993,
          "durationTicks": 576,
          "midi": 47,
          "name": "B2",
          "ticks": 33984,
          "time": 26.55,
          "velocity": 0.5118110236220472
        },
        {
          "duration": 0.4499999999999993,
          "durationTicks": 576,
          "midi": 40,
          "name": "E2",
          "ticks": 33984,
          "time": 26.55,
          "velocity": 0.5118110236220472
        },
        {
          "duration": 0.4499999999999993,
          "durationTicks": 576,
          "midi": 40,
          "name": "E2",
          "ticks": 34560,
          "time": 27,
          "velocity": 0.5118110236220472
        },
        {
          "duration": 0.4499999999999993,
          "durationTicks": 576,
          "midi": 47,
          "name": "B2",
          "ticks": 34560,
          "time": 27,
          "velocity": 0.5118110236220472
        },
        {
          "duration": 0.4499999999999993,
          "durationTicks": 576,
          "midi": 64,
          "name": "E4",
          "ticks": 34560,
          "time": 27,
          "velocity": 0.5118110236220472
        },
        {
          "duration": 0.4499999999999993,
          "durationTicks": 576,
          "midi": 56,
          "name": "G#3",
          "ticks": 34560,
          "time": 27,
          "velocity": 0.5118110236220472
        },
        {
          "duration": 0.4499999999999993,
          "durationTicks": 576,
          "midi": 59,
          "name": "B3",
          "ticks": 34560,
          "time": 27,
          "velocity": 0.5118110236220472
        },
        {
          "duration": 0.4499999999999993,
          "durationTicks": 576,
          "midi": 52,
          "name": "E3",
          "ticks": 34560,
          "time": 27,
          "velocity": 0.5118110236220472
        },
        {
          "duration": 0.4499999999999993,
          "durationTicks": 576,
          "midi": 52,
          "name": "E3",
          "ticks": 35136,
          "time": 27.45,
          "velocity": 0.5118110236220472
        },
        {
          "duration": 0.4499999999999993,
          "durationTicks": 576,
          "midi": 59,
          "name": "B3",
          "ticks": 35136,
          "time": 27.45,
          "velocity": 0.5118110236220472
        },
        {
          "duration": 0.4499999999999993,
          "durationTicks": 576,
          "midi": 56,
          "name": "G#3",
          "ticks": 35136,
          "time": 27.45,
          "velocity": 0.5118110236220472
        },
        {
          "duration": 0.4499999999999993,
          "durationTicks": 576,
          "midi": 64,
          "name": "E4",
          "ticks": 35136,
          "time": 27.45,
          "velocity": 0.5118110236220472
        },
        {
          "duration": 0.4499999999999993,
          "durationTicks": 576,
          "midi": 47,
          "name": "B2",
          "ticks": 35136,
          "time": 27.45,
          "velocity": 0.5118110236220472
        },
        {
          "duration": 0.4499999999999993,
          "durationTicks": 576,
          "midi": 40,
          "name": "E2",
          "ticks": 35136,
          "time": 27.45,
          "velocity": 0.5118110236220472
        },
        {
          "duration": 0.4499999999999993,
          "durationTicks": 576,
          "midi": 40,
          "name": "E2",
          "ticks": 35712,
          "time": 27.9,
          "velocity": 0.5118110236220472
        },
        {
          "duration": 0.4499999999999993,
          "durationTicks": 576,
          "midi": 47,
          "name": "B2",
          "ticks": 35712,
          "time": 27.9,
          "velocity": 0.5118110236220472
        },
        {
          "duration": 0.4499999999999993,
          "durationTicks": 576,
          "midi": 64,
          "name": "E4",
          "ticks": 35712,
          "time": 27.9,
          "velocity": 0.5118110236220472
        },
        {
          "duration": 0.4499999999999993,
          "durationTicks": 576,
          "midi": 56,
          "name": "G#3",
          "ticks": 35712,
          "time": 27.9,
          "velocity": 0.5118110236220472
        },
        {
          "duration": 0.4499999999999993,
          "durationTicks": 576,
          "midi": 59,
          "name": "B3",
          "ticks": 35712,
          "time": 27.9,
          "velocity": 0.5118110236220472
        },
        {
          "duration": 0.4499999999999993,
          "durationTicks": 576,
          "midi": 52,
          "name": "E3",
          "ticks": 35712,
          "time": 27.9,
          "velocity": 0.5118110236220472
        },
        {
          "duration": 0.4499999999999993,
          "durationTicks": 576,
          "midi": 52,
          "name": "E3",
          "ticks": 36288,
          "time": 28.349999999999998,
          "velocity": 0.5118110236220472
        },
        {
          "duration": 0.4499999999999993,
          "durationTicks": 576,
          "midi": 59,
          "name": "B3",
          "ticks": 36288,
          "time": 28.349999999999998,
          "velocity": 0.5118110236220472
        },
        {
          "duration": 0.4499999999999993,
          "durationTicks": 576,
          "midi": 56,
          "name": "G#3",
          "ticks": 36288,
          "time": 28.349999999999998,
          "velocity": 0.5118110236220472
        },
        {
          "duration": 0.4499999999999993,
          "durationTicks": 576,
          "midi": 64,
          "name": "E4",
          "ticks": 36288,
          "time": 28.349999999999998,
          "velocity": 0.5118110236220472
        },
        {
          "duration": 0.4499999999999993,
          "durationTicks": 576,
          "midi": 47,
          "name": "B2",
          "ticks": 36288,
          "time": 28.349999999999998,
          "velocity": 0.5118110236220472
        },
        {
          "duration": 0.4499999999999993,
          "durationTicks": 576,
          "midi": 40,
          "name": "E2",
          "ticks": 36288,
          "time": 28.349999999999998,
          "velocity": 0.5118110236220472
        },
        {
          "duration": 0.45000000000000284,
          "durationTicks": 576,
          "midi": 67,
          "name": "G4",
          "ticks": 36864,
          "time": 28.799999999999997,
          "velocity": 0.5118110236220472
        },
        {
          "duration": 0.45000000000000284,
          "durationTicks": 576,
          "midi": 59,
          "name": "B3",
          "ticks": 36864,
          "time": 28.799999999999997,
          "velocity": 0.5118110236220472
        },
        {
          "duration": 0.45000000000000284,
          "durationTicks": 576,
          "midi": 55,
          "name": "G3",
          "ticks": 36864,
          "time": 28.799999999999997,
          "velocity": 0.5118110236220472
        },
        {
          "duration": 0.45000000000000284,
          "durationTicks": 576,
          "midi": 50,
          "name": "D3",
          "ticks": 36864,
          "time": 28.799999999999997,
          "velocity": 0.5118110236220472
        },
        {
          "duration": 0.45000000000000284,
          "durationTicks": 576,
          "midi": 47,
          "name": "B2",
          "ticks": 36864,
          "time": 28.799999999999997,
          "velocity": 0.5118110236220472
        },
        {
          "duration": 0.45000000000000284,
          "durationTicks": 576,
          "midi": 43,
          "name": "G2",
          "ticks": 36864,
          "time": 28.799999999999997,
          "velocity": 0.5118110236220472
        },
        {
          "duration": 0.4499999999999993,
          "durationTicks": 576,
          "midi": 43,
          "name": "G2",
          "ticks": 37440,
          "time": 29.25,
          "velocity": 0.5118110236220472
        },
        {
          "duration": 0.4499999999999993,
          "durationTicks": 576,
          "midi": 47,
          "name": "B2",
          "ticks": 37440,
          "time": 29.25,
          "velocity": 0.5118110236220472
        },
        {
          "duration": 0.4499999999999993,
          "durationTicks": 576,
          "midi": 50,
          "name": "D3",
          "ticks": 37440,
          "time": 29.25,
          "velocity": 0.5118110236220472
        },
        {
          "duration": 0.4499999999999993,
          "durationTicks": 576,
          "midi": 55,
          "name": "G3",
          "ticks": 37440,
          "time": 29.25,
          "velocity": 0.5118110236220472
        },
        {
          "duration": 0.4499999999999993,
          "durationTicks": 576,
          "midi": 59,
          "name": "B3",
          "ticks": 37440,
          "time": 29.25,
          "velocity": 0.5118110236220472
        },
        {
          "duration": 0.4499999999999993,
          "durationTicks": 576,
          "midi": 67,
          "name": "G4",
          "ticks": 37440,
          "time": 29.25,
          "velocity": 0.5118110236220472
        },
        {
          "duration": 0.4499999999999993,
          "durationTicks": 576,
          "midi": 67,
          "name": "G4",
          "ticks": 38016,
          "time": 29.7,
          "velocity": 0.5118110236220472
        },
        {
          "duration": 0.4499999999999993,
          "durationTicks": 576,
          "midi": 59,
          "name": "B3",
          "ticks": 38016,
          "time": 29.7,
          "velocity": 0.5118110236220472
        },
        {
          "duration": 0.4499999999999993,
          "durationTicks": 576,
          "midi": 55,
          "name": "G3",
          "ticks": 38016,
          "time": 29.7,
          "velocity": 0.5118110236220472
        },
        {
          "duration": 0.4499999999999993,
          "durationTicks": 576,
          "midi": 50,
          "name": "D3",
          "ticks": 38016,
          "time": 29.7,
          "velocity": 0.5118110236220472
        },
        {
          "duration": 0.4499999999999993,
          "durationTicks": 576,
          "midi": 47,
          "name": "B2",
          "ticks": 38016,
          "time": 29.7,
          "velocity": 0.5118110236220472
        },
        {
          "duration": 0.4499999999999993,
          "durationTicks": 576,
          "midi": 43,
          "name": "G2",
          "ticks": 38016,
          "time": 29.7,
          "velocity": 0.5118110236220472
        },
        {
          "duration": 0.4499999999999993,
          "durationTicks": 576,
          "midi": 43,
          "name": "G2",
          "ticks": 38592,
          "time": 30.15,
          "velocity": 0.5118110236220472
        },
        {
          "duration": 0.4499999999999993,
          "durationTicks": 576,
          "midi": 47,
          "name": "B2",
          "ticks": 38592,
          "time": 30.15,
          "velocity": 0.5118110236220472
        },
        {
          "duration": 0.4499999999999993,
          "durationTicks": 576,
          "midi": 50,
          "name": "D3",
          "ticks": 38592,
          "time": 30.15,
          "velocity": 0.5118110236220472
        },
        {
          "duration": 0.4499999999999993,
          "durationTicks": 576,
          "midi": 55,
          "name": "G3",
          "ticks": 38592,
          "time": 30.15,
          "velocity": 0.5118110236220472
        },
        {
          "duration": 0.4499999999999993,
          "durationTicks": 576,
          "midi": 59,
          "name": "B3",
          "ticks": 38592,
          "time": 30.15,
          "velocity": 0.5118110236220472
        },
        {
          "duration": 0.4499999999999993,
          "durationTicks": 576,
          "midi": 67,
          "name": "G4",
          "ticks": 38592,
          "time": 30.15,
          "velocity": 0.5118110236220472
        },
        {
          "duration": 0.4499999999999993,
          "durationTicks": 576,
          "midi": 67,
          "name": "G4",
          "ticks": 39168,
          "time": 30.599999999999998,
          "velocity": 0.5118110236220472
        },
        {
          "duration": 0.4499999999999993,
          "durationTicks": 576,
          "midi": 59,
          "name": "B3",
          "ticks": 39168,
          "time": 30.599999999999998,
          "velocity": 0.5118110236220472
        },
        {
          "duration": 0.4499999999999993,
          "durationTicks": 576,
          "midi": 55,
          "name": "G3",
          "ticks": 39168,
          "time": 30.599999999999998,
          "velocity": 0.5118110236220472
        },
        {
          "duration": 0.4499999999999993,
          "durationTicks": 576,
          "midi": 50,
          "name": "D3",
          "ticks": 39168,
          "time": 30.599999999999998,
          "velocity": 0.5118110236220472
        },
        {
          "duration": 0.4499999999999993,
          "durationTicks": 576,
          "midi": 47,
          "name": "B2",
          "ticks": 39168,
          "time": 30.599999999999998,
          "velocity": 0.5118110236220472
        },
        {
          "duration": 0.4499999999999993,
          "durationTicks": 576,
          "midi": 43,
          "name": "G2",
          "ticks": 39168,
          "time": 30.599999999999998,
          "velocity": 0.5118110236220472
        },
        {
          "duration": 0.45000000000000284,
          "durationTicks": 576,
          "midi": 67,
          "name": "G4",
          "ticks": 39744,
          "time": 31.049999999999997,
          "velocity": 0.5118110236220472
        },
        {
          "duration": 0.45000000000000284,
          "durationTicks": 576,
          "midi": 59,
          "name": "B3",
          "ticks": 39744,
          "time": 31.049999999999997,
          "velocity": 0.5118110236220472
        },
        {
          "duration": 0.45000000000000284,
          "durationTicks": 576,
          "midi": 55,
          "name": "G3",
          "ticks": 39744,
          "time": 31.049999999999997,
          "velocity": 0.5118110236220472
        },
        {
          "duration": 0.45000000000000284,
          "durationTicks": 576,
          "midi": 50,
          "name": "D3",
          "ticks": 39744,
          "time": 31.049999999999997,
          "velocity": 0.5118110236220472
        },
        {
          "duration": 0.45000000000000284,
          "durationTicks": 576,
          "midi": 47,
          "name": "B2",
          "ticks": 39744,
          "time": 31.049999999999997,
          "velocity": 0.5118110236220472
        },
        {
          "duration": 0.45000000000000284,
          "durationTicks": 576,
          "midi": 43,
          "name": "G2",
          "ticks": 39744,
          "time": 31.049999999999997,
          "velocity": 0.5118110236220472
        },
        {
          "duration": 0.4499999999999993,
          "durationTicks": 576,
          "midi": 43,
          "name": "G2",
          "ticks": 40320,
          "time": 31.5,
          "velocity": 0.5118110236220472
        },
        {
          "duration": 0.4499999999999993,
          "durationTicks": 576,
          "midi": 47,
          "name": "B2",
          "ticks": 40320,
          "time": 31.5,
          "velocity": 0.5118110236220472
        },
        {
          "duration": 0.4499999999999993,
          "durationTicks": 576,
          "midi": 50,
          "name": "D3",
          "ticks": 40320,
          "time": 31.5,
          "velocity": 0.5118110236220472
        },
        {
          "duration": 0.4499999999999993,
          "durationTicks": 576,
          "midi": 55,
          "name": "G3",
          "ticks": 40320,
          "time": 31.5,
          "velocity": 0.5118110236220472
        },
        {
          "duration": 0.4499999999999993,
          "durationTicks": 576,
          "midi": 59,
          "name": "B3",
          "ticks": 40320,
          "time": 31.5,
          "velocity": 0.5118110236220472
        },
        {
          "duration": 0.4499999999999993,
          "durationTicks": 576,
          "midi": 67,
          "name": "G4",
          "ticks": 40320,
          "time": 31.5,
          "velocity": 0.5118110236220472
        },
        {
          "duration": 0.4499999999999993,
          "durationTicks": 576,
          "midi": 67,
          "name": "G4",
          "ticks": 40896,
          "time": 31.95,
          "velocity": 0.5118110236220472
        },
        {
          "duration": 0.4499999999999993,
          "durationTicks": 576,
          "midi": 59,
          "name": "B3",
          "ticks": 40896,
          "time": 31.95,
          "velocity": 0.5118110236220472
        },
        {
          "duration": 0.4499999999999993,
          "durationTicks": 576,
          "midi": 55,
          "name": "G3",
          "ticks": 40896,
          "time": 31.95,
          "velocity": 0.5118110236220472
        },
        {
          "duration": 0.4499999999999993,
          "durationTicks": 576,
          "midi": 50,
          "name": "D3",
          "ticks": 40896,
          "time": 31.95,
          "velocity": 0.5118110236220472
        },
        {
          "duration": 0.4499999999999993,
          "durationTicks": 576,
          "midi": 47,
          "name": "B2",
          "ticks": 40896,
          "time": 31.95,
          "velocity": 0.5118110236220472
        },
        {
          "duration": 0.4499999999999993,
          "durationTicks": 576,
          "midi": 43,
          "name": "G2",
          "ticks": 40896,
          "time": 31.95,
          "velocity": 0.5118110236220472
        },
        {
          "duration": 0.45000000000000284,
          "durationTicks": 576,
          "midi": 45,
          "name": "A2",
          "ticks": 41472,
          "time": 32.4,
          "velocity": 0.5118110236220472
        },
        {
          "duration": 0.45000000000000284,
          "durationTicks": 576,
          "midi": 52,
          "name": "E3",
          "ticks": 41472,
          "time": 32.4,
          "velocity": 0.5118110236220472
        },
        {
          "duration": 0.45000000000000284,
          "durationTicks": 576,
          "midi": 57,
          "name": "A3",
          "ticks": 41472,
          "time": 32.4,
          "velocity": 0.5118110236220472
        },
        {
          "duration": 0.45000000000000284,
          "durationTicks": 576,
          "midi": 60,
          "name": "C4",
          "ticks": 41472,
          "time": 32.4,
          "velocity": 0.5118110236220472
        },
        {
          "duration": 0.45000000000000284,
          "durationTicks": 576,
          "midi": 64,
          "name": "E4",
          "ticks": 41472,
          "time": 32.4,
          "velocity": 0.5118110236220472
        },
        {
          "duration": 0.44999999999999574,
          "durationTicks": 576,
          "midi": 64,
          "name": "E4",
          "ticks": 42048,
          "time": 32.85,
          "velocity": 0.5118110236220472
        },
        {
          "duration": 0.44999999999999574,
          "durationTicks": 576,
          "midi": 60,
          "name": "C4",
          "ticks": 42048,
          "time": 32.85,
          "velocity": 0.5118110236220472
        },
        {
          "duration": 0.44999999999999574,
          "durationTicks": 576,
          "midi": 57,
          "name": "A3",
          "ticks": 42048,
          "time": 32.85,
          "velocity": 0.5118110236220472
        },
        {
          "duration": 0.44999999999999574,
          "durationTicks": 576,
          "midi": 52,
          "name": "E3",
          "ticks": 42048,
          "time": 32.85,
          "velocity": 0.5118110236220472
        },
        {
          "duration": 0.44999999999999574,
          "durationTicks": 576,
          "midi": 45,
          "name": "A2",
          "ticks": 42048,
          "time": 32.85,
          "velocity": 0.5118110236220472
        },
        {
          "duration": 0.45000000000000284,
          "durationTicks": 576,
          "midi": 45,
          "name": "A2",
          "ticks": 42624,
          "time": 33.3,
          "velocity": 0.5118110236220472
        },
        {
          "duration": 0.45000000000000284,
          "durationTicks": 576,
          "midi": 52,
          "name": "E3",
          "ticks": 42624,
          "time": 33.3,
          "velocity": 0.5118110236220472
        },
        {
          "duration": 0.45000000000000284,
          "durationTicks": 576,
          "midi": 57,
          "name": "A3",
          "ticks": 42624,
          "time": 33.3,
          "velocity": 0.5118110236220472
        },
        {
          "duration": 0.45000000000000284,
          "durationTicks": 576,
          "midi": 60,
          "name": "C4",
          "ticks": 42624,
          "time": 33.3,
          "velocity": 0.5118110236220472
        },
        {
          "duration": 0.45000000000000284,
          "durationTicks": 576,
          "midi": 64,
          "name": "E4",
          "ticks": 42624,
          "time": 33.3,
          "velocity": 0.5118110236220472
        },
        {
          "duration": 0.44999999999999574,
          "durationTicks": 576,
          "midi": 45,
          "name": "A2",
          "ticks": 43200,
          "time": 33.75,
          "velocity": 0.5118110236220472
        },
        {
          "duration": 0.44999999999999574,
          "durationTicks": 576,
          "midi": 52,
          "name": "E3",
          "ticks": 43200,
          "time": 33.75,
          "velocity": 0.5118110236220472
        },
        {
          "duration": 0.44999999999999574,
          "durationTicks": 576,
          "midi": 57,
          "name": "A3",
          "ticks": 43200,
          "time": 33.75,
          "velocity": 0.5118110236220472
        },
        {
          "duration": 0.44999999999999574,
          "durationTicks": 576,
          "midi": 60,
          "name": "C4",
          "ticks": 43200,
          "time": 33.75,
          "velocity": 0.5118110236220472
        },
        {
          "duration": 0.44999999999999574,
          "durationTicks": 576,
          "midi": 64,
          "name": "E4",
          "ticks": 43200,
          "time": 33.75,
          "velocity": 0.5118110236220472
        },
        {
          "duration": 0.45000000000000284,
          "durationTicks": 576,
          "midi": 64,
          "name": "E4",
          "ticks": 43776,
          "time": 34.199999999999996,
          "velocity": 0.5118110236220472
        },
        {
          "duration": 0.45000000000000284,
          "durationTicks": 576,
          "midi": 60,
          "name": "C4",
          "ticks": 43776,
          "time": 34.199999999999996,
          "velocity": 0.5118110236220472
        },
        {
          "duration": 0.45000000000000284,
          "durationTicks": 576,
          "midi": 57,
          "name": "A3",
          "ticks": 43776,
          "time": 34.199999999999996,
          "velocity": 0.5118110236220472
        },
        {
          "duration": 0.45000000000000284,
          "durationTicks": 576,
          "midi": 52,
          "name": "E3",
          "ticks": 43776,
          "time": 34.199999999999996,
          "velocity": 0.5118110236220472
        },
        {
          "duration": 0.45000000000000284,
          "durationTicks": 576,
          "midi": 45,
          "name": "A2",
          "ticks": 43776,
          "time": 34.199999999999996,
          "velocity": 0.5118110236220472
        },
        {
          "duration": 0.45000000000000284,
          "durationTicks": 576,
          "midi": 45,
          "name": "A2",
          "ticks": 44352,
          "time": 34.65,
          "velocity": 0.5118110236220472
        },
        {
          "duration": 0.45000000000000284,
          "durationTicks": 576,
          "midi": 52,
          "name": "E3",
          "ticks": 44352,
          "time": 34.65,
          "velocity": 0.5118110236220472
        },
        {
          "duration": 0.45000000000000284,
          "durationTicks": 576,
          "midi": 57,
          "name": "A3",
          "ticks": 44352,
          "time": 34.65,
          "velocity": 0.5118110236220472
        },
        {
          "duration": 0.45000000000000284,
          "durationTicks": 576,
          "midi": 60,
          "name": "C4",
          "ticks": 44352,
          "time": 34.65,
          "velocity": 0.5118110236220472
        },
        {
          "duration": 0.45000000000000284,
          "durationTicks": 576,
          "midi": 64,
          "name": "E4",
          "ticks": 44352,
          "time": 34.65,
          "velocity": 0.5118110236220472
        },
        {
          "duration": 0.44999999999999574,
          "durationTicks": 576,
          "midi": 45,
          "name": "A2",
          "ticks": 44928,
          "time": 35.1,
          "velocity": 0.5118110236220472
        },
        {
          "duration": 0.44999999999999574,
          "durationTicks": 576,
          "midi": 52,
          "name": "E3",
          "ticks": 44928,
          "time": 35.1,
          "velocity": 0.5118110236220472
        },
        {
          "duration": 0.44999999999999574,
          "durationTicks": 576,
          "midi": 57,
          "name": "A3",
          "ticks": 44928,
          "time": 35.1,
          "velocity": 0.5118110236220472
        },
        {
          "duration": 0.44999999999999574,
          "durationTicks": 576,
          "midi": 60,
          "name": "C4",
          "ticks": 44928,
          "time": 35.1,
          "velocity": 0.5118110236220472
        },
        {
          "duration": 0.44999999999999574,
          "durationTicks": 576,
          "midi": 64,
          "name": "E4",
          "ticks": 44928,
          "time": 35.1,
          "velocity": 0.5118110236220472
        },
        {
          "duration": 0.45000000000000284,
          "durationTicks": 576,
          "midi": 64,
          "name": "E4",
          "ticks": 45504,
          "time": 35.55,
          "velocity": 0.5118110236220472
        },
        {
          "duration": 0.45000000000000284,
          "durationTicks": 576,
          "midi": 60,
          "name": "C4",
          "ticks": 45504,
          "time": 35.55,
          "velocity": 0.5118110236220472
        },
        {
          "duration": 0.45000000000000284,
          "durationTicks": 576,
          "midi": 57,
          "name": "A3",
          "ticks": 45504,
          "time": 35.55,
          "velocity": 0.5118110236220472
        },
        {
          "duration": 0.45000000000000284,
          "durationTicks": 576,
          "midi": 52,
          "name": "E3",
          "ticks": 45504,
          "time": 35.55,
          "velocity": 0.5118110236220472
        },
        {
          "duration": 0.45000000000000284,
          "durationTicks": 576,
          "midi": 45,
          "name": "A2",
          "ticks": 45504,
          "time": 35.55,
          "velocity": 0.5118110236220472
        },
        {
          "duration": 0.44999999999999574,
          "durationTicks": 576,
          "midi": 57,
          "name": "A3",
          "ticks": 46080,
          "time": 36,
          "velocity": 0.5118110236220472
        },
        {
          "duration": 0.44999999999999574,
          "durationTicks": 576,
          "midi": 52,
          "name": "E3",
          "ticks": 46080,
          "time": 36,
          "velocity": 0.5118110236220472
        },
        {
          "duration": 0.44999999999999574,
          "durationTicks": 576,
          "midi": 45,
          "name": "A2",
          "ticks": 46080,
          "time": 36,
          "velocity": 0.5118110236220472
        },
        {
          "duration": 0.44999999999999574,
          "durationTicks": 576,
          "midi": 60,
          "name": "C4",
          "ticks": 46080,
          "time": 36,
          "velocity": 0.5118110236220472
        },
        {
          "duration": 0.44999999999999574,
          "durationTicks": 576,
          "midi": 64,
          "name": "E4",
          "ticks": 46080,
          "time": 36,
          "velocity": 0.5118110236220472
        },
        {
          "duration": 0.45000000000000284,
          "durationTicks": 576,
          "midi": 57,
          "name": "A3",
          "ticks": 46656,
          "time": 36.449999999999996,
          "velocity": 0.5118110236220472
        },
        {
          "duration": 0.45000000000000284,
          "durationTicks": 576,
          "midi": 52,
          "name": "E3",
          "ticks": 46656,
          "time": 36.449999999999996,
          "velocity": 0.5118110236220472
        },
        {
          "duration": 0.45000000000000284,
          "durationTicks": 576,
          "midi": 45,
          "name": "A2",
          "ticks": 46656,
          "time": 36.449999999999996,
          "velocity": 0.5118110236220472
        },
        {
          "duration": 0.45000000000000284,
          "durationTicks": 576,
          "midi": 60,
          "name": "C4",
          "ticks": 46656,
          "time": 36.449999999999996,
          "velocity": 0.5118110236220472
        },
        {
          "duration": 0.45000000000000284,
          "durationTicks": 576,
          "midi": 64,
          "name": "E4",
          "ticks": 46656,
          "time": 36.449999999999996,
          "velocity": 0.5118110236220472
        },
        {
          "duration": 0.45000000000000284,
          "durationTicks": 576,
          "midi": 64,
          "name": "E4",
          "ticks": 47232,
          "time": 36.9,
          "velocity": 0.5118110236220472
        },
        {
          "duration": 0.45000000000000284,
          "durationTicks": 576,
          "midi": 60,
          "name": "C4",
          "ticks": 47232,
          "time": 36.9,
          "velocity": 0.5118110236220472
        },
        {
          "duration": 0.45000000000000284,
          "durationTicks": 576,
          "midi": 45,
          "name": "A2",
          "ticks": 47232,
          "time": 36.9,
          "velocity": 0.5118110236220472
        },
        {
          "duration": 0.45000000000000284,
          "durationTicks": 576,
          "midi": 52,
          "name": "E3",
          "ticks": 47232,
          "time": 36.9,
          "velocity": 0.5118110236220472
        },
        {
          "duration": 0.45000000000000284,
          "durationTicks": 576,
          "midi": 57,
          "name": "A3",
          "ticks": 47232,
          "time": 36.9,
          "velocity": 0.5118110236220472
        },
        {
          "duration": 0.44999999999999574,
          "durationTicks": 576,
          "midi": 57,
          "name": "A3",
          "ticks": 47808,
          "time": 37.35,
          "velocity": 0.5118110236220472
        },
        {
          "duration": 0.44999999999999574,
          "durationTicks": 576,
          "midi": 52,
          "name": "E3",
          "ticks": 47808,
          "time": 37.35,
          "velocity": 0.5118110236220472
        },
        {
          "duration": 0.44999999999999574,
          "durationTicks": 576,
          "midi": 45,
          "name": "A2",
          "ticks": 47808,
          "time": 37.35,
          "velocity": 0.5118110236220472
        },
        {
          "duration": 0.44999999999999574,
          "durationTicks": 576,
          "midi": 60,
          "name": "C4",
          "ticks": 47808,
          "time": 37.35,
          "velocity": 0.5118110236220472
        },
        {
          "duration": 0.44999999999999574,
          "durationTicks": 576,
          "midi": 64,
          "name": "E4",
          "ticks": 47808,
          "time": 37.35,
          "velocity": 0.5118110236220472
        },
        {
          "duration": 0.45000000000000284,
          "durationTicks": 576,
          "midi": 64,
          "name": "E4",
          "ticks": 48384,
          "time": 37.8,
          "velocity": 0.5118110236220472
        },
        {
          "duration": 0.45000000000000284,
          "durationTicks": 576,
          "midi": 60,
          "name": "C4",
          "ticks": 48384,
          "time": 37.8,
          "velocity": 0.5118110236220472
        },
        {
          "duration": 0.45000000000000284,
          "durationTicks": 576,
          "midi": 45,
          "name": "A2",
          "ticks": 48384,
          "time": 37.8,
          "velocity": 0.5118110236220472
        },
        {
          "duration": 0.45000000000000284,
          "durationTicks": 576,
          "midi": 52,
          "name": "E3",
          "ticks": 48384,
          "time": 37.8,
          "velocity": 0.5118110236220472
        },
        {
          "duration": 0.45000000000000284,
          "durationTicks": 576,
          "midi": 57,
          "name": "A3",
          "ticks": 48384,
          "time": 37.8,
          "velocity": 0.5118110236220472
        },
        {
          "duration": 0.44999999999999574,
          "durationTicks": 576,
          "midi": 57,
          "name": "A3",
          "ticks": 48960,
          "time": 38.25,
          "velocity": 0.5118110236220472
        },
        {
          "duration": 0.44999999999999574,
          "durationTicks": 576,
          "midi": 52,
          "name": "E3",
          "ticks": 48960,
          "time": 38.25,
          "velocity": 0.5118110236220472
        },
        {
          "duration": 0.44999999999999574,
          "durationTicks": 576,
          "midi": 45,
          "name": "A2",
          "ticks": 48960,
          "time": 38.25,
          "velocity": 0.5118110236220472
        },
        {
          "duration": 0.44999999999999574,
          "durationTicks": 576,
          "midi": 60,
          "name": "C4",
          "ticks": 48960,
          "time": 38.25,
          "velocity": 0.5118110236220472
        },
        {
          "duration": 0.44999999999999574,
          "durationTicks": 576,
          "midi": 64,
          "name": "E4",
          "ticks": 48960,
          "time": 38.25,
          "velocity": 0.5118110236220472
        },
        {
          "duration": 0.45000000000000284,
          "durationTicks": 576,
          "midi": 57,
          "name": "A3",
          "ticks": 49536,
          "time": 38.699999999999996,
          "velocity": 0.5118110236220472
        },
        {
          "duration": 0.45000000000000284,
          "durationTicks": 576,
          "midi": 52,
          "name": "E3",
          "ticks": 49536,
          "time": 38.699999999999996,
          "velocity": 0.5118110236220472
        },
        {
          "duration": 0.45000000000000284,
          "durationTicks": 576,
          "midi": 45,
          "name": "A2",
          "ticks": 49536,
          "time": 38.699999999999996,
          "velocity": 0.5118110236220472
        },
        {
          "duration": 0.45000000000000284,
          "durationTicks": 576,
          "midi": 60,
          "name": "C4",
          "ticks": 49536,
          "time": 38.699999999999996,
          "velocity": 0.5118110236220472
        },
        {
          "duration": 0.45000000000000284,
          "durationTicks": 576,
          "midi": 64,
          "name": "E4",
          "ticks": 49536,
          "time": 38.699999999999996,
          "velocity": 0.5118110236220472
        },
        {
          "duration": 0.45000000000000284,
          "durationTicks": 576,
          "midi": 64,
          "name": "E4",
          "ticks": 50112,
          "time": 39.15,
          "velocity": 0.5118110236220472
        },
        {
          "duration": 0.45000000000000284,
          "durationTicks": 576,
          "midi": 60,
          "name": "C4",
          "ticks": 50112,
          "time": 39.15,
          "velocity": 0.5118110236220472
        },
        {
          "duration": 0.45000000000000284,
          "durationTicks": 576,
          "midi": 45,
          "name": "A2",
          "ticks": 50112,
          "time": 39.15,
          "velocity": 0.5118110236220472
        },
        {
          "duration": 0.45000000000000284,
          "durationTicks": 576,
          "midi": 52,
          "name": "E3",
          "ticks": 50112,
          "time": 39.15,
          "velocity": 0.5118110236220472
        },
        {
          "duration": 0.45000000000000284,
          "durationTicks": 576,
          "midi": 57,
          "name": "A3",
          "ticks": 50112,
          "time": 39.15,
          "velocity": 0.5118110236220472
        },
        {
          "duration": 0.29999999999999716,
          "durationTicks": 384,
          "midi": 43,
          "name": "G2",
          "ticks": 50688,
          "time": 39.6,
          "velocity": 0.5118110236220472
        },
        {
          "duration": 0.29999999999999716,
          "durationTicks": 384,
          "midi": 47,
          "name": "B2",
          "ticks": 50688,
          "time": 39.6,
          "velocity": 0.5118110236220472
        },
        {
          "duration": 0.29999999999999716,
          "durationTicks": 384,
          "midi": 50,
          "name": "D3",
          "ticks": 50688,
          "time": 39.6,
          "velocity": 0.5118110236220472
        },
        {
          "duration": 0.29999999999999716,
          "durationTicks": 384,
          "midi": 55,
          "name": "G3",
          "ticks": 50688,
          "time": 39.6,
          "velocity": 0.5118110236220472
        },
        {
          "duration": 0.29999999999999716,
          "durationTicks": 384,
          "midi": 59,
          "name": "B3",
          "ticks": 50688,
          "time": 39.6,
          "velocity": 0.5118110236220472
        },
        {
          "duration": 0.29999999999999716,
          "durationTicks": 384,
          "midi": 67,
          "name": "G4",
          "ticks": 50688,
          "time": 39.6,
          "velocity": 0.5118110236220472
        },
        {
          "duration": 0.29999999999999716,
          "durationTicks": 384,
          "midi": 67,
          "name": "G4",
          "ticks": 51072,
          "time": 39.9,
          "velocity": 0.5118110236220472
        },
        {
          "duration": 0.29999999999999716,
          "durationTicks": 384,
          "midi": 59,
          "name": "B3",
          "ticks": 51072,
          "time": 39.9,
          "velocity": 0.5118110236220472
        },
        {
          "duration": 0.29999999999999716,
          "durationTicks": 384,
          "midi": 55,
          "name": "G3",
          "ticks": 51072,
          "time": 39.9,
          "velocity": 0.5118110236220472
        },
        {
          "duration": 0.29999999999999716,
          "durationTicks": 384,
          "midi": 50,
          "name": "D3",
          "ticks": 51072,
          "time": 39.9,
          "velocity": 0.5118110236220472
        },
        {
          "duration": 0.29999999999999716,
          "durationTicks": 384,
          "midi": 47,
          "name": "B2",
          "ticks": 51072,
          "time": 39.9,
          "velocity": 0.5118110236220472
        },
        {
          "duration": 0.29999999999999716,
          "durationTicks": 384,
          "midi": 43,
          "name": "G2",
          "ticks": 51072,
          "time": 39.9,
          "velocity": 0.5118110236220472
        },
        {
          "duration": 0.30000000000000426,
          "durationTicks": 384,
          "midi": 67,
          "name": "G4",
          "ticks": 51456,
          "time": 40.199999999999996,
          "velocity": 0.5118110236220472
        },
        {
          "duration": 0.30000000000000426,
          "durationTicks": 384,
          "midi": 59,
          "name": "B3",
          "ticks": 51456,
          "time": 40.199999999999996,
          "velocity": 0.5118110236220472
        },
        {
          "duration": 0.30000000000000426,
          "durationTicks": 384,
          "midi": 55,
          "name": "G3",
          "ticks": 51456,
          "time": 40.199999999999996,
          "velocity": 0.5118110236220472
        },
        {
          "duration": 0.30000000000000426,
          "durationTicks": 384,
          "midi": 50,
          "name": "D3",
          "ticks": 51456,
          "time": 40.199999999999996,
          "velocity": 0.5118110236220472
        },
        {
          "duration": 0.30000000000000426,
          "durationTicks": 384,
          "midi": 47,
          "name": "B2",
          "ticks": 51456,
          "time": 40.199999999999996,
          "velocity": 0.5118110236220472
        },
        {
          "duration": 0.30000000000000426,
          "durationTicks": 384,
          "midi": 43,
          "name": "G2",
          "ticks": 51456,
          "time": 40.199999999999996,
          "velocity": 0.5118110236220472
        },
        {
          "duration": 0.29999999999999716,
          "durationTicks": 384,
          "midi": 43,
          "name": "G2",
          "ticks": 51840,
          "time": 40.5,
          "velocity": 0.5118110236220472
        },
        {
          "duration": 0.29999999999999716,
          "durationTicks": 384,
          "midi": 47,
          "name": "B2",
          "ticks": 51840,
          "time": 40.5,
          "velocity": 0.5118110236220472
        },
        {
          "duration": 0.29999999999999716,
          "durationTicks": 384,
          "midi": 50,
          "name": "D3",
          "ticks": 51840,
          "time": 40.5,
          "velocity": 0.5118110236220472
        },
        {
          "duration": 0.29999999999999716,
          "durationTicks": 384,
          "midi": 55,
          "name": "G3",
          "ticks": 51840,
          "time": 40.5,
          "velocity": 0.5118110236220472
        },
        {
          "duration": 0.29999999999999716,
          "durationTicks": 384,
          "midi": 59,
          "name": "B3",
          "ticks": 51840,
          "time": 40.5,
          "velocity": 0.5118110236220472
        },
        {
          "duration": 0.29999999999999716,
          "durationTicks": 384,
          "midi": 67,
          "name": "G4",
          "ticks": 51840,
          "time": 40.5,
          "velocity": 0.5118110236220472
        },
        {
          "duration": 0.30000000000000426,
          "durationTicks": 384,
          "midi": 67,
          "name": "G4",
          "ticks": 52224,
          "time": 40.8,
          "velocity": 0.5118110236220472
        },
        {
          "duration": 0.30000000000000426,
          "durationTicks": 384,
          "midi": 59,
          "name": "B3",
          "ticks": 52224,
          "time": 40.8,
          "velocity": 0.5118110236220472
        },
        {
          "duration": 0.30000000000000426,
          "durationTicks": 384,
          "midi": 55,
          "name": "G3",
          "ticks": 52224,
          "time": 40.8,
          "velocity": 0.5118110236220472
        },
        {
          "duration": 0.30000000000000426,
          "durationTicks": 384,
          "midi": 50,
          "name": "D3",
          "ticks": 52224,
          "time": 40.8,
          "velocity": 0.5118110236220472
        },
        {
          "duration": 0.30000000000000426,
          "durationTicks": 384,
          "midi": 47,
          "name": "B2",
          "ticks": 52224,
          "time": 40.8,
          "velocity": 0.5118110236220472
        },
        {
          "duration": 0.30000000000000426,
          "durationTicks": 384,
          "midi": 43,
          "name": "G2",
          "ticks": 52224,
          "time": 40.8,
          "velocity": 0.5118110236220472
        },
        {
          "duration": 0.29999999999999716,
          "durationTicks": 384,
          "midi": 43,
          "name": "G2",
          "ticks": 52608,
          "time": 41.1,
          "velocity": 0.5118110236220472
        },
        {
          "duration": 0.29999999999999716,
          "durationTicks": 384,
          "midi": 47,
          "name": "B2",
          "ticks": 52608,
          "time": 41.1,
          "velocity": 0.5118110236220472
        },
        {
          "duration": 0.29999999999999716,
          "durationTicks": 384,
          "midi": 50,
          "name": "D3",
          "ticks": 52608,
          "time": 41.1,
          "velocity": 0.5118110236220472
        },
        {
          "duration": 0.29999999999999716,
          "durationTicks": 384,
          "midi": 55,
          "name": "G3",
          "ticks": 52608,
          "time": 41.1,
          "velocity": 0.5118110236220472
        },
        {
          "duration": 0.29999999999999716,
          "durationTicks": 384,
          "midi": 59,
          "name": "B3",
          "ticks": 52608,
          "time": 41.1,
          "velocity": 0.5118110236220472
        },
        {
          "duration": 0.29999999999999716,
          "durationTicks": 384,
          "midi": 67,
          "name": "G4",
          "ticks": 52608,
          "time": 41.1,
          "velocity": 0.5118110236220472
        },
        {
          "duration": 0.8999999999999986,
          "durationTicks": 1152,
          "midi": 67,
          "name": "G4",
          "ticks": 52992,
          "time": 41.4,
          "velocity": 0.5118110236220472
        },
        {
          "duration": 0.8999999999999986,
          "durationTicks": 1152,
          "midi": 59,
          "name": "B3",
          "ticks": 52992,
          "time": 41.4,
          "velocity": 0.5118110236220472
        },
        {
          "duration": 0.8999999999999986,
          "durationTicks": 1152,
          "midi": 55,
          "name": "G3",
          "ticks": 52992,
          "time": 41.4,
          "velocity": 0.5118110236220472
        },
        {
          "duration": 0.8999999999999986,
          "durationTicks": 1152,
          "midi": 50,
          "name": "D3",
          "ticks": 52992,
          "time": 41.4,
          "velocity": 0.5118110236220472
        },
        {
          "duration": 0.8999999999999986,
          "durationTicks": 1152,
          "midi": 47,
          "name": "B2",
          "ticks": 52992,
          "time": 41.4,
          "velocity": 0.5118110236220472
        },
        {
          "duration": 0.8999999999999986,
          "durationTicks": 1152,
          "midi": 43,
          "name": "G2",
          "ticks": 52992,
          "time": 41.4,
          "velocity": 0.5118110236220472
        },
        {
          "duration": 0.8999999999999986,
          "durationTicks": 1152,
          "midi": 45,
          "name": "A2",
          "ticks": 54144,
          "time": 42.3,
          "velocity": 0.5118110236220472
        },
        {
          "duration": 0.8999999999999986,
          "durationTicks": 1152,
          "midi": 52,
          "name": "E3",
          "ticks": 54144,
          "time": 42.3,
          "velocity": 0.5118110236220472
        },
        {
          "duration": 0.8999999999999986,
          "durationTicks": 1152,
          "midi": 57,
          "name": "A3",
          "ticks": 54144,
          "time": 42.3,
          "velocity": 0.5118110236220472
        },
        {
          "duration": 0.8999999999999986,
          "durationTicks": 1152,
          "midi": 60,
          "name": "C4",
          "ticks": 54144,
          "time": 42.3,
          "velocity": 0.5118110236220472
        },
        {
          "duration": 0.8999999999999986,
          "durationTicks": 1152,
          "midi": 64,
          "name": "E4",
          "ticks": 54144,
          "time": 42.3,
          "velocity": 0.5118110236220472
        },
        {
          "duration": 0.45000000000000284,
          "durationTicks": 576,
          "midi": 50,
          "name": "D3",
          "ticks": 55296,
          "time": 43.199999999999996,
          "velocity": 0.5118110236220472
        },
        {
          "duration": 0.45000000000000284,
          "durationTicks": 576,
          "midi": 57,
          "name": "A3",
          "ticks": 55296,
          "time": 43.199999999999996,
          "velocity": 0.5118110236220472
        },
        {
          "duration": 0.45000000000000284,
          "durationTicks": 576,
          "midi": 62,
          "name": "D4",
          "ticks": 55296,
          "time": 43.199999999999996,
          "velocity": 0.5118110236220472
        },
        {
          "duration": 0.45000000000000284,
          "durationTicks": 576,
          "midi": 65,
          "name": "F4",
          "ticks": 55296,
          "time": 43.199999999999996,
          "velocity": 0.5118110236220472
        },
        {
          "duration": 0.45000000000000284,
          "durationTicks": 576,
          "midi": 65,
          "name": "F4",
          "ticks": 55872,
          "time": 43.65,
          "velocity": 0.5118110236220472
        },
        {
          "duration": 0.45000000000000284,
          "durationTicks": 576,
          "midi": 62,
          "name": "D4",
          "ticks": 55872,
          "time": 43.65,
          "velocity": 0.5118110236220472
        },
        {
          "duration": 0.45000000000000284,
          "durationTicks": 576,
          "midi": 57,
          "name": "A3",
          "ticks": 55872,
          "time": 43.65,
          "velocity": 0.5118110236220472
        },
        {
          "duration": 0.45000000000000284,
          "durationTicks": 576,
          "midi": 50,
          "name": "D3",
          "ticks": 55872,
          "time": 43.65,
          "velocity": 0.5118110236220472
        },
        {
          "duration": 0.44999999999999574,
          "durationTicks": 576,
          "midi": 50,
          "name": "D3",
          "ticks": 56448,
          "time": 44.1,
          "velocity": 0.5118110236220472
        },
        {
          "duration": 0.44999999999999574,
          "durationTicks": 576,
          "midi": 57,
          "name": "A3",
          "ticks": 56448,
          "time": 44.1,
          "velocity": 0.5118110236220472
        },
        {
          "duration": 0.44999999999999574,
          "durationTicks": 576,
          "midi": 62,
          "name": "D4",
          "ticks": 56448,
          "time": 44.1,
          "velocity": 0.5118110236220472
        },
        {
          "duration": 0.44999999999999574,
          "durationTicks": 576,
          "midi": 65,
          "name": "F4",
          "ticks": 56448,
          "time": 44.1,
          "velocity": 0.5118110236220472
        },
        {
          "duration": 0.45000000000000284,
          "durationTicks": 576,
          "midi": 50,
          "name": "D3",
          "ticks": 57024,
          "time": 44.55,
          "velocity": 0.5118110236220472
        },
        {
          "duration": 0.45000000000000284,
          "durationTicks": 576,
          "midi": 57,
          "name": "A3",
          "ticks": 57024,
          "time": 44.55,
          "velocity": 0.5118110236220472
        },
        {
          "duration": 0.45000000000000284,
          "durationTicks": 576,
          "midi": 62,
          "name": "D4",
          "ticks": 57024,
          "time": 44.55,
          "velocity": 0.5118110236220472
        },
        {
          "duration": 0.45000000000000284,
          "durationTicks": 576,
          "midi": 65,
          "name": "F4",
          "ticks": 57024,
          "time": 44.55,
          "velocity": 0.5118110236220472
        },
        {
          "duration": 0.8999999999999986,
          "durationTicks": 1152,
          "midi": 67,
          "name": "G4",
          "ticks": 57600,
          "time": 45,
          "velocity": 0.5118110236220472
        },
        {
          "duration": 0.8999999999999986,
          "durationTicks": 1152,
          "midi": 59,
          "name": "B3",
          "ticks": 57600,
          "time": 45,
          "velocity": 0.5118110236220472
        },
        {
          "duration": 0.8999999999999986,
          "durationTicks": 1152,
          "midi": 55,
          "name": "G3",
          "ticks": 57600,
          "time": 45,
          "velocity": 0.5118110236220472
        },
        {
          "duration": 0.8999999999999986,
          "durationTicks": 1152,
          "midi": 50,
          "name": "D3",
          "ticks": 57600,
          "time": 45,
          "velocity": 0.5118110236220472
        },
        {
          "duration": 0.8999999999999986,
          "durationTicks": 1152,
          "midi": 47,
          "name": "B2",
          "ticks": 57600,
          "time": 45,
          "velocity": 0.5118110236220472
        },
        {
          "duration": 0.8999999999999986,
          "durationTicks": 1152,
          "midi": 43,
          "name": "G2",
          "ticks": 57600,
          "time": 45,
          "velocity": 0.5118110236220472
        },
        {
          "duration": 0.8999999999999986,
          "durationTicks": 1152,
          "midi": 43,
          "name": "G2",
          "ticks": 58752,
          "time": 45.9,
          "velocity": 0.5118110236220472
        },
        {
          "duration": 0.8999999999999986,
          "durationTicks": 1152,
          "midi": 47,
          "name": "B2",
          "ticks": 58752,
          "time": 45.9,
          "velocity": 0.5118110236220472
        },
        {
          "duration": 0.8999999999999986,
          "durationTicks": 1152,
          "midi": 50,
          "name": "D3",
          "ticks": 58752,
          "time": 45.9,
          "velocity": 0.5118110236220472
        },
        {
          "duration": 0.8999999999999986,
          "durationTicks": 1152,
          "midi": 55,
          "name": "G3",
          "ticks": 58752,
          "time": 45.9,
          "velocity": 0.5118110236220472
        },
        {
          "duration": 0.8999999999999986,
          "durationTicks": 1152,
          "midi": 59,
          "name": "B3",
          "ticks": 58752,
          "time": 45.9,
          "velocity": 0.5118110236220472
        },
        {
          "duration": 0.8999999999999986,
          "durationTicks": 1152,
          "midi": 67,
          "name": "G4",
          "ticks": 58752,
          "time": 45.9,
          "velocity": 0.5118110236220472
        },
        {
          "duration": 0.45000000000000284,
          "durationTicks": 576,
          "midi": 45,
          "name": "A2",
          "ticks": 59904,
          "time": 46.8,
          "velocity": 0.5118110236220472
        },
        {
          "duration": 0.45000000000000284,
          "durationTicks": 576,
          "midi": 52,
          "name": "E3",
          "ticks": 59904,
          "time": 46.8,
          "velocity": 0.5118110236220472
        },
        {
          "duration": 0.45000000000000284,
          "durationTicks": 576,
          "midi": 57,
          "name": "A3",
          "ticks": 59904,
          "time": 46.8,
          "velocity": 0.5118110236220472
        },
        {
          "duration": 0.45000000000000284,
          "durationTicks": 576,
          "midi": 60,
          "name": "C4",
          "ticks": 59904,
          "time": 46.8,
          "velocity": 0.5118110236220472
        },
        {
          "duration": 0.45000000000000284,
          "durationTicks": 576,
          "midi": 64,
          "name": "E4",
          "ticks": 59904,
          "time": 46.8,
          "velocity": 0.5118110236220472
        },
        {
          "duration": 0.44999999999999574,
          "durationTicks": 576,
          "midi": 64,
          "name": "E4",
          "ticks": 60480,
          "time": 47.25,
          "velocity": 0.5118110236220472
        },
        {
          "duration": 0.44999999999999574,
          "durationTicks": 576,
          "midi": 60,
          "name": "C4",
          "ticks": 60480,
          "time": 47.25,
          "velocity": 0.5118110236220472
        },
        {
          "duration": 0.44999999999999574,
          "durationTicks": 576,
          "midi": 57,
          "name": "A3",
          "ticks": 60480,
          "time": 47.25,
          "velocity": 0.5118110236220472
        },
        {
          "duration": 0.44999999999999574,
          "durationTicks": 576,
          "midi": 52,
          "name": "E3",
          "ticks": 60480,
          "time": 47.25,
          "velocity": 0.5118110236220472
        },
        {
          "duration": 0.44999999999999574,
          "durationTicks": 576,
          "midi": 45,
          "name": "A2",
          "ticks": 60480,
          "time": 47.25,
          "velocity": 0.5118110236220472
        },
        {
          "duration": 0.45000000000000284,
          "durationTicks": 576,
          "midi": 45,
          "name": "A2",
          "ticks": 61056,
          "time": 47.699999999999996,
          "velocity": 0.5118110236220472
        },
        {
          "duration": 0.45000000000000284,
          "durationTicks": 576,
          "midi": 52,
          "name": "E3",
          "ticks": 61056,
          "time": 47.699999999999996,
          "velocity": 0.5118110236220472
        },
        {
          "duration": 0.45000000000000284,
          "durationTicks": 576,
          "midi": 57,
          "name": "A3",
          "ticks": 61056,
          "time": 47.699999999999996,
          "velocity": 0.5118110236220472
        },
        {
          "duration": 0.45000000000000284,
          "durationTicks": 576,
          "midi": 60,
          "name": "C4",
          "ticks": 61056,
          "time": 47.699999999999996,
          "velocity": 0.5118110236220472
        },
        {
          "duration": 0.45000000000000284,
          "durationTicks": 576,
          "midi": 64,
          "name": "E4",
          "ticks": 61056,
          "time": 47.699999999999996,
          "velocity": 0.5118110236220472
        },
        {
          "duration": 0.45000000000000284,
          "durationTicks": 576,
          "midi": 64,
          "name": "E4",
          "ticks": 61632,
          "time": 48.15,
          "velocity": 0.5118110236220472
        },
        {
          "duration": 0.45000000000000284,
          "durationTicks": 576,
          "midi": 60,
          "name": "C4",
          "ticks": 61632,
          "time": 48.15,
          "velocity": 0.5118110236220472
        },
        {
          "duration": 0.45000000000000284,
          "durationTicks": 576,
          "midi": 57,
          "name": "A3",
          "ticks": 61632,
          "time": 48.15,
          "velocity": 0.5118110236220472
        },
        {
          "duration": 0.45000000000000284,
          "durationTicks": 576,
          "midi": 52,
          "name": "E3",
          "ticks": 61632,
          "time": 48.15,
          "velocity": 0.5118110236220472
        },
        {
          "duration": 0.45000000000000284,
          "durationTicks": 576,
          "midi": 45,
          "name": "A2",
          "ticks": 61632,
          "time": 48.15,
          "velocity": 0.5118110236220472
        },
        {
          "duration": 0.44999999999999574,
          "durationTicks": 576,
          "midi": 45,
          "name": "A2",
          "ticks": 62208,
          "time": 48.6,
          "velocity": 0.5118110236220472
        },
        {
          "duration": 0.44999999999999574,
          "durationTicks": 576,
          "midi": 52,
          "name": "E3",
          "ticks": 62208,
          "time": 48.6,
          "velocity": 0.5118110236220472
        },
        {
          "duration": 0.44999999999999574,
          "durationTicks": 576,
          "midi": 57,
          "name": "A3",
          "ticks": 62208,
          "time": 48.6,
          "velocity": 0.5118110236220472
        },
        {
          "duration": 0.44999999999999574,
          "durationTicks": 576,
          "midi": 60,
          "name": "C4",
          "ticks": 62208,
          "time": 48.6,
          "velocity": 0.5118110236220472
        },
        {
          "duration": 0.44999999999999574,
          "durationTicks": 576,
          "midi": 64,
          "name": "E4",
          "ticks": 62208,
          "time": 48.6,
          "velocity": 0.5118110236220472
        },
        {
          "duration": 0.45000000000000284,
          "durationTicks": 576,
          "midi": 45,
          "name": "A2",
          "ticks": 62784,
          "time": 49.05,
          "velocity": 0.5118110236220472
        },
        {
          "duration": 0.45000000000000284,
          "durationTicks": 576,
          "midi": 52,
          "name": "E3",
          "ticks": 62784,
          "time": 49.05,
          "velocity": 0.5118110236220472
        },
        {
          "duration": 0.45000000000000284,
          "durationTicks": 576,
          "midi": 57,
          "name": "A3",
          "ticks": 62784,
          "time": 49.05,
          "velocity": 0.5118110236220472
        },
        {
          "duration": 0.45000000000000284,
          "durationTicks": 576,
          "midi": 60,
          "name": "C4",
          "ticks": 62784,
          "time": 49.05,
          "velocity": 0.5118110236220472
        },
        {
          "duration": 0.45000000000000284,
          "durationTicks": 576,
          "midi": 64,
          "name": "E4",
          "ticks": 62784,
          "time": 49.05,
          "velocity": 0.5118110236220472
        },
        {
          "duration": 0.44999999999999574,
          "durationTicks": 576,
          "midi": 64,
          "name": "E4",
          "ticks": 63360,
          "time": 49.5,
          "velocity": 0.5118110236220472
        },
        {
          "duration": 0.44999999999999574,
          "durationTicks": 576,
          "midi": 60,
          "name": "C4",
          "ticks": 63360,
          "time": 49.5,
          "velocity": 0.5118110236220472
        },
        {
          "duration": 0.44999999999999574,
          "durationTicks": 576,
          "midi": 57,
          "name": "A3",
          "ticks": 63360,
          "time": 49.5,
          "velocity": 0.5118110236220472
        },
        {
          "duration": 0.44999999999999574,
          "durationTicks": 576,
          "midi": 52,
          "name": "E3",
          "ticks": 63360,
          "time": 49.5,
          "velocity": 0.5118110236220472
        },
        {
          "duration": 0.44999999999999574,
          "durationTicks": 576,
          "midi": 45,
          "name": "A2",
          "ticks": 63360,
          "time": 49.5,
          "velocity": 0.5118110236220472
        },
        {
          "duration": 0.45000000000000284,
          "durationTicks": 576,
          "midi": 45,
          "name": "A2",
          "ticks": 63936,
          "time": 49.949999999999996,
          "velocity": 0.5118110236220472
        },
        {
          "duration": 0.45000000000000284,
          "durationTicks": 576,
          "midi": 52,
          "name": "E3",
          "ticks": 63936,
          "time": 49.949999999999996,
          "velocity": 0.5118110236220472
        },
        {
          "duration": 0.45000000000000284,
          "durationTicks": 576,
          "midi": 57,
          "name": "A3",
          "ticks": 63936,
          "time": 49.949999999999996,
          "velocity": 0.5118110236220472
        },
        {
          "duration": 0.45000000000000284,
          "durationTicks": 576,
          "midi": 60,
          "name": "C4",
          "ticks": 63936,
          "time": 49.949999999999996,
          "velocity": 0.5118110236220472
        },
        {
          "duration": 0.45000000000000284,
          "durationTicks": 576,
          "midi": 64,
          "name": "E4",
          "ticks": 63936,
          "time": 49.949999999999996,
          "velocity": 0.5118110236220472
        },
        {
          "duration": 0.45000000000000284,
          "durationTicks": 576,
          "midi": 65,
          "name": "F4",
          "ticks": 64512,
          "time": 50.4,
          "velocity": 0.5118110236220472
        },
        {
          "duration": 0.45000000000000284,
          "durationTicks": 576,
          "midi": 60,
          "name": "C4",
          "ticks": 64512,
          "time": 50.4,
          "velocity": 0.5118110236220472
        },
        {
          "duration": 0.45000000000000284,
          "durationTicks": 576,
          "midi": 57,
          "name": "A3",
          "ticks": 64512,
          "time": 50.4,
          "velocity": 0.5118110236220472
        },
        {
          "duration": 0.45000000000000284,
          "durationTicks": 576,
          "midi": 53,
          "name": "F3",
          "ticks": 64512,
          "time": 50.4,
          "velocity": 0.5118110236220472
        },
        {
          "duration": 0.45000000000000284,
          "durationTicks": 576,
          "midi": 48,
          "name": "C3",
          "ticks": 64512,
          "time": 50.4,
          "velocity": 0.5118110236220472
        },
        {
          "duration": 0.45000000000000284,
          "durationTicks": 576,
          "midi": 41,
          "name": "F2",
          "ticks": 64512,
          "time": 50.4,
          "velocity": 0.5118110236220472
        },
        {
          "duration": 0.44999999999999574,
          "durationTicks": 576,
          "midi": 65,
          "name": "F4",
          "ticks": 65088,
          "time": 50.85,
          "velocity": 0.5118110236220472
        },
        {
          "duration": 0.44999999999999574,
          "durationTicks": 576,
          "midi": 60,
          "name": "C4",
          "ticks": 65088,
          "time": 50.85,
          "velocity": 0.5118110236220472
        },
        {
          "duration": 0.44999999999999574,
          "durationTicks": 576,
          "midi": 57,
          "name": "A3",
          "ticks": 65088,
          "time": 50.85,
          "velocity": 0.5118110236220472
        },
        {
          "duration": 0.44999999999999574,
          "durationTicks": 576,
          "midi": 53,
          "name": "F3",
          "ticks": 65088,
          "time": 50.85,
          "velocity": 0.5118110236220472
        },
        {
          "duration": 0.44999999999999574,
          "durationTicks": 576,
          "midi": 48,
          "name": "C3",
          "ticks": 65088,
          "time": 50.85,
          "velocity": 0.5118110236220472
        },
        {
          "duration": 0.44999999999999574,
          "durationTicks": 576,
          "midi": 41,
          "name": "F2",
          "ticks": 65088,
          "time": 50.85,
          "velocity": 0.5118110236220472
        },
        {
          "duration": 0.45000000000000284,
          "durationTicks": 576,
          "midi": 41,
          "name": "F2",
          "ticks": 65664,
          "time": 51.3,
          "velocity": 0.5118110236220472
        },
        {
          "duration": 0.45000000000000284,
          "durationTicks": 576,
          "midi": 48,
          "name": "C3",
          "ticks": 65664,
          "time": 51.3,
          "velocity": 0.5118110236220472
        },
        {
          "duration": 0.45000000000000284,
          "durationTicks": 576,
          "midi": 53,
          "name": "F3",
          "ticks": 65664,
          "time": 51.3,
          "velocity": 0.5118110236220472
        },
        {
          "duration": 0.45000000000000284,
          "durationTicks": 576,
          "midi": 57,
          "name": "A3",
          "ticks": 65664,
          "time": 51.3,
          "velocity": 0.5118110236220472
        },
        {
          "duration": 0.45000000000000284,
          "durationTicks": 576,
          "midi": 60,
          "name": "C4",
          "ticks": 65664,
          "time": 51.3,
          "velocity": 0.5118110236220472
        },
        {
          "duration": 0.45000000000000284,
          "durationTicks": 576,
          "midi": 65,
          "name": "F4",
          "ticks": 65664,
          "time": 51.3,
          "velocity": 0.5118110236220472
        },
        {
          "duration": 0.44999999999999574,
          "durationTicks": 576,
          "midi": 65,
          "name": "F4",
          "ticks": 66240,
          "time": 51.75,
          "velocity": 0.5118110236220472
        },
        {
          "duration": 0.44999999999999574,
          "durationTicks": 576,
          "midi": 60,
          "name": "C4",
          "ticks": 66240,
          "time": 51.75,
          "velocity": 0.5118110236220472
        },
        {
          "duration": 0.44999999999999574,
          "durationTicks": 576,
          "midi": 57,
          "name": "A3",
          "ticks": 66240,
          "time": 51.75,
          "velocity": 0.5118110236220472
        },
        {
          "duration": 0.44999999999999574,
          "durationTicks": 576,
          "midi": 53,
          "name": "F3",
          "ticks": 66240,
          "time": 51.75,
          "velocity": 0.5118110236220472
        },
        {
          "duration": 0.44999999999999574,
          "durationTicks": 576,
          "midi": 48,
          "name": "C3",
          "ticks": 66240,
          "time": 51.75,
          "velocity": 0.5118110236220472
        },
        {
          "duration": 0.44999999999999574,
          "durationTicks": 576,
          "midi": 41,
          "name": "F2",
          "ticks": 66240,
          "time": 51.75,
          "velocity": 0.5118110236220472
        },
        {
          "duration": 0.45000000000000284,
          "durationTicks": 576,
          "midi": 43,
          "name": "G2",
          "ticks": 66816,
          "time": 52.199999999999996,
          "velocity": 0.5118110236220472
        },
        {
          "duration": 0.45000000000000284,
          "durationTicks": 576,
          "midi": 47,
          "name": "B2",
          "ticks": 66816,
          "time": 52.199999999999996,
          "velocity": 0.5118110236220472
        },
        {
          "duration": 0.45000000000000284,
          "durationTicks": 576,
          "midi": 50,
          "name": "D3",
          "ticks": 66816,
          "time": 52.199999999999996,
          "velocity": 0.5118110236220472
        },
        {
          "duration": 0.45000000000000284,
          "durationTicks": 576,
          "midi": 55,
          "name": "G3",
          "ticks": 66816,
          "time": 52.199999999999996,
          "velocity": 0.5118110236220472
        },
        {
          "duration": 0.45000000000000284,
          "durationTicks": 576,
          "midi": 59,
          "name": "B3",
          "ticks": 66816,
          "time": 52.199999999999996,
          "velocity": 0.5118110236220472
        },
        {
          "duration": 0.45000000000000284,
          "durationTicks": 576,
          "midi": 67,
          "name": "G4",
          "ticks": 66816,
          "time": 52.199999999999996,
          "velocity": 0.5118110236220472
        },
        {
          "duration": 0.45000000000000284,
          "durationTicks": 576,
          "midi": 67,
          "name": "G4",
          "ticks": 67392,
          "time": 52.65,
          "velocity": 0.5118110236220472
        },
        {
          "duration": 0.45000000000000284,
          "durationTicks": 576,
          "midi": 59,
          "name": "B3",
          "ticks": 67392,
          "time": 52.65,
          "velocity": 0.5118110236220472
        },
        {
          "duration": 0.45000000000000284,
          "durationTicks": 576,
          "midi": 55,
          "name": "G3",
          "ticks": 67392,
          "time": 52.65,
          "velocity": 0.5118110236220472
        },
        {
          "duration": 0.45000000000000284,
          "durationTicks": 576,
          "midi": 50,
          "name": "D3",
          "ticks": 67392,
          "time": 52.65,
          "velocity": 0.5118110236220472
        },
        {
          "duration": 0.45000000000000284,
          "durationTicks": 576,
          "midi": 47,
          "name": "B2",
          "ticks": 67392,
          "time": 52.65,
          "velocity": 0.5118110236220472
        },
        {
          "duration": 0.45000000000000284,
          "durationTicks": 576,
          "midi": 43,
          "name": "G2",
          "ticks": 67392,
          "time": 52.65,
          "velocity": 0.5118110236220472
        },
        {
          "duration": 0.44999999999999574,
          "durationTicks": 576,
          "midi": 67,
          "name": "G4",
          "ticks": 67968,
          "time": 53.1,
          "velocity": 0.5118110236220472
        },
        {
          "duration": 0.44999999999999574,
          "durationTicks": 576,
          "midi": 59,
          "name": "B3",
          "ticks": 67968,
          "time": 53.1,
          "velocity": 0.5118110236220472
        },
        {
          "duration": 0.44999999999999574,
          "durationTicks": 576,
          "midi": 55,
          "name": "G3",
          "ticks": 67968,
          "time": 53.1,
          "velocity": 0.5118110236220472
        },
        {
          "duration": 0.44999999999999574,
          "durationTicks": 576,
          "midi": 50,
          "name": "D3",
          "ticks": 67968,
          "time": 53.1,
          "velocity": 0.5118110236220472
        },
        {
          "duration": 0.44999999999999574,
          "durationTicks": 576,
          "midi": 47,
          "name": "B2",
          "ticks": 67968,
          "time": 53.1,
          "velocity": 0.5118110236220472
        },
        {
          "duration": 0.44999999999999574,
          "durationTicks": 576,
          "midi": 43,
          "name": "G2",
          "ticks": 67968,
          "time": 53.1,
          "velocity": 0.5118110236220472
        },
        {
          "duration": 0.45000000000000284,
          "durationTicks": 576,
          "midi": 43,
          "name": "G2",
          "ticks": 68544,
          "time": 53.55,
          "velocity": 0.5118110236220472
        },
        {
          "duration": 0.45000000000000284,
          "durationTicks": 576,
          "midi": 47,
          "name": "B2",
          "ticks": 68544,
          "time": 53.55,
          "velocity": 0.5118110236220472
        },
        {
          "duration": 0.45000000000000284,
          "durationTicks": 576,
          "midi": 50,
          "name": "D3",
          "ticks": 68544,
          "time": 53.55,
          "velocity": 0.5118110236220472
        },
        {
          "duration": 0.45000000000000284,
          "durationTicks": 576,
          "midi": 55,
          "name": "G3",
          "ticks": 68544,
          "time": 53.55,
          "velocity": 0.5118110236220472
        },
        {
          "duration": 0.45000000000000284,
          "durationTicks": 576,
          "midi": 59,
          "name": "B3",
          "ticks": 68544,
          "time": 53.55,
          "velocity": 0.5118110236220472
        },
        {
          "duration": 0.45000000000000284,
          "durationTicks": 576,
          "midi": 67,
          "name": "G4",
          "ticks": 68544,
          "time": 53.55,
          "velocity": 0.5118110236220472
        },
        {
          "duration": 0.44999999999999574,
          "durationTicks": 576,
          "midi": 65,
          "name": "F4",
          "ticks": 69120,
          "time": 54,
          "velocity": 0.5118110236220472
        },
        {
          "duration": 0.44999999999999574,
          "durationTicks": 576,
          "midi": 62,
          "name": "D4",
          "ticks": 69120,
          "time": 54,
          "velocity": 0.5118110236220472
        },
        {
          "duration": 0.44999999999999574,
          "durationTicks": 576,
          "midi": 57,
          "name": "A3",
          "ticks": 69120,
          "time": 54,
          "velocity": 0.5118110236220472
        },
        {
          "duration": 0.44999999999999574,
          "durationTicks": 576,
          "midi": 50,
          "name": "D3",
          "ticks": 69120,
          "time": 54,
          "velocity": 0.5118110236220472
        },
        {
          "duration": 0.45000000000000284,
          "durationTicks": 576,
          "midi": 50,
          "name": "D3",
          "ticks": 69696,
          "time": 54.449999999999996,
          "velocity": 0.5118110236220472
        },
        {
          "duration": 0.45000000000000284,
          "durationTicks": 576,
          "midi": 57,
          "name": "A3",
          "ticks": 69696,
          "time": 54.449999999999996,
          "velocity": 0.5118110236220472
        },
        {
          "duration": 0.45000000000000284,
          "durationTicks": 576,
          "midi": 62,
          "name": "D4",
          "ticks": 69696,
          "time": 54.449999999999996,
          "velocity": 0.5118110236220472
        },
        {
          "duration": 0.45000000000000284,
          "durationTicks": 576,
          "midi": 65,
          "name": "F4",
          "ticks": 69696,
          "time": 54.449999999999996,
          "velocity": 0.5118110236220472
        },
        {
          "duration": 0.45000000000000284,
          "durationTicks": 576,
          "midi": 50,
          "name": "D3",
          "ticks": 70272,
          "time": 54.9,
          "velocity": 0.5118110236220472
        },
        {
          "duration": 0.45000000000000284,
          "durationTicks": 576,
          "midi": 57,
          "name": "A3",
          "ticks": 70272,
          "time": 54.9,
          "velocity": 0.5118110236220472
        },
        {
          "duration": 0.45000000000000284,
          "durationTicks": 576,
          "midi": 62,
          "name": "D4",
          "ticks": 70272,
          "time": 54.9,
          "velocity": 0.5118110236220472
        },
        {
          "duration": 0.45000000000000284,
          "durationTicks": 576,
          "midi": 65,
          "name": "F4",
          "ticks": 70272,
          "time": 54.9,
          "velocity": 0.5118110236220472
        },
        {
          "duration": 0.44999999999999574,
          "durationTicks": 576,
          "midi": 65,
          "name": "F4",
          "ticks": 70848,
          "time": 55.35,
          "velocity": 0.5118110236220472
        },
        {
          "duration": 0.44999999999999574,
          "durationTicks": 576,
          "midi": 62,
          "name": "D4",
          "ticks": 70848,
          "time": 55.35,
          "velocity": 0.5118110236220472
        },
        {
          "duration": 0.44999999999999574,
          "durationTicks": 576,
          "midi": 57,
          "name": "A3",
          "ticks": 70848,
          "time": 55.35,
          "velocity": 0.5118110236220472
        },
        {
          "duration": 0.44999999999999574,
          "durationTicks": 576,
          "midi": 50,
          "name": "D3",
          "ticks": 70848,
          "time": 55.35,
          "velocity": 0.5118110236220472
        },
        {
          "duration": 0.45000000000000284,
          "durationTicks": 576,
          "midi": 45,
          "name": "A2",
          "ticks": 71424,
          "time": 55.8,
          "velocity": 0.5118110236220472
        },
        {
          "duration": 0.45000000000000284,
          "durationTicks": 576,
          "midi": 52,
          "name": "E3",
          "ticks": 71424,
          "time": 55.8,
          "velocity": 0.5118110236220472
        },
        {
          "duration": 0.45000000000000284,
          "durationTicks": 576,
          "midi": 57,
          "name": "A3",
          "ticks": 71424,
          "time": 55.8,
          "velocity": 0.5118110236220472
        },
        {
          "duration": 0.45000000000000284,
          "durationTicks": 576,
          "midi": 60,
          "name": "C4",
          "ticks": 71424,
          "time": 55.8,
          "velocity": 0.5118110236220472
        },
        {
          "duration": 0.45000000000000284,
          "durationTicks": 576,
          "midi": 64,
          "name": "E4",
          "ticks": 71424,
          "time": 55.8,
          "velocity": 0.5118110236220472
        },
        {
          "duration": 0.44999999999999574,
          "durationTicks": 576,
          "midi": 45,
          "name": "A2",
          "ticks": 72000,
          "time": 56.25,
          "velocity": 0.5118110236220472
        },
        {
          "duration": 0.44999999999999574,
          "durationTicks": 576,
          "midi": 52,
          "name": "E3",
          "ticks": 72000,
          "time": 56.25,
          "velocity": 0.5118110236220472
        },
        {
          "duration": 0.44999999999999574,
          "durationTicks": 576,
          "midi": 57,
          "name": "A3",
          "ticks": 72000,
          "time": 56.25,
          "velocity": 0.5118110236220472
        },
        {
          "duration": 0.44999999999999574,
          "durationTicks": 576,
          "midi": 60,
          "name": "C4",
          "ticks": 72000,
          "time": 56.25,
          "velocity": 0.5118110236220472
        },
        {
          "duration": 0.44999999999999574,
          "durationTicks": 576,
          "midi": 64,
          "name": "E4",
          "ticks": 72000,
          "time": 56.25,
          "velocity": 0.5118110236220472
        },
        {
          "duration": 0.45000000000000284,
          "durationTicks": 576,
          "midi": 64,
          "name": "E4",
          "ticks": 72576,
          "time": 56.699999999999996,
          "velocity": 0.5118110236220472
        },
        {
          "duration": 0.45000000000000284,
          "durationTicks": 576,
          "midi": 60,
          "name": "C4",
          "ticks": 72576,
          "time": 56.699999999999996,
          "velocity": 0.5118110236220472
        },
        {
          "duration": 0.45000000000000284,
          "durationTicks": 576,
          "midi": 57,
          "name": "A3",
          "ticks": 72576,
          "time": 56.699999999999996,
          "velocity": 0.5118110236220472
        },
        {
          "duration": 0.45000000000000284,
          "durationTicks": 576,
          "midi": 52,
          "name": "E3",
          "ticks": 72576,
          "time": 56.699999999999996,
          "velocity": 0.5118110236220472
        },
        {
          "duration": 0.45000000000000284,
          "durationTicks": 576,
          "midi": 45,
          "name": "A2",
          "ticks": 72576,
          "time": 56.699999999999996,
          "velocity": 0.5118110236220472
        },
        {
          "duration": 0.44999999999999574,
          "durationTicks": 576,
          "midi": 45,
          "name": "A2",
          "ticks": 73152,
          "time": 57.15,
          "velocity": 0.5118110236220472
        },
        {
          "duration": 0.44999999999999574,
          "durationTicks": 576,
          "midi": 52,
          "name": "E3",
          "ticks": 73152,
          "time": 57.15,
          "velocity": 0.5118110236220472
        },
        {
          "duration": 0.44999999999999574,
          "durationTicks": 576,
          "midi": 57,
          "name": "A3",
          "ticks": 73152,
          "time": 57.15,
          "velocity": 0.5118110236220472
        },
        {
          "duration": 0.44999999999999574,
          "durationTicks": 576,
          "midi": 60,
          "name": "C4",
          "ticks": 73152,
          "time": 57.15,
          "velocity": 0.5118110236220472
        },
        {
          "duration": 0.44999999999999574,
          "durationTicks": 576,
          "midi": 64,
          "name": "E4",
          "ticks": 73152,
          "time": 57.15,
          "velocity": 0.5118110236220472
        },
        {
          "duration": 0.45000000000000284,
          "durationTicks": 576,
          "midi": 65,
          "name": "F4",
          "ticks": 73728,
          "time": 57.599999999999994,
          "velocity": 0.5118110236220472
        },
        {
          "duration": 0.45000000000000284,
          "durationTicks": 576,
          "midi": 60,
          "name": "C4",
          "ticks": 73728,
          "time": 57.599999999999994,
          "velocity": 0.5118110236220472
        },
        {
          "duration": 0.45000000000000284,
          "durationTicks": 576,
          "midi": 57,
          "name": "A3",
          "ticks": 73728,
          "time": 57.599999999999994,
          "velocity": 0.5118110236220472
        },
        {
          "duration": 0.45000000000000284,
          "durationTicks": 576,
          "midi": 53,
          "name": "F3",
          "ticks": 73728,
          "time": 57.599999999999994,
          "velocity": 0.5118110236220472
        },
        {
          "duration": 0.45000000000000284,
          "durationTicks": 576,
          "midi": 48,
          "name": "C3",
          "ticks": 73728,
          "time": 57.599999999999994,
          "velocity": 0.5118110236220472
        },
        {
          "duration": 0.45000000000000284,
          "durationTicks": 576,
          "midi": 41,
          "name": "F2",
          "ticks": 73728,
          "time": 57.599999999999994,
          "velocity": 0.5118110236220472
        },
        {
          "duration": 0.45000000000000284,
          "durationTicks": 576,
          "midi": 65,
          "name": "F4",
          "ticks": 74304,
          "time": 58.05,
          "velocity": 0.5118110236220472
        },
        {
          "duration": 0.45000000000000284,
          "durationTicks": 576,
          "midi": 60,
          "name": "C4",
          "ticks": 74304,
          "time": 58.05,
          "velocity": 0.5118110236220472
        },
        {
          "duration": 0.45000000000000284,
          "durationTicks": 576,
          "midi": 57,
          "name": "A3",
          "ticks": 74304,
          "time": 58.05,
          "velocity": 0.5118110236220472
        },
        {
          "duration": 0.45000000000000284,
          "durationTicks": 576,
          "midi": 53,
          "name": "F3",
          "ticks": 74304,
          "time": 58.05,
          "velocity": 0.5118110236220472
        },
        {
          "duration": 0.45000000000000284,
          "durationTicks": 576,
          "midi": 48,
          "name": "C3",
          "ticks": 74304,
          "time": 58.05,
          "velocity": 0.5118110236220472
        },
        {
          "duration": 0.45000000000000284,
          "durationTicks": 576,
          "midi": 41,
          "name": "F2",
          "ticks": 74304,
          "time": 58.05,
          "velocity": 0.5118110236220472
        },
        {
          "duration": 0.44999999999999574,
          "durationTicks": 576,
          "midi": 41,
          "name": "F2",
          "ticks": 74880,
          "time": 58.5,
          "velocity": 0.5118110236220472
        },
        {
          "duration": 0.44999999999999574,
          "durationTicks": 576,
          "midi": 48,
          "name": "C3",
          "ticks": 74880,
          "time": 58.5,
          "velocity": 0.5118110236220472
        },
        {
          "duration": 0.44999999999999574,
          "durationTicks": 576,
          "midi": 53,
          "name": "F3",
          "ticks": 74880,
          "time": 58.5,
          "velocity": 0.5118110236220472
        },
        {
          "duration": 0.44999999999999574,
          "durationTicks": 576,
          "midi": 57,
          "name": "A3",
          "ticks": 74880,
          "time": 58.5,
          "velocity": 0.5118110236220472
        },
        {
          "duration": 0.44999999999999574,
          "durationTicks": 576,
          "midi": 60,
          "name": "C4",
          "ticks": 74880,
          "time": 58.5,
          "velocity": 0.5118110236220472
        },
        {
          "duration": 0.44999999999999574,
          "durationTicks": 576,
          "midi": 65,
          "name": "F4",
          "ticks": 74880,
          "time": 58.5,
          "velocity": 0.5118110236220472
        },
        {
          "duration": 0.45000000000000284,
          "durationTicks": 576,
          "midi": 65,
          "name": "F4",
          "ticks": 75456,
          "time": 58.949999999999996,
          "velocity": 0.5118110236220472
        },
        {
          "duration": 0.45000000000000284,
          "durationTicks": 576,
          "midi": 60,
          "name": "C4",
          "ticks": 75456,
          "time": 58.949999999999996,
          "velocity": 0.5118110236220472
        },
        {
          "duration": 0.45000000000000284,
          "durationTicks": 576,
          "midi": 57,
          "name": "A3",
          "ticks": 75456,
          "time": 58.949999999999996,
          "velocity": 0.5118110236220472
        },
        {
          "duration": 0.45000000000000284,
          "durationTicks": 576,
          "midi": 53,
          "name": "F3",
          "ticks": 75456,
          "time": 58.949999999999996,
          "velocity": 0.5118110236220472
        },
        {
          "duration": 0.45000000000000284,
          "durationTicks": 576,
          "midi": 48,
          "name": "C3",
          "ticks": 75456,
          "time": 58.949999999999996,
          "velocity": 0.5118110236220472
        },
        {
          "duration": 0.45000000000000284,
          "durationTicks": 576,
          "midi": 41,
          "name": "F2",
          "ticks": 75456,
          "time": 58.949999999999996,
          "velocity": 0.5118110236220472
        },
        {
          "duration": 0.44999999999999574,
          "durationTicks": 576,
          "midi": 50,
          "name": "D3",
          "ticks": 76032,
          "time": 59.4,
          "velocity": 0.5118110236220472
        },
        {
          "duration": 0.44999999999999574,
          "durationTicks": 576,
          "midi": 57,
          "name": "A3",
          "ticks": 76032,
          "time": 59.4,
          "velocity": 0.5118110236220472
        },
        {
          "duration": 0.44999999999999574,
          "durationTicks": 576,
          "midi": 62,
          "name": "D4",
          "ticks": 76032,
          "time": 59.4,
          "velocity": 0.5118110236220472
        },
        {
          "duration": 0.44999999999999574,
          "durationTicks": 576,
          "midi": 65,
          "name": "F4",
          "ticks": 76032,
          "time": 59.4,
          "velocity": 0.5118110236220472
        },
        {
          "duration": 0.45000000000000284,
          "durationTicks": 576,
          "midi": 50,
          "name": "D3",
          "ticks": 76608,
          "time": 59.849999999999994,
          "velocity": 0.5118110236220472
        },
        {
          "duration": 0.45000000000000284,
          "durationTicks": 576,
          "midi": 57,
          "name": "A3",
          "ticks": 76608,
          "time": 59.849999999999994,
          "velocity": 0.5118110236220472
        },
        {
          "duration": 0.45000000000000284,
          "durationTicks": 576,
          "midi": 62,
          "name": "D4",
          "ticks": 76608,
          "time": 59.849999999999994,
          "velocity": 0.5118110236220472
        },
        {
          "duration": 0.45000000000000284,
          "durationTicks": 576,
          "midi": 65,
          "name": "F4",
          "ticks": 76608,
          "time": 59.849999999999994,
          "velocity": 0.5118110236220472
        },
        {
          "duration": 0.45000000000000284,
          "durationTicks": 576,
          "midi": 52,
          "name": "E3",
          "ticks": 77184,
          "time": 60.3,
          "velocity": 0.5118110236220472
        },
        {
          "duration": 0.45000000000000284,
          "durationTicks": 576,
          "midi": 59,
          "name": "B3",
          "ticks": 77184,
          "time": 60.3,
          "velocity": 0.5118110236220472
        },
        {
          "duration": 0.45000000000000284,
          "durationTicks": 576,
          "midi": 56,
          "name": "G#3",
          "ticks": 77184,
          "time": 60.3,
          "velocity": 0.5118110236220472
        },
        {
          "duration": 0.45000000000000284,
          "durationTicks": 576,
          "midi": 64,
          "name": "E4",
          "ticks": 77184,
          "time": 60.3,
          "velocity": 0.5118110236220472
        },
        {
          "duration": 0.45000000000000284,
          "durationTicks": 576,
          "midi": 47,
          "name": "B2",
          "ticks": 77184,
          "time": 60.3,
          "velocity": 0.5118110236220472
        },
        {
          "duration": 0.45000000000000284,
          "durationTicks": 576,
          "midi": 40,
          "name": "E2",
          "ticks": 77184,
          "time": 60.3,
          "velocity": 0.5118110236220472
        },
        {
          "duration": 0.44999999999999574,
          "durationTicks": 576,
          "midi": 40,
          "name": "E2",
          "ticks": 77760,
          "time": 60.75,
          "velocity": 0.5118110236220472
        },
        {
          "duration": 0.44999999999999574,
          "durationTicks": 576,
          "midi": 47,
          "name": "B2",
          "ticks": 77760,
          "time": 60.75,
          "velocity": 0.5118110236220472
        },
        {
          "duration": 0.44999999999999574,
          "durationTicks": 576,
          "midi": 64,
          "name": "E4",
          "ticks": 77760,
          "time": 60.75,
          "velocity": 0.5118110236220472
        },
        {
          "duration": 0.44999999999999574,
          "durationTicks": 576,
          "midi": 56,
          "name": "G#3",
          "ticks": 77760,
          "time": 60.75,
          "velocity": 0.5118110236220472
        },
        {
          "duration": 0.44999999999999574,
          "durationTicks": 576,
          "midi": 59,
          "name": "B3",
          "ticks": 77760,
          "time": 60.75,
          "velocity": 0.5118110236220472
        },
        {
          "duration": 0.44999999999999574,
          "durationTicks": 576,
          "midi": 52,
          "name": "E3",
          "ticks": 77760,
          "time": 60.75,
          "velocity": 0.5118110236220472
        },
        {
          "duration": 0.45000000000000284,
          "durationTicks": 576,
          "midi": 45,
          "name": "A2",
          "ticks": 78336,
          "time": 61.199999999999996,
          "velocity": 0.5118110236220472
        },
        {
          "duration": 0.45000000000000284,
          "durationTicks": 576,
          "midi": 52,
          "name": "E3",
          "ticks": 78336,
          "time": 61.199999999999996,
          "velocity": 0.5118110236220472
        },
        {
          "duration": 0.45000000000000284,
          "durationTicks": 576,
          "midi": 57,
          "name": "A3",
          "ticks": 78336,
          "time": 61.199999999999996,
          "velocity": 0.5118110236220472
        },
        {
          "duration": 0.45000000000000284,
          "durationTicks": 576,
          "midi": 60,
          "name": "C4",
          "ticks": 78336,
          "time": 61.199999999999996,
          "velocity": 0.5118110236220472
        },
        {
          "duration": 0.45000000000000284,
          "durationTicks": 576,
          "midi": 64,
          "name": "E4",
          "ticks": 78336,
          "time": 61.199999999999996,
          "velocity": 0.5118110236220472
        },
        {
          "duration": 0.44999999999999574,
          "durationTicks": 576,
          "midi": 64,
          "name": "E4",
          "ticks": 78912,
          "time": 61.65,
          "velocity": 0.5118110236220472
        },
        {
          "duration": 0.44999999999999574,
          "durationTicks": 576,
          "midi": 60,
          "name": "C4",
          "ticks": 78912,
          "time": 61.65,
          "velocity": 0.5118110236220472
        },
        {
          "duration": 0.44999999999999574,
          "durationTicks": 576,
          "midi": 57,
          "name": "A3",
          "ticks": 78912,
          "time": 61.65,
          "velocity": 0.5118110236220472
        },
        {
          "duration": 0.44999999999999574,
          "durationTicks": 576,
          "midi": 52,
          "name": "E3",
          "ticks": 78912,
          "time": 61.65,
          "velocity": 0.5118110236220472
        },
        {
          "duration": 0.44999999999999574,
          "durationTicks": 576,
          "midi": 45,
          "name": "A2",
          "ticks": 78912,
          "time": 61.65,
          "velocity": 0.5118110236220472
        },
        {
          "duration": 0.45000000000000284,
          "durationTicks": 576,
          "midi": 45,
          "name": "A2",
          "ticks": 79488,
          "time": 62.099999999999994,
          "velocity": 0.5118110236220472
        },
        {
          "duration": 0.45000000000000284,
          "durationTicks": 576,
          "midi": 52,
          "name": "E3",
          "ticks": 79488,
          "time": 62.099999999999994,
          "velocity": 0.5118110236220472
        },
        {
          "duration": 0.45000000000000284,
          "durationTicks": 576,
          "midi": 57,
          "name": "A3",
          "ticks": 79488,
          "time": 62.099999999999994,
          "velocity": 0.5118110236220472
        },
        {
          "duration": 0.45000000000000284,
          "durationTicks": 576,
          "midi": 60,
          "name": "C4",
          "ticks": 79488,
          "time": 62.099999999999994,
          "velocity": 0.5118110236220472
        },
        {
          "duration": 0.45000000000000284,
          "durationTicks": 576,
          "midi": 64,
          "name": "E4",
          "ticks": 79488,
          "time": 62.099999999999994,
          "velocity": 0.5118110236220472
        },
        {
          "duration": 0.45000000000000284,
          "durationTicks": 576,
          "midi": 64,
          "name": "E4",
          "ticks": 80064,
          "time": 62.55,
          "velocity": 0.5118110236220472
        },
        {
          "duration": 0.45000000000000284,
          "durationTicks": 576,
          "midi": 60,
          "name": "C4",
          "ticks": 80064,
          "time": 62.55,
          "velocity": 0.5118110236220472
        },
        {
          "duration": 0.45000000000000284,
          "durationTicks": 576,
          "midi": 57,
          "name": "A3",
          "ticks": 80064,
          "time": 62.55,
          "velocity": 0.5118110236220472
        },
        {
          "duration": 0.45000000000000284,
          "durationTicks": 576,
          "midi": 52,
          "name": "E3",
          "ticks": 80064,
          "time": 62.55,
          "velocity": 0.5118110236220472
        },
        {
          "duration": 0.45000000000000284,
          "durationTicks": 576,
          "midi": 45,
          "name": "A2",
          "ticks": 80064,
          "time": 62.55,
          "velocity": 0.5118110236220472
        },
        {
          "duration": 0.44999999999999574,
          "durationTicks": 576,
          "midi": 45,
          "name": "A2",
          "ticks": 80640,
          "time": 63,
          "velocity": 0.5118110236220472
        },
        {
          "duration": 0.44999999999999574,
          "durationTicks": 576,
          "midi": 52,
          "name": "E3",
          "ticks": 80640,
          "time": 63,
          "velocity": 0.5118110236220472
        },
        {
          "duration": 0.44999999999999574,
          "durationTicks": 576,
          "midi": 57,
          "name": "A3",
          "ticks": 80640,
          "time": 63,
          "velocity": 0.5118110236220472
        },
        {
          "duration": 0.44999999999999574,
          "durationTicks": 576,
          "midi": 60,
          "name": "C4",
          "ticks": 80640,
          "time": 63,
          "velocity": 0.5118110236220472
        },
        {
          "duration": 0.44999999999999574,
          "durationTicks": 576,
          "midi": 64,
          "name": "E4",
          "ticks": 80640,
          "time": 63,
          "velocity": 0.5118110236220472
        },
        {
          "duration": 0.45000000000000284,
          "durationTicks": 576,
          "midi": 45,
          "name": "A2",
          "ticks": 81216,
          "time": 63.449999999999996,
          "velocity": 0.5118110236220472
        },
        {
          "duration": 0.45000000000000284,
          "durationTicks": 576,
          "midi": 52,
          "name": "E3",
          "ticks": 81216,
          "time": 63.449999999999996,
          "velocity": 0.5118110236220472
        },
        {
          "duration": 0.45000000000000284,
          "durationTicks": 576,
          "midi": 57,
          "name": "A3",
          "ticks": 81216,
          "time": 63.449999999999996,
          "velocity": 0.5118110236220472
        },
        {
          "duration": 0.45000000000000284,
          "durationTicks": 576,
          "midi": 60,
          "name": "C4",
          "ticks": 81216,
          "time": 63.449999999999996,
          "velocity": 0.5118110236220472
        },
        {
          "duration": 0.45000000000000284,
          "durationTicks": 576,
          "midi": 64,
          "name": "E4",
          "ticks": 81216,
          "time": 63.449999999999996,
          "velocity": 0.5118110236220472
        },
        {
          "duration": 0.44999999999999574,
          "durationTicks": 576,
          "midi": 64,
          "name": "E4",
          "ticks": 81792,
          "time": 63.9,
          "velocity": 0.5118110236220472
        },
        {
          "duration": 0.44999999999999574,
          "durationTicks": 576,
          "midi": 60,
          "name": "C4",
          "ticks": 81792,
          "time": 63.9,
          "velocity": 0.5118110236220472
        },
        {
          "duration": 0.44999999999999574,
          "durationTicks": 576,
          "midi": 57,
          "name": "A3",
          "ticks": 81792,
          "time": 63.9,
          "velocity": 0.5118110236220472
        },
        {
          "duration": 0.44999999999999574,
          "durationTicks": 576,
          "midi": 52,
          "name": "E3",
          "ticks": 81792,
          "time": 63.9,
          "velocity": 0.5118110236220472
        },
        {
          "duration": 0.44999999999999574,
          "durationTicks": 576,
          "midi": 45,
          "name": "A2",
          "ticks": 81792,
          "time": 63.9,
          "velocity": 0.5118110236220472
        },
        {
          "duration": 0.45000000000000284,
          "durationTicks": 576,
          "midi": 45,
          "name": "A2",
          "ticks": 82368,
          "time": 64.35,
          "velocity": 0.5118110236220472
        },
        {
          "duration": 0.45000000000000284,
          "durationTicks": 576,
          "midi": 52,
          "name": "E3",
          "ticks": 82368,
          "time": 64.35,
          "velocity": 0.5118110236220472
        },
        {
          "duration": 0.45000000000000284,
          "durationTicks": 576,
          "midi": 57,
          "name": "A3",
          "ticks": 82368,
          "time": 64.35,
          "velocity": 0.5118110236220472
        },
        {
          "duration": 0.45000000000000284,
          "durationTicks": 576,
          "midi": 60,
          "name": "C4",
          "ticks": 82368,
          "time": 64.35,
          "velocity": 0.5118110236220472
        },
        {
          "duration": 0.45000000000000284,
          "durationTicks": 576,
          "midi": 64,
          "name": "E4",
          "ticks": 82368,
          "time": 64.35,
          "velocity": 0.5118110236220472
        },
        {
          "duration": 0.45000000000000284,
          "durationTicks": 576,
          "midi": 65,
          "name": "F4",
          "ticks": 82944,
          "time": 64.8,
          "velocity": 0.5118110236220472
        },
        {
          "duration": 0.45000000000000284,
          "durationTicks": 576,
          "midi": 60,
          "name": "C4",
          "ticks": 82944,
          "time": 64.8,
          "velocity": 0.5118110236220472
        },
        {
          "duration": 0.45000000000000284,
          "durationTicks": 576,
          "midi": 57,
          "name": "A3",
          "ticks": 82944,
          "time": 64.8,
          "velocity": 0.5118110236220472
        },
        {
          "duration": 0.45000000000000284,
          "durationTicks": 576,
          "midi": 53,
          "name": "F3",
          "ticks": 82944,
          "time": 64.8,
          "velocity": 0.5118110236220472
        },
        {
          "duration": 0.45000000000000284,
          "durationTicks": 576,
          "midi": 48,
          "name": "C3",
          "ticks": 82944,
          "time": 64.8,
          "velocity": 0.5118110236220472
        },
        {
          "duration": 0.45000000000000284,
          "durationTicks": 576,
          "midi": 41,
          "name": "F2",
          "ticks": 82944,
          "time": 64.8,
          "velocity": 0.5118110236220472
        },
        {
          "duration": 0.45000000000000284,
          "durationTicks": 576,
          "midi": 65,
          "name": "F4",
          "ticks": 83520,
          "time": 65.25,
          "velocity": 0.5118110236220472
        },
        {
          "duration": 0.45000000000000284,
          "durationTicks": 576,
          "midi": 60,
          "name": "C4",
          "ticks": 83520,
          "time": 65.25,
          "velocity": 0.5118110236220472
        },
        {
          "duration": 0.45000000000000284,
          "durationTicks": 576,
          "midi": 57,
          "name": "A3",
          "ticks": 83520,
          "time": 65.25,
          "velocity": 0.5118110236220472
        },
        {
          "duration": 0.45000000000000284,
          "durationTicks": 576,
          "midi": 53,
          "name": "F3",
          "ticks": 83520,
          "time": 65.25,
          "velocity": 0.5118110236220472
        },
        {
          "duration": 0.45000000000000284,
          "durationTicks": 576,
          "midi": 48,
          "name": "C3",
          "ticks": 83520,
          "time": 65.25,
          "velocity": 0.5118110236220472
        },
        {
          "duration": 0.45000000000000284,
          "durationTicks": 576,
          "midi": 41,
          "name": "F2",
          "ticks": 83520,
          "time": 65.25,
          "velocity": 0.5118110236220472
        },
        {
          "duration": 0.44999999999998863,
          "durationTicks": 576,
          "midi": 41,
          "name": "F2",
          "ticks": 84096,
          "time": 65.7,
          "velocity": 0.5118110236220472
        },
        {
          "duration": 0.44999999999998863,
          "durationTicks": 576,
          "midi": 48,
          "name": "C3",
          "ticks": 84096,
          "time": 65.7,
          "velocity": 0.5118110236220472
        },
        {
          "duration": 0.44999999999998863,
          "durationTicks": 576,
          "midi": 53,
          "name": "F3",
          "ticks": 84096,
          "time": 65.7,
          "velocity": 0.5118110236220472
        },
        {
          "duration": 0.44999999999998863,
          "durationTicks": 576,
          "midi": 57,
          "name": "A3",
          "ticks": 84096,
          "time": 65.7,
          "velocity": 0.5118110236220472
        },
        {
          "duration": 0.44999999999998863,
          "durationTicks": 576,
          "midi": 60,
          "name": "C4",
          "ticks": 84096,
          "time": 65.7,
          "velocity": 0.5118110236220472
        },
        {
          "duration": 0.44999999999998863,
          "durationTicks": 576,
          "midi": 65,
          "name": "F4",
          "ticks": 84096,
          "time": 65.7,
          "velocity": 0.5118110236220472
        },
        {
          "duration": 0.45000000000000284,
          "durationTicks": 576,
          "midi": 65,
          "name": "F4",
          "ticks": 84672,
          "time": 66.14999999999999,
          "velocity": 0.5118110236220472
        },
        {
          "duration": 0.45000000000000284,
          "durationTicks": 576,
          "midi": 60,
          "name": "C4",
          "ticks": 84672,
          "time": 66.14999999999999,
          "velocity": 0.5118110236220472
        },
        {
          "duration": 0.45000000000000284,
          "durationTicks": 576,
          "midi": 57,
          "name": "A3",
          "ticks": 84672,
          "time": 66.14999999999999,
          "velocity": 0.5118110236220472
        },
        {
          "duration": 0.45000000000000284,
          "durationTicks": 576,
          "midi": 53,
          "name": "F3",
          "ticks": 84672,
          "time": 66.14999999999999,
          "velocity": 0.5118110236220472
        },
        {
          "duration": 0.45000000000000284,
          "durationTicks": 576,
          "midi": 48,
          "name": "C3",
          "ticks": 84672,
          "time": 66.14999999999999,
          "velocity": 0.5118110236220472
        },
        {
          "duration": 0.45000000000000284,
          "durationTicks": 576,
          "midi": 41,
          "name": "F2",
          "ticks": 84672,
          "time": 66.14999999999999,
          "velocity": 0.5118110236220472
        },
        {
          "duration": 0.45000000000000284,
          "durationTicks": 576,
          "midi": 48,
          "name": "C3",
          "ticks": 85248,
          "time": 66.6,
          "velocity": 0.5118110236220472
        },
        {
          "duration": 0.45000000000000284,
          "durationTicks": 576,
          "midi": 52,
          "name": "E3",
          "ticks": 85248,
          "time": 66.6,
          "velocity": 0.5118110236220472
        },
        {
          "duration": 0.45000000000000284,
          "durationTicks": 576,
          "midi": 55,
          "name": "G3",
          "ticks": 85248,
          "time": 66.6,
          "velocity": 0.5118110236220472
        },
        {
          "duration": 0.45000000000000284,
          "durationTicks": 576,
          "midi": 60,
          "name": "C4",
          "ticks": 85248,
          "time": 66.6,
          "velocity": 0.5118110236220472
        },
        {
          "duration": 0.45000000000000284,
          "durationTicks": 576,
          "midi": 64,
          "name": "E4",
          "ticks": 85248,
          "time": 66.6,
          "velocity": 0.5118110236220472
        },
        {
          "duration": 0.45000000000000284,
          "durationTicks": 576,
          "midi": 48,
          "name": "C3",
          "ticks": 85824,
          "time": 67.05,
          "velocity": 0.5118110236220472
        },
        {
          "duration": 0.45000000000000284,
          "durationTicks": 576,
          "midi": 52,
          "name": "E3",
          "ticks": 85824,
          "time": 67.05,
          "velocity": 0.5118110236220472
        },
        {
          "duration": 0.45000000000000284,
          "durationTicks": 576,
          "midi": 55,
          "name": "G3",
          "ticks": 85824,
          "time": 67.05,
          "velocity": 0.5118110236220472
        },
        {
          "duration": 0.45000000000000284,
          "durationTicks": 576,
          "midi": 60,
          "name": "C4",
          "ticks": 85824,
          "time": 67.05,
          "velocity": 0.5118110236220472
        },
        {
          "duration": 0.45000000000000284,
          "durationTicks": 576,
          "midi": 64,
          "name": "E4",
          "ticks": 85824,
          "time": 67.05,
          "velocity": 0.5118110236220472
        },
        {
          "duration": 0.45000000000000284,
          "durationTicks": 576,
          "midi": 64,
          "name": "E4",
          "ticks": 86400,
          "time": 67.5,
          "velocity": 0.5118110236220472
        },
        {
          "duration": 0.45000000000000284,
          "durationTicks": 576,
          "midi": 60,
          "name": "C4",
          "ticks": 86400,
          "time": 67.5,
          "velocity": 0.5118110236220472
        },
        {
          "duration": 0.45000000000000284,
          "durationTicks": 576,
          "midi": 55,
          "name": "G3",
          "ticks": 86400,
          "time": 67.5,
          "velocity": 0.5118110236220472
        },
        {
          "duration": 0.45000000000000284,
          "durationTicks": 576,
          "midi": 52,
          "name": "E3",
          "ticks": 86400,
          "time": 67.5,
          "velocity": 0.5118110236220472
        },
        {
          "duration": 0.45000000000000284,
          "durationTicks": 576,
          "midi": 48,
          "name": "C3",
          "ticks": 86400,
          "time": 67.5,
          "velocity": 0.5118110236220472
        },
        {
          "duration": 0.44999999999998863,
          "durationTicks": 576,
          "midi": 48,
          "name": "C3",
          "ticks": 86976,
          "time": 67.95,
          "velocity": 0.5118110236220472
        },
        {
          "duration": 0.44999999999998863,
          "durationTicks": 576,
          "midi": 52,
          "name": "E3",
          "ticks": 86976,
          "time": 67.95,
          "velocity": 0.5118110236220472
        },
        {
          "duration": 0.44999999999998863,
          "durationTicks": 576,
          "midi": 55,
          "name": "G3",
          "ticks": 86976,
          "time": 67.95,
          "velocity": 0.5118110236220472
        },
        {
          "duration": 0.44999999999998863,
          "durationTicks": 576,
          "midi": 60,
          "name": "C4",
          "ticks": 86976,
          "time": 67.95,
          "velocity": 0.5118110236220472
        },
        {
          "duration": 0.44999999999998863,
          "durationTicks": 576,
          "midi": 64,
          "name": "E4",
          "ticks": 86976,
          "time": 67.95,
          "velocity": 0.5118110236220472
        },
        {
          "duration": 0.45000000000000284,
          "durationTicks": 576,
          "midi": 50,
          "name": "D3",
          "ticks": 87552,
          "time": 68.39999999999999,
          "velocity": 0.5118110236220472
        },
        {
          "duration": 0.45000000000000284,
          "durationTicks": 576,
          "midi": 57,
          "name": "A3",
          "ticks": 87552,
          "time": 68.39999999999999,
          "velocity": 0.5118110236220472
        },
        {
          "duration": 0.45000000000000284,
          "durationTicks": 576,
          "midi": 62,
          "name": "D4",
          "ticks": 87552,
          "time": 68.39999999999999,
          "velocity": 0.5118110236220472
        },
        {
          "duration": 0.45000000000000284,
          "durationTicks": 576,
          "midi": 65,
          "name": "F4",
          "ticks": 87552,
          "time": 68.39999999999999,
          "velocity": 0.5118110236220472
        },
        {
          "duration": 0.45000000000000284,
          "durationTicks": 576,
          "midi": 65,
          "name": "F4",
          "ticks": 88128,
          "time": 68.85,
          "velocity": 0.5118110236220472
        },
        {
          "duration": 0.45000000000000284,
          "durationTicks": 576,
          "midi": 62,
          "name": "D4",
          "ticks": 88128,
          "time": 68.85,
          "velocity": 0.5118110236220472
        },
        {
          "duration": 0.45000000000000284,
          "durationTicks": 576,
          "midi": 57,
          "name": "A3",
          "ticks": 88128,
          "time": 68.85,
          "velocity": 0.5118110236220472
        },
        {
          "duration": 0.45000000000000284,
          "durationTicks": 576,
          "midi": 50,
          "name": "D3",
          "ticks": 88128,
          "time": 68.85,
          "velocity": 0.5118110236220472
        },
        {
          "duration": 0.45000000000000284,
          "durationTicks": 576,
          "midi": 50,
          "name": "D3",
          "ticks": 88704,
          "time": 69.3,
          "velocity": 0.5118110236220472
        },
        {
          "duration": 0.45000000000000284,
          "durationTicks": 576,
          "midi": 57,
          "name": "A3",
          "ticks": 88704,
          "time": 69.3,
          "velocity": 0.5118110236220472
        },
        {
          "duration": 0.45000000000000284,
          "durationTicks": 576,
          "midi": 62,
          "name": "D4",
          "ticks": 88704,
          "time": 69.3,
          "velocity": 0.5118110236220472
        },
        {
          "duration": 0.45000000000000284,
          "durationTicks": 576,
          "midi": 65,
          "name": "F4",
          "ticks": 88704,
          "time": 69.3,
          "velocity": 0.5118110236220472
        },
        {
          "duration": 0.45000000000000284,
          "durationTicks": 576,
          "midi": 50,
          "name": "D3",
          "ticks": 89280,
          "time": 69.75,
          "velocity": 0.5118110236220472
        },
        {
          "duration": 0.45000000000000284,
          "durationTicks": 576,
          "midi": 57,
          "name": "A3",
          "ticks": 89280,
          "time": 69.75,
          "velocity": 0.5118110236220472
        },
        {
          "duration": 0.45000000000000284,
          "durationTicks": 576,
          "midi": 62,
          "name": "D4",
          "ticks": 89280,
          "time": 69.75,
          "velocity": 0.5118110236220472
        },
        {
          "duration": 0.45000000000000284,
          "durationTicks": 576,
          "midi": 65,
          "name": "F4",
          "ticks": 89280,
          "time": 69.75,
          "velocity": 0.5118110236220472
        },
        {
          "duration": 0.44999999999998863,
          "durationTicks": 576,
          "midi": 64,
          "name": "E4",
          "ticks": 89856,
          "time": 70.2,
          "velocity": 0.5118110236220472
        },
        {
          "duration": 0.44999999999998863,
          "durationTicks": 576,
          "midi": 60,
          "name": "C4",
          "ticks": 89856,
          "time": 70.2,
          "velocity": 0.5118110236220472
        },
        {
          "duration": 0.44999999999998863,
          "durationTicks": 576,
          "midi": 57,
          "name": "A3",
          "ticks": 89856,
          "time": 70.2,
          "velocity": 0.5118110236220472
        },
        {
          "duration": 0.44999999999998863,
          "durationTicks": 576,
          "midi": 52,
          "name": "E3",
          "ticks": 89856,
          "time": 70.2,
          "velocity": 0.5118110236220472
        },
        {
          "duration": 0.44999999999998863,
          "durationTicks": 576,
          "midi": 45,
          "name": "A2",
          "ticks": 89856,
          "time": 70.2,
          "velocity": 0.5118110236220472
        },
        {
          "duration": 0.45000000000000284,
          "durationTicks": 576,
          "midi": 45,
          "name": "A2",
          "ticks": 90432,
          "time": 70.64999999999999,
          "velocity": 0.5118110236220472
        },
        {
          "duration": 0.45000000000000284,
          "durationTicks": 576,
          "midi": 52,
          "name": "E3",
          "ticks": 90432,
          "time": 70.64999999999999,
          "velocity": 0.5118110236220472
        },
        {
          "duration": 0.45000000000000284,
          "durationTicks": 576,
          "midi": 57,
          "name": "A3",
          "ticks": 90432,
          "time": 70.64999999999999,
          "velocity": 0.5118110236220472
        },
        {
          "duration": 0.45000000000000284,
          "durationTicks": 576,
          "midi": 60,
          "name": "C4",
          "ticks": 90432,
          "time": 70.64999999999999,
          "velocity": 0.5118110236220472
        },
        {
          "duration": 0.45000000000000284,
          "durationTicks": 576,
          "midi": 64,
          "name": "E4",
          "ticks": 90432,
          "time": 70.64999999999999,
          "velocity": 0.5118110236220472
        },
        {
          "duration": 0.45000000000000284,
          "durationTicks": 576,
          "midi": 45,
          "name": "A2",
          "ticks": 91008,
          "time": 71.1,
          "velocity": 0.5118110236220472
        },
        {
          "duration": 0.45000000000000284,
          "durationTicks": 576,
          "midi": 52,
          "name": "E3",
          "ticks": 91008,
          "time": 71.1,
          "velocity": 0.5118110236220472
        },
        {
          "duration": 0.45000000000000284,
          "durationTicks": 576,
          "midi": 57,
          "name": "A3",
          "ticks": 91008,
          "time": 71.1,
          "velocity": 0.5118110236220472
        },
        {
          "duration": 0.45000000000000284,
          "durationTicks": 576,
          "midi": 60,
          "name": "C4",
          "ticks": 91008,
          "time": 71.1,
          "velocity": 0.5118110236220472
        },
        {
          "duration": 0.45000000000000284,
          "durationTicks": 576,
          "midi": 64,
          "name": "E4",
          "ticks": 91008,
          "time": 71.1,
          "velocity": 0.5118110236220472
        },
        {
          "duration": 0.45000000000000284,
          "durationTicks": 576,
          "midi": 64,
          "name": "E4",
          "ticks": 91584,
          "time": 71.55,
          "velocity": 0.5118110236220472
        },
        {
          "duration": 0.45000000000000284,
          "durationTicks": 576,
          "midi": 60,
          "name": "C4",
          "ticks": 91584,
          "time": 71.55,
          "velocity": 0.5118110236220472
        },
        {
          "duration": 0.45000000000000284,
          "durationTicks": 576,
          "midi": 57,
          "name": "A3",
          "ticks": 91584,
          "time": 71.55,
          "velocity": 0.5118110236220472
        },
        {
          "duration": 0.45000000000000284,
          "durationTicks": 576,
          "midi": 52,
          "name": "E3",
          "ticks": 91584,
          "time": 71.55,
          "velocity": 0.5118110236220472
        },
        {
          "duration": 0.45000000000000284,
          "durationTicks": 576,
          "midi": 45,
          "name": "A2",
          "ticks": 91584,
          "time": 71.55,
          "velocity": 0.5118110236220472
        },
        {
          "duration": 0.45000000000000284,
          "durationTicks": 576,
          "midi": 41,
          "name": "F2",
          "ticks": 92160,
          "time": 72,
          "velocity": 0.5118110236220472
        },
        {
          "duration": 0.45000000000000284,
          "durationTicks": 576,
          "midi": 48,
          "name": "C3",
          "ticks": 92160,
          "time": 72,
          "velocity": 0.5118110236220472
        },
        {
          "duration": 0.45000000000000284,
          "durationTicks": 576,
          "midi": 53,
          "name": "F3",
          "ticks": 92160,
          "time": 72,
          "velocity": 0.5118110236220472
        },
        {
          "duration": 0.45000000000000284,
          "durationTicks": 576,
          "midi": 57,
          "name": "A3",
          "ticks": 92160,
          "time": 72,
          "velocity": 0.5118110236220472
        },
        {
          "duration": 0.45000000000000284,
          "durationTicks": 576,
          "midi": 60,
          "name": "C4",
          "ticks": 92160,
          "time": 72,
          "velocity": 0.5118110236220472
        },
        {
          "duration": 0.45000000000000284,
          "durationTicks": 576,
          "midi": 65,
          "name": "F4",
          "ticks": 92160,
          "time": 72,
          "velocity": 0.5118110236220472
        },
        {
          "duration": 0.44999999999998863,
          "durationTicks": 576,
          "midi": 65,
          "name": "F4",
          "ticks": 92736,
          "time": 72.45,
          "velocity": 0.5118110236220472
        },
        {
          "duration": 0.44999999999998863,
          "durationTicks": 576,
          "midi": 60,
          "name": "C4",
          "ticks": 92736,
          "time": 72.45,
          "velocity": 0.5118110236220472
        },
        {
          "duration": 0.44999999999998863,
          "durationTicks": 576,
          "midi": 57,
          "name": "A3",
          "ticks": 92736,
          "time": 72.45,
          "velocity": 0.5118110236220472
        },
        {
          "duration": 0.44999999999998863,
          "durationTicks": 576,
          "midi": 53,
          "name": "F3",
          "ticks": 92736,
          "time": 72.45,
          "velocity": 0.5118110236220472
        },
        {
          "duration": 0.44999999999998863,
          "durationTicks": 576,
          "midi": 48,
          "name": "C3",
          "ticks": 92736,
          "time": 72.45,
          "velocity": 0.5118110236220472
        },
        {
          "duration": 0.44999999999998863,
          "durationTicks": 576,
          "midi": 41,
          "name": "F2",
          "ticks": 92736,
          "time": 72.45,
          "velocity": 0.5118110236220472
        },
        {
          "duration": 0.45000000000000284,
          "durationTicks": 576,
          "midi": 65,
          "name": "F4",
          "ticks": 93312,
          "time": 72.89999999999999,
          "velocity": 0.5118110236220472
        },
        {
          "duration": 0.45000000000000284,
          "durationTicks": 576,
          "midi": 60,
          "name": "C4",
          "ticks": 93312,
          "time": 72.89999999999999,
          "velocity": 0.5118110236220472
        },
        {
          "duration": 0.45000000000000284,
          "durationTicks": 576,
          "midi": 57,
          "name": "A3",
          "ticks": 93312,
          "time": 72.89999999999999,
          "velocity": 0.5118110236220472
        },
        {
          "duration": 0.45000000000000284,
          "durationTicks": 576,
          "midi": 53,
          "name": "F3",
          "ticks": 93312,
          "time": 72.89999999999999,
          "velocity": 0.5118110236220472
        },
        {
          "duration": 0.45000000000000284,
          "durationTicks": 576,
          "midi": 48,
          "name": "C3",
          "ticks": 93312,
          "time": 72.89999999999999,
          "velocity": 0.5118110236220472
        },
        {
          "duration": 0.45000000000000284,
          "durationTicks": 576,
          "midi": 41,
          "name": "F2",
          "ticks": 93312,
          "time": 72.89999999999999,
          "velocity": 0.5118110236220472
        },
        {
          "duration": 0.45000000000000284,
          "durationTicks": 576,
          "midi": 41,
          "name": "F2",
          "ticks": 93888,
          "time": 73.35,
          "velocity": 0.5118110236220472
        },
        {
          "duration": 0.45000000000000284,
          "durationTicks": 576,
          "midi": 48,
          "name": "C3",
          "ticks": 93888,
          "time": 73.35,
          "velocity": 0.5118110236220472
        },
        {
          "duration": 0.45000000000000284,
          "durationTicks": 576,
          "midi": 53,
          "name": "F3",
          "ticks": 93888,
          "time": 73.35,
          "velocity": 0.5118110236220472
        },
        {
          "duration": 0.45000000000000284,
          "durationTicks": 576,
          "midi": 57,
          "name": "A3",
          "ticks": 93888,
          "time": 73.35,
          "velocity": 0.5118110236220472
        },
        {
          "duration": 0.45000000000000284,
          "durationTicks": 576,
          "midi": 60,
          "name": "C4",
          "ticks": 93888,
          "time": 73.35,
          "velocity": 0.5118110236220472
        },
        {
          "duration": 0.45000000000000284,
          "durationTicks": 576,
          "midi": 65,
          "name": "F4",
          "ticks": 93888,
          "time": 73.35,
          "velocity": 0.5118110236220472
        },
        {
          "duration": 0.45000000000000284,
          "durationTicks": 576,
          "midi": 65,
          "name": "F4",
          "ticks": 94464,
          "time": 73.8,
          "velocity": 0.5118110236220472
        },
        {
          "duration": 0.45000000000000284,
          "durationTicks": 576,
          "midi": 62,
          "name": "D4",
          "ticks": 94464,
          "time": 73.8,
          "velocity": 0.5118110236220472
        },
        {
          "duration": 0.45000000000000284,
          "durationTicks": 576,
          "midi": 57,
          "name": "A3",
          "ticks": 94464,
          "time": 73.8,
          "velocity": 0.5118110236220472
        },
        {
          "duration": 0.45000000000000284,
          "durationTicks": 576,
          "midi": 50,
          "name": "D3",
          "ticks": 94464,
          "time": 73.8,
          "velocity": 0.5118110236220472
        },
        {
          "duration": 0.45000000000000284,
          "durationTicks": 576,
          "midi": 50,
          "name": "D3",
          "ticks": 95040,
          "time": 74.25,
          "velocity": 0.5118110236220472
        },
        {
          "duration": 0.45000000000000284,
          "durationTicks": 576,
          "midi": 57,
          "name": "A3",
          "ticks": 95040,
          "time": 74.25,
          "velocity": 0.5118110236220472
        },
        {
          "duration": 0.45000000000000284,
          "durationTicks": 576,
          "midi": 62,
          "name": "D4",
          "ticks": 95040,
          "time": 74.25,
          "velocity": 0.5118110236220472
        },
        {
          "duration": 0.45000000000000284,
          "durationTicks": 576,
          "midi": 65,
          "name": "F4",
          "ticks": 95040,
          "time": 74.25,
          "velocity": 0.5118110236220472
        },
        {
          "duration": 0.44999999999998863,
          "durationTicks": 576,
          "midi": 50,
          "name": "D3",
          "ticks": 95616,
          "time": 74.7,
          "velocity": 0.5118110236220472
        },
        {
          "duration": 0.44999999999998863,
          "durationTicks": 576,
          "midi": 57,
          "name": "A3",
          "ticks": 95616,
          "time": 74.7,
          "velocity": 0.5118110236220472
        },
        {
          "duration": 0.44999999999998863,
          "durationTicks": 576,
          "midi": 62,
          "name": "D4",
          "ticks": 95616,
          "time": 74.7,
          "velocity": 0.5118110236220472
        },
        {
          "duration": 0.44999999999998863,
          "durationTicks": 576,
          "midi": 65,
          "name": "F4",
          "ticks": 95616,
          "time": 74.7,
          "velocity": 0.5118110236220472
        },
        {
          "duration": 0.45000000000000284,
          "durationTicks": 576,
          "midi": 65,
          "name": "F4",
          "ticks": 96192,
          "time": 75.14999999999999,
          "velocity": 0.5118110236220472
        },
        {
          "duration": 0.45000000000000284,
          "durationTicks": 576,
          "midi": 62,
          "name": "D4",
          "ticks": 96192,
          "time": 75.14999999999999,
          "velocity": 0.5118110236220472
        },
        {
          "duration": 0.45000000000000284,
          "durationTicks": 576,
          "midi": 57,
          "name": "A3",
          "ticks": 96192,
          "time": 75.14999999999999,
          "velocity": 0.5118110236220472
        },
        {
          "duration": 0.45000000000000284,
          "durationTicks": 576,
          "midi": 50,
          "name": "D3",
          "ticks": 96192,
          "time": 75.14999999999999,
          "velocity": 0.5118110236220472
        },
        {
          "duration": 0.45000000000000284,
          "durationTicks": 576,
          "midi": 45,
          "name": "A2",
          "ticks": 96768,
          "time": 75.6,
          "velocity": 0.5118110236220472
        },
        {
          "duration": 0.45000000000000284,
          "durationTicks": 576,
          "midi": 52,
          "name": "E3",
          "ticks": 96768,
          "time": 75.6,
          "velocity": 0.5118110236220472
        },
        {
          "duration": 0.45000000000000284,
          "durationTicks": 576,
          "midi": 57,
          "name": "A3",
          "ticks": 96768,
          "time": 75.6,
          "velocity": 0.5118110236220472
        },
        {
          "duration": 0.45000000000000284,
          "durationTicks": 576,
          "midi": 60,
          "name": "C4",
          "ticks": 96768,
          "time": 75.6,
          "velocity": 0.5118110236220472
        },
        {
          "duration": 0.45000000000000284,
          "durationTicks": 576,
          "midi": 64,
          "name": "E4",
          "ticks": 96768,
          "time": 75.6,
          "velocity": 0.5118110236220472
        },
        {
          "duration": 0.45000000000000284,
          "durationTicks": 576,
          "midi": 45,
          "name": "A2",
          "ticks": 97344,
          "time": 76.05,
          "velocity": 0.5118110236220472
        },
        {
          "duration": 0.45000000000000284,
          "durationTicks": 576,
          "midi": 52,
          "name": "E3",
          "ticks": 97344,
          "time": 76.05,
          "velocity": 0.5118110236220472
        },
        {
          "duration": 0.45000000000000284,
          "durationTicks": 576,
          "midi": 57,
          "name": "A3",
          "ticks": 97344,
          "time": 76.05,
          "velocity": 0.5118110236220472
        },
        {
          "duration": 0.45000000000000284,
          "durationTicks": 576,
          "midi": 60,
          "name": "C4",
          "ticks": 97344,
          "time": 76.05,
          "velocity": 0.5118110236220472
        },
        {
          "duration": 0.45000000000000284,
          "durationTicks": 576,
          "midi": 64,
          "name": "E4",
          "ticks": 97344,
          "time": 76.05,
          "velocity": 0.5118110236220472
        },
        {
          "duration": 0.45000000000000284,
          "durationTicks": 576,
          "midi": 64,
          "name": "E4",
          "ticks": 97920,
          "time": 76.5,
          "velocity": 0.5118110236220472
        },
        {
          "duration": 0.45000000000000284,
          "durationTicks": 576,
          "midi": 60,
          "name": "C4",
          "ticks": 97920,
          "time": 76.5,
          "velocity": 0.5118110236220472
        },
        {
          "duration": 0.45000000000000284,
          "durationTicks": 576,
          "midi": 57,
          "name": "A3",
          "ticks": 97920,
          "time": 76.5,
          "velocity": 0.5118110236220472
        },
        {
          "duration": 0.45000000000000284,
          "durationTicks": 576,
          "midi": 52,
          "name": "E3",
          "ticks": 97920,
          "time": 76.5,
          "velocity": 0.5118110236220472
        },
        {
          "duration": 0.45000000000000284,
          "durationTicks": 576,
          "midi": 45,
          "name": "A2",
          "ticks": 97920,
          "time": 76.5,
          "velocity": 0.5118110236220472
        },
        {
          "duration": 0.44999999999998863,
          "durationTicks": 576,
          "midi": 45,
          "name": "A2",
          "ticks": 98496,
          "time": 76.95,
          "velocity": 0.5118110236220472
        },
        {
          "duration": 0.44999999999998863,
          "durationTicks": 576,
          "midi": 52,
          "name": "E3",
          "ticks": 98496,
          "time": 76.95,
          "velocity": 0.5118110236220472
        },
        {
          "duration": 0.44999999999998863,
          "durationTicks": 576,
          "midi": 57,
          "name": "A3",
          "ticks": 98496,
          "time": 76.95,
          "velocity": 0.5118110236220472
        },
        {
          "duration": 0.44999999999998863,
          "durationTicks": 576,
          "midi": 60,
          "name": "C4",
          "ticks": 98496,
          "time": 76.95,
          "velocity": 0.5118110236220472
        },
        {
          "duration": 0.44999999999998863,
          "durationTicks": 576,
          "midi": 64,
          "name": "E4",
          "ticks": 98496,
          "time": 76.95,
          "velocity": 0.5118110236220472
        },
        {
          "duration": 0.45000000000000284,
          "durationTicks": 576,
          "midi": 45,
          "name": "A2",
          "ticks": 99072,
          "time": 77.39999999999999,
          "velocity": 0.5118110236220472
        },
        {
          "duration": 0.45000000000000284,
          "durationTicks": 576,
          "midi": 52,
          "name": "E3",
          "ticks": 99072,
          "time": 77.39999999999999,
          "velocity": 0.5118110236220472
        },
        {
          "duration": 0.45000000000000284,
          "durationTicks": 576,
          "midi": 57,
          "name": "A3",
          "ticks": 99072,
          "time": 77.39999999999999,
          "velocity": 0.5118110236220472
        },
        {
          "duration": 0.45000000000000284,
          "durationTicks": 576,
          "midi": 60,
          "name": "C4",
          "ticks": 99072,
          "time": 77.39999999999999,
          "velocity": 0.5118110236220472
        },
        {
          "duration": 0.45000000000000284,
          "durationTicks": 576,
          "midi": 64,
          "name": "E4",
          "ticks": 99072,
          "time": 77.39999999999999,
          "velocity": 0.5118110236220472
        },
        {
          "duration": 0.45000000000000284,
          "durationTicks": 576,
          "midi": 64,
          "name": "E4",
          "ticks": 99648,
          "time": 77.85,
          "velocity": 0.5118110236220472
        },
        {
          "duration": 0.45000000000000284,
          "durationTicks": 576,
          "midi": 60,
          "name": "C4",
          "ticks": 99648,
          "time": 77.85,
          "velocity": 0.5118110236220472
        },
        {
          "duration": 0.45000000000000284,
          "durationTicks": 576,
          "midi": 57,
          "name": "A3",
          "ticks": 99648,
          "time": 77.85,
          "velocity": 0.5118110236220472
        },
        {
          "duration": 0.45000000000000284,
          "durationTicks": 576,
          "midi": 52,
          "name": "E3",
          "ticks": 99648,
          "time": 77.85,
          "velocity": 0.5118110236220472
        },
        {
          "duration": 0.45000000000000284,
          "durationTicks": 576,
          "midi": 45,
          "name": "A2",
          "ticks": 99648,
          "time": 77.85,
          "velocity": 0.5118110236220472
        },
        {
          "duration": 0.45000000000000284,
          "durationTicks": 576,
          "midi": 45,
          "name": "A2",
          "ticks": 100224,
          "time": 78.3,
          "velocity": 0.5118110236220472
        },
        {
          "duration": 0.45000000000000284,
          "durationTicks": 576,
          "midi": 52,
          "name": "E3",
          "ticks": 100224,
          "time": 78.3,
          "velocity": 0.5118110236220472
        },
        {
          "duration": 0.45000000000000284,
          "durationTicks": 576,
          "midi": 57,
          "name": "A3",
          "ticks": 100224,
          "time": 78.3,
          "velocity": 0.5118110236220472
        },
        {
          "duration": 0.45000000000000284,
          "durationTicks": 576,
          "midi": 60,
          "name": "C4",
          "ticks": 100224,
          "time": 78.3,
          "velocity": 0.5118110236220472
        },
        {
          "duration": 0.45000000000000284,
          "durationTicks": 576,
          "midi": 64,
          "name": "E4",
          "ticks": 100224,
          "time": 78.3,
          "velocity": 0.5118110236220472
        },
        {
          "duration": 0.45000000000000284,
          "durationTicks": 576,
          "midi": 45,
          "name": "A2",
          "ticks": 100800,
          "time": 78.75,
          "velocity": 0.5118110236220472
        },
        {
          "duration": 0.45000000000000284,
          "durationTicks": 576,
          "midi": 52,
          "name": "E3",
          "ticks": 100800,
          "time": 78.75,
          "velocity": 0.5118110236220472
        },
        {
          "duration": 0.45000000000000284,
          "durationTicks": 576,
          "midi": 57,
          "name": "A3",
          "ticks": 100800,
          "time": 78.75,
          "velocity": 0.5118110236220472
        },
        {
          "duration": 0.45000000000000284,
          "durationTicks": 576,
          "midi": 60,
          "name": "C4",
          "ticks": 100800,
          "time": 78.75,
          "velocity": 0.5118110236220472
        },
        {
          "duration": 0.45000000000000284,
          "durationTicks": 576,
          "midi": 64,
          "name": "E4",
          "ticks": 100800,
          "time": 78.75,
          "velocity": 0.5118110236220472
        },
        {
          "duration": 0.44999999999998863,
          "durationTicks": 576,
          "midi": 64,
          "name": "E4",
          "ticks": 101376,
          "time": 79.2,
          "velocity": 0.5118110236220472
        },
        {
          "duration": 0.44999999999998863,
          "durationTicks": 576,
          "midi": 60,
          "name": "C4",
          "ticks": 101376,
          "time": 79.2,
          "velocity": 0.5118110236220472
        },
        {
          "duration": 0.44999999999998863,
          "durationTicks": 576,
          "midi": 57,
          "name": "A3",
          "ticks": 101376,
          "time": 79.2,
          "velocity": 0.5118110236220472
        },
        {
          "duration": 0.44999999999998863,
          "durationTicks": 576,
          "midi": 52,
          "name": "E3",
          "ticks": 101376,
          "time": 79.2,
          "velocity": 0.5118110236220472
        },
        {
          "duration": 0.44999999999998863,
          "durationTicks": 576,
          "midi": 45,
          "name": "A2",
          "ticks": 101376,
          "time": 79.2,
          "velocity": 0.5118110236220472
        },
        {
          "duration": 0.45000000000000284,
          "durationTicks": 576,
          "midi": 45,
          "name": "A2",
          "ticks": 101952,
          "time": 79.64999999999999,
          "velocity": 0.5118110236220472
        },
        {
          "duration": 0.45000000000000284,
          "durationTicks": 576,
          "midi": 52,
          "name": "E3",
          "ticks": 101952,
          "time": 79.64999999999999,
          "velocity": 0.5118110236220472
        },
        {
          "duration": 0.45000000000000284,
          "durationTicks": 576,
          "midi": 57,
          "name": "A3",
          "ticks": 101952,
          "time": 79.64999999999999,
          "velocity": 0.5118110236220472
        },
        {
          "duration": 0.45000000000000284,
          "durationTicks": 576,
          "midi": 60,
          "name": "C4",
          "ticks": 101952,
          "time": 79.64999999999999,
          "velocity": 0.5118110236220472
        },
        {
          "duration": 0.45000000000000284,
          "durationTicks": 576,
          "midi": 64,
          "name": "E4",
          "ticks": 101952,
          "time": 79.64999999999999,
          "velocity": 0.5118110236220472
        },
        {
          "duration": 0.45000000000000284,
          "durationTicks": 576,
          "midi": 45,
          "name": "A2",
          "ticks": 102528,
          "time": 80.1,
          "velocity": 0.5118110236220472
        },
        {
          "duration": 0.45000000000000284,
          "durationTicks": 576,
          "midi": 52,
          "name": "E3",
          "ticks": 102528,
          "time": 80.1,
          "velocity": 0.5118110236220472
        },
        {
          "duration": 0.45000000000000284,
          "durationTicks": 576,
          "midi": 57,
          "name": "A3",
          "ticks": 102528,
          "time": 80.1,
          "velocity": 0.5118110236220472
        },
        {
          "duration": 0.45000000000000284,
          "durationTicks": 576,
          "midi": 60,
          "name": "C4",
          "ticks": 102528,
          "time": 80.1,
          "velocity": 0.5118110236220472
        },
        {
          "duration": 0.45000000000000284,
          "durationTicks": 576,
          "midi": 64,
          "name": "E4",
          "ticks": 102528,
          "time": 80.1,
          "velocity": 0.5118110236220472
        },
        {
          "duration": 0.45000000000000284,
          "durationTicks": 576,
          "midi": 64,
          "name": "E4",
          "ticks": 103104,
          "time": 80.55,
          "velocity": 0.5118110236220472
        },
        {
          "duration": 0.45000000000000284,
          "durationTicks": 576,
          "midi": 60,
          "name": "C4",
          "ticks": 103104,
          "time": 80.55,
          "velocity": 0.5118110236220472
        },
        {
          "duration": 0.45000000000000284,
          "durationTicks": 576,
          "midi": 57,
          "name": "A3",
          "ticks": 103104,
          "time": 80.55,
          "velocity": 0.5118110236220472
        },
        {
          "duration": 0.45000000000000284,
          "durationTicks": 576,
          "midi": 52,
          "name": "E3",
          "ticks": 103104,
          "time": 80.55,
          "velocity": 0.5118110236220472
        },
        {
          "duration": 0.45000000000000284,
          "durationTicks": 576,
          "midi": 45,
          "name": "A2",
          "ticks": 103104,
          "time": 80.55,
          "velocity": 0.5118110236220472
        },
        {
          "duration": 0.8999999999999915,
          "durationTicks": 1152,
          "midi": 45,
          "name": "A2",
          "ticks": 103680,
          "time": 81,
          "velocity": 0.5118110236220472
        },
        {
          "duration": 0.8999999999999915,
          "durationTicks": 1152,
          "midi": 52,
          "name": "E3",
          "ticks": 103680,
          "time": 81,
          "velocity": 0.5118110236220472
        },
        {
          "duration": 0.8999999999999915,
          "durationTicks": 1152,
          "midi": 57,
          "name": "A3",
          "ticks": 103680,
          "time": 81,
          "velocity": 0.5118110236220472
        },
        {
          "duration": 0.8999999999999915,
          "durationTicks": 1152,
          "midi": 60,
          "name": "C4",
          "ticks": 103680,
          "time": 81,
          "velocity": 0.5118110236220472
        },
        {
          "duration": 0.8999999999999915,
          "durationTicks": 1152,
          "midi": 64,
          "name": "E4",
          "ticks": 103680,
          "time": 81,
          "velocity": 0.5118110236220472
        },
        {
          "duration": 0.9000000000000057,
          "durationTicks": 1152,
          "midi": 57,
          "name": "A3",
          "ticks": 104832,
          "time": 81.89999999999999,
          "velocity": 0.5118110236220472
        },
        {
          "duration": 0.9000000000000057,
          "durationTicks": 1152,
          "midi": 60,
          "name": "C4",
          "ticks": 104832,
          "time": 81.89999999999999,
          "velocity": 0.5118110236220472
        },
        {
          "duration": 0.9000000000000057,
          "durationTicks": 1152,
          "midi": 64,
          "name": "E4",
          "ticks": 104832,
          "time": 81.89999999999999,
          "velocity": 0.5118110236220472
        },
        {
          "duration": 0.9000000000000057,
          "durationTicks": 1152,
          "midi": 69,
          "name": "A4",
          "ticks": 104832,
          "time": 81.89999999999999,
          "velocity": 0.5118110236220472
        }
      ]
    },
    {
      "channel": 3,
      "controlChanges": {
        "7": [
          {
            "number": 7,
            "ticks": 0,
            "time": 0,
            "value": 0.7874015748031497
          }
        ]
      },
      "pitchBends": [],
      "instrument": {
        "family": "guitar",
        "name": "acoustic guitar (nylon)",
        "number": 24
      },
      "name": "",
      "notes": [
        {
          "duration": 1.7999999999999998,
          "durationTicks": 2304,
          "midi": 45,
          "name": "A2",
          "ticks": 0,
          "time": 0,
          "velocity": 0.5118110236220472
        },
        {
          "duration": 1.7999999999999998,
          "durationTicks": 2304,
          "midi": 52,
          "name": "E3",
          "ticks": 0,
          "time": 0,
          "velocity": 0.5118110236220472
        },
        {
          "duration": 1.7999999999999998,
          "durationTicks": 2304,
          "midi": 57,
          "name": "A3",
          "ticks": 0,
          "time": 0,
          "velocity": 0.5118110236220472
        },
        {
          "duration": 1.7999999999999998,
          "durationTicks": 2304,
          "midi": 60,
          "name": "C4",
          "ticks": 0,
          "time": 0,
          "velocity": 0.5118110236220472
        },
        {
          "duration": 1.7999999999999998,
          "durationTicks": 2304,
          "midi": 64,
          "name": "E4",
          "ticks": 0,
          "time": 0,
          "velocity": 0.5118110236220472
        },
        {
          "duration": 0.4500000000000002,
          "durationTicks": 576,
          "midi": 64,
          "name": "E4",
          "ticks": 2304,
          "time": 1.7999999999999998,
          "velocity": 0.5118110236220472
        },
        {
          "duration": 0.4500000000000002,
          "durationTicks": 576,
          "midi": 60,
          "name": "C4",
          "ticks": 2304,
          "time": 1.7999999999999998,
          "velocity": 0.5118110236220472
        },
        {
          "duration": 0.4500000000000002,
          "durationTicks": 576,
          "midi": 57,
          "name": "A3",
          "ticks": 2304,
          "time": 1.7999999999999998,
          "velocity": 0.5118110236220472
        },
        {
          "duration": 0.4500000000000002,
          "durationTicks": 576,
          "midi": 52,
          "name": "E3",
          "ticks": 2304,
          "time": 1.7999999999999998,
          "velocity": 0.5118110236220472
        },
        {
          "duration": 0.4500000000000002,
          "durationTicks": 576,
          "midi": 45,
          "name": "A2",
          "ticks": 2304,
          "time": 1.7999999999999998,
          "velocity": 0.5118110236220472
        },
        {
          "duration": 0.44999999999999973,
          "durationTicks": 576,
          "midi": 45,
          "name": "A2",
          "ticks": 2880,
          "time": 2.25,
          "velocity": 0.5118110236220472
        },
        {
          "duration": 0.44999999999999973,
          "durationTicks": 576,
          "midi": 52,
          "name": "E3",
          "ticks": 2880,
          "time": 2.25,
          "velocity": 0.5118110236220472
        },
        {
          "duration": 0.44999999999999973,
          "durationTicks": 576,
          "midi": 57,
          "name": "A3",
          "ticks": 2880,
          "time": 2.25,
          "velocity": 0.5118110236220472
        },
        {
          "duration": 0.44999999999999973,
          "durationTicks": 576,
          "midi": 60,
          "name": "C4",
          "ticks": 2880,
          "time": 2.25,
          "velocity": 0.5118110236220472
        },
        {
          "duration": 0.44999999999999973,
          "durationTicks": 576,
          "midi": 64,
          "name": "E4",
          "ticks": 2880,
          "time": 2.25,
          "velocity": 0.5118110236220472
        },
        {
          "duration": 0.4500000000000002,
          "durationTicks": 576,
          "midi": 45,
          "name": "A2",
          "ticks": 3456,
          "time": 2.6999999999999997,
          "velocity": 0.5118110236220472
        },
        {
          "duration": 0.4500000000000002,
          "durationTicks": 576,
          "midi": 52,
          "name": "E3",
          "ticks": 3456,
          "time": 2.6999999999999997,
          "velocity": 0.5118110236220472
        },
        {
          "duration": 0.4500000000000002,
          "durationTicks": 576,
          "midi": 57,
          "name": "A3",
          "ticks": 3456,
          "time": 2.6999999999999997,
          "velocity": 0.5118110236220472
        },
        {
          "duration": 0.4500000000000002,
          "durationTicks": 576,
          "midi": 60,
          "name": "C4",
          "ticks": 3456,
          "time": 2.6999999999999997,
          "velocity": 0.5118110236220472
        },
        {
          "duration": 0.4500000000000002,
          "durationTicks": 576,
          "midi": 64,
          "name": "E4",
          "ticks": 3456,
          "time": 2.6999999999999997,
          "velocity": 0.5118110236220472
        },
        {
          "duration": 0.44999999999999973,
          "durationTicks": 576,
          "midi": 64,
          "name": "E4",
          "ticks": 4032,
          "time": 3.15,
          "velocity": 0.5118110236220472
        },
        {
          "duration": 0.44999999999999973,
          "durationTicks": 576,
          "midi": 60,
          "name": "C4",
          "ticks": 4032,
          "time": 3.15,
          "velocity": 0.5118110236220472
        },
        {
          "duration": 0.44999999999999973,
          "durationTicks": 576,
          "midi": 57,
          "name": "A3",
          "ticks": 4032,
          "time": 3.15,
          "velocity": 0.5118110236220472
        },
        {
          "duration": 0.44999999999999973,
          "durationTicks": 576,
          "midi": 52,
          "name": "E3",
          "ticks": 4032,
          "time": 3.15,
          "velocity": 0.5118110236220472
        },
        {
          "duration": 0.44999999999999973,
          "durationTicks": 576,
          "midi": 45,
          "name": "A2",
          "ticks": 4032,
          "time": 3.15,
          "velocity": 0.5118110236220472
        },
        {
          "duration": 1.7999999999999998,
          "durationTicks": 2304,
          "midi": 45,
          "name": "A2",
          "ticks": 4608,
          "time": 3.5999999999999996,
          "velocity": 0.5118110236220472
        },
        {
          "duration": 1.7999999999999998,
          "durationTicks": 2304,
          "midi": 52,
          "name": "E3",
          "ticks": 4608,
          "time": 3.5999999999999996,
          "velocity": 0.5118110236220472
        },
        {
          "duration": 1.7999999999999998,
          "durationTicks": 2304,
          "midi": 57,
          "name": "A3",
          "ticks": 4608,
          "time": 3.5999999999999996,
          "velocity": 0.5118110236220472
        },
        {
          "duration": 1.7999999999999998,
          "durationTicks": 2304,
          "midi": 60,
          "name": "C4",
          "ticks": 4608,
          "time": 3.5999999999999996,
          "velocity": 0.5118110236220472
        },
        {
          "duration": 1.7999999999999998,
          "durationTicks": 2304,
          "midi": 64,
          "name": "E4",
          "ticks": 4608,
          "time": 3.5999999999999996,
          "velocity": 0.5118110236220472
        },
        {
          "duration": 1.7999999999999998,
          "durationTicks": 2304,
          "midi": 45,
          "name": "A2",
          "ticks": 6912,
          "time": 5.3999999999999995,
          "velocity": 0.5118110236220472
        },
        {
          "duration": 1.7999999999999998,
          "durationTicks": 2304,
          "midi": 52,
          "name": "E3",
          "ticks": 6912,
          "time": 5.3999999999999995,
          "velocity": 0.5118110236220472
        },
        {
          "duration": 1.7999999999999998,
          "durationTicks": 2304,
          "midi": 57,
          "name": "A3",
          "ticks": 6912,
          "time": 5.3999999999999995,
          "velocity": 0.5118110236220472
        },
        {
          "duration": 1.7999999999999998,
          "durationTicks": 2304,
          "midi": 60,
          "name": "C4",
          "ticks": 6912,
          "time": 5.3999999999999995,
          "velocity": 0.5118110236220472
        },
        {
          "duration": 1.7999999999999998,
          "durationTicks": 2304,
          "midi": 64,
          "name": "E4",
          "ticks": 6912,
          "time": 5.3999999999999995,
          "velocity": 0.5118110236220472
        },
        {
          "duration": 0.4500000000000002,
          "durationTicks": 576,
          "midi": 64,
          "name": "E4",
          "ticks": 9216,
          "time": 7.199999999999999,
          "velocity": 0.5118110236220472
        },
        {
          "duration": 0.4500000000000002,
          "durationTicks": 576,
          "midi": 60,
          "name": "C4",
          "ticks": 9216,
          "time": 7.199999999999999,
          "velocity": 0.5118110236220472
        },
        {
          "duration": 0.4500000000000002,
          "durationTicks": 576,
          "midi": 57,
          "name": "A3",
          "ticks": 9216,
          "time": 7.199999999999999,
          "velocity": 0.5118110236220472
        },
        {
          "duration": 0.4500000000000002,
          "durationTicks": 576,
          "midi": 52,
          "name": "E3",
          "ticks": 9216,
          "time": 7.199999999999999,
          "velocity": 0.5118110236220472
        },
        {
          "duration": 0.4500000000000002,
          "durationTicks": 576,
          "midi": 45,
          "name": "A2",
          "ticks": 9216,
          "time": 7.199999999999999,
          "velocity": 0.5118110236220472
        },
        {
          "duration": 0.4500000000000002,
          "durationTicks": 576,
          "midi": 45,
          "name": "A2",
          "ticks": 9792,
          "time": 7.6499999999999995,
          "velocity": 0.5118110236220472
        },
        {
          "duration": 0.4500000000000002,
          "durationTicks": 576,
          "midi": 52,
          "name": "E3",
          "ticks": 9792,
          "time": 7.6499999999999995,
          "velocity": 0.5118110236220472
        },
        {
          "duration": 0.4500000000000002,
          "durationTicks": 576,
          "midi": 57,
          "name": "A3",
          "ticks": 9792,
          "time": 7.6499999999999995,
          "velocity": 0.5118110236220472
        },
        {
          "duration": 0.4500000000000002,
          "durationTicks": 576,
          "midi": 60,
          "name": "C4",
          "ticks": 9792,
          "time": 7.6499999999999995,
          "velocity": 0.5118110236220472
        },
        {
          "duration": 0.4500000000000002,
          "durationTicks": 576,
          "midi": 64,
          "name": "E4",
          "ticks": 9792,
          "time": 7.6499999999999995,
          "velocity": 0.5118110236220472
        },
        {
          "duration": 0.4499999999999993,
          "durationTicks": 576,
          "midi": 45,
          "name": "A2",
          "ticks": 10368,
          "time": 8.1,
          "velocity": 0.5118110236220472
        },
        {
          "duration": 0.4499999999999993,
          "durationTicks": 576,
          "midi": 52,
          "name": "E3",
          "ticks": 10368,
          "time": 8.1,
          "velocity": 0.5118110236220472
        },
        {
          "duration": 0.4499999999999993,
          "durationTicks": 576,
          "midi": 57,
          "name": "A3",
          "ticks": 10368,
          "time": 8.1,
          "velocity": 0.5118110236220472
        },
        {
          "duration": 0.4499999999999993,
          "durationTicks": 576,
          "midi": 60,
          "name": "C4",
          "ticks": 10368,
          "time": 8.1,
          "velocity": 0.5118110236220472
        },
        {
          "duration": 0.4499999999999993,
          "durationTicks": 576,
          "midi": 64,
          "name": "E4",
          "ticks": 10368,
          "time": 8.1,
          "velocity": 0.5118110236220472
        },
        {
          "duration": 0.45000000000000107,
          "durationTicks": 576,
          "midi": 64,
          "name": "E4",
          "ticks": 10944,
          "time": 8.549999999999999,
          "velocity": 0.5118110236220472
        },
        {
          "duration": 0.45000000000000107,
          "durationTicks": 576,
          "midi": 60,
          "name": "C4",
          "ticks": 10944,
          "time": 8.549999999999999,
          "velocity": 0.5118110236220472
        },
        {
          "duration": 0.45000000000000107,
          "durationTicks": 576,
          "midi": 57,
          "name": "A3",
          "ticks": 10944,
          "time": 8.549999999999999,
          "velocity": 0.5118110236220472
        },
        {
          "duration": 0.45000000000000107,
          "durationTicks": 576,
          "midi": 52,
          "name": "E3",
          "ticks": 10944,
          "time": 8.549999999999999,
          "velocity": 0.5118110236220472
        },
        {
          "duration": 0.45000000000000107,
          "durationTicks": 576,
          "midi": 45,
          "name": "A2",
          "ticks": 10944,
          "time": 8.549999999999999,
          "velocity": 0.5118110236220472
        },
        {
          "duration": 0.4499999999999993,
          "durationTicks": 576,
          "midi": 45,
          "name": "A2",
          "ticks": 11520,
          "time": 9,
          "velocity": 0.5118110236220472
        },
        {
          "duration": 0.4499999999999993,
          "durationTicks": 576,
          "midi": 52,
          "name": "E3",
          "ticks": 11520,
          "time": 9,
          "velocity": 0.5118110236220472
        },
        {
          "duration": 0.4499999999999993,
          "durationTicks": 576,
          "midi": 57,
          "name": "A3",
          "ticks": 11520,
          "time": 9,
          "velocity": 0.5118110236220472
        },
        {
          "duration": 0.4499999999999993,
          "durationTicks": 576,
          "midi": 60,
          "name": "C4",
          "ticks": 11520,
          "time": 9,
          "velocity": 0.5118110236220472
        },
        {
          "duration": 0.4499999999999993,
          "durationTicks": 576,
          "midi": 64,
          "name": "E4",
          "ticks": 11520,
          "time": 9,
          "velocity": 0.5118110236220472
        },
        {
          "duration": 0.45000000000000107,
          "durationTicks": 576,
          "midi": 45,
          "name": "A2",
          "ticks": 12096,
          "time": 9.45,
          "velocity": 0.5118110236220472
        },
        {
          "duration": 0.45000000000000107,
          "durationTicks": 576,
          "midi": 52,
          "name": "E3",
          "ticks": 12096,
          "time": 9.45,
          "velocity": 0.5118110236220472
        },
        {
          "duration": 0.45000000000000107,
          "durationTicks": 576,
          "midi": 57,
          "name": "A3",
          "ticks": 12096,
          "time": 9.45,
          "velocity": 0.5118110236220472
        },
        {
          "duration": 0.45000000000000107,
          "durationTicks": 576,
          "midi": 60,
          "name": "C4",
          "ticks": 12096,
          "time": 9.45,
          "velocity": 0.5118110236220472
        },
        {
          "duration": 0.45000000000000107,
          "durationTicks": 576,
          "midi": 64,
          "name": "E4",
          "ticks": 12096,
          "time": 9.45,
          "velocity": 0.5118110236220472
        },
        {
          "duration": 0.4499999999999993,
          "durationTicks": 576,
          "midi": 64,
          "name": "E4",
          "ticks": 12672,
          "time": 9.9,
          "velocity": 0.5118110236220472
        },
        {
          "duration": 0.4499999999999993,
          "durationTicks": 576,
          "midi": 60,
          "name": "C4",
          "ticks": 12672,
          "time": 9.9,
          "velocity": 0.5118110236220472
        },
        {
          "duration": 0.4499999999999993,
          "durationTicks": 576,
          "midi": 57,
          "name": "A3",
          "ticks": 12672,
          "time": 9.9,
          "velocity": 0.5118110236220472
        },
        {
          "duration": 0.4499999999999993,
          "durationTicks": 576,
          "midi": 52,
          "name": "E3",
          "ticks": 12672,
          "time": 9.9,
          "velocity": 0.5118110236220472
        },
        {
          "duration": 0.4499999999999993,
          "durationTicks": 576,
          "midi": 45,
          "name": "A2",
          "ticks": 12672,
          "time": 9.9,
          "velocity": 0.5118110236220472
        },
        {
          "duration": 0.4499999999999993,
          "durationTicks": 576,
          "midi": 45,
          "name": "A2",
          "ticks": 13248,
          "time": 10.35,
          "velocity": 0.5118110236220472
        },
        {
          "duration": 0.4499999999999993,
          "durationTicks": 576,
          "midi": 52,
          "name": "E3",
          "ticks": 13248,
          "time": 10.35,
          "velocity": 0.5118110236220472
        },
        {
          "duration": 0.4499999999999993,
          "durationTicks": 576,
          "midi": 57,
          "name": "A3",
          "ticks": 13248,
          "time": 10.35,
          "velocity": 0.5118110236220472
        },
        {
          "duration": 0.4499999999999993,
          "durationTicks": 576,
          "midi": 60,
          "name": "C4",
          "ticks": 13248,
          "time": 10.35,
          "velocity": 0.5118110236220472
        },
        {
          "duration": 0.4499999999999993,
          "durationTicks": 576,
          "midi": 64,
          "name": "E4",
          "ticks": 13248,
          "time": 10.35,
          "velocity": 0.5118110236220472
        },
        {
          "duration": 0.45000000000000107,
          "durationTicks": 576,
          "midi": 52,
          "name": "E3",
          "ticks": 13824,
          "time": 10.799999999999999,
          "velocity": 0.5118110236220472
        },
        {
          "duration": 0.45000000000000107,
          "durationTicks": 576,
          "midi": 59,
          "name": "B3",
          "ticks": 13824,
          "time": 10.799999999999999,
          "velocity": 0.5118110236220472
        },
        {
          "duration": 0.45000000000000107,
          "durationTicks": 576,
          "midi": 56,
          "name": "G#3",
          "ticks": 13824,
          "time": 10.799999999999999,
          "velocity": 0.5118110236220472
        },
        {
          "duration": 0.45000000000000107,
          "durationTicks": 576,
          "midi": 64,
          "name": "E4",
          "ticks": 13824,
          "time": 10.799999999999999,
          "velocity": 0.5118110236220472
        },
        {
          "duration": 0.45000000000000107,
          "durationTicks": 576,
          "midi": 47,
          "name": "B2",
          "ticks": 13824,
          "time": 10.799999999999999,
          "velocity": 0.5118110236220472
        },
        {
          "duration": 0.45000000000000107,
          "durationTicks": 576,
          "midi": 40,
          "name": "E2",
          "ticks": 13824,
          "time": 10.799999999999999,
          "velocity": 0.5118110236220472
        },
        {
          "duration": 0.4499999999999993,
          "durationTicks": 576,
          "midi": 40,
          "name": "E2",
          "ticks": 14400,
          "time": 11.25,
          "velocity": 0.5118110236220472
        },
        {
          "duration": 0.4499999999999993,
          "durationTicks": 576,
          "midi": 47,
          "name": "B2",
          "ticks": 14400,
          "time": 11.25,
          "velocity": 0.5118110236220472
        },
        {
          "duration": 0.4499999999999993,
          "durationTicks": 576,
          "midi": 64,
          "name": "E4",
          "ticks": 14400,
          "time": 11.25,
          "velocity": 0.5118110236220472
        },
        {
          "duration": 0.4499999999999993,
          "durationTicks": 576,
          "midi": 56,
          "name": "G#3",
          "ticks": 14400,
          "time": 11.25,
          "velocity": 0.5118110236220472
        },
        {
          "duration": 0.4499999999999993,
          "durationTicks": 576,
          "midi": 59,
          "name": "B3",
          "ticks": 14400,
          "time": 11.25,
          "velocity": 0.5118110236220472
        },
        {
          "duration": 0.4499999999999993,
          "durationTicks": 576,
          "midi": 52,
          "name": "E3",
          "ticks": 14400,
          "time": 11.25,
          "velocity": 0.5118110236220472
        },
        {
          "duration": 0.45000000000000107,
          "durationTicks": 576,
          "midi": 52,
          "name": "E3",
          "ticks": 14976,
          "time": 11.7,
          "velocity": 0.5118110236220472
        },
        {
          "duration": 0.45000000000000107,
          "durationTicks": 576,
          "midi": 59,
          "name": "B3",
          "ticks": 14976,
          "time": 11.7,
          "velocity": 0.5118110236220472
        },
        {
          "duration": 0.45000000000000107,
          "durationTicks": 576,
          "midi": 56,
          "name": "G#3",
          "ticks": 14976,
          "time": 11.7,
          "velocity": 0.5118110236220472
        },
        {
          "duration": 0.45000000000000107,
          "durationTicks": 576,
          "midi": 64,
          "name": "E4",
          "ticks": 14976,
          "time": 11.7,
          "velocity": 0.5118110236220472
        },
        {
          "duration": 0.45000000000000107,
          "durationTicks": 576,
          "midi": 47,
          "name": "B2",
          "ticks": 14976,
          "time": 11.7,
          "velocity": 0.5118110236220472
        },
        {
          "duration": 0.45000000000000107,
          "durationTicks": 576,
          "midi": 40,
          "name": "E2",
          "ticks": 14976,
          "time": 11.7,
          "velocity": 0.5118110236220472
        },
        {
          "duration": 0.4499999999999993,
          "durationTicks": 576,
          "midi": 52,
          "name": "E3",
          "ticks": 15552,
          "time": 12.15,
          "velocity": 0.5118110236220472
        },
        {
          "duration": 0.4499999999999993,
          "durationTicks": 576,
          "midi": 59,
          "name": "B3",
          "ticks": 15552,
          "time": 12.15,
          "velocity": 0.5118110236220472
        },
        {
          "duration": 0.4499999999999993,
          "durationTicks": 576,
          "midi": 56,
          "name": "G#3",
          "ticks": 15552,
          "time": 12.15,
          "velocity": 0.5118110236220472
        },
        {
          "duration": 0.4499999999999993,
          "durationTicks": 576,
          "midi": 64,
          "name": "E4",
          "ticks": 15552,
          "time": 12.15,
          "velocity": 0.5118110236220472
        },
        {
          "duration": 0.4499999999999993,
          "durationTicks": 576,
          "midi": 47,
          "name": "B2",
          "ticks": 15552,
          "time": 12.15,
          "velocity": 0.5118110236220472
        },
        {
          "duration": 0.4499999999999993,
          "durationTicks": 576,
          "midi": 40,
          "name": "E2",
          "ticks": 15552,
          "time": 12.15,
          "velocity": 0.5118110236220472
        },
        {
          "duration": 0.4499999999999993,
          "durationTicks": 576,
          "midi": 40,
          "name": "E2",
          "ticks": 16128,
          "time": 12.6,
          "velocity": 0.5118110236220472
        },
        {
          "duration": 0.4499999999999993,
          "durationTicks": 576,
          "midi": 47,
          "name": "B2",
          "ticks": 16128,
          "time": 12.6,
          "velocity": 0.5118110236220472
        },
        {
          "duration": 0.4499999999999993,
          "durationTicks": 576,
          "midi": 64,
          "name": "E4",
          "ticks": 16128,
          "time": 12.6,
          "velocity": 0.5118110236220472
        },
        {
          "duration": 0.4499999999999993,
          "durationTicks": 576,
          "midi": 56,
          "name": "G#3",
          "ticks": 16128,
          "time": 12.6,
          "velocity": 0.5118110236220472
        },
        {
          "duration": 0.4499999999999993,
          "durationTicks": 576,
          "midi": 59,
          "name": "B3",
          "ticks": 16128,
          "time": 12.6,
          "velocity": 0.5118110236220472
        },
        {
          "duration": 0.4499999999999993,
          "durationTicks": 576,
          "midi": 52,
          "name": "E3",
          "ticks": 16128,
          "time": 12.6,
          "velocity": 0.5118110236220472
        },
        {
          "duration": 0.45000000000000107,
          "durationTicks": 576,
          "midi": 52,
          "name": "E3",
          "ticks": 16704,
          "time": 13.049999999999999,
          "velocity": 0.5118110236220472
        },
        {
          "duration": 0.45000000000000107,
          "durationTicks": 576,
          "midi": 59,
          "name": "B3",
          "ticks": 16704,
          "time": 13.049999999999999,
          "velocity": 0.5118110236220472
        },
        {
          "duration": 0.45000000000000107,
          "durationTicks": 576,
          "midi": 56,
          "name": "G#3",
          "ticks": 16704,
          "time": 13.049999999999999,
          "velocity": 0.5118110236220472
        },
        {
          "duration": 0.45000000000000107,
          "durationTicks": 576,
          "midi": 64,
          "name": "E4",
          "ticks": 16704,
          "time": 13.049999999999999,
          "velocity": 0.5118110236220472
        },
        {
          "duration": 0.45000000000000107,
          "durationTicks": 576,
          "midi": 47,
          "name": "B2",
          "ticks": 16704,
          "time": 13.049999999999999,
          "velocity": 0.5118110236220472
        },
        {
          "duration": 0.45000000000000107,
          "durationTicks": 576,
          "midi": 40,
          "name": "E2",
          "ticks": 16704,
          "time": 13.049999999999999,
          "velocity": 0.5118110236220472
        },
        {
          "duration": 0.4499999999999993,
          "durationTicks": 576,
          "midi": 40,
          "name": "E2",
          "ticks": 17280,
          "time": 13.5,
          "velocity": 0.5118110236220472
        },
        {
          "duration": 0.4499999999999993,
          "durationTicks": 576,
          "midi": 47,
          "name": "B2",
          "ticks": 17280,
          "time": 13.5,
          "velocity": 0.5118110236220472
        },
        {
          "duration": 0.4499999999999993,
          "durationTicks": 576,
          "midi": 64,
          "name": "E4",
          "ticks": 17280,
          "time": 13.5,
          "velocity": 0.5118110236220472
        },
        {
          "duration": 0.4499999999999993,
          "durationTicks": 576,
          "midi": 56,
          "name": "G#3",
          "ticks": 17280,
          "time": 13.5,
          "velocity": 0.5118110236220472
        },
        {
          "duration": 0.4499999999999993,
          "durationTicks": 576,
          "midi": 59,
          "name": "B3",
          "ticks": 17280,
          "time": 13.5,
          "velocity": 0.5118110236220472
        },
        {
          "duration": 0.4499999999999993,
          "durationTicks": 576,
          "midi": 52,
          "name": "E3",
          "ticks": 17280,
          "time": 13.5,
          "velocity": 0.5118110236220472
        },
        {
          "duration": 0.4499999999999993,
          "durationTicks": 576,
          "midi": 52,
          "name": "E3",
          "ticks": 17856,
          "time": 13.95,
          "velocity": 0.5118110236220472
        },
        {
          "duration": 0.4499999999999993,
          "durationTicks": 576,
          "midi": 59,
          "name": "B3",
          "ticks": 17856,
          "time": 13.95,
          "velocity": 0.5118110236220472
        },
        {
          "duration": 0.4499999999999993,
          "durationTicks": 576,
          "midi": 56,
          "name": "G#3",
          "ticks": 17856,
          "time": 13.95,
          "velocity": 0.5118110236220472
        },
        {
          "duration": 0.4499999999999993,
          "durationTicks": 576,
          "midi": 64,
          "name": "E4",
          "ticks": 17856,
          "time": 13.95,
          "velocity": 0.5118110236220472
        },
        {
          "duration": 0.4499999999999993,
          "durationTicks": 576,
          "midi": 47,
          "name": "B2",
          "ticks": 17856,
          "time": 13.95,
          "velocity": 0.5118110236220472
        },
        {
          "duration": 0.4499999999999993,
          "durationTicks": 576,
          "midi": 40,
          "name": "E2",
          "ticks": 17856,
          "time": 13.95,
          "velocity": 0.5118110236220472
        },
        {
          "duration": 0.45000000000000107,
          "durationTicks": 576,
          "midi": 67,
          "name": "G4",
          "ticks": 18432,
          "time": 14.399999999999999,
          "velocity": 0.5118110236220472
        },
        {
          "duration": 0.45000000000000107,
          "durationTicks": 576,
          "midi": 59,
          "name": "B3",
          "ticks": 18432,
          "time": 14.399999999999999,
          "velocity": 0.5118110236220472
        },
        {
          "duration": 0.45000000000000107,
          "durationTicks": 576,
          "midi": 55,
          "name": "G3",
          "ticks": 18432,
          "time": 14.399999999999999,
          "velocity": 0.5118110236220472
        },
        {
          "duration": 0.45000000000000107,
          "durationTicks": 576,
          "midi": 50,
          "name": "D3",
          "ticks": 18432,
          "time": 14.399999999999999,
          "velocity": 0.5118110236220472
        },
        {
          "duration": 0.45000000000000107,
          "durationTicks": 576,
          "midi": 47,
          "name": "B2",
          "ticks": 18432,
          "time": 14.399999999999999,
          "velocity": 0.5118110236220472
        },
        {
          "duration": 0.45000000000000107,
          "durationTicks": 576,
          "midi": 43,
          "name": "G2",
          "ticks": 18432,
          "time": 14.399999999999999,
          "velocity": 0.5118110236220472
        },
        {
          "duration": 0.4499999999999993,
          "durationTicks": 576,
          "midi": 43,
          "name": "G2",
          "ticks": 19008,
          "time": 14.85,
          "velocity": 0.5118110236220472
        },
        {
          "duration": 0.4499999999999993,
          "durationTicks": 576,
          "midi": 47,
          "name": "B2",
          "ticks": 19008,
          "time": 14.85,
          "velocity": 0.5118110236220472
        },
        {
          "duration": 0.4499999999999993,
          "durationTicks": 576,
          "midi": 50,
          "name": "D3",
          "ticks": 19008,
          "time": 14.85,
          "velocity": 0.5118110236220472
        },
        {
          "duration": 0.4499999999999993,
          "durationTicks": 576,
          "midi": 55,
          "name": "G3",
          "ticks": 19008,
          "time": 14.85,
          "velocity": 0.5118110236220472
        },
        {
          "duration": 0.4499999999999993,
          "durationTicks": 576,
          "midi": 59,
          "name": "B3",
          "ticks": 19008,
          "time": 14.85,
          "velocity": 0.5118110236220472
        },
        {
          "duration": 0.4499999999999993,
          "durationTicks": 576,
          "midi": 67,
          "name": "G4",
          "ticks": 19008,
          "time": 14.85,
          "velocity": 0.5118110236220472
        },
        {
          "duration": 0.45000000000000107,
          "durationTicks": 576,
          "midi": 67,
          "name": "G4",
          "ticks": 19584,
          "time": 15.299999999999999,
          "velocity": 0.5118110236220472
        },
        {
          "duration": 0.45000000000000107,
          "durationTicks": 576,
          "midi": 59,
          "name": "B3",
          "ticks": 19584,
          "time": 15.299999999999999,
          "velocity": 0.5118110236220472
        },
        {
          "duration": 0.45000000000000107,
          "durationTicks": 576,
          "midi": 55,
          "name": "G3",
          "ticks": 19584,
          "time": 15.299999999999999,
          "velocity": 0.5118110236220472
        },
        {
          "duration": 0.45000000000000107,
          "durationTicks": 576,
          "midi": 50,
          "name": "D3",
          "ticks": 19584,
          "time": 15.299999999999999,
          "velocity": 0.5118110236220472
        },
        {
          "duration": 0.45000000000000107,
          "durationTicks": 576,
          "midi": 47,
          "name": "B2",
          "ticks": 19584,
          "time": 15.299999999999999,
          "velocity": 0.5118110236220472
        },
        {
          "duration": 0.45000000000000107,
          "durationTicks": 576,
          "midi": 43,
          "name": "G2",
          "ticks": 19584,
          "time": 15.299999999999999,
          "velocity": 0.5118110236220472
        },
        {
          "duration": 0.4499999999999993,
          "durationTicks": 576,
          "midi": 43,
          "name": "G2",
          "ticks": 20160,
          "time": 15.75,
          "velocity": 0.5118110236220472
        },
        {
          "duration": 0.4499999999999993,
          "durationTicks": 576,
          "midi": 47,
          "name": "B2",
          "ticks": 20160,
          "time": 15.75,
          "velocity": 0.5118110236220472
        },
        {
          "duration": 0.4499999999999993,
          "durationTicks": 576,
          "midi": 50,
          "name": "D3",
          "ticks": 20160,
          "time": 15.75,
          "velocity": 0.5118110236220472
        },
        {
          "duration": 0.4499999999999993,
          "durationTicks": 576,
          "midi": 55,
          "name": "G3",
          "ticks": 20160,
          "time": 15.75,
          "velocity": 0.5118110236220472
        },
        {
          "duration": 0.4499999999999993,
          "durationTicks": 576,
          "midi": 59,
          "name": "B3",
          "ticks": 20160,
          "time": 15.75,
          "velocity": 0.5118110236220472
        },
        {
          "duration": 0.4499999999999993,
          "durationTicks": 576,
          "midi": 67,
          "name": "G4",
          "ticks": 20160,
          "time": 15.75,
          "velocity": 0.5118110236220472
        },
        {
          "duration": 0.4499999999999993,
          "durationTicks": 576,
          "midi": 67,
          "name": "G4",
          "ticks": 20736,
          "time": 16.2,
          "velocity": 0.5118110236220472
        },
        {
          "duration": 0.4499999999999993,
          "durationTicks": 576,
          "midi": 59,
          "name": "B3",
          "ticks": 20736,
          "time": 16.2,
          "velocity": 0.5118110236220472
        },
        {
          "duration": 0.4499999999999993,
          "durationTicks": 576,
          "midi": 55,
          "name": "G3",
          "ticks": 20736,
          "time": 16.2,
          "velocity": 0.5118110236220472
        },
        {
          "duration": 0.4499999999999993,
          "durationTicks": 576,
          "midi": 50,
          "name": "D3",
          "ticks": 20736,
          "time": 16.2,
          "velocity": 0.5118110236220472
        },
        {
          "duration": 0.4499999999999993,
          "durationTicks": 576,
          "midi": 47,
          "name": "B2",
          "ticks": 20736,
          "time": 16.2,
          "velocity": 0.5118110236220472
        },
        {
          "duration": 0.4499999999999993,
          "durationTicks": 576,
          "midi": 43,
          "name": "G2",
          "ticks": 20736,
          "time": 16.2,
          "velocity": 0.5118110236220472
        },
        {
          "duration": 0.4499999999999993,
          "durationTicks": 576,
          "midi": 43,
          "name": "G2",
          "ticks": 21312,
          "time": 16.65,
          "velocity": 0.5118110236220472
        },
        {
          "duration": 0.4499999999999993,
          "durationTicks": 576,
          "midi": 47,
          "name": "B2",
          "ticks": 21312,
          "time": 16.65,
          "velocity": 0.5118110236220472
        },
        {
          "duration": 0.4499999999999993,
          "durationTicks": 576,
          "midi": 50,
          "name": "D3",
          "ticks": 21312,
          "time": 16.65,
          "velocity": 0.5118110236220472
        },
        {
          "duration": 0.4499999999999993,
          "durationTicks": 576,
          "midi": 55,
          "name": "G3",
          "ticks": 21312,
          "time": 16.65,
          "velocity": 0.5118110236220472
        },
        {
          "duration": 0.4499999999999993,
          "durationTicks": 576,
          "midi": 59,
          "name": "B3",
          "ticks": 21312,
          "time": 16.65,
          "velocity": 0.5118110236220472
        },
        {
          "duration": 0.4499999999999993,
          "durationTicks": 576,
          "midi": 67,
          "name": "G4",
          "ticks": 21312,
          "time": 16.65,
          "velocity": 0.5118110236220472
        },
        {
          "duration": 0.45000000000000284,
          "durationTicks": 576,
          "midi": 67,
          "name": "G4",
          "ticks": 21888,
          "time": 17.099999999999998,
          "velocity": 0.5118110236220472
        },
        {
          "duration": 0.45000000000000284,
          "durationTicks": 576,
          "midi": 59,
          "name": "B3",
          "ticks": 21888,
          "time": 17.099999999999998,
          "velocity": 0.5118110236220472
        },
        {
          "duration": 0.45000000000000284,
          "durationTicks": 576,
          "midi": 55,
          "name": "G3",
          "ticks": 21888,
          "time": 17.099999999999998,
          "velocity": 0.5118110236220472
        },
        {
          "duration": 0.45000000000000284,
          "durationTicks": 576,
          "midi": 50,
          "name": "D3",
          "ticks": 21888,
          "time": 17.099999999999998,
          "velocity": 0.5118110236220472
        },
        {
          "duration": 0.45000000000000284,
          "durationTicks": 576,
          "midi": 47,
          "name": "B2",
          "ticks": 21888,
          "time": 17.099999999999998,
          "velocity": 0.5118110236220472
        },
        {
          "duration": 0.45000000000000284,
          "durationTicks": 576,
          "midi": 43,
          "name": "G2",
          "ticks": 21888,
          "time": 17.099999999999998,
          "velocity": 0.5118110236220472
        },
        {
          "duration": 0.4499999999999993,
          "durationTicks": 576,
          "midi": 43,
          "name": "G2",
          "ticks": 22464,
          "time": 17.55,
          "velocity": 0.5118110236220472
        },
        {
          "duration": 0.4499999999999993,
          "durationTicks": 576,
          "midi": 47,
          "name": "B2",
          "ticks": 22464,
          "time": 17.55,
          "velocity": 0.5118110236220472
        },
        {
          "duration": 0.4499999999999993,
          "durationTicks": 576,
          "midi": 50,
          "name": "D3",
          "ticks": 22464,
          "time": 17.55,
          "velocity": 0.5118110236220472
        },
        {
          "duration": 0.4499999999999993,
          "durationTicks": 576,
          "midi": 55,
          "name": "G3",
          "ticks": 22464,
          "time": 17.55,
          "velocity": 0.5118110236220472
        },
        {
          "duration": 0.4499999999999993,
          "durationTicks": 576,
          "midi": 59,
          "name": "B3",
          "ticks": 22464,
          "time": 17.55,
          "velocity": 0.5118110236220472
        },
        {
          "duration": 0.4499999999999993,
          "durationTicks": 576,
          "midi": 67,
          "name": "G4",
          "ticks": 22464,
          "time": 17.55,
          "velocity": 0.5118110236220472
        },
        {
          "duration": 0.4499999999999993,
          "durationTicks": 576,
          "midi": 50,
          "name": "D3",
          "ticks": 23040,
          "time": 18,
          "velocity": 0.5118110236220472
        },
        {
          "duration": 0.4499999999999993,
          "durationTicks": 576,
          "midi": 57,
          "name": "A3",
          "ticks": 23040,
          "time": 18,
          "velocity": 0.5118110236220472
        },
        {
          "duration": 0.4499999999999993,
          "durationTicks": 576,
          "midi": 62,
          "name": "D4",
          "ticks": 23040,
          "time": 18,
          "velocity": 0.5118110236220472
        },
        {
          "duration": 0.4499999999999993,
          "durationTicks": 576,
          "midi": 65,
          "name": "F4",
          "ticks": 23040,
          "time": 18,
          "velocity": 0.5118110236220472
        },
        {
          "duration": 0.4499999999999993,
          "durationTicks": 576,
          "midi": 65,
          "name": "F4",
          "ticks": 23616,
          "time": 18.45,
          "velocity": 0.5118110236220472
        },
        {
          "duration": 0.4499999999999993,
          "durationTicks": 576,
          "midi": 62,
          "name": "D4",
          "ticks": 23616,
          "time": 18.45,
          "velocity": 0.5118110236220472
        },
        {
          "duration": 0.4499999999999993,
          "durationTicks": 576,
          "midi": 57,
          "name": "A3",
          "ticks": 23616,
          "time": 18.45,
          "velocity": 0.5118110236220472
        },
        {
          "duration": 0.4499999999999993,
          "durationTicks": 576,
          "midi": 50,
          "name": "D3",
          "ticks": 23616,
          "time": 18.45,
          "velocity": 0.5118110236220472
        },
        {
          "duration": 0.4499999999999993,
          "durationTicks": 576,
          "midi": 50,
          "name": "D3",
          "ticks": 24192,
          "time": 18.9,
          "velocity": 0.5118110236220472
        },
        {
          "duration": 0.4499999999999993,
          "durationTicks": 576,
          "midi": 57,
          "name": "A3",
          "ticks": 24192,
          "time": 18.9,
          "velocity": 0.5118110236220472
        },
        {
          "duration": 0.4499999999999993,
          "durationTicks": 576,
          "midi": 62,
          "name": "D4",
          "ticks": 24192,
          "time": 18.9,
          "velocity": 0.5118110236220472
        },
        {
          "duration": 0.4499999999999993,
          "durationTicks": 576,
          "midi": 65,
          "name": "F4",
          "ticks": 24192,
          "time": 18.9,
          "velocity": 0.5118110236220472
        },
        {
          "duration": 0.45000000000000284,
          "durationTicks": 576,
          "midi": 50,
          "name": "D3",
          "ticks": 24768,
          "time": 19.349999999999998,
          "velocity": 0.5118110236220472
        },
        {
          "duration": 0.45000000000000284,
          "durationTicks": 576,
          "midi": 57,
          "name": "A3",
          "ticks": 24768,
          "time": 19.349999999999998,
          "velocity": 0.5118110236220472
        },
        {
          "duration": 0.45000000000000284,
          "durationTicks": 576,
          "midi": 62,
          "name": "D4",
          "ticks": 24768,
          "time": 19.349999999999998,
          "velocity": 0.5118110236220472
        },
        {
          "duration": 0.45000000000000284,
          "durationTicks": 576,
          "midi": 65,
          "name": "F4",
          "ticks": 24768,
          "time": 19.349999999999998,
          "velocity": 0.5118110236220472
        },
        {
          "duration": 0.4499999999999993,
          "durationTicks": 576,
          "midi": 50,
          "name": "D3",
          "ticks": 25344,
          "time": 19.8,
          "velocity": 0.5118110236220472
        },
        {
          "duration": 0.4499999999999993,
          "durationTicks": 576,
          "midi": 57,
          "name": "A3",
          "ticks": 25344,
          "time": 19.8,
          "velocity": 0.5118110236220472
        },
        {
          "duration": 0.4499999999999993,
          "durationTicks": 576,
          "midi": 62,
          "name": "D4",
          "ticks": 25344,
          "time": 19.8,
          "velocity": 0.5118110236220472
        },
        {
          "duration": 0.4499999999999993,
          "durationTicks": 576,
          "midi": 65,
          "name": "F4",
          "ticks": 25344,
          "time": 19.8,
          "velocity": 0.5118110236220472
        },
        {
          "duration": 0.4499999999999993,
          "durationTicks": 576,
          "midi": 65,
          "name": "F4",
          "ticks": 25920,
          "time": 20.25,
          "velocity": 0.5118110236220472
        },
        {
          "duration": 0.4499999999999993,
          "durationTicks": 576,
          "midi": 62,
          "name": "D4",
          "ticks": 25920,
          "time": 20.25,
          "velocity": 0.5118110236220472
        },
        {
          "duration": 0.4499999999999993,
          "durationTicks": 576,
          "midi": 57,
          "name": "A3",
          "ticks": 25920,
          "time": 20.25,
          "velocity": 0.5118110236220472
        },
        {
          "duration": 0.4499999999999993,
          "durationTicks": 576,
          "midi": 50,
          "name": "D3",
          "ticks": 25920,
          "time": 20.25,
          "velocity": 0.5118110236220472
        },
        {
          "duration": 0.4499999999999993,
          "durationTicks": 576,
          "midi": 50,
          "name": "D3",
          "ticks": 26496,
          "time": 20.7,
          "velocity": 0.5118110236220472
        },
        {
          "duration": 0.4499999999999993,
          "durationTicks": 576,
          "midi": 57,
          "name": "A3",
          "ticks": 26496,
          "time": 20.7,
          "velocity": 0.5118110236220472
        },
        {
          "duration": 0.4499999999999993,
          "durationTicks": 576,
          "midi": 62,
          "name": "D4",
          "ticks": 26496,
          "time": 20.7,
          "velocity": 0.5118110236220472
        },
        {
          "duration": 0.4499999999999993,
          "durationTicks": 576,
          "midi": 65,
          "name": "F4",
          "ticks": 26496,
          "time": 20.7,
          "velocity": 0.5118110236220472
        },
        {
          "duration": 0.4499999999999993,
          "durationTicks": 576,
          "midi": 50,
          "name": "D3",
          "ticks": 27072,
          "time": 21.15,
          "velocity": 0.5118110236220472
        },
        {
          "duration": 0.4499999999999993,
          "durationTicks": 576,
          "midi": 57,
          "name": "A3",
          "ticks": 27072,
          "time": 21.15,
          "velocity": 0.5118110236220472
        },
        {
          "duration": 0.4499999999999993,
          "durationTicks": 576,
          "midi": 62,
          "name": "D4",
          "ticks": 27072,
          "time": 21.15,
          "velocity": 0.5118110236220472
        },
        {
          "duration": 0.4499999999999993,
          "durationTicks": 576,
          "midi": 65,
          "name": "F4",
          "ticks": 27072,
          "time": 21.15,
          "velocity": 0.5118110236220472
        },
        {
          "duration": 0.45000000000000284,
          "durationTicks": 576,
          "midi": 64,
          "name": "E4",
          "ticks": 27648,
          "time": 21.599999999999998,
          "velocity": 0.5118110236220472
        },
        {
          "duration": 0.45000000000000284,
          "durationTicks": 576,
          "midi": 60,
          "name": "C4",
          "ticks": 27648,
          "time": 21.599999999999998,
          "velocity": 0.5118110236220472
        },
        {
          "duration": 0.45000000000000284,
          "durationTicks": 576,
          "midi": 57,
          "name": "A3",
          "ticks": 27648,
          "time": 21.599999999999998,
          "velocity": 0.5118110236220472
        },
        {
          "duration": 0.45000000000000284,
          "durationTicks": 576,
          "midi": 52,
          "name": "E3",
          "ticks": 27648,
          "time": 21.599999999999998,
          "velocity": 0.5118110236220472
        },
        {
          "duration": 0.45000000000000284,
          "durationTicks": 576,
          "midi": 45,
          "name": "A2",
          "ticks": 27648,
          "time": 21.599999999999998,
          "velocity": 0.5118110236220472
        },
        {
          "duration": 0.4499999999999993,
          "durationTicks": 576,
          "midi": 45,
          "name": "A2",
          "ticks": 28224,
          "time": 22.05,
          "velocity": 0.5118110236220472
        },
        {
          "duration": 0.4499999999999993,
          "durationTicks": 576,
          "midi": 52,
          "name": "E3",
          "ticks": 28224,
          "time": 22.05,
          "velocity": 0.5118110236220472
        },
        {
          "duration": 0.4499999999999993,
          "durationTicks": 576,
          "midi": 57,
          "name": "A3",
          "ticks": 28224,
          "time": 22.05,
          "velocity": 0.5118110236220472
        },
        {
          "duration": 0.4499999999999993,
          "durationTicks": 576,
          "midi": 60,
          "name": "C4",
          "ticks": 28224,
          "time": 22.05,
          "velocity": 0.5118110236220472
        },
        {
          "duration": 0.4499999999999993,
          "durationTicks": 576,
          "midi": 64,
          "name": "E4",
          "ticks": 28224,
          "time": 22.05,
          "velocity": 0.5118110236220472
        },
        {
          "duration": 0.4499999999999993,
          "durationTicks": 576,
          "midi": 45,
          "name": "A2",
          "ticks": 28800,
          "time": 22.5,
          "velocity": 0.5118110236220472
        },
        {
          "duration": 0.4499999999999993,
          "durationTicks": 576,
          "midi": 52,
          "name": "E3",
          "ticks": 28800,
          "time": 22.5,
          "velocity": 0.5118110236220472
        },
        {
          "duration": 0.4499999999999993,
          "durationTicks": 576,
          "midi": 57,
          "name": "A3",
          "ticks": 28800,
          "time": 22.5,
          "velocity": 0.5118110236220472
        },
        {
          "duration": 0.4499999999999993,
          "durationTicks": 576,
          "midi": 60,
          "name": "C4",
          "ticks": 28800,
          "time": 22.5,
          "velocity": 0.5118110236220472
        },
        {
          "duration": 0.4499999999999993,
          "durationTicks": 576,
          "midi": 64,
          "name": "E4",
          "ticks": 28800,
          "time": 22.5,
          "velocity": 0.5118110236220472
        },
        {
          "duration": 0.4499999999999993,
          "durationTicks": 576,
          "midi": 64,
          "name": "E4",
          "ticks": 29376,
          "time": 22.95,
          "velocity": 0.5118110236220472
        },
        {
          "duration": 0.4499999999999993,
          "durationTicks": 576,
          "midi": 60,
          "name": "C4",
          "ticks": 29376,
          "time": 22.95,
          "velocity": 0.5118110236220472
        },
        {
          "duration": 0.4499999999999993,
          "durationTicks": 576,
          "midi": 57,
          "name": "A3",
          "ticks": 29376,
          "time": 22.95,
          "velocity": 0.5118110236220472
        },
        {
          "duration": 0.4499999999999993,
          "durationTicks": 576,
          "midi": 52,
          "name": "E3",
          "ticks": 29376,
          "time": 22.95,
          "velocity": 0.5118110236220472
        },
        {
          "duration": 0.4499999999999993,
          "durationTicks": 576,
          "midi": 45,
          "name": "A2",
          "ticks": 29376,
          "time": 22.95,
          "velocity": 0.5118110236220472
        },
        {
          "duration": 0.4499999999999993,
          "durationTicks": 576,
          "midi": 45,
          "name": "A2",
          "ticks": 29952,
          "time": 23.4,
          "velocity": 0.5118110236220472
        },
        {
          "duration": 0.4499999999999993,
          "durationTicks": 576,
          "midi": 52,
          "name": "E3",
          "ticks": 29952,
          "time": 23.4,
          "velocity": 0.5118110236220472
        },
        {
          "duration": 0.4499999999999993,
          "durationTicks": 576,
          "midi": 57,
          "name": "A3",
          "ticks": 29952,
          "time": 23.4,
          "velocity": 0.5118110236220472
        },
        {
          "duration": 0.4499999999999993,
          "durationTicks": 576,
          "midi": 60,
          "name": "C4",
          "ticks": 29952,
          "time": 23.4,
          "velocity": 0.5118110236220472
        },
        {
          "duration": 0.4499999999999993,
          "durationTicks": 576,
          "midi": 64,
          "name": "E4",
          "ticks": 29952,
          "time": 23.4,
          "velocity": 0.5118110236220472
        },
        {
          "duration": 0.45000000000000284,
          "durationTicks": 576,
          "midi": 45,
          "name": "A2",
          "ticks": 30528,
          "time": 23.849999999999998,
          "velocity": 0.5118110236220472
        },
        {
          "duration": 0.45000000000000284,
          "durationTicks": 576,
          "midi": 52,
          "name": "E3",
          "ticks": 30528,
          "time": 23.849999999999998,
          "velocity": 0.5118110236220472
        },
        {
          "duration": 0.45000000000000284,
          "durationTicks": 576,
          "midi": 57,
          "name": "A3",
          "ticks": 30528,
          "time": 23.849999999999998,
          "velocity": 0.5118110236220472
        },
        {
          "duration": 0.45000000000000284,
          "durationTicks": 576,
          "midi": 60,
          "name": "C4",
          "ticks": 30528,
          "time": 23.849999999999998,
          "velocity": 0.5118110236220472
        },
        {
          "duration": 0.45000000000000284,
          "durationTicks": 576,
          "midi": 64,
          "name": "E4",
          "ticks": 30528,
          "time": 23.849999999999998,
          "velocity": 0.5118110236220472
        },
        {
          "duration": 0.4499999999999993,
          "durationTicks": 576,
          "midi": 64,
          "name": "E4",
          "ticks": 31104,
          "time": 24.3,
          "velocity": 0.5118110236220472
        },
        {
          "duration": 0.4499999999999993,
          "durationTicks": 576,
          "midi": 60,
          "name": "C4",
          "ticks": 31104,
          "time": 24.3,
          "velocity": 0.5118110236220472
        },
        {
          "duration": 0.4499999999999993,
          "durationTicks": 576,
          "midi": 57,
          "name": "A3",
          "ticks": 31104,
          "time": 24.3,
          "velocity": 0.5118110236220472
        },
        {
          "duration": 0.4499999999999993,
          "durationTicks": 576,
          "midi": 52,
          "name": "E3",
          "ticks": 31104,
          "time": 24.3,
          "velocity": 0.5118110236220472
        },
        {
          "duration": 0.4499999999999993,
          "durationTicks": 576,
          "midi": 45,
          "name": "A2",
          "ticks": 31104,
          "time": 24.3,
          "velocity": 0.5118110236220472
        },
        {
          "duration": 0.4499999999999993,
          "durationTicks": 576,
          "midi": 45,
          "name": "A2",
          "ticks": 31680,
          "time": 24.75,
          "velocity": 0.5118110236220472
        },
        {
          "duration": 0.4499999999999993,
          "durationTicks": 576,
          "midi": 52,
          "name": "E3",
          "ticks": 31680,
          "time": 24.75,
          "velocity": 0.5118110236220472
        },
        {
          "duration": 0.4499999999999993,
          "durationTicks": 576,
          "midi": 57,
          "name": "A3",
          "ticks": 31680,
          "time": 24.75,
          "velocity": 0.5118110236220472
        },
        {
          "duration": 0.4499999999999993,
          "durationTicks": 576,
          "midi": 60,
          "name": "C4",
          "ticks": 31680,
          "time": 24.75,
          "velocity": 0.5118110236220472
        },
        {
          "duration": 0.4499999999999993,
          "durationTicks": 576,
          "midi": 64,
          "name": "E4",
          "ticks": 31680,
          "time": 24.75,
          "velocity": 0.5118110236220472
        },
        {
          "duration": 0.4499999999999993,
          "durationTicks": 576,
          "midi": 52,
          "name": "E3",
          "ticks": 32256,
          "time": 25.2,
          "velocity": 0.5118110236220472
        },
        {
          "duration": 0.4499999999999993,
          "durationTicks": 576,
          "midi": 59,
          "name": "B3",
          "ticks": 32256,
          "time": 25.2,
          "velocity": 0.5118110236220472
        },
        {
          "duration": 0.4499999999999993,
          "durationTicks": 576,
          "midi": 56,
          "name": "G#3",
          "ticks": 32256,
          "time": 25.2,
          "velocity": 0.5118110236220472
        },
        {
          "duration": 0.4499999999999993,
          "durationTicks": 576,
          "midi": 64,
          "name": "E4",
          "ticks": 32256,
          "time": 25.2,
          "velocity": 0.5118110236220472
        },
        {
          "duration": 0.4499999999999993,
          "durationTicks": 576,
          "midi": 47,
          "name": "B2",
          "ticks": 32256,
          "time": 25.2,
          "velocity": 0.5118110236220472
        },
        {
          "duration": 0.4499999999999993,
          "durationTicks": 576,
          "midi": 40,
          "name": "E2",
          "ticks": 32256,
          "time": 25.2,
          "velocity": 0.5118110236220472
        },
        {
          "duration": 0.4499999999999993,
          "durationTicks": 576,
          "midi": 40,
          "name": "E2",
          "ticks": 32832,
          "time": 25.65,
          "velocity": 0.5118110236220472
        },
        {
          "duration": 0.4499999999999993,
          "durationTicks": 576,
          "midi": 47,
          "name": "B2",
          "ticks": 32832,
          "time": 25.65,
          "velocity": 0.5118110236220472
        },
        {
          "duration": 0.4499999999999993,
          "durationTicks": 576,
          "midi": 64,
          "name": "E4",
          "ticks": 32832,
          "time": 25.65,
          "velocity": 0.5118110236220472
        },
        {
          "duration": 0.4499999999999993,
          "durationTicks": 576,
          "midi": 56,
          "name": "G#3",
          "ticks": 32832,
          "time": 25.65,
          "velocity": 0.5118110236220472
        },
        {
          "duration": 0.4499999999999993,
          "durationTicks": 576,
          "midi": 59,
          "name": "B3",
          "ticks": 32832,
          "time": 25.65,
          "velocity": 0.5118110236220472
        },
        {
          "duration": 0.4499999999999993,
          "durationTicks": 576,
          "midi": 52,
          "name": "E3",
          "ticks": 32832,
          "time": 25.65,
          "velocity": 0.5118110236220472
        },
        {
          "duration": 0.45000000000000284,
          "durationTicks": 576,
          "midi": 52,
          "name": "E3",
          "ticks": 33408,
          "time": 26.099999999999998,
          "velocity": 0.5118110236220472
        },
        {
          "duration": 0.45000000000000284,
          "durationTicks": 576,
          "midi": 59,
          "name": "B3",
          "ticks": 33408,
          "time": 26.099999999999998,
          "velocity": 0.5118110236220472
        },
        {
          "duration": 0.45000000000000284,
          "durationTicks": 576,
          "midi": 56,
          "name": "G#3",
          "ticks": 33408,
          "time": 26.099999999999998,
          "velocity": 0.5118110236220472
        },
        {
          "duration": 0.45000000000000284,
          "durationTicks": 576,
          "midi": 64,
          "name": "E4",
          "ticks": 33408,
          "time": 26.099999999999998,
          "velocity": 0.5118110236220472
        },
        {
          "duration": 0.45000000000000284,
          "durationTicks": 576,
          "midi": 47,
          "name": "B2",
          "ticks": 33408,
          "time": 26.099999999999998,
          "velocity": 0.5118110236220472
        },
        {
          "duration": 0.45000000000000284,
          "durationTicks": 576,
          "midi": 40,
          "name": "E2",
          "ticks": 33408,
          "time": 26.099999999999998,
          "velocity": 0.5118110236220472
        },
        {
          "duration": 0.4499999999999993,
          "durationTicks": 576,
          "midi": 52,
          "name": "E3",
          "ticks": 33984,
          "time": 26.55,
          "velocity": 0.5118110236220472
        },
        {
          "duration": 0.4499999999999993,
          "durationTicks": 576,
          "midi": 59,
          "name": "B3",
          "ticks": 33984,
          "time": 26.55,
          "velocity": 0.5118110236220472
        },
        {
          "duration": 0.4499999999999993,
          "durationTicks": 576,
          "midi": 56,
          "name": "G#3",
          "ticks": 33984,
          "time": 26.55,
          "velocity": 0.5118110236220472
        },
        {
          "duration": 0.4499999999999993,
          "durationTicks": 576,
          "midi": 64,
          "name": "E4",
          "ticks": 33984,
          "time": 26.55,
          "velocity": 0.5118110236220472
        },
        {
          "duration": 0.4499999999999993,
          "durationTicks": 576,
          "midi": 47,
          "name": "B2",
          "ticks": 33984,
          "time": 26.55,
          "velocity": 0.5118110236220472
        },
        {
          "duration": 0.4499999999999993,
          "durationTicks": 576,
          "midi": 40,
          "name": "E2",
          "ticks": 33984,
          "time": 26.55,
          "velocity": 0.5118110236220472
        },
        {
          "duration": 0.4499999999999993,
          "durationTicks": 576,
          "midi": 40,
          "name": "E2",
          "ticks": 34560,
          "time": 27,
          "velocity": 0.5118110236220472
        },
        {
          "duration": 0.4499999999999993,
          "durationTicks": 576,
          "midi": 47,
          "name": "B2",
          "ticks": 34560,
          "time": 27,
          "velocity": 0.5118110236220472
        },
        {
          "duration": 0.4499999999999993,
          "durationTicks": 576,
          "midi": 64,
          "name": "E4",
          "ticks": 34560,
          "time": 27,
          "velocity": 0.5118110236220472
        },
        {
          "duration": 0.4499999999999993,
          "durationTicks": 576,
          "midi": 56,
          "name": "G#3",
          "ticks": 34560,
          "time": 27,
          "velocity": 0.5118110236220472
        },
        {
          "duration": 0.4499999999999993,
          "durationTicks": 576,
          "midi": 59,
          "name": "B3",
          "ticks": 34560,
          "time": 27,
          "velocity": 0.5118110236220472
        },
        {
          "duration": 0.4499999999999993,
          "durationTicks": 576,
          "midi": 52,
          "name": "E3",
          "ticks": 34560,
          "time": 27,
          "velocity": 0.5118110236220472
        },
        {
          "duration": 0.4499999999999993,
          "durationTicks": 576,
          "midi": 52,
          "name": "E3",
          "ticks": 35136,
          "time": 27.45,
          "velocity": 0.5118110236220472
        },
        {
          "duration": 0.4499999999999993,
          "durationTicks": 576,
          "midi": 59,
          "name": "B3",
          "ticks": 35136,
          "time": 27.45,
          "velocity": 0.5118110236220472
        },
        {
          "duration": 0.4499999999999993,
          "durationTicks": 576,
          "midi": 56,
          "name": "G#3",
          "ticks": 35136,
          "time": 27.45,
          "velocity": 0.5118110236220472
        },
        {
          "duration": 0.4499999999999993,
          "durationTicks": 576,
          "midi": 64,
          "name": "E4",
          "ticks": 35136,
          "time": 27.45,
          "velocity": 0.5118110236220472
        },
        {
          "duration": 0.4499999999999993,
          "durationTicks": 576,
          "midi": 47,
          "name": "B2",
          "ticks": 35136,
          "time": 27.45,
          "velocity": 0.5118110236220472
        },
        {
          "duration": 0.4499999999999993,
          "durationTicks": 576,
          "midi": 40,
          "name": "E2",
          "ticks": 35136,
          "time": 27.45,
          "velocity": 0.5118110236220472
        },
        {
          "duration": 0.4499999999999993,
          "durationTicks": 576,
          "midi": 40,
          "name": "E2",
          "ticks": 35712,
          "time": 27.9,
          "velocity": 0.5118110236220472
        },
        {
          "duration": 0.4499999999999993,
          "durationTicks": 576,
          "midi": 47,
          "name": "B2",
          "ticks": 35712,
          "time": 27.9,
          "velocity": 0.5118110236220472
        },
        {
          "duration": 0.4499999999999993,
          "durationTicks": 576,
          "midi": 64,
          "name": "E4",
          "ticks": 35712,
          "time": 27.9,
          "velocity": 0.5118110236220472
        },
        {
          "duration": 0.4499999999999993,
          "durationTicks": 576,
          "midi": 56,
          "name": "G#3",
          "ticks": 35712,
          "time": 27.9,
          "velocity": 0.5118110236220472
        },
        {
          "duration": 0.4499999999999993,
          "durationTicks": 576,
          "midi": 59,
          "name": "B3",
          "ticks": 35712,
          "time": 27.9,
          "velocity": 0.5118110236220472
        },
        {
          "duration": 0.4499999999999993,
          "durationTicks": 576,
          "midi": 52,
          "name": "E3",
          "ticks": 35712,
          "time": 27.9,
          "velocity": 0.5118110236220472
        },
        {
          "duration": 0.4499999999999993,
          "durationTicks": 576,
          "midi": 52,
          "name": "E3",
          "ticks": 36288,
          "time": 28.349999999999998,
          "velocity": 0.5118110236220472
        },
        {
          "duration": 0.4499999999999993,
          "durationTicks": 576,
          "midi": 59,
          "name": "B3",
          "ticks": 36288,
          "time": 28.349999999999998,
          "velocity": 0.5118110236220472
        },
        {
          "duration": 0.4499999999999993,
          "durationTicks": 576,
          "midi": 56,
          "name": "G#3",
          "ticks": 36288,
          "time": 28.349999999999998,
          "velocity": 0.5118110236220472
        },
        {
          "duration": 0.4499999999999993,
          "durationTicks": 576,
          "midi": 64,
          "name": "E4",
          "ticks": 36288,
          "time": 28.349999999999998,
          "velocity": 0.5118110236220472
        },
        {
          "duration": 0.4499999999999993,
          "durationTicks": 576,
          "midi": 47,
          "name": "B2",
          "ticks": 36288,
          "time": 28.349999999999998,
          "velocity": 0.5118110236220472
        },
        {
          "duration": 0.4499999999999993,
          "durationTicks": 576,
          "midi": 40,
          "name": "E2",
          "ticks": 36288,
          "time": 28.349999999999998,
          "velocity": 0.5118110236220472
        },
        {
          "duration": 0.45000000000000284,
          "durationTicks": 576,
          "midi": 67,
          "name": "G4",
          "ticks": 36864,
          "time": 28.799999999999997,
          "velocity": 0.5118110236220472
        },
        {
          "duration": 0.45000000000000284,
          "durationTicks": 576,
          "midi": 59,
          "name": "B3",
          "ticks": 36864,
          "time": 28.799999999999997,
          "velocity": 0.5118110236220472
        },
        {
          "duration": 0.45000000000000284,
          "durationTicks": 576,
          "midi": 55,
          "name": "G3",
          "ticks": 36864,
          "time": 28.799999999999997,
          "velocity": 0.5118110236220472
        },
        {
          "duration": 0.45000000000000284,
          "durationTicks": 576,
          "midi": 50,
          "name": "D3",
          "ticks": 36864,
          "time": 28.799999999999997,
          "velocity": 0.5118110236220472
        },
        {
          "duration": 0.45000000000000284,
          "durationTicks": 576,
          "midi": 47,
          "name": "B2",
          "ticks": 36864,
          "time": 28.799999999999997,
          "velocity": 0.5118110236220472
        },
        {
          "duration": 0.45000000000000284,
          "durationTicks": 576,
          "midi": 43,
          "name": "G2",
          "ticks": 36864,
          "time": 28.799999999999997,
          "velocity": 0.5118110236220472
        },
        {
          "duration": 0.4499999999999993,
          "durationTicks": 576,
          "midi": 43,
          "name": "G2",
          "ticks": 37440,
          "time": 29.25,
          "velocity": 0.5118110236220472
        },
        {
          "duration": 0.4499999999999993,
          "durationTicks": 576,
          "midi": 47,
          "name": "B2",
          "ticks": 37440,
          "time": 29.25,
          "velocity": 0.5118110236220472
        },
        {
          "duration": 0.4499999999999993,
          "durationTicks": 576,
          "midi": 50,
          "name": "D3",
          "ticks": 37440,
          "time": 29.25,
          "velocity": 0.5118110236220472
        },
        {
          "duration": 0.4499999999999993,
          "durationTicks": 576,
          "midi": 55,
          "name": "G3",
          "ticks": 37440,
          "time": 29.25,
          "velocity": 0.5118110236220472
        },
        {
          "duration": 0.4499999999999993,
          "durationTicks": 576,
          "midi": 59,
          "name": "B3",
          "ticks": 37440,
          "time": 29.25,
          "velocity": 0.5118110236220472
        },
        {
          "duration": 0.4499999999999993,
          "durationTicks": 576,
          "midi": 67,
          "name": "G4",
          "ticks": 37440,
          "time": 29.25,
          "velocity": 0.5118110236220472
        },
        {
          "duration": 0.4499999999999993,
          "durationTicks": 576,
          "midi": 67,
          "name": "G4",
          "ticks": 38016,
          "time": 29.7,
          "velocity": 0.5118110236220472
        },
        {
          "duration": 0.4499999999999993,
          "durationTicks": 576,
          "midi": 59,
          "name": "B3",
          "ticks": 38016,
          "time": 29.7,
          "velocity": 0.5118110236220472
        },
        {
          "duration": 0.4499999999999993,
          "durationTicks": 576,
          "midi": 55,
          "name": "G3",
          "ticks": 38016,
          "time": 29.7,
          "velocity": 0.5118110236220472
        },
        {
          "duration": 0.4499999999999993,
          "durationTicks": 576,
          "midi": 50,
          "name": "D3",
          "ticks": 38016,
          "time": 29.7,
          "velocity": 0.5118110236220472
        },
        {
          "duration": 0.4499999999999993,
          "durationTicks": 576,
          "midi": 47,
          "name": "B2",
          "ticks": 38016,
          "time": 29.7,
          "velocity": 0.5118110236220472
        },
        {
          "duration": 0.4499999999999993,
          "durationTicks": 576,
          "midi": 43,
          "name": "G2",
          "ticks": 38016,
          "time": 29.7,
          "velocity": 0.5118110236220472
        },
        {
          "duration": 0.4499999999999993,
          "durationTicks": 576,
          "midi": 43,
          "name": "G2",
          "ticks": 38592,
          "time": 30.15,
          "velocity": 0.5118110236220472
        },
        {
          "duration": 0.4499999999999993,
          "durationTicks": 576,
          "midi": 47,
          "name": "B2",
          "ticks": 38592,
          "time": 30.15,
          "velocity": 0.5118110236220472
        },
        {
          "duration": 0.4499999999999993,
          "durationTicks": 576,
          "midi": 50,
          "name": "D3",
          "ticks": 38592,
          "time": 30.15,
          "velocity": 0.5118110236220472
        },
        {
          "duration": 0.4499999999999993,
          "durationTicks": 576,
          "midi": 55,
          "name": "G3",
          "ticks": 38592,
          "time": 30.15,
          "velocity": 0.5118110236220472
        },
        {
          "duration": 0.4499999999999993,
          "durationTicks": 576,
          "midi": 59,
          "name": "B3",
          "ticks": 38592,
          "time": 30.15,
          "velocity": 0.5118110236220472
        },
        {
          "duration": 0.4499999999999993,
          "durationTicks": 576,
          "midi": 67,
          "name": "G4",
          "ticks": 38592,
          "time": 30.15,
          "velocity": 0.5118110236220472
        },
        {
          "duration": 0.4499999999999993,
          "durationTicks": 576,
          "midi": 67,
          "name": "G4",
          "ticks": 39168,
          "time": 30.599999999999998,
          "velocity": 0.5118110236220472
        },
        {
          "duration": 0.4499999999999993,
          "durationTicks": 576,
          "midi": 59,
          "name": "B3",
          "ticks": 39168,
          "time": 30.599999999999998,
          "velocity": 0.5118110236220472
        },
        {
          "duration": 0.4499999999999993,
          "durationTicks": 576,
          "midi": 55,
          "name": "G3",
          "ticks": 39168,
          "time": 30.599999999999998,
          "velocity": 0.5118110236220472
        },
        {
          "duration": 0.4499999999999993,
          "durationTicks": 576,
          "midi": 50,
          "name": "D3",
          "ticks": 39168,
          "time": 30.599999999999998,
          "velocity": 0.5118110236220472
        },
        {
          "duration": 0.4499999999999993,
          "durationTicks": 576,
          "midi": 47,
          "name": "B2",
          "ticks": 39168,
          "time": 30.599999999999998,
          "velocity": 0.5118110236220472
        },
        {
          "duration": 0.4499999999999993,
          "durationTicks": 576,
          "midi": 43,
          "name": "G2",
          "ticks": 39168,
          "time": 30.599999999999998,
          "velocity": 0.5118110236220472
        },
        {
          "duration": 0.45000000000000284,
          "durationTicks": 576,
          "midi": 67,
          "name": "G4",
          "ticks": 39744,
          "time": 31.049999999999997,
          "velocity": 0.5118110236220472
        },
        {
          "duration": 0.45000000000000284,
          "durationTicks": 576,
          "midi": 59,
          "name": "B3",
          "ticks": 39744,
          "time": 31.049999999999997,
          "velocity": 0.5118110236220472
        },
        {
          "duration": 0.45000000000000284,
          "durationTicks": 576,
          "midi": 55,
          "name": "G3",
          "ticks": 39744,
          "time": 31.049999999999997,
          "velocity": 0.5118110236220472
        },
        {
          "duration": 0.45000000000000284,
          "durationTicks": 576,
          "midi": 50,
          "name": "D3",
          "ticks": 39744,
          "time": 31.049999999999997,
          "velocity": 0.5118110236220472
        },
        {
          "duration": 0.45000000000000284,
          "durationTicks": 576,
          "midi": 47,
          "name": "B2",
          "ticks": 39744,
          "time": 31.049999999999997,
          "velocity": 0.5118110236220472
        },
        {
          "duration": 0.45000000000000284,
          "durationTicks": 576,
          "midi": 43,
          "name": "G2",
          "ticks": 39744,
          "time": 31.049999999999997,
          "velocity": 0.5118110236220472
        },
        {
          "duration": 0.4499999999999993,
          "durationTicks": 576,
          "midi": 43,
          "name": "G2",
          "ticks": 40320,
          "time": 31.5,
          "velocity": 0.5118110236220472
        },
        {
          "duration": 0.4499999999999993,
          "durationTicks": 576,
          "midi": 47,
          "name": "B2",
          "ticks": 40320,
          "time": 31.5,
          "velocity": 0.5118110236220472
        },
        {
          "duration": 0.4499999999999993,
          "durationTicks": 576,
          "midi": 50,
          "name": "D3",
          "ticks": 40320,
          "time": 31.5,
          "velocity": 0.5118110236220472
        },
        {
          "duration": 0.4499999999999993,
          "durationTicks": 576,
          "midi": 55,
          "name": "G3",
          "ticks": 40320,
          "time": 31.5,
          "velocity": 0.5118110236220472
        },
        {
          "duration": 0.4499999999999993,
          "durationTicks": 576,
          "midi": 59,
          "name": "B3",
          "ticks": 40320,
          "time": 31.5,
          "velocity": 0.5118110236220472
        },
        {
          "duration": 0.4499999999999993,
          "durationTicks": 576,
          "midi": 67,
          "name": "G4",
          "ticks": 40320,
          "time": 31.5,
          "velocity": 0.5118110236220472
        },
        {
          "duration": 0.4499999999999993,
          "durationTicks": 576,
          "midi": 67,
          "name": "G4",
          "ticks": 40896,
          "time": 31.95,
          "velocity": 0.5118110236220472
        },
        {
          "duration": 0.4499999999999993,
          "durationTicks": 576,
          "midi": 59,
          "name": "B3",
          "ticks": 40896,
          "time": 31.95,
          "velocity": 0.5118110236220472
        },
        {
          "duration": 0.4499999999999993,
          "durationTicks": 576,
          "midi": 55,
          "name": "G3",
          "ticks": 40896,
          "time": 31.95,
          "velocity": 0.5118110236220472
        },
        {
          "duration": 0.4499999999999993,
          "durationTicks": 576,
          "midi": 50,
          "name": "D3",
          "ticks": 40896,
          "time": 31.95,
          "velocity": 0.5118110236220472
        },
        {
          "duration": 0.4499999999999993,
          "durationTicks": 576,
          "midi": 47,
          "name": "B2",
          "ticks": 40896,
          "time": 31.95,
          "velocity": 0.5118110236220472
        },
        {
          "duration": 0.4499999999999993,
          "durationTicks": 576,
          "midi": 43,
          "name": "G2",
          "ticks": 40896,
          "time": 31.95,
          "velocity": 0.5118110236220472
        },
        {
          "duration": 0.45000000000000284,
          "durationTicks": 576,
          "midi": 45,
          "name": "A2",
          "ticks": 41472,
          "time": 32.4,
          "velocity": 0.5118110236220472
        },
        {
          "duration": 0.45000000000000284,
          "durationTicks": 576,
          "midi": 52,
          "name": "E3",
          "ticks": 41472,
          "time": 32.4,
          "velocity": 0.5118110236220472
        },
        {
          "duration": 0.45000000000000284,
          "durationTicks": 576,
          "midi": 57,
          "name": "A3",
          "ticks": 41472,
          "time": 32.4,
          "velocity": 0.5118110236220472
        },
        {
          "duration": 0.45000000000000284,
          "durationTicks": 576,
          "midi": 60,
          "name": "C4",
          "ticks": 41472,
          "time": 32.4,
          "velocity": 0.5118110236220472
        },
        {
          "duration": 0.45000000000000284,
          "durationTicks": 576,
          "midi": 64,
          "name": "E4",
          "ticks": 41472,
          "time": 32.4,
          "velocity": 0.5118110236220472
        },
        {
          "duration": 0.44999999999999574,
          "durationTicks": 576,
          "midi": 64,
          "name": "E4",
          "ticks": 42048,
          "time": 32.85,
          "velocity": 0.5118110236220472
        },
        {
          "duration": 0.44999999999999574,
          "durationTicks": 576,
          "midi": 60,
          "name": "C4",
          "ticks": 42048,
          "time": 32.85,
          "velocity": 0.5118110236220472
        },
        {
          "duration": 0.44999999999999574,
          "durationTicks": 576,
          "midi": 57,
          "name": "A3",
          "ticks": 42048,
          "time": 32.85,
          "velocity": 0.5118110236220472
        },
        {
          "duration": 0.44999999999999574,
          "durationTicks": 576,
          "midi": 52,
          "name": "E3",
          "ticks": 42048,
          "time": 32.85,
          "velocity": 0.5118110236220472
        },
        {
          "duration": 0.44999999999999574,
          "durationTicks": 576,
          "midi": 45,
          "name": "A2",
          "ticks": 42048,
          "time": 32.85,
          "velocity": 0.5118110236220472
        },
        {
          "duration": 0.45000000000000284,
          "durationTicks": 576,
          "midi": 45,
          "name": "A2",
          "ticks": 42624,
          "time": 33.3,
          "velocity": 0.5118110236220472
        },
        {
          "duration": 0.45000000000000284,
          "durationTicks": 576,
          "midi": 52,
          "name": "E3",
          "ticks": 42624,
          "time": 33.3,
          "velocity": 0.5118110236220472
        },
        {
          "duration": 0.45000000000000284,
          "durationTicks": 576,
          "midi": 57,
          "name": "A3",
          "ticks": 42624,
          "time": 33.3,
          "velocity": 0.5118110236220472
        },
        {
          "duration": 0.45000000000000284,
          "durationTicks": 576,
          "midi": 60,
          "name": "C4",
          "ticks": 42624,
          "time": 33.3,
          "velocity": 0.5118110236220472
        },
        {
          "duration": 0.45000000000000284,
          "durationTicks": 576,
          "midi": 64,
          "name": "E4",
          "ticks": 42624,
          "time": 33.3,
          "velocity": 0.5118110236220472
        },
        {
          "duration": 0.44999999999999574,
          "durationTicks": 576,
          "midi": 45,
          "name": "A2",
          "ticks": 43200,
          "time": 33.75,
          "velocity": 0.5118110236220472
        },
        {
          "duration": 0.44999999999999574,
          "durationTicks": 576,
          "midi": 52,
          "name": "E3",
          "ticks": 43200,
          "time": 33.75,
          "velocity": 0.5118110236220472
        },
        {
          "duration": 0.44999999999999574,
          "durationTicks": 576,
          "midi": 57,
          "name": "A3",
          "ticks": 43200,
          "time": 33.75,
          "velocity": 0.5118110236220472
        },
        {
          "duration": 0.44999999999999574,
          "durationTicks": 576,
          "midi": 60,
          "name": "C4",
          "ticks": 43200,
          "time": 33.75,
          "velocity": 0.5118110236220472
        },
        {
          "duration": 0.44999999999999574,
          "durationTicks": 576,
          "midi": 64,
          "name": "E4",
          "ticks": 43200,
          "time": 33.75,
          "velocity": 0.5118110236220472
        },
        {
          "duration": 0.45000000000000284,
          "durationTicks": 576,
          "midi": 64,
          "name": "E4",
          "ticks": 43776,
          "time": 34.199999999999996,
          "velocity": 0.5118110236220472
        },
        {
          "duration": 0.45000000000000284,
          "durationTicks": 576,
          "midi": 60,
          "name": "C4",
          "ticks": 43776,
          "time": 34.199999999999996,
          "velocity": 0.5118110236220472
        },
        {
          "duration": 0.45000000000000284,
          "durationTicks": 576,
          "midi": 57,
          "name": "A3",
          "ticks": 43776,
          "time": 34.199999999999996,
          "velocity": 0.5118110236220472
        },
        {
          "duration": 0.45000000000000284,
          "durationTicks": 576,
          "midi": 52,
          "name": "E3",
          "ticks": 43776,
          "time": 34.199999999999996,
          "velocity": 0.5118110236220472
        },
        {
          "duration": 0.45000000000000284,
          "durationTicks": 576,
          "midi": 45,
          "name": "A2",
          "ticks": 43776,
          "time": 34.199999999999996,
          "velocity": 0.5118110236220472
        },
        {
          "duration": 0.45000000000000284,
          "durationTicks": 576,
          "midi": 45,
          "name": "A2",
          "ticks": 44352,
          "time": 34.65,
          "velocity": 0.5118110236220472
        },
        {
          "duration": 0.45000000000000284,
          "durationTicks": 576,
          "midi": 52,
          "name": "E3",
          "ticks": 44352,
          "time": 34.65,
          "velocity": 0.5118110236220472
        },
        {
          "duration": 0.45000000000000284,
          "durationTicks": 576,
          "midi": 57,
          "name": "A3",
          "ticks": 44352,
          "time": 34.65,
          "velocity": 0.5118110236220472
        },
        {
          "duration": 0.45000000000000284,
          "durationTicks": 576,
          "midi": 60,
          "name": "C4",
          "ticks": 44352,
          "time": 34.65,
          "velocity": 0.5118110236220472
        },
        {
          "duration": 0.45000000000000284,
          "durationTicks": 576,
          "midi": 64,
          "name": "E4",
          "ticks": 44352,
          "time": 34.65,
          "velocity": 0.5118110236220472
        },
        {
          "duration": 0.44999999999999574,
          "durationTicks": 576,
          "midi": 45,
          "name": "A2",
          "ticks": 44928,
          "time": 35.1,
          "velocity": 0.5118110236220472
        },
        {
          "duration": 0.44999999999999574,
          "durationTicks": 576,
          "midi": 52,
          "name": "E3",
          "ticks": 44928,
          "time": 35.1,
          "velocity": 0.5118110236220472
        },
        {
          "duration": 0.44999999999999574,
          "durationTicks": 576,
          "midi": 57,
          "name": "A3",
          "ticks": 44928,
          "time": 35.1,
          "velocity": 0.5118110236220472
        },
        {
          "duration": 0.44999999999999574,
          "durationTicks": 576,
          "midi": 60,
          "name": "C4",
          "ticks": 44928,
          "time": 35.1,
          "velocity": 0.5118110236220472
        },
        {
          "duration": 0.44999999999999574,
          "durationTicks": 576,
          "midi": 64,
          "name": "E4",
          "ticks": 44928,
          "time": 35.1,
          "velocity": 0.5118110236220472
        },
        {
          "duration": 0.45000000000000284,
          "durationTicks": 576,
          "midi": 64,
          "name": "E4",
          "ticks": 45504,
          "time": 35.55,
          "velocity": 0.5118110236220472
        },
        {
          "duration": 0.45000000000000284,
          "durationTicks": 576,
          "midi": 60,
          "name": "C4",
          "ticks": 45504,
          "time": 35.55,
          "velocity": 0.5118110236220472
        },
        {
          "duration": 0.45000000000000284,
          "durationTicks": 576,
          "midi": 57,
          "name": "A3",
          "ticks": 45504,
          "time": 35.55,
          "velocity": 0.5118110236220472
        },
        {
          "duration": 0.45000000000000284,
          "durationTicks": 576,
          "midi": 52,
          "name": "E3",
          "ticks": 45504,
          "time": 35.55,
          "velocity": 0.5118110236220472
        },
        {
          "duration": 0.45000000000000284,
          "durationTicks": 576,
          "midi": 45,
          "name": "A2",
          "ticks": 45504,
          "time": 35.55,
          "velocity": 0.5118110236220472
        },
        {
          "duration": 0.44999999999999574,
          "durationTicks": 576,
          "midi": 57,
          "name": "A3",
          "ticks": 46080,
          "time": 36,
          "velocity": 0.5118110236220472
        },
        {
          "duration": 0.44999999999999574,
          "durationTicks": 576,
          "midi": 52,
          "name": "E3",
          "ticks": 46080,
          "time": 36,
          "velocity": 0.5118110236220472
        },
        {
          "duration": 0.44999999999999574,
          "durationTicks": 576,
          "midi": 45,
          "name": "A2",
          "ticks": 46080,
          "time": 36,
          "velocity": 0.5118110236220472
        },
        {
          "duration": 0.44999999999999574,
          "durationTicks": 576,
          "midi": 60,
          "name": "C4",
          "ticks": 46080,
          "time": 36,
          "velocity": 0.5118110236220472
        },
        {
          "duration": 0.44999999999999574,
          "durationTicks": 576,
          "midi": 64,
          "name": "E4",
          "ticks": 46080,
          "time": 36,
          "velocity": 0.5118110236220472
        },
        {
          "duration": 0.45000000000000284,
          "durationTicks": 576,
          "midi": 57,
          "name": "A3",
          "ticks": 46656,
          "time": 36.449999999999996,
          "velocity": 0.5118110236220472
        },
        {
          "duration": 0.45000000000000284,
          "durationTicks": 576,
          "midi": 52,
          "name": "E3",
          "ticks": 46656,
          "time": 36.449999999999996,
          "velocity": 0.5118110236220472
        },
        {
          "duration": 0.45000000000000284,
          "durationTicks": 576,
          "midi": 45,
          "name": "A2",
          "ticks": 46656,
          "time": 36.449999999999996,
          "velocity": 0.5118110236220472
        },
        {
          "duration": 0.45000000000000284,
          "durationTicks": 576,
          "midi": 60,
          "name": "C4",
          "ticks": 46656,
          "time": 36.449999999999996,
          "velocity": 0.5118110236220472
        },
        {
          "duration": 0.45000000000000284,
          "durationTicks": 576,
          "midi": 64,
          "name": "E4",
          "ticks": 46656,
          "time": 36.449999999999996,
          "velocity": 0.5118110236220472
        },
        {
          "duration": 0.45000000000000284,
          "durationTicks": 576,
          "midi": 64,
          "name": "E4",
          "ticks": 47232,
          "time": 36.9,
          "velocity": 0.5118110236220472
        },
        {
          "duration": 0.45000000000000284,
          "durationTicks": 576,
          "midi": 60,
          "name": "C4",
          "ticks": 47232,
          "time": 36.9,
          "velocity": 0.5118110236220472
        },
        {
          "duration": 0.45000000000000284,
          "durationTicks": 576,
          "midi": 45,
          "name": "A2",
          "ticks": 47232,
          "time": 36.9,
          "velocity": 0.5118110236220472
        },
        {
          "duration": 0.45000000000000284,
          "durationTicks": 576,
          "midi": 52,
          "name": "E3",
          "ticks": 47232,
          "time": 36.9,
          "velocity": 0.5118110236220472
        },
        {
          "duration": 0.45000000000000284,
          "durationTicks": 576,
          "midi": 57,
          "name": "A3",
          "ticks": 47232,
          "time": 36.9,
          "velocity": 0.5118110236220472
        },
        {
          "duration": 0.44999999999999574,
          "durationTicks": 576,
          "midi": 57,
          "name": "A3",
          "ticks": 47808,
          "time": 37.35,
          "velocity": 0.5118110236220472
        },
        {
          "duration": 0.44999999999999574,
          "durationTicks": 576,
          "midi": 52,
          "name": "E3",
          "ticks": 47808,
          "time": 37.35,
          "velocity": 0.5118110236220472
        },
        {
          "duration": 0.44999999999999574,
          "durationTicks": 576,
          "midi": 45,
          "name": "A2",
          "ticks": 47808,
          "time": 37.35,
          "velocity": 0.5118110236220472
        },
        {
          "duration": 0.44999999999999574,
          "durationTicks": 576,
          "midi": 60,
          "name": "C4",
          "ticks": 47808,
          "time": 37.35,
          "velocity": 0.5118110236220472
        },
        {
          "duration": 0.44999999999999574,
          "durationTicks": 576,
          "midi": 64,
          "name": "E4",
          "ticks": 47808,
          "time": 37.35,
          "velocity": 0.5118110236220472
        },
        {
          "duration": 0.45000000000000284,
          "durationTicks": 576,
          "midi": 64,
          "name": "E4",
          "ticks": 48384,
          "time": 37.8,
          "velocity": 0.5118110236220472
        },
        {
          "duration": 0.45000000000000284,
          "durationTicks": 576,
          "midi": 60,
          "name": "C4",
          "ticks": 48384,
          "time": 37.8,
          "velocity": 0.5118110236220472
        },
        {
          "duration": 0.45000000000000284,
          "durationTicks": 576,
          "midi": 45,
          "name": "A2",
          "ticks": 48384,
          "time": 37.8,
          "velocity": 0.5118110236220472
        },
        {
          "duration": 0.45000000000000284,
          "durationTicks": 576,
          "midi": 52,
          "name": "E3",
          "ticks": 48384,
          "time": 37.8,
          "velocity": 0.5118110236220472
        },
        {
          "duration": 0.45000000000000284,
          "durationTicks": 576,
          "midi": 57,
          "name": "A3",
          "ticks": 48384,
          "time": 37.8,
          "velocity": 0.5118110236220472
        },
        {
          "duration": 0.44999999999999574,
          "durationTicks": 576,
          "midi": 57,
          "name": "A3",
          "ticks": 48960,
          "time": 38.25,
          "velocity": 0.5118110236220472
        },
        {
          "duration": 0.44999999999999574,
          "durationTicks": 576,
          "midi": 52,
          "name": "E3",
          "ticks": 48960,
          "time": 38.25,
          "velocity": 0.5118110236220472
        },
        {
          "duration": 0.44999999999999574,
          "durationTicks": 576,
          "midi": 45,
          "name": "A2",
          "ticks": 48960,
          "time": 38.25,
          "velocity": 0.5118110236220472
        },
        {
          "duration": 0.44999999999999574,
          "durationTicks": 576,
          "midi": 60,
          "name": "C4",
          "ticks": 48960,
          "time": 38.25,
          "velocity": 0.5118110236220472
        },
        {
          "duration": 0.44999999999999574,
          "durationTicks": 576,
          "midi": 64,
          "name": "E4",
          "ticks": 48960,
          "time": 38.25,
          "velocity": 0.5118110236220472
        },
        {
          "duration": 0.45000000000000284,
          "durationTicks": 576,
          "midi": 57,
          "name": "A3",
          "ticks": 49536,
          "time": 38.699999999999996,
          "velocity": 0.5118110236220472
        },
        {
          "duration": 0.45000000000000284,
          "durationTicks": 576,
          "midi": 52,
          "name": "E3",
          "ticks": 49536,
          "time": 38.699999999999996,
          "velocity": 0.5118110236220472
        },
        {
          "duration": 0.45000000000000284,
          "durationTicks": 576,
          "midi": 45,
          "name": "A2",
          "ticks": 49536,
          "time": 38.699999999999996,
          "velocity": 0.5118110236220472
        },
        {
          "duration": 0.45000000000000284,
          "durationTicks": 576,
          "midi": 60,
          "name": "C4",
          "ticks": 49536,
          "time": 38.699999999999996,
          "velocity": 0.5118110236220472
        },
        {
          "duration": 0.45000000000000284,
          "durationTicks": 576,
          "midi": 64,
          "name": "E4",
          "ticks": 49536,
          "time": 38.699999999999996,
          "velocity": 0.5118110236220472
        },
        {
          "duration": 0.45000000000000284,
          "durationTicks": 576,
          "midi": 64,
          "name": "E4",
          "ticks": 50112,
          "time": 39.15,
          "velocity": 0.5118110236220472
        },
        {
          "duration": 0.45000000000000284,
          "durationTicks": 576,
          "midi": 60,
          "name": "C4",
          "ticks": 50112,
          "time": 39.15,
          "velocity": 0.5118110236220472
        },
        {
          "duration": 0.45000000000000284,
          "durationTicks": 576,
          "midi": 45,
          "name": "A2",
          "ticks": 50112,
          "time": 39.15,
          "velocity": 0.5118110236220472
        },
        {
          "duration": 0.45000000000000284,
          "durationTicks": 576,
          "midi": 52,
          "name": "E3",
          "ticks": 50112,
          "time": 39.15,
          "velocity": 0.5118110236220472
        },
        {
          "duration": 0.45000000000000284,
          "durationTicks": 576,
          "midi": 57,
          "name": "A3",
          "ticks": 50112,
          "time": 39.15,
          "velocity": 0.5118110236220472
        },
        {
          "duration": 0.29999999999999716,
          "durationTicks": 384,
          "midi": 43,
          "name": "G2",
          "ticks": 50688,
          "time": 39.6,
          "velocity": 0.5118110236220472
        },
        {
          "duration": 0.29999999999999716,
          "durationTicks": 384,
          "midi": 47,
          "name": "B2",
          "ticks": 50688,
          "time": 39.6,
          "velocity": 0.5118110236220472
        },
        {
          "duration": 0.29999999999999716,
          "durationTicks": 384,
          "midi": 50,
          "name": "D3",
          "ticks": 50688,
          "time": 39.6,
          "velocity": 0.5118110236220472
        },
        {
          "duration": 0.29999999999999716,
          "durationTicks": 384,
          "midi": 55,
          "name": "G3",
          "ticks": 50688,
          "time": 39.6,
          "velocity": 0.5118110236220472
        },
        {
          "duration": 0.29999999999999716,
          "durationTicks": 384,
          "midi": 59,
          "name": "B3",
          "ticks": 50688,
          "time": 39.6,
          "velocity": 0.5118110236220472
        },
        {
          "duration": 0.29999999999999716,
          "durationTicks": 384,
          "midi": 67,
          "name": "G4",
          "ticks": 50688,
          "time": 39.6,
          "velocity": 0.5118110236220472
        },
        {
          "duration": 0.29999999999999716,
          "durationTicks": 384,
          "midi": 67,
          "name": "G4",
          "ticks": 51072,
          "time": 39.9,
          "velocity": 0.5118110236220472
        },
        {
          "duration": 0.29999999999999716,
          "durationTicks": 384,
          "midi": 59,
          "name": "B3",
          "ticks": 51072,
          "time": 39.9,
          "velocity": 0.5118110236220472
        },
        {
          "duration": 0.29999999999999716,
          "durationTicks": 384,
          "midi": 55,
          "name": "G3",
          "ticks": 51072,
          "time": 39.9,
          "velocity": 0.5118110236220472
        },
        {
          "duration": 0.29999999999999716,
          "durationTicks": 384,
          "midi": 50,
          "name": "D3",
          "ticks": 51072,
          "time": 39.9,
          "velocity": 0.5118110236220472
        },
        {
          "duration": 0.29999999999999716,
          "durationTicks": 384,
          "midi": 47,
          "name": "B2",
          "ticks": 51072,
          "time": 39.9,
          "velocity": 0.5118110236220472
        },
        {
          "duration": 0.29999999999999716,
          "durationTicks": 384,
          "midi": 43,
          "name": "G2",
          "ticks": 51072,
          "time": 39.9,
          "velocity": 0.5118110236220472
        },
        {
          "duration": 0.30000000000000426,
          "durationTicks": 384,
          "midi": 67,
          "name": "G4",
          "ticks": 51456,
          "time": 40.199999999999996,
          "velocity": 0.5118110236220472
        },
        {
          "duration": 0.30000000000000426,
          "durationTicks": 384,
          "midi": 59,
          "name": "B3",
          "ticks": 51456,
          "time": 40.199999999999996,
          "velocity": 0.5118110236220472
        },
        {
          "duration": 0.30000000000000426,
          "durationTicks": 384,
          "midi": 55,
          "name": "G3",
          "ticks": 51456,
          "time": 40.199999999999996,
          "velocity": 0.5118110236220472
        },
        {
          "duration": 0.30000000000000426,
          "durationTicks": 384,
          "midi": 50,
          "name": "D3",
          "ticks": 51456,
          "time": 40.199999999999996,
          "velocity": 0.5118110236220472
        },
        {
          "duration": 0.30000000000000426,
          "durationTicks": 384,
          "midi": 47,
          "name": "B2",
          "ticks": 51456,
          "time": 40.199999999999996,
          "velocity": 0.5118110236220472
        },
        {
          "duration": 0.30000000000000426,
          "durationTicks": 384,
          "midi": 43,
          "name": "G2",
          "ticks": 51456,
          "time": 40.199999999999996,
          "velocity": 0.5118110236220472
        },
        {
          "duration": 0.29999999999999716,
          "durationTicks": 384,
          "midi": 43,
          "name": "G2",
          "ticks": 51840,
          "time": 40.5,
          "velocity": 0.5118110236220472
        },
        {
          "duration": 0.29999999999999716,
          "durationTicks": 384,
          "midi": 47,
          "name": "B2",
          "ticks": 51840,
          "time": 40.5,
          "velocity": 0.5118110236220472
        },
        {
          "duration": 0.29999999999999716,
          "durationTicks": 384,
          "midi": 50,
          "name": "D3",
          "ticks": 51840,
          "time": 40.5,
          "velocity": 0.5118110236220472
        },
        {
          "duration": 0.29999999999999716,
          "durationTicks": 384,
          "midi": 55,
          "name": "G3",
          "ticks": 51840,
          "time": 40.5,
          "velocity": 0.5118110236220472
        },
        {
          "duration": 0.29999999999999716,
          "durationTicks": 384,
          "midi": 59,
          "name": "B3",
          "ticks": 51840,
          "time": 40.5,
          "velocity": 0.5118110236220472
        },
        {
          "duration": 0.29999999999999716,
          "durationTicks": 384,
          "midi": 67,
          "name": "G4",
          "ticks": 51840,
          "time": 40.5,
          "velocity": 0.5118110236220472
        },
        {
          "duration": 0.30000000000000426,
          "durationTicks": 384,
          "midi": 67,
          "name": "G4",
          "ticks": 52224,
          "time": 40.8,
          "velocity": 0.5118110236220472
        },
        {
          "duration": 0.30000000000000426,
          "durationTicks": 384,
          "midi": 59,
          "name": "B3",
          "ticks": 52224,
          "time": 40.8,
          "velocity": 0.5118110236220472
        },
        {
          "duration": 0.30000000000000426,
          "durationTicks": 384,
          "midi": 55,
          "name": "G3",
          "ticks": 52224,
          "time": 40.8,
          "velocity": 0.5118110236220472
        },
        {
          "duration": 0.30000000000000426,
          "durationTicks": 384,
          "midi": 50,
          "name": "D3",
          "ticks": 52224,
          "time": 40.8,
          "velocity": 0.5118110236220472
        },
        {
          "duration": 0.30000000000000426,
          "durationTicks": 384,
          "midi": 47,
          "name": "B2",
          "ticks": 52224,
          "time": 40.8,
          "velocity": 0.5118110236220472
        },
        {
          "duration": 0.30000000000000426,
          "durationTicks": 384,
          "midi": 43,
          "name": "G2",
          "ticks": 52224,
          "time": 40.8,
          "velocity": 0.5118110236220472
        },
        {
          "duration": 0.29999999999999716,
          "durationTicks": 384,
          "midi": 43,
          "name": "G2",
          "ticks": 52608,
          "time": 41.1,
          "velocity": 0.5118110236220472
        },
        {
          "duration": 0.29999999999999716,
          "durationTicks": 384,
          "midi": 47,
          "name": "B2",
          "ticks": 52608,
          "time": 41.1,
          "velocity": 0.5118110236220472
        },
        {
          "duration": 0.29999999999999716,
          "durationTicks": 384,
          "midi": 50,
          "name": "D3",
          "ticks": 52608,
          "time": 41.1,
          "velocity": 0.5118110236220472
        },
        {
          "duration": 0.29999999999999716,
          "durationTicks": 384,
          "midi": 55,
          "name": "G3",
          "ticks": 52608,
          "time": 41.1,
          "velocity": 0.5118110236220472
        },
        {
          "duration": 0.29999999999999716,
          "durationTicks": 384,
          "midi": 59,
          "name": "B3",
          "ticks": 52608,
          "time": 41.1,
          "velocity": 0.5118110236220472
        },
        {
          "duration": 0.29999999999999716,
          "durationTicks": 384,
          "midi": 67,
          "name": "G4",
          "ticks": 52608,
          "time": 41.1,
          "velocity": 0.5118110236220472
        },
        {
          "duration": 0.8999999999999986,
          "durationTicks": 1152,
          "midi": 67,
          "name": "G4",
          "ticks": 52992,
          "time": 41.4,
          "velocity": 0.5118110236220472
        },
        {
          "duration": 0.8999999999999986,
          "durationTicks": 1152,
          "midi": 59,
          "name": "B3",
          "ticks": 52992,
          "time": 41.4,
          "velocity": 0.5118110236220472
        },
        {
          "duration": 0.8999999999999986,
          "durationTicks": 1152,
          "midi": 55,
          "name": "G3",
          "ticks": 52992,
          "time": 41.4,
          "velocity": 0.5118110236220472
        },
        {
          "duration": 0.8999999999999986,
          "durationTicks": 1152,
          "midi": 50,
          "name": "D3",
          "ticks": 52992,
          "time": 41.4,
          "velocity": 0.5118110236220472
        },
        {
          "duration": 0.8999999999999986,
          "durationTicks": 1152,
          "midi": 47,
          "name": "B2",
          "ticks": 52992,
          "time": 41.4,
          "velocity": 0.5118110236220472
        },
        {
          "duration": 0.8999999999999986,
          "durationTicks": 1152,
          "midi": 43,
          "name": "G2",
          "ticks": 52992,
          "time": 41.4,
          "velocity": 0.5118110236220472
        },
        {
          "duration": 0.8999999999999986,
          "durationTicks": 1152,
          "midi": 45,
          "name": "A2",
          "ticks": 54144,
          "time": 42.3,
          "velocity": 0.5118110236220472
        },
        {
          "duration": 0.8999999999999986,
          "durationTicks": 1152,
          "midi": 52,
          "name": "E3",
          "ticks": 54144,
          "time": 42.3,
          "velocity": 0.5118110236220472
        },
        {
          "duration": 0.8999999999999986,
          "durationTicks": 1152,
          "midi": 57,
          "name": "A3",
          "ticks": 54144,
          "time": 42.3,
          "velocity": 0.5118110236220472
        },
        {
          "duration": 0.8999999999999986,
          "durationTicks": 1152,
          "midi": 60,
          "name": "C4",
          "ticks": 54144,
          "time": 42.3,
          "velocity": 0.5118110236220472
        },
        {
          "duration": 0.8999999999999986,
          "durationTicks": 1152,
          "midi": 64,
          "name": "E4",
          "ticks": 54144,
          "time": 42.3,
          "velocity": 0.5118110236220472
        },
        {
          "duration": 0.45000000000000284,
          "durationTicks": 576,
          "midi": 50,
          "name": "D3",
          "ticks": 55296,
          "time": 43.199999999999996,
          "velocity": 0.5118110236220472
        },
        {
          "duration": 0.45000000000000284,
          "durationTicks": 576,
          "midi": 57,
          "name": "A3",
          "ticks": 55296,
          "time": 43.199999999999996,
          "velocity": 0.5118110236220472
        },
        {
          "duration": 0.45000000000000284,
          "durationTicks": 576,
          "midi": 62,
          "name": "D4",
          "ticks": 55296,
          "time": 43.199999999999996,
          "velocity": 0.5118110236220472
        },
        {
          "duration": 0.45000000000000284,
          "durationTicks": 576,
          "midi": 65,
          "name": "F4",
          "ticks": 55296,
          "time": 43.199999999999996,
          "velocity": 0.5118110236220472
        },
        {
          "duration": 0.45000000000000284,
          "durationTicks": 576,
          "midi": 65,
          "name": "F4",
          "ticks": 55872,
          "time": 43.65,
          "velocity": 0.5118110236220472
        },
        {
          "duration": 0.45000000000000284,
          "durationTicks": 576,
          "midi": 62,
          "name": "D4",
          "ticks": 55872,
          "time": 43.65,
          "velocity": 0.5118110236220472
        },
        {
          "duration": 0.45000000000000284,
          "durationTicks": 576,
          "midi": 57,
          "name": "A3",
          "ticks": 55872,
          "time": 43.65,
          "velocity": 0.5118110236220472
        },
        {
          "duration": 0.45000000000000284,
          "durationTicks": 576,
          "midi": 50,
          "name": "D3",
          "ticks": 55872,
          "time": 43.65,
          "velocity": 0.5118110236220472
        },
        {
          "duration": 0.44999999999999574,
          "durationTicks": 576,
          "midi": 50,
          "name": "D3",
          "ticks": 56448,
          "time": 44.1,
          "velocity": 0.5118110236220472
        },
        {
          "duration": 0.44999999999999574,
          "durationTicks": 576,
          "midi": 57,
          "name": "A3",
          "ticks": 56448,
          "time": 44.1,
          "velocity": 0.5118110236220472
        },
        {
          "duration": 0.44999999999999574,
          "durationTicks": 576,
          "midi": 62,
          "name": "D4",
          "ticks": 56448,
          "time": 44.1,
          "velocity": 0.5118110236220472
        },
        {
          "duration": 0.44999999999999574,
          "durationTicks": 576,
          "midi": 65,
          "name": "F4",
          "ticks": 56448,
          "time": 44.1,
          "velocity": 0.5118110236220472
        },
        {
          "duration": 0.45000000000000284,
          "durationTicks": 576,
          "midi": 50,
          "name": "D3",
          "ticks": 57024,
          "time": 44.55,
          "velocity": 0.5118110236220472
        },
        {
          "duration": 0.45000000000000284,
          "durationTicks": 576,
          "midi": 57,
          "name": "A3",
          "ticks": 57024,
          "time": 44.55,
          "velocity": 0.5118110236220472
        },
        {
          "duration": 0.45000000000000284,
          "durationTicks": 576,
          "midi": 62,
          "name": "D4",
          "ticks": 57024,
          "time": 44.55,
          "velocity": 0.5118110236220472
        },
        {
          "duration": 0.45000000000000284,
          "durationTicks": 576,
          "midi": 65,
          "name": "F4",
          "ticks": 57024,
          "time": 44.55,
          "velocity": 0.5118110236220472
        },
        {
          "duration": 0.8999999999999986,
          "durationTicks": 1152,
          "midi": 67,
          "name": "G4",
          "ticks": 57600,
          "time": 45,
          "velocity": 0.5118110236220472
        },
        {
          "duration": 0.8999999999999986,
          "durationTicks": 1152,
          "midi": 59,
          "name": "B3",
          "ticks": 57600,
          "time": 45,
          "velocity": 0.5118110236220472
        },
        {
          "duration": 0.8999999999999986,
          "durationTicks": 1152,
          "midi": 55,
          "name": "G3",
          "ticks": 57600,
          "time": 45,
          "velocity": 0.5118110236220472
        },
        {
          "duration": 0.8999999999999986,
          "durationTicks": 1152,
          "midi": 50,
          "name": "D3",
          "ticks": 57600,
          "time": 45,
          "velocity": 0.5118110236220472
        },
        {
          "duration": 0.8999999999999986,
          "durationTicks": 1152,
          "midi": 47,
          "name": "B2",
          "ticks": 57600,
          "time": 45,
          "velocity": 0.5118110236220472
        },
        {
          "duration": 0.8999999999999986,
          "durationTicks": 1152,
          "midi": 43,
          "name": "G2",
          "ticks": 57600,
          "time": 45,
          "velocity": 0.5118110236220472
        },
        {
          "duration": 0.8999999999999986,
          "durationTicks": 1152,
          "midi": 43,
          "name": "G2",
          "ticks": 58752,
          "time": 45.9,
          "velocity": 0.5118110236220472
        },
        {
          "duration": 0.8999999999999986,
          "durationTicks": 1152,
          "midi": 47,
          "name": "B2",
          "ticks": 58752,
          "time": 45.9,
          "velocity": 0.5118110236220472
        },
        {
          "duration": 0.8999999999999986,
          "durationTicks": 1152,
          "midi": 50,
          "name": "D3",
          "ticks": 58752,
          "time": 45.9,
          "velocity": 0.5118110236220472
        },
        {
          "duration": 0.8999999999999986,
          "durationTicks": 1152,
          "midi": 55,
          "name": "G3",
          "ticks": 58752,
          "time": 45.9,
          "velocity": 0.5118110236220472
        },
        {
          "duration": 0.8999999999999986,
          "durationTicks": 1152,
          "midi": 59,
          "name": "B3",
          "ticks": 58752,
          "time": 45.9,
          "velocity": 0.5118110236220472
        },
        {
          "duration": 0.8999999999999986,
          "durationTicks": 1152,
          "midi": 67,
          "name": "G4",
          "ticks": 58752,
          "time": 45.9,
          "velocity": 0.5118110236220472
        },
        {
          "duration": 0.45000000000000284,
          "durationTicks": 576,
          "midi": 45,
          "name": "A2",
          "ticks": 59904,
          "time": 46.8,
          "velocity": 0.5118110236220472
        },
        {
          "duration": 0.45000000000000284,
          "durationTicks": 576,
          "midi": 52,
          "name": "E3",
          "ticks": 59904,
          "time": 46.8,
          "velocity": 0.5118110236220472
        },
        {
          "duration": 0.45000000000000284,
          "durationTicks": 576,
          "midi": 57,
          "name": "A3",
          "ticks": 59904,
          "time": 46.8,
          "velocity": 0.5118110236220472
        },
        {
          "duration": 0.45000000000000284,
          "durationTicks": 576,
          "midi": 60,
          "name": "C4",
          "ticks": 59904,
          "time": 46.8,
          "velocity": 0.5118110236220472
        },
        {
          "duration": 0.45000000000000284,
          "durationTicks": 576,
          "midi": 64,
          "name": "E4",
          "ticks": 59904,
          "time": 46.8,
          "velocity": 0.5118110236220472
        },
        {
          "duration": 0.44999999999999574,
          "durationTicks": 576,
          "midi": 64,
          "name": "E4",
          "ticks": 60480,
          "time": 47.25,
          "velocity": 0.5118110236220472
        },
        {
          "duration": 0.44999999999999574,
          "durationTicks": 576,
          "midi": 60,
          "name": "C4",
          "ticks": 60480,
          "time": 47.25,
          "velocity": 0.5118110236220472
        },
        {
          "duration": 0.44999999999999574,
          "durationTicks": 576,
          "midi": 57,
          "name": "A3",
          "ticks": 60480,
          "time": 47.25,
          "velocity": 0.5118110236220472
        },
        {
          "duration": 0.44999999999999574,
          "durationTicks": 576,
          "midi": 52,
          "name": "E3",
          "ticks": 60480,
          "time": 47.25,
          "velocity": 0.5118110236220472
        },
        {
          "duration": 0.44999999999999574,
          "durationTicks": 576,
          "midi": 45,
          "name": "A2",
          "ticks": 60480,
          "time": 47.25,
          "velocity": 0.5118110236220472
        },
        {
          "duration": 0.45000000000000284,
          "durationTicks": 576,
          "midi": 45,
          "name": "A2",
          "ticks": 61056,
          "time": 47.699999999999996,
          "velocity": 0.5118110236220472
        },
        {
          "duration": 0.45000000000000284,
          "durationTicks": 576,
          "midi": 52,
          "name": "E3",
          "ticks": 61056,
          "time": 47.699999999999996,
          "velocity": 0.5118110236220472
        },
        {
          "duration": 0.45000000000000284,
          "durationTicks": 576,
          "midi": 57,
          "name": "A3",
          "ticks": 61056,
          "time": 47.699999999999996,
          "velocity": 0.5118110236220472
        },
        {
          "duration": 0.45000000000000284,
          "durationTicks": 576,
          "midi": 60,
          "name": "C4",
          "ticks": 61056,
          "time": 47.699999999999996,
          "velocity": 0.5118110236220472
        },
        {
          "duration": 0.45000000000000284,
          "durationTicks": 576,
          "midi": 64,
          "name": "E4",
          "ticks": 61056,
          "time": 47.699999999999996,
          "velocity": 0.5118110236220472
        },
        {
          "duration": 0.45000000000000284,
          "durationTicks": 576,
          "midi": 64,
          "name": "E4",
          "ticks": 61632,
          "time": 48.15,
          "velocity": 0.5118110236220472
        },
        {
          "duration": 0.45000000000000284,
          "durationTicks": 576,
          "midi": 60,
          "name": "C4",
          "ticks": 61632,
          "time": 48.15,
          "velocity": 0.5118110236220472
        },
        {
          "duration": 0.45000000000000284,
          "durationTicks": 576,
          "midi": 57,
          "name": "A3",
          "ticks": 61632,
          "time": 48.15,
          "velocity": 0.5118110236220472
        },
        {
          "duration": 0.45000000000000284,
          "durationTicks": 576,
          "midi": 52,
          "name": "E3",
          "ticks": 61632,
          "time": 48.15,
          "velocity": 0.5118110236220472
        },
        {
          "duration": 0.45000000000000284,
          "durationTicks": 576,
          "midi": 45,
          "name": "A2",
          "ticks": 61632,
          "time": 48.15,
          "velocity": 0.5118110236220472
        },
        {
          "duration": 0.44999999999999574,
          "durationTicks": 576,
          "midi": 45,
          "name": "A2",
          "ticks": 62208,
          "time": 48.6,
          "velocity": 0.5118110236220472
        },
        {
          "duration": 0.44999999999999574,
          "durationTicks": 576,
          "midi": 52,
          "name": "E3",
          "ticks": 62208,
          "time": 48.6,
          "velocity": 0.5118110236220472
        },
        {
          "duration": 0.44999999999999574,
          "durationTicks": 576,
          "midi": 57,
          "name": "A3",
          "ticks": 62208,
          "time": 48.6,
          "velocity": 0.5118110236220472
        },
        {
          "duration": 0.44999999999999574,
          "durationTicks": 576,
          "midi": 60,
          "name": "C4",
          "ticks": 62208,
          "time": 48.6,
          "velocity": 0.5118110236220472
        },
        {
          "duration": 0.44999999999999574,
          "durationTicks": 576,
          "midi": 64,
          "name": "E4",
          "ticks": 62208,
          "time": 48.6,
          "velocity": 0.5118110236220472
        },
        {
          "duration": 0.45000000000000284,
          "durationTicks": 576,
          "midi": 45,
          "name": "A2",
          "ticks": 62784,
          "time": 49.05,
          "velocity": 0.5118110236220472
        },
        {
          "duration": 0.45000000000000284,
          "durationTicks": 576,
          "midi": 52,
          "name": "E3",
          "ticks": 62784,
          "time": 49.05,
          "velocity": 0.5118110236220472
        },
        {
          "duration": 0.45000000000000284,
          "durationTicks": 576,
          "midi": 57,
          "name": "A3",
          "ticks": 62784,
          "time": 49.05,
          "velocity": 0.5118110236220472
        },
        {
          "duration": 0.45000000000000284,
          "durationTicks": 576,
          "midi": 60,
          "name": "C4",
          "ticks": 62784,
          "time": 49.05,
          "velocity": 0.5118110236220472
        },
        {
          "duration": 0.45000000000000284,
          "durationTicks": 576,
          "midi": 64,
          "name": "E4",
          "ticks": 62784,
          "time": 49.05,
          "velocity": 0.5118110236220472
        },
        {
          "duration": 0.44999999999999574,
          "durationTicks": 576,
          "midi": 64,
          "name": "E4",
          "ticks": 63360,
          "time": 49.5,
          "velocity": 0.5118110236220472
        },
        {
          "duration": 0.44999999999999574,
          "durationTicks": 576,
          "midi": 60,
          "name": "C4",
          "ticks": 63360,
          "time": 49.5,
          "velocity": 0.5118110236220472
        },
        {
          "duration": 0.44999999999999574,
          "durationTicks": 576,
          "midi": 57,
          "name": "A3",
          "ticks": 63360,
          "time": 49.5,
          "velocity": 0.5118110236220472
        },
        {
          "duration": 0.44999999999999574,
          "durationTicks": 576,
          "midi": 52,
          "name": "E3",
          "ticks": 63360,
          "time": 49.5,
          "velocity": 0.5118110236220472
        },
        {
          "duration": 0.44999999999999574,
          "durationTicks": 576,
          "midi": 45,
          "name": "A2",
          "ticks": 63360,
          "time": 49.5,
          "velocity": 0.5118110236220472
        },
        {
          "duration": 0.45000000000000284,
          "durationTicks": 576,
          "midi": 45,
          "name": "A2",
          "ticks": 63936,
          "time": 49.949999999999996,
          "velocity": 0.5118110236220472
        },
        {
          "duration": 0.45000000000000284,
          "durationTicks": 576,
          "midi": 52,
          "name": "E3",
          "ticks": 63936,
          "time": 49.949999999999996,
          "velocity": 0.5118110236220472
        },
        {
          "duration": 0.45000000000000284,
          "durationTicks": 576,
          "midi": 57,
          "name": "A3",
          "ticks": 63936,
          "time": 49.949999999999996,
          "velocity": 0.5118110236220472
        },
        {
          "duration": 0.45000000000000284,
          "durationTicks": 576,
          "midi": 60,
          "name": "C4",
          "ticks": 63936,
          "time": 49.949999999999996,
          "velocity": 0.5118110236220472
        },
        {
          "duration": 0.45000000000000284,
          "durationTicks": 576,
          "midi": 64,
          "name": "E4",
          "ticks": 63936,
          "time": 49.949999999999996,
          "velocity": 0.5118110236220472
        },
        {
          "duration": 0.45000000000000284,
          "durationTicks": 576,
          "midi": 65,
          "name": "F4",
          "ticks": 64512,
          "time": 50.4,
          "velocity": 0.5118110236220472
        },
        {
          "duration": 0.45000000000000284,
          "durationTicks": 576,
          "midi": 60,
          "name": "C4",
          "ticks": 64512,
          "time": 50.4,
          "velocity": 0.5118110236220472
        },
        {
          "duration": 0.45000000000000284,
          "durationTicks": 576,
          "midi": 57,
          "name": "A3",
          "ticks": 64512,
          "time": 50.4,
          "velocity": 0.5118110236220472
        },
        {
          "duration": 0.45000000000000284,
          "durationTicks": 576,
          "midi": 53,
          "name": "F3",
          "ticks": 64512,
          "time": 50.4,
          "velocity": 0.5118110236220472
        },
        {
          "duration": 0.45000000000000284,
          "durationTicks": 576,
          "midi": 48,
          "name": "C3",
          "ticks": 64512,
          "time": 50.4,
          "velocity": 0.5118110236220472
        },
        {
          "duration": 0.45000000000000284,
          "durationTicks": 576,
          "midi": 41,
          "name": "F2",
          "ticks": 64512,
          "time": 50.4,
          "velocity": 0.5118110236220472
        },
        {
          "duration": 0.44999999999999574,
          "durationTicks": 576,
          "midi": 65,
          "name": "F4",
          "ticks": 65088,
          "time": 50.85,
          "velocity": 0.5118110236220472
        },
        {
          "duration": 0.44999999999999574,
          "durationTicks": 576,
          "midi": 60,
          "name": "C4",
          "ticks": 65088,
          "time": 50.85,
          "velocity": 0.5118110236220472
        },
        {
          "duration": 0.44999999999999574,
          "durationTicks": 576,
          "midi": 57,
          "name": "A3",
          "ticks": 65088,
          "time": 50.85,
          "velocity": 0.5118110236220472
        },
        {
          "duration": 0.44999999999999574,
          "durationTicks": 576,
          "midi": 53,
          "name": "F3",
          "ticks": 65088,
          "time": 50.85,
          "velocity": 0.5118110236220472
        },
        {
          "duration": 0.44999999999999574,
          "durationTicks": 576,
          "midi": 48,
          "name": "C3",
          "ticks": 65088,
          "time": 50.85,
          "velocity": 0.5118110236220472
        },
        {
          "duration": 0.44999999999999574,
          "durationTicks": 576,
          "midi": 41,
          "name": "F2",
          "ticks": 65088,
          "time": 50.85,
          "velocity": 0.5118110236220472
        },
        {
          "duration": 0.45000000000000284,
          "durationTicks": 576,
          "midi": 41,
          "name": "F2",
          "ticks": 65664,
          "time": 51.3,
          "velocity": 0.5118110236220472
        },
        {
          "duration": 0.45000000000000284,
          "durationTicks": 576,
          "midi": 48,
          "name": "C3",
          "ticks": 65664,
          "time": 51.3,
          "velocity": 0.5118110236220472
        },
        {
          "duration": 0.45000000000000284,
          "durationTicks": 576,
          "midi": 53,
          "name": "F3",
          "ticks": 65664,
          "time": 51.3,
          "velocity": 0.5118110236220472
        },
        {
          "duration": 0.45000000000000284,
          "durationTicks": 576,
          "midi": 57,
          "name": "A3",
          "ticks": 65664,
          "time": 51.3,
          "velocity": 0.5118110236220472
        },
        {
          "duration": 0.45000000000000284,
          "durationTicks": 576,
          "midi": 60,
          "name": "C4",
          "ticks": 65664,
          "time": 51.3,
          "velocity": 0.5118110236220472
        },
        {
          "duration": 0.45000000000000284,
          "durationTicks": 576,
          "midi": 65,
          "name": "F4",
          "ticks": 65664,
          "time": 51.3,
          "velocity": 0.5118110236220472
        },
        {
          "duration": 0.44999999999999574,
          "durationTicks": 576,
          "midi": 65,
          "name": "F4",
          "ticks": 66240,
          "time": 51.75,
          "velocity": 0.5118110236220472
        },
        {
          "duration": 0.44999999999999574,
          "durationTicks": 576,
          "midi": 60,
          "name": "C4",
          "ticks": 66240,
          "time": 51.75,
          "velocity": 0.5118110236220472
        },
        {
          "duration": 0.44999999999999574,
          "durationTicks": 576,
          "midi": 57,
          "name": "A3",
          "ticks": 66240,
          "time": 51.75,
          "velocity": 0.5118110236220472
        },
        {
          "duration": 0.44999999999999574,
          "durationTicks": 576,
          "midi": 53,
          "name": "F3",
          "ticks": 66240,
          "time": 51.75,
          "velocity": 0.5118110236220472
        },
        {
          "duration": 0.44999999999999574,
          "durationTicks": 576,
          "midi": 48,
          "name": "C3",
          "ticks": 66240,
          "time": 51.75,
          "velocity": 0.5118110236220472
        },
        {
          "duration": 0.44999999999999574,
          "durationTicks": 576,
          "midi": 41,
          "name": "F2",
          "ticks": 66240,
          "time": 51.75,
          "velocity": 0.5118110236220472
        },
        {
          "duration": 0.45000000000000284,
          "durationTicks": 576,
          "midi": 43,
          "name": "G2",
          "ticks": 66816,
          "time": 52.199999999999996,
          "velocity": 0.5118110236220472
        },
        {
          "duration": 0.45000000000000284,
          "durationTicks": 576,
          "midi": 47,
          "name": "B2",
          "ticks": 66816,
          "time": 52.199999999999996,
          "velocity": 0.5118110236220472
        },
        {
          "duration": 0.45000000000000284,
          "durationTicks": 576,
          "midi": 50,
          "name": "D3",
          "ticks": 66816,
          "time": 52.199999999999996,
          "velocity": 0.5118110236220472
        },
        {
          "duration": 0.45000000000000284,
          "durationTicks": 576,
          "midi": 55,
          "name": "G3",
          "ticks": 66816,
          "time": 52.199999999999996,
          "velocity": 0.5118110236220472
        },
        {
          "duration": 0.45000000000000284,
          "durationTicks": 576,
          "midi": 59,
          "name": "B3",
          "ticks": 66816,
          "time": 52.199999999999996,
          "velocity": 0.5118110236220472
        },
        {
          "duration": 0.45000000000000284,
          "durationTicks": 576,
          "midi": 67,
          "name": "G4",
          "ticks": 66816,
          "time": 52.199999999999996,
          "velocity": 0.5118110236220472
        },
        {
          "duration": 0.45000000000000284,
          "durationTicks": 576,
          "midi": 67,
          "name": "G4",
          "ticks": 67392,
          "time": 52.65,
          "velocity": 0.5118110236220472
        },
        {
          "duration": 0.45000000000000284,
          "durationTicks": 576,
          "midi": 59,
          "name": "B3",
          "ticks": 67392,
          "time": 52.65,
          "velocity": 0.5118110236220472
        },
        {
          "duration": 0.45000000000000284,
          "durationTicks": 576,
          "midi": 55,
          "name": "G3",
          "ticks": 67392,
          "time": 52.65,
          "velocity": 0.5118110236220472
        },
        {
          "duration": 0.45000000000000284,
          "durationTicks": 576,
          "midi": 50,
          "name": "D3",
          "ticks": 67392,
          "time": 52.65,
          "velocity": 0.5118110236220472
        },
        {
          "duration": 0.45000000000000284,
          "durationTicks": 576,
          "midi": 47,
          "name": "B2",
          "ticks": 67392,
          "time": 52.65,
          "velocity": 0.5118110236220472
        },
        {
          "duration": 0.45000000000000284,
          "durationTicks": 576,
          "midi": 43,
          "name": "G2",
          "ticks": 67392,
          "time": 52.65,
          "velocity": 0.5118110236220472
        },
        {
          "duration": 0.44999999999999574,
          "durationTicks": 576,
          "midi": 67,
          "name": "G4",
          "ticks": 67968,
          "time": 53.1,
          "velocity": 0.5118110236220472
        },
        {
          "duration": 0.44999999999999574,
          "durationTicks": 576,
          "midi": 59,
          "name": "B3",
          "ticks": 67968,
          "time": 53.1,
          "velocity": 0.5118110236220472
        },
        {
          "duration": 0.44999999999999574,
          "durationTicks": 576,
          "midi": 55,
          "name": "G3",
          "ticks": 67968,
          "time": 53.1,
          "velocity": 0.5118110236220472
        },
        {
          "duration": 0.44999999999999574,
          "durationTicks": 576,
          "midi": 50,
          "name": "D3",
          "ticks": 67968,
          "time": 53.1,
          "velocity": 0.5118110236220472
        },
        {
          "duration": 0.44999999999999574,
          "durationTicks": 576,
          "midi": 47,
          "name": "B2",
          "ticks": 67968,
          "time": 53.1,
          "velocity": 0.5118110236220472
        },
        {
          "duration": 0.44999999999999574,
          "durationTicks": 576,
          "midi": 43,
          "name": "G2",
          "ticks": 67968,
          "time": 53.1,
          "velocity": 0.5118110236220472
        },
        {
          "duration": 0.45000000000000284,
          "durationTicks": 576,
          "midi": 43,
          "name": "G2",
          "ticks": 68544,
          "time": 53.55,
          "velocity": 0.5118110236220472
        },
        {
          "duration": 0.45000000000000284,
          "durationTicks": 576,
          "midi": 47,
          "name": "B2",
          "ticks": 68544,
          "time": 53.55,
          "velocity": 0.5118110236220472
        },
        {
          "duration": 0.45000000000000284,
          "durationTicks": 576,
          "midi": 50,
          "name": "D3",
          "ticks": 68544,
          "time": 53.55,
          "velocity": 0.5118110236220472
        },
        {
          "duration": 0.45000000000000284,
          "durationTicks": 576,
          "midi": 55,
          "name": "G3",
          "ticks": 68544,
          "time": 53.55,
          "velocity": 0.5118110236220472
        },
        {
          "duration": 0.45000000000000284,
          "durationTicks": 576,
          "midi": 59,
          "name": "B3",
          "ticks": 68544,
          "time": 53.55,
          "velocity": 0.5118110236220472
        },
        {
          "duration": 0.45000000000000284,
          "durationTicks": 576,
          "midi": 67,
          "name": "G4",
          "ticks": 68544,
          "time": 53.55,
          "velocity": 0.5118110236220472
        },
        {
          "duration": 0.44999999999999574,
          "durationTicks": 576,
          "midi": 65,
          "name": "F4",
          "ticks": 69120,
          "time": 54,
          "velocity": 0.5118110236220472
        },
        {
          "duration": 0.44999999999999574,
          "durationTicks": 576,
          "midi": 62,
          "name": "D4",
          "ticks": 69120,
          "time": 54,
          "velocity": 0.5118110236220472
        },
        {
          "duration": 0.44999999999999574,
          "durationTicks": 576,
          "midi": 57,
          "name": "A3",
          "ticks": 69120,
          "time": 54,
          "velocity": 0.5118110236220472
        },
        {
          "duration": 0.44999999999999574,
          "durationTicks": 576,
          "midi": 50,
          "name": "D3",
          "ticks": 69120,
          "time": 54,
          "velocity": 0.5118110236220472
        },
        {
          "duration": 0.45000000000000284,
          "durationTicks": 576,
          "midi": 50,
          "name": "D3",
          "ticks": 69696,
          "time": 54.449999999999996,
          "velocity": 0.5118110236220472
        },
        {
          "duration": 0.45000000000000284,
          "durationTicks": 576,
          "midi": 57,
          "name": "A3",
          "ticks": 69696,
          "time": 54.449999999999996,
          "velocity": 0.5118110236220472
        },
        {
          "duration": 0.45000000000000284,
          "durationTicks": 576,
          "midi": 62,
          "name": "D4",
          "ticks": 69696,
          "time": 54.449999999999996,
          "velocity": 0.5118110236220472
        },
        {
          "duration": 0.45000000000000284,
          "durationTicks": 576,
          "midi": 65,
          "name": "F4",
          "ticks": 69696,
          "time": 54.449999999999996,
          "velocity": 0.5118110236220472
        },
        {
          "duration": 0.45000000000000284,
          "durationTicks": 576,
          "midi": 50,
          "name": "D3",
          "ticks": 70272,
          "time": 54.9,
          "velocity": 0.5118110236220472
        },
        {
          "duration": 0.45000000000000284,
          "durationTicks": 576,
          "midi": 57,
          "name": "A3",
          "ticks": 70272,
          "time": 54.9,
          "velocity": 0.5118110236220472
        },
        {
          "duration": 0.45000000000000284,
          "durationTicks": 576,
          "midi": 62,
          "name": "D4",
          "ticks": 70272,
          "time": 54.9,
          "velocity": 0.5118110236220472
        },
        {
          "duration": 0.45000000000000284,
          "durationTicks": 576,
          "midi": 65,
          "name": "F4",
          "ticks": 70272,
          "time": 54.9,
          "velocity": 0.5118110236220472
        },
        {
          "duration": 0.44999999999999574,
          "durationTicks": 576,
          "midi": 65,
          "name": "F4",
          "ticks": 70848,
          "time": 55.35,
          "velocity": 0.5118110236220472
        },
        {
          "duration": 0.44999999999999574,
          "durationTicks": 576,
          "midi": 62,
          "name": "D4",
          "ticks": 70848,
          "time": 55.35,
          "velocity": 0.5118110236220472
        },
        {
          "duration": 0.44999999999999574,
          "durationTicks": 576,
          "midi": 57,
          "name": "A3",
          "ticks": 70848,
          "time": 55.35,
          "velocity": 0.5118110236220472
        },
        {
          "duration": 0.44999999999999574,
          "durationTicks": 576,
          "midi": 50,
          "name": "D3",
          "ticks": 70848,
          "time": 55.35,
          "velocity": 0.5118110236220472
        },
        {
          "duration": 0.45000000000000284,
          "durationTicks": 576,
          "midi": 45,
          "name": "A2",
          "ticks": 71424,
          "time": 55.8,
          "velocity": 0.5118110236220472
        },
        {
          "duration": 0.45000000000000284,
          "durationTicks": 576,
          "midi": 52,
          "name": "E3",
          "ticks": 71424,
          "time": 55.8,
          "velocity": 0.5118110236220472
        },
        {
          "duration": 0.45000000000000284,
          "durationTicks": 576,
          "midi": 57,
          "name": "A3",
          "ticks": 71424,
          "time": 55.8,
          "velocity": 0.5118110236220472
        },
        {
          "duration": 0.45000000000000284,
          "durationTicks": 576,
          "midi": 60,
          "name": "C4",
          "ticks": 71424,
          "time": 55.8,
          "velocity": 0.5118110236220472
        },
        {
          "duration": 0.45000000000000284,
          "durationTicks": 576,
          "midi": 64,
          "name": "E4",
          "ticks": 71424,
          "time": 55.8,
          "velocity": 0.5118110236220472
        },
        {
          "duration": 0.44999999999999574,
          "durationTicks": 576,
          "midi": 45,
          "name": "A2",
          "ticks": 72000,
          "time": 56.25,
          "velocity": 0.5118110236220472
        },
        {
          "duration": 0.44999999999999574,
          "durationTicks": 576,
          "midi": 52,
          "name": "E3",
          "ticks": 72000,
          "time": 56.25,
          "velocity": 0.5118110236220472
        },
        {
          "duration": 0.44999999999999574,
          "durationTicks": 576,
          "midi": 57,
          "name": "A3",
          "ticks": 72000,
          "time": 56.25,
          "velocity": 0.5118110236220472
        },
        {
          "duration": 0.44999999999999574,
          "durationTicks": 576,
          "midi": 60,
          "name": "C4",
          "ticks": 72000,
          "time": 56.25,
          "velocity": 0.5118110236220472
        },
        {
          "duration": 0.44999999999999574,
          "durationTicks": 576,
          "midi": 64,
          "name": "E4",
          "ticks": 72000,
          "time": 56.25,
          "velocity": 0.5118110236220472
        },
        {
          "duration": 0.45000000000000284,
          "durationTicks": 576,
          "midi": 64,
          "name": "E4",
          "ticks": 72576,
          "time": 56.699999999999996,
          "velocity": 0.5118110236220472
        },
        {
          "duration": 0.45000000000000284,
          "durationTicks": 576,
          "midi": 60,
          "name": "C4",
          "ticks": 72576,
          "time": 56.699999999999996,
          "velocity": 0.5118110236220472
        },
        {
          "duration": 0.45000000000000284,
          "durationTicks": 576,
          "midi": 57,
          "name": "A3",
          "ticks": 72576,
          "time": 56.699999999999996,
          "velocity": 0.5118110236220472
        },
        {
          "duration": 0.45000000000000284,
          "durationTicks": 576,
          "midi": 52,
          "name": "E3",
          "ticks": 72576,
          "time": 56.699999999999996,
          "velocity": 0.5118110236220472
        },
        {
          "duration": 0.45000000000000284,
          "durationTicks": 576,
          "midi": 45,
          "name": "A2",
          "ticks": 72576,
          "time": 56.699999999999996,
          "velocity": 0.5118110236220472
        },
        {
          "duration": 0.44999999999999574,
          "durationTicks": 576,
          "midi": 45,
          "name": "A2",
          "ticks": 73152,
          "time": 57.15,
          "velocity": 0.5118110236220472
        },
        {
          "duration": 0.44999999999999574,
          "durationTicks": 576,
          "midi": 52,
          "name": "E3",
          "ticks": 73152,
          "time": 57.15,
          "velocity": 0.5118110236220472
        },
        {
          "duration": 0.44999999999999574,
          "durationTicks": 576,
          "midi": 57,
          "name": "A3",
          "ticks": 73152,
          "time": 57.15,
          "velocity": 0.5118110236220472
        },
        {
          "duration": 0.44999999999999574,
          "durationTicks": 576,
          "midi": 60,
          "name": "C4",
          "ticks": 73152,
          "time": 57.15,
          "velocity": 0.5118110236220472
        },
        {
          "duration": 0.44999999999999574,
          "durationTicks": 576,
          "midi": 64,
          "name": "E4",
          "ticks": 73152,
          "time": 57.15,
          "velocity": 0.5118110236220472
        },
        {
          "duration": 0.45000000000000284,
          "durationTicks": 576,
          "midi": 65,
          "name": "F4",
          "ticks": 73728,
          "time": 57.599999999999994,
          "velocity": 0.5118110236220472
        },
        {
          "duration": 0.45000000000000284,
          "durationTicks": 576,
          "midi": 60,
          "name": "C4",
          "ticks": 73728,
          "time": 57.599999999999994,
          "velocity": 0.5118110236220472
        },
        {
          "duration": 0.45000000000000284,
          "durationTicks": 576,
          "midi": 57,
          "name": "A3",
          "ticks": 73728,
          "time": 57.599999999999994,
          "velocity": 0.5118110236220472
        },
        {
          "duration": 0.45000000000000284,
          "durationTicks": 576,
          "midi": 53,
          "name": "F3",
          "ticks": 73728,
          "time": 57.599999999999994,
          "velocity": 0.5118110236220472
        },
        {
          "duration": 0.45000000000000284,
          "durationTicks": 576,
          "midi": 48,
          "name": "C3",
          "ticks": 73728,
          "time": 57.599999999999994,
          "velocity": 0.5118110236220472
        },
        {
          "duration": 0.45000000000000284,
          "durationTicks": 576,
          "midi": 41,
          "name": "F2",
          "ticks": 73728,
          "time": 57.599999999999994,
          "velocity": 0.5118110236220472
        },
        {
          "duration": 0.45000000000000284,
          "durationTicks": 576,
          "midi": 65,
          "name": "F4",
          "ticks": 74304,
          "time": 58.05,
          "velocity": 0.5118110236220472
        },
        {
          "duration": 0.45000000000000284,
          "durationTicks": 576,
          "midi": 60,
          "name": "C4",
          "ticks": 74304,
          "time": 58.05,
          "velocity": 0.5118110236220472
        },
        {
          "duration": 0.45000000000000284,
          "durationTicks": 576,
          "midi": 57,
          "name": "A3",
          "ticks": 74304,
          "time": 58.05,
          "velocity": 0.5118110236220472
        },
        {
          "duration": 0.45000000000000284,
          "durationTicks": 576,
          "midi": 53,
          "name": "F3",
          "ticks": 74304,
          "time": 58.05,
          "velocity": 0.5118110236220472
        },
        {
          "duration": 0.45000000000000284,
          "durationTicks": 576,
          "midi": 48,
          "name": "C3",
          "ticks": 74304,
          "time": 58.05,
          "velocity": 0.5118110236220472
        },
        {
          "duration": 0.45000000000000284,
          "durationTicks": 576,
          "midi": 41,
          "name": "F2",
          "ticks": 74304,
          "time": 58.05,
          "velocity": 0.5118110236220472
        },
        {
          "duration": 0.44999999999999574,
          "durationTicks": 576,
          "midi": 41,
          "name": "F2",
          "ticks": 74880,
          "time": 58.5,
          "velocity": 0.5118110236220472
        },
        {
          "duration": 0.44999999999999574,
          "durationTicks": 576,
          "midi": 48,
          "name": "C3",
          "ticks": 74880,
          "time": 58.5,
          "velocity": 0.5118110236220472
        },
        {
          "duration": 0.44999999999999574,
          "durationTicks": 576,
          "midi": 53,
          "name": "F3",
          "ticks": 74880,
          "time": 58.5,
          "velocity": 0.5118110236220472
        },
        {
          "duration": 0.44999999999999574,
          "durationTicks": 576,
          "midi": 57,
          "name": "A3",
          "ticks": 74880,
          "time": 58.5,
          "velocity": 0.5118110236220472
        },
        {
          "duration": 0.44999999999999574,
          "durationTicks": 576,
          "midi": 60,
          "name": "C4",
          "ticks": 74880,
          "time": 58.5,
          "velocity": 0.5118110236220472
        },
        {
          "duration": 0.44999999999999574,
          "durationTicks": 576,
          "midi": 65,
          "name": "F4",
          "ticks": 74880,
          "time": 58.5,
          "velocity": 0.5118110236220472
        },
        {
          "duration": 0.45000000000000284,
          "durationTicks": 576,
          "midi": 65,
          "name": "F4",
          "ticks": 75456,
          "time": 58.949999999999996,
          "velocity": 0.5118110236220472
        },
        {
          "duration": 0.45000000000000284,
          "durationTicks": 576,
          "midi": 60,
          "name": "C4",
          "ticks": 75456,
          "time": 58.949999999999996,
          "velocity": 0.5118110236220472
        },
        {
          "duration": 0.45000000000000284,
          "durationTicks": 576,
          "midi": 57,
          "name": "A3",
          "ticks": 75456,
          "time": 58.949999999999996,
          "velocity": 0.5118110236220472
        },
        {
          "duration": 0.45000000000000284,
          "durationTicks": 576,
          "midi": 53,
          "name": "F3",
          "ticks": 75456,
          "time": 58.949999999999996,
          "velocity": 0.5118110236220472
        },
        {
          "duration": 0.45000000000000284,
          "durationTicks": 576,
          "midi": 48,
          "name": "C3",
          "ticks": 75456,
          "time": 58.949999999999996,
          "velocity": 0.5118110236220472
        },
        {
          "duration": 0.45000000000000284,
          "durationTicks": 576,
          "midi": 41,
          "name": "F2",
          "ticks": 75456,
          "time": 58.949999999999996,
          "velocity": 0.5118110236220472
        },
        {
          "duration": 0.44999999999999574,
          "durationTicks": 576,
          "midi": 50,
          "name": "D3",
          "ticks": 76032,
          "time": 59.4,
          "velocity": 0.5118110236220472
        },
        {
          "duration": 0.44999999999999574,
          "durationTicks": 576,
          "midi": 57,
          "name": "A3",
          "ticks": 76032,
          "time": 59.4,
          "velocity": 0.5118110236220472
        },
        {
          "duration": 0.44999999999999574,
          "durationTicks": 576,
          "midi": 62,
          "name": "D4",
          "ticks": 76032,
          "time": 59.4,
          "velocity": 0.5118110236220472
        },
        {
          "duration": 0.44999999999999574,
          "durationTicks": 576,
          "midi": 65,
          "name": "F4",
          "ticks": 76032,
          "time": 59.4,
          "velocity": 0.5118110236220472
        },
        {
          "duration": 0.45000000000000284,
          "durationTicks": 576,
          "midi": 50,
          "name": "D3",
          "ticks": 76608,
          "time": 59.849999999999994,
          "velocity": 0.5118110236220472
        },
        {
          "duration": 0.45000000000000284,
          "durationTicks": 576,
          "midi": 57,
          "name": "A3",
          "ticks": 76608,
          "time": 59.849999999999994,
          "velocity": 0.5118110236220472
        },
        {
          "duration": 0.45000000000000284,
          "durationTicks": 576,
          "midi": 62,
          "name": "D4",
          "ticks": 76608,
          "time": 59.849999999999994,
          "velocity": 0.5118110236220472
        },
        {
          "duration": 0.45000000000000284,
          "durationTicks": 576,
          "midi": 65,
          "name": "F4",
          "ticks": 76608,
          "time": 59.849999999999994,
          "velocity": 0.5118110236220472
        },
        {
          "duration": 0.45000000000000284,
          "durationTicks": 576,
          "midi": 52,
          "name": "E3",
          "ticks": 77184,
          "time": 60.3,
          "velocity": 0.5118110236220472
        },
        {
          "duration": 0.45000000000000284,
          "durationTicks": 576,
          "midi": 59,
          "name": "B3",
          "ticks": 77184,
          "time": 60.3,
          "velocity": 0.5118110236220472
        },
        {
          "duration": 0.45000000000000284,
          "durationTicks": 576,
          "midi": 56,
          "name": "G#3",
          "ticks": 77184,
          "time": 60.3,
          "velocity": 0.5118110236220472
        },
        {
          "duration": 0.45000000000000284,
          "durationTicks": 576,
          "midi": 64,
          "name": "E4",
          "ticks": 77184,
          "time": 60.3,
          "velocity": 0.5118110236220472
        },
        {
          "duration": 0.45000000000000284,
          "durationTicks": 576,
          "midi": 47,
          "name": "B2",
          "ticks": 77184,
          "time": 60.3,
          "velocity": 0.5118110236220472
        },
        {
          "duration": 0.45000000000000284,
          "durationTicks": 576,
          "midi": 40,
          "name": "E2",
          "ticks": 77184,
          "time": 60.3,
          "velocity": 0.5118110236220472
        },
        {
          "duration": 0.44999999999999574,
          "durationTicks": 576,
          "midi": 40,
          "name": "E2",
          "ticks": 77760,
          "time": 60.75,
          "velocity": 0.5118110236220472
        },
        {
          "duration": 0.44999999999999574,
          "durationTicks": 576,
          "midi": 47,
          "name": "B2",
          "ticks": 77760,
          "time": 60.75,
          "velocity": 0.5118110236220472
        },
        {
          "duration": 0.44999999999999574,
          "durationTicks": 576,
          "midi": 64,
          "name": "E4",
          "ticks": 77760,
          "time": 60.75,
          "velocity": 0.5118110236220472
        },
        {
          "duration": 0.44999999999999574,
          "durationTicks": 576,
          "midi": 56,
          "name": "G#3",
          "ticks": 77760,
          "time": 60.75,
          "velocity": 0.5118110236220472
        },
        {
          "duration": 0.44999999999999574,
          "durationTicks": 576,
          "midi": 59,
          "name": "B3",
          "ticks": 77760,
          "time": 60.75,
          "velocity": 0.5118110236220472
        },
        {
          "duration": 0.44999999999999574,
          "durationTicks": 576,
          "midi": 52,
          "name": "E3",
          "ticks": 77760,
          "time": 60.75,
          "velocity": 0.5118110236220472
        },
        {
          "duration": 0.45000000000000284,
          "durationTicks": 576,
          "midi": 45,
          "name": "A2",
          "ticks": 78336,
          "time": 61.199999999999996,
          "velocity": 0.5118110236220472
        },
        {
          "duration": 0.45000000000000284,
          "durationTicks": 576,
          "midi": 52,
          "name": "E3",
          "ticks": 78336,
          "time": 61.199999999999996,
          "velocity": 0.5118110236220472
        },
        {
          "duration": 0.45000000000000284,
          "durationTicks": 576,
          "midi": 57,
          "name": "A3",
          "ticks": 78336,
          "time": 61.199999999999996,
          "velocity": 0.5118110236220472
        },
        {
          "duration": 0.45000000000000284,
          "durationTicks": 576,
          "midi": 60,
          "name": "C4",
          "ticks": 78336,
          "time": 61.199999999999996,
          "velocity": 0.5118110236220472
        },
        {
          "duration": 0.45000000000000284,
          "durationTicks": 576,
          "midi": 64,
          "name": "E4",
          "ticks": 78336,
          "time": 61.199999999999996,
          "velocity": 0.5118110236220472
        },
        {
          "duration": 0.44999999999999574,
          "durationTicks": 576,
          "midi": 64,
          "name": "E4",
          "ticks": 78912,
          "time": 61.65,
          "velocity": 0.5118110236220472
        },
        {
          "duration": 0.44999999999999574,
          "durationTicks": 576,
          "midi": 60,
          "name": "C4",
          "ticks": 78912,
          "time": 61.65,
          "velocity": 0.5118110236220472
        },
        {
          "duration": 0.44999999999999574,
          "durationTicks": 576,
          "midi": 57,
          "name": "A3",
          "ticks": 78912,
          "time": 61.65,
          "velocity": 0.5118110236220472
        },
        {
          "duration": 0.44999999999999574,
          "durationTicks": 576,
          "midi": 52,
          "name": "E3",
          "ticks": 78912,
          "time": 61.65,
          "velocity": 0.5118110236220472
        },
        {
          "duration": 0.44999999999999574,
          "durationTicks": 576,
          "midi": 45,
          "name": "A2",
          "ticks": 78912,
          "time": 61.65,
          "velocity": 0.5118110236220472
        },
        {
          "duration": 0.45000000000000284,
          "durationTicks": 576,
          "midi": 45,
          "name": "A2",
          "ticks": 79488,
          "time": 62.099999999999994,
          "velocity": 0.5118110236220472
        },
        {
          "duration": 0.45000000000000284,
          "durationTicks": 576,
          "midi": 52,
          "name": "E3",
          "ticks": 79488,
          "time": 62.099999999999994,
          "velocity": 0.5118110236220472
        },
        {
          "duration": 0.45000000000000284,
          "durationTicks": 576,
          "midi": 57,
          "name": "A3",
          "ticks": 79488,
          "time": 62.099999999999994,
          "velocity": 0.5118110236220472
        },
        {
          "duration": 0.45000000000000284,
          "durationTicks": 576,
          "midi": 60,
          "name": "C4",
          "ticks": 79488,
          "time": 62.099999999999994,
          "velocity": 0.5118110236220472
        },
        {
          "duration": 0.45000000000000284,
          "durationTicks": 576,
          "midi": 64,
          "name": "E4",
          "ticks": 79488,
          "time": 62.099999999999994,
          "velocity": 0.5118110236220472
        },
        {
          "duration": 0.45000000000000284,
          "durationTicks": 576,
          "midi": 64,
          "name": "E4",
          "ticks": 80064,
          "time": 62.55,
          "velocity": 0.5118110236220472
        },
        {
          "duration": 0.45000000000000284,
          "durationTicks": 576,
          "midi": 60,
          "name": "C4",
          "ticks": 80064,
          "time": 62.55,
          "velocity": 0.5118110236220472
        },
        {
          "duration": 0.45000000000000284,
          "durationTicks": 576,
          "midi": 57,
          "name": "A3",
          "ticks": 80064,
          "time": 62.55,
          "velocity": 0.5118110236220472
        },
        {
          "duration": 0.45000000000000284,
          "durationTicks": 576,
          "midi": 52,
          "name": "E3",
          "ticks": 80064,
          "time": 62.55,
          "velocity": 0.5118110236220472
        },
        {
          "duration": 0.45000000000000284,
          "durationTicks": 576,
          "midi": 45,
          "name": "A2",
          "ticks": 80064,
          "time": 62.55,
          "velocity": 0.5118110236220472
        },
        {
          "duration": 0.44999999999999574,
          "durationTicks": 576,
          "midi": 45,
          "name": "A2",
          "ticks": 80640,
          "time": 63,
          "velocity": 0.5118110236220472
        },
        {
          "duration": 0.44999999999999574,
          "durationTicks": 576,
          "midi": 52,
          "name": "E3",
          "ticks": 80640,
          "time": 63,
          "velocity": 0.5118110236220472
        },
        {
          "duration": 0.44999999999999574,
          "durationTicks": 576,
          "midi": 57,
          "name": "A3",
          "ticks": 80640,
          "time": 63,
          "velocity": 0.5118110236220472
        },
        {
          "duration": 0.44999999999999574,
          "durationTicks": 576,
          "midi": 60,
          "name": "C4",
          "ticks": 80640,
          "time": 63,
          "velocity": 0.5118110236220472
        },
        {
          "duration": 0.44999999999999574,
          "durationTicks": 576,
          "midi": 64,
          "name": "E4",
          "ticks": 80640,
          "time": 63,
          "velocity": 0.5118110236220472
        },
        {
          "duration": 0.45000000000000284,
          "durationTicks": 576,
          "midi": 45,
          "name": "A2",
          "ticks": 81216,
          "time": 63.449999999999996,
          "velocity": 0.5118110236220472
        },
        {
          "duration": 0.45000000000000284,
          "durationTicks": 576,
          "midi": 52,
          "name": "E3",
          "ticks": 81216,
          "time": 63.449999999999996,
          "velocity": 0.5118110236220472
        },
        {
          "duration": 0.45000000000000284,
          "durationTicks": 576,
          "midi": 57,
          "name": "A3",
          "ticks": 81216,
          "time": 63.449999999999996,
          "velocity": 0.5118110236220472
        },
        {
          "duration": 0.45000000000000284,
          "durationTicks": 576,
          "midi": 60,
          "name": "C4",
          "ticks": 81216,
          "time": 63.449999999999996,
          "velocity": 0.5118110236220472
        },
        {
          "duration": 0.45000000000000284,
          "durationTicks": 576,
          "midi": 64,
          "name": "E4",
          "ticks": 81216,
          "time": 63.449999999999996,
          "velocity": 0.5118110236220472
        },
        {
          "duration": 0.44999999999999574,
          "durationTicks": 576,
          "midi": 64,
          "name": "E4",
          "ticks": 81792,
          "time": 63.9,
          "velocity": 0.5118110236220472
        },
        {
          "duration": 0.44999999999999574,
          "durationTicks": 576,
          "midi": 60,
          "name": "C4",
          "ticks": 81792,
          "time": 63.9,
          "velocity": 0.5118110236220472
        },
        {
          "duration": 0.44999999999999574,
          "durationTicks": 576,
          "midi": 57,
          "name": "A3",
          "ticks": 81792,
          "time": 63.9,
          "velocity": 0.5118110236220472
        },
        {
          "duration": 0.44999999999999574,
          "durationTicks": 576,
          "midi": 52,
          "name": "E3",
          "ticks": 81792,
          "time": 63.9,
          "velocity": 0.5118110236220472
        },
        {
          "duration": 0.44999999999999574,
          "durationTicks": 576,
          "midi": 45,
          "name": "A2",
          "ticks": 81792,
          "time": 63.9,
          "velocity": 0.5118110236220472
        },
        {
          "duration": 0.45000000000000284,
          "durationTicks": 576,
          "midi": 45,
          "name": "A2",
          "ticks": 82368,
          "time": 64.35,
          "velocity": 0.5118110236220472
        },
        {
          "duration": 0.45000000000000284,
          "durationTicks": 576,
          "midi": 52,
          "name": "E3",
          "ticks": 82368,
          "time": 64.35,
          "velocity": 0.5118110236220472
        },
        {
          "duration": 0.45000000000000284,
          "durationTicks": 576,
          "midi": 57,
          "name": "A3",
          "ticks": 82368,
          "time": 64.35,
          "velocity": 0.5118110236220472
        },
        {
          "duration": 0.45000000000000284,
          "durationTicks": 576,
          "midi": 60,
          "name": "C4",
          "ticks": 82368,
          "time": 64.35,
          "velocity": 0.5118110236220472
        },
        {
          "duration": 0.45000000000000284,
          "durationTicks": 576,
          "midi": 64,
          "name": "E4",
          "ticks": 82368,
          "time": 64.35,
          "velocity": 0.5118110236220472
        },
        {
          "duration": 0.45000000000000284,
          "durationTicks": 576,
          "midi": 65,
          "name": "F4",
          "ticks": 82944,
          "time": 64.8,
          "velocity": 0.5118110236220472
        },
        {
          "duration": 0.45000000000000284,
          "durationTicks": 576,
          "midi": 60,
          "name": "C4",
          "ticks": 82944,
          "time": 64.8,
          "velocity": 0.5118110236220472
        },
        {
          "duration": 0.45000000000000284,
          "durationTicks": 576,
          "midi": 57,
          "name": "A3",
          "ticks": 82944,
          "time": 64.8,
          "velocity": 0.5118110236220472
        },
        {
          "duration": 0.45000000000000284,
          "durationTicks": 576,
          "midi": 53,
          "name": "F3",
          "ticks": 82944,
          "time": 64.8,
          "velocity": 0.5118110236220472
        },
        {
          "duration": 0.45000000000000284,
          "durationTicks": 576,
          "midi": 48,
          "name": "C3",
          "ticks": 82944,
          "time": 64.8,
          "velocity": 0.5118110236220472
        },
        {
          "duration": 0.45000000000000284,
          "durationTicks": 576,
          "midi": 41,
          "name": "F2",
          "ticks": 82944,
          "time": 64.8,
          "velocity": 0.5118110236220472
        },
        {
          "duration": 0.45000000000000284,
          "durationTicks": 576,
          "midi": 65,
          "name": "F4",
          "ticks": 83520,
          "time": 65.25,
          "velocity": 0.5118110236220472
        },
        {
          "duration": 0.45000000000000284,
          "durationTicks": 576,
          "midi": 60,
          "name": "C4",
          "ticks": 83520,
          "time": 65.25,
          "velocity": 0.5118110236220472
        },
        {
          "duration": 0.45000000000000284,
          "durationTicks": 576,
          "midi": 57,
          "name": "A3",
          "ticks": 83520,
          "time": 65.25,
          "velocity": 0.5118110236220472
        },
        {
          "duration": 0.45000000000000284,
          "durationTicks": 576,
          "midi": 53,
          "name": "F3",
          "ticks": 83520,
          "time": 65.25,
          "velocity": 0.5118110236220472
        },
        {
          "duration": 0.45000000000000284,
          "durationTicks": 576,
          "midi": 48,
          "name": "C3",
          "ticks": 83520,
          "time": 65.25,
          "velocity": 0.5118110236220472
        },
        {
          "duration": 0.45000000000000284,
          "durationTicks": 576,
          "midi": 41,
          "name": "F2",
          "ticks": 83520,
          "time": 65.25,
          "velocity": 0.5118110236220472
        },
        {
          "duration": 0.44999999999998863,
          "durationTicks": 576,
          "midi": 41,
          "name": "F2",
          "ticks": 84096,
          "time": 65.7,
          "velocity": 0.5118110236220472
        },
        {
          "duration": 0.44999999999998863,
          "durationTicks": 576,
          "midi": 48,
          "name": "C3",
          "ticks": 84096,
          "time": 65.7,
          "velocity": 0.5118110236220472
        },
        {
          "duration": 0.44999999999998863,
          "durationTicks": 576,
          "midi": 53,
          "name": "F3",
          "ticks": 84096,
          "time": 65.7,
          "velocity": 0.5118110236220472
        },
        {
          "duration": 0.44999999999998863,
          "durationTicks": 576,
          "midi": 57,
          "name": "A3",
          "ticks": 84096,
          "time": 65.7,
          "velocity": 0.5118110236220472
        },
        {
          "duration": 0.44999999999998863,
          "durationTicks": 576,
          "midi": 60,
          "name": "C4",
          "ticks": 84096,
          "time": 65.7,
          "velocity": 0.5118110236220472
        },
        {
          "duration": 0.44999999999998863,
          "durationTicks": 576,
          "midi": 65,
          "name": "F4",
          "ticks": 84096,
          "time": 65.7,
          "velocity": 0.5118110236220472
        },
        {
          "duration": 0.45000000000000284,
          "durationTicks": 576,
          "midi": 65,
          "name": "F4",
          "ticks": 84672,
          "time": 66.14999999999999,
          "velocity": 0.5118110236220472
        },
        {
          "duration": 0.45000000000000284,
          "durationTicks": 576,
          "midi": 60,
          "name": "C4",
          "ticks": 84672,
          "time": 66.14999999999999,
          "velocity": 0.5118110236220472
        },
        {
          "duration": 0.45000000000000284,
          "durationTicks": 576,
          "midi": 57,
          "name": "A3",
          "ticks": 84672,
          "time": 66.14999999999999,
          "velocity": 0.5118110236220472
        },
        {
          "duration": 0.45000000000000284,
          "durationTicks": 576,
          "midi": 53,
          "name": "F3",
          "ticks": 84672,
          "time": 66.14999999999999,
          "velocity": 0.5118110236220472
        },
        {
          "duration": 0.45000000000000284,
          "durationTicks": 576,
          "midi": 48,
          "name": "C3",
          "ticks": 84672,
          "time": 66.14999999999999,
          "velocity": 0.5118110236220472
        },
        {
          "duration": 0.45000000000000284,
          "durationTicks": 576,
          "midi": 41,
          "name": "F2",
          "ticks": 84672,
          "time": 66.14999999999999,
          "velocity": 0.5118110236220472
        },
        {
          "duration": 0.45000000000000284,
          "durationTicks": 576,
          "midi": 48,
          "name": "C3",
          "ticks": 85248,
          "time": 66.6,
          "velocity": 0.5118110236220472
        },
        {
          "duration": 0.45000000000000284,
          "durationTicks": 576,
          "midi": 52,
          "name": "E3",
          "ticks": 85248,
          "time": 66.6,
          "velocity": 0.5118110236220472
        },
        {
          "duration": 0.45000000000000284,
          "durationTicks": 576,
          "midi": 55,
          "name": "G3",
          "ticks": 85248,
          "time": 66.6,
          "velocity": 0.5118110236220472
        },
        {
          "duration": 0.45000000000000284,
          "durationTicks": 576,
          "midi": 60,
          "name": "C4",
          "ticks": 85248,
          "time": 66.6,
          "velocity": 0.5118110236220472
        },
        {
          "duration": 0.45000000000000284,
          "durationTicks": 576,
          "midi": 64,
          "name": "E4",
          "ticks": 85248,
          "time": 66.6,
          "velocity": 0.5118110236220472
        },
        {
          "duration": 0.45000000000000284,
          "durationTicks": 576,
          "midi": 48,
          "name": "C3",
          "ticks": 85824,
          "time": 67.05,
          "velocity": 0.5118110236220472
        },
        {
          "duration": 0.45000000000000284,
          "durationTicks": 576,
          "midi": 52,
          "name": "E3",
          "ticks": 85824,
          "time": 67.05,
          "velocity": 0.5118110236220472
        },
        {
          "duration": 0.45000000000000284,
          "durationTicks": 576,
          "midi": 55,
          "name": "G3",
          "ticks": 85824,
          "time": 67.05,
          "velocity": 0.5118110236220472
        },
        {
          "duration": 0.45000000000000284,
          "durationTicks": 576,
          "midi": 60,
          "name": "C4",
          "ticks": 85824,
          "time": 67.05,
          "velocity": 0.5118110236220472
        },
        {
          "duration": 0.45000000000000284,
          "durationTicks": 576,
          "midi": 64,
          "name": "E4",
          "ticks": 85824,
          "time": 67.05,
          "velocity": 0.5118110236220472
        },
        {
          "duration": 0.45000000000000284,
          "durationTicks": 576,
          "midi": 64,
          "name": "E4",
          "ticks": 86400,
          "time": 67.5,
          "velocity": 0.5118110236220472
        },
        {
          "duration": 0.45000000000000284,
          "durationTicks": 576,
          "midi": 60,
          "name": "C4",
          "ticks": 86400,
          "time": 67.5,
          "velocity": 0.5118110236220472
        },
        {
          "duration": 0.45000000000000284,
          "durationTicks": 576,
          "midi": 55,
          "name": "G3",
          "ticks": 86400,
          "time": 67.5,
          "velocity": 0.5118110236220472
        },
        {
          "duration": 0.45000000000000284,
          "durationTicks": 576,
          "midi": 52,
          "name": "E3",
          "ticks": 86400,
          "time": 67.5,
          "velocity": 0.5118110236220472
        },
        {
          "duration": 0.45000000000000284,
          "durationTicks": 576,
          "midi": 48,
          "name": "C3",
          "ticks": 86400,
          "time": 67.5,
          "velocity": 0.5118110236220472
        },
        {
          "duration": 0.44999999999998863,
          "durationTicks": 576,
          "midi": 48,
          "name": "C3",
          "ticks": 86976,
          "time": 67.95,
          "velocity": 0.5118110236220472
        },
        {
          "duration": 0.44999999999998863,
          "durationTicks": 576,
          "midi": 52,
          "name": "E3",
          "ticks": 86976,
          "time": 67.95,
          "velocity": 0.5118110236220472
        },
        {
          "duration": 0.44999999999998863,
          "durationTicks": 576,
          "midi": 55,
          "name": "G3",
          "ticks": 86976,
          "time": 67.95,
          "velocity": 0.5118110236220472
        },
        {
          "duration": 0.44999999999998863,
          "durationTicks": 576,
          "midi": 60,
          "name": "C4",
          "ticks": 86976,
          "time": 67.95,
          "velocity": 0.5118110236220472
        },
        {
          "duration": 0.44999999999998863,
          "durationTicks": 576,
          "midi": 64,
          "name": "E4",
          "ticks": 86976,
          "time": 67.95,
          "velocity": 0.5118110236220472
        },
        {
          "duration": 0.45000000000000284,
          "durationTicks": 576,
          "midi": 50,
          "name": "D3",
          "ticks": 87552,
          "time": 68.39999999999999,
          "velocity": 0.5118110236220472
        },
        {
          "duration": 0.45000000000000284,
          "durationTicks": 576,
          "midi": 57,
          "name": "A3",
          "ticks": 87552,
          "time": 68.39999999999999,
          "velocity": 0.5118110236220472
        },
        {
          "duration": 0.45000000000000284,
          "durationTicks": 576,
          "midi": 62,
          "name": "D4",
          "ticks": 87552,
          "time": 68.39999999999999,
          "velocity": 0.5118110236220472
        },
        {
          "duration": 0.45000000000000284,
          "durationTicks": 576,
          "midi": 65,
          "name": "F4",
          "ticks": 87552,
          "time": 68.39999999999999,
          "velocity": 0.5118110236220472
        },
        {
          "duration": 0.45000000000000284,
          "durationTicks": 576,
          "midi": 65,
          "name": "F4",
          "ticks": 88128,
          "time": 68.85,
          "velocity": 0.5118110236220472
        },
        {
          "duration": 0.45000000000000284,
          "durationTicks": 576,
          "midi": 62,
          "name": "D4",
          "ticks": 88128,
          "time": 68.85,
          "velocity": 0.5118110236220472
        },
        {
          "duration": 0.45000000000000284,
          "durationTicks": 576,
          "midi": 57,
          "name": "A3",
          "ticks": 88128,
          "time": 68.85,
          "velocity": 0.5118110236220472
        },
        {
          "duration": 0.45000000000000284,
          "durationTicks": 576,
          "midi": 50,
          "name": "D3",
          "ticks": 88128,
          "time": 68.85,
          "velocity": 0.5118110236220472
        },
        {
          "duration": 0.45000000000000284,
          "durationTicks": 576,
          "midi": 50,
          "name": "D3",
          "ticks": 88704,
          "time": 69.3,
          "velocity": 0.5118110236220472
        },
        {
          "duration": 0.45000000000000284,
          "durationTicks": 576,
          "midi": 57,
          "name": "A3",
          "ticks": 88704,
          "time": 69.3,
          "velocity": 0.5118110236220472
        },
        {
          "duration": 0.45000000000000284,
          "durationTicks": 576,
          "midi": 62,
          "name": "D4",
          "ticks": 88704,
          "time": 69.3,
          "velocity": 0.5118110236220472
        },
        {
          "duration": 0.45000000000000284,
          "durationTicks": 576,
          "midi": 65,
          "name": "F4",
          "ticks": 88704,
          "time": 69.3,
          "velocity": 0.5118110236220472
        },
        {
          "duration": 0.45000000000000284,
          "durationTicks": 576,
          "midi": 50,
          "name": "D3",
          "ticks": 89280,
          "time": 69.75,
          "velocity": 0.5118110236220472
        },
        {
          "duration": 0.45000000000000284,
          "durationTicks": 576,
          "midi": 57,
          "name": "A3",
          "ticks": 89280,
          "time": 69.75,
          "velocity": 0.5118110236220472
        },
        {
          "duration": 0.45000000000000284,
          "durationTicks": 576,
          "midi": 62,
          "name": "D4",
          "ticks": 89280,
          "time": 69.75,
          "velocity": 0.5118110236220472
        },
        {
          "duration": 0.45000000000000284,
          "durationTicks": 576,
          "midi": 65,
          "name": "F4",
          "ticks": 89280,
          "time": 69.75,
          "velocity": 0.5118110236220472
        },
        {
          "duration": 0.44999999999998863,
          "durationTicks": 576,
          "midi": 64,
          "name": "E4",
          "ticks": 89856,
          "time": 70.2,
          "velocity": 0.5118110236220472
        },
        {
          "duration": 0.44999999999998863,
          "durationTicks": 576,
          "midi": 60,
          "name": "C4",
          "ticks": 89856,
          "time": 70.2,
          "velocity": 0.5118110236220472
        },
        {
          "duration": 0.44999999999998863,
          "durationTicks": 576,
          "midi": 57,
          "name": "A3",
          "ticks": 89856,
          "time": 70.2,
          "velocity": 0.5118110236220472
        },
        {
          "duration": 0.44999999999998863,
          "durationTicks": 576,
          "midi": 52,
          "name": "E3",
          "ticks": 89856,
          "time": 70.2,
          "velocity": 0.5118110236220472
        },
        {
          "duration": 0.44999999999998863,
          "durationTicks": 576,
          "midi": 45,
          "name": "A2",
          "ticks": 89856,
          "time": 70.2,
          "velocity": 0.5118110236220472
        },
        {
          "duration": 0.45000000000000284,
          "durationTicks": 576,
          "midi": 45,
          "name": "A2",
          "ticks": 90432,
          "time": 70.64999999999999,
          "velocity": 0.5118110236220472
        },
        {
          "duration": 0.45000000000000284,
          "durationTicks": 576,
          "midi": 52,
          "name": "E3",
          "ticks": 90432,
          "time": 70.64999999999999,
          "velocity": 0.5118110236220472
        },
        {
          "duration": 0.45000000000000284,
          "durationTicks": 576,
          "midi": 57,
          "name": "A3",
          "ticks": 90432,
          "time": 70.64999999999999,
          "velocity": 0.5118110236220472
        },
        {
          "duration": 0.45000000000000284,
          "durationTicks": 576,
          "midi": 60,
          "name": "C4",
          "ticks": 90432,
          "time": 70.64999999999999,
          "velocity": 0.5118110236220472
        },
        {
          "duration": 0.45000000000000284,
          "durationTicks": 576,
          "midi": 64,
          "name": "E4",
          "ticks": 90432,
          "time": 70.64999999999999,
          "velocity": 0.5118110236220472
        },
        {
          "duration": 0.45000000000000284,
          "durationTicks": 576,
          "midi": 45,
          "name": "A2",
          "ticks": 91008,
          "time": 71.1,
          "velocity": 0.5118110236220472
        },
        {
          "duration": 0.45000000000000284,
          "durationTicks": 576,
          "midi": 52,
          "name": "E3",
          "ticks": 91008,
          "time": 71.1,
          "velocity": 0.5118110236220472
        },
        {
          "duration": 0.45000000000000284,
          "durationTicks": 576,
          "midi": 57,
          "name": "A3",
          "ticks": 91008,
          "time": 71.1,
          "velocity": 0.5118110236220472
        },
        {
          "duration": 0.45000000000000284,
          "durationTicks": 576,
          "midi": 60,
          "name": "C4",
          "ticks": 91008,
          "time": 71.1,
          "velocity": 0.5118110236220472
        },
        {
          "duration": 0.45000000000000284,
          "durationTicks": 576,
          "midi": 64,
          "name": "E4",
          "ticks": 91008,
          "time": 71.1,
          "velocity": 0.5118110236220472
        },
        {
          "duration": 0.45000000000000284,
          "durationTicks": 576,
          "midi": 64,
          "name": "E4",
          "ticks": 91584,
          "time": 71.55,
          "velocity": 0.5118110236220472
        },
        {
          "duration": 0.45000000000000284,
          "durationTicks": 576,
          "midi": 60,
          "name": "C4",
          "ticks": 91584,
          "time": 71.55,
          "velocity": 0.5118110236220472
        },
        {
          "duration": 0.45000000000000284,
          "durationTicks": 576,
          "midi": 57,
          "name": "A3",
          "ticks": 91584,
          "time": 71.55,
          "velocity": 0.5118110236220472
        },
        {
          "duration": 0.45000000000000284,
          "durationTicks": 576,
          "midi": 52,
          "name": "E3",
          "ticks": 91584,
          "time": 71.55,
          "velocity": 0.5118110236220472
        },
        {
          "duration": 0.45000000000000284,
          "durationTicks": 576,
          "midi": 45,
          "name": "A2",
          "ticks": 91584,
          "time": 71.55,
          "velocity": 0.5118110236220472
        },
        {
          "duration": 0.45000000000000284,
          "durationTicks": 576,
          "midi": 41,
          "name": "F2",
          "ticks": 92160,
          "time": 72,
          "velocity": 0.5118110236220472
        },
        {
          "duration": 0.45000000000000284,
          "durationTicks": 576,
          "midi": 48,
          "name": "C3",
          "ticks": 92160,
          "time": 72,
          "velocity": 0.5118110236220472
        },
        {
          "duration": 0.45000000000000284,
          "durationTicks": 576,
          "midi": 53,
          "name": "F3",
          "ticks": 92160,
          "time": 72,
          "velocity": 0.5118110236220472
        },
        {
          "duration": 0.45000000000000284,
          "durationTicks": 576,
          "midi": 57,
          "name": "A3",
          "ticks": 92160,
          "time": 72,
          "velocity": 0.5118110236220472
        },
        {
          "duration": 0.45000000000000284,
          "durationTicks": 576,
          "midi": 60,
          "name": "C4",
          "ticks": 92160,
          "time": 72,
          "velocity": 0.5118110236220472
        },
        {
          "duration": 0.45000000000000284,
          "durationTicks": 576,
          "midi": 65,
          "name": "F4",
          "ticks": 92160,
          "time": 72,
          "velocity": 0.5118110236220472
        },
        {
          "duration": 0.44999999999998863,
          "durationTicks": 576,
          "midi": 65,
          "name": "F4",
          "ticks": 92736,
          "time": 72.45,
          "velocity": 0.5118110236220472
        },
        {
          "duration": 0.44999999999998863,
          "durationTicks": 576,
          "midi": 60,
          "name": "C4",
          "ticks": 92736,
          "time": 72.45,
          "velocity": 0.5118110236220472
        },
        {
          "duration": 0.44999999999998863,
          "durationTicks": 576,
          "midi": 57,
          "name": "A3",
          "ticks": 92736,
          "time": 72.45,
          "velocity": 0.5118110236220472
        },
        {
          "duration": 0.44999999999998863,
          "durationTicks": 576,
          "midi": 53,
          "name": "F3",
          "ticks": 92736,
          "time": 72.45,
          "velocity": 0.5118110236220472
        },
        {
          "duration": 0.44999999999998863,
          "durationTicks": 576,
          "midi": 48,
          "name": "C3",
          "ticks": 92736,
          "time": 72.45,
          "velocity": 0.5118110236220472
        },
        {
          "duration": 0.44999999999998863,
          "durationTicks": 576,
          "midi": 41,
          "name": "F2",
          "ticks": 92736,
          "time": 72.45,
          "velocity": 0.5118110236220472
        },
        {
          "duration": 0.45000000000000284,
          "durationTicks": 576,
          "midi": 65,
          "name": "F4",
          "ticks": 93312,
          "time": 72.89999999999999,
          "velocity": 0.5118110236220472
        },
        {
          "duration": 0.45000000000000284,
          "durationTicks": 576,
          "midi": 60,
          "name": "C4",
          "ticks": 93312,
          "time": 72.89999999999999,
          "velocity": 0.5118110236220472
        },
        {
          "duration": 0.45000000000000284,
          "durationTicks": 576,
          "midi": 57,
          "name": "A3",
          "ticks": 93312,
          "time": 72.89999999999999,
          "velocity": 0.5118110236220472
        },
        {
          "duration": 0.45000000000000284,
          "durationTicks": 576,
          "midi": 53,
          "name": "F3",
          "ticks": 93312,
          "time": 72.89999999999999,
          "velocity": 0.5118110236220472
        },
        {
          "duration": 0.45000000000000284,
          "durationTicks": 576,
          "midi": 48,
          "name": "C3",
          "ticks": 93312,
          "time": 72.89999999999999,
          "velocity": 0.5118110236220472
        },
        {
          "duration": 0.45000000000000284,
          "durationTicks": 576,
          "midi": 41,
          "name": "F2",
          "ticks": 93312,
          "time": 72.89999999999999,
          "velocity": 0.5118110236220472
        },
        {
          "duration": 0.45000000000000284,
          "durationTicks": 576,
          "midi": 41,
          "name": "F2",
          "ticks": 93888,
          "time": 73.35,
          "velocity": 0.5118110236220472
        },
        {
          "duration": 0.45000000000000284,
          "durationTicks": 576,
          "midi": 48,
          "name": "C3",
          "ticks": 93888,
          "time": 73.35,
          "velocity": 0.5118110236220472
        },
        {
          "duration": 0.45000000000000284,
          "durationTicks": 576,
          "midi": 53,
          "name": "F3",
          "ticks": 93888,
          "time": 73.35,
          "velocity": 0.5118110236220472
        },
        {
          "duration": 0.45000000000000284,
          "durationTicks": 576,
          "midi": 57,
          "name": "A3",
          "ticks": 93888,
          "time": 73.35,
          "velocity": 0.5118110236220472
        },
        {
          "duration": 0.45000000000000284,
          "durationTicks": 576,
          "midi": 60,
          "name": "C4",
          "ticks": 93888,
          "time": 73.35,
          "velocity": 0.5118110236220472
        },
        {
          "duration": 0.45000000000000284,
          "durationTicks": 576,
          "midi": 65,
          "name": "F4",
          "ticks": 93888,
          "time": 73.35,
          "velocity": 0.5118110236220472
        },
        {
          "duration": 0.45000000000000284,
          "durationTicks": 576,
          "midi": 65,
          "name": "F4",
          "ticks": 94464,
          "time": 73.8,
          "velocity": 0.5118110236220472
        },
        {
          "duration": 0.45000000000000284,
          "durationTicks": 576,
          "midi": 62,
          "name": "D4",
          "ticks": 94464,
          "time": 73.8,
          "velocity": 0.5118110236220472
        },
        {
          "duration": 0.45000000000000284,
          "durationTicks": 576,
          "midi": 57,
          "name": "A3",
          "ticks": 94464,
          "time": 73.8,
          "velocity": 0.5118110236220472
        },
        {
          "duration": 0.45000000000000284,
          "durationTicks": 576,
          "midi": 50,
          "name": "D3",
          "ticks": 94464,
          "time": 73.8,
          "velocity": 0.5118110236220472
        },
        {
          "duration": 0.45000000000000284,
          "durationTicks": 576,
          "midi": 50,
          "name": "D3",
          "ticks": 95040,
          "time": 74.25,
          "velocity": 0.5118110236220472
        },
        {
          "duration": 0.45000000000000284,
          "durationTicks": 576,
          "midi": 57,
          "name": "A3",
          "ticks": 95040,
          "time": 74.25,
          "velocity": 0.5118110236220472
        },
        {
          "duration": 0.45000000000000284,
          "durationTicks": 576,
          "midi": 62,
          "name": "D4",
          "ticks": 95040,
          "time": 74.25,
          "velocity": 0.5118110236220472
        },
        {
          "duration": 0.45000000000000284,
          "durationTicks": 576,
          "midi": 65,
          "name": "F4",
          "ticks": 95040,
          "time": 74.25,
          "velocity": 0.5118110236220472
        },
        {
          "duration": 0.44999999999998863,
          "durationTicks": 576,
          "midi": 50,
          "name": "D3",
          "ticks": 95616,
          "time": 74.7,
          "velocity": 0.5118110236220472
        },
        {
          "duration": 0.44999999999998863,
          "durationTicks": 576,
          "midi": 57,
          "name": "A3",
          "ticks": 95616,
          "time": 74.7,
          "velocity": 0.5118110236220472
        },
        {
          "duration": 0.44999999999998863,
          "durationTicks": 576,
          "midi": 62,
          "name": "D4",
          "ticks": 95616,
          "time": 74.7,
          "velocity": 0.5118110236220472
        },
        {
          "duration": 0.44999999999998863,
          "durationTicks": 576,
          "midi": 65,
          "name": "F4",
          "ticks": 95616,
          "time": 74.7,
          "velocity": 0.5118110236220472
        },
        {
          "duration": 0.45000000000000284,
          "durationTicks": 576,
          "midi": 65,
          "name": "F4",
          "ticks": 96192,
          "time": 75.14999999999999,
          "velocity": 0.5118110236220472
        },
        {
          "duration": 0.45000000000000284,
          "durationTicks": 576,
          "midi": 62,
          "name": "D4",
          "ticks": 96192,
          "time": 75.14999999999999,
          "velocity": 0.5118110236220472
        },
        {
          "duration": 0.45000000000000284,
          "durationTicks": 576,
          "midi": 57,
          "name": "A3",
          "ticks": 96192,
          "time": 75.14999999999999,
          "velocity": 0.5118110236220472
        },
        {
          "duration": 0.45000000000000284,
          "durationTicks": 576,
          "midi": 50,
          "name": "D3",
          "ticks": 96192,
          "time": 75.14999999999999,
          "velocity": 0.5118110236220472
        },
        {
          "duration": 0.45000000000000284,
          "durationTicks": 576,
          "midi": 45,
          "name": "A2",
          "ticks": 96768,
          "time": 75.6,
          "velocity": 0.5118110236220472
        },
        {
          "duration": 0.45000000000000284,
          "durationTicks": 576,
          "midi": 52,
          "name": "E3",
          "ticks": 96768,
          "time": 75.6,
          "velocity": 0.5118110236220472
        },
        {
          "duration": 0.45000000000000284,
          "durationTicks": 576,
          "midi": 57,
          "name": "A3",
          "ticks": 96768,
          "time": 75.6,
          "velocity": 0.5118110236220472
        },
        {
          "duration": 0.45000000000000284,
          "durationTicks": 576,
          "midi": 60,
          "name": "C4",
          "ticks": 96768,
          "time": 75.6,
          "velocity": 0.5118110236220472
        },
        {
          "duration": 0.45000000000000284,
          "durationTicks": 576,
          "midi": 64,
          "name": "E4",
          "ticks": 96768,
          "time": 75.6,
          "velocity": 0.5118110236220472
        },
        {
          "duration": 0.45000000000000284,
          "durationTicks": 576,
          "midi": 45,
          "name": "A2",
          "ticks": 97344,
          "time": 76.05,
          "velocity": 0.5118110236220472
        },
        {
          "duration": 0.45000000000000284,
          "durationTicks": 576,
          "midi": 52,
          "name": "E3",
          "ticks": 97344,
          "time": 76.05,
          "velocity": 0.5118110236220472
        },
        {
          "duration": 0.45000000000000284,
          "durationTicks": 576,
          "midi": 57,
          "name": "A3",
          "ticks": 97344,
          "time": 76.05,
          "velocity": 0.5118110236220472
        },
        {
          "duration": 0.45000000000000284,
          "durationTicks": 576,
          "midi": 60,
          "name": "C4",
          "ticks": 97344,
          "time": 76.05,
          "velocity": 0.5118110236220472
        },
        {
          "duration": 0.45000000000000284,
          "durationTicks": 576,
          "midi": 64,
          "name": "E4",
          "ticks": 97344,
          "time": 76.05,
          "velocity": 0.5118110236220472
        },
        {
          "duration": 0.45000000000000284,
          "durationTicks": 576,
          "midi": 64,
          "name": "E4",
          "ticks": 97920,
          "time": 76.5,
          "velocity": 0.5118110236220472
        },
        {
          "duration": 0.45000000000000284,
          "durationTicks": 576,
          "midi": 60,
          "name": "C4",
          "ticks": 97920,
          "time": 76.5,
          "velocity": 0.5118110236220472
        },
        {
          "duration": 0.45000000000000284,
          "durationTicks": 576,
          "midi": 57,
          "name": "A3",
          "ticks": 97920,
          "time": 76.5,
          "velocity": 0.5118110236220472
        },
        {
          "duration": 0.45000000000000284,
          "durationTicks": 576,
          "midi": 52,
          "name": "E3",
          "ticks": 97920,
          "time": 76.5,
          "velocity": 0.5118110236220472
        },
        {
          "duration": 0.45000000000000284,
          "durationTicks": 576,
          "midi": 45,
          "name": "A2",
          "ticks": 97920,
          "time": 76.5,
          "velocity": 0.5118110236220472
        },
        {
          "duration": 0.44999999999998863,
          "durationTicks": 576,
          "midi": 45,
          "name": "A2",
          "ticks": 98496,
          "time": 76.95,
          "velocity": 0.5118110236220472
        },
        {
          "duration": 0.44999999999998863,
          "durationTicks": 576,
          "midi": 52,
          "name": "E3",
          "ticks": 98496,
          "time": 76.95,
          "velocity": 0.5118110236220472
        },
        {
          "duration": 0.44999999999998863,
          "durationTicks": 576,
          "midi": 57,
          "name": "A3",
          "ticks": 98496,
          "time": 76.95,
          "velocity": 0.5118110236220472
        },
        {
          "duration": 0.44999999999998863,
          "durationTicks": 576,
          "midi": 60,
          "name": "C4",
          "ticks": 98496,
          "time": 76.95,
          "velocity": 0.5118110236220472
        },
        {
          "duration": 0.44999999999998863,
          "durationTicks": 576,
          "midi": 64,
          "name": "E4",
          "ticks": 98496,
          "time": 76.95,
          "velocity": 0.5118110236220472
        },
        {
          "duration": 0.45000000000000284,
          "durationTicks": 576,
          "midi": 45,
          "name": "A2",
          "ticks": 99072,
          "time": 77.39999999999999,
          "velocity": 0.5118110236220472
        },
        {
          "duration": 0.45000000000000284,
          "durationTicks": 576,
          "midi": 52,
          "name": "E3",
          "ticks": 99072,
          "time": 77.39999999999999,
          "velocity": 0.5118110236220472
        },
        {
          "duration": 0.45000000000000284,
          "durationTicks": 576,
          "midi": 57,
          "name": "A3",
          "ticks": 99072,
          "time": 77.39999999999999,
          "velocity": 0.5118110236220472
        },
        {
          "duration": 0.45000000000000284,
          "durationTicks": 576,
          "midi": 60,
          "name": "C4",
          "ticks": 99072,
          "time": 77.39999999999999,
          "velocity": 0.5118110236220472
        },
        {
          "duration": 0.45000000000000284,
          "durationTicks": 576,
          "midi": 64,
          "name": "E4",
          "ticks": 99072,
          "time": 77.39999999999999,
          "velocity": 0.5118110236220472
        },
        {
          "duration": 0.45000000000000284,
          "durationTicks": 576,
          "midi": 64,
          "name": "E4",
          "ticks": 99648,
          "time": 77.85,
          "velocity": 0.5118110236220472
        },
        {
          "duration": 0.45000000000000284,
          "durationTicks": 576,
          "midi": 60,
          "name": "C4",
          "ticks": 99648,
          "time": 77.85,
          "velocity": 0.5118110236220472
        },
        {
          "duration": 0.45000000000000284,
          "durationTicks": 576,
          "midi": 57,
          "name": "A3",
          "ticks": 99648,
          "time": 77.85,
          "velocity": 0.5118110236220472
        },
        {
          "duration": 0.45000000000000284,
          "durationTicks": 576,
          "midi": 52,
          "name": "E3",
          "ticks": 99648,
          "time": 77.85,
          "velocity": 0.5118110236220472
        },
        {
          "duration": 0.45000000000000284,
          "durationTicks": 576,
          "midi": 45,
          "name": "A2",
          "ticks": 99648,
          "time": 77.85,
          "velocity": 0.5118110236220472
        },
        {
          "duration": 0.45000000000000284,
          "durationTicks": 576,
          "midi": 45,
          "name": "A2",
          "ticks": 100224,
          "time": 78.3,
          "velocity": 0.5118110236220472
        },
        {
          "duration": 0.45000000000000284,
          "durationTicks": 576,
          "midi": 52,
          "name": "E3",
          "ticks": 100224,
          "time": 78.3,
          "velocity": 0.5118110236220472
        },
        {
          "duration": 0.45000000000000284,
          "durationTicks": 576,
          "midi": 57,
          "name": "A3",
          "ticks": 100224,
          "time": 78.3,
          "velocity": 0.5118110236220472
        },
        {
          "duration": 0.45000000000000284,
          "durationTicks": 576,
          "midi": 60,
          "name": "C4",
          "ticks": 100224,
          "time": 78.3,
          "velocity": 0.5118110236220472
        },
        {
          "duration": 0.45000000000000284,
          "durationTicks": 576,
          "midi": 64,
          "name": "E4",
          "ticks": 100224,
          "time": 78.3,
          "velocity": 0.5118110236220472
        },
        {
          "duration": 0.45000000000000284,
          "durationTicks": 576,
          "midi": 45,
          "name": "A2",
          "ticks": 100800,
          "time": 78.75,
          "velocity": 0.5118110236220472
        },
        {
          "duration": 0.45000000000000284,
          "durationTicks": 576,
          "midi": 52,
          "name": "E3",
          "ticks": 100800,
          "time": 78.75,
          "velocity": 0.5118110236220472
        },
        {
          "duration": 0.45000000000000284,
          "durationTicks": 576,
          "midi": 57,
          "name": "A3",
          "ticks": 100800,
          "time": 78.75,
          "velocity": 0.5118110236220472
        },
        {
          "duration": 0.45000000000000284,
          "durationTicks": 576,
          "midi": 60,
          "name": "C4",
          "ticks": 100800,
          "time": 78.75,
          "velocity": 0.5118110236220472
        },
        {
          "duration": 0.45000000000000284,
          "durationTicks": 576,
          "midi": 64,
          "name": "E4",
          "ticks": 100800,
          "time": 78.75,
          "velocity": 0.5118110236220472
        },
        {
          "duration": 0.44999999999998863,
          "durationTicks": 576,
          "midi": 64,
          "name": "E4",
          "ticks": 101376,
          "time": 79.2,
          "velocity": 0.5118110236220472
        },
        {
          "duration": 0.44999999999998863,
          "durationTicks": 576,
          "midi": 60,
          "name": "C4",
          "ticks": 101376,
          "time": 79.2,
          "velocity": 0.5118110236220472
        },
        {
          "duration": 0.44999999999998863,
          "durationTicks": 576,
          "midi": 57,
          "name": "A3",
          "ticks": 101376,
          "time": 79.2,
          "velocity": 0.5118110236220472
        },
        {
          "duration": 0.44999999999998863,
          "durationTicks": 576,
          "midi": 52,
          "name": "E3",
          "ticks": 101376,
          "time": 79.2,
          "velocity": 0.5118110236220472
        },
        {
          "duration": 0.44999999999998863,
          "durationTicks": 576,
          "midi": 45,
          "name": "A2",
          "ticks": 101376,
          "time": 79.2,
          "velocity": 0.5118110236220472
        },
        {
          "duration": 0.45000000000000284,
          "durationTicks": 576,
          "midi": 45,
          "name": "A2",
          "ticks": 101952,
          "time": 79.64999999999999,
          "velocity": 0.5118110236220472
        },
        {
          "duration": 0.45000000000000284,
          "durationTicks": 576,
          "midi": 52,
          "name": "E3",
          "ticks": 101952,
          "time": 79.64999999999999,
          "velocity": 0.5118110236220472
        },
        {
          "duration": 0.45000000000000284,
          "durationTicks": 576,
          "midi": 57,
          "name": "A3",
          "ticks": 101952,
          "time": 79.64999999999999,
          "velocity": 0.5118110236220472
        },
        {
          "duration": 0.45000000000000284,
          "durationTicks": 576,
          "midi": 60,
          "name": "C4",
          "ticks": 101952,
          "time": 79.64999999999999,
          "velocity": 0.5118110236220472
        },
        {
          "duration": 0.45000000000000284,
          "durationTicks": 576,
          "midi": 64,
          "name": "E4",
          "ticks": 101952,
          "time": 79.64999999999999,
          "velocity": 0.5118110236220472
        },
        {
          "duration": 0.45000000000000284,
          "durationTicks": 576,
          "midi": 45,
          "name": "A2",
          "ticks": 102528,
          "time": 80.1,
          "velocity": 0.5118110236220472
        },
        {
          "duration": 0.45000000000000284,
          "durationTicks": 576,
          "midi": 52,
          "name": "E3",
          "ticks": 102528,
          "time": 80.1,
          "velocity": 0.5118110236220472
        },
        {
          "duration": 0.45000000000000284,
          "durationTicks": 576,
          "midi": 57,
          "name": "A3",
          "ticks": 102528,
          "time": 80.1,
          "velocity": 0.5118110236220472
        },
        {
          "duration": 0.45000000000000284,
          "durationTicks": 576,
          "midi": 60,
          "name": "C4",
          "ticks": 102528,
          "time": 80.1,
          "velocity": 0.5118110236220472
        },
        {
          "duration": 0.45000000000000284,
          "durationTicks": 576,
          "midi": 64,
          "name": "E4",
          "ticks": 102528,
          "time": 80.1,
          "velocity": 0.5118110236220472
        },
        {
          "duration": 0.45000000000000284,
          "durationTicks": 576,
          "midi": 64,
          "name": "E4",
          "ticks": 103104,
          "time": 80.55,
          "velocity": 0.5118110236220472
        },
        {
          "duration": 0.45000000000000284,
          "durationTicks": 576,
          "midi": 60,
          "name": "C4",
          "ticks": 103104,
          "time": 80.55,
          "velocity": 0.5118110236220472
        },
        {
          "duration": 0.45000000000000284,
          "durationTicks": 576,
          "midi": 57,
          "name": "A3",
          "ticks": 103104,
          "time": 80.55,
          "velocity": 0.5118110236220472
        },
        {
          "duration": 0.45000000000000284,
          "durationTicks": 576,
          "midi": 52,
          "name": "E3",
          "ticks": 103104,
          "time": 80.55,
          "velocity": 0.5118110236220472
        },
        {
          "duration": 0.45000000000000284,
          "durationTicks": 576,
          "midi": 45,
          "name": "A2",
          "ticks": 103104,
          "time": 80.55,
          "velocity": 0.5118110236220472
        },
        {
          "duration": 0.8999999999999915,
          "durationTicks": 1152,
          "midi": 45,
          "name": "A2",
          "ticks": 103680,
          "time": 81,
          "velocity": 0.5118110236220472
        },
        {
          "duration": 0.8999999999999915,
          "durationTicks": 1152,
          "midi": 52,
          "name": "E3",
          "ticks": 103680,
          "time": 81,
          "velocity": 0.5118110236220472
        },
        {
          "duration": 0.8999999999999915,
          "durationTicks": 1152,
          "midi": 57,
          "name": "A3",
          "ticks": 103680,
          "time": 81,
          "velocity": 0.5118110236220472
        },
        {
          "duration": 0.8999999999999915,
          "durationTicks": 1152,
          "midi": 60,
          "name": "C4",
          "ticks": 103680,
          "time": 81,
          "velocity": 0.5118110236220472
        },
        {
          "duration": 0.8999999999999915,
          "durationTicks": 1152,
          "midi": 64,
          "name": "E4",
          "ticks": 103680,
          "time": 81,
          "velocity": 0.5118110236220472
        },
        {
          "duration": 0.9000000000000057,
          "durationTicks": 1152,
          "midi": 57,
          "name": "A3",
          "ticks": 104832,
          "time": 81.89999999999999,
          "velocity": 0.5118110236220472
        },
        {
          "duration": 0.9000000000000057,
          "durationTicks": 1152,
          "midi": 60,
          "name": "C4",
          "ticks": 104832,
          "time": 81.89999999999999,
          "velocity": 0.5118110236220472
        },
        {
          "duration": 0.9000000000000057,
          "durationTicks": 1152,
          "midi": 64,
          "name": "E4",
          "ticks": 104832,
          "time": 81.89999999999999,
          "velocity": 0.5118110236220472
        },
        {
          "duration": 0.9000000000000057,
          "durationTicks": 1152,
          "midi": 69,
          "name": "A4",
          "ticks": 104832,
          "time": 81.89999999999999,
          "velocity": 0.5118110236220472
        }
      ]
    }
  ]
}
