<svg xmlns="http://www.w3.org/2000/svg" width="54" height="44" viewBox="0 0 54 44">
  <g fill="#00FFF0" fill-rule="evenodd" transform="rotate(-90 22 22)">
    <path d="M21.9669818,8.31103003 L21.9669818,8.31103003 C20.1196141,8.31103003 18.6220267,9.80861743 18.6220267,11.6559851 L18.6220267,21.3739266 C18.6220267,21.9262114 18.1743115,22.3739266 17.6220267,22.3739266 L10.216751,22.3739266 C9.66446624,22.3739266 9.21675099,22.8216419 9.21675099,23.3739266 C9.21675099,23.5529748 9.26482328,23.7287391 9.35594765,23.8828644 L21.1042234,43.7535761 C21.385302,44.2289847 21.9985559,44.3865203 22.4739645,44.1054417 C22.6190087,44.0196864 22.7400321,43.8986709 22.8257969,43.7536322 L34.5758206,23.8829205 C34.8569301,23.4075302 34.6994345,22.794266 34.2240443,22.5131565 C34.0699059,22.4220108 33.8941207,22.3739266 33.7150504,22.3739266 L26.3119369,22.3739266 C25.7596521,22.3739266 25.3119369,21.9262114 25.3119369,21.3739266 L25.3119369,11.6559851 C25.3119369,9.80861743 23.8143495,8.31103003 21.9669818,8.31103003 Z"/>
    <path fill-rule="nonzero" d="M42.6656483,18.2643102 C41.1954076,15.6779447 38.4369356,14.0715874 35.4681245,14.0715874 L33.5954293,14.0715874 L33.5954293,8.31103003 C33.5954293,3.73318243 29.8803772,0.00869077013 25.3119162,0.00869077013 L18.622006,0.00869077013 C14.053545,0.00869077013 10.3384929,3.73318243 10.3384929,8.31103003 L10.3384929,14.0715874 L8.46378897,14.0715874 C5.49499858,14.0715874 2.73650589,15.6779447 1.26829461,18.2612591 C-0.203975593,20.8466283 -0.177675439,24.0441082 1.33704777,26.6061686 L14.8382008,49.442666 C16.3226063,51.9520065 19.0547782,53.5117463 21.964942,53.5117463 C24.8751058,53.5117463 27.6072777,51.9520273 29.0916832,49.441649 L42.5948657,26.6061686 C44.1096096,24.044129 44.1358891,20.8466283 42.6656483,18.2643102 Z M39.030615,24.4899231 L25.5274325,47.3254035 C24.7811915,48.5871722 23.4262158,49.3604521 21.9640722,49.3604521 C20.5019286,49.3604521 19.146953,48.5871722 18.400712,47.3254035 L4.89955895,24.4899231 C4.14118262,23.2068796 4.12701781,21.6147192 4.86518237,20.318475 C5.60131747,19.0232686 6.97447544,18.2226117 8.4629192,18.2226117 L14.4793797,18.2226117 L14.4793797,8.3109055 C14.4793797,6.01844283 16.3338719,4.15973587 18.6211363,4.15973587 L25.3110464,4.15973587 C27.5983108,4.15973587 29.452803,6.01844283 29.452803,8.3109055 L29.452803,18.2226325 L35.4672547,18.2226325 C36.9556985,18.2226325 38.3288772,19.0232686 39.0649916,20.3184958 C39.8031561,21.6147192 39.7889913,23.2068588 39.030615,24.4899231 Z"/>
  </g>
</svg>
