<svg xmlns="http://www.w3.org/2000/svg" width="494" height="180" viewBox="0 0 494 180">
  <g fill="#FFF" fill-rule="evenodd" transform="translate(-5)">
    <path d="M105.905,68.36 L105.215,100.1 C105.215,110.526719 104.985002,118.499972 104.525,124.02 L103.835,131.61 C103.068329,144.183396 100.155025,154.533293 95.095,162.66 C90.494977,168.946698 82.5983893,173.623318 71.405,176.69 C65.5783042,178.376675 60.365023,179.22 55.765,179.22 C51.164977,179.22 46.3733582,179.028335 41.39,178.645 C36.4066417,178.261665 31.3466923,176.920011 26.21,174.62 C21.0733076,172.319988 17.2783456,168.410028 14.825,162.89 C11.4516498,157.063304 9.6116682,148.553389 9.305,137.36 C8.0783272,113.899883 7.465,99.6400253 7.465,94.58 C7.465,82.4666061 7.6949977,72.6533709 8.155,65.14 C8.4616682,47.9665808 12.5249609,34.8567119 20.345,25.81 C22.1850092,23.9699908 23.9483249,22.5900046 25.635,21.67 C34.5283778,17.2233111 44.5716107,15 55.765,15 C70.4850736,15 82.5982858,18.6032973 92.105,25.81 C96.5516889,29.7966866 99.6949908,34.4733065 101.535,39.84 C103.068341,43.3666843 104.179997,47.6599747 104.87,52.72 C105.560003,57.7800253 105.905,62.9933065 105.905,68.36 Z M76.465,118.96 L76.925,107 L76.925,95.96 L76.465,80.32 C75.8516636,74.4933042 75.545,70.1233479 75.545,67.21 C74.7783295,57.7032858 70.7917027,51.1866843 63.585,47.66 C61.4383226,46.7399954 59.3683433,46.28 57.375,46.28 L45.645,50.88 C40.2783065,55.1733548 36.6750092,60.4633019 34.835,66.75 C33.301659,74.2633709 32.535,81.4316325 32.535,88.255 C32.535,95.0783674 32.6116659,99.8699862 32.765,102.63 C33.8383387,119.650085 35.2949908,131.073304 37.135,136.9 C40.3550161,143.6467 46.4882881,147.02 55.535,147.02 C62.1283663,147.02 67.5716452,144.643357 71.865,139.89 C74.3183456,136.51665 75.6216659,134.101674 75.775,132.645 C75.9283341,131.188326 76.0433329,129.15668 76.12,126.55 C76.196667,123.94332 76.3116659,121.413346 76.465,118.96 Z" transform="rotate(-5 56.685 97.11)"/>
    <path d="M216.995,59.36 L216.305,91.1 C216.305,101.526719 216.075002,109.499972 215.615,115.02 L214.925,122.61 C214.158329,135.183396 211.245025,145.533293 206.185,153.66 C201.584977,159.946698 193.688389,164.623318 182.495,167.69 C176.668304,169.376675 171.455023,170.22 166.855,170.22 C162.254977,170.22 157.463358,170.028335 152.48,169.645 C147.496642,169.261665 142.436692,167.920011 137.3,165.62 C132.163308,163.319988 128.368346,159.410028 125.915,153.89 C122.54165,148.063304 120.701668,139.553389 120.395,128.36 C119.168327,104.899883 118.555,90.6400253 118.555,85.58 C118.555,73.4666061 118.784998,63.6533709 119.245,56.14 C119.551668,38.9665808 123.614961,25.8567119 131.435,16.81 C133.275009,14.9699908 135.038325,13.5900046 136.725,12.67 C145.618378,8.2233111 155.661611,6 166.855,6 C181.575074,6 193.688286,9.6032973 203.195,16.81 C207.641689,20.7966866 210.784991,25.4733065 212.625,30.84 C214.158341,34.3666843 215.269997,38.6599747 215.96,43.72 C216.650003,48.7800253 216.995,53.9933065 216.995,59.36 Z M187.555,109.96 L188.015,98 L188.015,86.96 L187.555,71.32 C186.941664,65.4933042 186.635,61.1233479 186.635,58.21 C185.868329,48.7032858 181.881703,42.1866843 174.675,38.66 C172.528323,37.7399954 170.458343,37.28 168.465,37.28 L156.735,41.88 C151.368306,46.1733548 147.765009,51.4633019 145.925,57.75 C144.391659,65.2633709 143.625,72.4316325 143.625,79.255 C143.625,86.0783674 143.701666,90.8699862 143.855,93.63 C144.928339,110.650085 146.384991,122.073304 148.225,127.9 C151.445016,134.6467 157.578288,138.02 166.625,138.02 C173.218366,138.02 178.661645,135.643357 182.955,130.89 C185.408346,127.51665 186.711666,125.101674 186.865,123.645 C187.018334,122.188326 187.133333,120.15668 187.21,117.55 C187.286667,114.94332 187.401666,112.413346 187.555,109.96 Z" transform="rotate(-3 167.775 88.11)"/>
    <path d="M232.405,97.53 L232.635,74.07 C232.635,43.5565141 232.328336,20.2500805 231.715,4.15 C241.835051,1.3899862 252.453278,0.01 263.57,0.01 C274.686722,0.01 285.534947,1.3899862 296.115,4.15 C306.695053,6.9100138 315.588297,12.3149597 322.795,20.365 C330.001703,28.4150402 333.911664,38.6499379 334.525,51.07 L334.525,51.3 C334.525,68.3200851 327.165074,82.2732789 312.445,93.16 C302.324949,100.520037 291.668389,104.2 280.475,104.2 C277.561652,104.2 274.571682,103.970002 271.505,103.51 C271.658334,105.810011 271.735,111.291623 271.735,119.955 C271.735,128.618377 271.964998,142.379906 272.425,161.24 L272.425,161.47 C272.118332,161.623334 271.888334,161.7 271.735,161.7 C267.441645,162.926673 261.040043,163.54 252.53,163.54 C244.019957,163.54 237.618355,163.233336 233.325,162.62 C232.711664,149.433267 232.405,127.736818 232.405,97.53 Z M265.525,52.91 C265.525,61.0367073 266.138327,67.0166475 267.365,70.85 L268.055,70.85 C278.788387,70.85 286.10998,70.1600069 290.02,68.78 C293.93002,67.3999931 296.728325,65.8666751 298.415,64.18 C300.408343,61.5733203 301.405,59.1200115 301.405,56.82 C301.405,49.3066291 299.028357,44.1700138 294.275,41.41 C288.908307,37.1166452 282.698369,34.97 275.645,34.97 C272.578318,34.97 270.125009,35.1616647 268.285,35.545 C266.444991,35.9283352 265.448334,36.1966659 265.295,36.35 C265.448334,39.1100138 265.525,41.7933203 265.525,44.4 L265.525,52.91 Z"/>
    <path d="M350.165,121.7 L375.465,122.39 C375.925002,129.1367 379.5283,133.659989 386.275,135.96 C388.575012,136.880005 391.181652,137.34 394.095,137.34 C397.008348,137.34 399.844986,136.151679 402.605,133.775 C405.365014,131.398321 406.745,128.216687 406.745,124.23 C406.745,119.169975 405.518346,115.413346 403.065,112.96 C399.998318,109.893318 397.16168,107.861672 394.555,106.865 C391.94832,105.868328 389.571677,105.101669 387.425,104.565 C385.278323,104.028331 383.821671,103.683334 383.055,103.53 C377.381638,102.456661 374.238336,101.843334 373.625,101.69 C368.258307,100.616661 363.045025,98.0100207 357.985,93.87 C347.711615,84.0566176 342.575,72.250069 342.575,58.45 C342.575,47.2566107 346.561627,36.7533824 354.535,26.94 C359.748359,20.6533019 365.958297,15.976682 373.165,12.91 C379.758366,10.4566544 386.888295,9.23 394.555,9.23 C405.288387,9.23 415.178288,11.2999793 424.225,15.44 C432.045039,19.4266866 437.794982,25.253295 441.475,32.92 C443.928346,37.9800253 445.155,42.9249759 445.155,47.755 C445.155,52.5850242 444.771671,56.9933134 444.005,60.98 L443.775,60.98 C437.0283,62.0533387 430.741696,62.59 424.915,62.59 C419.088304,62.59 413.875023,61.9766728 409.275,60.75 C409.581668,59.6766613 409.735,58.6033387 409.735,57.53 C409.735,53.8499816 408.010017,50.7833456 404.56,48.33 C401.109983,45.8766544 398.158346,44.65 395.705,44.65 C384.511611,44.65 379.451661,50.1699448 380.525,61.21 C382.365009,66.5766935 387.348293,69.8733272 395.475,71.1 C403.601707,72.0200046 411.114966,74.6266452 418.015,78.92 C424.915035,83.2133548 430.664977,88.6566337 435.265,95.25 C441.091696,102.763371 444.005,111.19662 444.005,120.55 C444.005,129.90338 442.31835,137.9533 438.945,144.7 C435.418316,153.746712 429.745039,160.416645 421.925,164.71 C414.104961,169.003355 405.595046,171.15 396.395,171.15 C386.734952,171.15 377.535044,169.271685 368.795,165.515 C360.054956,161.758315 353.116692,156.391702 347.98,149.415 C342.843308,142.438298 340.275,134.886707 340.275,126.76 L340.275,122.62 C341.195005,122.006664 344.491638,121.7 350.165,121.7 Z" transform="rotate(3 392.715 90.19)"/>
    <path d="M29.245 163.77L20.505 163.54 20.045 163.54 2.795 163.77C2.0283295 162.236659 1.9516636 157.866703 2.565 150.66 3.1783364 143.453297 3.485 138.853343 3.485 136.86L3.485 136.63C5.7850115 135.556661 9.0049793 135.02 13.145 135.02L31.545 136.17C31.0849977 153.190085 30.855 162.389993 30.855 163.77L29.245 163.77zM2.795 2.54C10.0017027 1.4666613 15.94331.93 20.62.93 25.2966901.93 28.7849885 1.3133295 31.085 2.08 30.6249977 28.146797 30.395 51.6448953 30.395 72.575 30.395 93.5051046 30.7016636 110.563267 31.315 123.75 28.4016521 124.056668 18.511751 124.439998 1.645 124.9L1.415 124.9 1.415 115.01.955 41.18C.955 21.8599034 1.3383295 8.9800322 2.105 2.54L2.795 2.54z" transform="rotate(5 131.981 5366.318)"/>
  </g>
</svg>
