<svg xmlns="http://www.w3.org/2000/svg" width="875" height="205" viewBox="0 0 875 205">
  <g fill="#FFF" fill-rule="evenodd" transform="translate(-1 -3)">
    <path d="M15.880825,127.548438 L16.13325,101.889063 C16.13325,68.5149373 15.7966867,43.0235255 15.12355,25.4140625 C26.2303055,22.3952974 37.8838098,20.8859375 50.0844125,20.8859375 C62.2850152,20.8859375 74.1909419,22.3952974 85.80255,25.4140625 C97.4141581,28.4328276 107.174494,34.3444872 115.08385,43.1492188 C122.993206,51.9539503 127.284388,63.1483696 127.957525,76.7328125 L127.957525,76.984375 C127.957525,95.6000931 119.880006,110.861399 103.724725,122.76875 C92.6179695,130.81879 80.9223948,134.84375 68.63765,134.84375 C65.4402507,134.84375 62.1587585,134.59219 58.793075,134.089063 C58.9613592,136.6047 59.0455,142.600213 59.0455,152.075781 C59.0455,161.551349 59.2979225,176.603022 59.802775,197.23125 L59.802775,197.482813 C59.4662067,197.650522 59.2137842,197.734375 59.0455,197.734375 C54.3335431,199.076048 47.3077842,199.746875 37.9680125,199.746875 C28.6282408,199.746875 21.6024819,199.411462 16.890525,198.740625 C16.2173883,184.317636 15.880825,160.587144 15.880825,127.548438 Z M52.230025,78.7453125 C52.230025,87.6338986 52.9031516,94.1744582 54.249425,98.3671875 L55.0067,98.3671875 C66.7865922,98.3671875 74.822041,97.6125075 79.1132875,96.103125 C83.404534,94.5937425 86.4756741,92.9166759 88.3268,91.071875 C90.5144943,88.2208191 91.608325,85.5375126 91.608325,83.021875 C91.608325,74.8041256 88.9999594,69.1859526 83.78315,66.1671875 C77.8932039,61.4713307 71.077797,59.1234375 63.336725,59.1234375 C59.9710415,59.1234375 57.2785351,59.3330708 55.259125,59.7523437 C53.2397149,60.1716167 52.1458842,60.4651033 51.9776,60.6328125 C52.1458842,63.6515776 52.230025,66.5864441 52.230025,69.4375 L52.230025,78.7453125 Z" transform="rotate(-10 71.54 110.316)"/>
    <path d="M181.992376,154.026706 L237.524883,155.552595 C241.395319,155.553743 244.929117,155.470936 248.126383,155.304171 L248.126533,155.807309 C248.464291,159.832534 248.634066,164.863915 248.635863,170.901602 C248.637661,176.939289 247.798046,182.892781 246.116996,188.762256 L174.430381,189.495695 C162.819074,189.492251 152.217481,189.069828 142.625282,188.228415 L141.328068,70.2421549 C141.322427,51.2905249 141.821892,33.2617396 142.826479,16.1552581 C171.265317,14.6542734 195.749437,13.9068377 216.279573,13.9129284 C236.80971,13.9190191 247.158837,14.173656 247.327267,14.6768465 C247.833155,18.1989806 248.086694,21.9725535 248.087892,25.9976785 L247.337901,50.3996518 L247.337976,50.6512209 C239.934163,52.3261596 230.174331,53.1618192 218.058184,53.1582247 L204.932425,53.1543306 C195.508756,53.1515348 187.599774,53.3168995 181.205241,53.6504294 L180.447985,53.6502048 L180.195642,53.9016989 L179.444902,75.7879818 C179.4462,80.1485338 179.867667,82.7481795 180.709315,83.5869968 C189.796575,84.0928333 200.145702,84.3474701 211.757009,84.3509149 L211.757084,84.602484 C212.430353,85.1058243 212.767956,88.6278556 212.769903,95.1686837 L212.27233,119.570732 C208.738754,120.575965 203.059545,121.077413 195.234534,121.075091 C187.409523,121.07277 182.908231,121.490712 181.730521,122.32893 C181.058451,125.850715 180.723207,130.253029 180.724779,135.536006 C180.726352,140.818982 181.064716,146.898607 181.739882,153.775062 L181.992376,154.026706 Z" transform="rotate(-5 194.982 101.704)"/>
    <path d="M382.906775,182.995313 L350.091525,184.001563 C345.884421,184.001563 342.939492,183.833856 341.25665,183.498438 L341.004225,183.498438 C328.887764,155.323297 317.19219,134.276111 305.91715,120.35625 L305.4123,119.601563 C305.075732,122.452618 304.90745,128.112718 304.90745,136.582031 C304.90745,145.051344 305.496436,159.851457 306.674425,180.982813 C301.962468,182.827613 292.622837,183.75 278.65525,183.75 L262.752475,183.75 C263.425612,183.75 263.762175,157.294275 263.762175,104.382031 C263.762175,51.4697875 262.836626,19.3120362 260.9855,7.9078125 C280.674748,5.05675658 295.441463,3.63125 305.286087,3.63125 C315.130712,3.63125 322.493034,3.88280998 327.373275,4.3859375 C337.133757,4.88906502 346.052685,7.74007817 354.130325,12.9390625 C369.780753,23.0016128 378.194836,38.0113585 379.372825,57.96875 C379.541109,58.8072959 379.62525,59.6458291 379.62525,60.484375 C379.62525,68.8698336 377.101025,77.0036064 372.0525,84.8859375 C364.984565,98.6380896 354.046257,105.933329 339.23725,106.771875 L337.975125,106.771875 L337.975125,107.023438 C339.657967,110.042203 346.557514,120.733502 358.673975,139.097656 C370.790436,157.461811 378.867955,172.094216 382.906775,182.995313 Z M299.3541,74.06875 C304.570909,74.5718775 309.282796,74.8234375 313.4899,74.8234375 C317.697004,74.8234375 321.483342,74.5718775 324.849025,74.06875 C332.085245,72.5593675 335.7033,67.0250478 335.7033,57.465625 C335.7033,51.4280948 333.599779,46.9000151 329.392675,43.88125 C325.858707,40.6947757 321.441314,39.1015625 316.140362,39.1015625 C310.839411,39.1015625 304.739201,40.4432158 297.83955,43.1265625 C298.007834,45.4744909 298.134045,50.5056906 298.218187,58.2203125 C298.30233,65.9349344 298.596822,71.2176941 299.101675,74.06875 L299.3541,74.06875 Z" transform="rotate(-3 321.946 93.816)"/>
    <path d="M472.521158,112.622857 L440.30735,116.394286 L440.055679,116.394286 C439.048993,127.792438 438.377878,148.325566 438.042316,177.994286 C431.163292,178.664765 422.312972,179 411.491091,179 C400.669211,179 394.838905,178.580957 394,177.742857 L394.503341,7.52571429 L394.503341,7.27428571 C410.945888,4.42474766 430.324313,3 452.639198,3 C474.954083,3 493.074169,4.25713029 507,6.77142857 L507,43.9828571 C470.423722,45.8266759 448.025282,47.1676149 439.804009,48.0057143 C438.126198,51.8609717 437.287305,55.7161712 437.287305,59.5714286 C437.287305,63.4266859 437.832585,66.2761813 438.923163,68.12 C440.01374,69.9638187 440.642909,70.8857143 440.81069,70.8857143 C445.34078,71.3885739 450.248303,71.64 455.533408,71.64 C460.818512,71.64 466.481039,71.3885739 472.521158,70.8857143 C473.024501,72.2266734 473.276169,75.7466382 473.276169,81.4457143 L473.024499,100.554286 C473.024499,105.247643 473.108388,109.102842 473.276169,112.12 C473.276169,112.45524 473.024501,112.622857 472.521158,112.622857 Z"/>
    <path d="M558.837754,145.282324 L614.370464,146.781796 C618.240964,146.781105 621.774861,146.696619 624.97226,146.528338 L624.97217,147.031467 C625.308014,151.056465 625.475392,156.087682 625.474311,162.125269 C625.473229,168.162856 624.630761,174.116648 622.946884,179.986825 L551.258719,180.754322 C539.64722,180.756395 529.04565,180.339018 519.453692,179.502177 L518.212721,61.5184821 C518.216117,42.5671677 518.724187,24.5384427 519.736948,7.43176617 C548.176978,5.91729065 572.661864,5.15823109 593.192342,5.15456474 C613.722819,5.15089839 624.071998,5.40061256 624.240191,5.90371475 C624.744407,9.42555027 624.996151,13.1989404 624.99543,17.2239983 L624.23379,41.6259252 L624.233745,41.8774901 C616.82901,43.5559198 607.068615,44.396204 594.952268,44.3983677 L581.826291,44.4007118 C572.402465,44.4023947 564.493272,44.5715154 558.098473,44.9080788 L557.341205,44.9082141 L557.088737,45.159824 L556.327547,67.0461023 C556.326766,71.4065817 556.747,74.0059841 557.588263,74.8443876 C566.675433,75.345897 577.024613,75.5956112 588.636112,75.5935376 L588.636067,75.8451025 C589.309107,76.3481145 589.645037,79.8699273 589.643864,86.4106464 L589.134647,110.812528 C585.600532,111.819424 579.920989,112.323563 572.095848,112.32496 C564.270707,112.326358 559.76914,112.746432 558.591012,113.585196 C557.91725,117.107242 557.579901,121.509643 557.578955,126.792532 C557.578008,132.07542 557.913479,138.154784 558.585377,145.030804 L558.837754,145.282324 Z" transform="rotate(3 571.844 92.954)"/>
    <path d="M720.392726,117.797362 L731.751556,117.793992 C738.651028,117.791945 743.110251,118.2099 745.129359,119.047868 C746.81026,125.420484 747.649849,131.457831 747.648152,137.160091 C747.64281,155.10544 740.9074,169.614441 727.441721,180.687528 C718.352365,188.237333 707.833886,192.097807 695.88597,192.269065 C692.351944,192.773254 688.481492,193.025969 684.274497,193.027217 C680.067502,193.028465 674.766967,192.359194 668.372734,191.019383 C661.9785,189.679571 655.627069,186.201452 649.318248,180.584921 C643.009428,174.968389 639.435695,167.715948 638.596942,158.82738 C637.928066,144.571929 637.596467,127.92671 637.602133,108.891223 L637.619993,48.8920044 C637.620792,46.2085877 638.631579,42.4347902 640.652385,37.5704984 C643.684067,28.6807822 648.313864,21.3839798 654.541914,15.6798722 C657.908259,13.1631706 662.199904,11.2332208 667.416978,9.88996485 C673.812209,7.87550526 679.28152,6.86761661 683.825075,6.86626866 C698.128859,6.86202511 709.402663,9.45820112 717.646826,14.6548746 C738.173068,27.7304399 748.433065,44.2469305 748.427124,64.2048417 C748.425277,70.4102426 747.413691,76.8674166 745.392337,83.5765573 C741.521651,84.4162732 736.641485,84.8369986 730.751692,84.8387459 C724.861899,84.8404933 717.457923,84.0879903 708.539543,82.5812144 C708.203532,80.7364653 707.951965,77.8854528 707.784833,74.0280913 C707.617702,70.1707298 707.366209,67.0681508 707.030349,64.720261 C706.022767,57.6765919 703.668258,53.0652377 699.966751,50.88606 C697.947743,49.7126643 696.012729,49.1262499 694.161651,49.126799 C692.310573,49.1273482 689.57598,49.4216537 685.957789,50.0097245 C682.339599,50.5977952 679.773058,51.6467505 678.25809,53.1566216 C677.753151,53.4921985 677.332208,54.3308784 676.995249,55.6726866 C675.479533,59.6982609 674.71894,70.9351241 674.713449,89.3836135 C674.707957,107.832103 675.040667,120.745752 675.71159,128.124948 C677.053934,141.206205 681.84754,148.919489 690.092552,151.265032 C691.102181,151.432446 692.027681,151.516027 692.86908,151.515777 C704.143827,151.512433 710.035754,144.047545 710.545036,129.12089 C710.715063,123.250866 710.968628,119.393438 711.305736,117.548489 C712.820205,117.715753 715.849171,117.79871 720.392726,117.797362 Z" transform="rotate(5 693.015 99.947)"/>
    <path d="M788.754934,204.013068 L789.027245,170.048472 C789.046125,137.844982 788.392143,105.306921 787.065282,72.4333113 L786.81303,72.1818703 C783.785112,70.6741016 778.106683,69.8388003 769.777573,69.6759412 C761.448463,69.5130821 757.031623,69.3479392 756.526921,69.1805077 C755.5185,67.1683796 755.017075,61.4241278 755.02263,51.9475799 C755.028186,42.4710321 755.200802,35.049147 755.540482,29.681702 L755.288378,29.1786725 C767.067253,28.8363363 777.836267,28.6623192 787.595744,28.656616 C797.35522,28.6509128 808.46064,28.686354 820.912337,28.7629407 C833.364034,28.8395275 846.992927,29.7121137 861.799425,31.3807257 C862.132714,36.9155039 862.297389,43.0373313 862.293456,49.7463917 C862.289523,56.4554521 861.780698,63.3324309 860.766967,70.3775343 C858.747962,70.0432613 855.21451,69.8776022 850.166505,69.8805522 C845.1185,69.8835021 838.387829,70.0551593 829.97429,70.3955289 L829.217093,70.3959714 C828.880166,71.0670741 828.707379,78.7824761 828.698726,93.542409 C828.690072,108.302342 829.173233,145.201326 830.148221,204.240467 L830.147926,204.743644 C826.445663,205.416714 820.556215,205.755603 812.479407,205.760323 L806.169579,205.512422 C798.092771,205.517142 792.287456,205.855982 788.753459,206.528953 L788.754934,204.013068 Z" transform="rotate(10 808.658 117.592)"/>
  </g>
</svg>
